<?xml version="1.0" standalone="no"?>
<!DOCTYPE svg PUBLIC "-//W3C//DTD SVG 1.1//EN" "http://www.w3.org/Graphics/SVG/1.1/DTD/svg11.dtd" >
<svg xmlns="http://www.w3.org/2000/svg">
<metadata>
This is a custom SVG webfont generated by Font Squirrel.
Copyright   : Copyright  2000 2001 Adobe Systems Incorporated All Rights Reserved US Patent Des 318290 and 327903
Designer    : Robert Slimbach
Foundry URL : httpwwwadobecomtype
</metadata>
<defs>
<font id="webfontYbA2gLWE" horiz-adv-x="737" >
<font-face units-per-em="2048" ascent="1485" descent="-563" />
<missing-glyph horiz-adv-x="512" />
<glyph unicode="Th" horiz-adv-x="2181" d="M606 307v916q0 47 -8 56t-53 9h-133q-197 0 -252 -51q-51 -45 -92 -141q-12 -8 -30 -3t-24 17q47 135 78 305q4 4 19.5 4t19.5 -4q4 -25 16.5 -38t42 -18t48 -6t67.5 -1h850q141 0 152 28v29l137 55q14 0 20 -12q-6 -184 -6 -254v-430q0 -33 8 -39q137 106 277 107 q137 0 200.5 -74t63.5 -191v-342q0 -115 12.5 -143.5t65.5 -34.5l55 -6q10 -8 8 -27.5t-12 -23.5q-111 6 -205 6q-109 0 -190 -6q-10 4 -12.5 23.5t8.5 27.5l41 6q55 8 66 36t11 142v293q0 102 -49 160.5t-145 58.5q-94 0 -160 -55q-29 -25 -36 -42t-7 -71v-344 q0 -113 12.5 -141.5t65.5 -36.5l43 -6q10 -6 8 -26.5t-12 -24.5q-92 6 -193 6q-102 0 -200 -6q-10 4 -12.5 23.5t8.5 27.5l51 6q55 6 66.5 35t11.5 143v916q0 94 -51.5 118.5t-235.5 24.5h-186q-45 0 -52.5 -9t-7.5 -60v-912q0 -166 18.5 -207t104.5 -49l66 -6q8 -6 7 -26.5 t-12 -24.5q-176 6 -268 6q-88 0 -284 -6q-10 4 -11.5 23.5t11.5 27.5l73 6q86 8 106.5 50t20.5 206z" />
<glyph unicode="&#x164;h" horiz-adv-x="2181" d="M606 307v916q0 47 -8 56t-53 9h-133q-197 0 -252 -51q-51 -45 -92 -141q-12 -8 -30 -3t-24 17q47 135 78 305q4 4 19.5 4t19.5 -4q4 -25 16.5 -38t42 -18t48 -6t67.5 -1h850q141 0 152 28v29l137 55q14 0 20 -12q-6 -184 -6 -254v-430q0 -33 8 -39q137 106 277 107 q137 0 200.5 -74t63.5 -191v-342q0 -115 12.5 -143.5t65.5 -34.5l55 -6q10 -8 8 -27.5t-12 -23.5q-111 6 -205 6q-109 0 -190 -6q-10 4 -12.5 23.5t8.5 27.5l41 6q55 8 66 36t11 142v293q0 102 -49 160.5t-145 58.5q-94 0 -160 -55q-29 -25 -36 -42t-7 -71v-344 q0 -113 12.5 -141.5t65.5 -36.5l43 -6q10 -6 8 -26.5t-12 -24.5q-92 6 -193 6q-102 0 -200 -6q-10 4 -12.5 23.5t8.5 27.5l51 6q55 6 66.5 35t11.5 143v916q0 94 -51.5 118.5t-235.5 24.5h-186q-45 0 -52.5 -9t-7.5 -60v-912q0 -166 18.5 -207t104.5 -49l66 -6q8 -6 7 -26.5 t-12 -24.5q-176 6 -268 6q-88 0 -284 -6q-10 4 -11.5 23.5t11.5 27.5l73 6q86 8 106.5 50t20.5 206zM639 1460l-252 232q0 14 8 27.5t21 13.5l233 -117q20 -12 30.5 -11t35.5 11l237 117q23 -4 23 -41l-250 -232q-41 -39 -86 0z" />
<glyph unicode="ffj" horiz-adv-x="1601" d="M195 229v433q0 43 -5.5 51t-35.5 8h-72q-23 14 -6 39l88 43q31 16 31 41q0 170 69 317q51 106 145.5 180t231.5 74q86 0 148.5 -28.5t87.5 -63.5q45 57 133 99t194 42q104 0 179 -47t75 -112q0 -41 -27.5 -62.5t-56.5 -21.5q-35 0 -53 30q-41 70 -94 102.5t-99 32.5 q-233 0 -233 -493v-23q0 -39 7 -51t32 -12h229q186 0 269 31q14 0 20 -11q-8 -147 -8 -256v-469q0 -215 -43 -319q-78 -188 -311 -334q-18 2 -26.5 16.5t-2.5 30.5q72 35 121 92q111 129 110 484v514q0 92 -17.5 113.5t-84.5 21.5h-256q-25 0 -32 -12.5t-7 -51.5v-428 q0 -115 12.5 -144.5t65.5 -33.5l65 -6q10 -8 8 -27.5t-12 -23.5q-125 6 -215 6q-104 0 -196 -6q-10 4 -12.5 23.5t7.5 27.5l48 6q55 8 66 36t11 142v433q0 43 -5 51t-36 8h-321q-25 0 -30 -8t-5 -51v-433q0 -115 12.5 -144.5t65.5 -33.5l74 -6q10 -8 8 -27.5t-12 -23.5 q-137 6 -224 6q-104 0 -196 -6q-10 4 -12.5 23.5t8.5 27.5l47 6q55 8 66.5 35.5t11.5 142.5zM406 807h307q12 0 21 11t9 26q0 184 54 352q-16 55 -72.5 101t-132.5 46q-53 0 -95 -19t-68 -55t-43 -78t-25.5 -100.5t-11.5 -106.5t-3 -110v-10q0 -41 7.5 -49t52.5 -8z" />
<glyph unicode="fj" horiz-adv-x="1052" d="M195 229v433q0 43 -5.5 51t-35.5 8h-72q-23 14 -6 39l88 43q31 16 31 41q0 199 63 344q43 102 143.5 189t253.5 87q104 0 179 -47t75 -112q0 -41 -27.5 -62.5t-56.5 -21.5q-35 0 -53 30q-41 70 -94 102.5t-98 32.5q-233 0 -234 -493v-23q0 -39 7 -51t32 -12h229 q186 0 269 31q14 0 20 -11q-8 -147 -8 -256v-469q0 -215 -43 -319q-78 -188 -311 -334q-18 2 -26.5 16.5t-2.5 30.5q72 35 121 92q111 129 110 484v514q0 92 -17 113.5t-85 21.5h-256q-25 0 -32 -12.5t-7 -51.5v-428q0 -115 12.5 -144.5t65.5 -33.5l65 -6q10 -8 8.5 -27.5 t-12.5 -23.5q-125 6 -215 6q-104 0 -196 -6q-10 4 -12.5 23.5t8.5 27.5l47 6q55 8 66.5 35.5t11.5 142.5z" />
<glyph unicode="&#xfb00;" horiz-adv-x="1142" d="M195 229v433q0 43 -5.5 51t-35.5 8h-72q-23 14 -6 39l88 43q31 16 31 41q0 170 69 317q51 106 145.5 180t231.5 74q152 0 231 -90q41 53 126 96t180 43q82 0 138 -34.5t56 -88.5q0 -31 -22.5 -52t-51.5 -21q-25 0 -49 26q-78 90 -159 90q-102 0 -148 -110 q-47 -119 -47 -350v-60q0 -41 4 -49t31 -8h233q16 -16 10 -48t-24 -38h-219q-25 0 -30 -8t-5 -51v-433q0 -115 12.5 -144.5t65.5 -33.5l65 -6q10 -8 8 -27.5t-12 -23.5q-125 6 -215 6q-104 0 -196 -6q-10 4 -12.5 23.5t7.5 27.5l48 6q55 8 66 36t11 142v433q0 43 -5 51 t-36 8h-321q-25 0 -30 -8t-5 -51v-433q0 -115 12.5 -144.5t65.5 -33.5l74 -6q10 -8 8 -27.5t-12 -23.5q-137 6 -224 6q-104 0 -196 -6q-10 4 -12.5 23.5t8.5 27.5l47 6q55 8 66.5 35.5t11.5 142.5zM406 807h307q12 0 21 11t9 26q0 180 52 354q-16 53 -71.5 99t-131.5 46 q-53 0 -95 -19t-68 -55t-43 -78t-25.5 -100.5t-11.5 -106.5t-3 -110v-10q0 -41 7.5 -49t52.5 -8z" />
<glyph unicode="&#xfb01;" horiz-adv-x="1069" d="M195 229v433q0 43 -5.5 51t-35.5 8h-72q-23 14 -6 39l88 43q31 16 31 41q0 199 63 344q43 102 143.5 189t253.5 87q104 0 179 -47t75 -112q0 -41 -27.5 -62.5t-56.5 -21.5q-35 0 -53 30q-41 70 -94 102.5t-98 32.5q-233 0 -234 -493v-23q0 -39 7 -51t32 -12h229 q186 0 269 31q14 0 20 -11q-8 -147 -8 -256v-342q0 -113 12.5 -141.5t65.5 -36.5l43 -6q10 -8 8 -27.5t-12 -23.5q-92 6 -193 6q-106 0 -192 -6q-10 4 -12.5 23.5t8.5 27.5l43 6q55 8 66 36t11 142v357q0 92 -17 113.5t-85 21.5h-256q-25 0 -32 -12.5t-7 -51.5v-428 q0 -115 12.5 -144.5t65.5 -33.5l65 -6q10 -8 8.5 -27.5t-12.5 -23.5q-125 6 -215 6q-104 0 -196 -6q-10 4 -12.5 23.5t8.5 27.5l47 6q55 8 66.5 35.5t11.5 142.5z" />
<glyph unicode="&#xfb02;" horiz-adv-x="1069" d="M705 721h-320q-29 0 -34 -8t-5 -56v-428q0 -115 12.5 -144.5t65.5 -33.5l63 -6q10 -8 8.5 -27.5t-12.5 -23.5q-123 6 -213 6q-104 0 -196 -6q-10 4 -12.5 23.5t8.5 27.5l47 6q55 8 66.5 36t11.5 142v433q0 43 -5.5 51t-35.5 8h-72q-23 14 -6 39l88 43q31 16 31 41 q0 221 55 356q43 104 139 184t244 80q104 0 190 -53l54 53q16 0 24 -8q-6 -135 -6 -305v-922q0 -113 12.5 -141.5t65.5 -36.5l49 -6q10 -8 8 -27.5t-12 -23.5q-100 6 -199 6q-104 0 -196 -6q-10 4 -12.5 23.5t7.5 27.5l48 6q55 8 66 36t11 142v451q0 27 -5.5 34t-32.5 7z M743 848v330q0 109 -34 155q-51 66 -125 66q-80 0 -132.5 -48t-73 -134.5t-26.5 -151t-6 -152.5v-63q0 -31 6 -37t33 -6h320q25 0 31.5 7t6.5 34z" />
<glyph unicode="&#xfb03;" horiz-adv-x="1617" d="M195 229v433q0 43 -5.5 51t-35.5 8h-72q-23 14 -6 39l88 43q31 16 31 41q0 170 69 317q51 106 145.5 180t231.5 74q86 0 148.5 -28.5t87.5 -63.5q45 57 133 99t194 42q104 0 179 -47t75 -112q0 -41 -27.5 -62.5t-56.5 -21.5q-35 0 -53 30q-41 70 -94 102.5t-99 32.5 q-233 0 -233 -493v-23q0 -39 7 -51t32 -12h229q186 0 269 31q14 0 20 -11q-8 -147 -8 -256v-342q0 -113 12 -141.5t66 -36.5l43 -6q10 -8 8 -27.5t-12 -23.5q-92 6 -193 6q-106 0 -192 -6q-10 4 -12.5 23.5t7.5 27.5l43 6q55 8 66.5 36t11.5 142v357q0 92 -17.5 113.5 t-84.5 21.5h-256q-25 0 -32 -12.5t-7 -51.5v-428q0 -115 12.5 -144.5t65.5 -33.5l65 -6q10 -8 8 -27.5t-12 -23.5q-125 6 -215 6q-104 0 -196 -6q-10 4 -12.5 23.5t7.5 27.5l48 6q55 8 66 36t11 142v433q0 43 -5 51t-36 8h-321q-25 0 -30 -8t-5 -51v-433q0 -115 12.5 -144.5 t65.5 -33.5l74 -6q10 -8 8 -27.5t-12 -23.5q-137 6 -224 6q-104 0 -196 -6q-10 4 -12.5 23.5t8.5 27.5l47 6q55 8 66.5 35.5t11.5 142.5zM406 807h307q12 0 21 11t9 26q0 184 54 352q-16 55 -72.5 101t-132.5 46q-53 0 -95 -19t-68 -55t-43 -78t-25.5 -100.5t-11.5 -106.5 t-3 -110v-10q0 -41 7.5 -49t52.5 -8z" />
<glyph unicode="&#xfb04;" horiz-adv-x="1615" d="M195 229v433q0 43 -5.5 51t-35.5 8h-72q-23 14 -6 39l88 43q31 16 31 41q0 170 69 317q51 106 145.5 180t231.5 74q152 0 231 -90q41 53 124 96t178 43q113 0 198 -53l53 53q16 0 25 -8q-6 -135 -6 -305v-922q0 -113 12 -141.5t66 -36.5l47 -6q10 -8 8 -27.5t-12 -23.5 q-98 6 -197 6q-106 0 -192 -6q-10 4 -12.5 23.5t7.5 27.5l43 6q55 8 66.5 36t11.5 142v451q0 27 -6 34t-33 7h-319q-29 0 -34 -8t-5 -56v-428q0 -115 12.5 -144.5t65.5 -33.5l65 -6q10 -8 8 -27.5t-12 -23.5q-125 6 -215 6q-104 0 -196 -6q-10 4 -12.5 23.5t7.5 27.5l48 6 q55 8 66 36t11 142v433q0 43 -5 51t-36 8h-321q-25 0 -30 -8t-5 -51v-433q0 -115 12.5 -144.5t65.5 -33.5l74 -6q10 -8 8 -27.5t-12 -23.5q-137 6 -224 6q-104 0 -196 -6q-10 4 -12.5 23.5t8.5 27.5l47 6q55 8 66.5 35.5t11.5 142.5zM406 807h307q12 0 21 11t9 26 q0 180 52 354q-16 53 -71.5 99t-131.5 46q-53 0 -95 -19t-68 -55t-43 -78t-25.5 -100.5t-11.5 -106.5t-3 -110v-10q0 -41 7.5 -49t52.5 -8zM1292 848v330q0 109 -35 155q-49 66 -124 66q-80 0 -132.5 -48t-73 -134.5t-26.5 -151t-6 -152.5v-63q0 -31 6 -37t33 -6h319 q25 0 32 7t7 34z" />
<glyph unicode=" "  horiz-adv-x="512" />
<glyph unicode="&#x09;" horiz-adv-x="512" />
<glyph unicode="&#xa0;" horiz-adv-x="512" />
<glyph unicode="!" horiz-adv-x="450" d="M225 -29q-47 0 -80.5 31t-33.5 82t32.5 86t81.5 35q51 0 83 -35t32 -86q0 -49 -32 -81t-83 -32zM225.5 1323q53.5 0 77 -11.5t23.5 -47.5q0 -31 -15 -183l-59 -661q-10 -10 -27.5 -10t-25.5 10l-60 661q-14 152 -14 183q0 37 23.5 48t77 11z" />
<glyph unicode="&#x22;" horiz-adv-x="827" d="M250 1434q49 0 68.5 -9.5t19.5 -40.5q0 -8 -10 -79l-54 -330q-25 -25 -49 0l-53 330q-10 72 -10 79q0 31 19.5 40.5t68.5 9.5zM577.5 1434q49.5 0 69 -9.5t19.5 -40.5q0 -8 -11 -79l-53 -330q-25 -25 -49 0l-53 330l-11 79q0 31 19.5 40.5t69 9.5z" />
<glyph unicode="#" horiz-adv-x="1003" d="M643 682h-240l-90 -332h242zM938 682h-209l-90 -332h203l-31 -102h-201l-104 -385h-80l102 385h-243l-105 -385h-78l103 385h-228l31 102h223l88 332h-229l33 102h223l92 351h88l-94 -351h238l92 351h90l-94 -351h207z" />
<glyph unicode="$" horiz-adv-x="839" d="M463 352l-43 -315q96 0 150.5 40t54.5 107q0 115 -162 168zM416 514l41 291q-102 -2 -147.5 -44t-45.5 -102q0 -102 152 -145zM465 864l14 109q8 10 35 10t35 -10l-17 -115q72 -4 175 -31q31 -63 36 -188q-8 -12 -24.5 -13t-22.5 9q-18 41 -33.5 65.5t-52.5 55t-86 41.5 l-41 -297q143 -45 212 -109.5t69 -167.5q0 -111 -96.5 -177t-255.5 -71l-19 -135q-12 -14 -36.5 -13t-34.5 13l20 140q-109 8 -219 59q-20 25 -34.5 89.5t-14.5 125.5q8 14 23.5 14t23.5 -10q16 -68 74.5 -130t154.5 -83l45 328q-135 41 -198.5 98t-63.5 143q0 113 89 180.5 t243 69.5z" />
<glyph unicode="%" horiz-adv-x="1488" d="M1137 606q133 0 201.5 -99t68.5 -218q0 -117 -68.5 -217.5t-201.5 -100.5t-202 100.5t-69 217.5q0 119 69 218t202 99zM1139 549q-49 0 -82 -49t-43 -103.5t-10 -107.5t10 -107.5t43 -103.5t82 -49q70 0 100.5 85t30.5 175t-30.5 175t-100.5 85zM354 1049 q133 0 202 -99.5t69 -218.5q0 -117 -69 -217t-202 -100q-135 0 -203.5 100t-68.5 217q0 119 68.5 218.5t203.5 99.5zM354 991q-47 0 -79.5 -49t-43 -103.5t-10.5 -107.5t10.5 -107.5t43 -103.5t79.5 -49q131 0 131 260t-131 260zM1102 1034l-668 -1106q-43 0 -61 47 l663 1098q20 2 41 -10.5t25 -28.5z" />
<glyph unicode="&#x26;" horiz-adv-x="1675" d="M1178 979h168q178 0 288 8q10 -8 11.5 -24.5t-7.5 -24.5l-90 -14q-53 -8 -100 -48t-68.5 -71t-66.5 -105q-61 -100 -238 -342l68 -102q74 -111 145.5 -147.5t151.5 -36.5q113 0 184 73q12 -2 19.5 -12t3.5 -24q-111 -137 -326 -138q-154 0 -219 60q-33 27 -125 188 q-221 -248 -447 -248q-199 0 -300 114t-101 255q0 147 86 249.5t246 196.5q-158 109 -158 248q0 119 86 198t201 79q117 0 190.5 -68.5t73.5 -175.5q0 -47 -14.5 -84t-54.5 -69.5t-59 -46t-79 -46.5q203 -125 391 -401q39 53 105.5 163.5t107.5 194.5q45 90 45 113 q0 25 -53 31l-69 8q-10 8 -9 24.5t13 24.5zM514 743q-90 -45 -160.5 -136t-70.5 -206q0 -137 85 -223t220 -86q193 0 352 189q-76 131 -190.5 256.5t-235.5 205.5zM582 1251q-66 0 -107 -51t-41 -117q0 -127 168 -223q123 84 123 213q0 74 -36.5 126t-106.5 52z" />
<glyph unicode="'" horiz-adv-x="481" d="M242 1434q49 0 68.5 -9.5t19.5 -40.5q0 -8 -11 -79l-53 -330q-25 -25 -49 0l-53 330q-10 72 -10 79q0 31 19.5 40.5t68.5 9.5z" />
<glyph unicode="(" horiz-adv-x="655" d="M299 553q0 -524 315 -856q0 -29 -28 -31q-190 127 -306 364.5t-116 522.5t115.5 522.5t306.5 364.5q29 -2 28 -31q-315 -332 -315 -856z" />
<glyph unicode=")" horiz-adv-x="655" d="M356 553q0 524 -315 856q0 29 29 31q190 -127 306 -364.5t116 -522.5t-116 -522.5t-306 -364.5q-29 2 -29 31q315 332 315 856z" />
<glyph unicode="*" horiz-adv-x="806" d="M430 1384l21 -266l256 129q14 -2 21 -15t3 -28l-235 -164l233 -161q4 -14 -3 -28.5t-21 -16.5l-254 133l-21 -267q-25 -20 -49 0l-23 267l-254 -133q-14 2 -21 16t-3 29l233 161l-235 164q-4 14 3 27.5t21 15.5l256 -129l23 266q22 18 49 0z" />
<glyph unicode="+" horiz-adv-x="1024" d="M573 0h-120v371h-334v100h334v336h120v-336h334v-100h-334v-371z" />
<glyph unicode="," horiz-adv-x="512" d="M231 250q61 0 111.5 -53.5t50.5 -147.5q0 -115 -73.5 -188.5t-192.5 -108.5q-14 4 -18.5 22.5t6.5 26.5q168 53 168 179q0 25 -10.5 44t-27 31.5t-30.5 20.5t-30.5 14t-18.5 8q-35 18 -35 60q0 37 26.5 64.5t73.5 27.5z" />
<glyph unicode="-" horiz-adv-x="655" d="M82 461l477 45q31 -20 31 -66q0 -31 -17 -51l-477 -45q-31 25 -30 66q0 31 16 51z" />
<glyph unicode="." horiz-adv-x="512" d="M256 -29q-47 0 -81 31t-34 82t33 86t82 35q51 0 83 -35t32 -86q0 -49 -32 -81t-83 -32z" />
<glyph unicode="/" horiz-adv-x="669" d="M608 1405l-428 -1438h-119l428 1438h119z" />
<glyph unicode="0" horiz-adv-x="1046" d="M532.5 893q188.5 0 319.5 -131t131 -332q0 -197 -132 -328t-318.5 -131t-318.5 131t-132 328q0 201 131 332t319.5 131zM532.5 66q139.5 0 226.5 103t87 261q0 160 -87 264.5t-226.5 104.5t-226.5 -104.5t-87 -264.5q0 -158 87 -261t226.5 -103z" />
<glyph unicode="1" horiz-adv-x="671" d="M412 641v-418q0 -111 17 -138.5t97 -35.5l66 -6q10 -8 9 -27.5t-15 -21.5q-74 6 -252 6q-190 0 -248 -6q-14 2 -15 21.5t9 27.5l55 6q88 10 106.5 38t18.5 136v418q0 106 -18.5 133t-106.5 41l-35 6q-10 8 -9 27.5t15 21.5q57 -6 228 -6q158 0 231 6q14 -2 15.5 -21.5 t-9.5 -27.5l-34 -6q-88 -14 -106.5 -41t-18.5 -133z" />
<glyph unicode="2" horiz-adv-x="901" d="M377 119h244q66 0 94 4t57 26.5t53 69.5q12 8 27.5 3t21.5 -19q-72 -150 -96 -209q-115 6 -278 6h-203q-117 0 -182 -6q-8 4 -12.5 15t-0.5 20q113 86 207 184q102 106 156.5 190t54.5 172q0 92 -48 145.5t-132 53.5q-121 0 -209 -141q-16 -4 -28.5 5t-12.5 26 q41 88 129 158.5t199 70.5q121 0 192.5 -65.5t71.5 -172.5q0 -86 -41 -154.5t-143 -178.5l-160 -175q-4 -28 39 -28z" />
<glyph unicode="3" horiz-adv-x="778" d="M393 893q92 0 162 -52.5t70 -162.5q0 -100 -140 -203q-59 -47 -32 -57q213 -70 213 -266q0 -205 -177 -363q-84 -76 -183 -125t-150 -49q-43 0 -62.5 27.5t-19.5 56.5q0 35 37 35q4 0 41.5 -5t62.5 -5q117 0 203 93t86 257q0 100 -49 172.5t-148 72.5q-53 0 -117 -59 q-16 2 -27 20.5t-3 41.5q170 90 229 145q82 80 82 172q0 68 -40 110t-114 42q-98 0 -184 -115q-35 0 -35 31q35 74 117 130t178 56z" />
<glyph unicode="4" horiz-adv-x="962" d="M573 -367v371v21q0 6 -2 13t-7 9t-12 4t-20 2h-481q-16 10 -16 35l90 102q68 78 299 369t262 334q25 12 37 -10v-676q0 -39 6 -47t35 -8h176q14 -14 14 -49t-14 -50h-176q-31 0 -36 -7t-5 -42v-371q-10 -14 -80 -14q-58 0 -70 14zM238 152h294q29 0 35 8t6 47v434h-4 l-354 -448q-30 -41 23 -41z" />
<glyph unicode="5" horiz-adv-x="757" d="M612 111q0 -100 -49 -192.5t-122.5 -156t-146.5 -106.5t-134 -62q-18 8 -23.5 28t6.5 30q109 33 217.5 146.5t108.5 264.5q0 166 -166 285l-37 26q-25 17 -35 25l-28 23q-18 14 -26.5 23.5t-17.5 22.5t-13.5 27.5t-4.5 28.5q0 59 45 164q51 121 90 133q25 8 134 25 l143 20q82 10 113 31q27 -2 22 -27q-37 -119 -117 -131l-260 -37q-41 -6 -56 -18t-24 -39q-8 -29 3.5 -49.5t54.5 -48.5l96 -66q227 -157 227 -370z" />
<glyph unicode="6" horiz-adv-x="1001" d="M612 692q135 0 214 -92t79 -221q0 -172 -120.5 -290t-297.5 -118q-168 0 -271 117t-103 309q0 160 70.5 325t217.5 300q100 92 229.5 158.5t206 90t136.5 32.5q10 -4 13 -18.5t-7 -22.5q-250 -96 -397 -234q-301 -279 -301 -645q0 -141 64.5 -243.5t184.5 -102.5 q96 0 159 74.5t63 193.5q0 117 -59.5 204t-170.5 87q-59 0 -106 -23q-29 8 -15 37q113 82 211 82z" />
<glyph unicode="7" horiz-adv-x="966" d="M705 737h-394q-84 0 -128 -20.5t-72 -85.5q-35 -14 -48 14q49 96 72 225q74 -6 201 -6h319q225 0 258 6q18 -2 19 -20q-80 -119 -260 -461l-420 -792q-6 -2 -21 -3q-47 0 -53 39l533 988q20 39 29.5 61.5t7 34.5t-11 16t-31.5 4z" />
<glyph unicode="8" horiz-adv-x="880" d="M465 1272q129 0 220 -78t91 -217q0 -78 -43 -144.5t-86 -99.5t-119 -80q82 -61 125 -102t79 -113.5t36 -163.5q0 -135 -96.5 -219t-239.5 -84q-137 0 -234.5 75t-97.5 208q0 106 68 185t182 157q-238 160 -237 344q0 150 103.5 241t248.5 91zM397 559 q-160 -121 -159 -293q0 -98 55 -165.5t147 -67.5q90 0 141.5 55t51.5 145q0 174 -236 326zM451 1210q-88 0 -142.5 -66.5t-54.5 -156.5q0 -66 40 -127t80 -93t105 -77q158 100 158 293q0 90 -50 158.5t-136 68.5z" />
<glyph unicode="9" horiz-adv-x="966" d="M559 -172q-201 -184 -475 -234q-10 6 -14 20.5t4 25.5q166 59 293 155q49 37 97 91.5t103.5 138.5t90 201.5t34.5 248.5q0 57 -11 113.5t-35.5 113t-76 90t-120.5 33.5q-94 0 -151.5 -69.5t-57.5 -176t58 -201.5t155 -95q59 0 98 18q20 -8 12 -37q-88 -72 -198 -71 q-117 0 -194 88t-77 215q0 172 119 284.5t283 112.5q178 0 271 -117t93 -311q0 -358 -301 -637z" />
<glyph unicode=":" horiz-adv-x="512" d="M256 573q-47 0 -81 31t-34 82t33 86t82 35q51 0 83 -35t32 -86q0 -49 -32 -81t-83 -32zM256 -29q-47 0 -81 31t-34 82t33 86t82 35q51 0 83 -35t32 -86q0 -49 -32 -81t-83 -32z" />
<glyph unicode=";" horiz-adv-x="512" d="M231 250q61 0 111.5 -53.5t50.5 -147.5q0 -115 -73.5 -188.5t-192.5 -108.5q-14 4 -18.5 22.5t6.5 26.5q168 53 168 179q0 25 -10.5 44t-27 31.5t-30.5 20.5t-30.5 14t-18.5 8q-35 18 -35 60q0 37 26.5 64.5t73.5 27.5zM256 573q-47 0 -81 31t-34 82t33 86t82 35 q51 0 83 -35t32 -86q0 -49 -32 -81t-83 -32z" />
<glyph unicode="&#x3c;" horiz-adv-x="1024" d="M115 467l796 379v-119l-649 -303v-4l649 -305v-117l-796 377v92z" />
<glyph unicode="=" horiz-adv-x="1024" d="M907 625v-101h-788v101h788zM907 317v-100h-788v100h788z" />
<glyph unicode="&#x3e;" horiz-adv-x="1024" d="M113 846l796 -379v-92l-796 -377v117l649 305v4l-649 303v119z" />
<glyph unicode="?" horiz-adv-x="657" d="M213 1323q127 0 239.5 -129t112.5 -289q0 -76 -24.5 -122t-53.5 -62l-161 -86q-72 -37 -72 -90q0 -37 20 -119q-6 -12 -20 -15t-23 5q-74 121 -73 202q0 57 26.5 87t83.5 61l101 53q113 59 112 150q0 80 -45 125q-66 66 -237 65q-18 0 -43 25.5t-25 60.5q0 33 21.5 55.5 t60.5 22.5zM258 -29q-47 0 -81 31t-34 82t33 86t82 35q51 0 83 -35t32 -86q0 -49 -32 -81t-83 -32z" />
<glyph unicode="@" horiz-adv-x="1566" d="M926 666q-53 0 -129 -62q-84 -68 -149.5 -196.5t-65.5 -214.5q0 -27 24 -27q45 0 164 106q70 61 146.5 170t97.5 164q-20 60 -88 60zM1061 692l51 105q23 8 53.5 -0.5t44.5 -24.5q-203 -465 -239 -567q-14 -35 -3 -51.5t50 -14.5q170 6 284.5 119t114.5 299 q0 213 -151.5 342t-382.5 129q-293 0 -471.5 -209t-178.5 -504q0 -98 31 -191t97.5 -179t190.5 -139.5t292 -53.5q147 0 317 72q27 -12 17 -39q-166 -104 -396 -104q-131 0 -250.5 38.5t-220 114.5t-160 200t-59.5 279q0 348 239.5 566.5t569.5 218.5q281 0 442.5 -157 t161.5 -376q0 -205 -145.5 -349t-384.5 -144q-147 0 -148 45q0 20 17 63l51 129l-4 2q-92 -96 -208 -167.5t-179 -71.5q-41 0 -62.5 26.5t-21.5 65.5q0 41 38 130t117 185q211 258 410 258q23 0 45.5 -12.5t30.5 -32.5z" />
<glyph unicode="A" horiz-adv-x="1275" d="M924 197l-90 278q-10 35 -24.5 43t-59.5 8h-310q-39 0 -53 -8t-25 -41l-71 -215q-45 -135 -45 -170q0 -37 59 -41l68 -6q10 -8 10 -26.5t-14 -24.5q-29 2 -213 6q-31 0 -197 -6q-11 7 -11 28q0 15 7 23l68 6q86 8 122 101q10 29 41 101l66 163l74 192l209 553 q36 94 35 135q0 6 -1 11q53 16 107 77q25 0 31 -18q23 -76 90 -274l280 -824q45 -131 77 -170t97 -47l56 -6q9 -7 9 -23q0 -21 -9 -28q-127 6 -248 6q-57 0 -236 -6q-12 6 -13 24.5t9 26.5l60 6q72 6 71 37q1 29 -26 109zM557 1014l-129 -357q-8 -23 -8 -34q0 -5 2 -8 q6 -7 49 -7h252q45 0 52 12q2 4 3 10q0 14 -10 42l-111 334q-35 104 -47 129h-4q-12 -21 -49 -121z" />
<glyph unicode="B" horiz-adv-x="1239" d="M262 307v778q0 119 -16.5 156t-83.5 43l-66 6q-11 9 -11 25q0 19 13 26q176 16 441 17q231 0 344 -58q156 -76 155 -256q0 -104 -53 -168.5t-156 -111.5q0 -25 39 -31q102 -18 188.5 -106t86.5 -236q0 -184 -138.5 -290.5t-406.5 -106.5q-27 0 -113 3t-133 3 q-8 0 -235 -6q-10 4 -11.5 22.5t7.5 28.5l37 6q80 14 96 53t16 203zM430 641v-303q0 -174 43 -223q47 -57 162 -58q145 0 233 71t88 216t-93 247.5t-314 102.5q-80 0 -99.5 -10t-19.5 -43zM430 1229v-416q0 -43 14 -51q11 -7 64 -7q13 0 29 1q164 6 242.5 64.5t78.5 197.5 q0 141 -88 208.5t-217 67.5q-66 0 -94 -12q-29 -8 -29 -53z" />
<glyph unicode="C" horiz-adv-x="1425" d="M90 668q0 166 69.5 308t188.5 234q223 174 553 174q184 0 363 -49q41 -10 57 -8q6 -123 29 -301q-8 -10 -26.5 -12t-29.5 8q-66 299 -420 299q-250 0 -414.5 -160t-164.5 -463q0 -311 173 -489t435 -178q176 0 279.5 88t148.5 205q10 8 28.5 5t24.5 -14 q-10 -76 -41.5 -162.5t-56.5 -117.5q-29 -4 -72 -21q-41 -14 -138 -30.5t-185 -16.5q-305 0 -510 137q-291 202 -291 564z" />
<glyph unicode="D" horiz-adv-x="1597" d="M262 307v778q0 113 -17.5 152t-78.5 47l-45 6q-12 8 -12 26.5t14 24.5q279 16 514 17q285 0 450 -62q203 -74 309.5 -234.5t106.5 -369.5q0 -197 -92 -356.5t-266 -253.5q-182 -98 -459 -98q-74 0 -189.5 8t-144.5 8q-111 0 -256 -6q-11 5 -11 26q0 16 7 25l47 6 q88 12 105.5 51t17.5 205zM430 1110v-756q0 -166 41 -223q59 -84 252 -84q289 0 432 172t143 469q0 76 -14 150.5t-58 159.5t-113 148.5t-187.5 105.5t-272.5 42q-164 0 -202 -28q-21 -17 -21 -156z" />
<glyph unicode="E" horiz-adv-x="1196" d="M262 307v737q0 166 -18.5 207t-106.5 52l-33 4q-8 6 -7 26.5t12 24.5q133 -6 241 -6h385q252 0 277 6q10 -31 32 -273q-6 -10 -24.5 -11t-26.5 7q-14 43 -18 56.5t-18.5 44t-28 43t-37 28t-53.5 23.5q-51 12 -199 12h-147q-45 0 -53.5 -11t-8.5 -71v-409 q0 -41 10.5 -49.5t57.5 -8.5h118q137 0 174 12.5t50 71.5l16 84q8 10 27.5 9t25.5 -11q0 -20 -4 -92t-4 -115q0 -41 4 -109.5t4 -86.5q-6 -10 -25.5 -11.5t-27.5 9.5l-18 80q-14 66 -64 77q-37 10 -158 11h-118q-47 0 -57.5 -8.5t-10.5 -47.5v-288q0 -172 39 -213 q47 -47 248 -47.5t262 30.5q63 35 145 199q10 8 27.5 4t24.5 -18q-33 -160 -93 -285q-276 6 -548 6h-185q-96 0 -278 -6q-11 5 -12 26q0 16 8 25l67 6q86 8 106.5 50t20.5 206z" />
<glyph unicode="F" horiz-adv-x="1101" d="M430 1206v-432q0 -41 10.5 -48t57.5 -7h139q137 0 174 12q12 4 20.5 10.5t16.5 21.5t14 40l19 82q8 8 27.5 8t25.5 -8q0 -20 -4 -93t-4 -114t4 -109.5t4 -89.5q-6 -8 -24.5 -8t-28.5 8l-21 80q-16 63 -65 78q-37 10 -158 10h-139q-47 0 -57.5 -8t-10.5 -47v-285 q0 -166 18.5 -207t106.5 -49l70 -6q8 -6 7 -26.5t-11 -24.5q-182 6 -273 6q-111 0 -256 -6q-11 5 -11 26q0 16 7 25l51 6q86 10 104.5 50t18.5 206v737q0 166 -18.5 207t-104.5 52l-33 4q-8 6 -7 26.5t12 24.5q129 -6 237 -6h377q250 0 276 6q0 -154 7 -271 q-4 -10 -21.5 -12t-28.5 6q-14 82 -43.5 129t-99.5 66q-45 12 -199 12h-124q-45 0 -53.5 -11.5t-8.5 -70.5z" />
<glyph unicode="G" horiz-adv-x="1529" d="M1327 324v-115q0 -127 49 -146q12 -12 -2 -24q-31 0 -100 -19q-201 -53 -367 -53q-399 0 -624 228q-188 188 -189 464q0 289 185 486q229 240 649 239q129 0 260 -30q88 -19 118 -19h9q0 -92 31 -297q-4 -12 -26 -14t-30 8q-41 158 -146.5 224.5t-273.5 66.5 q-281 0 -426 -170t-145 -420q0 -309 158.5 -505.5t455.5 -196.5q186 0 226 61q20 29 20 117v82q0 129 -19.5 158.5t-113.5 39.5l-90 11q-12 6 -11 26.5t11 24.5q88 -6 293 -6q115 0 217 6q11 -7 11 -27q0 -15 -9 -24l-33 -4q-59 -6 -73.5 -43t-14.5 -129z" />
<glyph unicode="H" horiz-adv-x="1650" d="M1118 662h-586q-74 0 -88 -9.5t-14 -56.5v-289q0 -164 19.5 -206t105.5 -50l59 -6q8 -6 7.5 -26.5t-11.5 -24.5q-166 6 -260 6q-39 0 -79 -1t-86 -3t-72 -2q-10 4 -11.5 22.5t7.5 28.5l34 6q84 14 101.5 53t17.5 203v737q0 162 -20.5 207t-100.5 52l-53 4q-7 5 -7 22 q0 24 11 29q31 0 119 -3t139 -3q104 0 238 6q10 -4 11 -24.5t-7 -26.5l-39 -4q-86 -8 -104.5 -50.5t-18.5 -208.5v-235q0 -47 14.5 -56.5t87.5 -9.5h586q74 0 88.5 9.5t14.5 56.5v235q0 166 -18.5 208t-106.5 51l-39 4q-8 6 -7 26.5t11 24.5q141 -6 248 -6q104 0 241 6 q10 -4 11.5 -24.5t-7.5 -26.5l-43 -4q-86 -8 -104 -50.5t-18 -208.5v-737q0 -166 18 -206t104 -50l50 -6q7 -5 7 -22q0 -24 -12 -29q-147 6 -247 6q-113 0 -248 -6q-10 4 -11 22.5t7 28.5l39 6q92 14 108.5 52t16.5 204v289q0 47 -14.5 56.5t-88.5 9.5z" />
<glyph unicode="I" horiz-adv-x="692" d="M262 311v729q0 170 -18.5 212t-106.5 51l-51 4q-7 5 -7 22q0 24 11 29q154 -6 258 -6q100 0 254 6q11 -5 11 -29q0 -17 -7 -22l-51 -4q-88 -8 -106.5 -50.5t-18.5 -212.5v-729q0 -168 18.5 -209t106.5 -51l51 -6q7 -5 7 -22q0 -24 -11 -29q-154 6 -254 6q-104 0 -258 -6 q-11 5 -11 26q0 16 7 25l51 6q88 10 106.5 51t18.5 209z" />
<glyph unicode="J" horiz-adv-x="706" d="M293 266v774q0 168 -24.5 211t-116.5 52l-52 4q-8 6 -7 26.5t11 24.5q178 -6 275 -6q111 0 233 6q11 -5 12 -29q0 -17 -8 -22l-30 -4q-88 -12 -106.5 -53.5t-18.5 -209.5v-759q0 -283 -47 -398q-53 -129 -160 -212t-244 -83q-88 0 -88 43q0 29 21.5 62t52.5 33 q37 0 76 -13q51 -14 86 -14q55 0 82 53q53 108 53 514z" />
<glyph unicode="K" horiz-adv-x="1382" d="M262 307v737q0 168 -18.5 209t-104.5 50l-51 4q-7 5 -7 22q0 24 11 29q150 -6 258 -6q104 0 238 6q10 -4 11 -24.5t-7 -26.5l-39 -4q-86 -8 -104.5 -50.5t-18.5 -208.5v-235q0 -78 26.5 -78t57.5 23q16 14 57 53l47 45l222 219q119 113 159 170q14 20 14.5 32.5 t-34.5 20.5l-55 13q-10 10 -9.5 26.5t13.5 24.5q109 -6 225 -6q111 0 203 6q10 -8 12 -25.5t-8 -25.5q-104 -8 -191 -58q-90 -51 -286 -237l-185 -174q-47 -47 -47 -63.5t39 -63.5q387 -444 512 -576q74 -74 164 -84l55 -6q9 -7 9 -21q0 -25 -13 -30q-80 6 -229 6 q-109 0 -250 -6q-10 4 -13 22.5t5 28.5l47 8q49 6 49 21q0 10 -29 47q-2 2 -170 192l-163 185q-123 137 -152 157q-23 14 -47 15q-23 0 -29 -20.5t-6 -78.5v-264q0 -166 17.5 -207t101.5 -49l55 -6q8 -6 7 -26.5t-11 -24.5q-150 6 -250 6q-113 0 -237 -6q-10 4 -11.5 22.5 t7.5 28.5l41 6q80 12 96 51t16 205z" />
<glyph unicode="L" horiz-adv-x="1132" d="M262 307v737q0 168 -19.5 209t-113.5 50l-51 4q-7 5 -7 22q0 24 11 29q172 -6 266 -6q98 0 252 6q10 -4 11 -24.5t-7 -26.5l-49 -4q-88 -8 -106.5 -49.5t-18.5 -209.5v-712q0 -102 8 -147.5t35 -73.5q47 -47 223 -48q203 0 250 27q74 43 135 203q8 8 30 3t22 -15 q0 -20 -33 -134t-53 -153q-158 6 -510 6h-189q-94 0 -266 -6q-11 5 -11 26q0 16 7 25l61 6q86 8 104.5 49t18.5 207z" />
<glyph unicode="M" horiz-adv-x="1867" d="M563 1020l234 -473q102 -209 141 -281h4q49 84 158 307l192 392q125 254 146 325q8 37 10 68q70 -6 154 -6q86 0 182 6q8 -6 9 -25.5t-7 -25.5l-43 -4q-94 -8 -120 -47q-24 -35 -24 -132v-16q14 -735 23 -891q2 -47 3 -57t7 -41t15.5 -38t28 -17.5t46.5 -12.5l66 -6 q9 -7 8 -21q0 -23 -12 -30q-125 6 -242 6q-121 0 -248 -6q-10 8 -12 25.5t8 25.5l60 6q72 8 86 38t14 136l-6 854h-4q-6 -10 -30 -58l-55 -113q-32 -65 -48 -95l-183 -358q-164 -319 -221 -467q-6 -8 -20 -8q-12 0 -19 8q-27 82 -180 409l-184 396l-62 139l-69 155h-4 q-8 -127 -21 -364q-14 -291 -14 -481q0 -115 16 -151t76 -40l78 -6q10 -10 9 -28.5t-11 -22.5q-104 6 -228 6q-104 0 -209 -6q-11 9 -11 29q0 15 7 22l45 6q70 10 94.5 38t32.5 130q23 248 35 451q14 248 23 456q1 14 0 27q0 76 -21 104q-25 33 -116 46l-33 4q-8 8 -6 26.5 t14 24.5q92 -6 162 -6q102 0 170 6q-1 -8 -1 -17q0 -101 107 -321z" />
<glyph unicode="N" horiz-adv-x="1603" d="M1364 838v-490q0 -305 6 -358q-8 -23 -39 -23q-39 55 -262 309l-475 541l-113 132q-100 118 -125 145h-4q-10 -31 -10 -133v-447q0 -358 37 -424q18 -33 104 -39l64 -6q8 -12 7 -27.5t-11 -23.5q-137 6 -240 6q-106 0 -213 -6q-10 8 -12 25.5t8 25.5l55 6q76 10 90 41 q27 68 27 422v592q0 98 -45 147q-39 39 -127 50l-35 4q-9 7 -9 23q0 21 13 28q86 -6 232 -6q53 0 94 6q41 -102 350 -451l199 -223q270 -301 338 -371h4q8 10 8 86v439q0 358 -41 424q-18 27 -127 41l-35 4q-10 8 -9 27.5t13 23.5q141 -6 242 -6q106 0 211 6q13 -9 13 -29 q0 -15 -9 -22l-29 -4q-100 -16 -114 -43q-31 -66 -31 -422z" />
<glyph unicode="O" horiz-adv-x="1628" d="M823 -33q-330 0 -529.5 203t-199.5 492q0 309 207 515.5t522 206.5q336 0 523.5 -205.5t187.5 -496.5q0 -307 -206 -511t-505 -204zM850 31q201 0 340 151.5t139 435.5q0 133 -30.5 254t-92 223.5t-169 164t-249.5 61.5q-86 0 -166.5 -30.5t-156.5 -96.5t-121 -186.5 t-45 -280.5q0 -94 18.5 -188.5t60.5 -187.5t103.5 -162.5t156.5 -113.5t212 -44z" />
<glyph unicode="P" horiz-adv-x="1124" d="M430 1221v-914q0 -166 19.5 -206t115.5 -50l56 -6q8 -8 7 -27.5t-12 -23.5q-174 6 -266 6q-115 0 -250 -6q-10 4 -11 22.5t7 28.5l43 6q88 12 105.5 51t17.5 205v756q0 137 -14.5 174t-81.5 45l-74 8q-9 7 -9 24q0 21 13 27q125 16 406 17q260 0 393 -82 q164 -102 164 -307q0 -225 -205 -326q-129 -61 -283 -61q-10 4 -11 21.5t9 19.5q301 55 301 344q0 152 -86 239.5t-243 87.5q-80 0 -95.5 -11t-15.5 -62z" />
<glyph unicode="Q" horiz-adv-x="1628" d="M823 1384q336 0 523.5 -205.5t187.5 -496.5q0 -248 -138.5 -433.5t-357.5 -250.5q-4 -10 17 -31q272 -262 456 -321q88 -29 191 -29q55 0 98 18q8 -2 11 -12l2 -8q0 -5 -3 -10q-94 -53 -229 -54q-166 0 -332 76q-193 90 -379 271q-43 43 -66.5 55t-70.5 20 q-123 18 -201 50q-205 76 -321.5 247.5t-116.5 391.5q0 309 207 515.5t522 206.5zM850 31q201 0 340 151.5t139 435.5q0 133 -30.5 254t-92 223.5t-169 164t-249.5 61.5q-86 0 -166.5 -30.5t-156.5 -96.5t-121 -186.5t-45 -280.5q0 -94 18.5 -188.5t60.5 -187.5 t103.5 -162.5t156.5 -113.5t212 -44z" />
<glyph unicode="R" horiz-adv-x="1320" d="M262 307v735q0 150 -14.5 191t-75.5 49l-66 8q-10 8 -10 26.5t13 24.5q184 16 456 17q229 0 342 -62q170 -88 170 -286q0 -131 -78.5 -217t-177.5 -125q-12 -14 10 -50q139 -223 227.5 -342.5t184.5 -201.5q57 -51 141 -58q9 -5 10 -15q0 -8 -8 -13q-31 -10 -90 -11 q-135 0 -226 53.5t-198 205.5q-27 39 -98 151l-102 158q-25 35 -55.5 50t-90.5 15q-70 0 -83 -6t-13 -39v-258q0 -166 17.5 -205t105.5 -51l43 -6q8 -8 7 -27.5t-11 -23.5q-137 6 -244 6q-111 0 -256 -6q-11 5 -11 26q0 16 7 25l51 6q86 10 104.5 50t18.5 206zM430 1229 v-479q0 -59 6 -68q10 -10 142 -10q141 0 210 53q102 80 103 254q0 133 -84 224t-244 91q-92 0 -112.5 -10t-20.5 -55z" />
<glyph unicode="S" horiz-adv-x="1001" d="M895 346q0 -170 -119 -274.5t-317 -104.5q-188 0 -320 76q-18 33 -34.5 123t-20.5 164q8 10 25.5 12t23.5 -6q90 -305 352 -305q123 0 189.5 68.5t66.5 166.5q0 84 -33.5 152.5t-134.5 134.5l-194 127q-221 145 -221 352q0 152 111.5 252t305.5 100q92 0 191 -26 q41 -12 72 -12q37 -98 36 -250q-6 -10 -24.5 -12.5t-26.5 6.5q-12 45 -28.5 78.5t-46 71.5t-82 59.5t-121.5 21.5q-135 0 -189.5 -68.5t-54.5 -158.5q0 -143 174 -252l164 -103q256 -157 256 -393z" />
<glyph unicode="T" horiz-adv-x="1351" d="M754 1219v-912q0 -166 18.5 -207t104.5 -49l65 -6q8 -6 7 -26.5t-11 -24.5q-176 6 -268 6q-88 0 -285 -6q-10 4 -11 23.5t11 27.5l74 6q86 8 106.5 50t20.5 206v916q0 47 -8.5 56t-53.5 9h-112q-197 0 -252 -51q-51 -45 -92 -141q-12 -8 -30 -3t-24 17q47 135 78 305 q4 4 19.5 4t19.5 -4q4 -25 16.5 -38t42 -18t48 -6t67.5 -1h830q84 0 110.5 9t48.5 48q8 4 21.5 2t15.5 -8q-16 -61 -25 -163q-6 -70 -7 -114q0 -20 1 -34q-6 -12 -25.5 -13.5t-27.5 8.5q-14 123 -51 150q-70 51 -238 51h-145q-45 0 -52 -9t-7 -60z" />
<glyph unicode="U" horiz-adv-x="1527" d="M1239 602v236q0 354 -39 424q-20 37 -102 43l-51 4q-8 10 -7.5 26.5t11.5 22.5q117 -6 233 -6q104 0 215 6q12 -8 12 -24.5t-8 -24.5l-49 -4q-82 -6 -102 -50q-29 -68 -29 -417v-232q0 -336 -143 -489q-66 -72 -170.5 -111t-221.5 -39q-252 0 -382 113q-160 133 -160 483 v484q0 166 -18.5 207.5t-104.5 50.5l-51 4q-7 5 -8 21q0 23 12 28q154 -6 254 -6t252 6q10 -4 11 -23.5t-7 -25.5l-49 -4q-86 -8 -104.5 -50.5t-18.5 -207.5v-443q0 -264 96 -405.5t319 -141.5q211 0 310.5 147.5t99.5 397.5z" />
<glyph unicode="V" horiz-adv-x="1384" d="M565 246l-360 889q-37 90 -70 124.5t-96 43.5l-37 4q-9 7 -9 22q0 20 13 29q88 -6 213 -6q119 0 248 6q10 -6 12 -23.5t-8 -27.5l-31 -4q-92 -12 -96 -39q14 -70 102 -287q180 -455 291 -707q29 59 66 146l77 181l54 128q125 293 190 459q18 49 19 80q0 29 -92 39l-37 4 q-10 10 -8 27.5t12 23.5q86 -6 213 -6q96 0 199 6q11 -7 11 -29q0 -15 -7 -22l-62 -4q-66 -6 -106 -72q-84 -139 -230 -471l-110 -252q-158 -365 -213 -535q-8 -6 -23 -6q-14 0 -31 6q-28 113 -94 273z" />
<glyph unicode="W" horiz-adv-x="1966" d="M43 1305l-49 4q-9 7 -9 20q0 22 15 29q82 -6 211 -6q125 0 233 6q12 -4 13.5 -21.5t-8.5 -27.5l-48 -4q-68 -6 -67 -35q0 -31 106 -275l355 -764l157 332q33 70 33 84.5t-16 52.5l-226 492q-27 53 -54 80.5t-77 32.5l-49 4q-10 12 -9 27.5t13 21.5q88 -6 219 -6 q156 0 226 6q10 -4 12 -20.5t-8 -28.5l-53 -4q-59 -4 -67 -24q-1 -4 -1 -9q0 -23 25 -80l157 -356q70 145 121 268q29 66 41 104.5t10 60t-14 28t-39 8.5l-61 4q-25 37 4 49q82 -6 192 -6q127 0 197 6q10 -4 12 -20.5t-8 -28.5l-59 -4q-18 -2 -34 -7.5t-30 -17.5 t-24.5 -22.5t-22.5 -31.5l-19 -32q-6 -10 -20 -37l-18 -35q-82 -145 -160 -325q-18 -37 -19 -49q0 -14 15 -50l209 -467l184 433l164 407q61 170 61 186q0 43 -67 48l-60 4q-29 33 2 49q117 -6 197 -6q111 0 190 6q13 -4 14 -24q0 -15 -10 -25l-38 -4q-72 -6 -107 -61.5 t-137 -295.5l-150 -346q-135 -313 -256 -629q-10 -6 -24 -6q-16 0 -29 6q-43 117 -248 582q-180 -367 -256 -582q-10 -6 -24.5 -6t-30.5 6l-141 330l-391 854q-25 53 -38.5 76.5t-42 45.5t-69.5 26z" />
<glyph unicode="X" horiz-adv-x="1316" d="M1292 51l72 -6q9 -9 9 -24q0 -18 -11 -27q-141 6 -258 6q-154 0 -264 -6q-25 25 -4 51l59 6q70 6 70 27q0 27 -45 90q-262 371 -293 412q-45 -57 -138.5 -196.5t-150.5 -240.5q-27 -47 -27 -65q0 -20 60 -27l55 -6q10 -10 9 -26.5t-11 -24.5q-111 6 -221 6 q-113 0 -211 -6q-15 7 -16 28q0 16 10 23l51 6q74 8 129 55.5t115 126.5q233 311 278 377q18 27 19 41q0 12 -25 47l-307 441q-53 76 -90 108.5t-88 44.5l-66 15q-8 8 -6 27.5t10 23.5q145 -6 238 -6q141 0 231 6q10 -4 12 -22.5t-8 -28.5l-57 -4q-61 -4 -61.5 -27 t61.5 -113q229 -336 262 -375q90 113 274 418q29 47 29 68q0 18 -67 26l-54 7q-10 10 -9 27.5t13 23.5q109 -6 217 -6q100 0 197 6q10 -8 12 -25.5t-8 -25.5l-49 -4q-88 -8 -219 -175q-80 -102 -266 -362q-20 -31 -21 -39q0 -18 27 -53l346 -488q90 -125 186 -135z" />
<glyph unicode="Y" horiz-adv-x="1175" d="M688 418v-107q0 -166 20.5 -210t102.5 -50l78 -6q8 -10 7 -28.5t-11 -22.5q-190 6 -279 6q-106 0 -268 -6q-10 4 -11 22.5t7 28.5l63 6q86 8 104.5 49t18.5 211v105q0 86 -10 127t-55 127l-242 471q-49 94 -80 120.5t-82 34.5l-57 11q-9 9 -9 22q0 22 13 29q98 -6 238 -6 q141 0 219 6q12 -4 14 -23.5t-8 -27.5l-27 -4q-86 -12 -86 -37q0 -31 64 -158l231 -455q117 199 193 346q133 248 133 270.5t-86 33.5l-37 4q-10 10 -9 27.5t13 23.5q111 -6 197 -6t190 6q13 -9 13 -29q0 -15 -9 -22l-57 -11q-20 -4 -39 -13t-34 -19.5t-34 -32.5l-29 -37 q-11 -14 -32 -47l-31 -50l-35 -61l-37 -63l-129 -223q-68 -117 -82 -166t-14 -166z" />
<glyph unicode="Z" horiz-adv-x="1312" d="M279 297l442 629q180 258 199 291q25 43 24 55q0 16 -74 16h-305q-244 0 -305 -67q-51 -55 -90 -140q-14 -6 -29.5 -2t-21.5 17q47 135 84 307q8 6 16.5 6t18.5 -6q4 -35 38.5 -43t163.5 -8h541q203 0 236 6q12 -2 12 -19q-78 -68 -336 -438l-338 -487 q-203 -295 -203 -317.5t58 -28.5q53 -4 303 -5q293 0 379 48q80 45 143 188q41 14 51 -14q-41 -211 -92 -291q-170 6 -373 6h-526q-88 0 -229 -6q-10 6 -11 24q33 31 105 120t119 159z" />
<glyph unicode="[" horiz-adv-x="655" d="M240 -307v1712h141q33 0 70.5 -1t84 -3t70.5 -2q27 -16 2 -45l-182 -21q-33 -2 -51 -20q-27 -27 -27 -320v-889q0 -293 27 -319q18 -18 51 -21l182 -20q25 -29 -2 -45q-25 0 -71 -2t-83.5 -3t-70.5 -1h-141z" />
<glyph unicode="\" horiz-adv-x="632" d="M180 1405l391 -1438h-118l-392 1438h119z" />
<glyph unicode="]" horiz-adv-x="655" d="M416 1405v-1712h-142q-33 0 -70.5 1t-83.5 3t-71 2q-27 16 -2 45l182 20q33 2 52 21q27 27 26 319v889q0 293 -26 320q-18 18 -52 20l-182 21q-25 29 2 45q25 0 71 2t84 3t70 1h142z" />
<glyph unicode="^" horiz-adv-x="1024" d="M922 500h-127l-283 637l-283 -637h-129l363 782h98z" />
<glyph unicode="_" horiz-adv-x="1024" d="M1024 -154v-102h-1024v102h1024z" />
<glyph unicode="`" d="M285 1311l161 -330q0 -12 -15 -19.5t-28 -5.5l-239 261q-35 37 -35 61q0 18 39 51q43 29 70 29q24 0 47 -47z" />
<glyph unicode="a" horiz-adv-x="827" d="M242 336l243 88q35 12 35 59l2 95q4 178 -149 178q-49 0 -89 -23.5t-42 -68.5q-4 -57 -21 -70q-49 -39 -117 -39q-29 0 -28 29q0 78 133 165t248 87q111 0 164 -62q49 -57 49 -162v-16l-13 -356q-1 -13 0 -26q0 -153 95 -153q27 0 51 13q25 14 26 14q14 0 15 -27 q0 -6 -20.5 -27.5t-63.5 -42t-88 -20.5q-84 0 -133 64q-18 29 -33 28q-6 0 -80 -40q-94 -51 -147 -52q-90 0 -144 47q-63 57 -63 144q0 61 37 100t133 74zM229 186q0 -39 31 -81t98 -42q29 0 69 17.5t56 34.5q23 23 27 96l4 121q0 27 -20 26q-23 0 -84 -20 q-98 -33 -139.5 -65t-41.5 -87z" />
<glyph unicode="b" horiz-adv-x="1024" d="M154 178v977q0 92 -9.5 117.5t-54.5 52.5l-20 12q-8 4 -8.5 20.5t8.5 20.5q14 6 58 20.5t87 31t78 34.5q14 0 20 -12q-8 -143 -8 -254v-387q0 -43 21 -43q117 68 235 68q172 0 281.5 -115t109.5 -287q0 -205 -132 -334t-339 -129q-86 0 -174 27q-80 27 -86 27 q-20 0 -43 -31q-2 -2 -8 -2q-14 0 -20 12q4 57 4 174zM305 598v-319q0 -115 51 -179q55 -68 156 -67q135 0 201.5 97t66.5 243q0 164 -82 269.5t-229 105.5q-88 0 -139 -33q-25 -17 -25 -117z" />
<glyph unicode="c" horiz-adv-x="819" d="M569 836q104 0 183 -35q31 -27 30 -82q0 -29 -13 -52.5t-32 -23.5q-16 0 -28 14q-88 109 -205 109q-115 0 -199 -88t-84 -242q0 -133 88 -241.5t242 -108.5q143 0 227 123q12 4 23.5 -5t13.5 -24q-49 -104 -145.5 -156.5t-196.5 -52.5q-174 0 -280 105q-119 115 -119 303 q0 184 128.5 320.5t366.5 136.5z" />
<glyph unicode="d" horiz-adv-x="1042" d="M868 1198v-899q0 -137 10.5 -187.5t49.5 -50.5q27 0 88 21q12 -4 12 -30.5t-14 -35.5q-162 -23 -271 -65q-23 0 -22 16v35q0 55 -4 64h-8q-137 -94 -258 -95q-168 0 -273.5 114t-105.5 280q0 211 141 341t354 130q86 0 138 -19q12 0 12 29v309q0 92 -9.5 117.5 t-54.5 52.5l-20 12q-8 4 -8 20.5t8 20.5q147 47 221 86q14 0 20 -12q-6 -184 -6 -254zM717 203v403q0 47 -23 80q-61 86 -172 86q-133 0 -207.5 -99.5t-74.5 -240.5q0 -150 80.5 -256t224.5 -106q100 0 157 57q15 15 15 76z" />
<glyph unicode="e" horiz-adv-x="811" d="M645 524h-379q-39 0 -47 -8t-8 -47q0 -162 91 -272.5t249 -110.5q109 0 188 100q33 10 37 -24q-47 -96 -138 -143.5t-183 -47.5q-195 0 -297 135q-86 113 -86 267q0 193 115.5 328t295.5 135q127 0 209 -74t82 -170q0 -37 -8 -53q-8 -15 -121 -15zM248 586h145 q186 0 213 20q12 8 12 39q0 51 -37.5 90t-119.5 39q-84 0 -154.5 -61.5t-73.5 -116.5q1 -10 15 -10z" />
<glyph unicode="f" horiz-adv-x="593" d="M600 721h-219q-25 0 -30 -8t-5 -51v-433q0 -115 12.5 -144.5t65.5 -33.5l74 -6q10 -8 8 -27.5t-12 -23.5q-137 6 -224 6q-104 0 -196 -6q-13 5 -13 30q0 15 9 21l47 6q55 8 66.5 36t11.5 142v433q0 43 -5.5 51t-35.5 8h-72q-23 14 -6 39l88 43q31 16 31 41q0 213 63 360 q47 106 139 183t230 77q84 0 142 -34.5t58 -88.5q0 -31 -23.5 -52t-53.5 -21q-29 0 -50 24q-78 90 -163 90q-98 0 -146 -112q-45 -115 -45 -346v-60q0 -41 4 -49t31 -8h233q16 -16 10 -48t-24 -38z" />
<glyph unicode="g" horiz-adv-x="913" d="M748 762h165q15 -7 15 -33v-12q-4 -37 -27 -39h-147q4 -35 4 -105q0 -57 -18.5 -111t-55.5 -103.5t-107.5 -80t-162.5 -30.5q-16 0 -90 6q-90 -53 -91 -113q0 -37 37 -61.5t107 -24.5q33 0 114.5 3t129.5 3q287 0 286 -225q0 -164 -152.5 -275.5t-357.5 -111.5 q-172 0 -256 72.5t-84 165.5q0 49 23 75l72 71l67 67q37 37 17 49q-61 16 -105.5 62t-44.5 100q0 12 31 34q51 33 108 95q20 25 21 39q-154 82 -154 247q0 131 98.5 220.5t235.5 89.5q102 0 197 -41q76 -33 125 -33zM555 -66h-70q-141 0 -176 -22q-98 -61 -98 -172 q0 -88 70.5 -145.5t203.5 -57.5t218 64.5t85 154.5q0 178 -233 178zM444 307q80 0 124 58.5t44 154.5q0 111 -46 183.5t-136 72.5q-76 0 -124 -63.5t-48 -165.5q0 -106 55 -173t131 -67z" />
<glyph unicode="h" horiz-adv-x="1054" d="M180 229v926q0 92 -9 117.5t-54 52.5l-21 12q-8 4 -8 20.5t8 20.5q147 47 221 86q14 0 21 -12q-6 -184 -6 -254v-430q0 -33 8 -39q137 106 276 107q137 0 201 -74t64 -191v-342q0 -115 12 -143.5t65 -34.5l56 -6q9 -7 8 -21q0 -25 -12 -30q-111 6 -205 6q-109 0 -191 -6 q-10 4 -12 23.5t8 27.5l41 6q55 8 66.5 36t11.5 142v293q0 102 -49 160.5t-145 58.5q-94 0 -160 -55q-29 -25 -36 -42t-7 -71v-344q0 -113 12 -141.5t66 -36.5l43 -6q10 -6 8 -26.5t-12 -24.5q-92 6 -193 6q-102 0 -201 -6q-13 5 -12 30q0 15 8 21l51 6q55 6 66.5 34.5 t11.5 143.5z" />
<glyph unicode="i" horiz-adv-x="526" d="M201 229v359q0 63 -7.5 81.5t-48.5 45.5l-18 12q-6 6 -6 19.5t8 17.5q123 43 211 100q16 0 20 -12q-8 -143 -8 -254v-369q0 -113 12.5 -141.5t65.5 -36.5l43 -6q9 -7 9 -21q0 -25 -13 -30q-92 6 -193 6q-106 0 -192 -6q-13 5 -13 30q0 15 9 21l43 6q55 8 66.5 35.5 t11.5 142.5zM268 1278q45 0 74 -30.5t29 -76.5q0 -53 -31 -79.5t-78 -26.5t-75.5 29.5t-28.5 72.5q0 49 31.5 80t78.5 31z" />
<glyph unicode="j" horiz-adv-x="518" d="M205 72v516q0 63 -7.5 81.5t-47.5 45.5l-19 12q-6 6 -6 19.5t8 17.5q123 43 211 100q16 0 21 -12q-8 -143 -9 -254v-496q0 -215 -43 -319q-78 -188 -311 -334q-18 2 -27 16q-5 8 -4 18q0 7 2 13q72 35 121 92q111 130 111 484zM272 1278q45 0 74 -30.5t29 -76.5 q0 -51 -32 -78.5t-77 -27.5q-47 0 -75.5 29.5t-28.5 74.5q0 49 31.5 79t78.5 30z" />
<glyph unicode="k" horiz-adv-x="987" d="M180 229v926q0 92 -9 117.5t-54 52.5l-21 12q-8 4 -8 20.5t8 20.5q147 47 221 86q14 0 21 -12q-6 -184 -6 -254v-702q0 -20 6 -25.5t31 -5.5q61 0 139 80l84 90q72 78 72 94q0 14 -46 21l-49 6q-14 4 -14 25.5t14 25.5h47q172 0 326 16q10 -4 12 -23.5t-8 -27.5l-65 -12 q-53 -10 -129 -72q-27 -20 -187 -172q-31 -29 -14 -49q45 -59 137 -164q145 -164 193 -209q37 -33 106 -45l29 -4q9 -7 9 -24q0 -23 -13 -27q-90 6 -195 6q-125 0 -213 -6q-12 6 -13 25.5t9 25.5l37 6q51 6 51 21q0 16 -35 57l-219 254q-27 29 -63 29q-27 0 -33 -10.5 t-6 -59.5v-113q0 -113 12 -141.5t66 -36.5l49 -6q10 -8 8 -27.5t-12 -23.5q-102 6 -199 6q-104 0 -197 -6q-13 5 -12 29q0 15 10 22l45 6q55 8 66.5 35.5t11.5 142.5z" />
<glyph unicode="l" horiz-adv-x="505" d="M332 1198v-969q0 -113 12 -141.5t66 -36.5l49 -6q9 -7 8 -21q0 -25 -12 -30q-102 6 -199 6q-104 0 -197 -6q-13 5 -12 30q0 15 8 21l47 6q55 8 66.5 36t11.5 142v926q0 92 -9 117.5t-54 52.5l-21 12q-8 4 -8 20.5t8 20.5q147 47 221 86q14 0 21 -12q-6 -184 -6 -254z" />
<glyph unicode="m" horiz-adv-x="1611" d="M1286 229v297q0 211 -190 211q-115 0 -170 -71q-31 -39 -31 -123v-314q0 -113 12.5 -141.5t65.5 -36.5l43 -6q10 -8 8 -27.5t-12 -23.5q-92 6 -192.5 6t-186.5 -6q-10 4 -12.5 23.5t8.5 27.5l37 6q55 8 66 36t11 142v297q0 211 -188 211q-111 0 -172 -73 q-31 -37 -31 -117v-318q0 -113 11.5 -141.5t66.5 -36.5l37 -6q10 -8 8 -27.5t-12 -23.5q-82 6 -186.5 6t-198.5 -6q-13 5 -13 30q0 15 9 21l49 6q55 8 66.5 36t11.5 142v359q0 63 -7.5 81.5t-48.5 45.5l-18 12q-6 6 -6 19.5t8 17.5q41 14 108.5 47t96.5 53q16 0 22 -14 q-4 -47 -4 -96q0 -23 23 -23q147 104 272 105q76 0 124 -28t93 -93q20 -4 51 16q150 104 279 105q119 0 181.5 -72t62.5 -182v-353q0 -113 12 -141.5t66 -36.5l49 -6q9 -7 8 -21q0 -25 -12 -30q-102 6 -199 6q-100 0 -186 -6q-10 4 -12.5 23.5t7.5 27.5l37 6q55 8 66.5 35.5 t11.5 142.5z" />
<glyph unicode="n" horiz-adv-x="1075" d="M201 229v359q0 63 -7.5 81.5t-48.5 45.5l-18 12q-6 6 -6 19.5t8 17.5q41 14 108.5 47t96.5 53q16 0 22 -14q-4 -47 -4 -96q0 -23 23 -23q168 104 287 105q121 0 180 -72t59 -182v-353q0 -113 12.5 -141.5t65.5 -36.5l45 -6q9 -7 9 -21q0 -25 -13 -30q-92 6 -193 6 q-106 0 -190 -6q-10 4 -12 23.5t8 27.5l39 6q55 8 66.5 36t11.5 142v306q0 203 -193 202q-121 0 -174 -71q-31 -41 -31 -123v-314q0 -113 11.5 -141.5t66.5 -36.5l37 -6q10 -8 8 -27.5t-12 -23.5q-82 6 -187 6q-106 0 -192 -6q-13 5 -13 30q0 15 9 21l43 6q55 8 66.5 35.5 t11.5 142.5z" />
<glyph unicode="o" horiz-adv-x="995" d="M508 836q176 0 296 -119t120 -305q0 -193 -121 -317t-311 -124q-180 0 -300 117t-120 305q0 190 126 316.5t310 126.5zM748 379q0 154 -66 274.5t-199 120.5q-104 0 -169.5 -94t-65.5 -260q0 -154 68.5 -270.5t195.5 -116.5q123 0 179.5 103.5t56.5 242.5z" />
<glyph unicode="p" horiz-adv-x="1038" d="M174 -293v881q0 63 -7 81.5t-48 45.5l-19 12q-6 6 -6 19.5t8 17.5q123 51 203 110q18 0 25 -14q-8 -74 -8 -94q0 -27 18 -27q4 2 26.5 14.5t49.5 24.5l60 27q34 14 74 22.5t77 8.5q152 0 246 -107.5t94 -267.5q0 -213 -141.5 -351.5t-358.5 -138.5q-76 0 -113 9 q-29 -6 -28 -58v-215q0 -111 11 -138.5t66 -35.5l80 -10q10 -8 8 -27.5t-12 -23.5q-147 6 -229 6q-106 0 -193 -6q-13 5 -12 29q0 15 8 22l43 6q55 8 66.5 35.5t11.5 142.5zM326 559v-352q0 -47 13 -71.5t48 -51.5q59 -45 148 -45q123 0 194.5 102.5t71.5 266.5 q0 133 -73 231t-204 98q-121 0 -174 -57q-24 -31 -24 -121z" />
<glyph unicode="q" horiz-adv-x="1017" d="M866 569v-862q0 -111 12.5 -138.5t65.5 -35.5l60 -10q9 -7 8 -22q0 -25 -13 -29q-117 6 -208 6q-96 0 -213 -6q-10 4 -12.5 23.5t7.5 27.5l64 6q55 6 66.5 34.5t11.5 143.5v266q0 49 -19 50q-88 -51 -209 -52q-109 0 -192.5 40t-129.5 102.5t-69.5 129t-23.5 130.5 q0 215 142 339t349 124q98 0 170 -21q53 -14 72 -14q16 0 55 35q14 0 23 -19q-17 -66 -17 -248zM715 168v305q0 156 -27 205q-53 94 -176 94q-117 0 -192.5 -94t-75.5 -240q0 -170 90 -277.5t233 -107.5q106 0 133 33q15 16 15 82z" />
<glyph unicode="r" horiz-adv-x="679" d="M201 229v359q0 63 -7.5 81.5t-48.5 45.5l-18 12q-6 6 -6 19.5t8 17.5q94 33 207 100q16 -4 16 -14v-119q0 -14 6 -18q147 123 226 123q39 0 65.5 -22.5t26.5 -59.5q0 -45 -29 -70t-59 -25q-20 0 -45 15q-49 33 -90 33q-43 0 -74 -41q-27 -37 -27 -158v-279 q0 -115 12.5 -144.5t69.5 -33.5l74 -6q10 -8 8 -27.5t-12 -23.5q-143 6 -228 6q-109 0 -188 -6q-13 5 -13 30q0 15 9 21l39 6q55 8 66.5 35.5t11.5 142.5z" />
<glyph unicode="s" horiz-adv-x="661" d="M381 836q139 0 180 -37q33 -80 33 -166q-6 -10 -23.5 -12.5t-25.5 6.5q-57 150 -180 149q-59 0 -95.5 -34.5t-36.5 -90.5q0 -31 12.5 -55.5t42 -48t46.5 -32.5l57 -34q100 -57 154.5 -117.5t54.5 -158.5q0 -111 -86 -172.5t-209 -61.5q-141 0 -219 62q-26 62 -26 157 q0 24 1 50q8 10 23.5 10t24.5 -8q66 -211 217 -211q59 0 98 33.5t39 97.5q0 43 -26.5 82t-54.5 59.5t-77 46.5q-100 57 -151.5 115.5t-51.5 136.5q0 109 79 171.5t200 62.5z" />
<glyph unicode="t" horiz-adv-x="628" d="M600 721h-231q-25 0 -31 -8t-6 -41v-383q0 -109 28.5 -168.5t120.5 -59.5q29 0 56 11q10 4 29.5 16t21.5 12q12 0 18 -12t2 -22q-80 -94 -215 -95q-123 0 -168 58.5t-45 163.5v469q0 41 -6 50t-37 9h-57q-11 8 -11 27q0 10 5 16q92 29 131 63q47 43 86 121q4 3 12 3 q4 0 9 -1q15 -2 22 -12v-92q0 -27 5 -33t32 -6h227q17 -14 17 -42q0 -33 -15 -44z" />
<glyph unicode="u" horiz-adv-x="1048" d="M326 643v-342q0 -117 41 -176t149 -59q94 0 166 61q41 37 41 119v336q0 68 -7 97.5t-19.5 39.5t-49.5 24l-26 11q-10 6 -10.5 22.5t12.5 22.5q168 4 239 37q16 -4 19 -15q-6 -59 -7 -178v-344q0 -131 11.5 -177t52.5 -46q33 0 80 10q10 -8 10 -30.5t-12 -28.5 q-209 -43 -268 -76q-18 0 -25 14v84q0 29 -18 29q-168 -106 -283 -107q-131 0 -189.5 63.5t-58.5 192.5v342q0 102 -8 129t-53 45l-25 11q-9 7 -8 19q0 21 12 26q125 2 219 37q18 -2 21 -15q-6 -51 -6 -178z" />
<glyph unicode="v" horiz-adv-x="884" d="M340 188l-172 416q-2 6 -11.5 27.5t-11.5 28t-10 22.5t-13 22.5l-14.5 18.5t-17.5 16l-19.5 9.5t-25.5 7.5l-41 6q-9 10 -8 24q0 22 14 27q76 -6 193 -6q61 0 166 6q10 -6 11 -24.5t-9 -26.5l-25 -4q-47 -8 -54 -22.5t9 -59.5q59 -178 154 -391q27 -59 32 -66 q12 10 39 78l117 301q37 92 37 127q0 25 -37 31l-47 6q-10 10 -8 27.5t12 23.5q96 -6 154 -6q57 0 143 6q13 -8 13 -30q0 -14 -9 -21l-31 -4q-14 -2 -25 -6t-19.5 -9.5t-18.5 -16.5l-15.5 -17.5t-16.5 -25.5l-16 -29l-19 -36l-19 -38q-20 -39 -91 -204t-98 -233 q-2 -8 -26 -67l-41 -101q-6 -8 -21 -8q-18 0 -26 8q-21 72 -78 213z" />
<glyph unicode="w" horiz-adv-x="1351" d="M342 145l-188 463q-35 82 -58.5 109.5t-64.5 38.5l-33 8q-7 7 -7 22q0 21 13 27q94 -6 182 -6q96 0 179 6q12 -6 13 -23.5t-9 -25.5l-47 -8q-45 -6 -46 -29q0 -27 33 -106l127 -314l18 -42l14 -33q5 -11 5 -13q8 6 47 98l101 248q23 57 22 92q0 15 -4 27q-23 55 -94 72 l-33 8q-10 10 -8 27.5t14 21.5q76 -6 170 -6q90 0 195 6q12 -4 14 -22.5t-8 -26.5l-43 -8q-59 -12 -67 -27q-2 -4 -2 -10q0 -18 16 -57q2 -6 155 -383q23 -53 27 -58q6 6 29 58q49 109 139 362q20 59 20 88q0 20 -37 27l-51 8q-12 8 -10 26.5t12 22.5q90 -6 162 -6 q66 0 133 6q15 -7 15 -29q0 -13 -9 -20l-41 -8q-35 -8 -55 -33t-55 -96q-84 -176 -193 -465q-59 -152 -69 -187q-10 -8 -27 -8q-14 0 -23 8q-43 129 -84 226l-98 235q-41 104 -47 104.5t-45 -100.5l-106 -256q-55 -131 -82 -209q-8 -8 -24.5 -8t-25.5 8q-10 35 -61 170z" />
<glyph unicode="x" horiz-adv-x="884" d="M362 408l-184 260q-51 76 -123 88l-32 6q-9 7 -9 21q0 25 13 30q121 -6 178 -6q53 0 174 6q10 -6 11 -24.5t-9 -26.5l-31 -6q-41 -8 -43 -21.5t25 -50.5l98 -143q16 -25 27 -35q8 6 118 174q25 41 22 53t-38 23l-24 6q-10 8 -7.5 27.5t15.5 23.5q72 -6 149 -6q90 0 150 6 q12 -6 13 -24.5t-9 -26.5l-31 -6q-80 -16 -102 -35q-51 -41 -193 -234q-18 -25 -18 -37t20 -38l191 -269q37 -51 65.5 -72.5t69.5 -23.5l33 -2q9 -7 8 -21q0 -25 -12 -30q-115 6 -203 6q-96 0 -195 -6q-12 4 -14 23.5t8 27.5l59 6q43 4 50.5 19.5t-15.5 42.5l-106 153 q-35 51 -45 60q-14 -14 -37 -50l-86 -135q-32 -48 -32 -65q0 -18 38 -25l35 -6q10 -8 8 -27.5t-12 -23.5q-76 6 -152 6q-70 0 -149 -6q-12 6 -13.5 25.5t9.5 25.5l47 8q53 8 102 62q25 25 94.5 121t87.5 118q24 29 6 54z" />
<glyph unicode="y" horiz-adv-x="897" d="M139 -510q-43 0 -66.5 24.5t-23.5 63.5t23.5 60.5t58.5 21.5h39q45 0 68 37q80 125 118 227q20 55 21 88q0 43 -35 142l-160 438q-23 63 -32 84.5t-31.5 45t-57.5 30.5l-51 10q-9 7 -8 21q0 25 14 30q98 -6 195 -6q80 0 178 6q12 -4 13 -23.5t-9 -27.5l-51 -10 q-45 -10 -45 -27q0 -25 59 -193l66 -188q53 -143 59 -145q12 8 76 151l70 162q72 170 71 205q0 27 -49 35l-63 10q-10 8 -9 27.5t13 23.5q98 -6 180 -6q70 0 156 6q13 -7 13 -28q0 -16 -9 -23l-35 -6q-49 -8 -84 -54.5t-90 -162.5l-115 -236l-336 -717q-43 -96 -131 -96z " />
<glyph unicode="z" horiz-adv-x="772" d="M463 0h-184q-178 0 -216 -6q-12 6 -12 20q74 90 197 301l217 369q23 43 17.5 52t-36.5 9h-141q-102 0 -141 -30q-37 -29 -74 -119q-8 -10 -25.5 -7t-21.5 15q4 43 25.5 124t42.5 116q6 4 12 4l12 -4q4 -25 29.5 -31t116.5 -6h290q94 0 125 6q12 -6 11 -20 q-63 -88 -152 -234l-248 -416q-28 -47 -27 -63q0 -19 66 -19h70q184 0 241 62q25 29 66 119q10 6 25.5 3t19.5 -16q-31 -170 -76 -235q-102 6 -229 6z" />
<glyph unicode="{" horiz-adv-x="655" d="M442 768q0 -176 -153 -215v-8q154 -39 153 -215q0 -55 -18 -211q-20 -174 -21 -205q0 -76 35 -128t137 -69q8 -6 8.5 -19t-8.5 -22q-291 0 -290 258q0 72 16 220q14 125 14 202q0 33 -4 55.5t-20.5 50t-55 44t-98.5 20.5q-18 23 0 45q59 4 98 20.5t55.5 44.5t20.5 50.5 t4 55t-14 204.5q-16 190 -16 217q0 258 290 258q20 -20 0 -41q-102 -16 -137 -68t-35 -128q0 -66 21 -205q18 -125 18 -211z" />
<glyph unicode="|" horiz-adv-x="489" d="M305 1536v-2048h-121v2048h121z" />
<glyph unicode="}" horiz-adv-x="655" d="M213 768q0 86 18 211q20 139 21 205q0 76 -35 128t-137 68q-20 20 0 41q291 0 291 -258q0 -27 -17 -217q-14 -172 -14 -204.5t4 -55t20.5 -50.5t55.5 -44.5t98 -20.5q18 -23 0 -45q-59 -4 -98 -20.5t-55.5 -44t-20.5 -50t-4 -55.5q0 -78 14 -202q16 -147 17 -220 q0 -258 -291 -258q-8 8 -8 21.5t8 19.5q102 16 137 68.5t35 128.5q0 31 -21 205q-18 156 -18 211q0 176 154 215v8q-154 39 -154 215z" />
<glyph unicode="~" horiz-adv-x="1024" d="M659 369h-253q-76 0 -109 -26t-74 -107q-20 -8 -40.5 -1t-26.5 29q47 115 92 164q43 43 117 43h253q76 0 109 25.5t74 107.5q20 8 40.5 1t26.5 -30q-51 -129 -94 -167q-45 -39 -115 -39z" />
<glyph unicode="&#xa1;" horiz-adv-x="450" d="M225.5 -545q-53.5 0 -77 11.5t-23.5 48.5q0 31 14 182l60 661q10 10 27.5 10.5t25.5 -10.5l59 -661q14 -152 15 -182q0 -37 -23.5 -48.5t-77 -11.5zM225 573q-47 0 -80.5 31t-33.5 82t32.5 86t81.5 35q51 0 83 -35t32 -86q0 -49 -32 -81t-83 -32z" />
<glyph unicode="&#xa2;" horiz-adv-x="835" d="M418 147l76 613q-113 -4 -187 -88t-74 -234q0 -96 48.5 -176t136.5 -115zM563 756l-78 -627q25 -6 58 -6q72 0 135 28.5t94 73.5q14 0 23.5 -10t7.5 -25q-111 -158 -330 -157l-20 -166q-8 -14 -36 -14t-36 14l22 172q-147 23 -234 117t-87 239q0 184 121 297t299 129 l16 135q10 14 37 13.5t33 -13.5l-17 -131q78 0 160 -16q35 -31 35 -78q0 -72 -27 -72q-14 0 -32 21q-54 60 -144 76z" />
<glyph unicode="&#xa3;" horiz-adv-x="1003" d="M113 545h147q18 0 22.5 2t2.5 12v78q0 180 110.5 296t268.5 116q86 0 122 -31q20 -20 21 -49q-2 -27 -21.5 -51.5t-33.5 -24.5q-12 0 -25 12q-66 59 -135 60q-154 0 -154 -244q0 -76 6 -152q2 -16 8.5 -20t28.5 -4h248q12 -8 12 -34t-12 -32h-246q-23 0 -31 -4t-8 -20 q0 -178 -170 -295l2 -4q59 8 144 -2q53 -6 164 -56q111 -47 141 -47q66 0 82 40t-2 99q-12 57 45 58q33 0 53.5 -22.5t20.5 -57.5q0 -84 -87 -150.5t-184 -66.5q-90 0 -217 63q-123 61 -178 62q-61 0 -61 -56q0 -14 -26 -28.5t-42 -14.5q-33 0 -33 29q0 55 84 131 q111 96 111 318q0 14 -5 19t-24 5h-149q-10 6 -10 32t10 34z" />
<glyph unicode="&#xa4;" horiz-adv-x="1024" d="M514 1010q-131 0 -228.5 -101.5t-97.5 -242.5q0 -145 97.5 -244.5t228.5 -99.5q129 0 227.5 100t98.5 244q0 141 -98.5 242.5t-227.5 101.5zM514 1104q143 0 256 -82l84 104q37 -10 66.5 -38.5t33.5 -59.5l-92 -92q94 -115 94 -270.5t-94 -270.5l92 -92 q-4 -31 -33.5 -59.5t-66.5 -38.5l-84 104q-113 -82 -256 -82t-256 82l-84 -104q-37 10 -66.5 38.5t-33.5 59.5l92 92q-94 115 -94 270.5t94 270.5l-92 92q4 31 33.5 59.5t66.5 38.5l84 -104q113 82 256 82z" />
<glyph unicode="&#xa5;" horiz-adv-x="1003" d="M811 330h-268v-129q0 -84 13 -113t60 -37l68 -12q8 -2 6 -21.5t-10 -21.5q-131 4 -209 4q-72 0 -203 -4q-10 4 -10 18.5t8 24.5l60 8q43 6 60 37t17 117v129h-268q-8 8 -8 32.5t8 32.5h264v133h-264q-8 6 -8 31t8 33h240l-187 268q-49 72 -72.5 95.5t-62.5 31.5l-39 8 q-6 6 -6 20.5t12 18.5q68 -6 179 -6q121 0 188 6q8 -4 9 -20.5t-7 -18.5l-57 -12q-37 -8 -37 -25q0 -18 63 -110l88 -129q49 -72 62 -72q16 0 47 51l66 105q84 135 84 160q0 8 -43 18l-54 12q-8 6 -7 21.5t13 19.5q80 -6 168 -6q68 0 136 6q8 -4 9 -20.5t-5 -20.5l-43 -12 q-39 -12 -72 -45t-80 -105l-160 -239h244q8 -8 8 -32.5t-8 -31.5h-264v-133h264q8 -8 8 -32.5t-8 -32.5z" />
<glyph unicode="&#xa6;" horiz-adv-x="489" d="M305 1382v-716h-121v716h121zM305 358v-716h-121v716h121z" />
<glyph unicode="&#xa7;" horiz-adv-x="1036" d="M379 -254q-72 0 -118 28.5t-46 73.5q0 29 19.5 51.5t52.5 22.5q29 0 51 -18q86 -72 174 -72q51 0 96 35t45 92q0 20 -5 40.5t-18 45.5l-24 43q-10 18 -34 47l-36 45q-13 16 -43 47l-41 42l-44 44l-39 39q-133 133 -200 241.5t-67 254.5q0 190 166 363t379 173 q78 0 118 -29.5t40 -64.5q0 -23 -19.5 -44t-48.5 -21q-35 0 -57 16q-88 59 -168 59q-51 0 -86 -33.5t-35 -88.5q0 -74 59.5 -150t231.5 -233q131 -121 191.5 -232.5t60.5 -245.5q0 -203 -163 -387t-392 -184zM461 459q160 -162 217 -256t57 -213q98 88 99 237 q0 133 -60.5 237.5t-189.5 227.5q-166 158 -220.5 249t-54.5 216q-106 -90 -106 -219q0 -43 6 -81t29.5 -98.5t80 -137t142.5 -162.5z" />
<glyph unicode="&#xa8;" d="M190 1049q-43 0 -70.5 26.5t-29.5 73.5q-2 45 26.5 75.5t73.5 30.5q43 0 73 -29.5t30 -68.5q0 -47 -29 -77.5t-74 -30.5zM549 1049q-43 0 -73 27.5t-32 74.5q0 43 30 73.5t75 30.5q43 0 70.5 -29.5t27.5 -66.5q0 -49 -27.5 -79.5t-70.5 -30.5z" />
<glyph unicode="&#xa9;" horiz-adv-x="1617" d="M573 684q0 -162 84 -260t222 -98q166 0 251 194q25 20 41 -6q-4 -41 -20 -103.5t-35 -93.5q-150 -47 -250 -47q-213 0 -329.5 119t-116.5 283q0 182 131 296.5t328 114.5q49 0 103 -7t95 -16t49 -9q6 -35 13.5 -99.5t11.5 -91.5q-6 -10 -20.5 -12t-22.5 6 q-55 174 -242 174q-139 0 -216 -97t-77 -247zM809 -33q-305 0 -511 206t-206 503t206 502.5t511 205.5t511 -205.5t206 -502.5t-206 -503t-511 -206zM209 678q0 -266 173 -448.5t427 -182.5t427 182.5t173 448.5q0 264 -173 445.5t-427 181.5t-427 -181.5t-173 -445.5z" />
<glyph unicode="&#xaa;" horiz-adv-x="679" d="M412 877v24q0 68 -21.5 105.5t-87.5 37.5q-80 0 -92 -63q-8 -43 -18 -53q-14 -10 -47 -22.5t-46 -12.5q-29 0 -28 27q0 47 61 94q115 92 236 92q96 0 134 -46t34 -130l-11 -250q-4 -115 70 -115q29 0 59 21q12 0 17.5 -10.5t-0.5 -18.5q-63 -66 -148 -65q-51 0 -94 40 q-18 18 -31 19q-10 0 -32 -12q-86 -47 -144 -47q-78 0 -116.5 40.5t-38.5 102.5q0 78 79 113l132 47l88 30q45 17 45 52zM401 647l5 107q0 14 -3.5 20t-13.5 6t-20.5 -3t-34.5 -11q-4 -2 -18.5 -6t-20.5 -6t-18.5 -8.5t-19.5 -10.5l-17 -10q-10 -6 -16 -13l-11 -17 q-6 -9 -8 -20t-2 -24q0 -31 22.5 -59.5t69.5 -28.5q57 0 90 33q16 20 16 51z" />
<glyph unicode="&#xab;" horiz-adv-x="774" d="M385 733l-143 -287q-10 -25 0 -49l143 -291q-8 -20 -35 -26q-209 268 -244 309q-27 33 0 64q57 68 244 307q27 -4 35 -27zM682 733l-143 -287q-10 -25 0 -49l143 -291q-8 -20 -35 -26q-209 268 -244 309q-27 33 0 64q57 68 244 307q27 -4 35 -27z" />
<glyph unicode="&#xac;" horiz-adv-x="1024" d="M836 102v422h-768v101h888v-523h-120z" />
<glyph unicode="&#xad;" horiz-adv-x="655" d="M82 461l477 45q31 -20 31 -66q0 -31 -17 -51l-477 -45q-31 25 -30 66q0 31 16 51z" />
<glyph unicode="&#xae;" horiz-adv-x="655" d="M242 1069v117q0 39 -23 41h-8q-4 6 -3 13t5 9q86 4 115 4q102 0 102 -69q0 -39 -37 -58q-6 -2 0 -14q33 -70 51 -82q14 -10 19 -12q4 0 4 -6t-4 -8q-10 -2 -29 -3q-49 0 -76 43q-2 4 -28 52q-6 12 -18.5 12t-12.5 -10v-29q0 -25 4 -33t25 -10l6 -2q2 -2 2 -10t-2 -10 q-10 0 -29.5 1t-32 1t-32 -1t-27.5 -1q-4 2 -5 10t3 10l8 2q16 4 19.5 11t3.5 32zM299 1208v-61q0 -10 4 -12t21 -2q41 0 41 41q0 51 -39 51q-27 -1 -27 -17zM327.5 1386q110.5 0 188.5 -75.5t78 -184t-78 -184.5t-188.5 -76t-188.5 76t-78 184.5t78 184t188.5 75.5z M328 1341q-84 0 -143.5 -62t-59.5 -153q0 -88 59.5 -151.5t143.5 -63.5t143 63.5t59 151.5q0 90 -59 152.5t-143 62.5z" />
<glyph unicode="&#xaf;" d="M580 1073h-418q-16 20 -16.5 57t16.5 60h418q14 -23 14 -60t-14 -57z" />
<glyph unicode="&#x2c9;" d="M580 1073h-418q-16 20 -16.5 57t16.5 60h418q14 -23 14 -60t-14 -57z" />
<glyph unicode="&#xb0;" horiz-adv-x="618" d="M309.5 1311q104.5 0 176 -66.5t71.5 -171.5q0 -111 -70.5 -174t-177 -63t-177.5 63.5t-71 173.5q0 104 72 171t176.5 67zM309.5 1247q-61.5 0 -102.5 -48t-41 -126t41 -126t102.5 -48t102.5 48t41 126t-41 126t-102.5 48z" />
<glyph unicode="&#xb1;" horiz-adv-x="1024" d="M907 100v-100h-788v100h788zM573 172h-120v348h-334v101h334v333h120v-333h334v-101h-334v-348z" />
<glyph unicode="&#xb2;" d="M303 743h146q80 0 121.5 13.5t72.5 60.5q27 10 39 -14q-10 -20 -22.5 -51t-20.5 -49l-17 -35q-9 -18 -20 -27q-102 4 -231 4h-148q-92 0 -153 -4q-10 10 -11 14q0 12 4 19q88 55 213 180q188 188 189 340q0 80 -42 126t-112 46q-109 0 -184 -129q-12 -8 -25.5 -1 t-13.5 19q84 195 285 195q111 0 176 -58.5t65 -152.5q0 -127 -155 -283l-115 -114q-70 -70 -70 -82q0 -17 29 -17z" />
<glyph unicode="&#xb3;" d="M520 874q0 76 -42 129.5t-128 53.5q-84 0 -147 -60q-37 18 -27 56q162 68 217 104q63 43 64 115q0 51 -32 79.5t-77 28.5q-100 0 -174 -118q-27 -2 -35 22q39 78 108.5 122t155.5 44t141.5 -43t55.5 -102q0 -47 -32.5 -86t-116.5 -78q-6 -10 -1 -15.5t17 -5.5 q82 0 141.5 -53t59.5 -141q0 -147 -142 -252q-147 -109 -295 -109q-145 0 -145 80q0 29 19.5 47.5t48.5 18.5q33 0 67 -54q23 -37 66 -36q74 0 153.5 70t79.5 183z" />
<glyph unicode="&#xb4;" d="M563 1221l-256 -267q-31 -4 -35 23l177 334q27 49 49 49q27 0 63 -31q35 -29 35 -53q0 -22 -33 -55z" />
<glyph unicode="&#xb5;" horiz-adv-x="1048" d="M326 643v-342q0 -117 41 -176t149 -59q94 0 166 61q41 37 41 109v346q0 68 -7 97.5t-19.5 39.5t-49.5 24l-26 11q-10 6 -10.5 22.5t12.5 22.5q168 4 239 37q16 -4 19 -15q-6 -59 -7 -178v-344q0 -131 11.5 -177t52.5 -46q33 0 80 10q10 -8 10 -30.5t-12 -28.5 q-209 -43 -268 -76q-18 0 -25 14v84q0 29 -18 29q-168 -106 -299 -107q-49 0 -115 29q-10 2 -15.5 -5t-5.5 -28v-117q0 -68 35 -168t35 -104q0 -33 -46 -81t-79 -48q-41 0 -41 64v1056q0 102 -8 129t-53 45l-25 11q-10 8 -8 24.5t12 20.5q125 2 219 37q18 -2 21 -15 q-6 -51 -6 -178z" />
<glyph unicode="&#x3bc;" horiz-adv-x="1048" d="M326 643v-342q0 -117 41 -176t149 -59q94 0 166 61q41 37 41 109v346q0 68 -7 97.5t-19.5 39.5t-49.5 24l-26 11q-10 6 -10.5 22.5t12.5 22.5q168 4 239 37q16 -4 19 -15q-6 -59 -7 -178v-344q0 -131 11.5 -177t52.5 -46q33 0 80 10q10 -8 10 -30.5t-12 -28.5 q-209 -43 -268 -76q-18 0 -25 14v84q0 29 -18 29q-168 -106 -299 -107q-49 0 -115 29q-10 2 -15.5 -5t-5.5 -28v-117q0 -68 35 -168t35 -104q0 -33 -46 -81t-79 -48q-41 0 -41 64v1056q0 102 -8 129t-53 45l-25 11q-10 8 -8 24.5t12 20.5q125 2 219 37q18 -2 21 -15 q-6 -51 -6 -178z" />
<glyph unicode="&#xb6;" horiz-adv-x="1024" d="M750 903v-950q0 -393 -242 -393q-70 0 -125 36.5t-55 112.5q0 78 59 107q33 0 65.5 -19.5t39.5 -42.5q-29 -35 -29 -69q0 -29 19.5 -46.5t48 -17.5t55 18.5t51.5 81t25 160.5v289q0 39 -10.5 52.5t-33.5 13.5q-213 0 -355 115.5t-142 305.5q0 221 150.5 335t418.5 114 q190 0 248 -10q8 -6 8 -21.5t-8 -21.5l-80 -15q-78 -14 -93 -34.5t-15 -100.5z" />
<glyph unicode="&#xb7;" horiz-adv-x="512" d="M256 303q-47 0 -81 31t-34 82t33 86t82 35q51 0 83 -35t32 -86q0 -49 -32 -81t-83 -32z" />
<glyph unicode="&#x2219;" horiz-adv-x="512" d="M256 303q-47 0 -81 31t-34 82t33 86t82 35q51 0 83 -35t32 -86q0 -49 -32 -81t-83 -32z" />
<glyph unicode="&#xb8;" d="M418 0h63l-69 -113q-14 -25 16 -43q84 -55 84 -129q0 -68 -57.5 -113.5t-130.5 -45.5q-104 0 -105 63q0 16 12.5 31.5t32.5 15.5q18 0 51 -26.5t43 -26.5q49 0 50 57q0 35 -32 69t-81 52v10z" />
<glyph unicode="&#xb9;" d="M313 821v396q0 63 -11 87.5t-52 28.5l-64 6q-8 6 -9 19.5t7 19.5q100 16 250 72q14 0 15 -10q-4 -43 -5 -150v-469q0 -82 13.5 -103.5t72.5 -29.5l35 -4q8 -6 7 -22.5t-9 -20.5q-123 4 -188.5 4t-179.5 -4q-8 4 -9.5 20.5t7.5 22.5l34 4q59 8 72.5 29.5t13.5 103.5z" />
<glyph unicode="&#xba;" horiz-adv-x="792" d="M403 1106q139 0 231.5 -85t92.5 -216q0 -137 -93 -225t-243 -88q-143 0 -234 83.5t-91 215.5q0 137 96 226t241 89zM387 1053q-72 0 -121 -67.5t-49 -174t48 -186.5t141 -80q88 0 128.5 71.5t40.5 165.5q0 100 -47 185.5t-141 85.5z" />
<glyph unicode="&#xbb;" horiz-adv-x="774" d="M236 446l-144 287q8 23 35 27q186 -240 244 -307q27 -31 0 -64q-35 -41 -244 -309q-27 6 -35 26l144 291q10 24 0 49zM532 446l-143 287q8 23 35 27q186 -240 244 -307q27 -31 0 -64q-35 -41 -244 -309q-27 6 -35 26l143 291q10 24 0 49z" />
<glyph unicode="&#xbc;" horiz-adv-x="1597" d="M283 -29l893 1368q43 0 63 -47l-901 -1374q-51 0 -55 53zM225 682v395q0 63 -11 88t-52 29l-64 6q-8 6 -9 19.5t7 19.5q100 16 250 72q14 0 14 -11q-4 -43 -4 -149v-469q0 -82 13.5 -103.5t72.5 -29.5l35 -4q8 -6 7 -22.5t-9 -20.5q-123 4 -188.5 4t-180.5 -4 q-8 4 -9 20.5t7 22.5l35 4q59 8 72.5 29.5t13.5 103.5zM973 297h184q25 0 31 5t6 28v223q0 16 12 25q41 23 94 22q23 0 23 -39v-235q0 -18 5 -23.5t26 -5.5h76q12 -8 12 -29.5t-12 -29.5h-68q-27 0 -33 -5.5t-6 -27.5v-29q0 -90 10 -108.5t70 -24.5l37 -4q6 -8 5 -23.5 t-9 -19.5q-86 4 -176 4q-129 0 -183 -4q-8 4 -10 19.5t6 23.5l37 4q61 8 72.5 27.5t11.5 105.5v25q0 25 -6 31t-33 6h-317q-18 0 -19 20q0 16 19 41l436 561q18 25 43 25q45 0 45 -11q0 -4 -4 -12l-422 -540q-10 -18 -4 -21.5t41 -3.5z" />
<glyph unicode="&#xbd;" horiz-adv-x="1597" d="M266 -29l893 1368q43 0 64 -47l-901 -1374q-52 0 -56 53zM240 682v395q0 63 -11.5 88t-52.5 29l-63 6q-8 6 -9.5 19.5t7.5 19.5q100 16 249 72q14 0 15 -11q-4 -43 -4 -149v-469q0 -82 13 -103.5t73 -29.5l35 -4q8 -6 7 -22.5t-10 -20.5q-123 4 -188 4t-180 -4 q-8 4 -9 20.5t7 22.5l35 4q59 8 72.5 29.5t13.5 103.5zM1153 98h145q80 0 122 13.5t73 60.5q27 10 39 -14q-10 -20 -22.5 -51t-20.5 -49l-18 -35q-9 -18 -19 -27q-102 4 -231 4h-148q-92 0 -153 -4q-10 10 -11 14q0 12 4 19q88 55 213 180q188 188 189 340q0 80 -42 126 t-112 46q-109 0 -184 -129q-12 -8 -25.5 -1t-13.5 19q84 195 285 195q111 0 176 -58.5t65 -152.5q0 -127 -155 -283l-115 -114q-70 -70 -70 -82q0 -17 29 -17z" />
<glyph unicode="&#xbe;" horiz-adv-x="1597" d="M354 -29l893 1368q43 0 64 -47l-901 -1374q-52 0 -56 53zM510 735q0 76 -42 129.5t-128 53.5q-84 0 -147 -60q-37 18 -27 55q162 68 217 105q63 43 63 115q0 51 -31.5 79.5t-76.5 28.5q-100 0 -174 -119q-27 -2 -35 23q39 78 108.5 122t155.5 44t141.5 -43t55.5 -103 q0 -47 -33 -86t-117 -78q-6 -10 -1 -15t18 -5q82 0 141 -53.5t59 -141.5q0 -147 -141 -251q-147 -109 -295 -109q-145 0 -145 80q0 29 19.5 47t47.5 18q33 0 68 -53q23 -37 65 -37q74 0 154 70.5t80 183.5zM1014 297h184q25 0 31 5t6 28v223q0 16 12 25q41 23 94 22 q23 0 23 -39v-235q0 -18 5 -23.5t26 -5.5h75q12 -8 12.5 -29.5t-12.5 -29.5h-67q-27 0 -33 -5.5t-6 -27.5v-29q0 -90 10 -108.5t70 -24.5l37 -4q6 -8 5 -23.5t-9 -19.5q-86 4 -177 4q-129 0 -182 -4q-8 4 -10 19.5t6 23.5l37 4q61 8 72.5 27.5t11.5 105.5v25q0 25 -6 31 t-33 6h-317q-18 0 -19 20q0 16 19 41l436 561q18 25 43 25q45 0 45 -11q0 -4 -4 -12l-422 -540q-10 -18 -4 -21.5t41 -3.5z" />
<glyph unicode="&#xbf;" horiz-adv-x="657" d="M444 -545q-127 0 -239.5 129t-112.5 289q0 76 24.5 122t53.5 62l162 86q72 37 71 90q0 37 -20 119q6 12 20.5 15.5t22.5 -5.5q74 -121 74 -202q0 -57 -27 -87t-84 -61l-100 -53q-113 -59 -113 -149q0 -80 45 -125q66 -66 238 -66q18 0 42.5 -25.5t24.5 -60.5 q0 -33 -21.5 -55.5t-60.5 -22.5zM401 573q-47 0 -80.5 31t-33.5 82t32.5 86t81.5 35q51 0 83 -35t32 -86q0 -49 -32 -81t-83 -32z" />
<glyph unicode="&#xc0;" horiz-adv-x="1275" d="M924 197l-90 278q-10 35 -24.5 43t-59.5 8h-310q-39 0 -53 -8t-25 -41l-71 -215q-45 -135 -45 -170q0 -37 59 -41l68 -6q10 -8 10 -26.5t-14 -24.5q-29 2 -213 6q-31 0 -197 -6q-10 6 -11 24.5t7 26.5l68 6q86 8 122 101q10 29 41 101l66 163l74 192l209 553 q41 109 34 146q53 16 107 77q25 0 31 -18q23 -76 90 -274l280 -824q45 -131 77 -170t97 -47l56 -6q10 -8 9 -26.5t-9 -24.5q-127 6 -248 6q-57 0 -236 -6q-12 6 -13 24.5t9 26.5l60 6q72 6 71 37q1 29 -26 109zM557 1014l-129 -357q-12 -35 -6 -42t49 -7h252q45 0 52 11.5 t-7 52.5l-111 334q-35 104 -47 129h-4q-12 -21 -49 -121zM735 1446l-342 147q-43 18 -51 33q-16 33 16.5 82t53.5 49q14 0 55 -26l289 -236q4 -16 -2.5 -30.5t-18.5 -18.5z" />
<glyph unicode="&#xc1;" horiz-adv-x="1275" d="M924 197l-90 278q-10 35 -24.5 43t-59.5 8h-310q-39 0 -53 -8t-25 -41l-71 -215q-45 -135 -45 -170q0 -37 59 -41l68 -6q10 -8 10 -26.5t-14 -24.5q-29 2 -213 6q-31 0 -197 -6q-10 6 -11 24.5t7 26.5l68 6q86 8 122 101q10 29 41 101l66 163l74 192l209 553 q41 109 34 146q53 16 107 77q25 0 31 -18q23 -76 90 -274l280 -824q45 -131 77 -170t97 -47l56 -6q10 -8 9 -26.5t-9 -24.5q-127 6 -248 6q-57 0 -236 -6q-12 6 -13 24.5t9 26.5l60 6q72 6 71 37q1 29 -26 109zM557 1014l-129 -357q-12 -35 -6 -42t49 -7h252q45 0 52 11.5 t-7 52.5l-111 334q-35 104 -47 129h-4q-12 -21 -49 -121zM887 1583l-342 -147q-12 4 -18.5 18t-2.5 31l289 235q39 27 55 27q33 0 58 -47q27 -51 14 -84q-14 -17 -53 -33z" />
<glyph unicode="&#xc2;" horiz-adv-x="1275" d="M924 197l-90 278q-10 35 -24.5 43t-59.5 8h-310q-39 0 -53 -8t-25 -41l-71 -215q-45 -135 -45 -170q0 -37 59 -41l68 -6q10 -8 10 -26.5t-14 -24.5q-29 2 -213 6q-31 0 -197 -6q-10 6 -11 24.5t7 26.5l68 6q86 8 122 101q10 29 41 101l66 163l74 192l209 553 q41 109 34 146q53 16 107 77q25 0 31 -18q23 -76 90 -274l280 -824q45 -131 77 -170t97 -47l56 -6q10 -8 9 -26.5t-9 -24.5q-127 6 -248 6q-57 0 -236 -6q-12 6 -13 24.5t9 26.5l60 6q72 6 71 37q1 29 -26 109zM557 1014l-129 -357q-12 -35 -6 -42t49 -7h252q45 0 52 11.5 t-7 52.5l-111 334q-35 104 -47 129h-4q-12 -21 -49 -121zM373 1468l250 236q41 41 86 0l249 -236q0 -37 -24 -41l-238 121q-33 16 -65 0l-232 -121q-26 0 -26 41z" />
<glyph unicode="&#xc3;" horiz-adv-x="1275" d="M924 197l-90 278q-10 35 -24.5 43t-59.5 8h-310q-39 0 -53 -8t-25 -41l-71 -215q-45 -135 -45 -170q0 -37 59 -41l68 -6q10 -8 10 -26.5t-14 -24.5q-29 2 -213 6q-31 0 -197 -6q-10 6 -11 24.5t7 26.5l68 6q86 8 122 101q10 29 41 101l66 163l74 192l209 553 q41 109 34 146q53 16 107 77q25 0 31 -18q23 -76 90 -274l280 -824q45 -131 77 -170t97 -47l56 -6q10 -8 9 -26.5t-9 -24.5q-127 6 -248 6q-57 0 -236 -6q-12 6 -13 24.5t9 26.5l60 6q72 6 71 37q1 29 -26 109zM557 1014l-129 -357q-12 -35 -6 -42t49 -7h252q45 0 52 11.5 t-7 52.5l-111 334q-35 104 -47 129h-4q-12 -21 -49 -121zM580 1614h125q66 0 95 15.5t68 68.5q25 16 35 -10q-25 -106 -80 -160q-35 -33 -104 -33h-115q-70 0 -104.5 -24.5t-67.5 -84.5q-8 -6 -22.5 -4t-18.5 13q6 33 32 92t48 80q41 47 109 47z" />
<glyph unicode="&#xc4;" horiz-adv-x="1275" d="M924 197l-90 278q-10 35 -24.5 43t-59.5 8h-310q-39 0 -53 -8t-25 -41l-71 -215q-45 -135 -45 -170q0 -37 59 -41l68 -6q10 -8 10 -26.5t-14 -24.5q-29 2 -213 6q-31 0 -197 -6q-10 6 -11 24.5t7 26.5l68 6q86 8 122 101q10 29 41 101l66 163l74 192l209 553 q41 109 34 146q53 16 107 77q25 0 31 -18q23 -76 90 -274l280 -824q45 -131 77 -170t97 -47l56 -6q10 -8 9 -26.5t-9 -24.5q-127 6 -248 6q-57 0 -236 -6q-12 6 -13 24.5t9 26.5l60 6q72 6 71 37q1 29 -26 109zM557 1014l-129 -357q-12 -35 -6 -42t49 -7h252q45 0 52 11.5 t-7 52.5l-111 334q-35 104 -47 129h-4q-12 -21 -49 -121zM459 1423q-100 0 -101 105q-4 45 25 79.5t76 34.5q45 0 74.5 -33.5t29.5 -76.5q0 -45 -28.5 -77t-75.5 -32zM860 1423q-102 0 -106 105q0 47 29.5 80.5t76.5 33.5q45 0 71.5 -33.5t26.5 -76.5q0 -47 -26.5 -78 t-71.5 -31z" />
<glyph unicode="&#xc5;" horiz-adv-x="1275" d="M924 197l-90 278q-10 35 -24.5 43t-59.5 8h-310q-39 0 -53 -8t-25 -41l-71 -215q-45 -135 -45 -170q0 -37 59 -41l68 -6q10 -8 10 -26.5t-14 -24.5q-29 2 -213 6q-31 0 -197 -6q-10 6 -11 24.5t7 26.5l68 6q86 8 122 101q10 29 41 101l66 163l74 192l209 553 q41 109 34 146q53 16 107 77q25 0 31 -18q23 -76 90 -274l280 -824q45 -131 77 -170t97 -47l56 -6q10 -8 9 -26.5t-9 -24.5q-127 6 -248 6q-57 0 -236 -6q-12 6 -13 24.5t9 26.5l60 6q72 6 71 37q1 29 -26 109zM557 1014l-129 -357q-12 -35 -6 -42t49 -7h252q45 0 52 11.5 t-7 52.5l-111 334q-35 104 -47 129h-4q-12 -21 -49 -121zM647 1778q74 0 124 -49.5t50 -117t-49 -116.5t-125 -49t-125 49t-49 116.5t50 117t124 49.5zM555 1612q0 -47 26.5 -78t65.5 -31q41 0 66.5 31t25.5 78t-26.5 76.5t-65.5 29.5t-65.5 -30.5t-26.5 -75.5z" />
<glyph unicode="&#xc6;" horiz-adv-x="1740" d="M743 1352h537q252 0 276 6q10 -29 33 -271q-6 -10 -24.5 -12t-26.5 6q-37 117 -68 150q-33 35 -88 47q-43 10 -198 10h-148q-43 0 -51 -11t-8 -71v-409q0 -41 10 -49.5t57 -8.5h119q137 0 174 12.5t49 71.5l17 84q8 10 27.5 9t25.5 -11q0 -20 -4 -92t-4 -115 q0 -41 4 -109.5t4 -86.5q-6 -10 -25.5 -11.5t-27.5 9.5l-19 80q-14 66 -63 77q-35 10 -158 11h-119q-47 0 -57 -8.5t-10 -47.5v-288q0 -172 37 -213q47 -47 249.5 -47.5t260.5 30.5q63 35 145 199q8 8 26.5 4t24.5 -18q-31 -156 -92 -285q-276 6 -549 6h-188q-92 0 -273 -6 q-10 4 -11 22.5t7 28.5l70 6q84 8 104.5 50t20.5 206v301q0 45 -11.5 52.5t-78.5 7.5h-168q-63 0 -79.5 -11.5t-53.5 -78.5q-135 -252 -207 -435q-18 -43 -12 -59t43 -23l110 -16q8 -10 8 -27.5t-10 -23.5q-123 6 -225 6q-45 0 -118 -3t-93 -3q-12 6 -14 24.5t12 26.5l63 10 q39 6 69 36t75 112l497 944q49 92 50 117q0 18 -45 24l-123 19q-10 10 -8 28.5t14 22.5q143 -6 239 -6zM582 739h137q68 0 79 8.5t11 57.5v399q0 63 -12 74h-11q-16 -8 -47 -64l-217 -430q-16 -33 -7.5 -39t67.5 -6z" />
<glyph unicode="&#xc7;" horiz-adv-x="1425" d="M745 -209l111 178q-283 4 -475 135q-131 88 -211 231.5t-80 332.5q0 166 69.5 308t188.5 234q223 174 553 174q184 0 363 -49q41 -10 57 -8q6 -123 29 -301q-8 -10 -26.5 -12t-29.5 8q-66 299 -420 299q-250 0 -414.5 -160t-164.5 -463q0 -311 173 -489t435 -178 q176 0 279.5 88t148.5 205q10 8 28.5 5t24.5 -14q-10 -76 -41.5 -162.5t-56.5 -117.5q-29 -4 -72 -21q-121 -43 -290 -45l-56 -88q-14 -23 17 -45q88 -59 88 -135q0 -70 -60.5 -119t-136.5 -49q-53 0 -81.5 18.5t-28.5 49.5q0 16 13 32.5t33.5 16.5t54.5 -28t46 -28 q51 0 51 60q0 37 -33.5 71.5t-85.5 55.5v10z" />
<glyph unicode="&#xc8;" horiz-adv-x="1196" d="M262 307v737q0 166 -18.5 207t-106.5 52l-33 4q-8 6 -7 26.5t12 24.5q133 -6 241 -6h385q252 0 277 6q10 -31 32 -273q-6 -10 -24.5 -11t-26.5 7q-14 43 -18 56.5t-18.5 44t-28 43t-37 28t-53.5 23.5q-51 12 -199 12h-147q-45 0 -53.5 -11t-8.5 -71v-409 q0 -41 10.5 -49.5t57.5 -8.5h118q137 0 174 12.5t50 71.5l16 84q8 10 27.5 9t25.5 -11q0 -20 -4 -92t-4 -115q0 -41 4 -109.5t4 -86.5q-6 -10 -25.5 -11.5t-27.5 9.5l-18 80q-14 66 -64 77q-37 10 -158 11h-118q-47 0 -57.5 -8.5t-10.5 -47.5v-288q0 -172 39 -213 q47 -47 248 -47.5t262 30.5q63 35 145 199q10 8 27.5 4t24.5 -18q-33 -160 -93 -285q-276 6 -548 6h-185q-96 0 -278 -6q-10 4 -11.5 22.5t7.5 28.5l67 6q86 8 106.5 50t20.5 206zM684 1444l-342 147q-43 18 -51 33q-16 31 12 84q25 47 57 47q16 0 56 -26l289 -236 q4 -16 -2.5 -30.5t-18.5 -18.5z" />
<glyph unicode="&#xc9;" horiz-adv-x="1196" d="M262 307v737q0 166 -18.5 207t-106.5 52l-33 4q-8 6 -7 26.5t12 24.5q133 -6 241 -6h385q252 0 277 6q10 -31 32 -273q-6 -10 -24.5 -11t-26.5 7q-14 43 -18 56.5t-18.5 44t-28 43t-37 28t-53.5 23.5q-51 12 -199 12h-147q-45 0 -53.5 -11t-8.5 -71v-409 q0 -41 10.5 -49.5t57.5 -8.5h118q137 0 174 12.5t50 71.5l16 84q8 10 27.5 9t25.5 -11q0 -20 -4 -92t-4 -115q0 -41 4 -109.5t4 -86.5q-6 -10 -25.5 -11.5t-27.5 9.5l-18 80q-14 66 -64 77q-37 10 -158 11h-118q-47 0 -57.5 -8.5t-10.5 -47.5v-288q0 -172 39 -213 q47 -47 248 -47.5t262 30.5q63 35 145 199q10 8 27.5 4t24.5 -18q-33 -160 -93 -285q-276 6 -548 6h-185q-96 0 -278 -6q-10 4 -11.5 22.5t7.5 28.5l67 6q86 8 106.5 50t20.5 206zM866 1593l-342 -147q-12 4 -18 18.5t-2 30.5l289 236q39 27 55 26q33 0 57 -47 q27 -51 15 -84q-15 -17 -54 -33z" />
<glyph unicode="&#xca;" horiz-adv-x="1196" d="M262 307v737q0 166 -18.5 207t-106.5 52l-33 4q-8 6 -7 26.5t12 24.5q133 -6 241 -6h385q252 0 277 6q10 -31 32 -273q-6 -10 -24.5 -11t-26.5 7q-14 43 -18 56.5t-18.5 44t-28 43t-37 28t-53.5 23.5q-51 12 -199 12h-147q-45 0 -53.5 -11t-8.5 -71v-409 q0 -41 10.5 -49.5t57.5 -8.5h118q137 0 174 12.5t50 71.5l16 84q8 10 27.5 9t25.5 -11q0 -20 -4 -92t-4 -115q0 -41 4 -109.5t4 -86.5q-6 -10 -25.5 -11.5t-27.5 9.5l-18 80q-14 66 -64 77q-37 10 -158 11h-118q-47 0 -57.5 -8.5t-10.5 -47.5v-288q0 -172 39 -213 q47 -47 248 -47.5t262 30.5q63 35 145 199q10 8 27.5 4t24.5 -18q-33 -160 -93 -285q-276 6 -548 6h-185q-96 0 -278 -6q-10 4 -11.5 22.5t7.5 28.5l67 6q86 8 106.5 50t20.5 206zM319 1489l250 235q41 41 86 0l250 -235q0 -37 -24 -41l-238 121q-33 16 -65 0l-232 -121 q-27 0 -27 41z" />
<glyph unicode="&#xcb;" horiz-adv-x="1196" d="M262 307v737q0 166 -18.5 207t-106.5 52l-33 4q-8 6 -7 26.5t12 24.5q133 -6 241 -6h385q252 0 277 6q10 -31 32 -273q-6 -10 -24.5 -11t-26.5 7q-14 43 -18 56.5t-18.5 44t-28 43t-37 28t-53.5 23.5q-51 12 -199 12h-147q-45 0 -53.5 -11t-8.5 -71v-409 q0 -41 10.5 -49.5t57.5 -8.5h118q137 0 174 12.5t50 71.5l16 84q8 10 27.5 9t25.5 -11q0 -20 -4 -92t-4 -115q0 -41 4 -109.5t4 -86.5q-6 -10 -25.5 -11.5t-27.5 9.5l-18 80q-14 66 -64 77q-37 10 -158 11h-118q-47 0 -57.5 -8.5t-10.5 -47.5v-288q0 -172 39 -213 q47 -47 248 -47.5t262 30.5q63 35 145 199q10 8 27.5 4t24.5 -18q-33 -160 -93 -285q-276 6 -548 6h-185q-96 0 -278 -6q-10 4 -11.5 22.5t7.5 28.5l67 6q86 8 106.5 50t20.5 206zM401 1452q-100 0 -100 104q-4 45 24.5 80t75.5 35q45 0 75 -33.5t30 -76.5q0 -45 -29 -77 t-76 -32zM807 1452q-102 0 -107 104q0 47 30 81t77 34q45 0 71.5 -33.5t26.5 -76.5q0 -47 -26.5 -78t-71.5 -31z" />
<glyph unicode="&#xcc;" horiz-adv-x="692" d="M262 311v729q0 170 -18.5 212t-106.5 51l-51 4q-8 6 -7 26.5t11 24.5q154 -6 258 -6q100 0 254 6q10 -4 11 -24.5t-7 -26.5l-51 -4q-88 -8 -106.5 -50.5t-18.5 -212.5v-729q0 -168 18.5 -209t106.5 -51l51 -6q8 -6 7 -26.5t-11 -24.5q-154 6 -254 6q-104 0 -258 -6 q-10 4 -11 22.5t7 28.5l51 6q88 10 106.5 51t18.5 209zM422 1446l-342 147q-39 16 -53 33q-12 33 14 84q25 47 57 47q16 0 56 -26l288 -236q4 -16 -2 -30.5t-18 -18.5z" />
<glyph unicode="&#xcd;" horiz-adv-x="692" d="M262 311v729q0 170 -18.5 212t-106.5 51l-51 4q-8 6 -7 26.5t11 24.5q154 -6 258 -6q100 0 254 6q10 -4 11 -24.5t-7 -26.5l-51 -4q-88 -8 -106.5 -50.5t-18.5 -212.5v-729q0 -168 18.5 -209t106.5 -51l51 -6q8 -6 7 -26.5t-11 -24.5q-154 6 -254 6q-104 0 -258 -6 q-10 4 -11 22.5t7 28.5l51 6q88 10 106.5 51t18.5 209zM614 1593l-342 -147q-12 4 -18 18.5t-2 30.5l289 234q39 29 55 28q35 0 57 -47q27 -51 15 -84q-15 -17 -54 -33z" />
<glyph unicode="&#xce;" horiz-adv-x="692" d="M262 311v729q0 170 -18.5 212t-106.5 51l-51 4q-8 6 -7 26.5t11 24.5q154 -6 258 -6q100 0 254 6q10 -4 11 -24.5t-7 -26.5l-51 -4q-88 -8 -106.5 -50.5t-18.5 -212.5v-729q0 -168 18.5 -209t106.5 -51l51 -6q8 -6 7 -26.5t-11 -24.5q-154 6 -254 6q-104 0 -258 -6 q-10 4 -11 22.5t7 28.5l51 6q88 10 106.5 51t18.5 209zM66 1489l249 235q41 41 86 0l250 -235q0 -37 -24 -41l-238 121q-33 16 -65 0l-232 -121q-26 0 -26 41z" />
<glyph unicode="&#xcf;" horiz-adv-x="692" d="M262 311v729q0 170 -18.5 212t-106.5 51l-51 4q-8 6 -7 26.5t11 24.5q154 -6 258 -6q100 0 254 6q10 -4 11 -24.5t-7 -26.5l-51 -4q-88 -8 -106.5 -50.5t-18.5 -212.5v-729q0 -168 18.5 -209t106.5 -51l51 -6q8 -6 7 -26.5t-11 -24.5q-154 6 -254 6q-104 0 -258 -6 q-10 4 -11 22.5t7 28.5l51 6q88 10 106.5 51t18.5 209zM172 1444q-100 0 -100 104q-4 45 24.5 80t75.5 35q45 0 74.5 -34t29.5 -77q0 -45 -28.5 -76.5t-75.5 -31.5zM553 1444q-102 0 -107 104q0 47 30 81t77 34q45 0 71.5 -34t26.5 -77q0 -47 -26.5 -77.5t-71.5 -30.5z" />
<glyph unicode="&#xd0;" horiz-adv-x="1609" d="M262 307v361h-184q-14 10 -14.5 35.5t14.5 35.5h184v295q0 150 -17.5 200t-88.5 58l-35 4q-12 6 -12 24.5t14 25.5q348 12 522 12q281 0 442 -60q203 -74 309.5 -234.5t106.5 -367.5q0 -201 -92 -360.5t-266 -253.5q-182 -98 -459 -98q-74 0 -189.5 8t-144.5 8 q-111 0 -256 -6q-10 4 -11 22.5t7 28.5l47 6q88 12 105.5 51t17.5 205zM430 1110v-371h377q14 -10 14 -35.5t-14 -35.5h-377v-314q0 -166 41 -223q59 -84 252 -84q289 0 432 172t143 469q0 74 -14 148.5t-58 159.5t-113 148.5t-187.5 106.5t-272.5 43q-164 0 -202 -28 q-21 -17 -21 -156z" />
<glyph unicode="&#xd1;" horiz-adv-x="1603" d="M1364 838v-490q0 -305 6 -358q-8 -23 -39 -23q-39 55 -262 309l-475 541l-113 132q-100 118 -125 145h-4q-10 -31 -10 -133v-447q0 -358 37 -424q18 -33 104 -39l64 -6q8 -12 7 -27.5t-11 -23.5q-137 6 -240 6q-106 0 -213 -6q-10 8 -12 25.5t8 25.5l55 6q76 10 90 41 q27 68 27 422v592q0 98 -45 147q-39 39 -127 50l-35 4q-10 8 -9 26.5t13 24.5q86 -6 232 -6q53 0 94 6q41 -102 350 -451l199 -223q270 -301 338 -371h4q8 10 8 86v439q0 358 -41 424q-18 27 -127 41l-35 4q-10 8 -9 27.5t13 23.5q141 -6 242 -6q106 0 211 6q12 -8 13 -25.5 t-9 -25.5l-29 -4q-100 -16 -114 -43q-31 -66 -31 -422zM766 1634h129q70 0 100.5 14.5t69.5 67.5q27 18 37 -10q-27 -100 -84 -158q-35 -33 -109 -32h-118q-70 0 -107 -24t-72 -83q-8 -8 -22.5 -6t-20.5 14q8 35 34 92.5t50 77.5q41 47 113 47z" />
<glyph unicode="&#xd2;" horiz-adv-x="1628" d="M823 -33q-330 0 -529.5 203t-199.5 492q0 309 207 515.5t522 206.5q336 0 523.5 -205.5t187.5 -496.5q0 -307 -206 -511t-505 -204zM850 31q201 0 340 151.5t139 435.5q0 133 -30.5 254t-92 223.5t-169 164t-249.5 61.5q-86 0 -166.5 -30.5t-156.5 -96.5t-121 -186.5 t-45 -280.5q0 -94 18.5 -188.5t60.5 -187.5t103.5 -162.5t156.5 -113.5t212 -44zM926 1446l-342 147q-43 18 -52 33q-18 37 13 84q33 47 57 47q16 0 55 -26l289 -236q4 -16 -2 -30.5t-18 -18.5z" />
<glyph unicode="&#xd3;" horiz-adv-x="1628" d="M823 -33q-330 0 -529.5 203t-199.5 492q0 309 207 515.5t522 206.5q336 0 523.5 -205.5t187.5 -496.5q0 -307 -206 -511t-505 -204zM850 31q201 0 340 151.5t139 435.5q0 133 -30.5 254t-92 223.5t-169 164t-249.5 61.5q-86 0 -166.5 -30.5t-156.5 -96.5t-121 -186.5 t-45 -280.5q0 -94 18.5 -188.5t60.5 -187.5t103.5 -162.5t156.5 -113.5t212 -44zM1083 1604l-342 -148q-12 4 -18 18.5t-2 30.5l289 236q39 27 55 26q33 0 57 -47q27 -51 15 -84q-15 -16 -54 -32z" />
<glyph unicode="&#xd4;" horiz-adv-x="1628" d="M823 -33q-330 0 -529.5 203t-199.5 492q0 309 207 515.5t522 206.5q336 0 523.5 -205.5t187.5 -496.5q0 -307 -206 -511t-505 -204zM850 31q201 0 340 151.5t139 435.5q0 133 -30.5 254t-92 223.5t-169 164t-249.5 61.5q-86 0 -166.5 -30.5t-156.5 -96.5t-121 -186.5 t-45 -280.5q0 -94 18.5 -188.5t60.5 -187.5t103.5 -162.5t156.5 -113.5t212 -44zM535 1489l249 227q45 39 86 0l250 -227q0 -37 -24 -41l-238 119q-33 16 -65 0l-232 -119q-26 0 -26 41z" />
<glyph unicode="&#xd5;" horiz-adv-x="1628" d="M823 -33q-330 0 -529.5 203t-199.5 492q0 309 207 515.5t522 206.5q336 0 523.5 -205.5t187.5 -496.5q0 -307 -206 -511t-505 -204zM850 31q201 0 340 151.5t139 435.5q0 133 -30.5 254t-92 223.5t-169 164t-249.5 61.5q-86 0 -166.5 -30.5t-156.5 -96.5t-121 -186.5 t-45 -280.5q0 -94 18.5 -188.5t60.5 -187.5t103.5 -162.5t156.5 -113.5t212 -44zM754 1651h129q70 0 100.5 14t69.5 70q27 20 37 -9q-25 -102 -84 -165q-35 -35 -109 -35h-119q-72 0 -107.5 -24.5t-70.5 -88.5q-8 -6 -22.5 -4t-20.5 12q8 37 33.5 97.5t50.5 80.5 q43 52 113 52z" />
<glyph unicode="&#xd6;" horiz-adv-x="1628" d="M823 -33q-330 0 -529.5 203t-199.5 492q0 309 207 515.5t522 206.5q336 0 523.5 -205.5t187.5 -496.5q0 -307 -206 -511t-505 -204zM850 31q201 0 340 151.5t139 435.5q0 133 -30.5 254t-92 223.5t-169 164t-249.5 61.5q-86 0 -166.5 -30.5t-156.5 -96.5t-121 -186.5 t-45 -280.5q0 -94 18.5 -188.5t60.5 -187.5t103.5 -162.5t156.5 -113.5t212 -44zM625 1464q-100 0 -101 105q-4 45 25 79.5t76 34.5q45 0 74.5 -33.5t29.5 -76.5q0 -45 -28.5 -77t-75.5 -32zM1016 1464q-102 0 -107 105q0 47 30 80.5t77 33.5q45 0 71.5 -33.5t26.5 -76.5 q0 -47 -26.5 -78t-71.5 -31z" />
<glyph unicode="&#xd7;" horiz-adv-x="1024" d="M893 715l-303 -307l303 -306l-76 -79l-305 307l-303 -307l-76 79l301 306l-301 301l76 79l303 -303l305 308z" />
<glyph unicode="&#xd8;" horiz-adv-x="1628" d="M1413 1368l-113 -143q233 -201 234 -549q0 -303 -206 -506t-505 -203q-242 0 -424 121l-137 -170q-23 0 -40 15.5t-19 35.5l133 166q-117 94 -179.5 232.5t-62.5 294.5q0 309 207 515.5t522 206.5q238 0 412 -112l117 147q23 -2 42 -17.5t19 -33.5zM1200 1100l-719 -907 q141 -162 369 -162q201 0 340 151.5t139 435.5q0 292 -129 482zM432 256l719 909q-139 156 -363 156q-86 0 -166.5 -30.5t-156.5 -96.5t-121 -186.5t-45 -280.5q0 -276 133 -471z" />
<glyph unicode="&#xd9;" horiz-adv-x="1527" d="M1239 602v236q0 354 -39 424q-20 37 -102 43l-51 4q-8 10 -7.5 26.5t11.5 22.5q117 -6 233 -6q104 0 215 6q12 -8 12 -24.5t-8 -24.5l-49 -4q-82 -6 -102 -50q-29 -68 -29 -417v-232q0 -336 -143 -489q-66 -72 -170.5 -111t-221.5 -39q-252 0 -382 113q-160 133 -160 483 v484q0 166 -18.5 207.5t-104.5 50.5l-51 4q-8 6 -7 25.5t11 23.5q154 -6 254 -6t252 6q10 -4 11 -23.5t-7 -25.5l-49 -4q-86 -8 -104.5 -50.5t-18.5 -207.5v-443q0 -264 96 -405.5t319 -141.5q211 0 310.5 147.5t99.5 397.5zM891 1446l-342 147q-43 18 -51 33q-16 31 12 84 q23 47 57 47q14 0 56 -26l288 -236q4 -16 -2 -30.5t-18 -18.5z" />
<glyph unicode="&#xda;" horiz-adv-x="1527" d="M1239 602v236q0 354 -39 424q-20 37 -102 43l-51 4q-8 10 -7.5 26.5t11.5 22.5q117 -6 233 -6q104 0 215 6q12 -8 12 -24.5t-8 -24.5l-49 -4q-82 -6 -102 -50q-29 -68 -29 -417v-232q0 -336 -143 -489q-66 -72 -170.5 -111t-221.5 -39q-252 0 -382 113q-160 133 -160 483 v484q0 166 -18.5 207.5t-104.5 50.5l-51 4q-8 6 -7 25.5t11 23.5q154 -6 254 -6t252 6q10 -4 11 -23.5t-7 -25.5l-49 -4q-86 -8 -104.5 -50.5t-18.5 -207.5v-443q0 -264 96 -405.5t319 -141.5q211 0 310.5 147.5t99.5 397.5zM1065 1593l-342 -147q-12 4 -18.5 18.5 t-2.5 30.5l289 236q41 27 56 26q35 0 57 -47q27 -51 14 -84q-14 -17 -53 -33z" />
<glyph unicode="&#xdb;" horiz-adv-x="1527" d="M1239 602v236q0 354 -39 424q-20 37 -102 43l-51 4q-8 10 -7.5 26.5t11.5 22.5q117 -6 233 -6q104 0 215 6q12 -8 12 -24.5t-8 -24.5l-49 -4q-82 -6 -102 -50q-29 -68 -29 -417v-232q0 -336 -143 -489q-66 -72 -170.5 -111t-221.5 -39q-252 0 -382 113q-160 133 -160 483 v484q0 166 -18.5 207.5t-104.5 50.5l-51 4q-8 6 -7 25.5t11 23.5q154 -6 254 -6t252 6q10 -4 11 -23.5t-7 -25.5l-49 -4q-86 -8 -104.5 -50.5t-18.5 -207.5v-443q0 -264 96 -405.5t319 -141.5q211 0 310.5 147.5t99.5 397.5zM535 1489l249 227q45 39 86 0l250 -227 q0 -37 -24 -41l-238 119q-33 16 -65 0l-232 -119q-26 0 -26 41z" />
<glyph unicode="&#xdc;" horiz-adv-x="1527" d="M1239 602v236q0 354 -39 424q-20 37 -102 43l-51 4q-8 10 -7.5 26.5t11.5 22.5q117 -6 233 -6q104 0 215 6q12 -8 12 -24.5t-8 -24.5l-49 -4q-82 -6 -102 -50q-29 -68 -29 -417v-232q0 -336 -143 -489q-66 -72 -170.5 -111t-221.5 -39q-252 0 -382 113q-160 133 -160 483 v484q0 166 -18.5 207.5t-104.5 50.5l-51 4q-8 6 -7 25.5t11 23.5q154 -6 254 -6t252 6q10 -4 11 -23.5t-7 -25.5l-49 -4q-86 -8 -104.5 -50.5t-18.5 -207.5v-443q0 -264 96 -405.5t319 -141.5q211 0 310.5 147.5t99.5 397.5zM614 1444q-100 0 -100 104q-4 45 24.5 80 t75.5 35q45 0 75 -34t30 -77q0 -45 -29 -76.5t-76 -31.5zM1016 1444q-102 0 -107 104q0 47 30 81t77 34q45 0 71.5 -34t26.5 -77q0 -47 -26.5 -77.5t-71.5 -30.5z" />
<glyph unicode="&#xdd;" horiz-adv-x="1175" d="M688 418v-107q0 -166 20.5 -210t102.5 -50l78 -6q8 -10 7 -28.5t-11 -22.5q-190 6 -279 6q-106 0 -268 -6q-10 4 -11 22.5t7 28.5l63 6q86 8 104.5 49t18.5 211v105q0 86 -10 127t-55 127l-242 471q-49 94 -80 120.5t-82 34.5l-57 11q-10 10 -8 27.5t12 23.5 q98 -6 238 -6q141 0 219 6q12 -4 14 -23.5t-8 -27.5l-27 -4q-86 -12 -86 -37q0 -31 64 -158l231 -455q117 199 193 346q133 248 133 270.5t-86 33.5l-37 4q-10 10 -9 27.5t13 23.5q111 -6 197 -6t190 6q12 -8 13 -25.5t-9 -25.5l-57 -11q-20 -4 -39 -13t-34 -19.5t-34 -32.5 l-29 -37q-11 -14 -32 -47l-31 -50l-35 -61l-37 -63l-129 -223q-68 -117 -82 -166t-14 -166zM887 1593l-342 -147q-12 4 -18.5 18.5t-2.5 30.5l289 236q39 27 55 26q33 0 58 -47q27 -51 14 -84q-14 -17 -53 -33z" />
<glyph unicode="&#xde;" horiz-adv-x="1148" d="M262 307v737q0 166 -21.5 208t-107.5 51l-45 4q-8 6 -7 26.5t11 24.5q154 -6 258 -6q106 0 248 6q8 -8 9 -25.5t-5 -25.5l-33 -4q-94 -12 -116.5 -53.5t-22.5 -182.5h166q209 0 337 -89t128 -278q0 -111 -55.5 -187.5t-128.5 -113.5q-137 -68 -299 -59q-8 4 -9.5 20.5 t6.5 20.5q299 43 299 311q0 145 -83.5 228.5t-243.5 83.5q-80 0 -98.5 -11.5t-18.5 -60.5v-625q0 -166 18.5 -207t104.5 -49l76 -6q8 -6 7 -26.5t-11 -24.5q-184 6 -275 6q-111 0 -252 -6q-10 4 -11 22.5t7 28.5l45 6q88 12 105.5 51t17.5 205z" />
<glyph unicode="&#xdf;" horiz-adv-x="1071" d="M346 842v-613q0 -113 9.5 -143.5t47.5 -34.5l50 -6q10 -8 8 -27.5t-12 -23.5q-100 6 -179 6q-104 0 -196 -6q-10 4 -12.5 23.5t8.5 27.5l47 6q55 8 66.5 36t11.5 142v433q0 43 -5.5 51t-35.5 8h-72q-23 14 -6 39l88 43q31 16 31 41q0 201 71 350q55 117 154.5 193.5 t245.5 76.5q156 0 231.5 -80.5t75.5 -191.5q0 -35 -6 -61.5t-25.5 -54t-29 -39t-43 -42t-40.5 -37.5l-49 -47q-94 -88 -94 -161q0 -57 37 -103.5t117 -109.5q53 -41 84.5 -74t61.5 -91.5t30 -123.5q0 -123 -93.5 -200t-211.5 -77q-117 0 -160 39q-20 20 -25.5 54t13.5 63 q6 10 19 11t24 -7q106 -98 149 -98q57 0 101.5 43t44.5 123q0 117 -158 235q-166 123 -166 260q0 57 34 105.5t111 124.5q131 123 131 239q0 96 -60 163t-161 67q-125 0 -193.5 -152.5t-68.5 -398.5z" />
<glyph unicode="&#xe0;" horiz-adv-x="827" d="M242 336l243 88q35 12 35 59l2 95q4 178 -149 178q-49 0 -89 -23.5t-42 -68.5q-4 -57 -21 -70q-49 -39 -117 -39q-29 0 -28 29q0 78 133 165t248 87q111 0 164 -61.5t49 -178.5l-13 -356q-8 -178 95 -179q27 0 51 13q25 14 26 14q14 0 15 -27q0 -6 -20.5 -27.5t-63.5 -42 t-88 -20.5q-84 0 -133 64q-18 29 -33 28q-6 0 -80 -40q-94 -51 -147 -52q-90 0 -144 47q-63 57 -63 144q0 61 37 100t133 74zM229 186q0 -39 31 -81t98 -42q29 0 69 17.5t56 34.5q23 23 27 96l4 121q0 27 -20 26q-23 0 -84 -20q-98 -33 -139.5 -65t-41.5 -87zM317 1309 l168 -348q0 -12 -16 -19.5t-29 -5.5l-250 272q-37 41 -36.5 63.5t41.5 53.5q39 33 71 33q28 0 51 -49z" />
<glyph unicode="&#xe1;" horiz-adv-x="827" d="M242 336l243 88q35 12 35 59l2 95q4 178 -149 178q-49 0 -89 -23.5t-42 -68.5q-4 -57 -21 -70q-49 -39 -117 -39q-29 0 -28 29q0 78 133 165t248 87q111 0 164 -61.5t49 -178.5l-13 -356q-8 -178 95 -179q27 0 51 13q25 14 26 14q14 0 15 -27q0 -6 -20.5 -27.5t-63.5 -42 t-88 -20.5q-84 0 -133 64q-18 29 -33 28q-6 0 -80 -40q-94 -51 -147 -52q-90 0 -144 47q-63 57 -63 144q0 61 37 100t133 74zM229 186q0 -39 31 -81t98 -42q29 0 69 17.5t56 34.5q23 23 27 96l4 121q0 27 -20 26q-23 0 -84 -20q-98 -33 -139.5 -65t-41.5 -87zM649 1210 l-256 -266q-31 -4 -35 23l177 333q27 49 49 50q27 0 63 -31q35 -29 35 -53q0 -23 -33 -56z" />
<glyph unicode="&#xe2;" horiz-adv-x="827" d="M242 336l243 88q35 12 35 59l2 95q4 178 -149 178q-49 0 -89 -23.5t-42 -68.5q-4 -57 -21 -70q-49 -39 -117 -39q-29 0 -28 29q0 78 133 165t248 87q111 0 164 -61.5t49 -178.5l-13 -356q-8 -178 95 -179q27 0 51 13q25 14 26 14q14 0 15 -27q0 -6 -20.5 -27.5t-63.5 -42 t-88 -20.5q-84 0 -133 64q-18 29 -33 28q-6 0 -80 -40q-94 -51 -147 -52q-90 0 -144 47q-63 57 -63 144q0 61 37 100t133 74zM229 186q0 -39 31 -81t98 -42q29 0 69 17.5t56 34.5q23 23 27 96l4 121q0 27 -20 26q-23 0 -84 -20q-98 -33 -139.5 -65t-41.5 -87zM578 932 l-150 190q-18 23 -27.5 23t-27.5 -23l-152 -190q-10 -4 -24.5 3t-16.5 15l185 353q37 66 71 0l187 -353q-2 -8 -19.5 -15t-25.5 -3z" />
<glyph unicode="&#xe3;" horiz-adv-x="827" d="M242 336l243 88q35 12 35 59l2 95q4 178 -149 178q-49 0 -89 -23.5t-42 -68.5q-4 -57 -21 -70q-49 -39 -117 -39q-29 0 -28 29q0 78 133 165t248 87q111 0 164 -61.5t49 -178.5l-13 -356q-8 -178 95 -179q27 0 51 13q25 14 26 14q14 0 15 -27q0 -6 -20.5 -27.5t-63.5 -42 t-88 -20.5q-84 0 -133 64q-18 29 -33 28q-6 0 -80 -40q-94 -51 -147 -52q-90 0 -144 47q-63 57 -63 144q0 61 37 100t133 74zM229 186q0 -39 31 -81t98 -42q29 0 69 17.5t56 34.5q23 23 27 96l4 121q0 27 -20 26q-23 0 -84 -20q-98 -33 -139.5 -65t-41.5 -87zM362 1161h109 q63 0 91 13.5t63 64.5q25 12 34 -12q-20 -86 -75 -146q-37 -33 -101 -32h-106q-66 0 -100.5 -24t-65.5 -81q-8 -6 -19.5 -3t-15.5 11q6 31 29.5 86.5t46.5 75.5q40 47 110 47z" />
<glyph unicode="&#xe4;" horiz-adv-x="827" d="M242 336l243 88q35 12 35 59l2 95q4 178 -149 178q-49 0 -89 -23.5t-42 -68.5q-4 -57 -21 -70q-49 -39 -117 -39q-29 0 -28 29q0 78 133 165t248 87q111 0 164 -61.5t49 -178.5l-13 -356q-8 -178 95 -179q27 0 51 13q25 14 26 14q14 0 15 -27q0 -6 -20.5 -27.5t-63.5 -42 t-88 -20.5q-84 0 -133 64q-18 29 -33 28q-6 0 -80 -40q-94 -51 -147 -52q-90 0 -144 47q-63 57 -63 144q0 61 37 100t133 74zM229 186q0 -39 31 -81t98 -42q29 0 69 17.5t56 34.5q23 23 27 96l4 121q0 27 -20 26q-23 0 -84 -20q-98 -33 -139.5 -65t-41.5 -87zM221 1028 q-43 0 -70.5 26.5t-29.5 73.5q-2 45 26.5 76t73.5 31q43 0 73 -29.5t30 -68.5q0 -47 -29 -78t-74 -31zM580 1028q-43 0 -73 27.5t-32 74.5q0 43 30 74t75 31q43 0 70.5 -29.5t27.5 -66.5q0 -49 -27.5 -80t-70.5 -31z" />
<glyph unicode="&#xe5;" horiz-adv-x="827" d="M242 336l243 88q35 12 35 59l2 95q4 178 -149 178q-49 0 -89 -23.5t-42 -68.5q-4 -57 -21 -70q-49 -39 -117 -39q-29 0 -28 29q0 78 133 165t248 87q111 0 164 -61.5t49 -178.5l-13 -356q-8 -178 95 -179q27 0 51 13q25 14 26 14q14 0 15 -27q0 -6 -20.5 -27.5t-63.5 -42 t-88 -20.5q-84 0 -133 64q-18 29 -33 28q-6 0 -80 -40q-94 -51 -147 -52q-90 0 -144 47q-63 57 -63 144q0 61 37 100t133 74zM229 186q0 -39 31 -81t98 -42q29 0 69 17.5t56 34.5q23 23 27 96l4 121q0 27 -20 26q-23 0 -84 -20q-98 -33 -139.5 -65t-41.5 -87zM413.5 1307 q73.5 0 124 -49.5t50.5 -117t-49.5 -116.5t-125 -49t-124.5 49t-49 116.5t50 117t123.5 49.5zM322 1141q0 -47 26.5 -78t65.5 -31q41 0 66.5 31t25.5 78t-26.5 76.5t-65.5 29.5t-65.5 -30.5t-26.5 -75.5z" />
<glyph unicode="&#xe6;" horiz-adv-x="1198" d="M498 225v109q0 25 -10.5 29t-34.5 -5l-91 -30q-135 -47 -135 -152q0 -49 32 -81t79 -32q68 0 125 58q35 36 35 104zM498 473v84q0 66 -5.5 102.5t-38 71.5t-96.5 35q-57 0 -86.5 -30.5t-33.5 -67.5q-4 -49 -23 -64q-53 -39 -115 -39q-25 0 -24 29q0 33 30.5 75t77.5 74 q127 92 254 93q135 0 178 -115q119 115 281 115q104 0 185 -59.5t81 -149.5q0 -41 -37 -54l-452 -145q-23 -8 -30 -16.5t-7 -30.5v-49q0 -121 69.5 -186.5t184.5 -65.5q70 0 122 26.5t115 102.5q12 6 24.5 -3t10.5 -22q-117 -213 -348 -213q-180 0 -274 133l-84 -57 q-111 -76 -209 -76q-74 0 -125 51.5t-51 129.5q0 129 161 188l218 82q31 10 39 18t8 33zM674 494l231 75q53 16 71.5 30.5t18.5 45.5q0 55 -44 92t-105 37q-92 0 -150.5 -78t-58.5 -176q0 -25 6 -28.5t31 2.5z" />
<glyph unicode="&#xe7;" horiz-adv-x="821" d="M377 -199l106 172q-2 -2 -10 -2q-174 0 -280 105q-119 115 -119 303q0 184 129 320.5t366 136.5q104 0 183 -35q31 -27 30 -82q0 -29 -13 -52.5t-32 -23.5q-16 0 -28 14q-88 109 -205 109q-115 0 -199 -88t-84 -242q0 -133 88 -241.5t242 -108.5q143 0 227 123 q12 4 23.5 -5t13.5 -24q-76 -166 -262 -196l-59 -97q-14 -25 16 -43q84 -55 84 -129q0 -68 -57.5 -113.5t-130.5 -45.5q-104 0 -105 63q0 16 12.5 31.5t32.5 15.5q18 0 51 -26.5t43 -26.5q49 0 49 57q0 35 -31.5 69t-80.5 52v10z" />
<glyph unicode="&#xe8;" horiz-adv-x="811" d="M645 524h-379q-39 0 -47 -8t-8 -47q0 -162 91 -272.5t249 -110.5q109 0 188 100q33 10 37 -24q-47 -96 -138 -143.5t-183 -47.5q-195 0 -297 135q-86 113 -86 267q0 193 115.5 328t295.5 135q127 0 209 -74t82 -170q0 -37 -8 -53q-8 -15 -121 -15zM248 586h145 q186 0 213 20q12 8 12 39q0 51 -37.5 90t-119.5 39q-84 0 -154.5 -61.5t-73.5 -116.5q1 -10 15 -10zM387 1300l162 -329q0 -12 -15.5 -19.5t-27.5 -5.5l-240 260q-35 37 -35 62q0 18 39 51q43 29 70 29q24 -1 47 -48z" />
<glyph unicode="&#xe9;" horiz-adv-x="811" d="M645 524h-379q-39 0 -47 -8t-8 -47q0 -162 91 -272.5t249 -110.5q109 0 188 100q33 10 37 -24q-47 -96 -138 -143.5t-183 -47.5q-195 0 -297 135q-86 113 -86 267q0 193 115.5 328t295.5 135q127 0 209 -74t82 -170q0 -37 -8 -53q-8 -15 -121 -15zM248 586h145 q186 0 213 20q12 8 12 39q0 51 -37.5 90t-119.5 39q-84 0 -154.5 -61.5t-73.5 -116.5q1 -10 15 -10zM655 1196l-256 -266q-31 -4 -34 22l176 334q27 49 49 49q27 0 63 -30q35 -29 35 -54q0 -22 -33 -55z" />
<glyph unicode="&#xea;" horiz-adv-x="811" d="M645 524h-379q-39 0 -47 -8t-8 -47q0 -162 91 -272.5t249 -110.5q109 0 188 100q33 10 37 -24q-47 -96 -138 -143.5t-183 -47.5q-195 0 -297 135q-86 113 -86 267q0 193 115.5 328t295.5 135q127 0 209 -74t82 -170q0 -37 -8 -53q-8 -15 -121 -15zM248 586h145 q186 0 213 20q12 8 12 39q0 51 -37.5 90t-119.5 39q-84 0 -154.5 -61.5t-73.5 -116.5q1 -10 15 -10zM647 934l-149 188q-18 23 -27.5 23t-28.5 -23l-151 -188q-10 -4 -24.5 3t-16.5 15l184 363q37 68 72 0l186 -363q-2 -8 -19.5 -15t-25.5 -3z" />
<glyph unicode="&#xeb;" horiz-adv-x="811" d="M645 524h-379q-39 0 -47 -8t-8 -47q0 -162 91 -272.5t249 -110.5q109 0 188 100q33 10 37 -24q-47 -96 -138 -143.5t-183 -47.5q-195 0 -297 135q-86 113 -86 267q0 193 115.5 328t295.5 135q127 0 209 -74t82 -170q0 -37 -8 -53q-8 -15 -121 -15zM248 586h145 q186 0 213 20q12 8 12 39q0 51 -37.5 90t-119.5 39q-84 0 -154.5 -61.5t-73.5 -116.5q1 -10 15 -10zM297 1028q-43 0 -68.5 25.5t-27.5 70.5q-2 41 25.5 71t70.5 30q41 0 69.5 -29t28.5 -66q0 -45 -27.5 -73.5t-70.5 -28.5zM635 1028q-43 0 -70.5 26.5t-29.5 71.5 q0 41 28.5 70t71.5 29q41 0 67.5 -29t26.5 -63q0 -45 -25.5 -75t-68.5 -30z" />
<glyph unicode="&#xec;" horiz-adv-x="526" d="M201 229v359q0 63 -7.5 81.5t-48.5 45.5l-18 12q-6 6 -6 19.5t8 17.5q123 43 211 100q16 0 20 -12q-8 -143 -8 -254v-369q0 -113 12.5 -141.5t65.5 -36.5l43 -6q10 -8 8 -27.5t-12 -23.5q-92 6 -193 6q-106 0 -192 -6q-10 4 -12 23.5t8 27.5l43 6q55 8 66.5 35.5 t11.5 142.5zM176 1300l162 -329q0 -12 -15.5 -19.5t-27.5 -5.5l-240 260q-35 37 -35 62q0 18 39 51q43 29 70 29q24 -1 47 -48z" />
<glyph unicode="&#xed;" horiz-adv-x="526" d="M201 229v359q0 63 -7.5 81.5t-48.5 45.5l-18 12q-6 6 -6 19.5t8 17.5q123 43 211 100q16 0 20 -12q-8 -143 -8 -254v-369q0 -113 12.5 -141.5t65.5 -36.5l43 -6q10 -8 8 -27.5t-12 -23.5q-92 6 -193 6q-106 0 -192 -6q-10 4 -12 23.5t8 27.5l43 6q55 8 66.5 35.5 t11.5 142.5zM492 1225l-256 -267q-31 -4 -35 23l176 334q27 49 49 49q27 0 63 -31q35 -29 35 -53q1 -22 -32 -55z" />
<glyph unicode="&#xee;" horiz-adv-x="526" d="M201 229v359q0 63 -7.5 81.5t-48.5 45.5l-18 12q-6 6 -6 19.5t8 17.5q123 43 211 100q16 0 20 -12q-8 -143 -8 -254v-369q0 -113 12.5 -141.5t65.5 -36.5l43 -6q10 -8 8 -27.5t-12 -23.5q-92 6 -193 6q-106 0 -192 -6q-10 4 -12 23.5t8 27.5l43 6q55 8 66.5 35.5 t11.5 142.5zM446 932l-149 188q-18 23 -27.5 23t-27.5 -23l-152 -188q-10 -4 -24.5 3t-16.5 15l184 363q37 68 72 0l187 -363q-2 -8 -20 -15t-26 -3z" />
<glyph unicode="&#xef;" horiz-adv-x="526" d="M201 229v359q0 63 -7.5 81.5t-48.5 45.5l-18 12q-6 6 -6 19.5t8 17.5q123 43 211 100q16 0 20 -12q-8 -143 -8 -254v-369q0 -113 12.5 -141.5t65.5 -36.5l43 -6q10 -8 8 -27.5t-12 -23.5q-92 6 -193 6q-106 0 -192 -6q-10 4 -12 23.5t8 27.5l43 6q55 8 66.5 35.5 t11.5 142.5zM88 1028q-43 0 -70.5 26.5t-29.5 73.5q-2 45 26.5 76t73.5 31q43 0 72.5 -29.5t29.5 -68.5q0 -47 -28.5 -78t-73.5 -31zM446 1028q-43 0 -72.5 27.5t-31.5 74.5q0 43 29.5 74t74.5 31q43 0 71 -29.5t28 -66.5q0 -49 -28 -80t-71 -31z" />
<glyph unicode="&#xf0;" horiz-adv-x="991" d="M248 418q0 -150 66.5 -267.5t189.5 -117.5q88 0 147.5 60.5t82 143t22.5 185.5q0 178 -47 266q-45 86 -197 86q-115 0 -189.5 -99t-74.5 -257zM893 1294l-213 -110q121 -129 180.5 -305.5t59.5 -356.5q0 -258 -115 -404.5t-326 -146.5q-178 0 -292.5 113t-114.5 305 q0 184 133 315.5t315 131.5q121 0 199 -43q-37 188 -152 331l-268 -139q-43 18 -29 68l254 133q-188 213 -387 231q-20 29 6 47q129 -6 259 -67.5t229 -155.5l229 119q20 -4 30.5 -23.5t2.5 -42.5z" />
<glyph unicode="&#xf1;" horiz-adv-x="1075" d="M201 229v359q0 63 -7.5 81.5t-48.5 45.5l-18 12q-6 6 -6 19.5t8 17.5q41 14 108.5 47t96.5 53q16 0 22 -14q-4 -47 -4 -96q0 -23 23 -23q168 104 287 105q121 0 180 -72t59 -182v-353q0 -113 12.5 -141.5t65.5 -36.5l45 -6q10 -8 8 -27.5t-12 -23.5q-92 6 -193 6 q-106 0 -190 -6q-10 4 -12 23.5t8 27.5l39 6q55 8 66.5 36t11.5 142v306q0 203 -193 202q-121 0 -174 -71q-31 -41 -31 -123v-314q0 -113 11.5 -141.5t66.5 -36.5l37 -6q10 -8 8 -27.5t-12 -23.5q-82 6 -187 6q-106 0 -192 -6q-10 4 -12 23.5t8 27.5l43 6q55 8 66.5 35.5 t11.5 142.5zM498 1184h110q66 0 93.5 13t64.5 67q25 12 35 -13q-20 -88 -78 -149q-37 -33 -100 -33h-109q-68 0 -103.5 -24.5t-66.5 -81.5q-8 -6 -19.5 -3t-15.5 11q6 31 29.5 87t46.5 79q45 47 113 47z" />
<glyph unicode="&#xf2;" horiz-adv-x="995" d="M508 836q176 0 296 -119t120 -305q0 -193 -121 -317t-311 -124q-180 0 -300 117t-120 305q0 190 126 316.5t310 126.5zM748 379q0 154 -66 274.5t-199 120.5q-104 0 -169.5 -94t-65.5 -260q0 -154 68.5 -270.5t195.5 -116.5q123 0 179.5 103.5t56.5 242.5zM408 1294 l161 -329q0 -12 -15 -19.5t-28 -5.5l-239 260q-35 37 -35 62q0 18 39 51q43 29 69 28q25 0 48 -47z" />
<glyph unicode="&#xf3;" horiz-adv-x="995" d="M508 836q176 0 296 -119t120 -305q0 -193 -121 -317t-311 -124q-180 0 -300 117t-120 305q0 190 126 316.5t310 126.5zM748 379q0 154 -66 274.5t-199 120.5q-104 0 -169.5 -94t-65.5 -260q0 -154 68.5 -270.5t195.5 -116.5q123 0 179.5 103.5t56.5 242.5zM705 1204 l-256 -266q-31 -4 -35 23l176 333q27 49 49 49q27 0 63 -30q35 -29 35 -53q1 -23 -32 -56z" />
<glyph unicode="&#xf4;" horiz-adv-x="995" d="M508 836q176 0 296 -119t120 -305q0 -193 -121 -317t-311 -124q-180 0 -300 117t-120 305q0 190 126 316.5t310 126.5zM748 379q0 154 -66 274.5t-199 120.5q-104 0 -169.5 -94t-65.5 -260q0 -154 68.5 -270.5t195.5 -116.5q123 0 179.5 103.5t56.5 242.5zM668 932 l-150 188q-18 23 -27.5 23t-27.5 -23l-152 -188q-10 -4 -24.5 3t-16.5 15l185 363q37 68 71 0l187 -363q-2 -8 -19.5 -15t-25.5 -3z" />
<glyph unicode="&#xf5;" horiz-adv-x="995" d="M508 836q176 0 296 -119t120 -305q0 -193 -121 -317t-311 -124q-180 0 -300 117t-120 305q0 190 126 316.5t310 126.5zM748 379q0 154 -66 274.5t-199 120.5q-104 0 -169.5 -94t-65.5 -260q0 -154 68.5 -270.5t195.5 -116.5q123 0 179.5 103.5t56.5 242.5zM446 1167h109 q63 0 91 13.5t63 64.5q25 12 34 -12q-20 -86 -75 -146q-37 -33 -101 -32h-106q-66 0 -100.5 -23.5t-65.5 -81.5q-8 -6 -19.5 -3t-15.5 11q6 31 29.5 86.5t46.5 75.5q40 47 110 47z" />
<glyph unicode="&#xf6;" horiz-adv-x="995" d="M508 836q176 0 296 -119t120 -305q0 -193 -121 -317t-311 -124q-180 0 -300 117t-120 305q0 190 126 316.5t310 126.5zM748 379q0 154 -66 274.5t-199 120.5q-104 0 -169.5 -94t-65.5 -260q0 -154 68.5 -270.5t195.5 -116.5q123 0 179.5 103.5t56.5 242.5zM307 1028 q-43 0 -70.5 26.5t-29.5 73.5q-2 45 26.5 76t73.5 31q43 0 73 -29.5t30 -68.5q0 -47 -29 -78t-74 -31zM666 1028q-43 0 -73 27.5t-32 74.5q0 43 30 74t75 31q43 0 70.5 -29.5t27.5 -66.5q0 -49 -27.5 -80t-70.5 -31z" />
<glyph unicode="&#xf7;" horiz-adv-x="1024" d="M508 262q35 0 62.5 -26.5t27.5 -63.5t-26.5 -64.5t-63.5 -27.5q-39 0 -65.5 26.5t-26.5 65.5q0 37 26.5 63.5t65.5 26.5zM508 580q-39 0 -65.5 26.5t-26.5 65.5q0 37 26.5 63.5t65.5 26.5q35 0 62.5 -26.5t27.5 -63.5t-26.5 -64.5t-63.5 -27.5zM907 471v-100h-788v100 h788z" />
<glyph unicode="&#xf8;" horiz-adv-x="995" d="M295 180l358 518q-70 76 -170 76q-109 0 -175 -94t-66 -260q0 -142 53 -240zM696 639l-362 -520q74 -86 178 -86q127 0 184.5 102.5t57.5 243.5q-1 151 -58 260zM840 846l-70 -101q154 -121 154 -333q0 -193 -121 -317t-311 -124q-125 0 -220 58l-75 -113 q-20 -2 -35 11.5t-19 33.5l74 107q-145 115 -145 325q0 190 126 316.5t310 126.5q113 0 205 -52l69 101q18 2 37 -10.5t21 -28.5z" />
<glyph unicode="&#xf9;" horiz-adv-x="1048" d="M326 643v-342q0 -117 41 -176t149 -59q94 0 166 61q41 37 41 119v336q0 68 -7 97.5t-19.5 39.5t-49.5 24l-26 11q-10 6 -10.5 22.5t12.5 22.5q168 4 239 37q16 -4 19 -15q-6 -59 -7 -178v-344q0 -131 11.5 -177t52.5 -46q33 0 80 10q10 -8 10 -30.5t-12 -28.5 q-209 -43 -268 -76q-18 0 -25 14v84q0 29 -18 29q-168 -106 -283 -107q-131 0 -189.5 63.5t-58.5 192.5v342q0 102 -8 129t-53 45l-25 11q-10 8 -8 24.5t12 20.5q125 2 219 37q18 -2 21 -15q-6 -51 -6 -178zM403 1300l162 -329q0 -12 -15 -19.5t-28 -5.5l-239 260 q-35 37 -35 62q0 18 39 51q43 29 69 29q24 -1 47 -48z" />
<glyph unicode="&#xfa;" horiz-adv-x="1048" d="M326 643v-342q0 -117 41 -176t149 -59q94 0 166 61q41 37 41 119v336q0 68 -7 97.5t-19.5 39.5t-49.5 24l-26 11q-10 6 -10.5 22.5t12.5 22.5q168 4 239 37q16 -4 19 -15q-6 -59 -7 -178v-344q0 -131 11.5 -177t52.5 -46q33 0 80 10q10 -8 10 -30.5t-12 -28.5 q-209 -43 -268 -76q-18 0 -25 14v84q0 29 -18 29q-168 -106 -283 -107q-131 0 -189.5 63.5t-58.5 192.5v342q0 102 -8 129t-53 45l-25 11q-10 8 -8 24.5t12 20.5q125 2 219 37q18 -2 21 -15q-6 -51 -6 -178zM727 1221l-256 -267q-31 -4 -35 23l176 334q27 49 50 49 q27 0 63 -31q35 -29 35 -53q0 -22 -33 -55z" />
<glyph unicode="&#xfb;" horiz-adv-x="1048" d="M326 643v-342q0 -117 41 -176t149 -59q94 0 166 61q41 37 41 119v336q0 68 -7 97.5t-19.5 39.5t-49.5 24l-26 11q-10 6 -10.5 22.5t12.5 22.5q168 4 239 37q16 -4 19 -15q-6 -59 -7 -178v-344q0 -131 11.5 -177t52.5 -46q33 0 80 10q10 -8 10 -30.5t-12 -28.5 q-209 -43 -268 -76q-18 0 -25 14v84q0 29 -18 29q-168 -106 -283 -107q-131 0 -189.5 63.5t-58.5 192.5v342q0 102 -8 129t-53 45l-25 11q-10 8 -8 24.5t12 20.5q125 2 219 37q18 -2 21 -15q-6 -51 -6 -178zM684 952l-149 189q-18 23 -27.5 22.5t-28.5 -22.5l-151 -189 q-10 -4 -24.5 3.5t-16.5 15.5l184 362q37 68 72 0l186 -362q-2 -8 -19.5 -15.5t-25.5 -3.5z" />
<glyph unicode="&#xfc;" horiz-adv-x="1048" d="M326 643v-342q0 -117 41 -176t149 -59q94 0 166 61q41 37 41 119v336q0 68 -7 97.5t-19.5 39.5t-49.5 24l-26 11q-10 6 -10.5 22.5t12.5 22.5q168 4 239 37q16 -4 19 -15q-6 -59 -7 -178v-344q0 -131 11.5 -177t52.5 -46q33 0 80 10q10 -8 10 -30.5t-12 -28.5 q-209 -43 -268 -76q-18 0 -25 14v84q0 29 -18 29q-168 -106 -283 -107q-131 0 -189.5 63.5t-58.5 192.5v342q0 102 -8 129t-53 45l-25 11q-10 8 -8 24.5t12 20.5q125 2 219 37q18 -2 21 -15q-6 -51 -6 -178zM330 1028q-43 0 -71 26.5t-30 73.5q-2 45 27 76t74 31 q43 0 72.5 -29.5t29.5 -68.5q0 -47 -28.5 -78t-73.5 -31zM688 1028q-43 0 -72.5 27.5t-31.5 74.5q0 43 29.5 74t74.5 31q43 0 70.5 -29.5t27.5 -66.5q0 -49 -27.5 -80t-70.5 -31z" />
<glyph unicode="&#xfd;" horiz-adv-x="897" d="M139 -510q-43 0 -66.5 24.5t-23.5 63.5t23.5 60.5t58.5 21.5h39q45 0 68 37q80 125 118 227q20 55 21 88q0 43 -35 142l-160 438q-23 63 -32 84.5t-31.5 45t-57.5 30.5l-51 10q-10 8 -8 27.5t14 23.5q98 -6 195 -6q80 0 178 6q12 -4 13 -23.5t-9 -27.5l-51 -10 q-45 -10 -45 -27q0 -25 59 -193l66 -188q53 -143 59 -145q12 8 76 151l70 162q72 170 71 205q0 27 -49 35l-63 10q-10 8 -9 27.5t13 23.5q98 -6 180 -6q70 0 156 6q12 -6 13 -24.5t-9 -26.5l-35 -6q-49 -8 -84 -54.5t-90 -162.5l-115 -236l-336 -717q-43 -96 -131 -96z M725 1204l-256 -266q-31 -4 -35 23l176 333q27 49 49 49q27 0 64 -30q35 -29 35 -53q0 -23 -33 -56z" />
<glyph unicode="&#xfe;" horiz-adv-x="1021" d="M309 -78v-215q0 -113 11.5 -139.5t66.5 -34.5l80 -10q10 -8 8 -27.5t-12 -23.5q-147 6 -230 6q-106 0 -192 -6q-10 4 -12 23.5t8 27.5l43 6q55 8 66.5 35.5t11.5 142.5v1407q0 92 -9.5 117.5t-54.5 52.5l-20 12q-8 4 -8 20.5t8 20.5q14 6 58 20.5t87 31t78 34.5 q14 0 20 -12q-8 -143 -8 -254v-391q0 -27 15 -27q4 2 26.5 14.5t48.5 24.5l61 27q34 14 73.5 22.5t76.5 8.5q152 0 246 -106.5t94 -262.5q0 -217 -139 -356.5t-354 -139.5q-82 0 -119 9q-29 -7 -29 -58zM309 559v-352q0 -43 14.5 -67.5t49.5 -51.5q61 -49 153 -49 q117 0 187.5 100.5t70.5 253.5q0 143 -72.5 243.5t-203.5 100.5q-121 0 -174 -57q-25 -31 -25 -121z" />
<glyph unicode="&#xff;" horiz-adv-x="897" d="M139 -510q-43 0 -66.5 24.5t-23.5 63.5t23.5 60.5t58.5 21.5h39q45 0 68 37q80 125 118 227q20 55 21 88q0 43 -35 142l-160 438q-23 63 -32 84.5t-31.5 45t-57.5 30.5l-51 10q-10 8 -8 27.5t14 23.5q98 -6 195 -6q80 0 178 6q12 -4 13 -23.5t-9 -27.5l-51 -10 q-45 -10 -45 -27q0 -25 59 -193l66 -188q53 -143 59 -145q12 8 76 151l70 162q72 170 71 205q0 27 -49 35l-63 10q-10 8 -9 27.5t13 23.5q98 -6 180 -6q70 0 156 6q12 -6 13 -24.5t-9 -26.5l-35 -6q-49 -8 -84 -54.5t-90 -162.5l-115 -236l-336 -717q-43 -96 -131 -96z M313 1028q-43 0 -70.5 26.5t-29.5 73.5q-2 45 26.5 76t73.5 31q43 0 73 -29.5t30 -68.5q0 -47 -29 -78t-74 -31zM672 1028q-43 0 -73 27.5t-32 74.5q0 43 30 74t75 31q43 0 70.5 -29.5t27.5 -66.5q0 -49 -27.5 -80t-70.5 -31z" />
<glyph unicode="&#x100;" horiz-adv-x="1275" d="M924 197l-90 278q-10 35 -24.5 43t-59.5 8h-310q-39 0 -53 -8t-25 -41l-71 -215q-45 -135 -45 -170q0 -37 59 -41l68 -6q10 -8 10 -26.5t-14 -24.5q-29 2 -213 6q-31 0 -197 -6q-10 6 -11 24.5t7 26.5l68 6q86 8 122 101q10 29 41 101l66 163l74 192l209 553 q41 109 34 146q53 16 107 77q25 0 31 -18q23 -76 90 -274l280 -824q45 -131 77 -170t97 -47l56 -6q10 -8 9 -26.5t-9 -24.5q-127 6 -248 6q-57 0 -236 -6q-12 6 -13 24.5t9 26.5l60 6q72 6 71 37q1 29 -26 109zM557 1014l-129 -357q-12 -35 -6 -42t49 -7h252q45 0 52 11.5 t-7 52.5l-111 334q-35 104 -47 129h-4q-12 -21 -49 -121zM870 1479h-450q-16 20 -16.5 58t16.5 58h450q18 -20 18 -58t-18 -58z" />
<glyph unicode="&#x101;" horiz-adv-x="827" d="M242 336l243 88q35 12 35 59l2 95q4 178 -149 178q-49 0 -89 -23.5t-42 -68.5q-4 -57 -21 -70q-49 -39 -117 -39q-29 0 -28 29q0 78 133 165t248 87q111 0 164 -61.5t49 -178.5l-13 -356q-8 -178 95 -179q27 0 51 13q25 14 26 14q14 0 15 -27q0 -6 -20.5 -27.5t-63.5 -42 t-88 -20.5q-84 0 -133 64q-18 29 -33 28q-6 0 -80 -40q-94 -51 -147 -52q-90 0 -144 47q-63 57 -63 144q0 61 37 100t133 74zM229 186q0 -39 31 -81t98 -42q29 0 69 17.5t56 34.5q23 23 27 96l4 121q0 27 -20 26q-23 0 -84 -20q-98 -33 -139.5 -65t-41.5 -87zM616 1063h-417 q-16 23 -16.5 59.5t16.5 57.5h417q14 -20 14 -57t-14 -60z" />
<glyph unicode="&#x102;" horiz-adv-x="1275" d="M924 197l-90 278q-10 35 -24.5 43t-59.5 8h-310q-39 0 -53 -8t-25 -41l-71 -215q-45 -135 -45 -170q0 -37 59 -41l68 -6q10 -8 10 -26.5t-14 -24.5q-29 2 -213 6q-31 0 -197 -6q-10 6 -11 24.5t7 26.5l68 6q86 8 122 101q10 29 41 101l66 163l74 192l209 553 q41 109 34 146q53 16 107 77q25 0 31 -18q23 -76 90 -274l280 -824q45 -131 77 -170t97 -47l56 -6q10 -8 9 -26.5t-9 -24.5q-127 6 -248 6q-57 0 -236 -6q-12 6 -13 24.5t9 26.5l60 6q72 6 71 37q1 29 -26 109zM557 1014l-129 -357q-12 -35 -6 -42t49 -7h252q45 0 52 11.5 t-7 52.5l-111 334q-35 104 -47 129h-4q-12 -21 -49 -121zM659.5 1464q-249.5 0 -243.5 262q8 8 28.5 8.5t28.5 -8.5q35 -135 186.5 -135t188.5 135q8 8 27.5 8.5t27.5 -8.5q6 -262 -243.5 -262z" />
<glyph unicode="&#x103;" horiz-adv-x="827" d="M242 336l243 88q35 12 35 59l2 95q4 178 -149 178q-49 0 -89 -23.5t-42 -68.5q-4 -57 -21 -70q-49 -39 -117 -39q-29 0 -28 29q0 78 133 165t248 87q111 0 164 -61.5t49 -178.5l-13 -356q-8 -178 95 -179q27 0 51 13q25 14 26 14q14 0 15 -27q0 -6 -20.5 -27.5t-63.5 -42 t-88 -20.5q-84 0 -133 64q-18 29 -33 28q-6 0 -80 -40q-94 -51 -147 -52q-90 0 -144 47q-63 57 -63 144q0 61 37 100t133 74zM229 186q0 -39 31 -81t98 -42q29 0 69 17.5t56 34.5q23 23 27 96l4 121q0 27 -20 26q-23 0 -84 -20q-98 -33 -139.5 -65t-41.5 -87zM409.5 1016 q-108.5 0 -165 67.5t-47.5 200.5q8 6 22 6t23 -6q16 -76 64 -113.5t103.5 -37.5t103.5 37.5t67 113.5q6 6 20 6t25 -6q6 -133 -50.5 -200.5t-165 -67.5z" />
<glyph unicode="&#x104;" horiz-adv-x="1275" d="M471 608h252q45 0 52 11.5t-7 52.5l-111 334q-35 104 -47 129h-4q-12 -20 -49 -121l-129 -357q-12 -35 -6 -42t49 -7zM750 526h-310q-39 0 -53 -8t-25 -41l-71 -215q-45 -135 -45 -170q0 -37 59 -41l68 -6q10 -8 10 -26.5t-14 -24.5q-29 2 -213 6q-31 0 -197 -6 q-10 6 -11 24.5t7 26.5l68 6q86 8 122 101q10 29 41 101l66 163l74 192l209 553q41 109 34 146q53 16 107 77q25 0 31 -18q23 -76 90 -274l280 -824q45 -131 77 -170t97 -47l56 -6q10 -8 9 -26.5t-9 -24.5q-127 6 -248 6h-23q-33 -84 -32 -172q0 -72 41.5 -112t101.5 -40 q55 0 86 17q16 -10 16 -35q-70 -86 -202 -86q-80 0 -128.5 48t-48.5 126q0 102 115 252q-80 0 -162 -4q-12 6 -13 24.5t9 26.5l60 6q72 6 71 37q0 29 -26 109l-90 278q-10 35 -24.5 43t-59.5 8z" />
<glyph unicode="&#x105;" horiz-adv-x="827" d="M229 186q0 -39 31 -81t98 -42q29 0 69 17.5t56 34.5q23 23 27 96l4 121q0 27 -20 26q-23 0 -84 -20q-98 -33 -139.5 -65t-41.5 -87zM242 336l243 88q35 12 35 59l2 95q4 178 -149 178q-49 0 -89 -23.5t-42 -68.5q-4 -57 -21 -70q-49 -39 -117 -39q-29 0 -28 29 q0 78 133 165t248 87q111 0 164 -61.5t49 -178.5l-13 -356q-8 -178 95 -179q27 0 51 13q25 14 26 14q14 0 15 -27q0 -8 -56 -59q-121 -104 -120 -242q0 -43 24.5 -67.5t63.5 -24.5q61 0 100 29q18 -6 18 -31q-72 -94 -186 -94q-74 0 -112.5 44t-38.5 97q0 123 157 260 q-12 -2 -22 -2q-84 0 -133 64q-18 29 -33 28q-6 0 -80 -40q-94 -51 -147 -52q-90 0 -144 47q-63 57 -63 144q0 61 37 100t133 74z" />
<glyph unicode="&#x106;" horiz-adv-x="1425" d="M90 668q0 166 69.5 308t188.5 234q223 174 553 174q184 0 363 -49q41 -10 57 -8q6 -123 29 -301q-8 -10 -26.5 -12t-29.5 8q-66 299 -420 299q-250 0 -414.5 -160t-164.5 -463q0 -311 173 -489t435 -178q176 0 279.5 88t148.5 205q10 8 28.5 5t24.5 -14 q-10 -76 -41.5 -162.5t-56.5 -117.5q-29 -4 -72 -21q-41 -14 -138 -30.5t-185 -16.5q-305 0 -510 137q-291 202 -291 564zM1104 1593l-342 -147q-12 4 -18.5 18.5t-2.5 30.5l289 234q39 29 55 28q33 0 58 -47q27 -51 14 -84q-14 -17 -53 -33z" />
<glyph unicode="&#x107;" horiz-adv-x="819" d="M569 836q104 0 183 -35q31 -27 30 -82q0 -29 -13 -52.5t-32 -23.5q-16 0 -28 14q-88 109 -205 109q-115 0 -199 -88t-84 -242q0 -133 88 -241.5t242 -108.5q143 0 227 123q12 4 23.5 -5t13.5 -24q-49 -104 -145.5 -156.5t-196.5 -52.5q-174 0 -280 105q-119 115 -119 303 q0 184 128.5 320.5t366.5 136.5zM666 1190l-256 -266q-31 -4 -35 22l176 334q27 49 49 49q27 0 64 -31q35 -29 34 -53q1 -22 -32 -55z" />
<glyph unicode="&#x10c;" horiz-adv-x="1425" d="M90 668q0 166 69.5 308t188.5 234q223 174 553 174q184 0 363 -49q41 -10 57 -8q6 -123 29 -301q-8 -10 -26.5 -12t-29.5 8q-66 299 -420 299q-250 0 -414.5 -160t-164.5 -463q0 -311 173 -489t435 -178q176 0 279.5 88t148.5 205q10 8 28.5 5t24.5 -14 q-10 -76 -41.5 -162.5t-56.5 -117.5q-29 -4 -72 -21q-41 -14 -138 -30.5t-185 -16.5q-305 0 -510 137q-291 202 -291 564zM815 1460l-254 221q0 12 9.5 25.5t21.5 13.5l233 -112q20 -12 30.5 -11.5t35.5 11.5l235 112q23 -4 23 -39l-250 -221q-43 -37 -84 0z" />
<glyph unicode="&#x10d;" horiz-adv-x="819" d="M569 836q104 0 183 -35q31 -27 30 -82q0 -29 -13 -52.5t-32 -23.5q-16 0 -28 14q-88 109 -205 109q-115 0 -199 -88t-84 -242q0 -133 88 -241.5t242 -108.5q143 0 227 123q12 4 23.5 -5t13.5 -24q-49 -104 -145.5 -156.5t-196.5 -52.5q-174 0 -280 105q-119 115 -119 303 q0 184 128.5 320.5t366.5 136.5zM313 1362l154 -191q27 -35 55 0l154 191q10 2 22.5 -5t14.5 -22l-185 -362q-33 -66 -67 0l-189 362q2 27 41 27z" />
<glyph unicode="&#x10e;" horiz-adv-x="1597" d="M262 307v778q0 113 -17.5 152t-78.5 47l-45 6q-12 8 -12 26.5t14 24.5q279 16 514 17q285 0 450 -62q203 -74 309.5 -234.5t106.5 -369.5q0 -197 -92 -356.5t-266 -253.5q-182 -98 -459 -98q-74 0 -189.5 8t-144.5 8q-111 0 -256 -6q-10 4 -11 22.5t7 28.5l47 6 q88 12 105.5 51t17.5 205zM430 1110v-756q0 -166 41 -223q59 -84 252 -84q289 0 432 172t143 469q0 76 -14 150.5t-58 159.5t-113 148.5t-187.5 105.5t-272.5 42q-164 0 -202 -28q-21 -17 -21 -156zM666 1460l-254 221q0 12 9 25.5t21 13.5l234 -112q20 -12 30.5 -11.5 t34.5 11.5l236 112q23 -4 22 -39l-249 -221q-41 -37 -84 0z" />
<glyph unicode="&#x10f;" horiz-adv-x="1042" d="M868 1198v-899q0 -137 10.5 -187.5t49.5 -50.5q27 0 88 21q12 -4 12 -30.5t-14 -35.5q-162 -23 -271 -65q-23 0 -22 16v35q0 55 -4 64h-8q-137 -94 -258 -95q-168 0 -273.5 114t-105.5 280q0 211 141 341t354 130q86 0 138 -19q12 0 12 29v309q0 92 -9.5 117.5 t-54.5 52.5l-20 12q-8 4 -8 20.5t8 20.5q147 47 221 86q14 0 20 -12q-6 -184 -6 -254zM717 203v403q0 47 -23 80q-61 86 -172 86q-133 0 -207.5 -99.5t-74.5 -240.5q0 -150 80.5 -256t224.5 -106q100 0 157 57q15 15 15 76zM1040 1464q57 0 91 -49t34 -119q0 -86 -54 -147.5 t-128 -91.5q-18 6 -23.5 22.5t7.5 24.5q109 76 108 143q0 74 -69 88q-47 12 -48 58q0 27 19.5 49t62.5 22z" />
<glyph unicode="&#x110;" horiz-adv-x="1609" d="M262 307v361h-184q-14 10 -14.5 35.5t14.5 35.5h184v295q0 150 -17.5 200t-88.5 58l-35 4q-12 6 -12 24.5t14 25.5q348 12 522 12q281 0 442 -60q203 -74 309.5 -234.5t106.5 -367.5q0 -201 -92 -360.5t-266 -253.5q-182 -98 -459 -98q-74 0 -189.5 8t-144.5 8 q-111 0 -256 -6q-10 4 -11 22.5t7 28.5l47 6q88 12 105.5 51t17.5 205zM430 1110v-371h295q14 -10 14 -35.5t-14 -35.5h-295v-314q0 -166 41 -223q59 -84 252 -84q289 0 432 172t143 469q0 74 -14 148.5t-58 159.5t-113 148.5t-187.5 106.5t-272.5 43q-164 0 -202 -28 q-21 -17 -21 -156z" />
<glyph unicode="&#x111;" horiz-adv-x="1042" d="M717 203v403q0 47 -23 80q-61 86 -172 86q-133 0 -207.5 -99.5t-74.5 -240.5q0 -150 80.5 -256t224.5 -106q100 0 157 57q15 15 15 76zM1014 1155v-80h-146v-776q0 -137 10.5 -187.5t49.5 -50.5q27 0 88 21q12 -4 12 -30.5t-14 -35.5q-162 -23 -271 -65q-23 0 -22 16v35 q0 55 -4 64h-8q-137 -94 -258 -95q-168 0 -273.5 114t-105.5 280q0 211 141 341t354 130q86 0 138 -19q12 0 12 29v229h-236v80h236q0 92 -10.5 117.5t-53.5 52.5l-20 12q-8 4 -8 20.5t8 20.5q147 47 221 86q14 0 20 -12q-6 -184 -6 -254v-43h146z" />
<glyph unicode="&#x112;" horiz-adv-x="1196" d="M262 307v737q0 166 -18.5 207t-106.5 52l-33 4q-8 6 -7 26.5t12 24.5q133 -6 241 -6h385q252 0 277 6q10 -31 32 -273q-6 -10 -24.5 -11t-26.5 7q-14 43 -18 56.5t-18.5 44t-28 43t-37 28t-53.5 23.5q-51 12 -199 12h-147q-45 0 -53.5 -11t-8.5 -71v-409 q0 -41 10.5 -49.5t57.5 -8.5h118q137 0 174 12.5t50 71.5l16 84q8 10 27.5 9t25.5 -11q0 -20 -4 -92t-4 -115q0 -41 4 -109.5t4 -86.5q-6 -10 -25.5 -11.5t-27.5 9.5l-18 80q-14 66 -64 77q-37 10 -158 11h-118q-47 0 -57.5 -8.5t-10.5 -47.5v-288q0 -172 39 -213 q47 -47 248 -47.5t262 30.5q63 35 145 199q10 8 27.5 4t24.5 -18q-33 -160 -93 -285q-276 6 -548 6h-185q-96 0 -278 -6q-10 4 -11.5 22.5t7.5 28.5l67 6q86 8 106.5 50t20.5 206zM840 1479h-451q-16 20 -16 58t16 58h451q18 -20 18 -58t-18 -58z" />
<glyph unicode="&#x113;" horiz-adv-x="811" d="M645 524h-379q-39 0 -47 -8t-8 -47q0 -162 91 -272.5t249 -110.5q109 0 188 100q33 10 37 -24q-47 -96 -138 -143.5t-183 -47.5q-195 0 -297 135q-86 113 -86 267q0 193 115.5 328t295.5 135q127 0 209 -74t82 -170q0 -37 -8 -53q-8 -15 -121 -15zM248 586h145 q186 0 213 20q12 8 12 39q0 51 -37.5 90t-119.5 39q-84 0 -154.5 -61.5t-73.5 -116.5q1 -10 15 -10zM662 1042h-400q-16 18 -16 55.5t16 55.5h400q14 -18 14 -55.5t-14 -55.5z" />
<glyph unicode="&#x116;" horiz-adv-x="1196" d="M262 307v737q0 166 -18.5 207t-106.5 52l-33 4q-8 6 -7 26.5t12 24.5q133 -6 241 -6h385q252 0 277 6q10 -31 32 -273q-6 -10 -24.5 -11t-26.5 7q-14 43 -18 56.5t-18.5 44t-28 43t-37 28t-53.5 23.5q-51 12 -199 12h-147q-45 0 -53.5 -11t-8.5 -71v-409 q0 -41 10.5 -49.5t57.5 -8.5h118q137 0 174 12.5t50 71.5l16 84q8 10 27.5 9t25.5 -11q0 -20 -4 -92t-4 -115q0 -41 4 -109.5t4 -86.5q-6 -10 -25.5 -11.5t-27.5 9.5l-18 80q-14 66 -64 77q-37 10 -158 11h-118q-47 0 -57.5 -8.5t-10.5 -47.5v-288q0 -172 39 -213 q47 -47 248 -47.5t262 30.5q63 35 145 199q10 8 27.5 4t24.5 -18q-33 -160 -93 -285q-276 6 -548 6h-185q-96 0 -278 -6q-10 4 -11.5 22.5t7.5 28.5l67 6q86 8 106.5 50t20.5 206zM631 1448q-49 0 -79 28.5t-32 79.5q-2 47 30 79t81 32q45 0 76.5 -31.5t31.5 -72.5 q0 -51 -30.5 -83t-77.5 -32z" />
<glyph unicode="&#x117;" horiz-adv-x="811" d="M645 524h-379q-39 0 -47 -8t-8 -47q0 -162 91 -272.5t249 -110.5q109 0 188 100q33 10 37 -24q-47 -96 -138 -143.5t-183 -47.5q-195 0 -297 135q-86 113 -86 267q0 193 115.5 328t295.5 135q127 0 209 -74t82 -170q0 -37 -8 -53q-8 -15 -121 -15zM248 586h145 q186 0 213 20q12 8 12 39q0 51 -37.5 90t-119.5 39q-84 0 -154.5 -61.5t-73.5 -116.5q1 -10 15 -10zM475 1237q45 0 71.5 -30.5t26.5 -76.5q0 -51 -29.5 -76.5t-74.5 -25.5q-47 0 -74.5 28.5t-27.5 71.5q0 49 30.5 79t77.5 30z" />
<glyph unicode="&#x118;" horiz-adv-x="1196" d="M262 307v737q0 166 -18.5 207t-106.5 52l-33 4q-8 6 -7 26.5t12 24.5q133 -6 241 -6h385q252 0 277 6q10 -31 32 -273q-6 -10 -24.5 -11t-26.5 7q-14 43 -18 56.5t-18.5 44t-28 43t-37 28t-53.5 23.5q-51 12 -199 12h-147q-45 0 -53.5 -11t-8.5 -71v-409 q0 -41 10.5 -49.5t57.5 -8.5h118q137 0 174 12.5t50 71.5l16 84q8 10 27.5 9t25.5 -11q0 -20 -4 -92t-4 -115q0 -41 4 -109.5t4 -86.5q-6 -10 -25.5 -11.5t-27.5 9.5l-18 80q-14 66 -64 77q-37 10 -158 11h-118q-47 0 -57.5 -8.5t-10.5 -47.5v-288q0 -172 39 -213 q47 -47 248 -47.5t262 30.5q63 35 145 199q10 8 27.5 4t24.5 -18q-33 -160 -93 -285q-55 0 -82 2q-49 -92 -49 -178q0 -66 42 -104t102 -38q55 0 86 17q16 -10 16 -35q-70 -86 -211 -86q-74 0 -121 48t-47 118q0 123 131 258q-279 4 -415 4h-185q-96 0 -278 -6 q-10 4 -11.5 22.5t7.5 28.5l67 6q86 8 106.5 50t20.5 206z" />
<glyph unicode="&#x119;" horiz-adv-x="811" d="M248 586h145q186 0 213 20q12 8 12 39q0 51 -37.5 90t-119.5 39q-84 0 -154.5 -61.5t-73.5 -116.5q1 -10 15 -10zM483 836q127 0 209 -74t82 -170q0 -37 -8 -53q-8 -14 -121 -15h-379q-39 0 -47 -8t-8 -47q0 -162 91 -272.5t249 -110.5q104 0 188 100q33 10 37 -24 q-23 -39 -117 -133q-158 -152 -157 -273q0 -39 24.5 -63.5t61.5 -24.5q61 0 100 29q18 -6 19 -31q-72 -94 -191 -94q-59 0 -98 38t-39 93q0 113 184 285q-25 -10 -51 -13q-33 -4 -51 -4q-201 0 -303 135q-86 113 -86 267q0 193 115.5 328t295.5 135z" />
<glyph unicode="&#x11a;" horiz-adv-x="1196" d="M262 307v737q0 166 -18.5 207t-106.5 52l-33 4q-8 6 -7 26.5t12 24.5q133 -6 241 -6h385q252 0 277 6q10 -31 32 -273q-6 -10 -24.5 -11t-26.5 7q-14 43 -18 56.5t-18.5 44t-28 43t-37 28t-53.5 23.5q-51 12 -199 12h-147q-45 0 -53.5 -11t-8.5 -71v-409 q0 -41 10.5 -49.5t57.5 -8.5h118q137 0 174 12.5t50 71.5l16 84q8 10 27.5 9t25.5 -11q0 -20 -4 -92t-4 -115q0 -41 4 -109.5t4 -86.5q-6 -10 -25.5 -11.5t-27.5 9.5l-18 80q-14 66 -64 77q-37 10 -158 11h-118q-47 0 -57.5 -8.5t-10.5 -47.5v-288q0 -172 39 -213 q47 -47 248 -47.5t262 30.5q63 35 145 199q10 8 27.5 4t24.5 -18q-33 -160 -93 -285q-276 6 -548 6h-185q-96 0 -278 -6q-10 4 -11.5 22.5t7.5 28.5l67 6q86 8 106.5 50t20.5 206zM582 1460l-252 232q0 14 8 27.5t20 13.5l234 -117q20 -12 30.5 -11t34.5 11l238 117 q23 -4 23 -41l-250 -232q-41 -39 -86 0z" />
<glyph unicode="&#x11b;" horiz-adv-x="811" d="M645 524h-379q-39 0 -47 -8t-8 -47q0 -162 91 -272.5t249 -110.5q109 0 188 100q33 10 37 -24q-47 -96 -138 -143.5t-183 -47.5q-195 0 -297 135q-86 113 -86 267q0 193 115.5 328t295.5 135q127 0 209 -74t82 -170q0 -37 -8 -53q-8 -15 -121 -15zM248 586h145 q186 0 213 20q12 8 12 39q0 51 -37.5 90t-119.5 39q-84 0 -154.5 -61.5t-73.5 -116.5q1 -10 15 -10zM283 1358l153 -191q27 -35 56 0l153 191q10 2 22.5 -5t14.5 -22l-184 -362q-33 -66 -68 0l-188 362q2 27 41 27z" />
<glyph unicode="&#x11e;" horiz-adv-x="1529" d="M1327 324v-115q0 -127 49 -146q12 -12 -2 -24q-31 0 -100 -19q-201 -53 -367 -53q-399 0 -624 228q-188 188 -189 464q0 289 185 486q229 240 649 239q129 0 260 -30q104 -23 127 -19q0 -92 31 -297q-4 -12 -26 -14t-30 8q-41 158 -146.5 224.5t-273.5 66.5 q-281 0 -426 -170t-145 -420q0 -309 158.5 -505.5t455.5 -196.5q186 0 226 61q20 29 20 117v82q0 129 -19.5 158.5t-113.5 39.5l-90 11q-12 6 -11 26.5t11 24.5q88 -6 293 -6q115 0 217 6q10 -6 11 -23.5t-9 -27.5l-33 -4q-59 -6 -73.5 -43t-14.5 -129zM827.5 1485 q-249.5 0 -243.5 262q8 8 28.5 8t28.5 -8q35 -133 186 -133q154 0 189 133q8 8 27.5 8t27.5 -8q6 -262 -243.5 -262z" />
<glyph unicode="&#x11f;" horiz-adv-x="913" d="M748 762h165q18 -8 14.5 -45t-26.5 -39h-147q4 -35 4 -105q0 -57 -18.5 -111t-55.5 -103.5t-107.5 -80t-162.5 -30.5q-16 0 -90 6q-90 -53 -91 -113q0 -37 37 -61.5t107 -24.5q33 0 114.5 3t129.5 3q287 0 286 -225q0 -164 -152.5 -275.5t-357.5 -111.5q-172 0 -256 72.5 t-84 165.5q0 49 23 75l72 71l67 67q37 37 17 49q-61 16 -105.5 62t-44.5 100q0 12 31 34q51 33 108 95q20 25 21 39q-154 82 -154 247q0 131 98.5 220.5t235.5 89.5q102 0 197 -41q76 -33 125 -33zM555 -66h-70q-141 0 -176 -22q-98 -61 -98 -172q0 -88 70.5 -145.5 t203.5 -57.5t218 64.5t85 154.5q0 178 -233 178zM444 307q80 0 124 58.5t44 154.5q0 111 -46 183.5t-136 72.5q-76 0 -124 -63.5t-48 -165.5q0 -106 55 -173t131 -67zM450.5 987q-108.5 0 -165 67.5t-47.5 200.5q8 6 22 6.5t23 -6.5q16 -76 64 -113.5t103.5 -37.5t103.5 38 t67 113q6 6 20 6.5t25 -6.5q6 -133 -50.5 -200.5t-165 -67.5z" />
<glyph unicode="&#x122;" horiz-adv-x="1529" d="M1327 324v-115q0 -127 49 -146q12 -12 -2 -24q-31 0 -100 -19q-201 -53 -367 -53q-399 0 -624 228q-188 188 -189 464q0 289 185 486q229 240 649 239q129 0 260 -30q104 -23 127 -19q0 -92 31 -297q-4 -12 -26 -14t-30 8q-41 158 -146.5 224.5t-273.5 66.5 q-281 0 -426 -170t-145 -420q0 -309 158.5 -505.5t455.5 -196.5q186 0 226 61q20 29 20 117v82q0 129 -19.5 158.5t-113.5 39.5l-90 11q-12 6 -11 26.5t11 24.5q88 -6 293 -6q115 0 217 6q10 -6 11 -23.5t-9 -27.5l-33 -4q-59 -6 -73.5 -43t-14.5 -129zM840 -119 q51 0 94 -45t43 -125q0 -193 -225 -262q-12 6 -14.5 31.5t3.5 32.5q47 16 88 53t41 90q0 18 -7 33.5t-19.5 26t-22.5 17.5t-22 13l-15 6q-31 16 -30 51q0 31 23.5 54.5t62.5 23.5z" />
<glyph unicode="&#x123;" horiz-adv-x="913" d="M748 762h165q18 -8 14.5 -45t-26.5 -39h-147q4 -35 4 -105q0 -57 -18.5 -111t-55.5 -103.5t-107.5 -80t-162.5 -30.5q-16 0 -90 6q-90 -53 -91 -113q0 -37 37 -61.5t107 -24.5q33 0 114.5 3t129.5 3q287 0 286 -225q0 -164 -152.5 -275.5t-357.5 -111.5q-172 0 -256 72.5 t-84 165.5q0 49 23 75l72 71l67 67q37 37 17 49q-61 16 -105.5 62t-44.5 100q0 12 31 34q51 33 108 95q20 25 21 39q-154 82 -154 247q0 131 98.5 220.5t235.5 89.5q102 0 197 -41q76 -33 125 -33zM555 -66h-70q-141 0 -176 -22q-98 -61 -98 -172q0 -88 70.5 -145.5 t203.5 -57.5t218 64.5t85 154.5q0 178 -233 178zM444 307q80 0 124 58.5t44 154.5q0 111 -46 183.5t-136 72.5q-76 0 -124 -63.5t-48 -165.5q0 -106 55 -173t131 -67zM467 1016q-57 0 -97 38t-40 101q0 182 225 244q12 -4 15 -23.5t-5 -25.5q-43 -12 -82 -46t-39 -77 q0 -14 5.5 -26.5t11.5 -21t17 -16.5t17.5 -11t16.5 -9l12 -4q29 -18 29 -47q0 -33 -22.5 -54.5t-63.5 -21.5z" />
<glyph unicode="&#x12a;" horiz-adv-x="692" d="M262 311v729q0 170 -18.5 212t-106.5 51l-51 4q-8 6 -7 26.5t11 24.5q154 -6 258 -6q100 0 254 6q10 -4 11 -24.5t-7 -26.5l-51 -4q-88 -8 -106.5 -50.5t-18.5 -212.5v-729q0 -168 18.5 -209t106.5 -51l51 -6q8 -6 7 -26.5t-11 -24.5q-154 6 -254 6q-104 0 -258 -6 q-10 4 -11 22.5t7 28.5l51 6q88 10 106.5 51t18.5 209zM567 1479h-430q-14 20 -14 58t14 58h430q16 -20 16 -58t-16 -58z" />
<glyph unicode="&#x12b;" horiz-adv-x="526" d="M201 229v359q0 63 -7.5 81.5t-48.5 45.5l-18 12q-6 6 -6 19.5t8 17.5q123 43 211 100q16 0 20 -12q-8 -143 -8 -254v-369q0 -113 12.5 -141.5t65.5 -36.5l43 -6q10 -8 8 -27.5t-12 -23.5q-92 6 -193 6q-106 0 -192 -6q-10 4 -12 23.5t8 27.5l43 6q55 8 66.5 35.5 t11.5 142.5zM477 1053h-418q-16 20 -16 61t16 64h418q14 -23 14 -64t-14 -61z" />
<glyph unicode="&#x12e;" horiz-adv-x="692" d="M262 311v729q0 170 -18.5 212t-106.5 51l-51 4q-8 6 -7 26.5t11 24.5q154 -6 258 -6q100 0 254 6q10 -4 11 -24.5t-7 -26.5l-51 -4q-88 -8 -106.5 -50.5t-18.5 -212.5v-729q0 -168 18.5 -209t106.5 -51l51 -6q8 -6 7 -26.5t-11 -24.5q-154 6 -254 6h-6q-35 -82 -35 -172 q0 -72 42 -112t102 -40q55 0 86 17q16 -10 16 -35q-70 -86 -203 -86q-80 0 -128 48t-48 126q0 102 115 252q-121 0 -199 -4q-10 4 -11 22.5t7 28.5l51 6q88 10 106.5 51t18.5 209z" />
<glyph unicode="&#x12f;" horiz-adv-x="526" d="M268 1278q45 0 74 -30.5t29 -76.5q0 -53 -31 -79.5t-78 -26.5t-75.5 29.5t-28.5 72.5q0 49 31.5 80t78.5 31zM201 229v359q0 63 -7.5 81.5t-48.5 45.5l-18 12q-6 6 -6 19.5t8 17.5q123 43 211 100q16 0 20 -12q-8 -143 -8 -254v-369q0 -113 12.5 -141.5t65.5 -36.5l43 -6 q10 -8 8 -27.5t-12 -23.5q-92 6 -193 6q-35 -82 -34 -172q0 -72 42 -112t101 -40q55 0 86 17q16 -10 16 -35q-70 -86 -202 -86q-80 0 -128 48t-48 126q0 102 114 252q-57 0 -139 -4q-10 4 -12 23.5t8 27.5l43 6q55 8 66.5 35.5t11.5 142.5z" />
<glyph unicode="&#x130;" horiz-adv-x="692" d="M262 311v729q0 170 -18.5 212t-106.5 51l-51 4q-8 6 -7 26.5t11 24.5q154 -6 258 -6q100 0 254 6q10 -4 11 -24.5t-7 -26.5l-51 -4q-88 -8 -106.5 -50.5t-18.5 -212.5v-729q0 -168 18.5 -209t106.5 -51l51 -6q8 -6 7 -26.5t-11 -24.5q-154 6 -254 6q-104 0 -258 -6 q-10 4 -11 22.5t7 28.5l51 6q88 10 106.5 51t18.5 209zM348 1448q-49 0 -78.5 28.5t-31.5 79.5q-2 47 29.5 79t80.5 32q45 0 77 -31.5t32 -72.5q0 -51 -31 -83t-78 -32z" />
<glyph unicode="&#x131;" horiz-adv-x="526" d="M201 229v359q0 63 -7.5 81.5t-48.5 45.5l-18 12q-6 6 -6 19.5t8 17.5q123 43 211 100q16 0 20 -12q-8 -143 -8 -254v-369q0 -113 12.5 -141.5t65.5 -36.5l43 -6q10 -8 8 -27.5t-12 -23.5q-92 6 -193 6q-106 0 -192 -6q-10 4 -12 23.5t8 27.5l43 6q55 8 66.5 35.5 t11.5 142.5z" />
<glyph unicode="&#x136;" horiz-adv-x="1382" d="M262 307v737q0 168 -18.5 209t-104.5 50l-51 4q-8 6 -7 26.5t11 24.5q150 -6 258 -6q104 0 238 6q10 -4 11 -24.5t-7 -26.5l-39 -4q-86 -8 -104.5 -50.5t-18.5 -208.5v-235q0 -78 26.5 -78t57.5 23q16 14 57 53l47 45l222 219q119 113 159 170q14 20 14.5 32.5 t-34.5 20.5l-55 13q-10 10 -9.5 26.5t13.5 24.5q109 -6 225 -6q111 0 203 6q10 -8 12 -25.5t-8 -25.5q-104 -8 -191 -58q-90 -51 -286 -237l-185 -174q-47 -47 -47 -63.5t39 -63.5q387 -444 512 -576q74 -74 164 -84l55 -6q10 -8 8 -27.5t-12 -23.5q-80 6 -229 6 q-109 0 -250 -6q-10 4 -13 22.5t5 28.5l47 8q49 6 49 21q0 10 -29 47q-2 2 -170 192l-163 185q-123 137 -152 157q-23 14 -47 15q-23 0 -29 -20.5t-6 -78.5v-264q0 -166 17.5 -207t101.5 -49l55 -6q8 -6 7 -26.5t-11 -24.5q-150 6 -250 6q-113 0 -237 -6q-10 4 -11.5 22.5 t7.5 28.5l41 6q80 12 96 51t16 205zM702 -119q55 0 102.5 -45t47.5 -125q0 -197 -240 -262q-12 6 -19 31.5t1 32.5q49 14 90 52t41 91q0 12 -3 24.5t-10 21.5t-14.5 16.5t-17.5 13.5l-15 9q-5 3 -14 7l-10 4q-35 18 -35 51q0 31 26.5 54.5t69.5 23.5z" />
<glyph unicode="&#x137;" horiz-adv-x="987" d="M180 229v926q0 92 -9 117.5t-54 52.5l-21 12q-8 4 -8 20.5t8 20.5q147 47 221 86q14 0 21 -12q-6 -184 -6 -254v-702q0 -20 6 -25.5t31 -5.5q61 0 139 80l84 90q72 78 72 94q0 14 -46 21l-49 6q-14 4 -14 25.5t14 25.5h47q172 0 326 16q10 -4 12 -23.5t-8 -27.5l-65 -12 q-53 -10 -129 -72q-27 -20 -187 -172q-31 -29 -14 -49q45 -59 137 -164q145 -164 193 -209q37 -33 106 -45l29 -4q10 -8 9 -27.5t-13 -23.5q-90 6 -195 6q-125 0 -213 -6q-12 6 -13 25.5t9 25.5l37 6q51 6 51 21q0 16 -35 57l-219 254q-27 29 -63 29q-27 0 -33 -10.5 t-6 -59.5v-113q0 -113 12 -141.5t66 -36.5l49 -6q10 -8 8 -27.5t-12 -23.5q-102 6 -199 6q-104 0 -197 -6q-10 4 -12 23.5t10 27.5l45 6q55 8 66.5 35.5t11.5 142.5zM467 -119q57 0 106.5 -45t49.5 -125q0 -195 -252 -262q-12 6 -16.5 31.5t3.5 32.5q51 14 92.5 52t41.5 91 q0 12 -4.5 24.5t-11.5 21.5l-13 16.5t-16.5 13.5t-16.5 9t-16 7l-8 4q-33 16 -33 51q0 31 25.5 54.5t68.5 23.5z" />
<glyph unicode="&#x139;" horiz-adv-x="1132" d="M262 307v737q0 168 -19.5 209t-113.5 50l-51 4q-8 6 -7 26.5t11 24.5q172 -6 266 -6q98 0 252 6q10 -4 11 -24.5t-7 -26.5l-49 -4q-88 -8 -106.5 -49.5t-18.5 -209.5v-712q0 -102 8 -147.5t35 -73.5q47 -47 223 -48q203 0 250 27q74 43 135 203q8 8 30 3t22 -15 q0 -20 -33 -134t-53 -153q-158 6 -510 6h-189q-94 0 -266 -6q-10 4 -11 22.5t7 28.5l61 6q86 8 104.5 49t18.5 207zM653 1593l-342 -147q-12 4 -18 18.5t-2 30.5l289 236q39 27 55 26q33 0 57 -47q27 -51 15 -84q-15 -17 -54 -33z" />
<glyph unicode="&#x13a;" horiz-adv-x="505" d="M332 1198v-969q0 -113 12 -141.5t66 -36.5l49 -6q10 -8 8 -27.5t-12 -23.5q-102 6 -199 6q-104 0 -197 -6q-10 4 -12 23.5t8 27.5l47 6q55 8 66.5 36t11.5 142v926q0 92 -9 117.5t-54 52.5l-21 12q-8 4 -8 20.5t8 20.5q147 47 221 86q14 0 21 -12q-6 -184 -6 -254z M481 1626l-323 -139q-29 10 -19 47l273 221q33 27 53 27q29 0 53 -45q25 -49 12 -80q-8 -13 -49 -31z" />
<glyph unicode="&#x13b;" horiz-adv-x="1132" d="M262 307v737q0 168 -19.5 209t-113.5 50l-51 4q-8 6 -7 26.5t11 24.5q172 -6 266 -6q98 0 252 6q10 -4 11 -24.5t-7 -26.5l-49 -4q-88 -8 -106.5 -49.5t-18.5 -209.5v-712q0 -102 8 -147.5t35 -73.5q47 -47 223 -48q203 0 250 27q74 43 135 203q8 8 30 3t22 -15 q0 -20 -33 -134t-53 -153q-158 6 -510 6h-189q-94 0 -266 -6q-10 4 -11 22.5t7 28.5l61 6q86 8 104.5 49t18.5 207zM602 -119q55 0 102.5 -45t47.5 -125q0 -193 -248 -262q-12 6 -15.5 31.5t5.5 32.5q53 16 97 53t44 90q0 14 -6 28.5t-14.5 22.5t-20.5 17.5t-21.5 13.5 t-19.5 9t-12 5q-35 18 -35 51q0 31 26.5 54.5t69.5 23.5z" />
<glyph unicode="&#x13c;" horiz-adv-x="505" d="M332 1198v-969q0 -113 12 -141.5t66 -36.5l49 -6q10 -8 8 -27.5t-12 -23.5q-102 6 -199 6q-104 0 -197 -6q-10 4 -12 23.5t8 27.5l47 6q55 8 66.5 36t11.5 142v926q0 92 -9 117.5t-54 52.5l-21 12q-8 4 -8 20.5t8 20.5q147 47 221 86q14 0 21 -12q-6 -184 -6 -254z M227 -109q57 0 108.5 -45t51.5 -125q0 -190 -256 -262q-12 6 -16 32t4 32q51 14 92 52t41 91q0 12 -4 24.5t-11.5 21.5l-13.5 16.5t-16 13.5t-17 9l-14 7l-10 4q-33 16 -33 52q0 31 25.5 54t68.5 23z" />
<glyph unicode="&#x13d;" horiz-adv-x="1132" d="M262 307v737q0 168 -19.5 209t-113.5 50l-51 4q-8 6 -7 26.5t11 24.5q172 -6 266 -6q98 0 252 6q10 -4 11 -24.5t-7 -26.5l-49 -4q-88 -8 -106.5 -49.5t-18.5 -209.5v-712q0 -102 8 -147.5t35 -73.5q47 -47 223 -48q195 0 252 31q70 37 133 199q8 8 30 3t22 -15 q0 -20 -33 -134t-53 -153q-158 6 -510 6h-189q-94 0 -266 -6q-10 4 -11 22.5t7 28.5l61 6q86 8 104.5 49t18.5 207zM817 1393q66 0 110 -49.5t44 -116.5q0 -193 -230 -250q-27 20 -12 53q49 25 85 65t36 81t-24.5 65.5t-47.5 26.5q-51 4 -51 51q0 29 20.5 51.5t69.5 22.5z " />
<glyph unicode="&#x13e;" horiz-adv-x="505" d="M332 1198v-969q0 -113 12 -141.5t66 -36.5l49 -6q10 -8 8 -27.5t-12 -23.5q-102 6 -199 6q-104 0 -197 -6q-10 4 -12 23.5t8 27.5l47 6q55 8 66.5 36t11.5 142v926q0 92 -9 117.5t-54 52.5l-21 12q-8 4 -8 20.5t8 20.5q147 47 221 86q14 0 21 -12q-6 -184 -6 -254z M483 1464q51 0 84 -49t33 -119q0 -86 -51 -147.5t-123 -91.5q-18 6 -23.5 22.5t7.5 24.5q109 76 108 143q0 74 -69 88q-47 12 -48 58q0 27 19.5 49t62.5 22z" />
<glyph unicode="&#x141;" horiz-adv-x="1144" d="M274 307v275l-217 -148q-41 10 -32 66l249 170v374q0 168 -19 209t-114 50l-51 4q-8 6 -7 26.5t11 24.5q172 -6 266 -6q98 0 252 6q10 -4 11.5 -24.5t-7.5 -26.5l-49 -4q-88 -8 -106.5 -49.5t-18.5 -209.5v-258l281 187q18 -8 27.5 -26.5t3.5 -39.5l-312 -209v-366 q0 -102 8.5 -147.5t34.5 -73.5q47 -47 224 -48q203 0 249 27q74 43 136 203q8 8 29.5 3t21.5 -15q0 -20 -33 -134t-53 -153q-158 6 -510 6h-189q-94 0 -266 -6q-10 4 -11 22.5t7 28.5l62 6q86 8 104 49t18 207z" />
<glyph unicode="&#x142;" horiz-adv-x="534" d="M584 846l-236 -207v-410q0 -113 12.5 -141.5t65.5 -36.5l49 -6q10 -8 8 -27.5t-12 -23.5q-102 6 -199 6q-104 0 -196 -6q-10 4 -12.5 23.5t8.5 27.5l47 6q55 8 66.5 36t11.5 142v277l-170 -146q-18 4 -27.5 21.5t-5.5 38.5l203 176v559q0 92 -9.5 117.5t-54.5 52.5 l-20 12q-8 4 -8.5 20.5t8.5 20.5q147 47 221 86q14 0 20 -12q-6 -184 -6 -254v-469l199 174q47 -12 37 -57z" />
<glyph unicode="&#x143;" horiz-adv-x="1603" d="M1364 838v-490q0 -305 6 -358q-8 -23 -39 -23q-39 55 -262 309l-475 541l-113 132q-100 118 -125 145h-4q-10 -31 -10 -133v-447q0 -358 37 -424q18 -33 104 -39l64 -6q8 -12 7 -27.5t-11 -23.5q-137 6 -240 6q-106 0 -213 -6q-10 8 -12 25.5t8 25.5l55 6q76 10 90 41 q27 68 27 422v592q0 98 -45 147q-39 39 -127 50l-35 4q-10 8 -9 26.5t13 24.5q86 -6 232 -6q53 0 94 6q41 -102 350 -451l199 -223q270 -301 338 -371h4q8 10 8 86v439q0 358 -41 424q-18 27 -127 41l-35 4q-10 8 -9 27.5t13 23.5q141 -6 242 -6q106 0 211 6q12 -8 13 -25.5 t-9 -25.5l-29 -4q-100 -16 -114 -43q-31 -66 -31 -422zM1061 1593l-342 -147q-12 4 -18.5 18.5t-2.5 30.5l289 236q41 27 55 26q35 0 58 -47q29 -53 12 -84q-10 -17 -51 -33z" />
<glyph unicode="&#x144;" horiz-adv-x="1075" d="M201 229v359q0 63 -7.5 81.5t-48.5 45.5l-18 12q-6 6 -6 19.5t8 17.5q41 14 108.5 47t96.5 53q16 0 22 -14q-4 -47 -4 -96q0 -23 23 -23q168 104 287 105q121 0 180 -72t59 -182v-353q0 -113 12.5 -141.5t65.5 -36.5l45 -6q10 -8 8 -27.5t-12 -23.5q-92 6 -193 6 q-106 0 -190 -6q-10 4 -12 23.5t8 27.5l39 6q55 8 66.5 36t11.5 142v306q0 203 -193 202q-121 0 -174 -71q-31 -41 -31 -123v-314q0 -113 11.5 -141.5t66.5 -36.5l37 -6q10 -8 8 -27.5t-12 -23.5q-82 6 -187 6q-106 0 -192 -6q-10 4 -12 23.5t8 27.5l43 6q55 8 66.5 35.5 t11.5 142.5zM784 1210l-256 -266q-31 -4 -34 23l176 333q27 49 49 50q27 0 63 -31q35 -29 35 -53q0 -23 -33 -56z" />
<glyph unicode="&#x145;" horiz-adv-x="1603" d="M1364 838v-490q0 -305 6 -358q-8 -23 -39 -23q-39 55 -262 309l-475 541l-113 132q-100 118 -125 145h-4q-10 -31 -10 -133v-447q0 -358 37 -424q18 -33 104 -39l64 -6q8 -12 7 -27.5t-11 -23.5q-137 6 -240 6q-106 0 -213 -6q-10 8 -12 25.5t8 25.5l55 6q76 10 90 41 q27 68 27 422v592q0 98 -45 147q-39 39 -127 50l-35 4q-10 8 -9 26.5t13 24.5q86 -6 232 -6q53 0 94 6q41 -102 350 -451l199 -223q270 -301 338 -371h4q8 10 8 86v439q0 358 -41 424q-18 27 -127 41l-35 4q-10 8 -9 27.5t13 23.5q141 -6 242 -6q106 0 211 6q12 -8 13 -25.5 t-9 -25.5l-29 -4q-100 -16 -114 -43q-31 -66 -31 -422zM788 -119q55 0 104.5 -46t49.5 -128q0 -193 -244 -258q-12 6 -19 31.5t1 32.5q53 16 97 53t44 90q0 14 -6 28.5t-14 22.5t-20.5 17.5t-21.5 13.5l-19.5 9t-12.5 5q-35 18 -35 51q0 31 26.5 54.5t69.5 23.5z" />
<glyph unicode="&#x146;" horiz-adv-x="1075" d="M201 229v359q0 63 -7.5 81.5t-48.5 45.5l-18 12q-6 6 -6 19.5t8 17.5q41 14 108.5 47t96.5 53q16 0 22 -14q-4 -47 -4 -96q0 -23 23 -23q168 104 287 105q121 0 180 -72t59 -182v-353q0 -113 12.5 -141.5t65.5 -36.5l45 -6q10 -8 8 -27.5t-12 -23.5q-92 6 -193 6 q-106 0 -190 -6q-10 4 -12 23.5t8 27.5l39 6q55 8 66.5 36t11.5 142v306q0 203 -193 202q-121 0 -174 -71q-31 -41 -31 -123v-314q0 -113 11.5 -141.5t66.5 -36.5l37 -6q10 -8 8 -27.5t-12 -23.5q-82 6 -187 6q-106 0 -192 -6q-10 4 -12 23.5t8 27.5l43 6q55 8 66.5 35.5 t11.5 142.5zM514 -119q51 0 94 -45t43 -125q0 -193 -225 -262q-12 6 -14 31.5t4 32.5q47 16 88 53t41 90q0 18 -7.5 33.5t-19.5 26t-22.5 17.5t-24.5 13l-12 6q-31 16 -31 51q0 31 23.5 54.5t62.5 23.5z" />
<glyph unicode="&#x147;" horiz-adv-x="1603" d="M1364 838v-490q0 -305 6 -358q-8 -23 -39 -23q-39 55 -262 309l-475 541l-113 132q-100 118 -125 145h-4q-10 -31 -10 -133v-447q0 -358 37 -424q18 -33 104 -39l64 -6q8 -12 7 -27.5t-11 -23.5q-137 6 -240 6q-106 0 -213 -6q-10 8 -12 25.5t8 25.5l55 6q76 10 90 41 q27 68 27 422v592q0 98 -45 147q-39 39 -127 50l-35 4q-10 8 -9 26.5t13 24.5q86 -6 232 -6q53 0 94 6q41 -102 350 -451l199 -223q270 -301 338 -371h4q8 10 8 86v439q0 358 -41 424q-18 27 -127 41l-35 4q-10 8 -9 27.5t13 23.5q141 -6 242 -6q106 0 211 6q12 -8 13 -25.5 t-9 -25.5l-29 -4q-100 -16 -114 -43q-31 -66 -31 -422zM762 1460l-254 232q0 14 9 27.5t22 13.5l237 -121q27 -14 58 0l239 121q23 -4 23 -41l-250 -232q-41 -37 -84 0z" />
<glyph unicode="&#x148;" horiz-adv-x="1075" d="M201 229v359q0 63 -7.5 81.5t-48.5 45.5l-18 12q-6 6 -6 19.5t8 17.5q41 14 108.5 47t96.5 53q16 0 22 -14q-4 -47 -4 -96q0 -23 23 -23q168 104 287 105q121 0 180 -72t59 -182v-353q0 -113 12.5 -141.5t65.5 -36.5l45 -6q10 -8 8 -27.5t-12 -23.5q-92 6 -193 6 q-106 0 -190 -6q-10 4 -12 23.5t8 27.5l39 6q55 8 66.5 36t11.5 142v306q0 203 -193 202q-121 0 -174 -71q-31 -41 -31 -123v-314q0 -113 11.5 -141.5t66.5 -36.5l37 -6q10 -8 8 -27.5t-12 -23.5q-82 6 -187 6q-106 0 -192 -6q-10 4 -12 23.5t8 27.5l43 6q55 8 66.5 35.5 t11.5 142.5zM365 1346l153 -191q18 -23 25.5 -22.5t29.5 22.5l154 191q10 2 22.5 -5.5t14.5 -21.5l-184 -346q-16 -29 -34 -29t-34 29l-188 346q2 27 41 27z" />
<glyph unicode="&#x14c;" horiz-adv-x="1628" d="M823 -33q-330 0 -529.5 203t-199.5 492q0 309 207 515.5t522 206.5q336 0 523.5 -205.5t187.5 -496.5q0 -307 -206 -511t-505 -204zM850 31q201 0 340 151.5t139 435.5q0 133 -30.5 254t-92 223.5t-169 164t-249.5 61.5q-86 0 -166.5 -30.5t-156.5 -96.5t-121 -186.5 t-45 -280.5q0 -94 18.5 -188.5t60.5 -187.5t103.5 -162.5t156.5 -113.5t212 -44zM1061 1509h-473q-16 20 -16.5 58.5t16.5 58.5h473q18 -20 18 -58.5t-18 -58.5z" />
<glyph unicode="&#x14d;" horiz-adv-x="995" d="M508 836q176 0 296 -119t120 -305q0 -193 -121 -317t-311 -124q-180 0 -300 117t-120 305q0 190 126 316.5t310 126.5zM748 379q0 154 -66 274.5t-199 120.5q-104 0 -169.5 -94t-65.5 -260q0 -154 68.5 -270.5t195.5 -116.5q123 0 179.5 103.5t56.5 242.5zM723 1032h-438 q-16 20 -16.5 61.5t16.5 63.5h438q14 -23 14 -64t-14 -61z" />
<glyph unicode="&#x150;" horiz-adv-x="1628" d="M823 -33q-330 0 -529.5 203t-199.5 492q0 309 207 515.5t522 206.5q336 0 523.5 -205.5t187.5 -496.5q0 -307 -206 -511t-505 -204zM850 31q201 0 340 151.5t139 435.5q0 133 -30.5 254t-92 223.5t-169 164t-249.5 61.5q-86 0 -166.5 -30.5t-156.5 -96.5t-121 -186.5 t-45 -280.5q0 -94 18.5 -188.5t60.5 -187.5t103.5 -162.5t156.5 -113.5t212 -44zM1090 1763q20 0 59 -28q27 -18 35 -40t-4 -32l-47 -47l-179 -170q-47 10 -39 39l115 233q25 45 60 45zM766 1763q23 0 61 -30q41 -35 27 -66q-10 -20 -45 -51l-178 -170q-47 10 -39 39 l115 233q24 45 59 45z" />
<glyph unicode="&#x151;" horiz-adv-x="995" d="M508 836q176 0 296 -119t120 -305q0 -193 -121 -317t-311 -124q-180 0 -300 117t-120 305q0 190 126 316.5t310 126.5zM748 379q0 154 -66 274.5t-199 120.5q-104 0 -169.5 -94t-65.5 -260q0 -154 68.5 -270.5t195.5 -116.5q123 0 179.5 103.5t56.5 242.5zM528 1217 l-188 -275q-12 -2 -23.5 4t-11.5 19l113 333q20 43 35 45q16 4 65 -22q31 -20 33 -41q4 -26 -23 -63zM799 1217l-189 -275q-12 -2 -24.5 4t-10.5 19l113 333q18 41 35 48q16 2 65 -25q29 -12 33 -39q5 -24 -22 -65z" />
<glyph unicode="&#x152;" horiz-adv-x="2072" d="M1268 1352h346q250 0 276 6q8 -29 31 -271q-6 -10 -23.5 -12t-27.5 6q-37 117 -68 150q-33 35 -88 47q-43 10 -198 10h-148q-43 0 -51 -11t-8 -71v-411q0 -41 9 -48.5t56 -7.5h119q133 0 174 11q35 12 49 73l19 82q8 10 26.5 9t24.5 -11q0 -20 -4 -92t-4 -113t4 -109.5 t4 -88.5q-6 -10 -24.5 -11.5t-26.5 9.5l-21 82q-14 63 -63 77q-33 10 -158 11h-119q-45 0 -55 -8.5t-10 -47.5v-288q0 -172 39 -213q43 -47 247 -48q203 0 260 31q63 33 146 199q10 8 27.5 4t23.5 -18q-31 -156 -92 -285q-276 6 -549 6h-125q-74 0 -206 -6t-197 -6 q-356 0 -572.5 186t-216.5 492q0 303 222.5 497.5t584.5 194.5q61 0 184.5 -3t182.5 -3zM1141 252v870q0 127 -54 148q-74 25 -196 24q-160 0 -277.5 -49t-184.5 -137t-98.5 -195.5t-31.5 -238.5q0 -72 13.5 -146.5t53.5 -163t103 -156t176 -112.5t256 -45q111 0 178 31 q37 20 49.5 57t12.5 113z" />
<glyph unicode="&#x153;" horiz-adv-x="1492" d="M248 418q0 -147 69.5 -266t190.5 -119q125 0 182.5 103.5t57.5 242.5q0 94 -24 179t-87.5 150.5t-155.5 65.5q-102 0 -167.5 -99t-65.5 -257zM1284 524h-338q-35 0 -45 -15t-10 -63q0 -147 90 -255.5t246 -108.5q72 0 111.5 21.5t82.5 78.5q12 4 24.5 -3t12.5 -17 q-82 -190 -319 -191q-98 0 -184.5 45t-133.5 123q-53 -82 -142 -125t-190 -43q-182 0 -299.5 116t-117.5 306q0 193 125 318t311 125q100 0 185 -45.5t136 -131.5q53 82 141.5 129.5t182.5 47.5q137 0 220 -73t83 -171q0 -35 -6 -47q-10 -21 -166 -21zM977 586h129 q164 0 182 18q12 12 12 41q0 47 -38.5 88t-118.5 41q-84 0 -153.5 -55t-69.5 -117q0 -16 57 -16z" />
<glyph unicode="&#x154;" horiz-adv-x="1320" d="M262 307v735q0 150 -14.5 191t-75.5 49l-66 8q-10 8 -10 26.5t13 24.5q184 16 456 17q229 0 342 -62q170 -88 170 -286q0 -131 -78.5 -217t-177.5 -125q-12 -14 10 -50q139 -223 227.5 -342.5t184.5 -201.5q57 -51 141 -58q8 -4 9.5 -13t-7.5 -15q-31 -10 -90 -11 q-135 0 -226 53.5t-198 205.5q-27 39 -98 151l-102 158q-25 35 -55.5 50t-90.5 15q-70 0 -83 -6t-13 -39v-258q0 -166 17.5 -205t105.5 -51l43 -6q8 -8 7 -27.5t-11 -23.5q-137 6 -244 6q-111 0 -256 -6q-10 4 -11 22.5t7 28.5l51 6q86 10 104.5 50t18.5 206zM430 1229v-479 q0 -59 6 -68q10 -10 142 -10q141 0 210 53q102 80 103 254q0 133 -84 224t-244 91q-92 0 -112.5 -10t-20.5 -55zM885 1593l-342 -147q-12 4 -18.5 18.5t-2.5 30.5l289 236q41 27 55 26q35 0 58 -47q27 -51 14 -84q-14 -17 -53 -33z" />
<glyph unicode="&#x155;" horiz-adv-x="679" d="M201 229v359q0 63 -7.5 81.5t-48.5 45.5l-18 12q-6 6 -6 19.5t8 17.5q94 33 207 100q16 -4 16 -14v-119q0 -14 6 -18q147 123 226 123q39 0 65.5 -22.5t26.5 -59.5q0 -45 -29 -70t-59 -25q-20 0 -45 15q-49 33 -90 33q-43 0 -74 -41q-27 -37 -27 -158v-279 q0 -115 12.5 -144.5t69.5 -33.5l74 -6q10 -8 8 -27.5t-12 -23.5q-143 6 -228 6q-109 0 -188 -6q-10 4 -12 23.5t8 27.5l39 6q55 8 66.5 35.5t11.5 142.5zM584 1221l-256 -267q-31 -4 -35 23l176 334q27 49 49 49q27 0 64 -31q35 -29 34 -53q1 -22 -32 -55z" />
<glyph unicode="&#x156;" horiz-adv-x="1320" d="M262 307v735q0 150 -14.5 191t-75.5 49l-66 8q-10 8 -10 26.5t13 24.5q184 16 456 17q229 0 342 -62q170 -88 170 -286q0 -131 -78.5 -217t-177.5 -125q-12 -14 10 -50q139 -223 227.5 -342.5t184.5 -201.5q57 -51 141 -58q8 -4 9.5 -13t-7.5 -15q-31 -10 -90 -11 q-135 0 -226 53.5t-198 205.5q-27 39 -98 151l-102 158q-25 35 -55.5 50t-90.5 15q-70 0 -83 -6t-13 -39v-258q0 -166 17.5 -205t105.5 -51l43 -6q8 -8 7 -27.5t-11 -23.5q-137 6 -244 6q-111 0 -256 -6q-10 4 -11 22.5t7 28.5l51 6q86 10 104.5 50t18.5 206zM430 1229v-479 q0 -59 6 -68q10 -10 142 -10q141 0 210 53q102 80 103 254q0 133 -84 224t-244 91q-92 0 -112.5 -10t-20.5 -55zM688 -78q55 0 103.5 -45t48.5 -125q0 -193 -248 -262q-12 6 -16.5 31.5t4.5 32.5q53 16 98 53t45 90q0 14 -6 28.5t-14.5 22.5t-21.5 17.5t-21.5 13.5l-19.5 9 t-13 5q-33 16 -33 51q0 31 25.5 54.5t68.5 23.5z" />
<glyph unicode="&#x157;" horiz-adv-x="679" d="M201 229v359q0 63 -7.5 81.5t-48.5 45.5l-18 12q-6 6 -6 19.5t8 17.5q94 33 207 100q16 -4 16 -14v-119q0 -14 6 -18q147 123 226 123q39 0 65.5 -22.5t26.5 -59.5q0 -45 -29 -70t-59 -25q-20 0 -45 15q-49 33 -90 33q-43 0 -74 -41q-27 -37 -27 -158v-279 q0 -115 12.5 -144.5t69.5 -33.5l74 -6q10 -8 8 -27.5t-12 -23.5q-143 6 -228 6q-109 0 -188 -6q-10 4 -12 23.5t8 27.5l39 6q55 8 66.5 35.5t11.5 142.5zM264 -119q51 0 98.5 -45t47.5 -125q0 -195 -234 -262q-12 6 -14 31.5t4 32.5q45 14 83 52t38 91q0 14 -5.5 28.5 t-11.5 22.5t-17 17.5t-17.5 13.5t-16.5 8l-10 6q-31 16 -31 51q0 31 23.5 54.5t62.5 23.5z" />
<glyph unicode="&#x158;" horiz-adv-x="1320" d="M262 307v735q0 150 -14.5 191t-75.5 49l-66 8q-10 8 -10 26.5t13 24.5q184 16 456 17q229 0 342 -62q170 -88 170 -286q0 -131 -78.5 -217t-177.5 -125q-12 -14 10 -50q139 -223 227.5 -342.5t184.5 -201.5q57 -51 141 -58q8 -4 9.5 -13t-7.5 -15q-31 -10 -90 -11 q-135 0 -226 53.5t-198 205.5q-27 39 -98 151l-102 158q-25 35 -55.5 50t-90.5 15q-70 0 -83 -6t-13 -39v-258q0 -166 17.5 -205t105.5 -51l43 -6q8 -8 7 -27.5t-11 -23.5q-137 6 -244 6q-111 0 -256 -6q-10 4 -11 22.5t7 28.5l51 6q86 10 104.5 50t18.5 206zM430 1229v-479 q0 -59 6 -68q10 -10 142 -10q141 0 210 53q102 80 103 254q0 133 -84 224t-244 91q-92 0 -112.5 -10t-20.5 -55zM549 1460l-254 232q0 14 9 27.5t22 13.5l233 -117q20 -12 31.5 -12t34.5 12l235 117q23 -4 23 -41l-250 -232q-41 -37 -84 0z" />
<glyph unicode="&#x159;" horiz-adv-x="679" d="M201 229v359q0 63 -7.5 81.5t-48.5 45.5l-18 12q-6 6 -6 19.5t8 17.5q94 33 207 100q16 -4 16 -14v-119q0 -14 6 -18q147 123 226 123q39 0 65.5 -22.5t26.5 -59.5q0 -45 -29 -70t-59 -25q-20 0 -45 15q-49 33 -90 33q-43 0 -74 -41q-27 -37 -27 -158v-279 q0 -115 12.5 -144.5t69.5 -33.5l74 -6q10 -8 8 -27.5t-12 -23.5q-143 6 -228 6q-109 0 -188 -6q-10 4 -12 23.5t8 27.5l39 6q55 8 66.5 35.5t11.5 142.5zM190 1376l154 -190q27 -35 55 0l154 190q10 2 22.5 -5t14.5 -21l-184 -363q-33 -66 -68 0l-188 363q1 26 40 26z" />
<glyph unicode="&#x15a;" horiz-adv-x="1001" d="M895 346q0 -170 -119 -274.5t-317 -104.5q-188 0 -320 76q-18 33 -34.5 123t-20.5 164q8 10 25.5 12t23.5 -6q90 -305 352 -305q123 0 189.5 68.5t66.5 166.5q0 84 -33.5 152.5t-134.5 134.5l-194 127q-221 145 -221 352q0 152 111.5 252t305.5 100q92 0 191 -26 q41 -12 72 -12q37 -98 36 -250q-6 -10 -24.5 -12.5t-26.5 6.5q-12 45 -28.5 78.5t-46 71.5t-82 59.5t-121.5 21.5q-135 0 -189.5 -68.5t-54.5 -158.5q0 -143 174 -252l164 -103q256 -157 256 -393zM793 1593l-342 -147q-12 4 -18.5 18.5t-2.5 30.5l289 236q39 27 55 26 q33 0 57 -47q27 -51 15 -84q-14 -17 -53 -33z" />
<glyph unicode="&#x15b;" horiz-adv-x="661" d="M381 836q139 0 180 -37q33 -80 33 -166q-6 -10 -23.5 -12.5t-25.5 6.5q-57 150 -180 149q-59 0 -95.5 -34.5t-36.5 -90.5q0 -31 12.5 -55.5t42 -48t46.5 -32.5l57 -34q100 -57 154.5 -117.5t54.5 -158.5q0 -111 -86 -172.5t-209 -61.5q-141 0 -219 62q-33 78 -25 207 q8 10 23.5 10t24.5 -8q66 -211 217 -211q59 0 98 33.5t39 97.5q0 43 -26.5 82t-54.5 59.5t-77 46.5q-100 57 -151.5 115.5t-51.5 136.5q0 109 79 171.5t200 62.5zM582 1206l-256 -266q-31 -4 -35 23l176 333q27 49 49 50q27 0 64 -31q35 -29 34 -53q1 -23 -32 -56z" />
<glyph unicode="&#x15e;" horiz-adv-x="1001" d="M362 -209l109 178q-4 -2 -12 -2q-188 0 -320 76q-18 33 -34.5 123t-20.5 164q8 10 25.5 12t23.5 -6q90 -305 352 -305q123 0 189.5 68.5t66.5 166.5q0 84 -33.5 152.5t-134.5 134.5l-194 127q-221 145 -221 352q0 152 111.5 252t305.5 100q92 0 191 -26q41 -12 72 -12 q37 -98 36 -250q-6 -10 -24.5 -12.5t-26.5 6.5q-12 45 -28.5 78.5t-46 71.5t-82 59.5t-121.5 21.5q-135 0 -189.5 -68.5t-54.5 -158.5q0 -143 174 -252l164 -103q256 -158 256 -393q0 -150 -94 -250t-256 -121l-60 -94q-14 -25 11 -39q94 -68 94 -141q0 -70 -60.5 -119 t-136.5 -49q-53 0 -81.5 18.5t-28.5 49.5q0 16 13 32.5t33.5 16.5t54.5 -28t46 -28q51 0 51 60q0 37 -33.5 71.5t-85.5 55.5v10z" />
<glyph unicode="&#xf6c1;" horiz-adv-x="1001" d="M362 -209l109 178q-4 -2 -12 -2q-188 0 -320 76q-18 33 -34.5 123t-20.5 164q8 10 25.5 12t23.5 -6q90 -305 352 -305q123 0 189.5 68.5t66.5 166.5q0 84 -33.5 152.5t-134.5 134.5l-194 127q-221 145 -221 352q0 152 111.5 252t305.5 100q92 0 191 -26q41 -12 72 -12 q37 -98 36 -250q-6 -10 -24.5 -12.5t-26.5 6.5q-12 45 -28.5 78.5t-46 71.5t-82 59.5t-121.5 21.5q-135 0 -189.5 -68.5t-54.5 -158.5q0 -143 174 -252l164 -103q256 -158 256 -393q0 -150 -94 -250t-256 -121l-60 -94q-14 -25 11 -39q94 -68 94 -141q0 -70 -60.5 -119 t-136.5 -49q-53 0 -81.5 18.5t-28.5 49.5q0 16 13 32.5t33.5 16.5t54.5 -28t46 -28q51 0 51 60q0 37 -33.5 71.5t-85.5 55.5v10z" />
<glyph unicode="&#x15f;" horiz-adv-x="661" d="M217 -178l94 149h-6q-141 0 -219 62q-33 78 -25 207q8 10 23.5 10t24.5 -8q66 -211 217 -211q59 0 98 33.5t39 97.5q0 43 -26.5 82t-54.5 59.5t-77 46.5q-100 57 -151.5 115.5t-51.5 136.5q0 109 79 171.5t200 62.5q139 0 180 -37q33 -80 33 -166q-6 -10 -23.5 -12.5 t-25.5 6.5q-57 150 -180 149q-59 0 -95.5 -34.5t-36.5 -90.5q0 -31 12.5 -55.5t42 -48t46.5 -32.5l57 -34q100 -57 154.5 -117.5t54.5 -158.5q0 -92 -62.5 -150.5t-158.5 -74.5l-45 -72q-14 -25 16 -43q84 -55 84 -129q0 -68 -57.5 -114t-130.5 -46q-104 0 -105 64 q0 16 12.5 31.5t32.5 15.5q18 0 51 -27t44 -27q49 0 49 58q0 35 -32 68.5t-81 52.5v10z" />
<glyph unicode="&#xf6c2;" horiz-adv-x="661" d="M217 -178l94 149h-6q-141 0 -219 62q-33 78 -25 207q8 10 23.5 10t24.5 -8q66 -211 217 -211q59 0 98 33.5t39 97.5q0 43 -26.5 82t-54.5 59.5t-77 46.5q-100 57 -151.5 115.5t-51.5 136.5q0 109 79 171.5t200 62.5q139 0 180 -37q33 -80 33 -166q-6 -10 -23.5 -12.5 t-25.5 6.5q-57 150 -180 149q-59 0 -95.5 -34.5t-36.5 -90.5q0 -31 12.5 -55.5t42 -48t46.5 -32.5l57 -34q100 -57 154.5 -117.5t54.5 -158.5q0 -92 -62.5 -150.5t-158.5 -74.5l-45 -72q-14 -25 16 -43q84 -55 84 -129q0 -68 -57.5 -114t-130.5 -46q-104 0 -105 64 q0 16 12.5 31.5t32.5 15.5q18 0 51 -27t44 -27q49 0 49 58q0 35 -32 68.5t-81 52.5v10z" />
<glyph unicode="&#x160;" horiz-adv-x="1001" d="M895 346q0 -170 -119 -274.5t-317 -104.5q-188 0 -320 76q-18 33 -34.5 123t-20.5 164q8 10 25.5 12t23.5 -6q90 -305 352 -305q123 0 189.5 68.5t66.5 166.5q0 84 -33.5 152.5t-134.5 134.5l-194 127q-221 145 -221 352q0 152 111.5 252t305.5 100q92 0 191 -26 q41 -12 72 -12q37 -98 36 -250q-6 -10 -24.5 -12.5t-26.5 6.5q-12 45 -28.5 78.5t-46 71.5t-82 59.5t-121.5 21.5q-135 0 -189.5 -68.5t-54.5 -158.5q0 -143 174 -252l164 -103q256 -157 256 -393zM487 1477l-251 231q0 14 8 27.5t20 13.5l234 -119q23 -10 32 -11t33 11 l238 119q23 -4 22 -41l-250 -231q-41 -39 -86 0z" />
<glyph unicode="&#x161;" horiz-adv-x="661" d="M381 836q139 0 180 -37q33 -80 33 -166q-6 -10 -23.5 -12.5t-25.5 6.5q-57 150 -180 149q-59 0 -95.5 -34.5t-36.5 -90.5q0 -31 12.5 -55.5t42 -48t46.5 -32.5l57 -34q100 -57 154.5 -117.5t54.5 -158.5q0 -111 -86 -172.5t-209 -61.5q-141 0 -219 62q-33 78 -25 207 q8 10 23.5 10t24.5 -8q66 -211 217 -211q59 0 98 33.5t39 97.5q0 43 -26.5 82t-54.5 59.5t-77 46.5q-100 57 -151.5 115.5t-51.5 136.5q0 109 79 171.5t200 62.5zM180 1368l154 -190q27 -35 55 0l154 190q10 2 22.5 -5t14.5 -22l-185 -362q-33 -66 -67 0l-189 362 q2 27 41 27z" />
<glyph unicode="&#x162;" horiz-adv-x="1351" d="M754 1219v-912q0 -166 18.5 -207t104.5 -49l65 -6q8 -6 7 -26.5t-11 -24.5q-176 6 -268 6q-88 0 -285 -6q-10 4 -11 23.5t11 27.5l74 6q86 8 106.5 50t20.5 206v916q0 47 -8.5 56t-53.5 9h-112q-197 0 -252 -51q-51 -45 -92 -141q-12 -8 -30 -3t-24 17q47 135 78 305 q4 4 19.5 4t19.5 -4q4 -25 16.5 -38t42 -18t48 -6t67.5 -1h830q84 0 110.5 9t48.5 48q8 4 21.5 2t15.5 -8q-16 -61 -25.5 -162.5t-5.5 -148.5q-6 -12 -25.5 -13.5t-27.5 8.5q-14 123 -51 150q-70 51 -238 51h-145q-45 0 -52 -9t-7 -60zM649 -119q55 0 102.5 -45t47.5 -125 q0 -193 -248 -262q-12 6 -15.5 31.5t5.5 32.5q53 16 97 53t44 90q0 14 -6 28.5t-14.5 22.5t-20.5 17.5t-21.5 13.5t-19.5 9t-12 5q-35 18 -35 51q0 31 26.5 54.5t69.5 23.5z" />
<glyph unicode="&#x21a;" horiz-adv-x="1351" d="M754 1219v-912q0 -166 18.5 -207t104.5 -49l65 -6q8 -6 7 -26.5t-11 -24.5q-176 6 -268 6q-88 0 -285 -6q-10 4 -11 23.5t11 27.5l74 6q86 8 106.5 50t20.5 206v916q0 47 -8.5 56t-53.5 9h-112q-197 0 -252 -51q-51 -45 -92 -141q-12 -8 -30 -3t-24 17q47 135 78 305 q4 4 19.5 4t19.5 -4q4 -25 16.5 -38t42 -18t48 -6t67.5 -1h830q84 0 110.5 9t48.5 48q8 4 21.5 2t15.5 -8q-16 -61 -25.5 -162.5t-5.5 -148.5q-6 -12 -25.5 -13.5t-27.5 8.5q-14 123 -51 150q-70 51 -238 51h-145q-45 0 -52 -9t-7 -60zM649 -119q55 0 102.5 -45t47.5 -125 q0 -193 -248 -262q-12 6 -15.5 31.5t5.5 32.5q53 16 97 53t44 90q0 14 -6 28.5t-14.5 22.5t-20.5 17.5t-21.5 13.5t-19.5 9t-12 5q-35 18 -35 51q0 31 26.5 54.5t69.5 23.5z" />
<glyph unicode="&#x163;" horiz-adv-x="628" d="M600 721h-231q-25 0 -31 -8t-6 -41v-383q0 -109 28.5 -168.5t120.5 -59.5q29 0 56 11q10 4 29.5 16t21.5 12q12 0 18 -12t2 -22q-80 -94 -215 -95q-123 0 -168 58.5t-45 163.5v469q0 41 -6 50t-37 9h-57q-8 6 -10 20.5t4 22.5q92 29 131 63q47 43 86 121q6 4 21.5 2 t21.5 -12v-92q0 -27 5 -33t32 -6h227q18 -14 17 -45t-15 -41zM332 -119q53 0 99 -47t46 -133q0 -94 -66.5 -157.5t-166.5 -94.5q-12 6 -14.5 31.5t3.5 32.5q45 14 83 52t38 91q0 14 -5 28.5t-11 22.5t-17.5 17.5t-17.5 13.5t-16 8l-11 6q-31 16 -30 51q0 31 23.5 54.5 t62.5 23.5z" />
<glyph unicode="&#x21b;" horiz-adv-x="628" d="M600 721h-231q-25 0 -31 -8t-6 -41v-383q0 -109 28.5 -168.5t120.5 -59.5q29 0 56 11q10 4 29.5 16t21.5 12q12 0 18 -12t2 -22q-80 -94 -215 -95q-123 0 -168 58.5t-45 163.5v469q0 41 -6 50t-37 9h-57q-8 6 -10 20.5t4 22.5q92 29 131 63q47 43 86 121q6 4 21.5 2 t21.5 -12v-92q0 -27 5 -33t32 -6h227q18 -14 17 -45t-15 -41zM332 -119q53 0 99 -47t46 -133q0 -94 -66.5 -157.5t-166.5 -94.5q-12 6 -14.5 31.5t3.5 32.5q45 14 83 52t38 91q0 14 -5 28.5t-11 22.5t-17.5 17.5t-17.5 13.5t-16 8l-11 6q-31 16 -30 51q0 31 23.5 54.5 t62.5 23.5z" />
<glyph unicode="&#x164;" horiz-adv-x="1351" d="M754 1219v-912q0 -166 18.5 -207t104.5 -49l65 -6q8 -6 7 -26.5t-11 -24.5q-176 6 -268 6q-88 0 -285 -6q-10 4 -11 23.5t11 27.5l74 6q86 8 106.5 50t20.5 206v916q0 47 -8.5 56t-53.5 9h-112q-197 0 -252 -51q-51 -45 -92 -141q-12 -8 -30 -3t-24 17q47 135 78 305 q4 4 19.5 4t19.5 -4q4 -25 16.5 -38t42 -18t48 -6t67.5 -1h830q84 0 110.5 9t48.5 48q8 4 21.5 2t15.5 -8q-16 -61 -25.5 -162.5t-5.5 -148.5q-6 -12 -25.5 -13.5t-27.5 8.5q-14 123 -51 150q-70 51 -238 51h-145q-45 0 -52 -9t-7 -60zM637 1460l-252 232q0 14 8 27.5 t21 13.5l231 -119q23 -10 33 -9t35 11l237 117q23 -4 23 -41l-250 -232q-41 -39 -86 0z" />
<glyph unicode="&#x165;" horiz-adv-x="628" d="M600 721h-231q-25 0 -31 -8t-6 -41v-383q0 -109 28.5 -168.5t120.5 -59.5q29 0 56 11q10 4 29.5 16t21.5 12q12 0 18 -12t2 -22q-80 -94 -215 -95q-123 0 -168 58.5t-45 163.5v469q0 41 -6 50t-37 9h-57q-8 6 -10 20.5t4 22.5q92 29 131 63q47 43 86 121q6 4 21.5 2 t21.5 -12v-92q0 -27 5 -33t32 -6h227q18 -14 17 -45t-15 -41zM504 1434q51 0 84 -49.5t33 -118.5q0 -86 -51.5 -147.5t-123.5 -92.5q-18 6 -23 22.5t7 24.5q109 76 109 144q0 74 -70 88q-47 12 -47 57q0 27 19.5 49.5t62.5 22.5z" />
<glyph unicode="&#x16a;" horiz-adv-x="1527" d="M1239 602v236q0 354 -39 424q-20 37 -102 43l-51 4q-8 10 -7.5 26.5t11.5 22.5q117 -6 233 -6q104 0 215 6q12 -8 12 -24.5t-8 -24.5l-49 -4q-82 -6 -102 -50q-29 -68 -29 -417v-232q0 -336 -143 -489q-66 -72 -170.5 -111t-221.5 -39q-252 0 -382 113q-160 133 -160 483 v484q0 166 -18.5 207.5t-104.5 50.5l-51 4q-8 6 -7 25.5t11 23.5q154 -6 254 -6t252 6q10 -4 11 -23.5t-7 -25.5l-49 -4q-86 -8 -104.5 -50.5t-18.5 -207.5v-443q0 -264 96 -405.5t319 -141.5q211 0 310.5 147.5t99.5 397.5zM1026 1479h-430q-14 20 -14 58t14 58h430 q16 -20 16 -58t-16 -58z" />
<glyph unicode="&#x16b;" horiz-adv-x="1048" d="M326 643v-342q0 -117 41 -176t149 -59q94 0 166 61q41 37 41 119v336q0 68 -7 97.5t-19.5 39.5t-49.5 24l-26 11q-10 6 -10.5 22.5t12.5 22.5q168 4 239 37q16 -4 19 -15q-6 -59 -7 -178v-344q0 -131 11.5 -177t52.5 -46q33 0 80 10q10 -8 10 -30.5t-12 -28.5 q-209 -43 -268 -76q-18 0 -25 14v84q0 29 -18 29q-168 -106 -283 -107q-131 0 -189.5 63.5t-58.5 192.5v342q0 102 -8 129t-53 45l-25 11q-10 8 -8 24.5t12 20.5q125 2 219 37q18 -2 21 -15q-6 -51 -6 -178zM721 1053h-438q-16 20 -16.5 57t16.5 59h438q14 -23 14 -59.5 t-14 -56.5z" />
<glyph unicode="&#x16e;" horiz-adv-x="1527" d="M1239 602v236q0 354 -39 424q-20 37 -102 43l-51 4q-8 10 -7.5 26.5t11.5 22.5q117 -6 233 -6q104 0 215 6q12 -8 12 -24.5t-8 -24.5l-49 -4q-82 -6 -102 -50q-29 -68 -29 -417v-232q0 -336 -143 -489q-66 -72 -170.5 -111t-221.5 -39q-252 0 -382 113q-160 133 -160 483 v484q0 166 -18.5 207.5t-104.5 50.5l-51 4q-8 6 -7 25.5t11 23.5q154 -6 254 -6t252 6q10 -4 11 -23.5t-7 -25.5l-49 -4q-86 -8 -104.5 -50.5t-18.5 -207.5v-443q0 -264 96 -405.5t319 -141.5q211 0 310.5 147.5t99.5 397.5zM825.5 1778q75.5 0 124.5 -49.5t49 -117 t-49 -116.5t-124.5 -49t-125 49t-49.5 116.5t49.5 117t125 49.5zM733 1612q0 -47 26.5 -78t65.5 -31q41 0 67 31t26 78t-27 76.5t-66 29.5t-65.5 -30.5t-26.5 -75.5z" />
<glyph unicode="&#x16f;" horiz-adv-x="1048" d="M326 643v-342q0 -117 41 -176t149 -59q94 0 166 61q41 37 41 119v336q0 68 -7 97.5t-19.5 39.5t-49.5 24l-26 11q-10 6 -10.5 22.5t12.5 22.5q168 4 239 37q16 -4 19 -15q-6 -59 -7 -178v-344q0 -131 11.5 -177t52.5 -46q33 0 80 10q10 -8 10 -30.5t-12 -28.5 q-209 -43 -268 -76q-18 0 -25 14v84q0 29 -18 29q-168 -106 -283 -107q-131 0 -189.5 63.5t-58.5 192.5v342q0 102 -8 129t-53 45l-25 11q-10 8 -8 24.5t12 20.5q125 2 219 37q18 -2 21 -15q-6 -51 -6 -178zM518 1300q76 0 125 -50t49 -115q0 -68 -49 -117t-125 -49t-125 49 t-49 117q0 66 49 115.5t125 49.5zM426 1135q0 -47 26.5 -78t65.5 -31q41 0 66.5 30.5t25.5 78t-26.5 77t-65.5 29.5t-65.5 -30.5t-26.5 -75.5z" />
<glyph unicode="&#x170;" horiz-adv-x="1527" d="M1239 602v236q0 354 -39 424q-20 37 -102 43l-51 4q-8 10 -7.5 26.5t11.5 22.5q117 -6 233 -6q104 0 215 6q12 -8 12 -24.5t-8 -24.5l-49 -4q-82 -6 -102 -50q-29 -68 -29 -417v-232q0 -336 -143 -489q-66 -72 -170.5 -111t-221.5 -39q-252 0 -382 113q-160 133 -160 483 v484q0 166 -18.5 207.5t-104.5 50.5l-51 4q-8 6 -7 25.5t11 23.5q154 -6 254 -6t252 6q10 -4 11 -23.5t-7 -25.5l-49 -4q-86 -8 -104.5 -50.5t-18.5 -207.5v-443q0 -264 96 -405.5t319 -141.5q211 0 310.5 147.5t99.5 397.5zM1063 1763q20 0 59 -28q27 -18 35 -40t-4 -32 l-47 -47l-178 -170q-47 10 -39 39l115 233q24 45 59 45zM750 1763q23 0 61 -30q41 -35 27 -66q-10 -20 -45 -51l-179 -170q-47 10 -39 39l115 233q25 45 60 45z" />
<glyph unicode="&#x171;" horiz-adv-x="1048" d="M326 643v-342q0 -117 41 -176t149 -59q94 0 166 61q41 37 41 119v336q0 68 -7 97.5t-19.5 39.5t-49.5 24l-26 11q-10 6 -10.5 22.5t12.5 22.5q168 4 239 37q16 -4 19 -15q-6 -59 -7 -178v-344q0 -131 11.5 -177t52.5 -46q33 0 80 10q10 -8 10 -30.5t-12 -28.5 q-209 -43 -268 -76q-18 0 -25 14v84q0 29 -18 29q-168 -106 -283 -107q-131 0 -189.5 63.5t-58.5 192.5v342q0 102 -8 129t-53 45l-25 11q-10 8 -8 24.5t12 20.5q125 2 219 37q18 -2 21 -15q-6 -51 -6 -178zM561 1227l-188 -275q-12 -2 -23.5 4.5t-11.5 18.5l113 334 q20 43 34 45q16 4 66 -23q31 -20 33 -41q4 -26 -23 -63zM831 1227l-188 -275q-12 -2 -24.5 4.5t-10.5 18.5l113 334q18 41 35 47q16 2 65 -25q29 -12 33 -39q4 -24 -23 -65z" />
<glyph unicode="&#x172;" horiz-adv-x="1527" d="M414 1047v-443q0 -264 96 -405.5t319 -141.5q211 0 310.5 147.5t99.5 397.5v236q0 354 -39 424q-20 37 -102 43l-51 4q-8 10 -7.5 26.5t11.5 22.5q117 -6 233 -6q104 0 215 6q12 -8 12 -24.5t-8 -24.5l-49 -4q-82 -6 -102 -50q-29 -68 -29 -417v-232q0 -336 -143 -489 q-100 -109 -283 -140q-59 -43 -94 -102t-35 -111q0 -43 22.5 -69.5t63.5 -26.5q72 0 111 29q18 -6 18 -31q-35 -45 -90 -69.5t-107 -24.5q-74 0 -112.5 44t-38.5 97q0 135 166 256q-4 -2 -13 -2q-252 0 -382 113q-160 133 -160 483v484q0 166 -18.5 207.5t-104.5 50.5l-51 4 q-8 6 -7 25.5t11 23.5q154 -6 254 -6t252 6q10 -4 11 -23.5t-7 -25.5l-49 -4q-86 -8 -104.5 -50t-18.5 -208z" />
<glyph unicode="&#x173;" horiz-adv-x="1048" d="M174 227v342q0 102 -8 129t-53 45l-25 11q-10 8 -8 24.5t12 20.5q125 2 219 37q18 -2 21 -15q-6 -51 -6 -178v-342q0 -117 41 -176t149 -59q94 0 166 61q41 37 41 119v336q0 68 -7 97.5t-19.5 39.5t-49.5 24l-26 11q-10 6 -10.5 22.5t12.5 22.5q168 4 239 37 q16 -4 19 -15q-6 -59 -7 -178v-344q0 -131 11.5 -177t52.5 -46q33 0 80 10q10 -8 10 -30.5t-12 -28.5q-4 0 -6 -2q-135 -135 -136 -265q0 -92 82 -92q68 0 107 29q18 -6 18 -31q-70 -94 -186 -94q-76 0 -114 41t-38 100q0 115 189 297q-129 -29 -184 -59q-18 0 -25 14v84 q0 29 -18 29q-168 -106 -283 -107q-131 0 -189.5 63.5t-58.5 192.5z" />
<glyph unicode="&#x178;" horiz-adv-x="1175" d="M688 418v-107q0 -166 20.5 -210t102.5 -50l78 -6q8 -10 7 -28.5t-11 -22.5q-190 6 -279 6q-106 0 -268 -6q-10 4 -11 22.5t7 28.5l63 6q86 8 104.5 49t18.5 211v105q0 86 -10 127t-55 127l-242 471q-49 94 -80 120.5t-82 34.5l-57 11q-10 10 -8 27.5t12 23.5 q98 -6 238 -6q141 0 219 6q12 -4 14 -23.5t-8 -27.5l-27 -4q-86 -12 -86 -37q0 -31 64 -158l231 -455q117 199 193 346q133 248 133 270.5t-86 33.5l-37 4q-10 10 -9 27.5t13 23.5q111 -6 197 -6t190 6q12 -8 13 -25.5t-9 -25.5l-57 -11q-20 -4 -39 -13t-34 -19.5t-34 -32.5 l-29 -37q-11 -14 -32 -47l-31 -50l-35 -61l-37 -63l-129 -223q-68 -117 -82 -166t-14 -166zM449 1454q-100 0 -101 105q-4 45 24.5 79.5t76.5 34.5q45 0 74.5 -33.5t29.5 -76.5q0 -45 -28.5 -77t-75.5 -32zM829 1454q-47 0 -75.5 26.5t-30.5 78.5q0 47 29.5 80.5t76.5 33.5 q45 0 72 -33.5t27 -76.5q0 -47 -27 -78t-72 -31z" />
<glyph unicode="&#x179;" horiz-adv-x="1312" d="M279 297l442 629q180 258 199 291q25 43 24 55q0 16 -74 16h-305q-244 0 -305 -67q-51 -55 -90 -140q-14 -6 -29.5 -2t-21.5 17q47 135 84 307q16 12 35 0q4 -35 38.5 -43t163.5 -8h541q203 0 236 6q12 -2 12 -19q-78 -68 -336 -438l-338 -487q-203 -295 -203 -317.5 t58 -28.5q53 -4 303 -5q293 0 379 48q80 45 143 188q41 14 51 -14q-41 -211 -92 -291q-170 6 -373 6h-526q-88 0 -229 -6q-10 6 -11 24q33 31 105 120t119 159zM958 1593l-352 -147q-12 4 -18 18.5t-2 30.5l288 236q39 27 56 26q31 0 61 -45q33 -51 21 -86q-15 -17 -54 -33z " />
<glyph unicode="&#x17a;" horiz-adv-x="772" d="M463 0h-184q-178 0 -216 -6q-12 6 -12 20q74 90 197 301l217 369q23 43 17.5 52t-36.5 9h-141q-102 0 -141 -30q-37 -29 -74 -119q-8 -10 -25.5 -7t-21.5 15q4 43 25.5 124t42.5 116q12 8 24 0q4 -25 29.5 -31t116.5 -6h290q94 0 125 6q12 -6 11 -20q-63 -88 -152 -234 l-248 -416q-33 -55 -26.5 -68.5t65.5 -13.5h70q184 0 241 62q25 29 66 119q10 6 25.5 3t19.5 -16q-31 -170 -76 -235q-102 6 -229 6zM614 1200l-256 -266q-31 -4 -34 22l176 334q27 49 49 49q27 0 63 -30q35 -29 35 -54q0 -22 -33 -55z" />
<glyph unicode="&#x17b;" horiz-adv-x="1312" d="M279 297l442 629q180 258 199 291q25 43 24 55q0 16 -74 16h-305q-244 0 -305 -67q-51 -55 -90 -140q-14 -6 -29.5 -2t-21.5 17q47 135 84 307q16 12 35 0q4 -35 38.5 -43t163.5 -8h541q203 0 236 6q12 -2 12 -19q-78 -68 -336 -438l-338 -487q-203 -295 -203 -317.5 t58 -28.5q53 -4 303 -5q293 0 379 48q80 45 143 188q41 14 51 -14q-41 -211 -92 -291q-170 6 -373 6h-526q-88 0 -229 -6q-10 6 -11 24q33 31 105 120t119 159zM680 1448q-49 0 -79 28.5t-32 79.5q-2 47 30 79t81 32q45 0 76.5 -31.5t31.5 -72.5q0 -51 -30.5 -83t-77.5 -32z " />
<glyph unicode="&#x17c;" horiz-adv-x="772" d="M463 0h-184q-178 0 -216 -6q-12 6 -12 20q74 90 197 301l217 369q23 43 17.5 52t-36.5 9h-141q-102 0 -141 -30q-37 -29 -74 -119q-8 -10 -25.5 -7t-21.5 15q4 43 25.5 124t42.5 116q12 8 24 0q4 -25 29.5 -31t116.5 -6h290q94 0 125 6q12 -6 11 -20q-63 -88 -152 -234 l-248 -416q-33 -55 -26.5 -68.5t65.5 -13.5h70q184 0 241 62q25 29 66 119q10 6 25.5 3t19.5 -16q-31 -170 -76 -235q-102 6 -229 6zM408 1237q45 0 71.5 -30.5t26.5 -76.5q0 -51 -30 -76.5t-75 -25.5q-47 0 -74.5 28.5t-27.5 71.5q0 49 31 79t78 30z" />
<glyph unicode="&#x17d;" horiz-adv-x="1312" d="M279 297l442 629q180 258 199 291q25 43 24 55q0 16 -74 16h-305q-244 0 -305 -67q-51 -55 -90 -140q-14 -6 -29.5 -2t-21.5 17q47 135 84 307q16 12 35 0q4 -35 38.5 -43t163.5 -8h541q203 0 236 6q12 -2 12 -19q-78 -68 -336 -438l-338 -487q-203 -295 -203 -317.5 t58 -28.5q53 -4 303 -5q293 0 379 48q80 45 143 188q41 14 51 -14q-41 -211 -92 -291q-170 6 -373 6h-526q-88 0 -229 -6q-10 6 -11 24q33 31 105 120t119 159zM657 1460l-254 232q0 14 9.5 27.5t21.5 13.5l234 -127q33 -18 65 0l236 127q23 -4 22 -41l-250 -232 q-41 -37 -84 0z" />
<glyph unicode="&#x17e;" horiz-adv-x="772" d="M463 0h-184q-178 0 -216 -6q-12 6 -12 20q74 90 197 301l217 369q23 43 17.5 52t-36.5 9h-141q-102 0 -141 -30q-37 -29 -74 -119q-8 -10 -25.5 -7t-21.5 15q4 43 25.5 124t42.5 116q12 8 24 0q4 -25 29.5 -31t116.5 -6h290q94 0 125 6q12 -6 11 -20q-63 -88 -152 -234 l-248 -416q-33 -55 -26.5 -68.5t65.5 -13.5h70q184 0 241 62q25 29 66 119q10 6 25.5 3t19.5 -16q-31 -170 -76 -235q-102 6 -229 6zM221 1352l154 -191q27 -35 55 0l154 191q10 2 22 -5.5t15 -21.5l-185 -362q-33 -66 -67 0l-189 362q2 27 41 27z" />
<glyph unicode="&#x192;" horiz-adv-x="1003" d="M258 666h162q29 139 72 229q41 84 120.5 152.5t180.5 68.5q68 0 101.5 -26.5t33.5 -59.5q0 -31 -23.5 -53.5t-40.5 -22.5q-20 0 -43 31q-41 61 -88 62q-92 0 -155 -381h196q12 -8 12 -32t-12 -34h-211q-25 -106 -49 -250q-74 -420 -197 -532q-80 -68 -176 -68 q-61 0 -93 31t-32 76q0 25 10.5 39t20.5 14q23 0 43 -25q70 -57 115 -57q66 0 106 238q8 51 24 134l38 206l35 194h-150q-8 6 -8 32t8 34z" />
<glyph unicode="&#x218;" horiz-adv-x="1001" d="M895 346q0 -170 -119 -274.5t-317 -104.5q-188 0 -320 76q-18 33 -34.5 123t-20.5 164q8 10 25.5 12t23.5 -6q90 -305 352 -305q123 0 189.5 68.5t66.5 166.5q0 84 -33.5 152.5t-134.5 134.5l-194 127q-221 145 -221 352q0 152 111.5 252t305.5 100q92 0 191 -26 q41 -12 72 -12q37 -98 36 -250q-6 -10 -24.5 -12.5t-26.5 6.5q-12 45 -28.5 78.5t-46 71.5t-82 59.5t-121.5 21.5q-135 0 -189.5 -68.5t-54.5 -158.5q0 -143 174 -252l164 -103q256 -157 256 -393zM475 -119q55 0 102.5 -45t47.5 -125q0 -190 -238 -262q-14 6 -21.5 31.5 t1.5 32.5q53 16 97 53t44 90q0 14 -6 28.5t-14.5 22.5t-20.5 17.5t-21.5 13.5t-19.5 9t-12 5q-35 18 -35 51q0 31 26.5 54.5t69.5 23.5z" />
<glyph unicode="&#x219;" horiz-adv-x="661" d="M381 836q139 0 180 -37q33 -80 33 -166q-6 -10 -23.5 -12.5t-25.5 6.5q-57 150 -180 149q-59 0 -95.5 -34.5t-36.5 -90.5q0 -31 12.5 -55.5t42 -48t46.5 -32.5l57 -34q100 -57 154.5 -117.5t54.5 -158.5q0 -111 -86 -172.5t-209 -61.5q-141 0 -219 62q-33 78 -25 207 q8 10 23.5 10t24.5 -8q66 -211 217 -211q59 0 98 33.5t39 97.5q0 43 -26.5 82t-54.5 59.5t-77 46.5q-100 57 -151.5 115.5t-51.5 136.5q0 109 79 171.5t200 62.5zM309 -119q53 0 99.5 -47t46.5 -133q0 -94 -66.5 -157.5t-167.5 -94.5q-12 6 -14 31.5t4 32.5q45 14 83 52 t38 91q0 14 -5 28.5t-11.5 22.5t-17.5 17.5t-17.5 13.5t-16.5 8l-10 6q-31 16 -31 51q0 31 23.5 54.5t62.5 23.5z" />
<glyph unicode="&#x2c6;" d="M545 952l-150 189q-18 23 -27.5 22.5t-27.5 -22.5l-152 -189q-10 -4 -24 3.5t-17 15.5l185 362q37 68 71 0l187 -362q-2 -8 -19.5 -15.5t-25.5 -3.5z" />
<glyph unicode="&#x2c7;" d="M190 1372l154 -190q27 -35 55 0l154 190q10 2 22.5 -5t14.5 -21l-184 -363q-33 -66 -68 0l-188 363q1 26 40 26z" />
<glyph unicode="&#x2d8;" d="M368.5 1026q-108.5 0 -165 67.5t-47.5 200.5q8 6 22.5 6t22.5 -6q16 -76 64 -113.5t103.5 -37.5t103.5 38t67 113q6 6 20 6t25 -6q6 -133 -50.5 -200.5t-165 -67.5z" />
<glyph unicode="&#x2d9;" d="M377 1253q45 0 71.5 -30.5t26.5 -75.5q0 -51 -29.5 -77t-74.5 -26q-47 0 -75 29t-28 72q0 49 31 78.5t78 29.5z" />
<glyph unicode="&#x2da;" d="M368.5 1313q73.5 0 124 -50.5t50.5 -115.5q0 -68 -49.5 -117t-125 -49t-124.5 49t-49 117q0 66 50 116t123.5 50zM276 1147q0 -47 27 -78t66 -31q41 0 66.5 31t25.5 78t-26.5 76.5t-65.5 29.5t-66 -30.5t-27 -75.5z" />
<glyph unicode="&#x2db;" d="M348 10h47q-37 -88 -37 -182q0 -72 42 -112t102 -40q55 0 86 17q16 -10 16 -35q-70 -86 -203 -86q-82 0 -129 48t-47 126q0 104 123 264z" />
<glyph unicode="&#x2dc;" d="M311 1194h111q66 0 93.5 13.5t64.5 66.5q25 12 34 -12q-20 -88 -77 -150q-37 -33 -101 -33h-108q-66 0 -103 -24.5t-67 -81.5q-8 -6 -19.5 -3t-15.5 11q6 31 29.5 87t46.5 79q44 47 112 47z" />
<glyph unicode="&#x2dd;" d="M418 1237l-189 -274q-12 -2 -23 4t-11 18l112 334q20 43 35 45q16 4 66 -23q31 -20 32 -41q5 -26 -22 -63zM688 1237l-188 -274q-12 -2 -24.5 4t-10.5 18l113 334q18 41 34 47q16 2 66 -25q29 -12 33 -38q4 -25 -23 -66z" />
<glyph unicode="&#x394;" horiz-adv-x="1302" d="M1227 0h-1147q-12 0 -16.5 12.5t-1 28.5t7.5 31.5t8 25.5l225 508l248 555q47 104 39 146q49 16 106 77q18 0 25 -18q16 -41 48 -134t52 -142l408 -996q12 -33 12 -63.5t-14 -30.5zM279 96h694q47 0 60.5 9.5t2.5 33.5l-342 867q-39 106 -51 129h-14q-4 -6 -54 -121 l-364 -864q-14 -35 -1.5 -44.5t69.5 -9.5z" />
<glyph unicode="&#x2206;" horiz-adv-x="1302" d="M1227 0h-1147q-12 0 -16.5 12.5t-1 28.5t7.5 31.5t8 25.5l225 508l248 555q47 104 39 146q49 16 106 77q18 0 25 -18q16 -41 48 -134t52 -142l408 -996q12 -33 12 -63.5t-14 -30.5zM279 96h694q47 0 60.5 9.5t2.5 33.5l-342 867q-39 106 -51 129h-14q-4 -6 -54 -121 l-364 -864q-14 -35 -1.5 -44.5t69.5 -9.5z" />
<glyph unicode="&#x3a9;" horiz-adv-x="1576" d="M788 1384q180 0 330 -68.5t244 -210.5t90 -333q-2 -57 -13.5 -111.5t-22.5 -93.5t-44 -88t-47 -72.5t-63 -72.5l-63 -63q-13 -13 -73.5 -66l-70.5 -62h196q102 0 149.5 35t90.5 129q8 16 23.5 16.5t19.5 -16.5q-12 -37 -70 -321l-45 6q-31 4 -59.5 6t-59.5 2h-399v41 q176 211 240 315q125 211 125 426q0 238 -125 388.5t-348.5 150.5t-351.5 -162t-130 -405q0 -104 29 -204.5t89 -194t112.5 -159t134.5 -155.5v-41h-400q-31 0 -59.5 -2t-58.5 -6l-45 -6q-57 285 -70 321q4 16 19.5 16.5t23.5 -16.5q43 -94 90 -129t150 -35h196l-64 51 q-17 13 -69.5 59t-79 76.5t-68.5 85t-62.5 101.5t-37 110.5t-16.5 127.5q2 289 195.5 459.5t467.5 170.5z" />
<glyph unicode="&#x2126;" horiz-adv-x="1576" d="M788 1384q180 0 330 -68.5t244 -210.5t90 -333q-2 -57 -13.5 -111.5t-22.5 -93.5t-44 -88t-47 -72.5t-63 -72.5l-63 -63q-13 -13 -73.5 -66l-70.5 -62h196q102 0 149.5 35t90.5 129q8 16 23.5 16.5t19.5 -16.5q-12 -37 -70 -321l-45 6q-31 4 -59.5 6t-59.5 2h-399v41 q176 211 240 315q125 211 125 426q0 238 -125 388.5t-348.5 150.5t-351.5 -162t-130 -405q0 -104 29 -204.5t89 -194t112.5 -159t134.5 -155.5v-41h-400q-31 0 -59.5 -2t-58.5 -6l-45 -6q-57 285 -70 321q4 16 19.5 16.5t23.5 -16.5q43 -94 90 -129t150 -35h196l-64 51 q-17 13 -69.5 59t-79 76.5t-68.5 85t-62.5 101.5t-37 110.5t-16.5 127.5q2 289 195.5 459.5t467.5 170.5z" />
<glyph unicode="&#x3c0;" horiz-adv-x="1024" d="M672 694h-258q-35 -283 -95 -536q-47 -186 -135 -187q-33 0 -53 18.5t-18 49.5q0 10 7 22.5t24.5 33t23.5 28.5q117 141 164 571q-98 0 -156.5 -32.5t-101.5 -122.5q-4 -12 -10.5 -16.5t-12.5 1.5t-6 23q0 129 86 201q74 59 201 59h413q182 0 218 20q10 4 13 -1t-1 -19 q-16 -53 -41 -88q-23 -31 -193 -29q-49 -156 -49 -397q0 -195 107 -195q82 0 162 107q8 12 18 0q4 -8 0 -21q-39 -106 -108.5 -159.5t-147.5 -53.5q-68 0 -105.5 47.5t-46 97.5t-6.5 105q5 129 107 473z" />
<glyph unicode="&#x2000;" horiz-adv-x="937" />
<glyph unicode="&#x2001;" horiz-adv-x="1878" />
<glyph unicode="&#x2002;" horiz-adv-x="937" />
<glyph unicode="&#x2003;" horiz-adv-x="1878" />
<glyph unicode="&#x2004;" horiz-adv-x="624" />
<glyph unicode="&#x2005;" horiz-adv-x="468" />
<glyph unicode="&#x2006;" horiz-adv-x="311" />
<glyph unicode="&#x2007;" horiz-adv-x="311" />
<glyph unicode="&#x2008;" horiz-adv-x="233" />
<glyph unicode="&#x2009;" horiz-adv-x="374" />
<glyph unicode="&#x200a;" horiz-adv-x="102" />
<glyph unicode="&#x2010;" horiz-adv-x="655" d="M82 461l477 45q31 -20 31 -66q0 -31 -17 -51l-477 -45q-31 25 -30 66q0 31 16 51z" />
<glyph unicode="&#x2011;" horiz-adv-x="655" d="M82 461l477 45q31 -20 31 -66q0 -31 -17 -51l-477 -45q-31 25 -30 66q0 31 16 51z" />
<glyph unicode="&#x2012;" horiz-adv-x="1024" d="M66 696h892v-100h-892v100z" />
<glyph unicode="&#x2013;" horiz-adv-x="1024" d="M0 471h1024v-100h-1024v100z" />
<glyph unicode="&#x2014;" horiz-adv-x="2048" d="M0 471h2048v-100h-2048v100z" />
<glyph unicode="&#x2018;" horiz-adv-x="481" d="M270 969q-63 0 -110 58t-47 138q0 100 67.5 174t171.5 105q33 -16 15 -43q-156 -72 -156 -176q0 -53 34 -83t68 -32q55 -4 56 -57q0 -31 -23 -57.5t-76 -26.5z" />
<glyph unicode="&#x2019;" horiz-adv-x="481" d="M211 1434q63 0 110.5 -58.5t47.5 -138.5q0 -100 -68 -174t-172 -105q-33 16 -14 43q156 72 155 177q0 53 -33.5 82.5t-68.5 31.5q-55 4 -55 58q0 31 22.5 57.5t75.5 26.5z" />
<glyph unicode="&#x201a;" horiz-adv-x="440" d="M190 205q63 0 110.5 -58.5t47.5 -138.5q-2 -100 -69.5 -174t-169.5 -104q-33 16 -15 43q156 72 156 176q0 53 -34 82.5t-69 31.5q-55 4 -55 58q0 31 22.5 57.5t75.5 26.5z" />
<glyph unicode="&#x201c;" horiz-adv-x="827" d="M616 969q-63 0 -110 58t-47 138q0 100 67.5 174t171.5 105q33 -16 15 -43q-156 -72 -156 -176q0 -53 34 -83t68 -32q55 -4 56 -57q0 -31 -23 -57.5t-76 -26.5zM270 969q-63 0 -110 58t-47 138q0 100 67.5 174t171.5 105q33 -16 15 -43q-156 -72 -156 -176q0 -53 34 -83 t68 -32q55 -4 56 -57q0 -31 -23 -57.5t-76 -26.5z" />
<glyph unicode="&#x201d;" horiz-adv-x="827" d="M557 1434q63 0 110.5 -58.5t47.5 -138.5q0 -100 -67.5 -174t-172.5 -105q-33 16 -14 43q156 72 155 177q0 53 -33.5 82.5t-68.5 31.5q-55 4 -55 58q0 31 22.5 57.5t75.5 26.5zM211 1434q63 0 110.5 -58.5t47.5 -138.5q0 -100 -68 -174t-172 -105q-33 16 -14 43 q156 72 155 177q0 53 -33.5 82.5t-68.5 31.5q-55 4 -55 58q0 31 22.5 57.5t75.5 26.5z" />
<glyph unicode="&#x201e;" horiz-adv-x="786" d="M537 205q63 0 110 -58.5t47 -138.5q-2 -100 -69.5 -174t-169.5 -104q-33 16 -15 43q156 72 156 176q0 53 -34 82.5t-68 31.5q-55 4 -56 58q0 31 23 57.5t76 26.5zM190 205q63 0 110.5 -58.5t47.5 -138.5q-2 -100 -69.5 -174t-169.5 -104q-33 16 -15 43q156 72 156 176 q0 53 -34 82.5t-69 31.5q-55 4 -55 58q0 31 22.5 57.5t75.5 26.5z" />
<glyph unicode="&#x2020;" horiz-adv-x="983" d="M524 -260h-65v280q0 276 -72 517q45 55 59.5 131.5t14.5 226.5q-72 0 -156 -32t-106 -32q-47 0 -72 25t-25 66q0 39 25 63.5t72 24.5q23 0 106.5 -31t155.5 -31q0 135 -32 231.5t-32 106.5q0 37 23.5 67.5t71 30.5t71 -30.5t23.5 -67.5q0 -10 -32 -106.5t-32 -231.5 q72 0 156 31t108 31q45 0 70 -24.5t25 -63.5q0 -41 -25 -66t-70 -25q-25 0 -108.5 32t-155.5 32q0 -150 14.5 -226.5t59.5 -131.5q-72 -240 -72 -517v-280z" />
<glyph unicode="&#x2021;" horiz-adv-x="983" d="M491.5 1384q45.5 0 69 -29.5t23.5 -64.5q0 -10 -31 -105t-31 -229q66 0 156 29q94 33 110 33q90 0 91 -88q0 -86 -91 -86q-27 0 -110.5 29.5t-155.5 29.5q0 -131 14.5 -200.5t59.5 -114.5q-45 -41 -59.5 -114t-14.5 -224q66 0 156 29q94 33 110 32q90 0 91 -88 q0 -86 -91 -86q-27 0 -110.5 30t-155.5 30q0 -131 31 -237.5t31 -117.5q0 -35 -23.5 -65.5t-69 -30.5t-69 30.5t-23.5 65.5q0 10 31 117t31 238q-70 0 -155 -30t-111 -30q-90 0 -91 86q0 88 91 88q16 0 110 -32q90 -29 156 -29q0 152 -14.5 224.5t-59.5 113.5 q45 45 59.5 114.5t14.5 200.5q-70 0 -155 -29.5t-111 -29.5q-90 0 -91 86q0 88 91 88q16 0 110 -33q90 -29 156 -29q0 133 -31 228.5t-31 105.5q0 35 23.5 64.5t69 29.5z" />
<glyph unicode="&#x2022;" horiz-adv-x="794" d="M397.5 973q118.5 0 201.5 -83t83 -202t-83 -200.5t-201.5 -81.5t-201.5 81.5t-83 200.5t83 202t201.5 83z" />
<glyph unicode="&#x2024;" horiz-adv-x="1024" d="M512 205q51 0 83 -35t32 -86q0 -49 -32 -81t-83 -32q-47 0 -81 31t-34 82t33 86t82 35z" />
<glyph unicode="&#x2025;" horiz-adv-x="1024" d="M256 205q51 0 83 -35t32 -86q0 -49 -32 -81t-83 -32q-47 0 -81 31t-34 82t33 86t82 35zM768 205q51 0 83 -35t32 -86q0 -49 -32 -81t-83 -32q-47 0 -81 31t-34 82t33 86t82 35z" />
<glyph unicode="&#x2026;" horiz-adv-x="2048" d="M1024 -29q-47 0 -81 31t-34 82t33 86t82 35q51 0 83 -35t32 -86q0 -49 -32 -81t-83 -32zM1706 -29q-47 0 -81 31t-34 82t33 86t82 35q51 0 83 -35t32 -86q0 -49 -32 -81t-83 -32zM342 -29q-47 0 -81 31t-34 82t33 86t82 35q51 0 83 -35t32 -86q0 -49 -32 -81t-83 -32z " />
<glyph unicode="&#x202f;" horiz-adv-x="374" />
<glyph unicode="&#x2030;" horiz-adv-x="2103" d="M1137 606q133 0 201.5 -99t68.5 -218q0 -117 -68.5 -217.5t-201.5 -100.5t-202 100.5t-69 217.5q0 119 69 218t202 99zM1139 549q-49 0 -82 -49t-43 -103.5t-10 -107.5t10 -107.5t43 -103.5t82 -49q70 0 100.5 85t30.5 175t-30.5 175t-100.5 85zM354 1049 q133 0 202 -99.5t69 -218.5q0 -117 -69 -217t-202 -100q-135 0 -203.5 100t-68.5 217q0 119 68.5 218.5t203.5 99.5zM354 991q-47 0 -79.5 -49t-43 -103.5t-10.5 -107.5t10.5 -107.5t43 -103.5t79.5 -49q131 0 131 260t-131 260zM1102 1034l-668 -1106q-43 0 -61 47 l663 1098q20 2 41 -10.5t25 -28.5zM1751 606q133 0 201.5 -99t68.5 -218q0 -117 -68.5 -217.5t-201.5 -100.5t-201.5 100.5t-68.5 217.5q0 119 68.5 218t201.5 99zM1753 549q-49 0 -82 -49t-43 -103.5t-10 -107.5t10 -107.5t43 -103.5t82 -49q70 0 100.5 85t30.5 175 t-30.5 175t-100.5 85z" />
<glyph unicode="&#x2039;" horiz-adv-x="477" d="M385 733l-143 -287q-10 -25 0 -49l143 -291q-8 -20 -35 -26q-209 268 -244 309q-27 33 0 64q57 68 244 307q27 -4 35 -27z" />
<glyph unicode="&#x203a;" horiz-adv-x="477" d="M236 446l-144 287q8 23 35 27q186 -240 244 -307q27 -31 0 -64q-35 -41 -244 -309q-27 6 -35 26l144 291q10 24 0 49z" />
<glyph unicode="&#x2044;" horiz-adv-x="204" d="M-375 -29l893 1368q43 0 64 -47l-901 -1374q-52 0 -56 53z" />
<glyph unicode="&#x2215;" horiz-adv-x="204" d="M-375 -29l893 1368q43 0 64 -47l-901 -1374q-52 0 -56 53z" />
<glyph unicode="&#x205f;" horiz-adv-x="468" />
<glyph unicode="&#x2070;" d="M371 1450q100 0 170.5 -64.5t101.5 -154.5t31 -191q0 -166 -78 -287.5t-225 -121.5q-150 0 -227.5 121.5t-77.5 287.5q0 162 79 286t226 124zM371 1397q-152 0 -152 -361q0 -352 152 -352q150 0 149 352q0 49 -5 101.5t-19.5 116t-47 103.5t-77.5 40z" />
<glyph unicode="&#x2074;" d="M391 883h-317q-18 0 -19 20q0 16 19 41l436 561q18 25 43 25q45 0 45 -10q0 -4 -4 -13l-422 -540q-10 -18 -3 -21.5t40 -3.5h184q25 0 31 5t6 28v223q0 16 12 25q41 23 97 22q23 0 22 -39v-235q0 -18 5 -23.5t26 -5.5h76q12 -8 12 -28.5t-12 -30.5h-68q-27 0 -33 -5.5 t-6 -27.5v-29q0 -90 10.5 -108.5t69.5 -24.5l37 -4q6 -8 5 -23.5t-9 -19.5q-86 4 -178 4q-129 0 -183 -4q-8 4 -10 19.5t6 23.5l37 4q61 8 72.5 27.5t11.5 105.5v25q0 25 -6 31t-33 6z" />
<glyph unicode="&#x2075;" d="M551 1346l-266 -33q-33 -4 -42.5 -9.5t-15.5 -21.5l-18 -43q-12 -29 29 -31l20 -2q371 -39 371 -274q0 -158 -158 -258.5t-346 -104.5q-14 6 -17.5 27.5t11.5 34.5q166 2 278.5 76.5t112.5 187.5t-108.5 163t-258.5 50q-33 0 -12 55l76 217q6 18 11 24.5t22 8.5l350 43 q14 -4 14 -10q-20 -59 -53 -100z" />
<glyph unicode="&#x2076;" d="M387 684q63 0 103 44t40 130t-44 144.5t-113 58.5q-33 0 -66 -8q-8 4 -11 13t3 19q80 47 150 48q98 0 161.5 -69t63.5 -165q0 -117 -87 -192.5t-218 -75.5q-143 0 -224.5 89t-81.5 218q0 227 191 387q90 76 204.5 119t200.5 53q12 -2 15.5 -17.5t-6.5 -21.5 q-182 -57 -285 -145q-168 -143 -168 -371q0 -111 48 -184.5t124 -73.5z" />
<glyph unicode="&#x2077;" d="M487 1331h-251q-68 0 -93.5 -10t-50.5 -55q-31 -14 -39 14q39 102 51 160q86 -4 148 -4h235q170 0 191 4q8 -2 8 -15q-59 -74 -131 -204l-352 -637q-18 -4 -38 4t-20 24l344 621l9.5 15t8.5 15.5t8 14.5t6 14t3 12.5t0 11.5t-6 8t-12.5 5t-18.5 2z" />
<glyph unicode="&#x2078;" d="M367 631q-119 0 -199 50t-80 155q0 74 52.5 128t129.5 78v5q-66 27 -107.5 75.5t-41.5 112.5q0 96 74.5 155.5t185.5 59.5q109 0 178.5 -51t69.5 -146q0 -102 -152 -176q174 -88 174 -233q0 -100 -78.5 -156.5t-205.5 -56.5zM328 1018q-117 -45 -117 -176 q0 -61 47 -109.5t116.5 -48.5t112.5 39t43 100q1 132 -202 195zM422 1104q92 49 92 153q0 55 -40 97.5t-99 42.5q-61 0 -99 -38t-38 -95q0 -101 184 -160z" />
<glyph unicode="&#x2079;" d="M311 719q207 129 207 420q0 96 -42 177t-128 81q-57 0 -101 -44t-44 -116q0 -74 43 -132t116 -58q31 0 68 4q16 -12 4 -31q-61 -49 -137 -49q-96 0 -161.5 58t-65.5 155q0 115 88 190.5t219 75.5q135 0 216 -92t77 -246q-6 -233 -221 -397q-129 -96 -343 -125 q-12 2 -15 17.5t5 23.5q131 35 215 88z" />
<glyph unicode="&#x207d;" horiz-adv-x="450" d="M219 1015.5q0 -325.5 213 -495.5q6 -12 -1 -23.5t-19 -13.5q-158 74 -243 215.5t-85 317.5t85 317.5t243 214.5q12 -2 19 -13t1 -24q-213 -170 -213 -495.5z" />
<glyph unicode="&#x207e;" horiz-adv-x="450" d="M367 1016q0 -176 -85 -317.5t-243 -215.5q-12 2 -19.5 13.5t-1.5 23.5q213 170 213 495.5t-213 495.5q-6 12 1.5 23.5t19.5 13.5q158 -74 243 -215t85 -317z" />
<glyph unicode="&#x207f;" horiz-adv-x="868" d="M164 817v240q0 45 -6 58t-33 28l-29 14q-8 6 -8 17.5t6 17.5q152 49 187 65q10 0 14 -12v-59q0 -16 18 -17q127 76 215 76q186 0 187 -198v-230q0 -76 11 -99.5t56 -29.5l43 -6q10 -6 9.5 -21.5t-11.5 -19.5q-119 4 -172 4q-86 0 -155 -4q-10 4 -11.5 19.5t9.5 21.5l22 6 q45 12 56.5 33.5t11.5 95.5v201q0 145 -142 145q-78 0 -123 -49q-25 -29 -24 -84v-213q0 -74 11 -95.5t56 -33.5l23 -6q10 -6 9 -21.5t-11 -19.5q-78 4 -152 4q-66 0 -176 -4q-10 4 -11 19.5t9 21.5l43 6q45 6 56.5 29.5t11.5 99.5z" />
<glyph unicode="&#x2080;" d="M371 469q100 0 170.5 -64.5t101.5 -154.5t31 -191q0 -166 -78 -287.5t-225 -121.5q-150 0 -227.5 122t-77.5 287q0 162 79 286t226 124zM371 416q-152 0 -152 -361q0 -352 152 -352q150 0 149 352q0 49 -5 101.5t-19.5 116t-47 103.5t-77.5 40z" />
<glyph unicode="&#x2081;" d="M313 -160v396q0 63 -11 87.5t-52 28.5l-64 6q-8 6 -9 19.5t7 19.5q100 16 250 72q14 0 15 -10q-4 -43 -5 -150v-469q0 -82 13.5 -103.5t72.5 -29.5l35 -4q8 -6 7 -22.5t-9 -20.5q-123 4 -188.5 4t-179.5 -4q-8 4 -9.5 20.5t7.5 22.5l34 4q59 8 72.5 29.5t13.5 103.5z" />
<glyph unicode="&#x2082;" d="M303 -238h146q80 0 121.5 13.5t72.5 60.5q27 10 39 -14q-10 -20 -22.5 -51t-20.5 -49l-17 -35q-9 -18 -20 -27q-102 4 -231 4h-148q-92 0 -153 -4q-10 10 -11 14q0 12 4 19q88 55 213 180q188 188 189 340q0 80 -42 126t-112 46q-109 0 -184 -129q-12 -8 -25.5 -1 t-13.5 19q84 195 285 195q111 0 176 -58.5t65 -152.5q0 -127 -155 -283l-115 -114q-70 -70 -70 -82q0 -17 29 -17z" />
<glyph unicode="&#x2083;" d="M520 -106q0 76 -42 129t-128 53q-84 0 -147 -60q-37 18 -27 56q162 68 217 104q63 43 64 115q0 51 -32 79.5t-77 28.5q-100 0 -174 -118q-27 -2 -35 22q39 78 108.5 122t155.5 44t141.5 -43t55.5 -102q0 -47 -32.5 -86t-116.5 -78q-6 -8 -1 -14.5t17 -6.5q82 0 141.5 -53 t59.5 -141q0 -147 -142 -252q-147 -109 -295 -109q-145 0 -145 80q0 29 19.5 47.5t48.5 18.5q33 0 67 -54q23 -37 66 -36q74 0 153.5 70.5t79.5 183.5z" />
<glyph unicode="&#x2084;" d="M391 -98h-317q-18 0 -19 20q0 16 19 41l436 561q18 25 43 25q45 0 45 -10q0 -4 -4 -13l-422 -540q-10 -18 -3 -21.5t40 -3.5h184q25 0 31 5t6 28v223q0 16 12 25q41 23 97 22q23 0 22 -39v-235q0 -18 5 -23.5t26 -5.5h76q12 -8 12 -29.5t-12 -29.5h-68q-27 0 -33 -5.5 t-6 -27.5v-29q0 -90 10.5 -108.5t69.5 -24.5l37 -4q6 -8 5 -23.5t-9 -19.5q-86 4 -178 4q-129 0 -183 -4q-8 4 -10 19.5t6 23.5l37 4q61 8 72.5 27.5t11.5 105.5v25q0 25 -6 31t-33 6z" />
<glyph unicode="&#x2085;" d="M551 365l-266 -33q-33 -4 -42.5 -9.5t-15.5 -21.5l-18 -43q-12 -29 29 -31l20 -2q371 -39 371 -274q0 -158 -158 -258.5t-346 -104.5q-14 6 -17.5 28t11.5 34q166 2 278.5 76.5t112.5 187.5t-108.5 163t-258.5 50q-33 0 -12 55l76 217q6 18 11 24.5t22 8.5l350 43 q14 -4 14 -10q-20 -59 -53 -100z" />
<glyph unicode="&#x2086;" d="M387 -297q63 0 103 44t40 130t-44 144.5t-113 58.5q-33 0 -66 -8q-8 4 -11 13t3 19q80 47 150 48q98 0 161.5 -70t63.5 -164q0 -117 -87 -192.5t-218 -75.5q-143 0 -224.5 89t-81.5 218q0 227 191 387q90 76 204.5 119t200.5 53q12 -2 15.5 -17.5t-6.5 -21.5 q-182 -57 -285 -145q-168 -143 -168 -371q0 -111 48 -184.5t124 -73.5z" />
<glyph unicode="&#x2087;" d="M487 350h-251q-68 0 -93.5 -10t-50.5 -55q-31 -14 -39 14q39 102 51 160q86 -4 148 -4h235q170 0 191 4q8 -2 8 -15q-59 -74 -131 -204l-352 -637q-18 -4 -38 4t-20 24l344 621l9.5 15t8.5 15.5t8 14.5t6 14t3 12.5t0 11.5t-6 8t-12.5 5t-18.5 2z" />
<glyph unicode="&#x2088;" d="M367 -350q-119 0 -199 50t-80 155q0 74 52.5 128t129.5 78v5q-66 27 -107.5 75.5t-41.5 112.5q0 96 74.5 155.5t185.5 59.5q109 0 178.5 -51t69.5 -146q0 -102 -152 -176q174 -88 174 -233q0 -100 -78.5 -156.5t-205.5 -56.5zM328 37q-117 -45 -117 -176q0 -61 47 -109.5 t116.5 -48.5t112.5 39t43 100q1 132 -202 195zM422 123q92 49 92 153q0 55 -40 97.5t-99 42.5q-61 0 -99 -38t-38 -95q0 -101 184 -160z" />
<glyph unicode="&#x2089;" d="M311 -262q207 129 207 420q0 96 -42 177t-128 81q-57 0 -101 -44t-44 -116q0 -74 43 -132t116 -58q31 0 68 4q16 -12 4 -31q-61 -49 -137 -49q-96 0 -161.5 58t-65.5 155q0 115 88 190.5t219 75.5q135 0 216 -92t77 -246q-6 -233 -221 -397q-129 -96 -343 -125 q-12 2 -15 17.5t5 23.5q131 35 215 88z" />
<glyph unicode="&#x208d;" horiz-adv-x="450" d="M219 55.5q0 -325.5 213 -495.5q6 -12 -1 -23.5t-19 -13.5q-158 74 -243 215t-85 317t85 317.5t243 215.5q12 -2 19 -13.5t1 -23.5q-213 -170 -213 -495.5z" />
<glyph unicode="&#x208e;" horiz-adv-x="450" d="M367 55q0 -176 -85 -317t-243 -215q-12 2 -19.5 13t-1.5 24q213 170 213 495.5t-213 495.5q-6 12 1.5 23.5t19.5 13.5q158 -74 243 -215.5t85 -317.5z" />
<glyph unicode="&#x20a1;" horiz-adv-x="1003" d="M373 150l221 804q-156 -23 -260.5 -141.5t-104.5 -312.5q1 -225 144 -350zM662 954l-232 -848q27 -18 90 -32l240 858q-43 18 -98 22zM870 1110l-28 -111q61 -14 88 -16q10 -49 33 -231q-8 -12 -24.5 -14.5t-27.5 10.5q-29 115 -96 153l-229 -840h24q182 0 316 220 q8 10 26.5 8t22.5 -15q-16 -74 -44 -141t-52 -88q-129 -55 -275 -55h-39l-30 -105q-14 -10 -36 -10t-32 10l31 111q-49 6 -97 20l-36 -131q-12 -10 -33 -10t-33 10l41 152q-131 59 -208 175t-77 273q0 233 157 379t398 154l27 92q12 8 33.5 8t31.5 -8l-24 -90q33 0 102 -8 l27 98q10 8 32.5 8t30.5 -8z" />
<glyph unicode="&#x20a3;" horiz-adv-x="1024" d="M74 430h180v561q0 160 -17.5 200t-99.5 46l-31 2q-8 6 -7 25.5t12 23.5q135 -6 217 -6h358q236 0 262 6q0 -145 6 -256q-4 -10 -20 -12t-27 6q-14 78 -41.5 120t-95.5 60q-49 12 -188 13h-119q-43 0 -50 -10.5t-7 -63.5v-348q0 -39 9 -46.5t54 -7.5h133q131 0 164 13 q39 14 55 65l13 39q6 8 25.5 8t23.5 -8q0 -20 -3 -68.5t-3 -86.5q0 -37 3 -82t3 -66q-4 -8 -21.5 -8t-27.5 8l-15 37q-18 51 -67 68q-33 10 -150 10h-133q-43 0 -53 -9.5t-10 -44.5v-188h411q12 -8 12 -32.5t-12 -32.5h-411v-74q0 -158 17 -196t101 -46l66 -6q8 -6 7 -25.5 t-11 -23.5q-172 6 -258 6t-236 -6q-8 4 -10 21.5t6 27.5l49 6q82 10 99.5 48t17.5 194v74h-180q-12 8 -12 32.5t12 32.5z" />
<glyph unicode="&#x20a4;" horiz-adv-x="1024" d="M57 745h176q20 0 25.5 3.5t3.5 15.5v57q0 213 123 351.5t313 138.5q74 0 115 -31q23 -20 23 -47q0 -29 -21.5 -57.5t-38.5 -28.5q-10 0 -31 14q-80 63 -139 64q-80 0 -136 -82t-56 -246q0 -47 4 -133q2 -20 7 -25.5t24 -5.5h301q14 -6 14 -33.5t-14 -31.5h-285 q-27 0 -35 -5.5t-8 -23.5v-70q0 -20 7 -25t34 -5h287q14 -10 14 -37t-14 -29h-285q-43 0 -45 -29q-4 -47 -48 -134t-139 -146l3 -4q76 10 163 -2q45 -6 181 -64q125 -53 188 -53q102 0 80 147q-6 35 8 53.5t41 18.5q31 0 52.5 -27.5t21.5 -64.5q0 -82 -95.5 -155.5 t-216.5 -73.5q-86 0 -233 79q-139 76 -211 76q-70 0 -70 -67q0 -20 -28.5 -38t-48.5 -18q-37 0 -37 37q0 53 98 133q68 57 101.5 145.5t33.5 157.5q0 18 -5 23.5t-28 5.5h-182q-12 4 -12 29.5t12 36.5h187q23 0 28.5 3t3.5 15v94q0 18 -5 23.5t-27 5.5h-179q-12 4 -12 31.5 t12 33.5z" />
<glyph unicode="&#x20a7;" horiz-adv-x="1024" d="M336 963h407q-10 125 -90 196.5t-217 71.5q-72 0 -86 -11.5t-14 -58.5v-198zM20 963h173v49q0 129 -14.5 163.5t-82.5 43.5l-65 8q-10 8 -9 25.5t13 23.5q113 16 366 16q233 0 357 -80q129 -84 143 -249h96q12 -8 12.5 -33t-12.5 -33h-94q-10 -195 -184 -285 q-117 -59 -254 -59q-10 4 -11 20.5t9 18.5q272 51 282 305h-409v-604q0 -158 17.5 -196t105.5 -48l51 -6q8 -8 6 -26.5t-10 -22.5q-160 6 -242 6q-102 0 -225 -6q-10 4 -11 21.5t7 27.5l47 6q78 10 94.5 48t16.5 196v604h-173q-10 8 -10 33t10 33z" />
<glyph unicode="&#x20ac;" horiz-adv-x="1114" d="M104 629h95q39 186 186 303t358 117q115 0 220 -37q25 -6 38 -8q0 -96 19 -207q-4 -10 -19.5 -10.5t-23.5 8.5q-55 188 -268 188q-117 0 -216.5 -93t-123.5 -261h577q6 -6 1 -33t-19 -33h-568q-6 -35 0 -102h549q10 -8 4 -34t-22 -32h-526q25 -174 124 -265t238 -91 q166 0 277 190q12 6 24 4t16 -10q-29 -147 -73 -203q-10 -2 -47 -16q-115 -33 -215 -33q-221 0 -354.5 117t-159.5 307h-146q-8 6 0 32t19 34h120q-6 37 0 102h-102q-8 6 0 32t18 34z" />
<glyph unicode="&#x2113;" horiz-adv-x="860" d="M233 516v350q0 240 85 380t245 140q92 0 148.5 -62t56.5 -157q0 -86 -30.5 -165.5t-102.5 -164.5t-113 -126t-137 -129v-242q0 -145 40 -212t128 -67q121 0 207 185q10 8 24.5 -3.5t14.5 -25.5q-92 -246 -303 -246q-143 0 -203 94.5t-60 266.5v117q-53 -51 -163 -138 q-10 0 -18.5 12.5t-4.5 22.5q153 137 186 170zM385 1057v-393q287 262 287 479q0 74 -34 126t-106 52q-68 0 -107.5 -67.5t-39.5 -196.5z" />
<glyph unicode="&#x2122;" horiz-adv-x="1126" d="M225 1087v201v12q0 4 -2 7.5t-6 3.5h-12h-35q-72 0 -88 -66q-16 -6 -21 6q10 66 25 123h18q12 -16 21.5 -19t36.5 -3h235q35 0 58 22h16q-14 -57 -10 -129q-2 -4 -10.5 -5t-10.5 3q-4 27 -9 38t-21.5 20.5t-44.5 9.5h-43q-10 0 -12.5 -3t-2.5 -20v-207q0 -45 5 -60 t28 -22l31 -4q4 -4 3 -14t-5 -12q-41 2 -99 2q-74 0 -106 -2q-14 6 -2 26l28 4q35 4 35 88zM950 1059l-4 182q0 18 -2 21q-2 0 -35 -62l-51 -100l-16 -33l-28 -57q-13 -29 -17 -41q-18 -6 -23 -2q-16 41 -53 116l-51 103q-39 84 -43 86q-4 -6 -6 -96q-2 -35 -3 -125 q0 -31 7.5 -40.5t31.5 -13.5l17 -2q8 -12 0 -26q-18 2 -88 2q-45 0 -76 -2q-4 2 -5 11t3 15l10 2q43 4 47 43q16 160 17 244q0 35 -45 41l-15 2q-2 4 -2 14.5t4 12.5q20 -2 64 -2q55 0 86 2q0 -20 45 -105l51 -96q33 -57 35 -57q4 4 35 57l49 88q31 55 47 113q31 -2 61 -2 q51 0 74 2q8 -2 9 -13.5t-7 -13.5l-18 -2q-35 -4 -35 -45q0 -129 6 -223q2 -31 6 -41t19 -15l28 -6q4 -4 4 -14t-4 -12q-27 2 -94 2q-57 0 -84 -2q-4 4 -5 13t5 13l19 6q23 8 26.5 16.5t3.5 41.5z" />
<glyph unicode="&#x212e;" horiz-adv-x="1671" d="M1583 627h-1210q-10 0 -11 -11v-364q0 -23 17 -43q186 -197 459 -197q141 0 266 58.5t215 162.5h108q-104 -121 -258.5 -191.5t-332.5 -70.5q-309 0 -528.5 197t-219.5 475.5t219 476t528.5 197.5t528.5 -197.5t219 -476.5v-16zM1309 674v368q0 25 -19 43 q-186 190 -452 191q-268 0 -457 -195q-18 -18 -19 -47v-360q0 -10 11 -10h927q9 0 9 10z" />
<glyph unicode="&#x2153;" horiz-adv-x="1597" d="M205 682v395q0 63 -11.5 88t-52.5 29l-63 6q-8 6 -9 19.5t7 19.5q100 16 250 72q14 0 14 -11q-4 -43 -4 -149v-469q0 -82 13 -103.5t73 -29.5l35 -4q8 -6 7 -22.5t-9 -20.5q-123 4 -188.5 4t-180.5 -4q-8 4 -9 20.5t7 22.5l35 4q59 8 72.5 29.5t13.5 103.5zM1214 412 q-84 0 -147 -60q-37 18 -27 56q162 68 217 104q63 43 64 115q0 51 -32 79.5t-77 28.5q-100 0 -174 -119q-27 -2 -34 23q39 78 108.5 122t155.5 44t141 -43t55 -103q0 -47 -32.5 -85.5t-116.5 -77.5q-14 -16 16 -21q86 -10 143.5 -59t57.5 -135q0 -147 -141 -252 q-147 -109 -295 -109q-145 0 -146 80q0 29 19.5 47.5t48.5 18.5q33 0 67 -54q23 -37 66 -37q74 0 153.5 71t79.5 183q0 76 -42 129.5t-128 53.5zM301 -29l893 1368q43 0 63 -47l-901 -1374q-51 0 -55 53z" />
<glyph unicode="&#x2154;" horiz-adv-x="1597" d="M256 604h145q80 0 122 13.5t73 60.5q27 10 39 -14q-10 -20 -22.5 -51t-20.5 -49l-18 -36q-9 -18 -19 -26q-102 4 -231 4h-148q-92 0 -153 -4q-20 16 -7 33q88 55 213 180q188 188 189 340q0 80 -42 126t-112 46q-109 0 -184 -129q-12 -8 -25.5 -1t-13.5 19 q84 195 285 195q111 0 176 -58.5t65 -152.5q0 -127 -155 -283l-115 -115q-70 -70 -70 -81q0 -17 29 -17zM1247 412q-84 0 -147 -60q-37 18 -27 56q162 68 217 104q63 43 64 115q0 51 -32 79.5t-77 28.5q-100 0 -174 -119q-27 -2 -35 23q39 78 108.5 122t155.5 44t141.5 -43 t55.5 -103q0 -47 -32.5 -85.5t-116.5 -77.5q-14 -16 16 -21q86 -10 143.5 -59t57.5 -135q0 -147 -142 -252q-147 -109 -295 -109q-145 0 -145 80q0 29 19.5 47.5t48.5 18.5q33 0 67 -54q23 -37 66 -37q74 0 153.5 71t79.5 183q0 76 -42 129.5t-128 53.5zM375 -29l893 1368 q43 0 63 -47l-901 -1374q-51 0 -55 53z" />
<glyph unicode="&#x215b;" horiz-adv-x="1597" d="M1223 805q109 0 178 -51.5t69 -145.5q0 -102 -151 -176q174 -88 174 -233q0 -100 -79 -156.5t-206 -56.5q-119 0 -198.5 50t-79.5 154q0 74 52 128.5t130 78.5v4q-66 27 -107.5 76t-41.5 113q0 96 74.5 155.5t185.5 59.5zM1169 373q-117 -45 -116 -176q0 -61 47 -109.5 t116.5 -48.5t112.5 39t43 100q0 132 -203 195zM1264 459q92 49 92 153q0 55 -40 97.5t-99 42.5q-61 0 -99.5 -38t-38.5 -96q1 -100 185 -159zM266 -29l893 1368q43 0 64 -47l-901 -1374q-52 0 -56 53zM225 682v395q0 63 -11 88t-52 29l-64 6q-8 6 -9 19.5t7 19.5 q100 16 250 72q14 0 14 -11q-4 -43 -4 -149v-469q0 -82 13.5 -103.5t72.5 -29.5l35 -4q8 -6 7 -22.5t-9 -20.5q-123 4 -188.5 4t-180.5 -4q-8 4 -9 20.5t7 22.5l35 4q59 8 72.5 29.5t13.5 103.5z" />
<glyph unicode="&#x215c;" horiz-adv-x="1597" d="M1274 805q109 0 178.5 -51.5t69.5 -145.5q0 -102 -152 -176q174 -88 174 -233q0 -100 -79 -156.5t-205 -56.5q-119 0 -199 50t-80 154q0 74 52 128.5t130 78.5v4q-66 27 -107.5 76t-41.5 113q0 96 74.5 155.5t185.5 59.5zM1221 373q-117 -45 -117 -176q0 -61 47 -109.5 t116.5 -48.5t112.5 39t43 100q1 132 -202 195zM1315 459q92 49 92 153q0 55 -40 97.5t-99 42.5q-61 0 -99.5 -38t-38.5 -96q1 -100 185 -159zM344 -29l893 1368q43 0 63 -47l-901 -1374q-51 0 -55 53zM299 918q-84 0 -147 -60q-37 18 -27 55q162 68 217 105q63 43 64 115 q0 51 -32 79.5t-77 28.5q-100 0 -174 -119q-27 -2 -35 23q39 78 108.5 122t155.5 44t141.5 -43t55.5 -103q0 -47 -33 -86t-117 -78q-14 -16 17 -20q86 -10 143 -59.5t57 -135.5q0 -147 -141 -251q-147 -109 -295 -109q-145 0 -145 80q0 29 19.5 47t47.5 18q33 0 68 -53 q23 -37 66 -37q74 0 153.5 71t79.5 183q0 76 -42 129.5t-128 53.5z" />
<glyph unicode="&#x215d;" horiz-adv-x="1597" d="M1278 805q109 0 178.5 -51.5t69.5 -145.5q0 -102 -152 -176q174 -88 174 -233q0 -100 -78.5 -156.5t-205.5 -56.5q-119 0 -199 50t-80 154q0 74 52.5 128.5t129.5 78.5v4q-66 27 -107.5 76t-41.5 113q0 96 74.5 155.5t185.5 59.5zM1225 373q-117 -45 -117 -176 q0 -61 47 -109.5t116.5 -48.5t112.5 39t43 100q1 132 -202 195zM1319 459q92 49 92 153q0 55 -40 97.5t-99 42.5q-61 0 -99 -38t-38 -96q0 -100 184 -159zM340 -29l893 1368q43 0 63 -47l-901 -1374q-51 0 -55 53zM532 1206l-266 -32q-33 -4 -42 -9.5t-15 -21.5l-19 -43 q-12 -29 29 -31l21 -2q371 -39 370 -274q0 -158 -157.5 -258.5t-346.5 -104.5q-14 6 -17 27.5t11 34.5q166 2 279 76.5t113 187t-109 163t-258 50.5q-33 0 -12 55l75 217q6 18 11.5 24.5t21.5 8.5l350 43q14 -4 15 -10q-21 -60 -54 -101z" />
<glyph unicode="&#x215e;" horiz-adv-x="1597" d="M1272 805q109 0 178.5 -51.5t69.5 -145.5q0 -102 -152 -176q174 -88 174 -233q0 -100 -79 -156.5t-206 -56.5q-119 0 -198.5 50t-79.5 154q0 74 52 128.5t130 78.5v4q-66 27 -107.5 76t-41.5 113q0 96 74.5 155.5t185.5 59.5zM1219 373q-117 -45 -117 -176 q0 -61 47 -109.5t116.5 -48.5t112.5 39t43 100q1 132 -202 195zM1313 459q92 49 92 153q0 55 -40 97.5t-99 42.5q-61 0 -99.5 -38t-38.5 -96q1 -100 185 -159zM315 -29l893 1368q43 0 64 -47l-901 -1374q-52 0 -56 53zM532 1192h-251q-68 0 -93.5 -10.5t-50.5 -55.5 q-31 -14 -39 15q39 102 52 159q86 -4 147 -4h235q170 0 191 4q8 -2 8 -14q-59 -74 -131 -205l-352 -637q-18 -4 -38 4.5t-20 24.5l345 621q4 6 9 15t8 15t8 14.5t6 14.5t3 12t0 11.5t-6 8.5t-12.5 5t-18.5 2z" />
<glyph unicode="&#x2202;" horiz-adv-x="1011" d="M469 793q92 0 152.5 -27t148.5 -104q18 88 21 225q2 129 -26 232.5t-104.5 178t-195.5 74.5q-129 0 -258 -78q-23 -12 -33 -0.5t-10 43.5q0 57 39 82q76 43 203 43q133 0 237.5 -61.5t165.5 -162.5t92 -219t31 -243q0 -324 -105 -530q-66 -127 -152.5 -201t-223.5 -74 q-160 0 -264.5 117t-104.5 279q0 160 114.5 293t272.5 133zM524 719q-86 0 -151.5 -76t-94 -168t-28.5 -174q0 -98 47 -184t129 -86q55 0 101 26.5t80 78.5t57.5 101.5t42 127t26.5 118.5l21 111q-113 125 -230 125z" />
<glyph unicode="&#x220f;" horiz-adv-x="1619" d="M1087 1358h-555q-74 0 -88 -9.5t-14 -56.5v-1210q0 -164 19.5 -206t105.5 -50l59 -6q8 -6 7.5 -26.5t-11.5 -24.5q-166 6 -260 6q-39 0 -79 -1t-86 -3t-72 -2q-10 4 -11.5 22.5t7.5 28.5l34 6q84 14 101.5 53t17.5 203v1044q0 162 -20.5 207t-100.5 51l-53 5 q-8 6 -7 26.5t11 24.5q31 0 119 -3t139 -3h928q102 0 242 6q10 -4 11 -24.5t-7 -26.5l-43 -5q-86 -8 -104.5 -50t-18.5 -208v-1044q0 -166 18.5 -206t104.5 -50l49 -6q8 -6 7 -26.5t-11 -24.5q-147 6 -248 6q-113 0 -248 -6q-10 4 -11 22.5t7 28.5l39 6q92 14 108.5 52 t16.5 204v1210q0 47 -14.5 56.5t-88.5 9.5z" />
<glyph unicode="&#x2211;" horiz-adv-x="1400" d="M1167 1434l13 -293q-4 -14 -18.5 -14.5t-18.5 14.5q-16 63 -27.5 92t-41.5 66.5t-83 52t-135 14.5h-549l506 -696q29 -41 2 -74l-547 -666h752q104 0 151.5 41t98.5 162q6 14 22.5 14t20.5 -14q-20 -78 -80 -373q-10 0 -63.5 7.5t-79.5 7.5h-940q-6 0 -80 -4 q-12 -2 -16.5 12t7.5 31l592 708q29 33 2 68l-581 809q-10 14 -3 26.5t19 12.5q49 -4 150 -4h927z" />
<glyph unicode="&#x2212;" horiz-adv-x="1024" d="M907 471v-100h-788v100h788z" />
<glyph unicode="&#x221a;" horiz-adv-x="1124" d="M53 854l-33 68l310 151l393 -840l260 1645l72 -10l-307 -1946l-498 1028z" />
<glyph unicode="&#x221e;" horiz-adv-x="1562" d="M104 469q14 139 141.5 216t272.5 13q68 -31 116 -65.5t148 -126.5q100 92 148.5 127t116.5 65q145 63 272 -13.5t141 -215.5q12 -121 -77 -224.5t-224 -90.5q-59 6 -113.5 25.5t-97.5 48t-71.5 53t-58.5 54.5l-36 36l-36 -36q-30 -30 -58.5 -54.5t-71.5 -53t-97 -48 t-113 -25.5q-135 -12 -224.5 91t-77.5 224zM207 428q2 -88 76.5 -140t160.5 -32q55 12 98.5 36.5t69 47t103.5 98.5q-164 137 -244 166q-119 41 -192.5 -25.5t-71.5 -150.5zM1358 428q2 84 -72 150.5t-192 25.5q-80 -29 -244 -166l80 -77q16 -15 54 -44.5t65.5 -40 t70.5 -20.5q86 -20 161 32t77 140z" />
<glyph unicode="&#x222b;" horiz-adv-x="561" d="M389 795l-2 -398q-2 -354 -62.5 -527t-195.5 -173q-86 0 -119 82q-27 68 49 102q53 23 117 -37q51 -49 74 60q10 57 8 127q-12 412 -12 579v267q0 410 53 571q23 61 65 98t97 37q66 0 101.5 -35t35.5 -69q0 -33 -33 -57.5t-73 -24.5q-31 0 -60 24q-35 29 -57.5 20 t-24.5 -38q-2 -23 19.5 -244t19.5 -364z" />
<glyph unicode="&#x2248;" horiz-adv-x="1024" d="M858 721l64 -45q-76 -170 -222 -170q-82 0 -192 53l-28 13q-19 9 -26.5 13.5t-22.5 10.5t-24 9l-23 7q-13 4 -26.5 5t-25.5 1q-86 0 -174 -114l-62 51q84 166 248 166q72 0 211 -72q86 -43 150 -43q83 0 153 115zM858 408l64 -46q-76 -170 -226 -169q-78 0 -188 53 q-6 2 -26.5 12t-28 13t-23.5 11.5t-25.5 10.5t-23.5 6t-27.5 5t-27.5 1q-80 0 -168 -115l-62 52q84 166 242 166q74 0 209 -68q88 -47 158 -47q83 0 153 115z" />
<glyph unicode="&#x2260;" horiz-adv-x="1024" d="M119 625h475l129 196l78 -53l-94 -143h200v-101h-268l-137 -207h405v-100h-471l-131 -199l-78 54l97 145h-205v100h272l137 207h-409v101z" />
<glyph unicode="&#x2264;" horiz-adv-x="1024" d="M907 100v-100h-788v100h788zM115 672l796 379v-119l-649 -303v-4l649 -306v-116l-796 377v92z" />
<glyph unicode="&#x2265;" horiz-adv-x="1024" d="M113 1051l796 -379v-92l-796 -377v116l649 306v4l-649 303v119zM907 100v-100h-788v100h788z" />
<glyph unicode="&#x25ca;" horiz-adv-x="1060" d="M592 -82h-123l-397 782l397 764h123l397 -764zM866 700l-336 654l-335 -654l335 -671z" />
<glyph unicode="&#xe000;" horiz-adv-x="815" d="M0 815h815v-815h-815v815z" />
<glyph unicode="&#xe001;" horiz-adv-x="1710" d="M754 1352h514q246 0 276 6q4 -14 9 -62l12 -107q6 -60 10 -91q-10 -14 -37 -6q-20 82 -55 131t-113 65q-70 16 -201 17h-112q-82 0 -88 -27q-10 -41 -11 -150v-325q0 -49 9.5 -59.5t52.5 -10.5h115q143 0 188 15q39 12 57 77l21 78q6 4 19.5 4t17.5 -6q0 -16 -3 -86 t-3 -113t3 -112.5t3 -85.5q-4 -6 -17.5 -6t-19.5 4l-23 82q-18 59 -55 73q-57 20 -188 21h-115q-43 0 -52.5 -10.5t-9.5 -59.5v-289q0 -186 35 -225q41 -45 242 -47q197 -2 280.5 40t147.5 194q8 4 21.5 1t15.5 -12q-8 -57 -35 -147t-51 -129q-45 0 -135 1t-136 3 q-43 0 -129 1t-129 1h-194q-147 0 -289 -6q-20 12 -4 33l82 12q68 8 92 39q31 39 31 246v284q0 47 -10.5 58.5t-61.5 11.5h-194q-45 0 -60.5 -10.5t-36.5 -46.5q-127 -227 -237 -478q-37 -84 35 -98l100 -18q6 -4 5 -16.5t-7 -16.5q-70 6 -215 6q-96 0 -201 -6q-8 6 -9 17.5 t5 15.5l72 16q37 10 65.5 42t77.5 120l510 956q43 84 42 108.5t-46 33.5l-123 22q-18 20 2 33q111 -6 238 -6zM565 733h166q51 0 61.5 11.5t10.5 58.5v411q0 59 -6 76h-9q-16 -10 -47 -69q-170 -324 -221 -437q-16 -35 -9 -43t54 -8z" />
<glyph unicode="&#xe002;" horiz-adv-x="1249" d="M760 545h-342q-37 0 -46.5 -6.5t-19.5 -36.5l-108 -320q-23 -68 -23 -100.5t62 -42.5l75 -12q12 -18 -2 -33q-25 2 -202 6q-100 0 -193 -6q-16 12 -4 33l78 18q41 10 61.5 29.5t46.5 79.5q68 152 183 454l204 543q39 106 33 156q35 14 57.5 33.5t30.5 31.5t11 12 q20 0 26 -18l17 -50l35 -111l53 -158l268 -779q47 -137 76.5 -179t91.5 -52l61 -10q16 -14 -2 -33q-96 6 -237 6q-27 0 -224 -6q-18 14 -4 33l60 12q68 12 67 49q0 29 -26 109l-99 305q-10 31 -20 37t-45 6zM449 608h284q41 0 45 7.5t-10 48.5l-115 342q-41 129 -55 155 q0 -2 -14 -35l-33 -76q-18 -44 -35 -92l-106 -296q-14 -39 -9 -46.5t48 -7.5zM825 1567l-268 -121q-23 8 -12 31l225 186q23 23 41 23q25 0 43 -35q20 -43 10 -56q-4 -12 -39 -28z" />
<glyph unicode="&#xe003;" horiz-adv-x="1249" d="M760 545h-342q-37 0 -46.5 -6.5t-19.5 -36.5l-108 -320q-23 -68 -23 -100.5t62 -42.5l75 -12q12 -18 -2 -33q-25 2 -202 6q-100 0 -193 -6q-16 12 -4 33l78 18q41 10 61.5 29.5t46.5 79.5q68 152 183 454l204 543q39 106 33 156q35 14 57.5 33.5t30.5 31.5t11 12 q20 0 26 -18l17 -50l35 -111l53 -158l268 -779q47 -137 76.5 -179t91.5 -52l61 -10q16 -14 -2 -33q-96 6 -237 6q-27 0 -224 -6q-18 14 -4 33l60 12q68 12 67 49q0 29 -26 109l-99 305q-10 31 -20 37t-45 6zM449 608h284q41 0 45 7.5t-10 48.5l-115 342q-41 129 -55 155 q0 -2 -14 -35l-33 -76q-18 -44 -35 -92l-106 -296q-14 -39 -9 -46.5t48 -7.5zM624.5 1464q-192.5 0 -186.5 211q16 12 31 0q27 -127 156 -127q131 0 157 127q12 12 29 0q6 -211 -186.5 -211z" />
<glyph unicode="&#xe004;" horiz-adv-x="1249" d="M760 545h-342q-37 0 -46.5 -6.5t-19.5 -36.5l-108 -320q-23 -68 -23 -100.5t62 -42.5l75 -12q12 -18 -2 -33q-25 2 -202 6q-100 0 -193 -6q-16 12 -4 33l78 18q41 10 61.5 29.5t46.5 79.5q68 152 183 454l204 543q39 106 33 156q35 14 57.5 33.5t30.5 31.5t11 12 q20 0 26 -18l17 -50l35 -111l53 -158l268 -779q47 -137 76.5 -179t91.5 -52l61 -10q16 -14 -2 -33q-96 6 -237 6q-27 0 -224 -6q-18 14 -4 33l60 12q68 12 67 49q0 29 -26 109l-99 305q-10 31 -20 37t-45 6zM449 608h284q41 0 45 7.5t-10 48.5l-115 342q-41 129 -55 155 q0 -2 -14 -35l-33 -76q-18 -44 -35 -92l-106 -296q-14 -39 -9 -46.5t48 -7.5zM399 1473l201 188q35 35 68 0l198 -188q0 -20 -20 -25l-189 106q-25 16 -51 0l-184 -106q-23 0 -23 25z" />
<glyph unicode="&#xe005;" horiz-adv-x="1249" d="M760 545h-342q-37 0 -46.5 -6.5t-19.5 -36.5l-108 -320q-23 -68 -23 -100.5t62 -42.5l75 -12q12 -18 -2 -33q-25 2 -202 6q-100 0 -193 -6q-16 12 -4 33l78 18q41 10 61.5 29.5t46.5 79.5q68 152 183 454l204 543q39 106 33 156q35 14 57.5 33.5t30.5 31.5t11 12 q20 0 26 -18l17 -50l35 -111l53 -158l268 -779q47 -137 76.5 -179t91.5 -52l61 -10q16 -14 -2 -33q-96 6 -237 6q-27 0 -224 -6q-18 14 -4 33l60 12q68 12 67 49q0 29 -26 109l-99 305q-10 31 -20 37t-45 6zM449 608h284q41 0 45 7.5t-10 48.5l-115 342q-41 129 -55 155 q0 -2 -14 -35l-33 -76q-18 -44 -35 -92l-106 -296q-14 -39 -9 -46.5t48 -7.5zM467 1444q-76 0 -80 82q0 35 22.5 60.5t57.5 25.5t58.5 -25.5t23.5 -58.5q0 -35 -23.5 -59.5t-58.5 -24.5zM784 1444q-80 0 -84 82q0 35 24 60.5t60 25.5q35 0 56.5 -25.5t21.5 -58.5 q0 -37 -21.5 -60.5t-56.5 -23.5z" />
<glyph unicode="&#xe006;" horiz-adv-x="1249" d="M760 545h-342q-37 0 -46.5 -6.5t-19.5 -36.5l-108 -320q-23 -68 -23 -100.5t62 -42.5l75 -12q12 -18 -2 -33q-25 2 -202 6q-100 0 -193 -6q-16 12 -4 33l78 18q41 10 61.5 29.5t46.5 79.5q68 152 183 454l204 543q39 106 33 156q35 14 57.5 33.5t30.5 31.5t11 12 q20 0 26 -18l17 -50l35 -111l53 -158l268 -779q47 -137 76.5 -179t91.5 -52l61 -10q16 -14 -2 -33q-96 6 -237 6q-27 0 -224 -6q-18 14 -4 33l60 12q68 12 67 49q0 29 -26 109l-99 305q-10 31 -20 37t-45 6zM449 608h284q41 0 45 7.5t-10 48.5l-115 342q-41 129 -55 155 q0 -2 -14 -35l-33 -76q-18 -44 -35 -92l-106 -296q-14 -39 -9 -46.5t48 -7.5zM723 1448l-266 121q-33 12 -39 30q-8 16 16 54q25 35 41 35q12 0 41 -25l219 -184q8 -23 -12 -31z" />
<glyph unicode="&#xe007;" horiz-adv-x="1249" d="M760 545h-342q-37 0 -46.5 -6.5t-19.5 -36.5l-108 -320q-23 -68 -23 -100.5t62 -42.5l75 -12q12 -18 -2 -33q-25 2 -202 6q-100 0 -193 -6q-16 12 -4 33l78 18q41 10 61.5 29.5t46.5 79.5q68 152 183 454l204 543q39 106 33 156q35 14 57.5 33.5t30.5 31.5t11 12 q20 0 26 -18l17 -50l35 -111l53 -158l268 -779q47 -137 76.5 -179t91.5 -52l61 -10q16 -14 -2 -33q-96 6 -237 6q-27 0 -224 -6q-18 14 -4 33l60 12q68 12 67 49q0 29 -26 109l-99 305q-10 31 -20 37t-45 6zM449 608h284q41 0 45 7.5t-10 48.5l-115 342q-41 129 -55 155 q0 -2 -14 -35l-33 -76q-18 -44 -35 -92l-106 -296q-14 -39 -9 -46.5t48 -7.5zM811 1468h-350q-14 16 -14.5 45t14.5 46h350q14 -16 14 -45.5t-14 -45.5z" />
<glyph unicode="&#xe008;" horiz-adv-x="1249" d="M449 608h284q41 0 45 7.5t-10 48.5l-115 342q-41 129 -55 155q0 -2 -14 -35l-33 -76q-18 -44 -35 -92l-106 -296q-14 -39 -9 -46.5t48 -7.5zM760 545h-342q-37 0 -46.5 -6.5t-19.5 -36.5l-108 -320q-23 -68 -23 -100.5t62 -42.5l75 -12q12 -18 -2 -33q-25 2 -202 6 q-100 0 -193 -6q-16 12 -4 33l78 18q41 10 61.5 29.5t46.5 79.5q68 152 183 454l204 543q39 106 33 156q35 14 57.5 33.5t30.5 31.5t11 12q20 0 26 -18l17 -50l35 -111l53 -158l268 -779q47 -137 76.5 -179t91.5 -52l61 -10q16 -14 -2 -33q-96 6 -237 6h-47 q-31 -78 -31 -170q0 -70 39 -108.5t100 -36.5q35 0 78 14q14 -4 14 -23q-66 -82 -176 -82q-66 0 -114 40t-48 118q0 104 99 246q-55 0 -138 -4q-18 14 -4 33l60 12q68 12 67 49q0 29 -26 109l-99 305q-10 31 -20 37t-45 6z" />
<glyph unicode="&#xe009;" horiz-adv-x="1249" d="M760 545h-342q-37 0 -46.5 -6.5t-19.5 -36.5l-108 -320q-23 -68 -23 -100.5t62 -42.5l75 -12q12 -18 -2 -33q-25 2 -202 6q-100 0 -193 -6q-16 12 -4 33l78 18q41 10 61.5 29.5t46.5 79.5q68 152 183 454l204 543q39 106 33 156q35 14 57.5 33.5t30.5 31.5t11 12 q20 0 26 -18l17 -50l35 -111l53 -158l268 -779q47 -137 76.5 -179t91.5 -52l61 -10q16 -14 -2 -33q-96 6 -237 6q-27 0 -224 -6q-18 14 -4 33l60 12q68 12 67 49q0 29 -26 109l-99 305q-10 31 -20 37t-45 6zM449 608h284q41 0 45 7.5t-10 48.5l-115 342q-41 129 -55 155 q0 -2 -14 -35l-33 -76q-18 -44 -35 -92l-106 -296q-14 -39 -9 -46.5t48 -7.5zM630.5 1745q67.5 0 112.5 -45t45 -105q0 -61 -45 -105t-112.5 -44t-111.5 44t-44 105q0 59 44 104.5t111.5 45.5zM549 1595q0 -43 23.5 -70.5t58.5 -27.5t59.5 27.5t24.5 70.5q0 41 -24.5 69 t-59.5 28t-58.5 -28t-23.5 -69z" />
<glyph unicode="&#xe00a;" horiz-adv-x="1249" d="M760 545h-342q-37 0 -46.5 -6.5t-19.5 -36.5l-108 -320q-23 -68 -23 -100.5t62 -42.5l75 -12q12 -18 -2 -33q-25 2 -202 6q-100 0 -193 -6q-16 12 -4 33l78 18q41 10 61.5 29.5t46.5 79.5q68 152 183 454l204 543q39 106 33 156q35 14 57.5 33.5t30.5 31.5t11 12 q20 0 26 -18l17 -50l35 -111l53 -158l268 -779q47 -137 76.5 -179t91.5 -52l61 -10q16 -14 -2 -33q-96 6 -237 6q-27 0 -224 -6q-18 14 -4 33l60 12q68 12 67 49q0 29 -26 109l-99 305q-10 31 -20 37t-45 6zM449 608h284q41 0 45 7.5t-10 48.5l-115 342q-41 129 -55 155 q0 -2 -14 -35l-33 -76q-18 -44 -35 -92l-106 -296q-14 -39 -9 -46.5t48 -7.5zM588 1589h92q51 0 74.5 12.5t54.5 55.5q16 12 29 -6q-18 -78 -64 -123q-31 -29 -84 -29h-90q-55 0 -84 -19.5t-55 -68.5q-18 -10 -29 6q6 29 25.5 74t38.5 63q31 35 92 35z" />
<glyph unicode="&#xe00b;" horiz-adv-x="1212" d="M274 324v653q0 246 -28 280q-25 31 -70 39l-72 13q-16 16 2 32q240 16 408 17q254 0 365 -55q160 -80 159 -259q0 -180 -204 -280q-16 -23 32 -33q109 -23 193 -107.5t84 -232.5q0 -190 -134.5 -294.5t-398.5 -104.5q-27 0 -108 4q-78 4 -119 4q-113 0 -277 -6 q-16 14 -4 33l56 10q63 10 88 39q28 37 28 248zM430 649v-325q0 -180 37 -230q39 -55 182 -55q141 0 230.5 75.5t89.5 233.5q0 152 -91.5 252t-316.5 100q-92 0 -111.5 -8t-19.5 -43zM430 1221v-416q0 -41 13.5 -49t78.5 -8q182 0 265 61t83 209q0 150 -89 221.5t-226 71.5 q-100 0 -111 -21q-14 -18 -14 -69z" />
<glyph unicode="&#xe00c;" horiz-adv-x="1441" d="M885 1337q-258 0 -428 -163.5t-170 -475.5q0 -322 175 -503t437 -181q96 0 174 28t132.5 79t87 97t63.5 108q6 6 19.5 4t17.5 -11q-10 -76 -42 -163.5t-57 -122.5q-10 -2 -71 -19q-147 -47 -330 -47q-303 0 -502 139q-289 201 -289 572q0 166 71 303t187 229 q219 174 553 174q186 0 361 -41q35 -8 51 -6q0 -63 33 -293q-4 -6 -17.5 -7t-19.5 3q-80 297 -436 297z" />
<glyph unicode="&#xe00d;" horiz-adv-x="1441" d="M885 1337q-258 0 -428 -163.5t-170 -475.5q0 -322 175 -503t437 -181q96 0 174 28t132.5 79t87 97t63.5 108q6 6 19.5 4t17.5 -11q-10 -76 -42 -163.5t-57 -122.5q-10 -2 -71 -19q-147 -47 -330 -47q-303 0 -502 139q-289 201 -289 572q0 166 71 303t187 229 q219 174 553 174q186 0 361 -41q35 -8 51 -6q0 -63 33 -293q-4 -6 -17.5 -7t-19.5 3q-80 297 -436 297zM1024 1567l-268 -121q-23 8 -13 31l226 186q23 23 41 23q27 0 43 -35q20 -43 10 -56q-4 -12 -39 -28z" />
<glyph unicode="&#xe00e;" horiz-adv-x="1441" d="M885 1337q-258 0 -428 -163.5t-170 -475.5q0 -322 175 -503t437 -181q96 0 174 28t132.5 79t87 97t63.5 108q6 6 19.5 4t17.5 -11q-10 -76 -42 -163.5t-57 -122.5q-10 -2 -71 -19q-147 -47 -330 -47q-303 0 -502 139q-289 201 -289 572q0 166 71 303t187 229 q219 174 553 174q186 0 361 -41q35 -8 51 -6q0 -63 33 -293q-4 -6 -17.5 -7t-19.5 3q-80 297 -436 297zM829 1466l-198 193q0 23 22 22l187 -106q27 -14 51 0l188 106q18 -4 19 -22l-199 -193q-37 -33 -70 0z" />
<glyph unicode="&#xe00f;" horiz-adv-x="1441" d="M741 -178l93 149q-260 6 -443 135q-289 201 -289 572q0 166 71 303t187 229q219 174 553 174q186 0 361 -41q35 -8 51 -6q0 -63 33 -293q-4 -6 -17.5 -7t-19.5 3q-80 297 -436 297q-258 0 -428 -163.5t-170 -475.5q0 -322 175 -503t437 -181q96 0 174 28t132.5 79t87 97 t63.5 108q6 6 19.5 4t17.5 -11q-10 -76 -42 -163.5t-57 -122.5q-10 -2 -71 -19q-147 -47 -330 -47h-4l-47 -78q-10 -16 12 -30q82 -55 82 -125q0 -53 -51 -93t-117 -40q-94 0 -94 57q0 14 11 27.5t30 13.5q16 0 44.5 -23.5t39.5 -23.5q45 0 45 51q0 31 -29 61.5t-74 47.5v10 z" />
<glyph unicode="&#xe010;" horiz-adv-x="1613" d="M274 326v673q0 213 -34 263q-23 29 -80 41l-27 6q-6 2 -6 15t8 17q272 16 500 17q276 0 465 -66q197 -70 304 -234.5t107 -361.5q0 -201 -91 -362.5t-269 -253.5q-184 -96 -475 -96q-63 0 -174 8t-140 8q-160 0 -258 -6q-8 2 -9 13t5 20l52 10q78 16 96 43q26 39 26 246z M430 1102v-735q0 -193 39 -250q63 -86 246 -86q307 0 459.5 175t152.5 482q0 78 -16.5 155t-61.5 164t-115.5 152.5t-192.5 108.5t-277 43q-176 0 -211 -31q-23 -22 -23 -178z" />
<glyph unicode="&#xe011;" horiz-adv-x="1613" d="M274 326v673q0 213 -34 263q-23 29 -80 41l-27 6q-6 2 -6 15t8 17q272 16 500 17q276 0 465 -66q197 -70 304 -234.5t107 -361.5q0 -201 -91 -362.5t-269 -253.5q-184 -96 -475 -96q-63 0 -174 8t-140 8q-160 0 -258 -6q-8 2 -9 13t5 20l52 10q78 16 96 43q26 39 26 246z M430 1102v-735q0 -193 39 -250q63 -86 246 -86q307 0 459.5 175t152.5 482q0 78 -16.5 155t-61.5 164t-115.5 152.5t-192.5 108.5t-277 43q-176 0 -211 -31q-23 -22 -23 -178zM758 1466l-199 193q0 23 23 22l186 -106q27 -14 51 0l189 106q18 -4 18 -22l-199 -193 q-36 -33 -69 0z" />
<glyph unicode="&#xe012;" horiz-adv-x="1626" d="M274 326v350h-178q-10 12 -10 30.5t10 28.5h178v264q0 213 -34 263q-23 29 -80 41l-27 6q-6 2 -6 15t8 17q272 16 500 17q276 0 465 -66q197 -70 304 -234.5t107 -361.5q0 -201 -91 -362.5t-269 -253.5q-184 -96 -475 -96q-63 0 -174 8t-140 8q-160 0 -258 -6q-8 2 -9 13 t5 20l52 10q78 16 96 43q26 39 26 246zM430 1102v-367h305q16 -25 0 -59h-305v-309q0 -193 39 -250q63 -86 246 -86q307 0 459.5 175t152.5 482q0 78 -16.5 155t-61.5 164t-115.5 152.5t-192.5 108.5t-277 43q-176 0 -211 -31q-23 -22 -23 -178z" />
<glyph unicode="&#xe013;" horiz-adv-x="1181" d="M274 324v704q0 199 -28 242q-25 33 -94 47l-39 8q-14 18 4 33q23 0 64.5 -1t62.5 -3q18 0 58 -1t60 -1h377q246 0 277 6q4 -14 9 -62l11 -107q6 -60 11 -91q-10 -14 -37 -6q-20 82 -55 131t-113 65q-70 16 -201 17h-113q-82 0 -88 -27q-10 -41 -10 -150v-325 q0 -49 9.5 -59.5t52.5 -10.5h114q143 0 189 15q39 12 57 77l20 78q6 4 19.5 4t17.5 -6q0 -16 -3 -86t-3 -113t3 -112.5t3 -85.5q-4 -6 -17 -6t-20 4l-22 82q-18 59 -55 73q-57 20 -189 21h-114q-43 0 -52.5 -10.5t-9.5 -59.5v-289q0 -186 35 -225q41 -45 242 -47 q197 -2 280.5 40t147.5 194q8 4 21 1t15 -12q-8 -57 -34.5 -147t-51.5 -129q-45 0 -135 1t-135 3q-43 0 -129 1t-129 1h-195q-147 0 -288 -6q-20 12 -4 33l82 12q68 8 92 39q30 39 30 246z" />
<glyph unicode="&#xe014;" horiz-adv-x="1181" d="M274 324v704q0 199 -28 242q-25 33 -94 47l-39 8q-14 18 4 33q23 0 64.5 -1t62.5 -3q18 0 58 -1t60 -1h377q246 0 277 6q4 -14 9 -62l11 -107q6 -60 11 -91q-10 -14 -37 -6q-20 82 -55 131t-113 65q-70 16 -201 17h-113q-82 0 -88 -27q-10 -41 -10 -150v-325 q0 -49 9.5 -59.5t52.5 -10.5h114q143 0 189 15q39 12 57 77l20 78q6 4 19.5 4t17.5 -6q0 -16 -3 -86t-3 -113t3 -112.5t3 -85.5q-4 -6 -17 -6t-20 4l-22 82q-18 59 -55 73q-57 20 -189 21h-114q-43 0 -52.5 -10.5t-9.5 -59.5v-289q0 -186 35 -225q41 -45 242 -47 q197 -2 280.5 40t147.5 194q8 4 21 1t15 -12q-8 -57 -34.5 -147t-51.5 -129q-45 0 -135 1t-135 3q-43 0 -129 1t-129 1h-195q-147 0 -288 -6q-20 12 -4 33l82 12q68 8 92 39q30 39 30 246zM793 1567l-269 -121q-23 8 -12 31l225 186q23 23 41 23q25 0 43 -35q20 -43 10 -56 q-3 -12 -38 -28z" />
</font>
</defs>
</svg>
