<?xml version="1.0" standalone="no"?>
<!DOCTYPE svg PUBLIC "-//W3C//DTD SVG 1.1//EN" "http://www.w3.org/Graphics/SVG/1.1/DTD/svg11.dtd" >
<svg xmlns="http://www.w3.org/2000/svg">
<metadata>
This is a custom SVG webfont generated by Font Squirrel.
Copyright   : Copyright  2000 2001 Adobe Systems Incorporated All Rights Reserved US Patent Des 318290 and 327903
Designer    : Robert Slimbach
Foundry URL : httpwwwadobecomtype
</metadata>
<defs>
<font id="webfontgs5HSxST" horiz-adv-x="819" >
<font-face units-per-em="2048" ascent="1485" descent="-563" />
<missing-glyph horiz-adv-x="491" />
<glyph unicode="Th" horiz-adv-x="2260" d="M543 295v903q0 39 -7.5 49t-41.5 10h-148q-104 0 -152.5 -51t-101.5 -180q-18 -10 -42.5 -5t-33.5 23q18 63 31.5 128t24 134.5t12.5 86.5q14 10 29 10q18 0 28 -8q8 -29 35 -36t137 -7h803q180 0 195 28v21l237 63q23 0 35 -14q-6 -127 -6 -299v-377q0 -25 14 -24 q6 0 33 16q121 82 236 82q123 0 190.5 -73t67.5 -185v-352q0 -106 13 -134t69 -34l32 -4q12 -8 12.5 -36t-14.5 -36q-96 6 -248 6q-154 0 -221 -6q-14 8 -14 35.5t12 36.5l37 6q37 6 46 28.5t9 106.5v354q0 59 -35.5 98t-107.5 39q-80 0 -115 -49q-16 -18 -16 -76v-366 q0 -84 9 -106.5t46 -28.5l37 -6q12 -8 12 -36t-14 -36q-94 6 -227 6q-135 0 -240 -6q-14 8 -14 35.5t12 36.5l37 4q51 6 63.5 33.5t12.5 134.5v852q0 98 -49.5 132.5t-217.5 34.5h-153q-37 0 -46 -10t-9 -49v-903q0 -141 17 -175t87 -44l82 -10q10 -8 10 -35t-10 -37 q-199 6 -328 6q-133 0 -348 -6q-12 10 -12 36.5t12 35.5l92 10q70 8 87.5 43t17.5 176z" />
<glyph unicode="&#x164;h" horiz-adv-x="2260" d="M543 295v903q0 39 -7.5 49t-41.5 10h-148q-104 0 -152.5 -51t-101.5 -180q-18 -10 -42.5 -5t-33.5 23q18 63 31.5 128t24 134.5t12.5 86.5q14 10 29 10q18 0 28 -8q8 -29 35 -36t137 -7h803q180 0 195 28v21l237 63q23 0 35 -14q-6 -127 -6 -299v-377q0 -25 14 -24 q6 0 33 16q121 82 236 82q123 0 190.5 -73t67.5 -185v-352q0 -106 13 -134t69 -34l32 -4q12 -8 12.5 -36t-14.5 -36q-96 6 -248 6q-154 0 -221 -6q-14 8 -14 35.5t12 36.5l37 6q37 6 46 28.5t9 106.5v354q0 59 -35.5 98t-107.5 39q-80 0 -115 -49q-16 -18 -16 -76v-366 q0 -84 9 -106.5t46 -28.5l37 -6q12 -8 12 -36t-14 -36q-94 6 -227 6q-135 0 -240 -6q-14 8 -14 35.5t12 36.5l37 4q51 6 63.5 33.5t12.5 134.5v852q0 98 -49.5 132.5t-217.5 34.5h-153q-37 0 -46 -10t-9 -49v-903q0 -141 17 -175t87 -44l82 -10q10 -8 10 -35t-10 -37 q-199 6 -328 6q-133 0 -348 -6q-12 10 -12 36.5t12 35.5l92 10q70 8 87.5 43t17.5 176zM397 1753l248 -102q41 -16 72 -2l246 104q14 0 22 -17.5t4 -35.5l-264 -240q-47 -41 -90 0l-262 240q-2 18 6 34.5t18 18.5z" />
<glyph unicode="ffj" horiz-adv-x="1714" d="M121 709h-76q-8 6 -11 26.5t5 28.5l88 45q45 25 45 53q0 162 57 287q123 266 422 266q174 0 248 -72q121 121 340 121q152 0 246 -60.5t94 -150.5q0 -61 -43 -97t-102 -36q-66 0 -93 43q-8 12 -26.5 51t-28.5 56q-53 92 -127 92q-39 0 -69.5 -28.5t-54 -117t-23.5 -231.5 v-115q0 -39 7 -45t46 -6h158q266 0 338 17q33 0 34 -31q-10 -109 -10 -236v-331v-129q0 -221 -43 -330q-45 -117 -134 -191.5t-278 -138.5q-23 8 -30.5 30.5t2.5 37.5q63 33 100 73q117 117 117 476v172v292q0 121 -16.5 150t-90.5 29h-147q-37 0 -45 -8.5t-8 -49.5v-413 q0 -111 12 -137.5t63 -34.5l27 -5q12 -8 12 -33.5t-14 -33.5q-88 6 -238 6q-123 0 -221 -6q-14 8 -14 33.5t12 33.5l33 5q41 4 51 32.5t10 139.5v413q0 41 -7 49.5t-44 8.5h-202q-37 0 -48.5 -9.5t-5.5 -48.5v-413q0 -111 12.5 -137.5t63.5 -34.5l27 -5q12 -8 12 -33.5 t-14 -33.5q-88 6 -238 6q-137 0 -235 -6q-14 8 -14.5 33.5t11.5 33.5l33 5q51 6 63.5 33.5t12.5 138.5v413q0 41 -7 49.5t-44 8.5zM492 819h208q29 0 37 8.5t8 34.5q0 162 41 303q-14 59 -52 107.5t-99 48.5q-80 0 -138.5 -94t-58.5 -332v-18q0 -41 7.5 -49.5t46.5 -8.5z " />
<glyph unicode="fj" horiz-adv-x="1140" d="M172 238v413q0 41 -7 49.5t-44 8.5h-76q-8 6 -11 26.5t5 28.5l88 45q45 25 45 53q0 199 64 334q125 268 430 268q152 0 246 -60.5t94 -150.5q0 -61 -43 -97t-103 -36q-66 0 -92 43q-8 12 -26.5 51t-28.5 56q-53 92 -127 92q-39 0 -70 -28.5t-54.5 -117t-23.5 -231.5v-115 q0 -39 7.5 -45t46.5 -6h157q266 0 338 17q33 0 35 -31q-10 -109 -10 -236v-331v-129q0 -221 -43 -330q-45 -117 -134.5 -191.5t-277.5 -138.5q-23 8 -31 30.5t2 37.5q63 33 101 73q117 117 116 476v172v292q0 121 -16 150t-90 29h-147q-37 0 -45.5 -7.5t-8.5 -46.5v-417 q0 -111 12.5 -137.5t63.5 -34.5l27 -5q12 -8 12 -33.5t-14 -33.5q-88 6 -238 6q-137 0 -235 -6q-14 8 -14.5 33.5t11.5 33.5l33 5q51 6 63.5 33.5t12.5 138.5z" />
<glyph unicode="&#xfb00;" horiz-adv-x="1210" d="M121 709h-76q-8 6 -11 26.5t5 28.5l88 45q45 25 45 53q0 162 57 287q123 266 420 266q166 0 240 -72q104 121 315 121q94 0 167 -46t73 -122q0 -51 -33 -80.5t-86 -29.5q-49 0 -82 37q-106 135 -145 135q-86 0 -86 -250v-231q0 -41 7 -49.5t46 -8.5h195q14 -8 14 -41 q0 -51 -27 -69h-182q-39 0 -46 -8.5t-7 -49.5v-413q0 -111 12 -138.5t63 -31.5l68 -7q12 -8 12 -33.5t-14 -33.5q-145 6 -274 6q-127 0 -226 -6q-14 8 -14 33.5t12 33.5l33 5q41 4 51 32.5t10 139.5v413q0 41 -7 49.5t-44 8.5h-202q-37 0 -48.5 -9.5t-5.5 -48.5v-413 q0 -111 12.5 -137.5t63.5 -34.5l27 -5q12 -8 12 -33.5t-14 -33.5q-88 6 -238 6q-137 0 -235 -6q-14 8 -14.5 33.5t11.5 33.5l33 5q51 6 63.5 33.5t12.5 138.5v413q0 41 -7 49.5t-44 8.5zM492 819h208q29 0 37 8.5t8 34.5q0 162 41 303q-14 59 -52 107.5t-99 48.5 q-80 0 -138.5 -94t-58.5 -332v-18q0 -41 7.5 -49.5t46.5 -8.5z" />
<glyph unicode="&#xfb01;" horiz-adv-x="1159" d="M172 238v413q0 41 -7 49.5t-44 8.5h-76q-8 6 -11 26.5t5 28.5l88 45q45 25 45 53q0 199 64 334q125 268 430 268q152 0 246 -60.5t94 -150.5q0 -61 -43 -97t-103 -36q-66 0 -92 43q-8 12 -26.5 51t-28.5 56q-53 92 -127 92q-39 0 -70 -28.5t-54.5 -117t-23.5 -231.5v-115 q0 -39 7.5 -45t46.5 -6h157q266 0 338 17q33 0 35 -31q-10 -109 -10 -236v-331q0 -111 12 -138.5t63 -33.5l33 -5q12 -8 12.5 -33.5t-14.5 -33.5q-98 6 -239 6q-127 0 -226 -6q-14 8 -14 33.5t12 33.5l33 5q41 4 51 32.5t10 139.5v292q0 121 -16 150t-90 29h-147 q-37 0 -45.5 -7.5t-8.5 -46.5v-417q0 -111 12.5 -137.5t63.5 -34.5l27 -5q12 -8 12 -33.5t-14 -33.5q-88 6 -238 6q-137 0 -235 -6q-14 8 -14.5 33.5t11.5 33.5l33 5q51 6 63.5 33.5t12.5 138.5z" />
<glyph unicode="&#xfb02;" horiz-adv-x="1159" d="M121 709h-76q-8 6 -11 26.5t5 28.5l88 45q45 25 45 53q0 219 61 350q53 113 154.5 182.5t241.5 69.5q131 0 219 -61q66 23 135 61q23 0 35 -14q-6 -127 -6 -299v-913q0 -106 12 -134t63 -34l33 -4q12 -8 12.5 -36t-14.5 -36q-98 6 -239 6q-127 0 -226 -6q-14 8 -14 33.5 t12 33.5l33 5q41 4 51 32.5t10 139.5v419q0 37 -8 44.5t-47 7.5h-198q-39 0 -46.5 -8.5t-7.5 -49.5v-413q0 -111 12.5 -137.5t63.5 -34.5l27 -5q12 -8 12 -33.5t-14 -33.5q-88 6 -238 6q-137 0 -235 -6q-14 8 -14.5 35.5t11.5 36.5l33 4q51 6 63.5 33.5t12.5 134.5v413 q0 41 -7 49.5t-44 8.5zM492 819h198q39 0 47 7.5t8 43.5v330q0 57 -36.5 111.5t-100.5 54.5q-33 0 -60.5 -20.5t-53 -66.5t-41 -137t-15.5 -218v-47q0 -41 7.5 -49.5t46.5 -8.5z" />
<glyph unicode="&#xfb03;" horiz-adv-x="1732" d="M121 709h-76q-8 6 -11 26.5t5 28.5l88 45q45 25 45 53q0 162 57 287q123 266 422 266q174 0 248 -72q121 121 340 121q152 0 246 -60.5t94 -150.5q0 -61 -43 -97t-102 -36q-66 0 -93 43q-8 12 -26.5 51t-28.5 56q-53 92 -127 92q-39 0 -69.5 -28.5t-54 -117t-23.5 -231.5 v-115q0 -39 7 -45t46 -6h158q266 0 338 17q33 0 34 -31q-10 -109 -10 -236v-331q0 -111 12.5 -138.5t63.5 -33.5l33 -5q12 -8 12 -33.5t-14 -33.5q-94 6 -240 6q-127 0 -225 -6q-14 8 -14.5 33.5t12.5 33.5l32 5q41 4 51.5 32.5t10.5 139.5v292q0 121 -16.5 150t-90.5 29 h-147q-37 0 -45 -8.5t-8 -49.5v-413q0 -111 12 -137.5t63 -34.5l27 -5q12 -8 12 -33.5t-14 -33.5q-88 6 -238 6q-123 0 -221 -6q-14 8 -14 33.5t12 33.5l33 5q41 4 51 32.5t10 139.5v413q0 41 -7 49.5t-44 8.5h-202q-37 0 -48.5 -9.5t-5.5 -48.5v-413q0 -111 12.5 -137.5 t63.5 -34.5l27 -5q12 -8 12 -33.5t-14 -33.5q-88 6 -238 6q-137 0 -235 -6q-14 8 -14.5 33.5t11.5 33.5l33 5q51 6 63.5 33.5t12.5 138.5v413q0 41 -7 49.5t-44 8.5zM492 819h208q29 0 37 8.5t8 34.5q0 162 41 303q-14 59 -52 107.5t-99 48.5q-80 0 -138.5 -94t-58.5 -332 v-18q0 -41 7.5 -49.5t46.5 -8.5z" />
<glyph unicode="&#xfb04;" horiz-adv-x="1732" d="M121 709h-76q-8 6 -11 26.5t5 28.5l88 45q45 25 45 53q0 162 57 287q123 266 420 266q166 0 240 -72q39 43 122 82t187 39q135 0 223 -61q66 23 135 61q23 0 35 -14q-6 -127 -6 -299v-913q0 -106 12.5 -134t63.5 -34l33 -4q12 -8 12 -36t-14 -36q-98 6 -240 6 q-127 0 -225 -6q-14 8 -14.5 33.5t12.5 33.5l32 5q41 4 51.5 32.5t10.5 139.5v419q0 37 -8 44.5t-47 7.5h-199q-39 0 -46 -8.5t-7 -49.5v-413q0 -111 12 -137.5t63 -34.5l27 -5q12 -8 12 -33.5t-14 -33.5q-88 6 -238 6q-137 0 -235 -6q-14 8 -14 35.5t12 36.5l33 4 q51 6 63 33.5t12 134.5v413q0 41 -7 49.5t-44 8.5h-202q-37 0 -48.5 -9.5t-5.5 -48.5v-413q0 -111 12.5 -137.5t63.5 -34.5l27 -5q12 -8 12 -33.5t-14 -33.5q-88 6 -238 6q-137 0 -235 -6q-14 8 -14.5 33.5t11.5 33.5l33 5q51 6 63.5 33.5t12.5 138.5v413q0 41 -7 49.5 t-44 8.5zM492 819h208q29 0 37 8.5t8 34.5q0 162 41 303q-14 59 -52 107.5t-99 48.5q-80 0 -138.5 -94t-58.5 -332v-18q0 -41 7.5 -49.5t46.5 -8.5zM1065 819h199q39 0 47 7.5t8 43.5v330q0 57 -37 111.5t-100 54.5q-33 0 -60.5 -20.5t-53.5 -66.5t-41 -137t-15 -218v-47 q0 -41 7 -49.5t46 -8.5z" />
<glyph unicode=" "  horiz-adv-x="491" />
<glyph unicode="&#x09;" horiz-adv-x="491" />
<glyph unicode="&#xa0;" horiz-adv-x="491" />
<glyph unicode="!" horiz-adv-x="520" d="M260 1323q84 0 124 -19.5t40 -68.5q0 -10 -33 -240l-86 -575q-18 -12 -45 -12t-45 12l-86 575q-33 229 -33 240q0 49 40 68.5t124 19.5zM260 -29q-66 0 -116 47.5t-50 119t48 120.5t118 49q72 0 119 -51t47 -119q0 -72 -46 -119t-120 -47z" />
<glyph unicode="&#x22;" horiz-adv-x="966" d="M278.5 1434q73.5 0 102.5 -12.5t29 -57.5q0 -23 -17 -117l-76 -420q-39 -29 -77 0l-76 420q-16 94 -17 117q0 45 29 57.5t102.5 12.5zM688 1434q74 0 102.5 -12.5t28.5 -57.5q0 -23 -16 -117l-76 -420q-39 -29 -78 0l-76 420q-16 94 -16 117q0 45 28.5 57.5t102.5 12.5z " />
<glyph unicode="#" horiz-adv-x="1044" d="M655 668h-196l-82 -301h198zM987 668h-203l-82 -301h181l-23 -131h-192l-103 -373h-123l99 373h-199l-102 -373h-121l98 373h-201l23 131h213l80 301h-203l25 133h213l88 334h131l-90 -334h194l88 334h133l-90 -334h185z" />
<glyph unicode="$" horiz-adv-x="944" d="M455 584l34 231q-172 -2 -172 -117q1 -73 138 -114zM506 336l-43 -275q80 4 129 38t49 91q0 101 -135 146zM580 807l-39 -248l22 -6q311 -84 311 -295q0 -131 -111.5 -206t-313.5 -79l-23 -147q-8 -10 -45 -10t-45 10l24 149q-133 10 -235 68q-55 49 -55 262 q12 16 35.5 16.5t33.5 -14.5q25 -80 85.5 -147.5t150.5 -89.5l45 292l-10 3q-135 27 -218 93t-83 173q0 127 103 199.5t292 74.5l18 115q8 16 45 16t45 -16l-18 -119q43 -4 116.5 -20.5t80.5 -18.5q39 -80 36 -241q-8 -14 -33.5 -15.5t-35.5 12.5q-49 156 -178 189z" />
<glyph unicode="%" horiz-adv-x="1724" d="M1306.5 -25q-159.5 0 -239.5 105.5t-80 232.5t80 232.5t239.5 105.5t239.5 -105.5t80 -232.5t-80 -232.5t-239.5 -105.5zM1190 315q0 -270 121 -270q113 0 112 270q0 266 -112 267q-121 -1 -121 -267zM418 434q-147 0 -233.5 95.5t-86.5 242.5q0 127 80 232.5t240 105.5 t239.5 -105.5t79.5 -232.5q0 -125 -79.5 -231.5t-239.5 -106.5zM299 774q0 -270 123 -270q113 0 113 270q0 266 -113 266q-117 0 -123 -266zM545 -74q-27 -4 -52.5 8.5t-33.5 32.5l708 1168q25 4 52.5 -8.5t35.5 -34.5z" />
<glyph unicode="&#x26;" horiz-adv-x="1689" d="M641 1311q145 0 232.5 -78t87.5 -197q0 -27 -6.5 -51t-14.5 -43.5t-23.5 -38l-26.5 -31t-31.5 -28t-31.5 -21.5l-30 -18q-20 -12 -25 -14q143 -76 305 -287q61 106 109 217q51 117 51 143.5t-55 36.5l-37 6q-14 8 -12 37t18 35h84q84 0 403 12q16 -6 18.5 -33.5 t-14.5 -37.5l-55 -9q-78 -12 -137 -61q-33 -25 -154 -205l-122 -186q-25 -35 -29 -53h4q0 4 2 0l11 -22q9 -17 22 -38q8 -10 39.5 -56t48 -62.5t50.5 -45t74 -40t91 -11.5q102 0 184 55q12 -4 20.5 -20t4.5 -31q-51 -61 -156.5 -112.5t-251.5 -51.5q-100 0 -165.5 26 t-88.5 62q-4 8 -18.5 29t-27.5 42.5t-21 41.5q-104 -100 -194.5 -150.5t-219.5 -50.5q-201 0 -319.5 102.5t-118.5 264.5q0 84 32.5 155.5t87 120t101.5 77t96 48.5q-133 104 -133 246q0 147 104.5 236.5t237.5 89.5zM387 416q0 -127 80 -203t197 -76q68 0 130 32t89.5 61.5 t27.5 35.5q0 2 -32 60q-104 178 -306 307q-43 29 -49 29q-10 0 -39.5 -26t-63.5 -86t-34 -134zM768 1065q0 63 -31.5 109.5t-91.5 46.5q-53 0 -88 -43t-35 -107q0 -51 21.5 -94t51.5 -68.5t52.5 -40t32.5 -16.5q23 8 55.5 71.5t32.5 141.5z" />
<glyph unicode="'" horiz-adv-x="518" d="M260 1434q74 0 102.5 -12.5t28.5 -57.5q0 -23 -16 -117l-76 -420q-39 -29 -78 0l-76 420q-16 94 -16 117q0 45 28.5 57.5t102.5 12.5z" />
<glyph unicode="(" horiz-adv-x="696" d="M371 553q0 -246 74.5 -477.5t230.5 -370.5q0 -37 -35 -39q-229 125 -349 367.5t-120 519t120 519.5t349 368q35 -2 35 -39q-156 -139 -230.5 -370.5t-74.5 -477.5z" />
<glyph unicode=")" horiz-adv-x="696" d="M326 553q0 246 -75 477.5t-231 370.5q0 37 35 39q229 -125 349 -368t120 -519.5t-119.5 -519t-349.5 -367.5q-35 2 -35 39q156 139 231 370.5t75 477.5z" />
<glyph unicode="*" horiz-adv-x="829" d="M473 1104l254 135q16 -4 26.5 -22.5t6.5 -40.5l-234 -164l232 -160q10 -43 -29 -64l-256 132l-27 -271q-8 -8 -30.5 -8t-32.5 8l-27 271l-260 -132q-14 6 -22 23.5t-4 34.5l235 166l-235 166q-4 16 4 33.5t22 25.5l260 -133l27 272q35 20 63 0z" />
<glyph unicode="+" horiz-adv-x="1064" d="M625 0h-181v362h-321v148h321v326h181v-326h319v-148h-319v-362z" />
<glyph unicode="," horiz-adv-x="532" d="M238 344q78 0 144.5 -66.5t66.5 -197.5q0 -143 -95.5 -234.5t-240.5 -124.5q-27 2 -34 29t11 37q72 27 127 79t55 120q0 100 -118 133q-63 18 -64 92q0 55 43.5 94t104.5 39z" />
<glyph unicode="-" horiz-adv-x="671" d="M92 485l490 45q29 -33 28 -86q0 -47 -26 -79l-492 -46q-31 31 -31 82q0 45 31 84z" />
<glyph unicode="." horiz-adv-x="532" d="M266 -29q-66 0 -116 47.5t-50 119t48.5 120.5t117.5 49q72 0 119 -51t47 -119q0 -72 -46 -119t-120 -47z" />
<glyph unicode="/" horiz-adv-x="694" d="M653 1384l-428 -1417h-184l428 1417h184z" />
<glyph unicode="0" horiz-adv-x="1105" d="M553 905q213 0 346 -133t133 -333.5t-133 -334t-346 -133.5t-346 133.5t-133 334t133 333.5t346 133zM301 438.5q0 -143.5 70.5 -229.5t181.5 -86t181.5 86t70.5 229.5t-70.5 229.5t-181.5 86t-181.5 -86t-70.5 -229.5z" />
<glyph unicode="1" horiz-adv-x="794" d="M262 264v348q0 115 -19.5 151t-84.5 44l-64 8q-12 10 -11 36t15 32q115 -6 295 -6q195 0 299 6q14 -6 15.5 -32t-11.5 -36l-63 -8q-66 -8 -85.5 -44t-19.5 -151v-348q0 -115 19.5 -149.5t85.5 -42.5l84 -11q12 -10 11 -35.5t-15 -31.5q-115 6 -320 6q-201 0 -315 -6 q-14 6 -15.5 31.5t11.5 35.5l84 11q66 8 85 42.5t19 149.5z" />
<glyph unicode="2" horiz-adv-x="995" d="M502 186h168q113 0 170 18.5t100 92.5q39 20 70 -14q-27 -55 -70 -157.5t-57 -131.5q-160 6 -254 6h-320q-174 0 -225 -6q-27 14 -14 47q109 66 264 213q154 145 153 301q0 84 -42 132t-113 48q-119 0 -215 -166q-20 -6 -40 7.5t-22 35.5q61 137 169 215t241 78 q150 0 234.5 -77.5t84.5 -202.5q0 -51 -18 -97.5t-60 -93.5t-73 -75.5t-91 -78.5l-83 -69q2 -25 43 -25z" />
<glyph unicode="3" horiz-adv-x="851" d="M485 35q0 164 -88 237q-41 31 -88 31q-55 0 -133 -65q-27 -2 -41 30.5t-2 67.5q57 23 86 36t78 41.5t73.5 55.5t45 68t20.5 90q0 53 -32.5 91t-86.5 38q-86 0 -174 -140q-25 -6 -44 9.5t-19 42.5q53 102 144 169.5t216 67.5t201 -63.5t76 -167.5q0 -119 -172 -203 q-29 -12 -29 -31q0 -12 35 -22q98 -25 152.5 -97.5t54.5 -168.5q0 -225 -230 -394q-88 -66 -190 -104.5t-176 -38.5q-47 0 -73 29.5t-26 66.5q0 63 50 64q8 0 60 -10.5t89 -10.5q223 0 223 281z" />
<glyph unicode="4" horiz-adv-x="1069" d="M1014 27h-164q-35 0 -41 -9.5t-6 -54.5v-325q-12 -18 -129 -19q-100 0 -115 19v325q0 45 -6 54.5t-39 9.5h-457q-27 20 -20 63l125 146q37 41 278 339l260 322q41 8 45 8q37 0 58 -39v-659q0 -43 6 -50t41 -7h172q23 -16 22 -50q1 -59 -30 -73zM285 150h229q33 0 39 7 t6 50v352h-4l-295 -373q-10 -12 -2.5 -24t27.5 -12z" />
<glyph unicode="5" horiz-adv-x="837" d="M612 662l-276 -29q-55 -6 -72.5 -14.5t-17.5 -26.5q0 -31 143 -96q303 -137 303 -396q0 -88 -38 -166.5t-96 -132t-135 -97.5t-145.5 -69.5t-134.5 -40.5q-25 4 -32 31t8 41q53 18 103 43t106.5 67t91.5 103.5t35 132.5q0 164 -191 262q-152 82 -151 191q0 86 64.5 219 t117.5 152q39 14 133 24l213 23q80 6 113 28q14 0 24 -8t8 -18q-68 -211 -174 -223z" />
<glyph unicode="6" horiz-adv-x="1071" d="M1053 1309q10 -6 12 -26.5t-4 -29.5l-136 -58q-40 -17 -123 -66.5t-147 -106.5q-274 -242 -274 -616q0 -154 56.5 -247t142.5 -93q66 0 107.5 51t41.5 164q0 135 -53 233t-148 98q-8 0 -28 -4q-12 8 -16.5 26.5t5.5 31.5q109 70 216 69q127 0 209.5 -93t82.5 -241 q0 -197 -135 -313.5t-327 -116.5q-209 0 -326 123t-117 336q0 186 85 349t223.5 272.5t308.5 177.5t344 80z" />
<glyph unicode="7" horiz-adv-x="1032" d="M348 877h359q276 0 299 6q18 -8 14 -33q-76 -102 -281 -453l-475 -800q-2 -2 -26.5 -2.5t-49 17t-32.5 42.5l506 840q59 98 59 139q0 31 -55 31h-349q-96 0 -135 -23t-84 -96q-18 -8 -37.5 3t-23.5 27q63 131 104 308q64 -6 207 -6z" />
<glyph unicode="8" horiz-adv-x="976" d="M502 1272q180 0 282.5 -85t102.5 -235q0 -174 -223 -295q227 -150 227 -352q0 -147 -107.5 -240.5t-310.5 -93.5q-166 0 -276.5 80t-110.5 232q0 193 233 325q-215 127 -215 316q0 150 110 249t288 99zM432 528q-102 -92 -102 -249q0 -92 47 -152.5t115 -60.5 q63 0 103 45t40 122q0 178 -203 295zM653 977q0 84 -42 142.5t-113 58.5q-63 0 -106.5 -49.5t-43.5 -129.5q0 -154 221 -268q84 94 84 246z" />
<glyph unicode="9" horiz-adv-x="1046" d="M86 -406q-12 8 -15 30t5 32q190 51 297 141q297 248 297 688q0 147 -46 236.5t-116 89.5t-110 -64.5t-40 -168.5q0 -84 29 -163t86 -116q27 -18 82 -14q18 -18 6 -54q-88 -53 -164 -53q-145 0 -231 87t-86 227q0 182 130 297.5t322 115.5q205 0 313.5 -125t108.5 -334 q0 -170 -69.5 -334.5t-214.5 -291.5q-238 -206 -584 -226z" />
<glyph unicode=":" horiz-adv-x="532" d="M266 -29q-66 0 -116 47.5t-50 119t48.5 120.5t117.5 49q72 0 119 -51t47 -119q0 -72 -46 -119t-120 -47zM266 471q-66 0 -116 45t-50 115q0 76 48.5 126t117.5 50q72 0 119 -52.5t47 -123.5q0 -70 -46 -115t-120 -45z" />
<glyph unicode=";" horiz-adv-x="532" d="M238 344q78 0 144.5 -66.5t66.5 -197.5q0 -143 -95.5 -234.5t-240.5 -124.5q-27 2 -34 29t11 37q72 27 127 79t55 120q0 100 -118 133q-63 18 -64 92q0 55 43.5 94t104.5 39zM266 471q-66 0 -116 45t-50 115q0 76 48.5 126t117.5 50q72 0 119 -52.5t47 -123.5 q0 -70 -46 -115t-120 -45z" />
<glyph unicode="&#x3c;" horiz-adv-x="1064" d="M135 483l797 365v-170l-586 -252v-4l586 -254v-168l-797 362v121z" />
<glyph unicode="=" horiz-adv-x="1064" d="M944 217h-821v148h821v-148zM944 512h-821v147h821v-147z" />
<glyph unicode="&#x3e;" horiz-adv-x="1064" d="M135 848l797 -365v-121l-797 -362v168l586 254v4l-586 252v170z" />
<glyph unicode="?" horiz-adv-x="679" d="M113 657q0 80 41 120t143 83l96 41q53 23 76 38t23 36q0 47 -69 68.5t-228 21.5q-37 0 -75 35t-38 96q0 53 40 90t103 37q143 0 258 -126t115 -292q0 -160 -129 -219l-135 -61q-84 -37 -84 -88.5t20 -110.5q-8 -14 -31.5 -18.5t-35.5 8.5q-31 43 -60.5 113.5t-29.5 127.5 zM268 -29q-66 0 -116 47.5t-50 119t48.5 120.5t117.5 49q72 0 119 -51t47 -119q0 -72 -46 -119t-120 -47z" />
<glyph unicode="@" horiz-adv-x="1574" d="M903 1108q279 0 439.5 -161t160.5 -392q0 -207 -145.5 -339t-396.5 -132q-53 0 -87 11t-42.5 23.5t-8.5 22.5q0 14 19 66l43 112l-4 3q-78 -94 -192 -166t-179 -72q-43 0 -66.5 26.5t-23.5 63.5q0 39 39 129t116 191q82 102 190.5 178t213.5 76q53 0 70 -33l49 92 q20 4 32 4q70 0 109 -29q-10 -29 -113.5 -269.5t-117.5 -276.5q-14 -39 -8 -54.5t36 -15.5q135 0 247 106.5t112 278.5q0 207 -141.5 336t-350.5 129q-274 0 -450.5 -204t-176.5 -482q0 -72 16.5 -142.5t57.5 -145.5t103.5 -130t164 -91t230.5 -36q150 0 315 68 q14 -6 21.5 -29t-2.5 -37q-172 -94 -400 -94q-139 0 -262 40t-222 115.5t-157.5 200.5t-58.5 283q0 346 241.5 561t579.5 215zM776 285q59 55 133 169.5t92 174.5q-20 51 -61 51q-29 0 -100 -64q-78 -70 -142.5 -194.5t-64.5 -185.5q0 -29 20 -29q39 0 123 78z" />
<glyph unicode="A" horiz-adv-x="1277" d="M664 463h-230q-37 0 -48 -6t-19 -35l-76 -238q-14 -47 -15 -73q0 -23 74 -35l62 -10q10 -12 10 -39t-14 -33q-12 0 -240 6q-33 0 -96.5 -3t-114.5 -3q-17 9 -17 38q0 23 11 34l55 6q43 6 71.5 26.5t53.5 75.5q35 82 127 328l184 499q12 35 33 85.5t29 74t14 52t4 49.5 q27 6 55.5 21t49 31.5t37.5 33.5l26 26l10 10q37 0 48 -41q25 -86 92 -280l278 -803q37 -102 60.5 -138t76.5 -44l78 -12q10 -8 10 -35t-12 -37q-147 6 -315 6q-135 0 -277 -6q-16 10 -18 34.5t14 37.5l66 10q55 10 55 35q0 18 -39 139l-55 176q-8 25 -25.5 31t-72.5 6z M475 571h178q37 0 44 10q3 4 3 13q0 13 -6 37l-53 166q-57 178 -74 215q-37 -82 -84 -226l-51 -153q-7 -25 -7 -38q0 -9 3 -13q8 -11 47 -11z" />
<glyph unicode="B" horiz-adv-x="1300" d="M233 295v723q0 158 -13 194.5t-77 44.5l-55 9q-14 8 -14 39.5t22 33.5q281 18 510 19q289 0 418 -76q141 -86 141 -260q0 -113 -68.5 -175.5t-140.5 -80.5q-41 -8 -41 -23q0 -10 29 -16q131 -29 215 -114q86 -87 86 -234q0 -128 -65 -212q-68 -87 -174 -124 q-147 -51 -408 -51q-39 0 -110.5 4t-100.5 4q-141 0 -317 -6q-12 10 -12.5 38.5t12.5 33.5l59 12q70 14 87 48t17 169zM516 1157v-338q0 -41 15.5 -49t93.5 -8q123 0 182 66.5t59 168.5q0 129 -70.5 198t-181.5 69q-70 0 -84 -17.5t-14 -89.5zM516 588v-242 q0 -135 35 -197.5t145.5 -62.5t171 78t60.5 205q0 137 -78 220t-221 83q-84 0 -98.5 -11.5t-14.5 -72.5z" />
<glyph unicode="C" horiz-adv-x="1411" d="M897 1384q92 0 182 -12t155.5 -25.5t84.5 -15.5q0 -162 24 -319q-6 -18 -36.5 -23.5t-40.5 8.5q-86 293 -385 293q-188 0 -329.5 -157.5t-141.5 -444.5q0 -291 142 -459t339 -168q291 0 418 318q12 12 40.5 8t36.5 -22q-23 -229 -77 -322q-272 -76 -416 -76 q-342 0 -551 156q-260 199 -260 536.5t248 542.5q219 182 567 182z" />
<glyph unicode="D" horiz-adv-x="1624" d="M233 295v725q0 154 -15 194.5t-83 49.5l-39 4q-16 8 -15 38.5t19 32.5q309 18 549 19q291 0 477 -68q197 -70 306.5 -232.5t109.5 -361.5q0 -207 -95 -365.5t-271 -246.5q-193 -96 -519 -96q-51 0 -144 6t-128 6q-143 0 -319 -6q-12 10 -12.5 36.5t12.5 35.5l63 10 q70 10 87 45t17 174zM526 1118v-747q0 -182 41 -230q53 -59 170 -59q127 0 222.5 52t148.5 141.5t78.5 189.5t25.5 211q0 281 -145 434.5t-420 153.5q-86 0 -106 -27q-15 -19 -15 -119z" />
<glyph unicode="E" horiz-adv-x="1214" d="M526 1178v-359q0 -43 8.5 -52t49.5 -9h141q82 0 109.5 19.5t42.5 92.5l10 52q10 12 38.5 12t37.5 -14q-6 -98 -6.5 -217t6.5 -218q-8 -14 -37 -15t-39 13l-10 52q-14 74 -43 94t-109 20h-141q-41 0 -49.5 -9t-8.5 -54v-244q0 -147 33 -195q20 -29 64.5 -41t150.5 -12 q80 0 118 5t85 28t81 71t77 134q12 16 40.5 12t34.5 -22q-6 -76 -34.5 -179.5t-51.5 -148.5q-162 6 -473 6h-266q-123 0 -352 -6q-12 10 -12.5 36.5t12.5 35.5l96 14q72 10 88 43t16 172v764q0 137 -16 170t-88 47l-51 10q-14 8 -12 36t16 36q143 -6 295 -6h434q233 0 274 6 q0 -12 5.5 -62.5t11.5 -123t10 -132.5q-6 -16 -33.5 -19t-42.5 11q-37 119 -78 162q-63 63 -200 63h-164q-49 0 -58.5 -11t-9.5 -68z" />
<glyph unicode="F" horiz-adv-x="1122" d="M526 1174v-371q0 -43 8.5 -52.5t49.5 -9.5h157q82 0 110 20.5t42 94.5l10 49q10 14 39 13.5t39 -15.5q-6 -98 -6 -219t6 -213q-10 -14 -39 -15t-39 13l-10 49q-14 74 -42 94.5t-110 20.5h-157q-41 0 -49.5 -9.5t-8.5 -52.5v-276q0 -141 17.5 -175t87.5 -44l76 -10 q10 -8 10 -35t-10 -37q-190 6 -325.5 6t-320.5 -6q-12 10 -12 36.5t12 35.5l68 10q70 10 87 45t17 174v762q0 141 -17 177t-87 46l-41 6q-14 8 -13 37t17 35q133 -6 289 -6h430q233 0 276 6q0 -182 5 -320q-6 -16 -33 -18t-45 10q-35 127 -60 160q-55 68 -200 67h-160 q-49 0 -58.5 -11t-9.5 -72z" />
<glyph unicode="G" horiz-adv-x="1503" d="M1358 346v-115q0 -72 8 -100.5t35 -34.5q6 -6 4 -25.5t-10 -23.5q-109 -18 -144 -31q-57 -18 -168.5 -33.5t-193.5 -15.5q-221 0 -404 72q-184 74 -293.5 237.5t-109.5 380.5q0 197 90 358t270 261q199 109 480 108q133 0 263 -24.5t142 -24.5q2 -18 5 -79.5t9.5 -128 t14.5 -121.5q-6 -16 -37 -18.5t-41 13.5q-98 289 -385 289q-233 0 -358 -168t-125 -426q0 -399 233 -557q117 -78 281 -78q88 0 114.5 29t26.5 127v129q0 82 -18.5 104.5t-92.5 32.5l-90 13q-16 8 -16 34.5t16 36.5q217 -6 346 -6q164 0 269 6q12 -10 12 -36.5t-12 -34.5 l-47 -9q-47 -8 -60.5 -33.5t-13.5 -107.5z" />
<glyph unicode="H" horiz-adv-x="1650" d="M1038 649h-426q-63 0 -74.5 -8t-11.5 -51v-295q0 -141 17.5 -176t87.5 -45l65 -8q12 -8 12.5 -35t-12.5 -37q-176 6 -311 6q-147 0 -305 -6q-12 10 -12 36.5t12 35.5l49 6q72 10 88 45t16 178v762q0 143 -16 178t-88 45l-49 6q-12 8 -12 35t12 37q150 -6 305 -6 q150 0 285 6q12 -10 12 -37t-12 -35l-43 -6q-68 -10 -84.5 -46t-16.5 -177v-238q0 -45 11.5 -53t74.5 -8h426q63 0 74.5 8t11.5 53v238q0 141 -16 176t-88 45l-55 8q-12 8 -12.5 35t12.5 37q170 -6 311 -6q147 0 289 6q12 -10 12 -37t-12 -35l-41 -6q-72 -10 -89.5 -46 t-17.5 -177v-762q0 -141 17.5 -175t89.5 -46l49 -8q12 -8 12 -35t-12 -37q-154 6 -297 6q-154 0 -301 -6q-12 10 -12 36.5t12 35.5l45 6q72 10 88 45t16 178v295q0 43 -11.5 51t-74.5 8z" />
<glyph unicode="I" horiz-adv-x="759" d="M526 1053v-754q0 -141 17.5 -176t89.5 -47l57 -10q12 -10 11 -36t-13 -36q-166 6 -307 6q-145 0 -311 -6q-12 10 -12.5 36.5t12.5 35.5l57 10q72 12 89 47t17 176v754q0 141 -17 176t-89 47l-57 10q-12 8 -12.5 35t12.5 37q166 -6 311 -6q143 0 309 6q12 -10 12 -37 t-12 -35l-57 -10q-72 -12 -89.5 -47t-17.5 -176z" />
<glyph unicode="J" horiz-adv-x="784" d="M274 283v770q0 141 -17 176t-89 45l-78 12q-12 8 -12 35t12 37q197 -6 330 -6q147 0 307 6q12 -10 12 -37t-12 -35l-53 -10q-72 -14 -89.5 -48t-17.5 -175v-742q0 -270 -47 -395q-121 -313 -479 -328h-11q-51 0 -96 17q-49 18 -49 65q0 66 54 119q27 27 57 27 q37 0 104.5 -51.5t89.5 -51.5q47 0 66 168q18 156 18 402z" />
<glyph unicode="K" horiz-adv-x="1464" d="M526 1057v-250q0 -47 8.5 -61.5t28.5 -14.5q29 0 78 40t80 79q211 254 274 348q27 39 27 53q0 20 -35 27l-47 8q-16 10 -14 38t22 34q158 -6 254 -6q125 0 248 6q18 -6 20.5 -33t-10.5 -39q-123 -14 -176 -37q-113 -45 -303 -262l-94 -106q-27 -29 -27 -47q0 -16 74 -127 l99 -153l138 -209q61 -91 125 -173q39 -51 72 -70.5t80 -25.5l65 -10q9 -12 9 -31q0 -31 -15 -41q-154 6 -295 6q-150 0 -321 -6q-20 6 -20.5 34.5t16.5 37.5l51 12q35 10 35 20q0 16 -17 41l-118 183l-109 165q-61 94 -92 128t-62 34q-33 0 -41 -25.5t-8 -113.5v-215 q0 -141 17.5 -176t87.5 -45l57 -8q12 -10 12 -36t-12 -36q-164 6 -309.5 6t-306.5 -6q-12 10 -12.5 36.5t12.5 35.5l57 8q70 10 87 45t17 176v762q0 141 -17 176t-87 45l-57 8q-16 8 -16.5 35t16.5 37q154 -6 307 -6q145 0 309 6q14 -10 14 -37t-14 -35l-57 -8 q-70 -10 -87.5 -45t-17.5 -176z" />
<glyph unicode="L" horiz-adv-x="1198" d="M526 1057v-717q0 -152 35 -195q23 -29 65 -40t148 -11q82 0 121 4t84 29t80 73t80 138q12 14 39.5 10t38.5 -22q-8 -76 -37 -181.5t-52 -150.5q-162 6 -473 6h-274q-133 0 -324 -6q-17 12 -16 43q0 20 10 29l78 10q70 10 87 44t17 175v762q0 141 -17 176t-87 45l-59 8 q-16 8 -15.5 36t19.5 36q160 -6 307 -6q150 0 303 6q12 -10 12 -37t-12 -35l-53 -8q-70 -10 -87.5 -45t-17.5 -176z" />
<glyph unicode="M" horiz-adv-x="1859" d="M115 1278l-45 8q-12 12 -11.5 40t17.5 32q104 -6 258 -6q127 0 201 6q0 -37 6 -73t26.5 -87l31.5 -76.5t48 -103.5l49 -105l135 -288q27 -57 111 -209q51 94 115 233l104 225q86 182 122 272.5t67 211.5q72 -6 219 -6q125 0 235 6q17 -9 18 -37q0 -22 -12 -35l-59 -10 q-68 -12 -96.5 -41t-28.5 -107q0 -557 16 -901q4 -80 20.5 -113.5t72.5 -39.5l65 -8q12 -12 11 -39t-15 -33q-141 6 -283 6q-156 0 -303 -6q-18 8 -20 34.5t14 37.5l62 8q68 8 81 34.5t13 127.5l-4 532v233h-4q-346 -748 -451 -1015q-18 -14 -41 -15q-35 0 -53 13 q-35 113 -115 299l-184 412l-139 306h-4q-12 -195 -15 -319q-4 -266 -4 -461q0 -80 17.5 -107.5t76.5 -35.5l80 -12q12 -10 10 -37t-14 -35q-115 6 -242 6q-109 0 -231 -6q-21 7 -21 42q0 23 13 30l37 6q78 14 95 37.5t28 119.5q8 74 32 473q14 240 15 414q0 82 -29.5 116 t-97.5 46z" />
<glyph unicode="N" horiz-adv-x="1531" d="M1335 838v-490q0 -262 4 -330q-10 -18 -47 -32.5t-73 -14.5l-21 29q-20 31 -61 87t-84 108l-473 585q-195 238 -224 262q-10 -20 -10 -131v-397q0 -299 31 -375q23 -51 119 -65l57 -8q12 -12 11 -37t-11 -35q-166 6 -274 6q-113 0 -230 -6q-10 10 -11 34.5t11 37.5l35 6 q94 16 113 67q29 70 28 375v520q0 141 -14 174q-27 57 -117 70l-57 8q-10 10 -10 30q0 5 1 10q3 28 17 32q143 -6 283 -6q106 0 172 6q8 -33 31.5 -75t81 -116.5l93.5 -117.5l132 -158l172 -203q158 -186 196 -225q8 20 8 92v283q0 299 -30 374q-23 51 -119 66l-55 8 q-12 12 -11.5 37t11.5 35q166 -6 274.5 -6t228.5 6q11 -11 12 -39q0 -22 -12 -33l-36 -6q-88 -14 -111 -68q-31 -75 -31 -374z" />
<glyph unicode="O" horiz-adv-x="1613" d="M813 1384q319 0 519 -195.5t200 -506.5q0 -332 -203 -523.5t-536 -191.5q-313 0 -512 190.5t-199 508.5q0 307 207 512.5t524 205.5zM1204 655q0 270 -110.5 452.5t-296.5 182.5q-184 0 -285.5 -157.5t-101.5 -419.5q0 -104 20.5 -209t64.5 -209.5t131 -169t205 -64.5 q190 0 281.5 163t91.5 431z" />
<glyph unicode="P" horiz-adv-x="1230" d="M233 295v725q0 158 -13 195.5t-77 46.5l-63 8q-14 8 -13 33.5t17 35.5q244 18 473 19q236 0 375 -53q106 -41 178 -129.5t72 -225.5q0 -117 -52.5 -199.5t-132 -119.5t-144.5 -51.5t-118 -14.5q-43 0 -65 2q-12 8 -14.5 26.5t8.5 29.5q119 37 161.5 117.5t42.5 207.5 t-66.5 221.5t-195.5 94.5q-53 0 -66.5 -19.5t-13.5 -85.5v-864q0 -141 17.5 -176t87.5 -45l65 -11q16 -8 16.5 -33.5t-16.5 -35.5q-172 6 -313 6t-307 -6q-19 12 -19 41q0 21 15 28l57 11q70 12 87 47t17 174z" />
<glyph unicode="Q" horiz-adv-x="1613" d="M813 1384q319 0 519 -194.5t200 -509.5q0 -246 -113.5 -416t-314.5 -246q-20 -12 18 -47q264 -248 445 -295q68 -16 153 -16q45 0 88 16q22 -10 22 -31q0 -8 -3 -18q-109 -76 -293 -76q-397 0 -739 353q-27 29 -36 38t-29.5 19t-43.5 12q-260 23 -432 211.5t-172 481.5 q0 307 207 512.5t524 205.5zM797 1290q-184 0 -285.5 -157.5t-101.5 -419.5q0 -104 20.5 -209t64.5 -209.5t131 -170t205 -65.5q190 0 281.5 164t91.5 432q0 270 -110.5 452.5t-296.5 182.5z" />
<glyph unicode="R" horiz-adv-x="1359" d="M233 295v725q0 156 -13 193.5t-77 46.5l-55 8q-16 8 -15 35.5t19 35.5q276 18 508 19q281 0 401 -74q180 -106 181 -303q0 -121 -61.5 -190.5t-155.5 -116.5q-25 -12 -11 -45q111 -225 179.5 -339t138.5 -173q66 -53 137 -58q15 -10 15 -33q0 -13 -7 -20 q-43 -18 -162 -18q-139 0 -234 52t-163 163q-78 129 -160 317q-33 72 -108 72q-53 0 -64.5 -7t-11.5 -38v-252q0 -139 17.5 -173t86.5 -46l56 -10q10 -8 10 -35t-10 -37q-162 6 -301.5 6t-298.5 -6q-12 10 -12.5 36.5t12.5 35.5l55 10q70 12 87 46t17 173zM514 1159v-399 q0 -55 18.5 -66.5t108.5 -11.5q98 0 156 57q74 74 73 222q0 137 -73.5 220t-194.5 83q-63 0 -75.5 -15.5t-12.5 -89.5z" />
<glyph unicode="S" horiz-adv-x="1036" d="M977 383q0 -188 -141.5 -302t-374.5 -114q-211 0 -348 78q-29 33 -47.5 129t-18.5 203q10 20 38 21t40 -15q37 -117 135 -219.5t217 -102.5q106 0 163.5 61.5t57.5 145.5q0 186 -278 326q-309 156 -309 399q-2 176 126 283.5t349 107.5q125 0 233 -32q35 -10 70 -17 q37 -102 37 -293q-8 -18 -37 -20t-43 14q-33 98 -101.5 176t-169.5 78q-98 0 -153 -55t-55 -135q0 -68 52 -129.5t134 -104.5l135 -71q289 -154 289 -412z" />
<glyph unicode="T" horiz-adv-x="1320" d="M522 295v903q0 39 -7 49t-42 10h-127q-104 0 -152.5 -51t-101.5 -180q-18 -10 -42.5 -5t-33.5 23q18 63 31.5 128t24 134.5t12.5 86.5q14 10 29 10q18 0 28 -8q8 -29 35 -36t137 -7h762q106 0 139 7t46 38q12 6 26 6q20 0 31 -14q-32 -108 -32 -279q0 -36 1 -74 q-8 -14 -37.5 -16t-38.5 10q-16 61 -27.5 93t-35 68t-61 51t-93.5 15h-123q-37 0 -46 -10t-9 -49v-903q0 -141 17.5 -175t87.5 -44l81 -10q10 -8 10.5 -35t-10.5 -37q-199 6 -327 6q-133 0 -348 -6q-12 10 -12.5 36.5t12.5 35.5l92 10q70 8 87 43t17 176z" />
<glyph unicode="U" horiz-adv-x="1515" d="M223 545v512q0 139 -16.5 173t-87.5 48l-51 10q-12 8 -12.5 35t16.5 35q147 -6 298.5 -6t299.5 6q12 -10 12 -35t-12 -35l-49 -8q-70 -12 -87.5 -47t-17.5 -176v-473q0 -84 5 -145.5t24.5 -134.5t54.5 -118t99.5 -75.5t154.5 -30.5q342 0 342 510v248q0 303 -31 374 q-20 47 -118 66l-56 10q-12 12 -11 36t11 34q166 -6 275 -6q113 0 229 6q11 -11 11 -38q0 -21 -11 -32l-37 -8q-90 -20 -110 -68q-31 -72 -31 -374v-230q0 -168 -26.5 -287.5t-104.5 -205.5q-137 -147 -406 -148q-264 0 -405 115q-152 125 -152 463z" />
<glyph unicode="V" horiz-adv-x="1314" d="M1079 862l-149 -354q-61 -145 -128 -320.5t-79 -203.5q-27 -16 -72 -17q-35 0 -55 17q-10 25 -41 110.5l-45 122.5l-332 834q-55 141 -78.5 172.5t-74.5 44.5l-82 20q-10 13 -10 30q0 29 18 40q27 0 122 -3t156 -3q119 0 308 6q12 -8 12 -31.5t-10 -38.5l-62 -12 q-51 -12 -51 -39q0 -20 82 -225l180 -461q16 -43 64 -158q33 70 65 152l76 192q96 244 162 428q20 55 20 74q0 20 -55 35l-59 14q-12 12 -11.5 37t19.5 33q145 -6 252 -6q102 0 190 6q13 -7 13 -39q0 -24 -9 -31l-53 -10q-76 -14 -113 -72q-70 -104 -170 -344z" />
<glyph unicode="W" horiz-adv-x="1966" d="M2071 1286l-62 -14q-59 -12 -84 -45q-41 -59 -113 -228q-12 -31 -192 -444.5t-240 -570.5q-20 -16 -67 -17q-33 0 -56 17q-8 20 -77 180l-86 194q-55 129 -74 158q-33 -61 -70 -141l-96 -209q-14 -29 -41 -92.5t-45 -100.5q-16 -16 -68 -16q-25 0 -53 16 q-41 109 -184 424l-336 733q-41 90 -62.5 113t-72.5 33l-51 10q-11 12 -11 32q0 30 19 40q113 -6 266 -6q131 0 248 6q12 -6 15 -34t-11 -38l-37 -6q-51 -8 -51 -31q0 -14 106 -254l203 -452l103 -219q53 98 98 198l26 60q27 61 27 90q0 25 -12 55l-197 432 q-35 78 -58.5 98.5t-80.5 26.5l-21 2q-14 12 -12 39t19 33q133 -6 258 -6q156 0 235 6q16 -4 18.5 -34t-10.5 -38l-34 -8q-55 -14 -56 -29q0 -20 19 -61l61 -141q31 -72 57 -125l62 129l18 41q55 123 56 151q0 18 -41 29l-62 14q-10 10 -9 37t15 35q90 -6 201 -6 q129 0 209 6q12 -8 14 -36t-12 -38l-57 -12q-53 -10 -78 -32.5t-78 -113.5q-78 -131 -127 -231q-45 -90 -45 -107q0 -14 16 -51l97 -207l90 -200l293 741q55 135 55 174q0 16 -39 29l-45 12q-12 14 -10 39t16 33q98 -6 209 -6q102 0 188 6q15 -9 16 -39q0 -22 -9 -33z" />
<glyph unicode="X" horiz-adv-x="1361" d="M-25 61l48 7q57 8 102 34.5t68.5 53t66.5 84.5q98 129 254 360q29 41 29 64q0 20 -33 65l-124 189l-169 251q-35 51 -74 75t-108 36l-35 6q-14 12 -13 38t15 34q98 -6 320 -6q215 0 311 6q16 -8 18 -34t-10 -38l-45 -8q-70 -12 -70 -31q0 -23 33 -80q72 -127 180 -282 l203 309q23 37 23 61q0 14 -41 21l-66 10q-12 10 -11 37t17 35q94 -6 236 -6q139 0 237 6q14 -8 16.5 -33t-7.5 -39l-66 -8q-76 -10 -117 -51q-131 -135 -305 -371q-41 -57 -41 -70q0 -20 29 -63l328 -502q51 -78 95 -108.5t105 -38.5l64 -8q11 -9 10 -29q0 -31 -16 -43 q-135 6 -320 6q-178 0 -344 -6q-14 6 -17 34.5t11 37.5l55 6q76 8 76 28.5t-59 120.5q-25 43 -106 169t-103 155q-147 -217 -240 -391q-18 -37 -18 -56q0 -20 65 -26l53 -6q14 -10 12.5 -38t-18.5 -34q-135 6 -280 6q-123 0 -215 -6q-20 10 -20 41q-1 18 11 26z" />
<glyph unicode="Y" horiz-adv-x="1177" d="M752 438v-143q0 -141 17 -175t87 -44l82 -10q10 -8 10 -35t-10 -37q-201 6 -332 6q-139 0 -321 -6q-12 10 -12.5 36.5t12.5 35.5l69 10q70 10 87.5 45t17.5 174v102q0 82 -9.5 124t-46.5 120l-243 504q-35 70 -57.5 95.5t-73.5 33.5l-70 12q-13 11 -13 33q0 34 21 39 q139 -6 289 -6q195 0 299 6q14 -6 16 -33t-12 -39l-70 -16q-49 -10 -49 -19q0 -25 54 -143l96 -219l94 -201q6 12 172 324q106 199 107 237q0 16 -70 29l-47 8q-12 8 -12 36t14 36q123 -6 229 -6q111 0 201 6q20 -7 19 -38q0 -24 -11 -34l-53 -10q-70 -12 -98 -49 q-66 -84 -181 -291l-129 -234q-43 -78 -58 -129t-15 -135z" />
<glyph unicode="Z" horiz-adv-x="1257" d="M737 1257h-221q-117 0 -182.5 -25.5t-97 -69.5t-70.5 -140q-20 -12 -47 -7t-37 21q37 139 80 363q6 6 23.5 6t29.5 -4q10 -33 37 -41t137 -8h586q188 0 239 6q16 -10 13 -31q-76 -80 -307 -438l-224 -346q-246 -381 -256 -410q-2 -8 -2 -12q0 -27 189 -27h190 q158 0 229.5 45t153.5 213q18 12 44 7t36 -21q-10 -86 -38 -196.5t-52 -147.5q-258 6 -428 6h-516q-158 0 -207 -6q-18 8 -19 23q0 5 3 12q23 25 188 274l403 615q133 207 172 278q20 39 21 49q0 12 -70 12z" />
<glyph unicode="[" horiz-adv-x="696" d="M248 -311v1720q47 2 160 2q164 0 225 -8q12 -6 12 -31.5t-10 -32.5l-141 -22q-51 -8 -64.5 -62.5t-13.5 -265.5v-880q0 -211 13 -265.5t65 -62.5l141 -23q10 -6 10 -31.5t-12 -31.5q-61 -8 -225 -8q-113 0 -160 2z" />
<glyph unicode="\" horiz-adv-x="657" d="M225 1384l391 -1417h-184l-391 1417h184z" />
<glyph unicode="]" horiz-adv-x="696" d="M449 1409v-1720q-47 -2 -160 -2q-164 0 -226 8q-12 6 -12 31.5t10 31.5l142 23q51 8 64.5 62.5t13.5 265.5v880q0 211 -13.5 265.5t-64.5 62.5l-142 22q-10 6 -10 32t12 32q61 8 226 8q113 0 160 -2z" />
<glyph unicode="^" horiz-adv-x="1064" d="M944 500h-182l-227 538l-228 -538h-184l342 782h139z" />
<glyph unicode="_" horiz-adv-x="1024" d="M1024 -154v-102h-1024v102h1024z" />
<glyph unicode="`" horiz-adv-x="778" d="M379 1341l186 -372q-6 -39 -51 -33l-289 285q-45 45 -45 75.5t56 73.5q47 33 79 33q35 -1 64 -62z" />
<glyph unicode="a" horiz-adv-x="907" d="M774 551l-14 -270q-1 -16 -1 -31q0 -70 24 -105q30 -41 69 -41q35 0 78 25q14 -2 21 -17q5 -10 5 -20q0 -5 -2 -10q-27 -35 -93 -73t-144 -38q-88 0 -172 72q-18 16 -33 16q-10 0 -43 -22q-90 -66 -174 -66q-96 0 -162.5 56.5t-66.5 158.5q0 78 50 128.5t163 84.5 q78 25 192 58q45 12 49 41q4 45 4 69q0 70 -29.5 123t-88.5 53q-88 0 -107 -116q-6 -43 -35 -66q-23 -16 -71 -31.5t-76 -15.5q-47 0 -47 51q0 80 98 158q158 125 344 125q263 0 263 -269q0 -13 -1 -28zM510 205l4 129q1 10 1 17q0 11 -2 15q-2 6 -9 5h-4 q-172 -23 -172 -144q0 -49 30.5 -86t73.5 -37q45 0 60.5 24t17.5 77z" />
<glyph unicode="b" horiz-adv-x="1089" d="M401 1151v-309q0 -45 25 -51q106 57 217 57q172 0 277.5 -116t105.5 -294q0 -219 -139 -343t-365 -124q-131 0 -219 37q-45 18 -63 19q-39 0 -70 -31q-23 -4 -41 14q6 39 6 203v926q0 68 -6 90t-35 39l-35 20q-10 10 -10 30.5t10 31.5q106 25 316 114q23 0 35 -14 q-9 -113 -9 -299zM401 602v-313q0 -94 41 -154q45 -70 121 -69q94 0 137 87t43 222q0 154 -67.5 249t-173.5 95q-51 0 -82 -23q-19 -12 -19 -94z" />
<glyph unicode="c" horiz-adv-x="851" d="M575 848q121 0 216 -35q43 -37 43 -106q0 -45 -17.5 -81t-36.5 -36q-27 0 -32 10q-109 154 -211 154q-94 0 -149.5 -89.5t-55.5 -203.5q0 -131 78.5 -228.5t214.5 -97.5q123 0 182 101q20 2 36.5 -10.5t16.5 -35.5q-39 -88 -133 -153.5t-229 -65.5q-193 0 -314 116 t-121 298q0 211 148.5 337t363.5 126z" />
<glyph unicode="d" horiz-adv-x="1099" d="M954 1151v-815q0 -145 9.5 -192.5t37.5 -47.5q41 0 89 17q17 -15 17 -48q0 -27 -15 -40q-57 -4 -115.5 -12.5t-102 -18.5t-76.5 -21l-55 -16l-20 -6q-27 0 -35 29l6 63q-4 27 -18 16q-139 -88 -221 -88q-172 0 -282 117t-110 287q0 213 140.5 343t347.5 130q80 0 117 -10 q20 8 20 39v262q0 68 -6 90t-35 39l-35 20q-12 10 -11 30.5t11 31.5q121 29 314 114q23 0 35 -14q-7 -127 -7 -299zM688 211v397q0 41 -14 70q-43 76 -117 76q-84 0 -145.5 -85t-61.5 -239q0 -121 57.5 -221t172.5 -100q43 0 84 24q24 17 24 78z" />
<glyph unicode="e" horiz-adv-x="860" d="M762 485h-393q-35 0 -43.5 -6t-8.5 -30q0 -123 77 -213.5t212 -90.5q127 0 191 107q18 4 35.5 -9.5t17.5 -37.5q-57 -121 -155.5 -177.5t-202.5 -56.5q-199 0 -312.5 121t-113.5 297q0 195 125.5 327t316.5 132q154 0 241 -85t87 -210q0 -33 -15.5 -50.5t-58.5 -17.5z M428 575h76q55 0 84 19q14 8 14 47q0 51 -28.5 82t-79.5 31q-61 0 -110.5 -48.5t-49.5 -99.5q0 -20 19.5 -25.5t74.5 -5.5z" />
<glyph unicode="f" horiz-adv-x="636" d="M674 709h-182q-39 0 -46.5 -8.5t-7.5 -49.5v-413q0 -111 12.5 -138.5t63.5 -31.5l68 -7q12 -8 12 -33.5t-14 -33.5q-145 6 -279 6q-145 0 -242 -6q-14 8 -14 33.5t12 33.5l33 5q55 6 68.5 33.5t13.5 138.5v413q0 41 -7 49.5t-44 8.5h-76q-8 6 -11 26q-1 6 -1 10 q0 12 6 19l88 45q45 25 45 53q0 205 57 338q117 264 402 264q94 0 166.5 -46t72.5 -122q0 -51 -32.5 -80.5t-85.5 -29.5q-49 0 -82 37q-106 135 -146 135q-86 0 -86 -250v-231q0 -41 7.5 -49.5t46.5 -8.5h194q14 -8 14 -41q1 -51 -26 -69z" />
<glyph unicode="g" horiz-adv-x="980" d="M772 772h236q18 -16 18 -51q0 -63 -31 -82h-151q6 -29 6 -72q0 -66 -21.5 -125t-66.5 -113.5t-131 -87t-201 -32.5q-16 0 -84 6q-35 -14 -35 -49q0 -33 29 -53.5t76 -20.5q31 0 114.5 2t135.5 2q317 0 317 -248q0 -94 -51 -176t-133 -133q-152 -90 -359 -90 q-205 0 -303 77t-98 185q0 63 65 103q20 12 54.5 34.5t46.5 28.5q35 20 2 29q-57 18 -92 64t-35 100q0 29 14 43q98 63 131 96q29 23 17 45q-78 31 -126 101.5t-48 162.5q0 137 104 233.5t295 96.5q166 0 305 -76zM334 553q0 -115 40 -183.5t101 -68.5q51 0 84 51t33 158 q0 119 -37 181.5t-96 62.5q-51 0 -88 -51.5t-37 -149.5zM567 -115h-137q-80 0 -115 -26q-29 -27 -28 -72q0 -104 72.5 -166.5t193.5 -62.5q96 0 155.5 44t59.5 117q0 84 -55.5 125t-145.5 41z" />
<glyph unicode="h" horiz-adv-x="1120" d="M164 238v901q0 68 -6 90t-35 39l-35 20q-10 10 -10 30.5t10 31.5q86 20 313 114q23 0 35 -14q-6 -127 -6 -299v-377q0 -25 14 -24q6 0 33 16q121 82 236 82q123 0 190.5 -73t67.5 -185v-352q0 -106 13 -134t69 -34l32 -4q12 -8 12.5 -36t-14.5 -36q-96 6 -247 6 q-154 0 -222 -6q-14 8 -14 35.5t12 36.5l37 6q37 6 46.5 28.5t9.5 106.5v354q0 59 -36 98t-108 39q-80 0 -115 -49q-16 -18 -16 -76v-366q0 -84 9.5 -106.5t45.5 -28.5l37 -6q12 -8 12.5 -36t-14.5 -36q-94 6 -227 6q-135 0 -240 -6q-14 8 -14 35.5t12 36.5l37 4 q51 6 63.5 34t12.5 134z" />
<glyph unicode="i" horiz-adv-x="585" d="M438 614v-376q0 -109 12.5 -136.5t63.5 -31.5l39 -4q12 -8 12 -36t-14 -36q-109 6 -246 6q-145 0 -246 -6q-14 8 -14 35.5t12 36.5l39 4q51 4 63.5 31.5t12.5 136.5v309q0 68 -6 91.5t-33 39.5l-29 18q-10 8 -10 31t10 31q195 53 304 119q25 0 36 -19q-6 -92 -6 -244z M311.5 1309q63.5 0 103.5 -42t40 -104q0 -70 -45 -109.5t-109 -39.5q-66 0 -104.5 41t-38.5 104q0 66 45 108t108.5 42z" />
<glyph unicode="j" horiz-adv-x="575" d="M440 614v-505q0 -221 -43 -330q-45 -117 -134 -191.5t-277 -138.5q-23 8 -31 31q-4 10 -4 18q0 10 6 19q63 33 100 73q117 117 117 476v481q0 68 -6 91.5t-33 39.5l-29 18q-10 8 -10 31t10 31q188 51 304 119q25 0 36 -19q-6 -92 -6 -244zM313.5 1309q63.5 0 103.5 -42 t40 -104q0 -70 -45 -109.5t-109 -39.5q-66 0 -104.5 41t-38.5 104q0 66 45 108t108.5 42z" />
<glyph unicode="k" horiz-adv-x="1089" d="M156 238v901q0 68 -6.5 90t-34.5 39l-35 20q-10 10 -10 30.5t10 31.5q109 27 313 114q23 0 35 -14q-6 -127 -6 -299v-643q0 -16 6 -22.5t23 -6.5q70 0 118 58l86 100q49 59 50 82q0 16 -39 20l-52 9q-14 14 -12 39.5t16 31.5h50q199 0 387 29q14 -8 16 -34t-8 -38 l-66 -14q-61 -12 -137 -72q-78 -59 -137 -119q-12 -14 -12 -26.5t14 -34.5q37 -63 135 -211.5t133 -179.5q33 -31 121 -47l31 -6q10 -8 10 -28q0 -5 -1 -10q-3 -28 -17 -34q-96 6 -258 6q-166 0 -252 -6q-14 8 -17.5 32.5t8.5 39.5l27 6q33 6 33 16q0 14 -35 66l-145 221 q-20 31 -52 31q-25 0 -24 -50v-118q0 -106 13.5 -134t66.5 -34l33 -4q12 -8 12 -36t-15 -36q-98 6 -245 6q-143 0 -250 -6q-14 8 -14 35.5t12 36.5l39 4q55 6 68.5 34t13.5 134z" />
<glyph unicode="l" horiz-adv-x="569" d="M156 238v901q0 68 -6.5 90t-34.5 39l-35 20q-10 10 -10 30.5t10 31.5q113 27 313 114q23 0 35 -14q-6 -127 -6 -299v-913q0 -106 13.5 -134t66.5 -34l35 -4q12 -8 12 -36t-14 -36q-100 6 -246 6q-137 0 -246 -6q-14 8 -14 35.5t12 36.5l39 4q51 4 63.5 31.5t12.5 136.5z " />
<glyph unicode="m" horiz-adv-x="1650" d="M172 238v309q0 68 -6 91.5t-33 39.5l-29 18q-10 8 -10 31t10 31q193 53 304 119q25 0 36 -19q0 -16 -3 -51t-3 -41q0 -16 11 -16q6 0 38 16q139 82 236 82q115 0 184 -78q31 -37 49 -37q4 0 12 4l23 14l31 17q2 0 29.5 16.5t42 23.5t43 18.5t58.5 16.5t60 5 q117 0 182.5 -74t65.5 -184v-352q0 -106 12.5 -134t63.5 -34l33 -4q12 -8 12 -36t-14 -36q-94 6 -240 6q-141 0 -223 -6q-14 8 -14 35.5t12 36.5l33 4q39 4 49 28.5t10 108.5v348q0 61 -35 102t-102 41q-84 0 -115 -51q-14 -20 -14 -61v-379q0 -84 10 -108.5t45 -28.5l33 -4 q12 -8 12 -36t-14 -36q-94 6 -221 6q-137 0 -218 -6q-14 8 -14 35.5t12 36.5l33 4q35 4 45.5 28.5t10.5 108.5v348q0 63 -35 103t-105 40q-76 0 -110 -49q-16 -18 -17 -76v-366q0 -84 10.5 -108.5t49.5 -28.5l32 -4q12 -8 12.5 -36t-14.5 -36q-94 6 -227 6q-141 0 -233 -6 q-15 9 -16 40q0 24 11 32l33 4q51 6 63.5 34t12.5 134z" />
<glyph unicode="n" horiz-adv-x="1126" d="M172 238v309q0 68 -6 91.5t-33 39.5l-29 18q-10 8 -10 31t10 31q201 55 304 119q25 0 36 -19q0 -16 -3 -51t-3 -41q0 -16 11 -16q6 0 38 16q139 82 236 82q123 0 189.5 -74t66.5 -184v-352q0 -106 13.5 -134t68.5 -34l33 -4q12 -8 12 -36t-14 -36q-96 6 -248 6 q-131 0 -221 -6q-14 8 -14.5 35.5t12.5 36.5l36 6q37 6 46.5 28.5t9.5 106.5v346q0 66 -35 105.5t-109 39.5q-80 0 -114 -49q-16 -18 -17 -76v-366q0 -84 10.5 -108.5t49.5 -28.5l32 -4q12 -8 12.5 -36t-14.5 -36q-94 6 -227 6t-242 -6q-14 8 -14 35.5t12 36.5l33 4 q55 6 68.5 34t13.5 134z" />
<glyph unicode="o" horiz-adv-x="1056" d="M522 -29q-195 0 -325 110q-133 111 -134 318q0 205 139 326q140 123 332.5 123t325.5 -115t133 -321q0 -213 -134 -327t-337 -114zM522 754q-72 0 -118 -78t-46 -238q0 -166 49.5 -269t137.5 -103q154 0 153 301v16q-2 160 -47 265.5t-129 105.5z" />
<glyph unicode="p" horiz-adv-x="1112" d="M158 -285v832q0 68 -6.5 91.5t-32.5 39.5l-29 18q-10 8 -10 31t10 31q66 18 160 59t135 70q4 1 7 0q25 0 36 -25q-4 -25 -4 -67q0 -25 16 -29q164 82 260 82q160 0 254.5 -110.5t94.5 -280.5q0 -215 -139.5 -350.5t-362.5 -135.5q-63 0 -92 6q-31 -6 -31 -59v-203 q0 -106 12.5 -133.5t63.5 -32.5l69 -6q12 -8 12.5 -35.5t-14.5 -35.5q-154 6 -280 6q-133 0 -244 -6q-14 8 -14 35.5t12 35.5l41 4q51 4 63.5 31.5t12.5 136.5zM424 559v-328q0 -72 47 -118q43 -47 98 -47q92 0 144.5 89t52.5 236.5t-64.5 231.5t-169.5 84q-63 0 -86 -29 q-22 -27 -22 -119z" />
<glyph unicode="q" horiz-adv-x="1081" d="M954 575v-860q0 -106 12.5 -133.5t63.5 -32.5l70 -6q12 -8 12 -35.5t-14 -35.5q-143 6 -277 6q-139 0 -256 -6q-14 8 -14 35.5t12 35.5l45 4q53 4 66.5 32t13.5 136v267q0 39 -18 38q-106 -49 -203 -49q-184 0 -294 117t-110 287q0 213 145.5 343t371.5 130 q109 0 221 -25q25 -6 39 -6q29 0 61 29l12 14q6 1 12 1q34 0 40 -21q-11 -85 -11 -265zM688 160v366q0 131 -41 183q-37 45 -98 45q-84 0 -142.5 -85t-58.5 -218q0 -168 80 -262.5t184 -94.5q39 0 62 15q14 10 14 51z" />
<glyph unicode="r" horiz-adv-x="759" d="M172 233v310q0 68 -6 91t-33 40l-29 18q-10 8 -10 30.5t10 31.5q193 55 299 123q25 0 37 -19q-8 -82 -8 -88q0 -20 21 -25q10 6 52 39t75.5 48.5t72.5 15.5q45 0 79 -33t34 -88q0 -66 -38 -99.5t-93 -33.5q-41 0 -80 37q-49 41 -78 41q-39 0 -39 -123v-316 q0 -106 12.5 -133.5t63.5 -31.5l66 -7q12 -8 12 -35.5t-14 -35.5q-147 6 -277 6q-141 0 -242 -6q-14 8 -14 35.5t12 35.5l39 5q51 4 63.5 31t12.5 136z" />
<glyph unicode="s" horiz-adv-x="733" d="M336 -29q-172 0 -254 64q-34 62 -34 189q0 20 1 42q8 14 35 16.5t35 -12.5q25 -76 81 -140t128 -64q47 0 76.5 27.5t29.5 78.5q0 86 -135 154q-211 104 -211 258q0 127 92 195.5t234 68.5q72 0 135 -14.5t84 -28.5q31 -68 31 -205q-6 -16 -35 -18t-37 10 q-55 162 -160 162q-45 0 -73.5 -24.5t-28.5 -65.5q0 -68 131 -132q225 -109 225 -286q-2 -131 -100 -203t-250 -72z" />
<glyph unicode="t" horiz-adv-x="661" d="M637 709h-184q-20 0 -24.5 -7.5t-4.5 -39.5v-308q0 -47 1 -70.5t8 -62.5t21.5 -58.5t43 -34.5t69.5 -15q39 0 86 30q30 -9 30 -41q0 -6 -1 -12q-47 -49 -126 -84t-169 -35q-229 0 -229 234v457q0 33 -6.5 40t-32.5 7h-64q-16 6 -20 29q-1 6 -1 11q0 15 9 23q68 25 170 92 q80 57 152 160q8 5 21 5q5 0 10 -1q22 -2 30 -14v-154q0 -29 5 -35t34 -6h182q16 -12 17 -39q0 -55 -27 -71z" />
<glyph unicode="u" horiz-adv-x="1114" d="M965 643v-373q0 -98 10 -136t45 -38q33 0 82 17q13 -2 13 -36q0 -43 -19 -52q-55 -2 -114.5 -10.5t-104.5 -19.5l-81 -21l-59 -15l-20 -8q-20 2 -25 24q6 37 6 74q0 20 -22 21q-53 -35 -82 -50.5t-83 -32t-114 -16.5q-125 0 -182 64.5t-57 197.5v349q0 78 -11.5 99 t-50.5 34l-26 8q-9 12 -9 30q0 29 17 42q111 4 198 18q27 4 58 13l50 16q19 6 22 6q20 0 24 -25q-6 -78 -6 -180v-338q0 -90 27.5 -137t117.5 -47q55 0 107 39q23 16 22 61v387q0 61 -16 82t-72 29l-28 4q-12 10 -10.5 37.5t20.5 34.5q88 4 213 20q31 4 64.5 12.5t55 14.5 t25.5 6q16 0 21 -25q-6 -110 -6 -180z" />
<glyph unicode="v" horiz-adv-x="935" d="M33 743l-43 11q-13 10 -14 34q0 31 20 37q115 -6 254 -6l227 6q12 -8 13.5 -35.5t-9.5 -35.5l-32 -9q-35 -8 -35 -20q0 -16 18 -72q49 -133 129 -317q109 248 139 336q12 31 13 51q0 12 -49 25l-29 6q-14 8 -13 35.5t15 35.5q98 -6 168 -6q23 0 158 6q16 -8 16 -34.5 t-12 -36.5l-35 -6q-43 -8 -64.5 -29t-54.5 -84q-92 -184 -293 -649q-18 -14 -47 -15q-27 0 -49 15q-131 315 -279 628q-37 76 -56 98.5t-56 30.5z" />
<glyph unicode="w" horiz-adv-x="1396" d="M227 819h414q166 0 363 6q16 -2 17 -33.5t-11 -37.5l-31 -6q-76 -16 -76 -31q0 -16 17 -64q53 -141 139 -329q35 86 115 313q18 55 18 80q0 16 -51 28l-35 9q-10 10 -8 37.5t16 33.5q102 -6 168 -6q90 0 158 6q17 -7 16 -38q0 -21 -10 -33l-29 -6q-49 -10 -68.5 -31 t-45.5 -80q-135 -299 -275 -651q-14 -14 -47 -14.5t-47 14.5q-72 184 -211 481q-23 -45 -223 -481q-14 -14 -47 -14.5t-47 14.5q-195 461 -300 680q-20 41 -36.5 55t-46.5 22l-37 11q-11 11 -11 31q0 31 17 40q126 -6 235 -6zM662 629q0 27 -24 63.5t-52 42.5q-39 8 -99 8 q-104 0 -104 -30q0 -20 18 -68q78 -195 146 -321q92 178 108 243q7 27 7 62z" />
<glyph unicode="x" horiz-adv-x="937" d="M915 754l-28 -4q-82 -12 -123 -37q-49 -31 -154 -164q-39 -51 -39 -62q0 -18 43 -79l140 -207q51 -76 89 -102.5t93 -30.5l22 -2q11 -9 12 -34q0 -31 -18 -38q-135 6 -247 6q-131 0 -273 -6q-14 6 -16 33.5t10 38.5l45 8q35 8 35 22.5t-25 55.5q-63 100 -88 135 q-37 -53 -84 -135q-25 -43 -24 -60q0 -12 37 -20l32 -6q12 -10 10 -38t-14 -34q-88 6 -184 6q-63 0 -160 -6q-14 8 -16 33.5t12 38.5l51 8q70 12 97 41q23 23 84 101.5t83 113.5q18 31 19 45q0 6 -66 108l-110 170q-47 72 -125 90l-43 11q-11 7 -11 30q0 37 17 41 q121 -6 248 -6q109 0 219 6q18 -6 19 -34.5t-15 -36.5l-25 -6q-31 -4 -30 -15q0 -12 18 -43q18 -33 84 -125l88 127q14 20 14 37q0 8 -32 19l-23 6q-14 8 -11 36.5t17 34.5q90 -6 187 -6q80 0 155 6q14 -4 16 -33.5t-12 -37.5z" />
<glyph unicode="y" horiz-adv-x="960" d="M25 748l-37 6q-11 9 -11 30q0 34 17 41q111 -6 270 -6q117 0 230 6q14 -6 16 -33.5t-10 -37.5l-41 -9q-41 -8 -51.5 -16t-10.5 -22q0 -16 62 -183q90 -229 92 -233q16 29 63 135l37 84q76 174 76 207q0 20 -45 28l-41 9q-14 10 -12 38.5t18 32.5q68 -6 199 -6q80 0 160 6 q17 -7 16 -41q0 -23 -12 -30l-39 -4q-66 -6 -94 -45q-49 -66 -121 -216l-109 -223l-311 -645q-61 -131 -176 -135h-4q-127 0 -127 123q0 47 31.5 76.5t84.5 29.5h50q68 0 100 43q16 23 59 113q29 57 29 86q0 49 -39 149l-197 496q-33 80 -54 109t-68 37z" />
<glyph unicode="z" horiz-adv-x="849" d="M457 0h-199q-150 0 -199 -6q-23 8 -14 33q94 141 180 295l191 337q23 43 22 60q0 10 -57 10h-64q-113 0 -145 -39q-39 -39 -66 -119q-14 -12 -39.5 -6t-33.5 23q27 178 63 270q8 8 22.5 8t20.5 -8q4 -27 21.5 -33t93.5 -6h369q133 0 170 6q16 -8 12 -26 q-18 -25 -146 -240l-219 -373q-37 -63 -37 -84q0 -12 82 -12h50q150 0 192 70q23 31 61 110q12 12 39 8t35 -18q-4 -57 -30.5 -146t-47.5 -120q-251 6 -327 6z" />
<glyph unicode="{" horiz-adv-x="696" d="M489 332q0 -72 -19 -211t-19 -209q0 -68 34.5 -114t137.5 -64q8 -10 7 -31.5t-12 -26.5q-80 0 -134 8.5t-107 35t-79 83t-26 142.5q0 68 16.5 211t16.5 206q0 29 -4 49.5t-20.5 47t-55.5 43t-100 20.5q-10 12 -10 28.5t10 24.5q66 4 105.5 19.5t54 43.5t17.5 45t3 52 q0 63 -16.5 206.5t-16.5 211.5q0 70 20.5 120t50.5 78.5t79 45t93 20.5t103 4q10 -4 11.5 -25.5t-6.5 -31.5q-172 -31 -172 -178q0 -70 19 -209t19 -211q0 -174 -153 -213v-8q153 -39 153 -213z" />
<glyph unicode="|" horiz-adv-x="507" d="M344 1536v-2048h-180v2048h180z" />
<glyph unicode="}" horiz-adv-x="696" d="M207 332q0 174 153 213v8q-154 39 -153 213q0 72 19.5 211t19.5 209q0 147 -172 178q-8 10 -7 31.5t11 25.5q59 0 103 -4t93.5 -20.5t79 -45t50 -78.5t20.5 -120q0 -68 -16.5 -211t-16.5 -207q0 -35 3 -52t17.5 -45t54.5 -43t105 -20q10 -8 10.5 -24t-10.5 -29 q-61 -4 -100 -20.5t-55.5 -43t-20.5 -47t-4 -49.5q0 -63 16.5 -206.5t16.5 -210.5q0 -164 -89 -216.5t-257 -52.5q-10 4 -11 26t7 32q102 18 137 64t35 114q0 70 -19.5 209t-19.5 211z" />
<glyph unicode="~" horiz-adv-x="1064" d="M401 510h261q70 0 106.5 34t67.5 118q25 16 61.5 6.5t52.5 -37.5q-35 -131 -112 -215q-45 -53 -156 -54h-283q-61 0 -101 -39.5t-73 -121.5q-23 -14 -62.5 -7t-47.5 33q4 39 35.5 107.5t66.5 114.5q33 39 73.5 50t110.5 11z" />
<glyph unicode="&#xa1;" horiz-adv-x="520" d="M260 -545q-84 0 -124 19.5t-40 68.5q0 10 33 240l86 575q18 12 45 12.5t45 -12.5l86 -575q33 -229 33 -240q0 -49 -40 -68.5t-124 -19.5zM260 807q74 0 120 -47t46 -119q0 -68 -47 -119t-119 -51q-70 0 -118 49t-48 121t50 119t116 47z" />
<glyph unicode="&#xa2;" horiz-adv-x="888" d="M467 190l74 535q-102 -2 -149.5 -90t-47.5 -195q0 -182 123 -250zM627 702l-76 -542q25 -4 45 -4q61 0 118.5 34.5t86.5 90.5q47 0 47 -33q-90 -199 -313 -209l-25 -172q-14 -14 -45 -14t-43 14l24 174q-162 14 -258 112.5t-96 243.5q0 190 133 297t328 111l18 135 q14 10 42 10t46 -10l-18 -137q90 -8 141 -25q43 -37 43 -102q0 -35 -17 -61.5t-36 -26.5q-14 0 -22 8q-86 86 -123 106z" />
<glyph unicode="&#xa3;" horiz-adv-x="1044" d="M563 588h246q12 -25 6 -51.5t-27 -40.5h-223q-27 0 -34 -4.5t-7 -20.5q0 -92 -50 -148.5t-146 -99.5l2 -4q53 6 127 -2q72 -10 182 -65q104 -49 166 -50q72 0 26 91q-20 39 2.5 71.5t53.5 32.5q35 0 63.5 -28.5t28.5 -78.5q0 -102 -89 -187t-206 -85q-109 0 -233 74 q-145 84 -205 82q-31 0 -47.5 -20.5t-20.5 -45.5q-4 -14 -58 -29.5t-75 -15.5q-37 0 -37 39q0 45 92 115q135 100 136 358q0 8 -1.5 11t-3.5 4.5t-10 2.5t-16 3h-160q-12 8 -8 41.5t29 50.5h137q20 0 24 2t2 12v49q0 197 128 318t325 121q104 0 147 -43q23 -18 23 -58 q0 -45 -24.5 -78.5t-41.5 -33.5q-18 0 -45 16q-82 84 -143 84q-18 0 -36.5 -18.5t-34 -66.5t-15.5 -116q0 -84 12 -164q2 -16 7 -20t32 -4z" />
<glyph unicode="&#xa4;" horiz-adv-x="1064" d="M532.5 922q-104.5 0 -179 -79t-74.5 -202t74.5 -202t179 -79t179 80t74.5 201t-74.5 201t-179 80zM532.5 1079q143.5 0 243.5 -73l76 100q45 -4 85 -39t48 -84l-94 -86q84 -98 84 -256t-84 -256l94 -86q-8 -49 -48 -84t-85 -39l-76 100q-100 -74 -243.5 -73.5 t-243.5 73.5l-76 -100q-45 4 -85 39t-48 84l94 86q-84 98 -84 256t84 256l-94 86q8 49 48 84t85 39l76 -100q100 73 243.5 73z" />
<glyph unicode="&#xa5;" horiz-adv-x="1044" d="M885 315h-248v-98q0 -74 13.5 -102.5t62.5 -40.5l57 -15q16 -2 14 -31.5t-18 -31.5q-135 4 -305 4q-59 0 -223 -4q-10 4 -10.5 28.5t8.5 34.5l47 11q45 10 62 39.5t17 107.5v98h-247q-8 8 -8.5 46t8.5 47h243v137h-243q-8 6 -8.5 44t8.5 46h219l-164 239 q-72 109 -139 121l-41 9q-6 6 -6 32.5t12 30.5q70 -6 256 -6q174 0 260 6q14 -6 12 -32.5t-10 -30.5l-43 -13q-37 -6 -37 -26q0 -33 49 -107l68 -102q27 -43 39 -43t33 35l86 149q27 45 26 74q0 10 -39 20l-20 10q-8 6 -7 34t13 32q51 -6 174 -6q70 0 139 6q8 -4 9.5 -28.5 t-5.5 -37.5l-34 -12q-92 -35 -156 -131l-147 -223h223q8 -16 8 -50t-8 -40h-244v-137h244q8 -8 8 -46.5t-8 -46.5z" />
<glyph unicode="&#xa6;" horiz-adv-x="507" d="M344 1382v-716h-180v716h180zM344 358v-716h-180v716h180z" />
<glyph unicode="&#xa7;" horiz-adv-x="1075" d="M655 1384q113 0 159 -37.5t46 -80.5t-32.5 -65.5t-73.5 -22.5t-84 32q-96 72 -138 72q-31 0 -58.5 -29.5t-27.5 -66.5q0 -61 57.5 -131t239.5 -203q125 -92 187.5 -206t62.5 -277q0 -223 -179 -423t-431 -200q-86 0 -134 32t-48 89q0 39 26.5 65.5t71.5 26.5t113 -47 q78 -53 135 -53q39 0 65.5 26.5t26.5 73.5q0 72 -82 169t-199 189q-139 111 -207.5 223.5t-68.5 258.5q0 223 175 404t398 181zM508 492q143 -119 199.5 -230.5t42.5 -249.5l4 -4q102 109 102 254q0 113 -62.5 212t-199.5 208q-170 133 -224.5 224t-45.5 229 q-43 -35 -74 -91.5t-31 -115.5q0 -41 6 -72t31 -86t88.5 -124.5t163.5 -153.5z" />
<glyph unicode="&#xa8;" horiz-adv-x="778" d="M207 997q-55 0 -91 32t-38 89q0 57 37 94t92 37q53 0 89 -35.5t36 -85.5q0 -59 -35 -95t-90 -36zM575.5 997q-55.5 0 -91 32t-38.5 89q0 57 37 94t92 37q53 0 89 -35.5t36 -85.5q0 -59 -34.5 -95t-90 -36z" />
<glyph unicode="&#xa9;" horiz-adv-x="1597" d="M864 305q-123 0 -212 37t-133 96.5t-63.5 117.5t-19.5 118q0 168 116 277.5t312 109.5q51 0 96.5 -6t91.5 -17.5t50 -11.5q4 -31 18 -211q-8 -10 -27.5 -12t-27.5 6q-53 180 -193 180q-84 0 -150.5 -73.5t-66.5 -231.5q0 -152 68 -229.5t162 -77.5q119 0 211 170 q8 10 26.5 8t26.5 -12q-10 -111 -53 -183q-85 -55 -232 -55zM799 -33q-297 0 -507 208t-210 501t210 500.5t507 207.5t507 -207.5t210 -500.5t-210 -501t-507 -208zM1376 678q0 256 -170 433t-407.5 177t-407.5 -177t-170 -433t170 -435.5t407.5 -179.5t407.5 179.5 t170 435.5z" />
<glyph unicode="&#xaa;" horiz-adv-x="765" d="M401 1106q123 0 178.5 -46t51.5 -153l-10 -219q-6 -102 59 -102q23 0 55 14q12 -2 18.5 -13.5t0.5 -29.5q-25 -27 -75 -46t-91 -19q-86 0 -127 38q-20 20 -33 21q-6 0 -43 -25q-66 -35 -125 -34q-98 0 -146 48t-48 107q0 109 112 144q102 35 207 61q41 12 45 39v20 q0 123 -90 123q-59 0 -70 -65q-6 -43 -32 -64q-53 -31 -121 -31q-51 0 -51 35q0 49 63 105q43 37 118.5 64.5t153.5 27.5zM270 668q0 -31 23.5 -55.5t58.5 -24.5q63 0 68 57l6 100q4 39 -16 39q-33 0 -58 -10q-82 -34 -82 -106z" />
<glyph unicode="&#xab;" horiz-adv-x="884" d="M446 786l-155 -327q-14 -29 0 -60l155 -333q-16 -33 -45 -31l-311 356q-31 37 0 74l311 352q35 -8 45 -31zM811 786l-156 -327q-14 -29 0 -60l156 -333q-16 -33 -45 -31l-311 356q-31 37 0 74l311 352q35 -8 45 -31z" />
<glyph unicode="&#xac;" horiz-adv-x="1064" d="M764 137v375h-641v147h821v-522h-180z" />
<glyph unicode="&#xad;" horiz-adv-x="671" d="M92 485l490 45q29 -33 28 -86q0 -47 -26 -79l-492 -46q-31 31 -31 82q0 45 31 84z" />
<glyph unicode="&#xae;" horiz-adv-x="708" d="M252 1036v129q0 43 -27 45h-10q-4 6 -3 14.5t7 10.5q102 4 135 4q123 0 123 -76q0 -45 -45 -63q-6 -2 0 -17q37 -72 62 -90q18 -12 22 -12t4 -7t-4 -9q-12 -2 -35 -2q-57 0 -90 47q-4 6 -35 57q-6 12 -20 12q-10 0 -10 -10v-33q0 -27 4 -36t24 -11l8 -2q2 -2 2.5 -11 t-2.5 -11q-12 0 -35.5 1t-38 1t-37 -1t-32.5 -1q-6 2 -7 11t3 11l10 2q18 4 22.5 11t4.5 36zM326 1190v-68q0 -12 3 -14t21 -2q41 0 41 45q0 57 -39 57q-18 0 -22 -3t-4 -15zM354 1386q121 0 207 -83.5t86 -202.5t-86 -203t-207 -84t-207 84t-86 203t86 202.5t207 83.5z M354 1337q-92 0 -157.5 -69.5t-65.5 -168t65.5 -167t157.5 -68.5t158 68.5t66 167.5q0 100 -66 168.5t-158 68.5z" />
<glyph unicode="&#xaf;" horiz-adv-x="778" d="M647 1026h-518q-18 25 -18 73t18 72h518q20 -25 20 -72.5t-20 -72.5z" />
<glyph unicode="&#x2c9;" horiz-adv-x="778" d="M647 1026h-518q-18 25 -18 73t18 72h518q20 -25 20 -72.5t-20 -72.5z" />
<glyph unicode="&#xb0;" horiz-adv-x="765" d="M383 1311q127 0 214 -81t87 -210q0 -133 -87 -212t-214 -79t-214 79t-87 212q0 129 87 210t214 81zM543 1020q0 88 -45 144.5t-115 56.5t-115 -56.5t-45 -144.5t45 -144.5t115 -56.5q76 0 118 55.5t42 145.5z" />
<glyph unicode="&#xb1;" horiz-adv-x="1064" d="M625 205h-181v301h-321v147h321v285h181v-285h319v-147h-319v-301zM944 0h-821v147h821v-147z" />
<glyph unicode="&#xb2;" d="M430 655h-197q-88 0 -133 -4q-23 12 -14 39q102 80 207 187q154 162 153 323q0 63 -32.5 102t-87.5 39q-98 0 -166 -120q-16 -12 -37 -1t-21 35q51 100 136.5 152.5t181.5 52.5q131 0 203.5 -63.5t72.5 -165.5q0 -147 -200 -297l-64 -47l-51 -43q-14 -14 -9 -24.5 t25 -10.5h127q78 0 113 12.5t59 57.5q29 10 47 -9q-25 -133 -79 -219q-111 4 -234 4z" />
<glyph unicode="&#xb3;" d="M238 575q-59 0 -107.5 28t-48.5 81q0 31 21.5 57.5t66.5 26.5q12 0 23.5 -4t19.5 -10t18.5 -15.5t14.5 -15.5l11 -17l9 -14q23 -35 60 -35q53 -2 103 54.5t50 160.5q0 78 -36.5 125t-96.5 47q-80 0 -137 -51q-29 6 -38 32t5 42q51 18 78 30.5t78 40t75.5 61.5t24.5 73 q0 37 -24.5 59.5t-67.5 22.5q-84 0 -152 -103q-18 -8 -35.5 4.5t-15.5 30.5q43 82 122 128t169 46q98 0 160.5 -43t62.5 -108q0 -49 -32.5 -86t-124.5 -74q-18 -8 6 -16q4 -2 10 -3q92 -10 153.5 -58t61.5 -142q0 -152 -170 -258q-151 -97 -317 -97z" />
<glyph unicode="&#xb4;" horiz-adv-x="778" d="M197 969l186 372q29 61 63 62q33 0 80 -33q55 -43 55.5 -73.5t-44.5 -75.5l-289 -285q-45 -6 -51 33z" />
<glyph unicode="&#xb5;" horiz-adv-x="1097" d="M956 643v-373q0 -98 10.5 -136t45.5 -38q33 0 82 17q14 -2 13 -41t-20 -47q-55 -2 -114.5 -10.5t-104.5 -19.5l-81 -21l-58 -15l-20 -8q-20 2 -25 24q6 37 6 74q0 20 -22 21q-53 -35 -82 -50.5t-83 -32t-114 -16.5q-39 0 -72 25q-20 -4 -20 -45v-64q0 -76 50 -173 t50 -115q0 -51 -63.5 -100.5t-134.5 -49.5q-49 0 -49 74v1059q0 78 -11.5 99t-50.5 34l-27 8q-10 14 -8 37.5t17 34.5q111 4 198 18q27 4 58 13l50 16q19 6 21 6q20 0 25 -25q-6 -78 -6 -180v-338q0 -90 27.5 -137t117.5 -47q55 0 107 39q23 16 22 61v387q0 61 -16.5 82 t-71.5 29l-29 4q-12 10 -10 37.5t21 34.5q88 4 213 20q31 4 64.5 12.5t55 14.5t25.5 6q16 0 21 -25q-7 -110 -7 -180z" />
<glyph unicode="&#x3bc;" horiz-adv-x="1097" d="M956 643v-373q0 -98 10.5 -136t45.5 -38q33 0 82 17q14 -2 13 -41t-20 -47q-55 -2 -114.5 -10.5t-104.5 -19.5l-81 -21l-58 -15l-20 -8q-20 2 -25 24q6 37 6 74q0 20 -22 21q-53 -35 -82 -50.5t-83 -32t-114 -16.5q-39 0 -72 25q-20 -4 -20 -45v-64q0 -76 50 -173 t50 -115q0 -51 -63.5 -100.5t-134.5 -49.5q-49 0 -49 74v1059q0 78 -11.5 99t-50.5 34l-27 8q-10 14 -8 37.5t17 34.5q111 4 198 18q27 4 58 13l50 16q19 6 21 6q20 0 25 -25q-6 -78 -6 -180v-338q0 -90 27.5 -137t117.5 -47q55 0 107 39q23 16 22 61v387q0 61 -16.5 82 t-71.5 29l-29 4q-12 10 -10 37.5t21 34.5q88 4 213 20q31 4 64.5 12.5t55 14.5t25.5 6q16 0 21 -25q-7 -110 -7 -180z" />
<glyph unicode="&#xb6;" horiz-adv-x="1003" d="M762 918v-873q0 -315 -127 -412q-57 -43 -168 -43q-88 0 -153.5 45.5t-65.5 135.5q0 47 20.5 81.5t46.5 43.5q57 2 97.5 -19.5t46.5 -50.5q-2 -2 -10.5 -16.5t-13.5 -30t-5 -29.5q0 -37 23.5 -58.5t60.5 -21.5q139 0 139 295v240q0 43 -11 58.5t-42 15.5 q-225 0 -371.5 115.5t-146.5 299.5q0 240 197 353q158 90 415 90q178 0 244 -13q14 -8 14 -30.5t-12 -32.5l-70 -12q-80 -14 -94 -31.5t-14 -99.5z" />
<glyph unicode="&#xb7;" horiz-adv-x="532" d="M266 258q-66 0 -116 47t-50 119t48.5 121t117.5 49q72 0 119 -51t47 -119q0 -72 -46 -119t-120 -47z" />
<glyph unicode="&#x2219;" horiz-adv-x="532" d="M266 258q-66 0 -116 47t-50 119t48.5 121t117.5 49q72 0 119 -51t47 -119q0 -72 -46 -119t-120 -47z" />
<glyph unicode="&#xb8;" horiz-adv-x="778" d="M444 0h109l-78 -106q-12 -16 -8 -23.5t27 -20.5q125 -68 124 -174q0 -82 -77.5 -136t-182.5 -54q-158 0 -157 90q0 29 18.5 48.5t46.5 19.5q31 0 75 -38t65 -38q18 0 35.5 14.5t17.5 36.5q0 82 -156 148l-6 16z" />
<glyph unicode="&#xb9;" d="M307 854v328q0 59 -11 81.5t-54 28.5l-64 8q-12 8 -12 29t12 29q203 27 342 102q20 0 25 -16q-6 -104 -6 -180v-410q0 -63 2 -83.5t15 -36t44 -19.5l62 -8q10 -8 8 -29t-13 -27q-152 4 -235 4q-82 0 -234 -4q-10 6 -12 26.5t8 29.5l62 8q45 6 53 29.5t8 109.5z" />
<glyph unicode="&#xba;" horiz-adv-x="827" d="M420 1106q152 0 246 -83t94 -220q0 -150 -98.5 -230.5t-251.5 -80.5q-150 0 -245 76.5t-95 215.5q0 150 101.5 236t248.5 86zM526 758q0 123 -29.5 198.5t-84.5 75.5q-47 0 -78 -51t-31 -152q0 -123 32 -193.5t89 -70.5q49 0 75.5 55.5t26.5 137.5z" />
<glyph unicode="&#xbb;" horiz-adv-x="884" d="M229 459l-155 327q10 23 45 31l311 -352q31 -37 0 -74l-311 -356q-29 -2 -45 31l155 333q14 31 0 60zM594 459l-156 327q10 23 45 31l312 -352q31 -37 0 -74l-312 -356q-29 -2 -45 31l156 333q14 31 0 60z" />
<glyph unicode="&#xbc;" horiz-adv-x="1720" d="M1245 156v28q0 27 -4 32t-27 5h-313q-23 12 -14 47l442 580q20 25 41 24h60q10 0 15 -6t3 -16t-12 -23l-402 -505q-2 -20 31 -23h149q20 0 25.5 6t5.5 29v153q0 35 37 45q123 37 168 37q23 0 23 -20v-215q0 -23 5 -29t25 -6h90q16 -6 16.5 -38t-16.5 -40h-90 q-23 0 -26.5 -5t-3.5 -32v-28q0 -61 11 -80t62 -23l27 -2q10 -8 10 -27.5t-12 -27.5q-160 4 -230 4q-98 0 -217 -4q-12 6 -13 26.5t9 28.5l41 2q61 2 72.5 18.5t11.5 84.5zM1286 1290l-758 -1372q-29 -6 -57.5 8.5t-38.5 40.5l758 1372q27 4 58.5 -10t37.5 -39zM287 705v327 q0 59 -11.5 82t-54.5 29l-63 8q-12 8 -12.5 28.5t12.5 28.5q203 27 342 103q20 0 24 -17q-6 -104 -6 -180v-409q0 -63 2 -84t15.5 -36.5t44.5 -19.5l61 -8q10 -8 8 -28.5t-12 -26.5q-152 4 -236 4q-82 0 -233 -4q-10 6 -12 26.5t8 28.5l61 8q45 6 53.5 30t8.5 110z" />
<glyph unicode="&#xbd;" horiz-adv-x="1720" d="M1262 1290l-758 -1372q-29 -6 -57.5 8.5t-38.5 40.5l757 1372q27 4 59 -10t38 -39zM264 705v327q0 59 -11 82t-54 29l-64 8q-12 8 -12 28.5t12 28.5q203 27 342 103q20 0 25 -17q-6 -104 -6 -180v-409q0 -63 2 -84t15 -36.5t44 -19.5l61 -8q10 -8 8.5 -28.5t-12.5 -26.5 q-152 4 -235 4q-82 0 -234 -4q-10 6 -12 26.5t8 28.5l62 8q45 6 53 30t8 110zM1337 0h-196q-88 0 -133 -4q-23 12 -15 39q102 80 207 186q154 162 154 324q0 63 -33 102t-88 39q-98 0 -166 -121q-14 -12 -35.5 -1t-21.5 36q51 100 136 152.5t181 52.5q131 0 204 -63.5 t73 -166.5q0 -147 -201 -296l-64 -48l-51 -43q-14 -14 -9 -24t26 -10h127q78 0 112.5 12t59.5 57q29 10 47 -8q-25 -133 -80 -219q-111 4 -234 4z" />
<glyph unicode="&#xbe;" horiz-adv-x="1720" d="M1317 156v28q0 27 -4 32t-27 5h-313q-23 12 -15 47l443 580q20 25 41 24h59q10 0 15.5 -6t3.5 -16t-13 -23l-401 -505q-2 -20 31 -23h149q20 0 25.5 6t5.5 29v153q0 35 37 45q123 37 168 37q23 0 22 -20v-215q0 -23 5 -29t26 -6h90q16 -6 16 -38t-16 -40h-90 q-23 0 -27 -5t-4 -32v-28q0 -61 11.5 -80t62.5 -23l27 -2q10 -8 10 -27.5t-13 -27.5q-160 4 -229 4q-98 0 -217 -4q-12 6 -13 26.5t9 28.5l41 2q61 2 72.5 18.5t11.5 84.5zM1337 1290l-757 -1372q-29 -6 -57.5 8.5t-39.5 40.5l758 1372q27 4 58.5 -10t37.5 -39zM244 426 q-59 0 -107.5 27.5t-48.5 81.5q0 31 21.5 57t66.5 26q12 0 23.5 -4t19.5 -10t18.5 -15t14.5 -16l11 -17q7 -11 9 -13q23 -35 60 -35q53 -2 103 54t50 161q0 78 -36.5 125t-96.5 47q-80 0 -137 -51q-29 6 -38 31.5t5 42.5q51 18 78 30.5t78 40t75.5 61t24.5 72.5 q0 37 -24.5 59.5t-67.5 22.5q-84 0 -151 -102q-18 -8 -36 4t-16 31q43 82 122 128t169 46q98 0 160.5 -43t62.5 -109q0 -49 -32.5 -86t-124.5 -74q-18 -8 6 -16q4 -2 10 -2q92 -10 153.5 -58.5t61.5 -142.5q0 -152 -170 -258q-151 -96 -317 -96z" />
<glyph unicode="&#xbf;" horiz-adv-x="679" d="M455 -545q-143 0 -258 126t-115 292q0 160 129 219l135 62q84 37 84 88t-20 110q8 14 31.5 18.5t35.5 -8.5q31 -43 60.5 -113.5t29.5 -127.5q0 -80 -41 -120t-143 -83l-96 -41q-53 -23 -76 -38t-23 -36q0 -47 69 -68.5t228 -21.5q37 0 75 -34.5t38 -96.5q0 -53 -40 -90 t-103 -37zM412 807q72 0 119 -51t47 -119q0 -72 -46.5 -119t-119.5 -47q-66 0 -116 47t-50 119t48 121t118 49z" />
<glyph unicode="&#xc0;" horiz-adv-x="1277" d="M664 463h-230q-37 0 -48 -6t-19 -35l-76 -238q-14 -47 -15 -73q0 -23 74 -35l62 -10q10 -12 10 -39t-14 -33q-12 0 -240 6q-33 0 -96.5 -3t-114.5 -3q-16 8 -17 33.5t11 38.5l55 6q43 6 71.5 26.5t53.5 75.5q35 82 127 328l184 499q12 35 33 85.5t29 74t14 52t4 49.5 q27 6 55.5 21t49 31.5t37.5 33.5l26 26l10 10q37 0 48 -41q25 -86 92 -280l278 -803q37 -102 60.5 -138t76.5 -44l78 -12q10 -8 10 -35t-12 -37q-147 6 -315 6q-135 0 -277 -6q-16 10 -18 34.5t14 37.5l66 10q55 10 55 35q0 18 -39 139l-55 176q-8 25 -25.5 31t-72.5 6z M475 571h178q37 0 44.5 9.5t-3.5 50.5l-53 166q-57 178 -74 215q-37 -82 -84 -226l-51 -153q-12 -41 -4 -51.5t47 -10.5zM475 1749l332 -242q12 -31 -23 -61l-401 131q-57 16 -66 51q-10 35 21 88q33 63 70 64q22 0 67 -31z" />
<glyph unicode="&#xc1;" horiz-adv-x="1277" d="M664 463h-230q-37 0 -48 -6t-19 -35l-76 -238q-14 -47 -15 -73q0 -23 74 -35l62 -10q10 -12 10 -39t-14 -33q-12 0 -240 6q-33 0 -96.5 -3t-114.5 -3q-16 8 -17 33.5t11 38.5l55 6q43 6 71.5 26.5t53.5 75.5q35 82 127 328l184 499q12 35 33 85.5t29 74t14 52t4 49.5 q27 6 55.5 21t49 31.5t37.5 33.5l26 26l10 10q37 0 48 -41q25 -86 92 -280l278 -803q37 -102 60.5 -138t76.5 -44l78 -12q10 -8 10 -35t-12 -37q-147 6 -315 6q-135 0 -277 -6q-16 10 -18 34.5t14 37.5l66 10q55 10 55 35q0 18 -39 139l-55 176q-8 25 -25.5 31t-72.5 6z M475 571h178q37 0 44.5 9.5t-3.5 50.5l-53 166q-57 178 -74 215q-37 -82 -84 -226l-51 -153q-12 -41 -4 -51.5t47 -10.5zM510 1497l332 248q47 35 67 35q37 0 70 -64q31 -53 20 -88q-8 -35 -65 -51l-402 -131q-32 12 -22 51z" />
<glyph unicode="&#xc2;" horiz-adv-x="1277" d="M664 463h-230q-37 0 -48 -6t-19 -35l-76 -238q-14 -47 -15 -73q0 -23 74 -35l62 -10q10 -12 10 -39t-14 -33q-12 0 -240 6q-33 0 -96.5 -3t-114.5 -3q-16 8 -17 33.5t11 38.5l55 6q43 6 71.5 26.5t53.5 75.5q35 82 127 328l184 499q12 35 33 85.5t29 74t14 52t4 49.5 q27 6 55.5 21t49 31.5t37.5 33.5l26 26l10 10q37 0 48 -41q25 -86 92 -280l278 -803q37 -102 60.5 -138t76.5 -44l78 -12q10 -8 10 -35t-12 -37q-147 6 -315 6q-135 0 -277 -6q-16 10 -18 34.5t14 37.5l66 10q55 10 55 35q0 18 -39 139l-55 176q-8 25 -25.5 31t-72.5 6z M475 571h178q37 0 44.5 9.5t-3.5 50.5l-53 166q-57 178 -74 215q-37 -82 -84 -226l-51 -153q-12 -41 -4 -51.5t47 -10.5zM940 1446l-248 110q-33 16 -67 0l-246 -110q-14 0 -24.5 16.5t-4.5 32.5l260 244q47 47 97 0l260 -244q6 -16 -4.5 -31.5t-22.5 -17.5z" />
<glyph unicode="&#xc3;" horiz-adv-x="1277" d="M664 463h-230q-37 0 -48 -6t-19 -35l-76 -238q-14 -47 -15 -73q0 -23 74 -35l62 -10q10 -12 10 -39t-14 -33q-12 0 -240 6q-33 0 -96.5 -3t-114.5 -3q-16 8 -17 33.5t11 38.5l55 6q43 6 71.5 26.5t53.5 75.5q35 82 127 328l184 499q12 35 33 85.5t29 74t14 52t4 49.5 q27 6 55.5 21t49 31.5t37.5 33.5l26 26l10 10q37 0 48 -41q25 -86 92 -280l278 -803q37 -102 60.5 -138t76.5 -44l78 -12q10 -8 10 -35t-12 -37q-147 6 -315 6q-135 0 -277 -6q-16 10 -18 34.5t14 37.5l66 10q55 10 55 35q0 18 -39 139l-55 176q-8 25 -25.5 31t-72.5 6z M475 571h178q37 0 44.5 9.5t-3.5 50.5l-53 166q-57 178 -74 215q-37 -82 -84 -226l-51 -153q-12 -41 -4 -51.5t47 -10.5zM739 1513h-110q-80 0 -121 -25.5t-82 -96.5q-16 -6 -42 -2t-34 16q37 135 99 207q53 63 143 63h133q59 0 96 21.5t64 85.5q59 12 73 -13 q-23 -111 -77 -192q-27 -35 -57 -49.5t-85 -14.5z" />
<glyph unicode="&#xc4;" horiz-adv-x="1277" d="M664 463h-230q-37 0 -48 -6t-19 -35l-76 -238q-14 -47 -15 -73q0 -23 74 -35l62 -10q10 -12 10 -39t-14 -33q-12 0 -240 6q-33 0 -96.5 -3t-114.5 -3q-16 8 -17 33.5t11 38.5l55 6q43 6 71.5 26.5t53.5 75.5q35 82 127 328l184 499q12 35 33 85.5t29 74t14 52t4 49.5 q27 6 55.5 21t49 31.5t37.5 33.5l26 26l10 10q37 0 48 -41q25 -86 92 -280l278 -803q37 -102 60.5 -138t76.5 -44l78 -12q10 -8 10 -35t-12 -37q-147 6 -315 6q-135 0 -277 -6q-16 10 -18 34.5t14 37.5l66 10q55 10 55 35q0 18 -39 139l-55 176q-8 25 -25.5 31t-72.5 6z M475 571h178q37 0 44.5 9.5t-3.5 50.5l-53 166q-57 178 -74 215q-37 -82 -84 -226l-51 -153q-12 -41 -4 -51.5t47 -10.5zM426 1458q-53 0 -88 31t-37 88q0 57 36 94t89 37t88 -36t35 -85q0 -57 -35 -93t-88 -36zM854 1458q-53 0 -88 31t-37 88q0 57 36 94t89 37t88 -36 t35 -85q0 -57 -35 -93t-88 -36z" />
<glyph unicode="&#xc5;" horiz-adv-x="1277" d="M664 463h-230q-37 0 -48 -6t-19 -35l-76 -238q-14 -47 -15 -73q0 -23 74 -35l62 -10q10 -12 10 -39t-14 -33q-12 0 -240 6q-33 0 -96.5 -3t-114.5 -3q-16 8 -17 33.5t11 38.5l55 6q43 6 71.5 26.5t53.5 75.5q35 82 127 328l184 499q12 35 33 85.5t29 74t14 52t4 49.5 q27 6 55.5 21t49 31.5t37.5 33.5l26 26l10 10q37 0 48 -41q25 -86 92 -280l278 -803q37 -102 60.5 -138t76.5 -44l78 -12q10 -8 10 -35t-12 -37q-147 6 -315 6q-135 0 -277 -6q-16 10 -18 34.5t14 37.5l66 10q55 10 55 35q0 18 -39 139l-55 176q-8 25 -25.5 31t-72.5 6z M475 571h178q37 0 44.5 9.5t-3.5 50.5l-53 166q-57 178 -74 215q-37 -82 -84 -226l-51 -153q-12 -41 -4 -51.5t47 -10.5zM639 1411q-94 0 -152.5 60.5t-58.5 142.5q0 80 58.5 140.5t152.5 60.5t152.5 -60.5t58.5 -140.5q0 -82 -58.5 -142.5t-152.5 -60.5zM639 1489 q43 0 67.5 36t24.5 89t-24.5 90t-67.5 39q-43 -2 -67.5 -39t-24.5 -90t24.5 -89t67.5 -36z" />
<glyph unicode="&#xc6;" horiz-adv-x="1722" d="M752 295v287q0 45 -8.5 56t-45.5 11h-206q-39 0 -53.5 -7t-24.5 -32q-168 -356 -201 -442q-16 -41 -16 -59q0 -23 51 -31l78 -12q16 -10 15 -38t-17 -34q-104 6 -254 6q-100 0 -211 -6q-14 10 -15.5 35.5t13.5 36.5l55 8q47 6 81 32.5t70 96.5q90 168 250 493l193 389 q61 123 61 152q0 25 -43 33l-94 16q-14 10 -14 37t20 35q111 -4 174 -4q59 -2 181 -2h528q233 0 274 6q0 -12 5.5 -62.5t11.5 -123t10 -132.5q-6 -16 -33.5 -19t-42.5 11q-37 119 -78 162q-63 63 -200 63h-164q-49 0 -58.5 -11t-9.5 -68v-359q0 -43 8.5 -52t49.5 -9h141 q82 0 109.5 19.5t41.5 92.5l11 52q10 12 38.5 12t36.5 -14q-6 -98 -6 -217t6 -218q-8 -14 -36.5 -15t-38.5 13l-11 52q-14 74 -42.5 94t-108.5 20h-141q-41 0 -49.5 -9t-8.5 -54v-244q0 -147 33 -195q20 -29 64.5 -41t150.5 -12q80 0 118 5t85 28t80.5 71t76.5 134 q12 16 41 12t35 -22q-6 -76 -34.5 -179.5t-51.5 -148.5q-29 2 -103.5 3t-111.5 1q-41 0 -128 1t-130 1h-266q-111 0 -342 -6q-12 10 -12 36.5t12 35.5l96 14q72 10 88.5 43t16.5 172zM522 758h176q37 0 45.5 12t8.5 66v327q0 78 -7 94h-10q-25 -31 -82 -147l-159 -319 q-8 -23 -3.5 -28t31.5 -5z" />
<glyph unicode="&#xc7;" horiz-adv-x="1411" d="M707 -217l124 186q-303 14 -489 154q-260 199 -260 536.5t248 542.5q219 182 567 182q92 0 182 -12t155.5 -25.5t84.5 -15.5q0 -162 24 -319q-6 -18 -36.5 -23.5t-40.5 8.5q-86 293 -385 293q-188 0 -329.5 -157.5t-141.5 -444.5q0 -291 142 -459t339 -168q291 0 418 318 q12 12 40.5 8t36.5 -22q-23 -229 -77 -322q-238 -68 -371 -74l-53 -75q-8 -10 -8 -16.5t5 -12.5t21 -15q125 -68 125 -174q0 -82 -78 -136t-182 -54q-158 0 -158 90q0 29 18.5 48.5t47.5 19.5q31 0 75 -38t64 -38q18 0 35.5 14.5t17.5 36.5q0 82 -155 148z" />
<glyph unicode="&#xc8;" horiz-adv-x="1214" d="M526 1178v-359q0 -43 8.5 -52t49.5 -9h141q82 0 109.5 19.5t42.5 92.5l10 52q10 12 38.5 12t37.5 -14q-6 -98 -6.5 -217t6.5 -218q-8 -14 -37 -15t-39 13l-10 52q-14 74 -43 94t-109 20h-141q-41 0 -49.5 -9t-8.5 -54v-244q0 -147 33 -195q20 -29 64.5 -41t150.5 -12 q80 0 118 5t85 28t81 71t77 134q12 16 40.5 12t34.5 -22q-6 -76 -34.5 -179.5t-51.5 -148.5q-162 6 -473 6h-266q-123 0 -352 -6q-12 10 -12.5 36.5t12.5 35.5l96 14q72 10 88 43t16 172v764q0 137 -16 170t-88 47l-51 10q-14 8 -12 36t16 36q143 -6 295 -6h434q233 0 274 6 q0 -12 5.5 -62.5t11.5 -123t10 -132.5q-6 -16 -33.5 -19t-42.5 11q-37 119 -78 162q-63 63 -200 63h-164q-49 0 -58.5 -11t-9.5 -68zM424 1749l332 -242q12 -31 -23 -61l-401 131q-57 16 -66 51q-10 35 21 88q33 63 69 64q23 0 68 -31z" />
<glyph unicode="&#xc9;" horiz-adv-x="1214" d="M526 1178v-359q0 -43 8.5 -52t49.5 -9h141q82 0 109.5 19.5t42.5 92.5l10 52q10 12 38.5 12t37.5 -14q-6 -98 -6.5 -217t6.5 -218q-8 -14 -37 -15t-39 13l-10 52q-14 74 -43 94t-109 20h-141q-41 0 -49.5 -9t-8.5 -54v-244q0 -147 33 -195q20 -29 64.5 -41t150.5 -12 q80 0 118 5t85 28t81 71t77 134q12 16 40.5 12t34.5 -22q-6 -76 -34.5 -179.5t-51.5 -148.5q-162 6 -473 6h-266q-123 0 -352 -6q-12 10 -12.5 36.5t12.5 35.5l96 14q72 10 88 43t16 172v764q0 137 -16 170t-88 47l-51 10q-14 8 -12 36t16 36q143 -6 295 -6h434q233 0 274 6 q0 -12 5.5 -62.5t11.5 -123t10 -132.5q-6 -16 -33.5 -19t-42.5 11q-37 119 -78 162q-63 63 -200 63h-164q-49 0 -58.5 -11t-9.5 -68zM520 1497l332 248q47 35 68 35q37 0 69 -64q31 -53 21 -88q-8 -35 -66 -51l-401 -131q-33 12 -23 51z" />
<glyph unicode="&#xca;" horiz-adv-x="1214" d="M526 1178v-359q0 -43 8.5 -52t49.5 -9h141q82 0 109.5 19.5t42.5 92.5l10 52q10 12 38.5 12t37.5 -14q-6 -98 -6.5 -217t6.5 -218q-8 -14 -37 -15t-39 13l-10 52q-14 74 -43 94t-109 20h-141q-41 0 -49.5 -9t-8.5 -54v-244q0 -147 33 -195q20 -29 64.5 -41t150.5 -12 q80 0 118 5t85 28t81 71t77 134q12 16 40.5 12t34.5 -22q-6 -76 -34.5 -179.5t-51.5 -148.5q-162 6 -473 6h-266q-123 0 -352 -6q-12 10 -12.5 36.5t12.5 35.5l96 14q72 10 88 43t16 172v764q0 137 -16 170t-88 47l-51 10q-14 8 -12 36t16 36q143 -6 295 -6h434q233 0 274 6 q0 -12 5.5 -62.5t11.5 -123t10 -132.5q-6 -16 -33.5 -19t-42.5 11q-37 119 -78 162q-63 63 -200 63h-164q-49 0 -58.5 -11t-9.5 -68zM883 1446l-236 98q-35 16 -65 2l-234 -100q-14 0 -23.5 15.5t-2.5 31.5l247 231q47 43 90 0l248 -231q6 -16 -3 -30.5t-21 -16.5z" />
<glyph unicode="&#xcb;" horiz-adv-x="1214" d="M526 1178v-359q0 -43 8.5 -52t49.5 -9h141q82 0 109.5 19.5t42.5 92.5l10 52q10 12 38.5 12t37.5 -14q-6 -98 -6.5 -217t6.5 -218q-8 -14 -37 -15t-39 13l-10 52q-14 74 -43 94t-109 20h-141q-41 0 -49.5 -9t-8.5 -54v-244q0 -147 33 -195q20 -29 64.5 -41t150.5 -12 q80 0 118 5t85 28t81 71t77 134q12 16 40.5 12t34.5 -22q-6 -76 -34.5 -179.5t-51.5 -148.5q-162 6 -473 6h-266q-123 0 -352 -6q-12 10 -12.5 36.5t12.5 35.5l96 14q72 10 88 43t16 172v764q0 137 -16 170t-88 47l-51 10q-14 8 -12 36t16 36q143 -6 295 -6h434q233 0 274 6 q0 -12 5.5 -62.5t11.5 -123t10 -132.5q-6 -16 -33.5 -19t-42.5 11q-37 119 -78 162q-63 63 -200 63h-164q-49 0 -58.5 -11t-9.5 -68zM424 1458q-53 0 -88 31t-37 88q0 57 36 94t89 37t88 -36t35 -85q0 -57 -35 -93t-88 -36zM852 1458q-53 0 -88 31t-37 88q0 57 36 94t89 37 t88 -36t35 -85q0 -57 -35 -93t-88 -36z" />
<glyph unicode="&#xcc;" horiz-adv-x="759" d="M526 1053v-754q0 -141 17.5 -176t89.5 -47l57 -10q12 -10 11 -36t-13 -36q-166 6 -307 6q-145 0 -311 -6q-12 10 -12.5 36.5t12.5 35.5l57 10q72 12 89 47t17 176v754q0 141 -17 176t-89 47l-57 10q-12 8 -12.5 35t12.5 37q166 -6 311 -6q143 0 309 6q12 -10 12 -37 t-12 -35l-57 -10q-72 -12 -89.5 -47t-17.5 -176zM203 1757l323 -250q12 -31 -22 -61l-402 131q-57 16 -65 51q-10 35 22 86q51 76 78 76q25 0 66 -33z" />
<glyph unicode="&#xcd;" horiz-adv-x="759" d="M526 1053v-754q0 -141 17.5 -176t89.5 -47l57 -10q12 -10 11 -36t-13 -36q-166 6 -307 6q-145 0 -311 -6q-12 10 -12.5 36.5t12.5 35.5l57 10q72 12 89 47t17 176v754q0 141 -17 176t-89 47l-57 10q-12 8 -12.5 35t12.5 37q166 -6 311 -6q143 0 309 6q12 -10 12 -37 t-12 -35l-57 -10q-72 -12 -89.5 -47t-17.5 -176zM231 1497l332 256q47 35 68 35q37 0 69 -64q31 -63 21 -96q-8 -35 -66 -51l-401 -131q-33 12 -23 51z" />
<glyph unicode="&#xce;" horiz-adv-x="759" d="M526 1053v-754q0 -141 17.5 -176t89.5 -47l57 -10q12 -10 11 -36t-13 -36q-166 6 -307 6q-145 0 -311 -6q-12 10 -12.5 36.5t12.5 35.5l57 10q72 12 89 47t17 176v754q0 141 -17 176t-89 47l-57 10q-12 8 -12.5 35t12.5 37q166 -6 311 -6q143 0 309 6q12 -10 12 -37 t-12 -35l-57 -10q-72 -12 -89.5 -47t-17.5 -176zM672 1446l-248 108q-35 14 -68 0l-245 -108q-14 0 -24.5 16.5t-4.5 32.5l260 244q47 47 96 0l260 -244q6 -16 -4 -31.5t-22 -17.5z" />
<glyph unicode="&#xcf;" horiz-adv-x="759" d="M526 1053v-754q0 -141 17.5 -176t89.5 -47l57 -10q12 -10 11 -36t-13 -36q-166 6 -307 6q-145 0 -311 -6q-12 10 -12.5 36.5t12.5 35.5l57 10q72 12 89 47t17 176v754q0 141 -17 176t-89 47l-57 10q-12 8 -12.5 35t12.5 37q166 -6 311 -6q143 0 309 6q12 -10 12 -37 t-12 -35l-57 -10q-72 -12 -89.5 -47t-17.5 -176zM168 1458q-53 0 -88 31t-37 88q0 57 36 94t89 37t88 -36t35 -85q0 -57 -35 -93t-88 -36zM596 1458q-53 0 -88 31t-37 88q0 57 36 94t89 37t88 -36t35 -85q0 -57 -35 -93t-88 -36z" />
<glyph unicode="&#xd0;" horiz-adv-x="1644" d="M246 295v354h-172q-16 18 -16.5 52t16.5 57h172v262q0 154 -15.5 194.5t-83.5 49.5l-38 4q-16 8 -15.5 38.5t19.5 32.5q309 18 549 19q291 0 477 -68q197 -70 306 -232.5t109 -361.5q0 -207 -95 -365.5t-271 -246.5q-193 -96 -518 -96q-51 0 -144.5 6t-128.5 6 q-143 0 -319 -6q-12 10 -12 36.5t12 35.5l63 10q70 10 87.5 45t17.5 174zM539 1118v-360h274q16 -16 16 -53t-16 -56h-274v-278q0 -182 41 -230q53 -59 170 -59q127 0 222 52t148.5 141.5t79 189.5t25.5 211q0 281 -145.5 434.5t-420.5 153.5q-86 0 -106 -27 q-14 -19 -14 -119z" />
<glyph unicode="&#xd1;" horiz-adv-x="1531" d="M1335 838v-490q0 -262 4 -330q-10 -18 -47 -32.5t-73 -14.5l-21 29q-20 31 -61 87t-84 108l-473 585q-195 238 -224 262q-10 -20 -10 -131v-397q0 -299 31 -375q23 -51 119 -65l57 -8q12 -12 11 -37t-11 -35q-166 6 -274 6q-113 0 -230 -6q-10 10 -11 34.5t11 37.5l35 6 q94 16 113 67q29 70 28 375v520q0 141 -14 174q-27 57 -117 70l-57 8q-12 12 -9 40t17 32q143 -6 283 -6q106 0 172 6q8 -33 31.5 -75t81 -116.5l93.5 -117.5l132 -158l172 -203q158 -186 196 -225q8 20 8 92v283q0 299 -30 374q-23 51 -119 66l-55 8q-12 12 -11.5 37 t11.5 35q166 -6 274.5 -6t228.5 6q10 -10 11.5 -35t-11.5 -37l-36 -6q-88 -14 -111 -68q-31 -75 -31 -374zM907 1528h-104q-74 0 -114 -24.5t-79 -90.5q-14 -8 -38.5 -5t-32.5 17q12 43 39.5 104.5t52.5 92.5q51 59 137 59h127q57 0 92 20.5t60 80.5q53 12 71 -10 q-29 -117 -76 -185q-25 -35 -53.5 -47t-81.5 -12z" />
<glyph unicode="&#xd2;" horiz-adv-x="1613" d="M813 1384q319 0 519 -195.5t200 -506.5q0 -332 -203 -523.5t-536 -191.5q-313 0 -512 190.5t-199 508.5q0 307 207 512.5t524 205.5zM1204 655q0 270 -110.5 452.5t-296.5 182.5q-184 0 -285.5 -157.5t-101.5 -419.5q0 -104 20.5 -209t64.5 -209.5t131 -169t205 -64.5 q190 0 281.5 163t91.5 431zM643 1749l332 -242q12 -31 -23 -61l-401 131q-57 16 -66 51q-10 35 21 88q33 63 69 64q23 0 68 -31z" />
<glyph unicode="&#xd3;" horiz-adv-x="1613" d="M813 1384q319 0 519 -195.5t200 -506.5q0 -332 -203 -523.5t-536 -191.5q-313 0 -512 190.5t-199 508.5q0 307 207 512.5t524 205.5zM1204 655q0 270 -110.5 452.5t-296.5 182.5q-184 0 -285.5 -157.5t-101.5 -419.5q0 -104 20.5 -209t64.5 -209.5t131 -169t205 -64.5 q190 0 281.5 163t91.5 431zM657 1497l332 248q47 35 68 35q37 0 69 -64q31 -53 21 -88q-8 -35 -66 -51l-401 -131q-33 12 -23 51z" />
<glyph unicode="&#xd4;" horiz-adv-x="1613" d="M813 1384q319 0 519 -195.5t200 -506.5q0 -332 -203 -523.5t-536 -191.5q-313 0 -512 190.5t-199 508.5q0 307 207 512.5t524 205.5zM1204 655q0 270 -110.5 452.5t-296.5 182.5q-184 0 -285.5 -157.5t-101.5 -419.5q0 -104 20.5 -209t64.5 -209.5t131 -169t205 -64.5 q190 0 281.5 163t91.5 431zM1100 1446l-248 102q-35 20 -68 2l-245 -104q-14 0 -24.5 16.5t-4.5 32.5l260 244q47 47 96 0l260 -244q6 -16 -4 -31.5t-22 -17.5z" />
<glyph unicode="&#xd5;" horiz-adv-x="1613" d="M813 1384q319 0 519 -195.5t200 -506.5q0 -332 -203 -523.5t-536 -191.5q-313 0 -512 190.5t-199 508.5q0 307 207 512.5t524 205.5zM1204 655q0 270 -110.5 452.5t-296.5 182.5q-184 0 -285.5 -157.5t-101.5 -419.5q0 -104 20.5 -209t64.5 -209.5t131 -169t205 -64.5 q190 0 281.5 163t91.5 431zM887 1528h-105q-74 0 -113.5 -24.5t-78.5 -92.5q-16 -6 -41 -2t-31 16q31 123 92 197q53 61 138 61h126q59 0 94.5 19.5t59.5 81.5q55 12 70 -10q-23 -113 -74 -187q-41 -59 -137 -59z" />
<glyph unicode="&#xd6;" horiz-adv-x="1613" d="M813 1384q319 0 519 -195.5t200 -506.5q0 -332 -203 -523.5t-536 -191.5q-313 0 -512 190.5t-199 508.5q0 307 207 512.5t524 205.5zM1204 655q0 270 -110.5 452.5t-296.5 182.5q-184 0 -285.5 -157.5t-101.5 -419.5q0 -104 20.5 -209t64.5 -209.5t131 -169t205 -64.5 q190 0 281.5 163t91.5 431zM594 1458q-53 0 -88 31t-37 88q0 57 36 94t89 37t88 -36t35 -85q0 -57 -35 -93t-88 -36zM1022 1458q-53 0 -88 31t-37 88q0 57 36 94t89 37t88 -36t35 -85q0 -57 -35 -93t-88 -36z" />
<glyph unicode="&#xd7;" horiz-adv-x="1064" d="M938 719l-299 -301l299 -299l-107 -111l-301 301l-297 -301l-104 111l295 297l-295 297l104 110l299 -299l299 303z" />
<glyph unicode="&#xd8;" horiz-adv-x="1613" d="M483 322l584 825q-109 143 -270 143q-184 0 -285.5 -157.5t-101.5 -419.5q-1 -225 73 -391zM1126 1042l-583 -827q106 -154 288 -154q190 0 281.5 163t91.5 431q0 227 -78 387zM1358 1368l-86 -121q260 -193 260 -567q0 -330 -203 -521.5t-536 -191.5q-207 0 -365 86 l-100 -141q-25 -2 -53.5 18.5t-34.5 46.5l94 134q-252 195 -252 555q0 307 207 512.5t524 205.5q205 0 365 -79l88 122q29 2 56.5 -16t35.5 -43z" />
<glyph unicode="&#xd9;" horiz-adv-x="1515" d="M223 545v512q0 139 -16.5 173t-87.5 48l-51 10q-12 8 -12.5 35t16.5 35q147 -6 298.5 -6t299.5 6q12 -10 12 -35t-12 -35l-49 -8q-70 -12 -87.5 -47t-17.5 -176v-473q0 -84 5 -145.5t24.5 -134.5t54.5 -118t99.5 -75.5t154.5 -30.5q342 0 342 510v248q0 303 -31 374 q-20 47 -118 66l-56 10q-12 12 -11 36t11 34q166 -6 275 -6q113 0 229 6q10 -10 11 -34t-11 -36l-37 -8q-90 -20 -110 -68q-31 -72 -31 -374v-230q0 -168 -26.5 -287.5t-104.5 -205.5q-137 -147 -406 -148q-264 0 -405 115q-152 125 -152 463zM594 1749l332 -242 q12 -31 -23 -61l-401 131q-57 16 -66 51q-10 35 21 88q33 63 69 64q23 0 68 -31z" />
<glyph unicode="&#xda;" horiz-adv-x="1515" d="M223 545v512q0 139 -16.5 173t-87.5 48l-51 10q-12 8 -12.5 35t16.5 35q147 -6 298.5 -6t299.5 6q12 -10 12 -35t-12 -35l-49 -8q-70 -12 -87.5 -47t-17.5 -176v-473q0 -84 5 -145.5t24.5 -134.5t54.5 -118t99.5 -75.5t154.5 -30.5q342 0 342 510v248q0 303 -31 374 q-20 47 -118 66l-56 10q-12 12 -11 36t11 34q166 -6 275 -6q113 0 229 6q10 -10 11 -34t-11 -36l-37 -8q-90 -20 -110 -68q-31 -72 -31 -374v-230q0 -168 -26.5 -287.5t-104.5 -205.5q-137 -147 -406 -148q-264 0 -405 115q-152 125 -152 463zM690 1497l332 248q47 35 68 35 q37 0 69 -64q31 -53 21 -88q-8 -35 -66 -51l-401 -131q-33 12 -23 51z" />
<glyph unicode="&#xdb;" horiz-adv-x="1515" d="M223 545v512q0 139 -16.5 173t-87.5 48l-51 10q-12 8 -12.5 35t16.5 35q147 -6 298.5 -6t299.5 6q12 -10 12 -35t-12 -35l-49 -8q-70 -12 -87.5 -47t-17.5 -176v-473q0 -84 5 -145.5t24.5 -134.5t54.5 -118t99.5 -75.5t154.5 -30.5q342 0 342 510v248q0 303 -31 374 q-20 47 -118 66l-56 10q-12 12 -11 36t11 34q166 -6 275 -6q113 0 229 6q10 -10 11 -34t-11 -36l-37 -8q-90 -20 -110 -68q-31 -72 -31 -374v-230q0 -168 -26.5 -287.5t-104.5 -205.5q-137 -147 -406 -148q-264 0 -405 115q-152 125 -152 463zM1049 1446l-236 98 q-35 16 -65 0l-234 -98q-14 0 -23.5 15.5t-3.5 31.5l248 231q47 43 90 0l248 -231q6 -16 -3 -30.5t-21 -16.5z" />
<glyph unicode="&#xdc;" horiz-adv-x="1515" d="M223 545v512q0 139 -16.5 173t-87.5 48l-51 10q-12 8 -12.5 35t16.5 35q147 -6 298.5 -6t299.5 6q12 -10 12 -35t-12 -35l-49 -8q-70 -12 -87.5 -47t-17.5 -176v-473q0 -84 5 -145.5t24.5 -134.5t54.5 -118t99.5 -75.5t154.5 -30.5q342 0 342 510v248q0 303 -31 374 q-20 47 -118 66l-56 10q-12 12 -11 36t11 34q166 -6 275 -6q113 0 229 6q10 -10 11 -34t-11 -36l-37 -8q-90 -20 -110 -68q-31 -72 -31 -374v-230q0 -168 -26.5 -287.5t-104.5 -205.5q-137 -147 -406 -148q-264 0 -405 115q-152 125 -152 463zM585.5 1458q-53.5 0 -88 31 t-36.5 88q0 57 35.5 94t89 37t88.5 -36t35 -85q0 -57 -35 -93t-88.5 -36zM1014 1458q-53 0 -88 31t-37 88q0 57 36 94t89 37t88 -36t35 -85q0 -57 -35 -93t-88 -36z" />
<glyph unicode="&#xdd;" horiz-adv-x="1177" d="M752 438v-143q0 -141 17 -175t87 -44l82 -10q10 -8 10 -35t-10 -37q-201 6 -332 6q-139 0 -321 -6q-12 10 -12.5 36.5t12.5 35.5l69 10q70 10 87.5 45t17.5 174v102q0 82 -9.5 124t-46.5 120l-243 504q-35 70 -57.5 95.5t-73.5 33.5l-70 12q-14 12 -12 40t20 32 q139 -6 289 -6q195 0 299 6q14 -6 16 -33t-12 -39l-70 -16q-49 -10 -49 -19q0 -25 54 -143l96 -219l94 -201q6 12 172 324q106 199 107 237q0 16 -70 29l-47 8q-12 8 -12 36t14 36q123 -6 229 -6q111 0 201 6q18 -6 19 -34t-11 -38l-53 -10q-70 -12 -98 -49 q-66 -84 -181 -291l-129 -234q-43 -78 -58 -129t-15 -135zM502 1497l332 248q47 35 67 35q37 0 70 -64q31 -53 20 -88q-8 -35 -65 -51l-402 -131q-32 12 -22 51z" />
<glyph unicode="&#xde;" horiz-adv-x="1216" d="M526 879v-584q0 -139 17.5 -174t87.5 -45l67 -10q12 -8 12.5 -35t-12.5 -37q-178 6 -315 6q-141 0 -311 -6q-12 10 -12.5 36.5t12.5 35.5l57 10q72 12 88 46t16 173v762q0 139 -16 173t-88 46l-57 10q-14 8 -13.5 36t19.5 36q152 -6 305 -6q150 0 305 6q16 -10 16.5 -37 t-16.5 -35l-57 -10q-70 -12 -87.5 -43t-17.5 -156h138q150 0 258 -41q104 -37 169.5 -121t65.5 -215q0 -180 -134 -271t-325 -91q-6 0 -18 1t-21 1q-14 8 -16 26.5t10 26.5q111 37 149 106.5t38 198.5q0 109 -58.5 197t-163.5 88q-61 0 -76.5 -19t-15.5 -85z" />
<glyph unicode="&#xdf;" horiz-adv-x="1173" d="M438 866v-628q0 -106 12.5 -133t63.5 -37l10 -2q12 -8 12.5 -36t-14.5 -36q-59 6 -221 6q-145 0 -240 -6q-14 8 -15 35.5t11 36.5l33 4q55 6 68.5 33.5t13.5 134.5v413q0 41 -8 49.5t-43 8.5h-76q-8 6 -11 26.5t5 28.5l88 45q45 25 45 53q0 182 53 295q59 131 184.5 219 t299.5 88q188 0 285.5 -87t97.5 -206q0 -82 -30 -127t-101 -102l-33 -27q-92 -76 -92 -149q0 -20 6 -39.5t25.5 -43.5t30.5 -35t44 -40.5t43 -40.5q154 -141 154 -286q0 -139 -98.5 -224.5t-266.5 -85.5q-80 0 -138 31t-58 104q0 41 15 73t44 32q16 0 49 -36t75 -72.5 t79 -36.5q31 0 52 24.5t21 67.5q0 90 -122 196q-84 72 -130.5 134.5t-46.5 138.5q0 53 22.5 103t39 70.5t63.5 71.5q121 129 121 248q0 113 -52 181.5t-126 68.5q-115 0 -179.5 -133t-64.5 -371z" />
<glyph unicode="&#xe0;" horiz-adv-x="907" d="M774 551l-14 -270q-6 -94 23.5 -135.5t68.5 -41.5q35 0 78 25q14 -2 21 -17.5t3 -29.5q-27 -35 -93 -73t-144 -38q-88 0 -172 72q-18 16 -33 16q-10 0 -43 -22q-90 -66 -174 -66q-96 0 -162.5 56.5t-66.5 158.5q0 78 50 128.5t163 84.5q78 25 192 58q45 12 49 41 q4 45 4 69q0 70 -29.5 123t-88.5 53q-88 0 -107 -116q-6 -43 -35 -66q-23 -16 -71 -31.5t-76 -15.5q-47 0 -47 51q0 80 98 158q158 125 344 125q276 0 262 -297zM510 205l4 129q2 25 -1 32t-13 5q-172 -23 -172 -144q0 -49 30.5 -86t73.5 -37q45 0 60.5 24t17.5 77z M391 1337l187 -372q-6 -39 -52 -33l-288 285q-45 45 -45 75.5t55 73.5q47 33 80 33q34 -1 63 -62z" />
<glyph unicode="&#xe1;" horiz-adv-x="907" d="M774 551l-14 -270q-6 -94 23.5 -135.5t68.5 -41.5q35 0 78 25q14 -2 21 -17.5t3 -29.5q-27 -35 -93 -73t-144 -38q-88 0 -172 72q-18 16 -33 16q-10 0 -43 -22q-90 -66 -174 -66q-96 0 -162.5 56.5t-66.5 158.5q0 78 50 128.5t163 84.5q78 25 192 58q45 12 49 41 q4 45 4 69q0 70 -29.5 123t-88.5 53q-88 0 -107 -116q-6 -43 -35 -66q-23 -16 -71 -31.5t-76 -15.5q-47 0 -47 51q0 80 98 158q158 125 344 125q276 0 262 -297zM510 205l4 129q2 25 -1 32t-13 5q-172 -23 -172 -144q0 -49 30.5 -86t73.5 -37q45 0 60.5 24t17.5 77zM381 948 l186 373q29 61 64 61q33 0 80 -32q55 -43 55 -74t-45 -76l-289 -285q-45 -6 -51 33z" />
<glyph unicode="&#xe2;" horiz-adv-x="907" d="M774 551l-14 -270q-6 -94 23.5 -135.5t68.5 -41.5q35 0 78 25q14 -2 21 -17.5t3 -29.5q-27 -35 -93 -73t-144 -38q-88 0 -172 72q-18 16 -33 16q-10 0 -43 -22q-90 -66 -174 -66q-96 0 -162.5 56.5t-66.5 158.5q0 78 50 128.5t163 84.5q78 25 192 58q45 12 49 41 q4 45 4 69q0 70 -29.5 123t-88.5 53q-88 0 -107 -116q-6 -43 -35 -66q-23 -16 -71 -31.5t-76 -15.5q-47 0 -47 51q0 80 98 158q158 125 344 125q276 0 262 -297zM510 205l4 129q2 25 -1 32t-13 5q-172 -23 -172 -144q0 -49 30.5 -86t73.5 -37q45 0 60.5 24t17.5 77zM190 958 l218 392q14 27 46.5 26.5t47.5 -26.5l217 -392q-14 -33 -60 -36l-163 188q-33 39 -41 39t-43 -37l-164 -190q-44 3 -58 36z" />
<glyph unicode="&#xe3;" horiz-adv-x="907" d="M774 551l-14 -270q-6 -94 23.5 -135.5t68.5 -41.5q35 0 78 25q14 -2 21 -17.5t3 -29.5q-27 -35 -93 -73t-144 -38q-88 0 -172 72q-18 16 -33 16q-10 0 -43 -22q-90 -66 -174 -66q-96 0 -162.5 56.5t-66.5 158.5q0 78 50 128.5t163 84.5q78 25 192 58q45 12 49 41 q4 45 4 69q0 70 -29.5 123t-88.5 53q-88 0 -107 -116q-6 -43 -35 -66q-23 -16 -71 -31.5t-76 -15.5q-47 0 -47 51q0 80 98 158q158 125 344 125q276 0 262 -297zM510 205l4 129q2 25 -1 32t-13 5q-172 -23 -172 -144q0 -49 30.5 -86t73.5 -37q45 0 60.5 24t17.5 77z M537 1044h-115q-119 0 -176 -100q-8 -6 -33 -3t-31 15q39 121 84 179q47 57 125 57h115q68 0 102.5 18.5t57.5 77.5q12 4 33.5 1t27.5 -11q-18 -102 -68 -176q-38 -58 -122 -58z" />
<glyph unicode="&#xe4;" horiz-adv-x="907" d="M774 551l-14 -270q-6 -94 23.5 -135.5t68.5 -41.5q35 0 78 25q14 -2 21 -17.5t3 -29.5q-27 -35 -93 -73t-144 -38q-88 0 -172 72q-18 16 -33 16q-10 0 -43 -22q-90 -66 -174 -66q-96 0 -162.5 56.5t-66.5 158.5q0 78 50 128.5t163 84.5q78 25 192 58q45 12 49 41 q4 45 4 69q0 70 -29.5 123t-88.5 53q-88 0 -107 -116q-6 -43 -35 -66q-23 -16 -71 -31.5t-76 -15.5q-47 0 -47 51q0 80 98 158q158 125 344 125q276 0 262 -297zM510 205l4 129q2 25 -1 32t-13 5q-172 -23 -172 -144q0 -49 30.5 -86t73.5 -37q45 0 60.5 24t17.5 77z M272.5 987q-55.5 0 -91.5 32t-38 89q0 57 37 94t92 37q53 0 89 -36t36 -85q0 -59 -34.5 -95t-90 -36zM641 987q-55 0 -91 32t-38 89q0 57 37 94t92 37q53 0 89 -36t36 -85q0 -59 -35 -95t-90 -36z" />
<glyph unicode="&#xe5;" horiz-adv-x="907" d="M774 551l-14 -270q-6 -94 23.5 -135.5t68.5 -41.5q35 0 78 25q14 -2 21 -17.5t3 -29.5q-27 -35 -93 -73t-144 -38q-88 0 -172 72q-18 16 -33 16q-10 0 -43 -22q-90 -66 -174 -66q-96 0 -162.5 56.5t-66.5 158.5q0 78 50 128.5t163 84.5q78 25 192 58q45 12 49 41 q4 45 4 69q0 70 -29.5 123t-88.5 53q-88 0 -107 -116q-6 -43 -35 -66q-23 -16 -71 -31.5t-76 -15.5q-47 0 -47 51q0 80 98 158q158 125 344 125q276 0 262 -297zM510 205l4 129q2 25 -1 32t-13 5q-172 -23 -172 -144q0 -49 30.5 -86t73.5 -37q45 0 60.5 24t17.5 77zM455 938 q-98 0 -160 60.5t-62 142.5q0 80 61.5 140t160.5 60q100 0 160.5 -59t60.5 -141t-60.5 -142.5t-160.5 -60.5zM455 1016q45 0 71.5 35.5t26.5 89t-26.5 90.5t-71.5 39q-45 -2 -72 -39t-27 -90.5t27 -89t72 -35.5z" />
<glyph unicode="&#xe6;" horiz-adv-x="1284" d="M510 209v135q0 29 -21 29q-39 -4 -88 -27q-80 -35 -79 -119q0 -55 31.5 -86.5t72.5 -31.5q84 0 84 100zM905 -29q-203 0 -291 121q-12 16 -22 17q-4 0 -29 -15q-6 -4 -37.5 -26.5t-40.5 -27.5l-34 -22q-27 -16 -40.5 -20t-36 -12.5t-44 -11.5t-43.5 -3q-84 0 -152.5 61.5 t-68.5 157.5q0 152 204 211l213 62q16 4 21.5 14t5.5 39v23q0 45 -2 70.5t-11.5 62.5t-33 54t-62.5 17q-86 0 -104 -116q-6 -43 -35 -66q-23 -16 -72 -31.5t-73 -15.5q-47 0 -47 49q0 78 100 162q61 49 148.5 86t166.5 37q139 0 205 -90q111 90 277 90q131 0 215 -67.5 t84 -149.5q0 -57 -70 -74l-403 -108q-23 -6 -29 -14.5t-6 -37.5q0 -121 71.5 -194.5t202.5 -73.5q121 0 191 115q45 0 51 -41q-101 -232 -369 -232zM1016 641q0 49 -30 81t-75 32q-63 0 -105 -52.5t-42 -113.5q0 -31 8 -40t33 -1l168 45q43 12 43 49z" />
<glyph unicode="&#xe7;" horiz-adv-x="851" d="M313 -217l131 192q-172 14 -276.5 127t-104.5 283q0 211 148.5 337t363.5 126q121 0 216 -35q43 -37 43 -106q0 -45 -17.5 -81t-36.5 -36q-27 0 -32 10q-109 154 -211 154q-94 0 -149.5 -89.5t-55.5 -203.5q0 -131 78.5 -228.5t214.5 -97.5q123 0 182 101 q20 2 36.5 -10.5t16.5 -35.5q-35 -78 -114.5 -140t-194.5 -75l-59 -81q-12 -16 -8.5 -23.5t26.5 -20.5q125 -68 125 -174q0 -82 -78 -136t-182 -54q-158 0 -158 90q0 29 18.5 48.5t47.5 19.5q31 0 74.5 -38t64.5 -38q18 0 35.5 14.5t17.5 36.5q0 82 -156 148z" />
<glyph unicode="&#xe8;" horiz-adv-x="860" d="M762 485h-393q-35 0 -43.5 -6t-8.5 -30q0 -123 77 -213.5t212 -90.5q127 0 191 107q18 4 35.5 -9.5t17.5 -37.5q-57 -121 -155.5 -177.5t-202.5 -56.5q-199 0 -312.5 121t-113.5 297q0 195 125.5 327t316.5 132q154 0 241 -85t87 -210q0 -33 -15.5 -50.5t-58.5 -17.5z M428 575h76q55 0 84 19q14 8 14 47q0 51 -28.5 82t-79.5 31q-61 0 -110.5 -48.5t-49.5 -99.5q0 -20 19.5 -25.5t74.5 -5.5zM408 1341l186 -372q-6 -39 -51 -33l-289 285q-45 45 -45 75.5t55 73.5q47 33 80 33q35 -1 64 -62z" />
<glyph unicode="&#xe9;" horiz-adv-x="860" d="M762 485h-393q-35 0 -43.5 -6t-8.5 -30q0 -123 77 -213.5t212 -90.5q127 0 191 107q18 4 35.5 -9.5t17.5 -37.5q-57 -121 -155.5 -177.5t-202.5 -56.5q-199 0 -312.5 121t-113.5 297q0 195 125.5 327t316.5 132q154 0 241 -85t87 -210q0 -33 -15.5 -50.5t-58.5 -17.5z M428 575h76q55 0 84 19q14 8 14 47q0 51 -28.5 82t-79.5 31q-61 0 -110.5 -48.5t-49.5 -99.5q0 -20 19.5 -25.5t74.5 -5.5zM408 961l186 372q29 61 63 62q33 0 80 -33q55 -43 55.5 -74t-44.5 -76l-289 -284q-45 -6 -51 33z" />
<glyph unicode="&#xea;" horiz-adv-x="860" d="M762 485h-393q-35 0 -43.5 -6t-8.5 -30q0 -123 77 -213.5t212 -90.5q127 0 191 107q18 4 35.5 -9.5t17.5 -37.5q-57 -121 -155.5 -177.5t-202.5 -56.5q-199 0 -312.5 121t-113.5 297q0 195 125.5 327t316.5 132q154 0 241 -85t87 -210q0 -33 -15.5 -50.5t-58.5 -17.5z M428 575h76q55 0 84 19q14 8 14 47q0 51 -28.5 82t-79.5 31q-61 0 -110.5 -48.5t-49.5 -99.5q0 -20 19.5 -25.5t74.5 -5.5zM211 948l217 391q14 27 47 27t47 -27l217 -391q-14 -33 -59 -37l-164 189q-33 39 -41 39t-43 -37l-164 -191q-43 4 -57 37z" />
<glyph unicode="&#xeb;" horiz-adv-x="860" d="M762 485h-393q-35 0 -43.5 -6t-8.5 -30q0 -123 77 -213.5t212 -90.5q127 0 191 107q18 4 35.5 -9.5t17.5 -37.5q-57 -121 -155.5 -177.5t-202.5 -56.5q-199 0 -312.5 121t-113.5 297q0 195 125.5 327t316.5 132q154 0 241 -85t87 -210q0 -33 -15.5 -50.5t-58.5 -17.5z M428 575h76q55 0 84 19q14 8 14 47q0 51 -28.5 82t-79.5 31q-61 0 -110.5 -48.5t-49.5 -99.5q0 -20 19.5 -25.5t74.5 -5.5zM288.5 987q-55.5 0 -91 32t-37.5 89q0 57 36.5 94t92.5 37q53 0 89 -36t36 -85q0 -59 -35 -95t-90.5 -36zM657.5 987q-55.5 0 -91.5 32t-38 89 q0 57 37 94t92 37q53 0 89 -36t36 -85q0 -59 -34.5 -95t-90 -36z" />
<glyph unicode="&#xec;" horiz-adv-x="585" d="M438 614v-376q0 -109 12.5 -136.5t63.5 -31.5l39 -4q12 -8 12 -36t-14 -36q-109 6 -246 6q-145 0 -246 -6q-14 8 -14 35.5t12 36.5l39 4q51 4 63.5 31.5t12.5 136.5v309q0 68 -6 91.5t-33 39.5l-29 18q-10 8 -10 31t10 31q195 53 304 119q25 0 36 -19q-6 -92 -6 -244z M227 1341l187 -372q-6 -39 -52 -33l-288 285q-45 45 -45 75.5t55 73.5q47 33 80 33q34 -1 63 -62z" />
<glyph unicode="&#xed;" horiz-adv-x="585" d="M438 614v-376q0 -109 12.5 -136.5t63.5 -31.5l39 -4q12 -8 12 -36t-14 -36q-109 6 -246 6q-145 0 -246 -6q-14 8 -14 35.5t12 36.5l39 4q51 4 63.5 31.5t12.5 136.5v309q0 68 -6 91.5t-33 39.5l-29 18q-10 8 -10 31t10 31q195 53 304 119q25 0 36 -19q-6 -92 -6 -244z M197 963l186 372q29 61 63 62q33 0 80 -33q55 -43 55.5 -73.5t-44.5 -76.5l-289 -284q-45 -6 -51 33z" />
<glyph unicode="&#xee;" horiz-adv-x="585" d="M438 614v-376q0 -109 12.5 -136.5t63.5 -31.5l39 -4q12 -8 12 -36t-14 -36q-109 6 -246 6q-145 0 -246 -6q-14 8 -14 35.5t12 36.5l39 4q51 4 63.5 31.5t12.5 136.5v309q0 68 -6 91.5t-33 39.5l-29 18q-10 8 -10 31t10 31q195 53 304 119q25 0 36 -19q-6 -92 -6 -244z M29 969l217 391q14 27 47 26.5t47 -26.5l217 -391q-14 -33 -59 -37l-164 188q-33 39 -41 39q-10 0 -43 -37l-164 -190q-43 4 -57 37z" />
<glyph unicode="&#xef;" horiz-adv-x="585" d="M438 614v-376q0 -109 12.5 -136.5t63.5 -31.5l39 -4q12 -8 12 -36t-14 -36q-109 6 -246 6q-145 0 -246 -6q-14 8 -14 35.5t12 36.5l39 4q51 4 63.5 31.5t12.5 136.5v309q0 68 -6 91.5t-33 39.5l-29 18q-10 8 -10 31t10 31q195 53 304 119q25 0 36 -19q-6 -92 -6 -244z M110.5 987q-55.5 0 -91 32t-37.5 89q0 57 36.5 94t92.5 37q53 0 89 -36t36 -85q0 -59 -35 -95t-90.5 -36zM479.5 987q-55.5 0 -91.5 32t-38 89q0 57 37 94t92 37q53 0 89 -36t36 -85q0 -59 -34.5 -95t-90 -36z" />
<glyph unicode="&#xf0;" horiz-adv-x="1056" d="M1006 1290l-236 -112q63 -76 102 -142q123 -211 123 -458q0 -322 -134 -464.5t-355 -142.5q-186 0 -313 111t-130 311q-2 211 140.5 333t345.5 122q82 0 137 -25q-12 109 -108 260l-295 -143q-27 12 -36 45t3 53l268 129q-78 100 -178 162q-98 59 -168 68q-16 8 -18 33.5 t20 33.5q170 0 305 -65q119 -53 213 -144l275 131q25 -10 36 -40.5t3 -55.5zM551 754q-84 0 -138.5 -84t-54.5 -262q0 -154 48.5 -248t136.5 -94q90 0 131 127q39 119 35 374q-2 92 -50 140q-51 47 -108 47z" />
<glyph unicode="&#xf1;" horiz-adv-x="1126" d="M172 238v309q0 68 -6 91.5t-33 39.5l-29 18q-10 8 -10 31t10 31q201 55 304 119q25 0 36 -19q0 -16 -3 -51t-3 -41q0 -16 11 -16q6 0 38 16q139 82 236 82q123 0 189.5 -74t66.5 -184v-352q0 -106 13.5 -134t68.5 -34l33 -4q12 -8 12 -36t-14 -36q-96 6 -248 6 q-131 0 -221 -6q-14 8 -14.5 35.5t12.5 36.5l36 6q37 6 46.5 28.5t9.5 106.5v346q0 66 -35 105.5t-109 39.5q-80 0 -114 -49q-16 -18 -17 -76v-366q0 -84 10.5 -108.5t49.5 -28.5l32 -4q12 -8 12.5 -36t-14.5 -36q-94 6 -227 6t-242 -6q-14 8 -14 35.5t12 36.5l33 4 q55 6 68.5 34t13.5 134zM651 1065h-121q-123 0 -184 -104q-10 -8 -35.5 -4t-31.5 16q37 123 88 186q51 61 131 62h120q70 0 107 19.5t61 80.5q12 4 35 1t29 -11q-18 -106 -70 -187q-41 -59 -129 -59z" />
<glyph unicode="&#xf2;" horiz-adv-x="1056" d="M522 -29q-195 0 -325.5 109.5t-133.5 312.5q-2 209 138.5 332t333 123t325.5 -115t133 -321q0 -213 -134 -327t-337 -114zM522 754q-72 0 -118 -78t-46 -238q0 -166 49.5 -269t137.5 -103q158 0 153 317q-2 160 -47 265.5t-129 105.5zM426 1329l186 -373q-6 -39 -51 -32 l-289 284q-45 45 -45 76t56 74q47 33 79 33q35 -1 64 -62z" />
<glyph unicode="&#xf3;" horiz-adv-x="1056" d="M522 -29q-195 0 -325.5 109.5t-133.5 312.5q-2 209 138.5 332t333 123t325.5 -115t133 -321q0 -213 -134 -327t-337 -114zM522 754q-72 0 -118 -78t-46 -238q0 -166 49.5 -269t137.5 -103q158 0 153 317q-2 160 -47 265.5t-129 105.5zM418 958l186 373q29 61 64 62 q33 0 80 -33q55 -43 55 -74t-45 -76l-289 -284q-45 -7 -51 32z" />
<glyph unicode="&#xf4;" horiz-adv-x="1056" d="M522 -29q-195 0 -325.5 109.5t-133.5 312.5q-2 209 138.5 332t333 123t325.5 -115t133 -321q0 -213 -134 -327t-337 -114zM522 754q-72 0 -118 -78t-46 -238q0 -166 49.5 -269t137.5 -103q158 0 153 317q-2 160 -47 265.5t-129 105.5zM264 948l217 391q14 27 47 27 t47 -27l218 -391q-14 -33 -60 -37l-164 189q-33 39 -41 39t-43 -37l-163 -191q-44 4 -58 37z" />
<glyph unicode="&#xf5;" horiz-adv-x="1056" d="M522 -29q-195 0 -325.5 109.5t-133.5 312.5q-2 209 138.5 332t333 123t325.5 -115t133 -321q0 -213 -134 -327t-337 -114zM522 754q-72 0 -118 -78t-46 -238q0 -166 49.5 -269t137.5 -103q158 0 153 317q-2 160 -47 265.5t-129 105.5zM610 1044h-114q-119 0 -177 -100 q-8 -6 -32.5 -3t-30.5 15q39 121 84 179q47 57 125 57h115q68 0 102.5 18.5t56.5 77.5q12 4 34 1t28 -11q-18 -102 -68 -176q-39 -58 -123 -58z" />
<glyph unicode="&#xf6;" horiz-adv-x="1056" d="M522 -29q-195 0 -325.5 109.5t-133.5 312.5q-2 209 138.5 332t333 123t325.5 -115t133 -321q0 -213 -134 -327t-337 -114zM522 754q-72 0 -118 -78t-46 -238q0 -166 49.5 -269t137.5 -103q158 0 153 317q-2 160 -47 265.5t-129 105.5zM346 987q-55 0 -91 32t-38 89 q0 57 37 94t92 37q53 0 89 -36t36 -85q0 -59 -35 -95t-90 -36zM714.5 987q-55.5 0 -91 32t-37.5 89q0 57 36.5 94t92.5 37q53 0 89 -36t36 -85q0 -59 -35 -95t-90.5 -36z" />
<glyph unicode="&#xf7;" horiz-adv-x="1064" d="M535 20q-51 0 -88 37t-37 88.5t36.5 87t88.5 35.5q47 0 83.5 -35.5t36.5 -87t-35.5 -88.5t-84.5 -37zM535 604q-51 0 -88 36t-37 89q0 51 36.5 87t88.5 36q47 0 83.5 -37t36.5 -86q0 -51 -35.5 -88t-84.5 -37zM944 362h-821v148h821v-148z" />
<glyph unicode="&#xf8;" horiz-adv-x="1056" d="M375 264l274 393q-43 96 -127 97q-78 0 -124 -78t-46 -238q0 -98 23 -174zM684 555l-274 -391q43 -98 135 -98q164 0 160 317q-1 92 -21 172zM301 18l-84 -114q-57 8 -70 53l78 104q-160 113 -162 332q-2 209 138.5 332t333.5 123q131 0 219 -47l71 98q59 -4 72 -53 l-68 -90q164 -117 164 -344q0 -213 -134 -327t-337 -114q-129 0 -221 47z" />
<glyph unicode="&#xf9;" horiz-adv-x="1114" d="M965 643v-373q0 -98 10 -136t45 -38q33 0 82 17q14 -2 13 -41t-19 -47q-55 -2 -114.5 -10.5t-104.5 -19.5l-81 -21l-59 -15l-20 -8q-20 2 -25 24q6 37 6 74q0 20 -22 21q-53 -35 -82 -50.5t-83 -32t-114 -16.5q-125 0 -182 64.5t-57 197.5v349q0 78 -11.5 99t-50.5 34 l-26 8q-10 14 -8.5 37.5t16.5 34.5q111 4 198 18q27 4 58 13l50 16q19 6 22 6q20 0 24 -25q-6 -78 -6 -180v-338q0 -90 27.5 -137t117.5 -47q55 0 107 39q23 16 22 61v387q0 61 -16 82t-72 29l-28 4q-12 10 -10.5 37.5t20.5 34.5q88 4 213 20q31 4 64.5 12.5t55 14.5t25.5 6 q16 0 21 -25q-6 -110 -6 -180zM485 1319l187 -373q-6 -39 -51 -33l-289 285q-45 45 -45 76t55 74q47 33 80 32q34 0 63 -61z" />
<glyph unicode="&#xfa;" horiz-adv-x="1114" d="M965 643v-373q0 -98 10 -136t45 -38q33 0 82 17q14 -2 13 -41t-19 -47q-55 -2 -114.5 -10.5t-104.5 -19.5l-81 -21l-59 -15l-20 -8q-20 2 -25 24q6 37 6 74q0 20 -22 21q-53 -35 -82 -50.5t-83 -32t-114 -16.5q-125 0 -182 64.5t-57 197.5v349q0 78 -11.5 99t-50.5 34 l-26 8q-10 14 -8.5 37.5t16.5 34.5q111 4 198 18q27 4 58 13l50 16q19 6 22 6q20 0 24 -25q-6 -78 -6 -180v-338q0 -90 27.5 -137t117.5 -47q55 0 107 39q23 16 22 61v387q0 61 -16 82t-72 29l-28 4q-12 10 -10.5 37.5t20.5 34.5q88 4 213 20q31 4 64.5 12.5t55 14.5t25.5 6 q16 0 21 -25q-6 -110 -6 -180zM461 969l186 372q29 61 64 62q33 0 80 -33q55 -43 55 -73.5t-45 -75.5l-289 -285q-45 -6 -51 33z" />
<glyph unicode="&#xfb;" horiz-adv-x="1114" d="M965 643v-373q0 -98 10 -136t45 -38q33 0 82 17q14 -2 13 -41t-19 -47q-55 -2 -114.5 -10.5t-104.5 -19.5l-81 -21l-59 -15l-20 -8q-20 2 -25 24q6 37 6 74q0 20 -22 21q-53 -35 -82 -50.5t-83 -32t-114 -16.5q-125 0 -182 64.5t-57 197.5v349q0 78 -11.5 99t-50.5 34 l-26 8q-10 14 -8.5 37.5t16.5 34.5q111 4 198 18q27 4 58 13l50 16q19 6 22 6q20 0 24 -25q-6 -78 -6 -180v-338q0 -90 27.5 -137t117.5 -47q55 0 107 39q23 16 22 61v387q0 61 -16 82t-72 29l-28 4q-12 10 -10.5 37.5t20.5 34.5q88 4 213 20q31 4 64.5 12.5t55 14.5t25.5 6 q16 0 21 -25q-6 -110 -6 -180zM293 967l217 391q14 27 47 26.5t47 -26.5l217 -391q-14 -33 -59 -37l-164 188q-33 39 -41 39t-43 -37l-164 -190q-43 4 -57 37z" />
<glyph unicode="&#xfc;" horiz-adv-x="1114" d="M965 643v-373q0 -98 10 -136t45 -38q33 0 82 17q14 -2 13 -41t-19 -47q-55 -2 -114.5 -10.5t-104.5 -19.5l-81 -21l-59 -15l-20 -8q-20 2 -25 24q6 37 6 74q0 20 -22 21q-53 -35 -82 -50.5t-83 -32t-114 -16.5q-125 0 -182 64.5t-57 197.5v349q0 78 -11.5 99t-50.5 34 l-26 8q-10 14 -8.5 37.5t16.5 34.5q111 4 198 18q27 4 58 13l50 16q19 6 22 6q20 0 24 -25q-6 -78 -6 -180v-338q0 -90 27.5 -137t117.5 -47q55 0 107 39q23 16 22 61v387q0 61 -16 82t-72 29l-28 4q-12 10 -10.5 37.5t20.5 34.5q88 4 213 20q31 4 64.5 12.5t55 14.5t25.5 6 q16 0 21 -25q-6 -110 -6 -180zM374.5 987q-55.5 0 -91 32t-37.5 89q0 57 36.5 94t92.5 37q53 0 89 -36t36 -85q0 -59 -35 -95t-90.5 -36zM743.5 987q-55.5 0 -91.5 32t-38 89q0 57 37 94t92 37q53 0 89 -36t36 -85q0 -59 -34.5 -95t-90 -36z" />
<glyph unicode="&#xfd;" horiz-adv-x="960" d="M25 748l-37 6q-12 10 -10 37.5t16 33.5q111 -6 270 -6q117 0 230 6q14 -6 16 -33.5t-10 -37.5l-41 -9q-41 -8 -51.5 -16t-10.5 -22q0 -16 62 -183q90 -229 92 -233q16 29 63 135l37 84q76 174 76 207q0 20 -45 28l-41 9q-14 10 -12 38.5t18 32.5q68 -6 199 -6q80 0 160 6 q14 -6 16 -34.5t-12 -36.5l-39 -4q-66 -6 -94 -45q-49 -66 -121 -216l-109 -223l-311 -645q-61 -131 -176 -135q-131 -2 -131 123q0 47 31.5 76.5t84.5 29.5h50q68 0 100 43q16 23 59 113q29 57 29 86q0 49 -39 149l-197 496q-33 80 -54 109t-68 37zM446 956l187 373 q29 61 63 62q33 0 80 -33q55 -43 55 -74t-45 -76l-288 -284q-46 -7 -52 32z" />
<glyph unicode="&#xfe;" horiz-adv-x="1091" d="M150 -285v1383q0 68 -6.5 90t-34.5 39l-35 20q-10 10 -10.5 30.5t10.5 31.5q100 25 313 114q23 0 35 -14q-6 -127 -6 -299v-326q0 -14 16 -18q154 82 260 82q160 0 254 -110.5t94 -280.5q0 -215 -139 -350.5t-362 -135.5q-63 0 -93 6q-31 -6 -30 -59v-203 q0 -106 12 -133.5t64 -32.5l69 -6q12 -8 12 -35.5t-14 -35.5q-154 6 -280 6q-133 0 -244 -6q-14 8 -14.5 35.5t12.5 35.5l41 4q51 4 63.5 31.5t12.5 136.5zM416 559v-328q0 -72 47 -118q43 -47 98 -47q92 0 144.5 89t52.5 236.5t-64.5 231.5t-169.5 84q-63 0 -86 -29 q-22 -27 -22 -119z" />
<glyph unicode="&#xff;" horiz-adv-x="960" d="M25 748l-37 6q-12 10 -10 37.5t16 33.5q111 -6 270 -6q117 0 230 6q14 -6 16 -33.5t-10 -37.5l-41 -9q-41 -8 -51.5 -16t-10.5 -22q0 -16 62 -183q90 -229 92 -233q16 29 63 135l37 84q76 174 76 207q0 20 -45 28l-41 9q-14 10 -12 38.5t18 32.5q68 -6 199 -6q80 0 160 6 q14 -6 16 -34.5t-12 -36.5l-39 -4q-66 -6 -94 -45q-49 -66 -121 -216l-109 -223l-311 -645q-61 -131 -176 -135q-131 -2 -131 123q0 47 31.5 76.5t84.5 29.5h50q68 0 100 43q16 23 59 113q29 57 29 86q0 49 -39 149l-197 496q-33 80 -54 109t-68 37zM329.5 1008 q-55.5 0 -91 31.5t-37.5 88.5q0 57 36.5 94.5t92.5 37.5q53 0 89 -36t36 -85q0 -59 -35 -95t-90.5 -36zM710.5 1008q-55.5 0 -91 31.5t-37.5 88.5q0 57 36.5 94.5t92.5 37.5q53 0 89 -36t36 -85q0 -59 -35 -95t-90.5 -36z" />
<glyph unicode="&#x100;" horiz-adv-x="1277" d="M664 463h-230q-37 0 -48 -6t-19 -35l-76 -238q-14 -47 -15 -73q0 -23 74 -35l62 -10q10 -12 10 -39t-14 -33q-12 0 -240 6q-33 0 -96.5 -3t-114.5 -3q-16 8 -17 33.5t11 38.5l55 6q43 6 71.5 26.5t53.5 75.5q35 82 127 328l184 499q12 35 33 85.5t29 74t14 52t4 49.5 q27 6 55.5 21t49 31.5t37.5 33.5l26 26l10 10q37 0 48 -41q25 -86 92 -280l278 -803q37 -102 60.5 -138t76.5 -44l78 -12q10 -8 10 -35t-12 -37q-147 6 -315 6q-135 0 -277 -6q-16 10 -18 34.5t14 37.5l66 10q55 10 55 35q0 18 -39 139l-55 176q-8 25 -25.5 31t-72.5 6z M475 571h178q37 0 44.5 9.5t-3.5 50.5l-53 166q-57 178 -74 215q-37 -82 -84 -226l-51 -153q-12 -41 -4 -51.5t47 -10.5zM897 1485h-518q-18 25 -18.5 77t18.5 76h518q20 -25 20 -76.5t-20 -76.5z" />
<glyph unicode="&#x101;" horiz-adv-x="907" d="M774 551l-14 -270q-6 -94 23.5 -135.5t68.5 -41.5q35 0 78 25q14 -2 21 -17.5t3 -29.5q-27 -35 -93 -73t-144 -38q-88 0 -172 72q-18 16 -33 16q-10 0 -43 -22q-90 -66 -174 -66q-96 0 -162.5 56.5t-66.5 158.5q0 78 50 128.5t163 84.5q78 25 192 58q45 12 49 41 q4 45 4 69q0 70 -29.5 123t-88.5 53q-88 0 -107 -116q-6 -43 -35 -66q-23 -16 -71 -31.5t-76 -15.5q-47 0 -47 51q0 80 98 158q158 125 344 125q276 0 262 -297zM510 205l4 129q2 25 -1 32t-13 5q-172 -23 -172 -144q0 -49 30.5 -86t73.5 -37q45 0 60.5 24t17.5 77z M713 1016h-518q-18 25 -18.5 74t18.5 73h518q20 -16 20 -69t-20 -78z" />
<glyph unicode="&#x102;" horiz-adv-x="1277" d="M664 463h-230q-37 0 -48 -6t-19 -35l-76 -238q-14 -47 -15 -73q0 -23 74 -35l62 -10q10 -12 10 -39t-14 -33q-12 0 -240 6q-33 0 -96.5 -3t-114.5 -3q-16 8 -17 33.5t11 38.5l55 6q43 6 71.5 26.5t53.5 75.5q35 82 127 328l184 499q12 35 33 85.5t29 74t14 52t4 49.5 q27 6 55.5 21t49 31.5t37.5 33.5l26 26l10 10q37 0 48 -41q25 -86 92 -280l278 -803q37 -102 60.5 -138t76.5 -44l78 -12q10 -8 10 -35t-12 -37q-147 6 -315 6q-135 0 -277 -6q-16 10 -18 34.5t14 37.5l66 10q55 10 55 35q0 18 -39 139l-55 176q-8 25 -25.5 31t-72.5 6z M475 571h178q37 0 44.5 9.5t-3.5 50.5l-53 166q-57 178 -74 215q-37 -82 -84 -226l-51 -153q-12 -41 -4 -51.5t47 -10.5zM639 1475q-139 0 -211 76.5t-63 215.5q31 16 59 0q16 -66 76.5 -102.5t138.5 -36.5t138.5 37t76.5 102q29 16 59 0q8 -139 -63.5 -215.5t-210.5 -76.5z " />
<glyph unicode="&#x103;" horiz-adv-x="907" d="M774 551l-14 -270q-6 -94 23.5 -135.5t68.5 -41.5q35 0 78 25q14 -2 21 -17.5t3 -29.5q-27 -35 -93 -73t-144 -38q-88 0 -172 72q-18 16 -33 16q-10 0 -43 -22q-90 -66 -174 -66q-96 0 -162.5 56.5t-66.5 158.5q0 78 50 128.5t163 84.5q78 25 192 58q45 12 49 41 q4 45 4 69q0 70 -29.5 123t-88.5 53q-88 0 -107 -116q-6 -43 -35 -66q-23 -16 -71 -31.5t-76 -15.5q-47 0 -47 51q0 80 98 158q158 125 344 125q276 0 262 -297zM510 205l4 129q2 25 -1 32t-13 5q-172 -23 -172 -144q0 -49 30.5 -86t73.5 -37q45 0 60.5 24t17.5 77zM455 979 q-131 0 -199 86t-61 246q10 8 32.5 8t30.5 -8q16 -78 70.5 -124t126 -46t126 46t70.5 124q8 8 31 8t33 -8q6 -160 -61.5 -246t-198.5 -86z" />
<glyph unicode="&#x104;" horiz-adv-x="1277" d="M475 571h178q37 0 44.5 9.5t-3.5 50.5l-53 166q-57 178 -74 215q-37 -82 -84 -226l-51 -153q-12 -41 -4 -51.5t47 -10.5zM664 463h-230q-37 0 -48 -6t-19 -35l-76 -238q-14 -47 -15 -73q0 -23 74 -35l62 -10q10 -12 10 -39t-14 -33q-12 0 -240 6q-33 0 -96.5 -3 t-114.5 -3q-16 8 -17 33.5t11 38.5l55 6q43 6 71.5 26.5t53.5 75.5q35 82 127 328l184 499q12 35 33 85.5t29 74t14 52t4 49.5q27 6 55.5 21t49 31.5t37.5 33.5l26 26l10 10q37 0 48 -41q25 -86 92 -280l278 -803q37 -102 60.5 -138t76.5 -44l78 -12q10 -8 10 -35t-12 -37 q-147 6 -274 6q-57 -100 -58 -188q0 -70 45.5 -110t110.5 -40q55 0 92 19q18 -8 19 -37q-94 -111 -224 -111q-98 0 -153 53.5t-55 134.5q0 125 133 279q-61 0 -141.5 -3t-86.5 -3q-16 10 -18 34.5t14 37.5l66 10q55 10 55 35q0 18 -39 139l-55 176q-8 25 -25.5 31t-72.5 6z " />
<glyph unicode="&#x105;" horiz-adv-x="907" d="M510 205l4 129q2 25 -1 32t-13 5q-172 -23 -172 -144q0 -49 30.5 -86t73.5 -37q45 0 60.5 24t17.5 77zM512 848q276 0 262 -297l-14 -270q-6 -94 23.5 -135.5t68.5 -41.5q35 0 78 25q14 -2 21 -17.5t3 -29.5q-20 -23 -55 -53q-182 -164 -182 -310q0 -53 33.5 -86.5 t89.5 -33.5q61 0 102 30q20 -6 21 -39q-76 -113 -218 -112q-109 0 -156.5 54t-47.5 130q0 143 219 324q-23 -8 -45 -13q-12 -2 -29 -2q-35 0 -79 18.5t-66 49.5q-12 20 -29 20q-10 0 -43 -22q-90 -66 -174 -66q-96 0 -162.5 56.5t-66.5 158.5q0 78 50 128.5t163 84.5 q78 25 192 58q45 12 49 41q4 45 4 69q0 70 -29.5 123t-88.5 53q-88 0 -107 -116q-6 -43 -35 -66q-23 -16 -71 -31.5t-76 -15.5q-47 0 -47 51q0 80 98 158q158 125 344 125z" />
<glyph unicode="&#x106;" horiz-adv-x="1411" d="M897 1384q92 0 182 -12t155.5 -25.5t84.5 -15.5q0 -162 24 -319q-6 -18 -36.5 -23.5t-40.5 8.5q-86 293 -385 293q-188 0 -329.5 -157.5t-141.5 -444.5q0 -291 142 -459t339 -168q291 0 418 318q12 12 40.5 8t36.5 -22q-23 -229 -77 -322q-272 -76 -416 -76 q-342 0 -551 156q-260 199 -260 536.5t248 542.5q219 182 567 182zM721 1497l332 248q47 35 67 35q37 0 70 -64q31 -53 20 -88q-8 -35 -65 -51l-402 -131q-32 12 -22 51z" />
<glyph unicode="&#x107;" horiz-adv-x="851" d="M575 848q121 0 216 -35q43 -37 43 -106q0 -45 -17.5 -81t-36.5 -36q-27 0 -32 10q-109 154 -211 154q-94 0 -149.5 -89.5t-55.5 -203.5q0 -131 78.5 -228.5t214.5 -97.5q123 0 182 101q20 2 36.5 -10.5t16.5 -35.5q-39 -88 -133 -153.5t-229 -65.5q-193 0 -314 116 t-121 298q0 211 148.5 337t363.5 126zM436 952l187 373q29 61 63 61q33 0 80 -32q55 -43 55 -74t-45 -76l-289 -284q-45 -7 -51 32z" />
<glyph unicode="&#x10c;" horiz-adv-x="1411" d="M897 1384q92 0 182 -12t155.5 -25.5t84.5 -15.5q0 -162 24 -319q-6 -18 -36.5 -23.5t-40.5 8.5q-86 293 -385 293q-188 0 -329.5 -157.5t-141.5 -444.5q0 -291 142 -459t339 -168q291 0 418 318q12 12 40.5 8t36.5 -22q-23 -229 -77 -322q-272 -76 -416 -76 q-342 0 -551 156q-260 199 -260 536.5t248 542.5q219 182 567 182zM541 1763l247 -118q37 -16 72 0l246 118q14 0 22.5 -17t4.5 -36l-265 -240q-47 -41 -90 0l-262 240q-2 18 6.5 34.5t18.5 18.5z" />
<glyph unicode="&#x10d;" horiz-adv-x="851" d="M575 848q121 0 216 -35q43 -37 43 -106q0 -45 -17.5 -81t-36.5 -36q-27 0 -32 10q-109 154 -211 154q-94 0 -149.5 -89.5t-55.5 -203.5q0 -131 78.5 -228.5t214.5 -97.5q123 0 182 101q20 2 36.5 -10.5t16.5 -35.5q-39 -88 -133 -153.5t-229 -65.5q-193 0 -314 116 t-121 298q0 211 148.5 337t363.5 126zM778 1346l-217 -392q-14 -27 -47 -26.5t-47 26.5l-217 392q14 33 59 36l164 -188q33 -39 41 -39q10 0 43 37l164 190q43 -3 57 -36z" />
<glyph unicode="&#x10e;" horiz-adv-x="1624" d="M233 295v725q0 154 -15 194.5t-83 49.5l-39 4q-16 8 -15 38.5t19 32.5q309 18 549 19q291 0 477 -68q197 -70 306.5 -232.5t109.5 -361.5q0 -207 -95 -365.5t-271 -246.5q-193 -96 -519 -96q-51 0 -144 6t-128 6q-143 0 -319 -6q-12 10 -12.5 36.5t12.5 35.5l63 10 q70 10 87 45t17 174zM526 1118v-747q0 -182 41 -230q53 -59 170 -59q127 0 222.5 52t148.5 141.5t78.5 189.5t25.5 211q0 281 -145 434.5t-420 153.5q-86 0 -106 -27q-15 -19 -15 -119zM483 1763l248 -118q37 -16 72 0l246 118q14 0 22 -17t4 -36l-264 -240q-47 -41 -90 0 l-262 240q-2 18 6 34.5t18 18.5z" />
<glyph unicode="&#x10f;" horiz-adv-x="1099" d="M954 1151v-815q0 -145 9.5 -192.5t37.5 -47.5q41 0 89 17q16 -14 17 -44t-15 -44q-57 -4 -115.5 -12.5t-102 -18.5t-76.5 -21l-55 -16l-20 -6q-27 0 -35 29l6 63q-4 27 -18 16q-139 -88 -221 -88q-172 0 -282 117t-110 287q0 213 140.5 343t347.5 130q80 0 117 -10 q20 8 20 39v262q0 68 -6 90t-35 39l-35 20q-12 10 -11 30.5t11 31.5q121 29 314 114q23 0 35 -14q-7 -127 -7 -299zM688 211v397q0 41 -14 70q-43 76 -117 76q-84 0 -145.5 -85t-61.5 -239q0 -121 57.5 -221t172.5 -100q43 0 84 24q24 17 24 78zM1174 1464q57 0 103 -52 t46 -150q0 -121 -70.5 -202t-173.5 -108q-20 2 -25 28t9 34q43 20 81 63t38 94q0 78 -70 109q-49 14 -49 76q0 45 33 76.5t78 31.5z" />
<glyph unicode="&#x110;" horiz-adv-x="1644" d="M246 295v354h-172q-16 18 -16.5 52t16.5 57h172v262q0 154 -15.5 194.5t-83.5 49.5l-38 4q-16 8 -15.5 38.5t19.5 32.5q309 18 549 19q291 0 477 -68q197 -70 306 -232.5t109 -361.5q0 -207 -95 -365.5t-271 -246.5q-193 -96 -518 -96q-51 0 -144.5 6t-128.5 6 q-143 0 -319 -6q-12 10 -12 36.5t12 35.5l63 10q70 10 87.5 45t17.5 174zM539 1118v-360h274q16 -16 16 -53t-16 -56h-274v-278q0 -182 41 -230q53 -59 170 -59q127 0 222 52t148.5 141.5t79 189.5t25.5 211q0 281 -145.5 434.5t-420.5 153.5q-86 0 -106 -27 q-14 -19 -14 -119z" />
<glyph unicode="&#x111;" horiz-adv-x="1099" d="M688 211v397q0 41 -14 70q-43 76 -117 76q-84 0 -145.5 -85t-61.5 -239q0 -121 57.5 -221t172.5 -100q43 0 84 24q24 17 24 78zM1090 1151v-107h-136v-708q0 -145 9.5 -192.5t37.5 -47.5q41 0 89 17q16 -14 17 -44t-15 -44q-57 -4 -115.5 -12.5t-102 -18.5t-76.5 -21 l-55 -16l-20 -6q-27 0 -35 29l6 63q-4 27 -18 16q-139 -88 -221 -88q-172 0 -282 117t-110 287q0 213 140.5 343t347.5 130q80 0 117 -10q20 8 20 39v167h-192v107h192q0 59 -6 79.5t-35 37.5l-35 20q-12 10 -11 30.5t11 31.5q121 29 314 114q23 0 35 -14q-6 -127 -7 -299 h136z" />
<glyph unicode="&#x112;" horiz-adv-x="1214" d="M526 1178v-359q0 -43 8.5 -52t49.5 -9h141q82 0 109.5 19.5t42.5 92.5l10 52q10 12 38.5 12t37.5 -14q-6 -98 -6.5 -217t6.5 -218q-8 -14 -37 -15t-39 13l-10 52q-14 74 -43 94t-109 20h-141q-41 0 -49.5 -9t-8.5 -54v-244q0 -147 33 -195q20 -29 64.5 -41t150.5 -12 q80 0 118 5t85 28t81 71t77 134q12 16 40.5 12t34.5 -22q-6 -76 -34.5 -179.5t-51.5 -148.5q-162 6 -473 6h-266q-123 0 -352 -6q-12 10 -12.5 36.5t12.5 35.5l96 14q72 10 88 43t16 172v764q0 137 -16 170t-88 47l-51 10q-14 8 -12 36t16 36q143 -6 295 -6h434q233 0 274 6 q0 -12 5.5 -62.5t11.5 -123t10 -132.5q-6 -16 -33.5 -19t-42.5 11q-37 119 -78 162q-63 63 -200 63h-164q-49 0 -58.5 -11t-9.5 -68zM866 1485h-518q-18 25 -18 77t18 76h518q20 -25 20 -76.5t-20 -76.5z" />
<glyph unicode="&#x113;" horiz-adv-x="860" d="M762 485h-393q-35 0 -43.5 -6t-8.5 -30q0 -123 77 -213.5t212 -90.5q127 0 191 107q18 4 35.5 -9.5t17.5 -37.5q-57 -121 -155.5 -177.5t-202.5 -56.5q-199 0 -312.5 121t-113.5 297q0 195 125.5 327t316.5 132q154 0 241 -85t87 -210q0 -33 -15.5 -50.5t-58.5 -17.5z M428 575h76q55 0 84 19q14 8 14 47q0 51 -28.5 82t-79.5 31q-61 0 -110.5 -48.5t-49.5 -99.5q0 -20 19.5 -25.5t74.5 -5.5zM733 1006h-518q-18 25 -18 73.5t18 73.5h518q20 -16 20 -69t-20 -78z" />
<glyph unicode="&#x116;" horiz-adv-x="1214" d="M526 1178v-359q0 -43 8.5 -52t49.5 -9h141q82 0 109.5 19.5t42.5 92.5l10 52q10 12 38.5 12t37.5 -14q-6 -98 -6.5 -217t6.5 -218q-8 -14 -37 -15t-39 13l-10 52q-14 74 -43 94t-109 20h-141q-41 0 -49.5 -9t-8.5 -54v-244q0 -147 33 -195q20 -29 64.5 -41t150.5 -12 q80 0 118 5t85 28t81 71t77 134q12 16 40.5 12t34.5 -22q-6 -76 -34.5 -179.5t-51.5 -148.5q-162 6 -473 6h-266q-123 0 -352 -6q-12 10 -12.5 36.5t12.5 35.5l96 14q72 10 88 43t16 172v764q0 137 -16 170t-88 47l-51 10q-14 8 -12 36t16 36q143 -6 295 -6h434q233 0 274 6 q0 -12 5.5 -62.5t11.5 -123t10 -132.5q-6 -16 -33.5 -19t-42.5 11q-37 119 -78 162q-63 63 -200 63h-164q-49 0 -58.5 -11t-9.5 -68zM610 1458q-57 0 -95 33t-40 92q0 59 39 98t96 39q53 0 91 -36.5t38 -88.5q0 -61 -37 -99t-92 -38z" />
<glyph unicode="&#x117;" horiz-adv-x="860" d="M762 485h-393q-35 0 -43.5 -6t-8.5 -30q0 -123 77 -213.5t212 -90.5q127 0 191 107q18 4 35.5 -9.5t17.5 -37.5q-57 -121 -155.5 -177.5t-202.5 -56.5q-199 0 -312.5 121t-113.5 297q0 195 125.5 327t316.5 132q154 0 241 -85t87 -210q0 -33 -15.5 -50.5t-58.5 -17.5z M428 575h76q55 0 84 19q14 8 14 47q0 51 -28.5 82t-79.5 31q-61 0 -110.5 -48.5t-49.5 -99.5q0 -20 19.5 -25.5t74.5 -5.5zM489.5 997q-55.5 0 -91.5 32t-38 89q0 57 37 94t92 37q53 0 89 -35.5t36 -85.5q0 -59 -34.5 -95t-90 -36z" />
<glyph unicode="&#x118;" horiz-adv-x="1214" d="M233 295v764q0 137 -16 170t-88 47l-51 10q-14 8 -12 36t16 36q98 -4 147 -4q49 -2 148 -2h434q233 0 274 6q0 -12 5.5 -62.5t11.5 -123t10 -132.5q-6 -16 -33.5 -19t-42.5 11q-37 119 -78 162q-63 63 -200 63h-164q-49 0 -58.5 -11t-9.5 -68v-359q0 -43 8.5 -52t49.5 -9 h141q82 0 109.5 19.5t42.5 92.5l10 52q10 12 38.5 12t37.5 -14q-6 -98 -6.5 -217t6.5 -218q-8 -14 -37 -15t-39 13l-10 52q-14 74 -43 94t-109 20h-141q-41 0 -49.5 -9t-8.5 -54v-244q0 -147 33 -195q20 -29 64.5 -41t150.5 -12q80 0 118 5t85 28t81 71t77 134 q12 16 40.5 12t34.5 -22q-6 -76 -34.5 -179.5t-51.5 -148.5h-37q-147 -129 -147 -254q0 -47 28.5 -78t71.5 -31q51 0 103 29q18 -6 18 -37q-80 -100 -213 -100q-98 0 -141 48t-43 118q0 129 227 307q-18 2 -82 2q-82 2 -258 2h-266q-123 0 -352 -6q-12 10 -12.5 36.5 t12.5 35.5l96 14q72 10 88 43t16 172z" />
<glyph unicode="&#x119;" horiz-adv-x="860" d="M428 575h76q55 0 84 19q14 8 14 47q0 51 -28.5 82t-79.5 31q-61 0 -110.5 -48.5t-49.5 -99.5q0 -20 19.5 -25.5t74.5 -5.5zM508 848q154 0 241 -85t87 -210q0 -33 -15.5 -50.5t-58.5 -17.5h-393q-35 0 -43.5 -6t-8.5 -30q0 -123 77 -213.5t212 -90.5q127 0 191 107 q18 4 35.5 -9.5t17.5 -37.5q-29 -61 -139 -172q-172 -174 -172 -314q0 -53 33.5 -86.5t89.5 -33.5q61 0 102 30q20 -6 20 -39q-76 -113 -217 -112q-109 0 -157 54t-48 130q0 133 205 320q-12 -2 -43 -9q-12 -2 -32 -2q-199 0 -312.5 121t-113.5 297q0 195 126 327t316 132z " />
<glyph unicode="&#x11a;" horiz-adv-x="1214" d="M526 1178v-359q0 -43 8.5 -52t49.5 -9h141q82 0 109.5 19.5t42.5 92.5l10 52q10 12 38.5 12t37.5 -14q-6 -98 -6.5 -217t6.5 -218q-8 -14 -37 -15t-39 13l-10 52q-14 74 -43 94t-109 20h-141q-41 0 -49.5 -9t-8.5 -54v-244q0 -147 33 -195q20 -29 64.5 -41t150.5 -12 q80 0 118 5t85 28t81 71t77 134q12 16 40.5 12t34.5 -22q-6 -76 -34.5 -179.5t-51.5 -148.5q-162 6 -473 6h-266q-123 0 -352 -6q-12 10 -12.5 36.5t12.5 35.5l96 14q72 10 88 43t16 172v764q0 137 -16 170t-88 47l-51 10q-14 8 -12 36t16 36q143 -6 295 -6h434q233 0 274 6 q0 -12 5.5 -62.5t11.5 -123t10 -132.5q-6 -16 -33.5 -19t-42.5 11q-37 119 -78 162q-63 63 -200 63h-164q-49 0 -58.5 -11t-9.5 -68zM319 1763l248 -102q41 -16 72 -2l246 104q14 0 22 -17t4 -36l-264 -240q-47 -41 -90 0l-262 240q-2 18 6 34.5t18 18.5z" />
<glyph unicode="&#x11b;" horiz-adv-x="860" d="M762 485h-393q-35 0 -43.5 -6t-8.5 -30q0 -123 77 -213.5t212 -90.5q127 0 191 107q18 4 35.5 -9.5t17.5 -37.5q-57 -121 -155.5 -177.5t-202.5 -56.5q-199 0 -312.5 121t-113.5 297q0 195 125.5 327t316.5 132q154 0 241 -85t87 -210q0 -33 -15.5 -50.5t-58.5 -17.5z M428 575h76q55 0 84 19q14 8 14 47q0 51 -28.5 82t-79.5 31q-61 0 -110.5 -48.5t-49.5 -99.5q0 -20 19.5 -25.5t74.5 -5.5zM756 1352l-217 -391q-14 -27 -47 -27t-48 27l-217 391q14 33 60 37l164 -189q33 -39 41 -39t43 37l163 191q44 -4 58 -37z" />
<glyph unicode="&#x11e;" horiz-adv-x="1503" d="M1358 346v-115q0 -72 8 -100.5t35 -34.5q6 -6 4 -25.5t-10 -23.5q-109 -18 -144 -31q-57 -18 -168.5 -33.5t-193.5 -15.5q-221 0 -404 72q-184 74 -293.5 237.5t-109.5 380.5q0 197 90 358t270 261q199 109 480 108q133 0 263 -24.5t142 -24.5q2 -18 5 -79.5t9.5 -128 t14.5 -121.5q-6 -16 -37 -18.5t-41 13.5q-98 289 -385 289q-233 0 -358 -168t-125 -426q0 -399 233 -557q117 -78 281 -78q88 0 114.5 29t26.5 127v129q0 82 -18.5 104.5t-92.5 32.5l-90 13q-16 8 -16 34.5t16 36.5q217 -6 346 -6q164 0 269 6q12 -10 12 -36.5t-12 -34.5 l-47 -9q-47 -8 -60.5 -33.5t-13.5 -107.5zM854 1475q-139 0 -211 76.5t-63 215.5q31 16 59 0q16 -66 77.5 -106.5t137.5 -40.5t137.5 41t77.5 106q29 16 59 0q8 -139 -63.5 -215.5t-210.5 -76.5z" />
<glyph unicode="&#x11f;" horiz-adv-x="980" d="M772 772h236q18 -16 18 -51q0 -63 -31 -82h-151q6 -29 6 -72q0 -66 -21.5 -125t-66.5 -113.5t-131 -87t-201 -32.5q-16 0 -84 6q-35 -14 -35 -49q0 -33 29 -53.5t76 -20.5q31 0 114.5 2t135.5 2q317 0 317 -248q0 -94 -51 -176t-133 -133q-152 -90 -359 -90 q-205 0 -303 77t-98 185q0 63 65 103q20 12 54.5 34.5t46.5 28.5q35 20 2 29q-57 18 -92 64t-35 100q0 29 14 43q98 63 131 96q29 23 17 45q-78 31 -126 101.5t-48 162.5q0 137 104 233.5t295 96.5q166 0 305 -76zM334 553q0 -115 40 -183.5t101 -68.5q51 0 84 51t33 158 q0 119 -37 181.5t-96 62.5q-51 0 -88 -51.5t-37 -149.5zM567 -115h-137q-80 0 -115 -26q-29 -27 -28 -72q0 -104 72.5 -166.5t193.5 -62.5q96 0 155.5 44t59.5 117q0 84 -55.5 125t-145.5 41zM491.5 985q-131.5 0 -199 86t-61.5 246q10 8 33 8t31 -8q16 -78 70.5 -124 t126 -46t126 46t70.5 124q8 8 30.5 8t33.5 -8q6 -160 -61.5 -246t-199 -86z" />
<glyph unicode="&#x122;" horiz-adv-x="1503" d="M1358 346v-115q0 -72 8 -100.5t35 -34.5q6 -6 4 -25.5t-10 -23.5q-109 -18 -144 -31q-57 -18 -168.5 -33.5t-193.5 -15.5q-221 0 -404 72q-184 74 -293.5 237.5t-109.5 380.5q0 197 90 358t270 261q199 109 480 108q133 0 263 -24.5t142 -24.5q2 -18 5 -79.5t9.5 -128 t14.5 -121.5q-6 -16 -37 -18.5t-41 13.5q-98 289 -385 289q-233 0 -358 -168t-125 -426q0 -399 233 -557q117 -78 281 -78q88 0 114.5 29t26.5 127v129q0 82 -18.5 104.5t-92.5 32.5l-90 13q-16 8 -16 34.5t16 36.5q217 -6 346 -6q164 0 269 6q12 -10 12 -36.5t-12 -34.5 l-47 -9q-47 -8 -60.5 -33.5t-13.5 -107.5zM827 -113q72 0 126.5 -52t54.5 -157q0 -123 -77 -197.5t-202 -98.5q-20 2 -26.5 30.5t8.5 36.5q53 20 99 64.5t46 91.5q0 76 -94 98q-51 16 -51 80q0 43 34.5 73.5t81.5 30.5z" />
<glyph unicode="&#x123;" horiz-adv-x="980" d="M772 772h236q18 -16 18 -51q0 -63 -31 -82h-151q6 -29 6 -72q0 -66 -21.5 -125t-66.5 -113.5t-131 -87t-201 -32.5q-16 0 -84 6q-35 -14 -35 -49q0 -33 29 -53.5t76 -20.5q31 0 114.5 2t135.5 2q317 0 317 -248q0 -94 -51 -176t-133 -133q-152 -90 -359 -90 q-205 0 -303 77t-98 185q0 63 65 103q20 12 54.5 34.5t46.5 28.5q35 20 2 29q-57 18 -92 64t-35 100q0 29 14 43q98 63 131 96q29 23 17 45q-78 31 -126 101.5t-48 162.5q0 137 104 233.5t295 96.5q166 0 305 -76zM334 553q0 -115 40 -183.5t101 -68.5q51 0 84 51t33 158 q0 119 -37 181.5t-96 62.5q-51 0 -88 -51.5t-37 -149.5zM567 -115h-137q-80 0 -115 -26q-29 -27 -28 -72q0 -104 72.5 -166.5t193.5 -62.5q96 0 155.5 44t59.5 117q0 84 -55.5 125t-145.5 41zM502 975q-68 0 -122 49t-54 145q0 106 77.5 177t198.5 94q20 -2 26.5 -28 t-7.5 -34q-53 -18 -93.5 -56t-40.5 -87q0 -66 82 -90q51 -14 52 -72q0 -41 -35 -69.5t-84 -28.5z" />
<glyph unicode="&#x12a;" horiz-adv-x="759" d="M526 1053v-754q0 -141 17.5 -176t89.5 -47l57 -10q12 -10 11 -36t-13 -36q-166 6 -307 6q-145 0 -311 -6q-12 10 -12.5 36.5t12.5 35.5l57 10q72 12 89 47t17 176v754q0 141 -17 176t-89 47l-57 10q-12 8 -12.5 35t12.5 37q166 -6 311 -6q143 0 309 6q12 -10 12 -37 t-12 -35l-57 -10q-72 -12 -89.5 -47t-17.5 -176zM639 1485h-518q-18 25 -18.5 72t18.5 71h518q20 -25 20 -71.5t-20 -71.5z" />
<glyph unicode="&#x12b;" horiz-adv-x="585" d="M438 614v-376q0 -109 12.5 -136.5t63.5 -31.5l39 -4q12 -8 12 -36t-14 -36q-109 6 -246 6q-145 0 -246 -6q-14 8 -14 35.5t12 36.5l39 4q51 4 63.5 31.5t12.5 136.5v309q0 68 -6 91.5t-33 39.5l-29 18q-10 8 -10 31t10 31q195 53 304 119q25 0 36 -19q-6 -92 -6 -244z M561 1024h-518q-18 25 -18 69t18 68h518q20 -25 20 -68.5t-20 -68.5z" />
<glyph unicode="&#x12e;" horiz-adv-x="759" d="M233 299v754q0 141 -17 176t-89 47l-57 10q-12 8 -12.5 35t12.5 37q166 -6 311 -6q143 0 309 6q12 -10 12 -37t-12 -35l-57 -10q-72 -12 -89.5 -47t-17.5 -176v-754q0 -141 17.5 -176t89.5 -47l57 -10q12 -10 11 -36t-13 -36q-156 6 -270 6q-57 -100 -58 -188 q0 -70 45.5 -110t110.5 -40q55 0 92 19q18 -8 19 -37q-94 -111 -224 -111q-98 0 -153 53.5t-55 134.5q0 125 133 279q-119 0 -258 -6q-12 10 -12.5 36.5t12.5 35.5l57 10q72 12 89 47t17 176z" />
<glyph unicode="&#x12f;" horiz-adv-x="585" d="M438 614v-376q0 -109 12.5 -136.5t63.5 -31.5l39 -4q12 -8 12 -36t-14 -36q-88 6 -201 6q-57 -100 -57 -188q0 -70 45 -110t111 -40q55 0 92 19q18 -8 18 -37q-94 -111 -223 -111q-98 0 -153.5 53.5t-55.5 134.5q0 125 133 279q-100 0 -201 -6q-14 8 -14 35.5t12 36.5 l39 4q51 4 63.5 31.5t12.5 136.5v309q0 68 -6 91.5t-33 39.5l-29 18q-10 8 -10 31t10 31q195 53 304 119q25 0 36 -19q-6 -92 -6 -244zM311.5 1309q63.5 0 103.5 -42t40 -104q0 -70 -45 -109.5t-109 -39.5q-66 0 -104.5 41t-38.5 104q0 66 45 108t108.5 42z" />
<glyph unicode="&#x130;" horiz-adv-x="759" d="M526 1053v-754q0 -141 17.5 -176t89.5 -47l57 -10q12 -10 11 -36t-13 -36q-166 6 -307 6q-145 0 -311 -6q-12 10 -12.5 36.5t12.5 35.5l57 10q72 12 89 47t17 176v754q0 141 -17 176t-89 47l-57 10q-12 8 -12.5 35t12.5 37q166 -6 311 -6q143 0 309 6q12 -10 12 -37 t-12 -35l-57 -10q-72 -12 -89.5 -47t-17.5 -176zM383 1458q-57 0 -95 33t-40 92q0 59 39 98t96 39q55 0 92 -36.5t37 -88.5q0 -61 -37 -99t-92 -38z" />
<glyph unicode="&#x131;" horiz-adv-x="585" d="M438 614v-376q0 -109 12.5 -136.5t63.5 -31.5l39 -4q12 -8 12 -36t-14 -36q-109 6 -246 6q-145 0 -246 -6q-14 8 -14 35.5t12 36.5l39 4q51 4 63.5 31.5t12.5 136.5v309q0 68 -6 91.5t-33 39.5l-29 18q-10 8 -10 31t10 31q195 53 304 119q25 0 36 -19q-6 -92 -6 -244z " />
<glyph unicode="&#x136;" horiz-adv-x="1464" d="M526 1057v-250q0 -47 8.5 -61.5t28.5 -14.5q29 0 78 40t80 79q211 254 274 348q27 39 27 53q0 20 -35 27l-47 8q-16 10 -14 38t22 34q158 -6 254 -6q125 0 248 6q18 -6 20.5 -33t-10.5 -39q-123 -14 -176 -37q-113 -45 -303 -262l-94 -106q-27 -29 -27 -47q0 -16 74 -127 l99 -153l138 -209q61 -91 125 -173q39 -51 72 -70.5t80 -25.5l65 -10q10 -14 8.5 -39t-14.5 -33q-154 6 -295 6q-150 0 -321 -6q-20 6 -20.5 34.5t16.5 37.5l51 12q35 10 35 20q0 16 -17 41l-118 183l-109 165q-61 94 -92 128t-62 34q-33 0 -41 -25.5t-8 -113.5v-215 q0 -141 17.5 -176t87.5 -45l57 -8q12 -10 12 -36t-12 -36q-164 6 -309.5 6t-306.5 -6q-12 10 -12.5 36.5t12.5 35.5l57 8q70 10 87 45t17 176v762q0 141 -17 176t-87 45l-57 8q-16 8 -16.5 35t16.5 37q154 -6 307 -6q145 0 309 6q14 -10 14 -37t-14 -35l-57 -8 q-70 -10 -87.5 -45t-17.5 -176zM711 -113q72 0 126 -52t54 -157q0 -123 -77 -197.5t-202 -98.5q-20 2 -26 30.5t8 36.5q53 20 99 64.5t46 91.5q0 76 -94 98q-51 16 -51 80q0 43 35 73.5t82 30.5z" />
<glyph unicode="&#x137;" horiz-adv-x="1089" d="M156 238v901q0 68 -6.5 90t-34.5 39l-35 20q-10 10 -10 30.5t10 31.5q109 27 313 114q23 0 35 -14q-6 -127 -6 -299v-643q0 -16 6 -22.5t23 -6.5q70 0 118 58l86 100q49 59 50 82q0 16 -39 20l-52 9q-14 14 -12 39.5t16 31.5h50q199 0 387 29q14 -8 16 -34t-8 -38 l-66 -14q-61 -12 -137 -72q-78 -59 -137 -119q-12 -14 -12 -26.5t14 -34.5q37 -63 135 -211.5t133 -179.5q33 -31 121 -47l31 -6q12 -10 9 -38t-17 -34q-96 6 -258 6q-166 0 -252 -6q-14 8 -17.5 32.5t8.5 39.5l27 6q33 6 33 16q0 14 -35 66l-145 221q-20 31 -52 31 q-25 0 -24 -50v-118q0 -106 13.5 -134t66.5 -34l33 -4q12 -8 12 -36t-15 -36q-98 6 -245 6q-143 0 -250 -6q-14 8 -14 35.5t12 36.5l39 4q55 6 68.5 34t13.5 134zM522 -92q61 0 116.5 -52.5t55.5 -150.5q0 -119 -74.5 -190.5t-193.5 -96.5q-20 2 -25.5 31t9.5 37 q51 18 95 58t44 87q0 78 -90 103q-49 14 -49 71q0 43 32.5 73t79.5 30z" />
<glyph unicode="&#x139;" horiz-adv-x="1198" d="M526 1057v-717q0 -152 35 -195q23 -29 65 -40t148 -11q82 0 121 4t84 29t80 73t80 138q12 14 39.5 10t38.5 -22q-8 -76 -37 -181.5t-52 -150.5q-162 6 -473 6h-274q-133 0 -324 -6q-14 10 -16 35.5t10 36.5l78 10q70 10 87 44t17 175v762q0 141 -17 176t-87 45l-59 8 q-16 8 -15.5 36t19.5 36q160 -6 307 -6q150 0 303 6q12 -10 12 -37t-12 -35l-53 -8q-70 -10 -87.5 -45t-17.5 -176zM369 1497l331 248q47 35 68 35q37 0 70 -64q31 -53 20 -88q-8 -35 -65 -51l-402 -131q-32 12 -22 51z" />
<glyph unicode="&#x13a;" horiz-adv-x="569" d="M156 238v901q0 68 -6.5 90t-34.5 39l-35 20q-10 10 -10 30.5t10 31.5q113 27 313 114q23 0 35 -14q-6 -127 -6 -299v-913q0 -106 13.5 -134t66.5 -34l35 -4q12 -8 12 -36t-14 -36q-100 6 -246 6q-137 0 -246 -6q-14 8 -14 35.5t12 36.5l39 4q51 4 63.5 31.5t12.5 136.5z M115 1559l331 247q47 35 68 35q37 0 70 -63q31 -53 20 -88q-8 -35 -65 -52l-402 -131q-32 13 -22 52z" />
<glyph unicode="&#x13b;" horiz-adv-x="1198" d="M526 1057v-717q0 -152 35 -195q23 -29 65 -40t148 -11q82 0 121 4t84 29t80 73t80 138q12 14 39.5 10t38.5 -22q-8 -76 -37 -181.5t-52 -150.5q-162 6 -473 6h-274q-133 0 -324 -6q-14 10 -16 35.5t10 36.5l78 10q70 10 87 44t17 175v762q0 141 -17 176t-87 45l-59 8 q-16 8 -15.5 36t19.5 36q160 -6 307 -6q150 0 303 6q12 -10 12 -37t-12 -35l-53 -8q-70 -10 -87.5 -45t-17.5 -176zM608 -113q72 0 126 -52t54 -157q0 -123 -76.5 -197.5t-201.5 -98.5q-20 2 -26.5 30.5t8.5 36.5q53 20 99 64.5t46 91.5q0 76 -94 98q-51 16 -51 80 q0 43 34.5 73.5t81.5 30.5z" />
<glyph unicode="&#x13c;" horiz-adv-x="569" d="M156 238v901q0 68 -6.5 90t-34.5 39l-35 20q-10 10 -10 30.5t10 31.5q113 27 313 114q23 0 35 -14q-6 -127 -6 -299v-913q0 -106 13.5 -134t66.5 -34l35 -4q12 -8 12 -36t-14 -36q-100 6 -246 6q-137 0 -246 -6q-14 8 -14 35.5t12 36.5l39 4q51 4 63.5 31.5t12.5 136.5z M262 -92q61 0 116.5 -52.5t55.5 -150.5q0 -119 -74.5 -190.5t-193.5 -96.5q-20 2 -25.5 31t9.5 37q51 18 95 58t44 87q0 78 -90 103q-49 14 -49 71q0 43 32.5 73t79.5 30z" />
<glyph unicode="&#x13d;" horiz-adv-x="1198" d="M526 1057v-717q0 -152 35 -195q23 -29 65 -40t148 -11q82 0 121 4t84 29t80 73t80 138q12 14 39.5 10t38.5 -22q-8 -76 -37 -181.5t-52 -150.5q-162 6 -473 6h-274q-133 0 -324 -6q-14 10 -16 35.5t10 36.5l78 10q70 10 87 44t17 175v762q0 141 -17 176t-87 45l-59 8 q-16 8 -15.5 36t19.5 36q160 -6 307 -6q150 0 303 6q12 -10 12 -37t-12 -35l-53 -8q-70 -10 -87.5 -45t-17.5 -176zM913 1434q66 0 121.5 -57.5t55.5 -168.5q0 -127 -80 -211t-201 -112q-23 2 -29 30.5t11 36.5q59 27 105 73t46 103q0 82 -98 111q-23 6 -38 28.5t-15 51.5 q0 47 35.5 81t86.5 34z" />
<glyph unicode="&#x13e;" horiz-adv-x="569" d="M156 238v901q0 68 -6.5 90t-34.5 39l-35 20q-10 10 -10 30.5t10 31.5q113 27 313 114q23 0 35 -14q-6 -127 -6 -299v-913q0 -106 13.5 -134t66.5 -34l35 -4q12 -8 12 -36t-14 -36q-100 6 -246 6q-137 0 -246 -6q-14 8 -14 35.5t12 36.5l39 4q51 4 63.5 31.5t12.5 136.5z M641 1464q57 0 103.5 -52t46.5 -150q0 -121 -71 -202t-173 -108q-20 2 -25.5 28t8.5 34q43 20 81 63t38 94q0 78 -69 109q-49 14 -50 76q0 45 33 76.5t78 31.5z" />
<glyph unicode="&#x141;" horiz-adv-x="1210" d="M823 834l-284 -177v-317q0 -152 34 -195q23 -29 65 -40t148 -11q82 0 121 4t84 29t80 73t80 138q12 14 40 10t38 -22q-8 -76 -37 -181.5t-51 -150.5q-162 6 -473 6h-275q-133 0 -323 -6q-14 10 -16.5 35.5t9.5 36.5l78 10q70 10 87.5 44t17.5 175v180l-168 -104 q-16 12 -29.5 41.5t-7.5 56.5l205 127v461q0 141 -17.5 176t-87.5 45l-59 8q-16 8 -16 35t16 37q160 -6 311 -6q147 0 303 6q12 -10 12.5 -37t-12.5 -35l-53 -8q-70 -10 -87 -45t-17 -176v-281l241 150q23 -4 35 -34.5t8 -57.5z" />
<glyph unicode="&#x142;" horiz-adv-x="585" d="M649 836l-215 -156v-442q0 -106 13.5 -134t66.5 -34l35 -4q12 -8 12 -36t-14 -36q-100 6 -246 6q-137 0 -246 -6q-14 8 -14 35.5t12 36.5l39 4q51 4 63.5 31.5t12.5 136.5v243l-158 -114q-23 8 -36 36.5t-3 53.5l197 145v516q0 82 -6 106.5t-35 43.5l-35 20 q-10 10 -10 30.5t10 31.5q109 25 314 114q23 0 34 -14q-6 -127 -6 -299v-350l174 125q25 -10 37 -36.5t4 -53.5z" />
<glyph unicode="&#x143;" horiz-adv-x="1531" d="M1335 838v-490q0 -262 4 -330q-10 -18 -47 -32.5t-73 -14.5l-21 29q-20 31 -61 87t-84 108l-473 585q-195 238 -224 262q-10 -20 -10 -131v-397q0 -299 31 -375q23 -51 119 -65l57 -8q12 -12 11 -37t-11 -35q-166 6 -274 6q-113 0 -230 -6q-10 10 -11 34.5t11 37.5l35 6 q94 16 113 67q29 70 28 375v520q0 141 -14 174q-27 57 -117 70l-57 8q-12 12 -9 40t17 32q143 -6 283 -6q106 0 172 6q8 -33 31.5 -75t81 -116.5l93.5 -117.5l132 -158l172 -203q158 -186 196 -225q8 20 8 92v283q0 299 -30 374q-23 51 -119 66l-55 8q-12 12 -11.5 37 t11.5 35q166 -6 274.5 -6t228.5 6q10 -10 11.5 -35t-11.5 -37l-36 -6q-88 -14 -111 -68q-31 -75 -31 -374zM657 1497l332 248q47 35 68 35q37 0 69 -64q31 -53 21 -88q-8 -35 -66 -51l-401 -131q-33 12 -23 51z" />
<glyph unicode="&#x144;" horiz-adv-x="1126" d="M172 238v309q0 68 -6 91.5t-33 39.5l-29 18q-10 8 -10 31t10 31q201 55 304 119q25 0 36 -19q0 -16 -3 -51t-3 -41q0 -16 11 -16q6 0 38 16q139 82 236 82q123 0 189.5 -74t66.5 -184v-352q0 -106 13.5 -134t68.5 -34l33 -4q12 -8 12 -36t-14 -36q-96 6 -248 6 q-131 0 -221 -6q-14 8 -14.5 35.5t12.5 36.5l36 6q37 6 46.5 28.5t9.5 106.5v346q0 66 -35 105.5t-109 39.5q-80 0 -114 -49q-16 -18 -17 -76v-366q0 -84 10.5 -108.5t49.5 -28.5l32 -4q12 -8 12.5 -36t-14.5 -36q-94 6 -227 6t-242 -6q-14 8 -14 35.5t12 36.5l33 4 q55 6 68.5 34t13.5 134zM489 969l187 372q29 61 63 62q33 0 80 -33q55 -43 55 -73.5t-45 -75.5l-288 -285q-46 -6 -52 33z" />
<glyph unicode="&#x145;" horiz-adv-x="1531" d="M1335 838v-490q0 -262 4 -330q-10 -18 -47 -32.5t-73 -14.5l-21 29q-20 31 -61 87t-84 108l-473 585q-195 238 -224 262q-10 -20 -10 -131v-397q0 -299 31 -375q23 -51 119 -65l57 -8q12 -12 11 -37t-11 -35q-166 6 -274 6q-113 0 -230 -6q-10 10 -11 34.5t11 37.5l35 6 q94 16 113 67q29 70 28 375v520q0 141 -14 174q-27 57 -117 70l-57 8q-12 12 -9 40t17 32q143 -6 283 -6q106 0 172 6q8 -33 31.5 -75t81 -116.5l93.5 -117.5l132 -158l172 -203q158 -186 196 -225q8 20 8 92v283q0 299 -30 374q-23 51 -119 66l-55 8q-12 12 -11.5 37 t11.5 35q166 -6 274.5 -6t228.5 6q10 -10 11.5 -35t-11.5 -37l-36 -6q-88 -14 -111 -68q-31 -75 -31 -374zM743 -113q72 0 126.5 -52t54.5 -157q0 -123 -77 -197.5t-202 -98.5q-20 2 -26.5 30.5t8.5 36.5q53 20 99 64.5t46 91.5q0 76 -94 98q-51 16 -51 80q0 43 34.5 73.5 t81.5 30.5z" />
<glyph unicode="&#x146;" horiz-adv-x="1126" d="M172 238v309q0 68 -6 91.5t-33 39.5l-29 18q-10 8 -10 31t10 31q201 55 304 119q25 0 36 -19q0 -16 -3 -51t-3 -41q0 -16 11 -16q6 0 38 16q139 82 236 82q123 0 189.5 -74t66.5 -184v-352q0 -106 13.5 -134t68.5 -34l33 -4q12 -8 12 -36t-14 -36q-96 6 -248 6 q-131 0 -221 -6q-14 8 -14.5 35.5t12.5 36.5l36 6q37 6 46.5 28.5t9.5 106.5v346q0 66 -35 105.5t-109 39.5q-80 0 -114 -49q-16 -18 -17 -76v-366q0 -84 10.5 -108.5t49.5 -28.5l32 -4q12 -8 12.5 -36t-14.5 -36q-94 6 -227 6t-242 -6q-14 8 -14 35.5t12 36.5l33 4 q55 6 68.5 34t13.5 134zM541 -92q61 0 116.5 -52.5t55.5 -150.5q0 -119 -75 -190.5t-194 -96.5q-20 2 -25 31t9 37q51 18 95 58t44 87q0 78 -90 103q-49 14 -49 71q0 43 33 73t80 30z" />
<glyph unicode="&#x147;" horiz-adv-x="1531" d="M1335 838v-490q0 -262 4 -330q-10 -18 -47 -32.5t-73 -14.5l-21 29q-20 31 -61 87t-84 108l-473 585q-195 238 -224 262q-10 -20 -10 -131v-397q0 -299 31 -375q23 -51 119 -65l57 -8q12 -12 11 -37t-11 -35q-166 6 -274 6q-113 0 -230 -6q-10 10 -11 34.5t11 37.5l35 6 q94 16 113 67q29 70 28 375v520q0 141 -14 174q-27 57 -117 70l-57 8q-12 12 -9 40t17 32q143 -6 283 -6q106 0 172 6q8 -33 31.5 -75t81 -116.5l93.5 -117.5l132 -158l172 -203q158 -186 196 -225q8 20 8 92v283q0 299 -30 374q-23 51 -119 66l-55 8q-12 12 -11.5 37 t11.5 35q166 -6 274.5 -6t228.5 6q10 -10 11.5 -35t-11.5 -37l-36 -6q-88 -14 -111 -68q-31 -75 -31 -374zM477 1763l248 -102q41 -16 72 -2l245 104q14 0 22.5 -17t4.5 -36l-264 -240q-47 -41 -90 0l-262 240q-2 18 6 34.5t18 18.5z" />
<glyph unicode="&#x148;" horiz-adv-x="1126" d="M172 238v309q0 68 -6 91.5t-33 39.5l-29 18q-10 8 -10 31t10 31q201 55 304 119q25 0 36 -19q0 -16 -3 -51t-3 -41q0 -16 11 -16q6 0 38 16q139 82 236 82q123 0 189.5 -74t66.5 -184v-352q0 -106 13.5 -134t68.5 -34l33 -4q12 -8 12 -36t-14 -36q-96 6 -248 6 q-131 0 -221 -6q-14 8 -14.5 35.5t12.5 36.5l36 6q37 6 46.5 28.5t9.5 106.5v346q0 66 -35 105.5t-109 39.5q-80 0 -114 -49q-16 -18 -17 -76v-366q0 -84 10.5 -108.5t49.5 -28.5l32 -4q12 -8 12.5 -36t-14.5 -36q-94 6 -227 6t-242 -6q-14 8 -14 35.5t12 36.5l33 4 q55 6 68.5 34t13.5 134zM827 1352l-217 -391q-14 -27 -47 -27t-47 27l-217 391q14 33 59 37l164 -189q33 -39 41 -39q10 0 43 37l164 191q43 -4 57 -37z" />
<glyph unicode="&#x14c;" horiz-adv-x="1613" d="M813 1384q319 0 519 -195.5t200 -506.5q0 -332 -203 -523.5t-536 -191.5q-313 0 -512 190.5t-199 508.5q0 307 207 512.5t524 205.5zM1204 655q0 270 -110.5 452.5t-296.5 182.5q-184 0 -285.5 -157.5t-101.5 -419.5q0 -104 20.5 -209t64.5 -209.5t131 -169t205 -64.5 q190 0 281.5 163t91.5 431zM1065 1485h-518q-18 25 -18.5 77t18.5 76h518q20 -25 20 -76.5t-20 -76.5z" />
<glyph unicode="&#x14d;" horiz-adv-x="1056" d="M522 -29q-195 0 -325.5 109.5t-133.5 312.5q-2 209 138.5 332t333 123t325.5 -115t133 -321q0 -213 -134 -327t-337 -114zM522 754q-72 0 -118 -78t-46 -238q0 -166 49.5 -269t137.5 -103q158 0 153 317q-2 160 -47 265.5t-129 105.5zM786 1016h-518q-18 25 -18 74t18 73 h518q20 -25 20 -73.5t-20 -73.5z" />
<glyph unicode="&#x150;" horiz-adv-x="1613" d="M813 1384q319 0 519 -195.5t200 -506.5q0 -332 -203 -523.5t-536 -191.5q-313 0 -512 190.5t-199 508.5q0 307 207 512.5t524 205.5zM1204 655q0 270 -110.5 452.5t-296.5 182.5q-184 0 -285.5 -157.5t-101.5 -419.5q0 -104 20.5 -209t64.5 -209.5t131 -169t205 -64.5 q190 0 281.5 163t91.5 431zM903 1487l150 274q29 41 55 41q33 0 78 -39q49 -47 49 -86q0 -25 -66 -73l-217 -158q-12 0 -29.5 13.5t-19.5 27.5zM551 1487l149 274q29 41 56 41q35 0 84 -43q45 -39 45 -82q0 -25 -68 -73l-217 -158q-12 0 -29.5 13.5t-19.5 27.5z" />
<glyph unicode="&#x151;" horiz-adv-x="1056" d="M522 -29q-195 0 -325.5 109.5t-133.5 312.5q-2 209 138.5 332t333 123t325.5 -115t133 -321q0 -213 -134 -327t-337 -114zM522 754q-72 0 -118 -78t-46 -238q0 -166 49.5 -269t137.5 -103q158 0 153 317q-2 160 -47 265.5t-129 105.5zM285 948l131 371q20 63 57 63 q33 0 80 -32q55 -43 55 -74q0 -27 -41 -78l-225 -283q-51 -8 -57 33zM643 948l131 371q20 63 57 63q33 0 80 -32q55 -43 56 -74q0 -27 -41 -78l-224 -283q-23 -4 -40 5.5t-19 27.5z" />
<glyph unicode="&#x152;" horiz-adv-x="2084" d="M1331 1352h350q236 0 275 6q0 -12 5 -62.5t11 -123t10 -132.5q-6 -16 -33.5 -19t-41.5 11q-37 119 -78 162q-63 63 -201 63h-164q-49 0 -58 -11t-9 -68v-359q0 -43 8 -52t49 -9h141q82 0 110 19.5t42 92.5l10 52q10 12 39 12t37 -14q-6 -98 -6 -217t6 -218 q-8 -14 -37 -15t-39 13l-10 52q-14 74 -43 94t-109 20h-141q-41 0 -49 -9t-8 -54v-244q0 -147 33 -195q20 -29 64 -41t151 -12q80 0 117.5 5t84.5 28t81 71t77 134q12 16 41 12t35 -22q-6 -76 -35 -179.5t-51 -148.5q-164 6 -473 6h-205q-84 0 -226.5 -6t-207.5 -6 q-383 0 -592 183t-209 476q0 315 223 516t629 201q78 0 208 -6t189 -6zM1104 248v827q0 84 -14.5 122t-49.5 52q-53 20 -133 21q-236 0 -365.5 -170t-129.5 -426q0 -238 133 -415t381 -177q96 0 137 34t41 132z" />
<glyph unicode="&#x153;" horiz-adv-x="1515" d="M713 383q-2 160 -48.5 265.5t-129.5 105.5q-74 0 -120 -78t-46 -238q0 -168 50 -270t138 -102q160 0 156 317zM1425 485h-405q-39 0 -47 -6t-8 -35q0 -125 78.5 -212t218.5 -87q127 0 194 107q49 0 49 -47q-55 -121 -150 -177.5t-204 -56.5q-197 0 -311 133 q-49 -59 -138.5 -96t-187.5 -37q-188 0 -318 111t-133 313q-2 209 138.5 331t330.5 122q102 0 188.5 -41t131.5 -109q53 66 138 108t173 42q162 0 249 -85t87 -210q0 -33 -15.5 -50.5t-58.5 -17.5zM1077 575h90q55 0 84 19q14 8 15 47q0 51 -32 82t-81 31q-66 0 -119 -49.5 t-53 -98.5q0 -20 20.5 -25.5t75.5 -5.5z" />
<glyph unicode="&#x154;" horiz-adv-x="1359" d="M233 295v725q0 156 -13 193.5t-77 46.5l-55 8q-16 8 -15 35.5t19 35.5q276 18 508 19q281 0 401 -74q180 -106 181 -303q0 -121 -61.5 -190.5t-155.5 -116.5q-25 -12 -11 -45q111 -225 179.5 -339t138.5 -173q66 -53 137 -58q12 -8 14 -26.5t-6 -26.5q-43 -18 -162 -18 q-139 0 -234 52t-163 163q-78 129 -160 317q-33 72 -108 72q-53 0 -64.5 -7t-11.5 -38v-252q0 -139 17.5 -173t86.5 -46l56 -10q10 -8 10 -35t-10 -37q-162 6 -301.5 6t-298.5 -6q-12 10 -12.5 36.5t12.5 35.5l55 10q70 12 87 46t17 173zM514 1159v-399q0 -55 18.5 -66.5 t108.5 -11.5q98 0 156 57q74 74 73 222q0 137 -73.5 220t-194.5 83q-63 0 -75.5 -15.5t-12.5 -89.5zM530 1497l332 248q47 35 68 35q37 0 69 -64q31 -53 21 -88q-8 -35 -66 -51l-401 -131q-33 12 -23 51z" />
<glyph unicode="&#x155;" horiz-adv-x="759" d="M172 233v310q0 68 -6 91t-33 40l-29 18q-10 8 -10 30.5t10 31.5q193 55 299 123q25 0 37 -19q-8 -82 -8 -88q0 -20 21 -25q10 6 52 39t75.5 48.5t72.5 15.5q45 0 79 -33t34 -88q0 -66 -38 -99.5t-93 -33.5q-41 0 -80 37q-49 41 -78 41q-39 0 -39 -123v-316 q0 -106 12.5 -133.5t63.5 -31.5l66 -7q12 -8 12 -35.5t-14 -35.5q-147 6 -277 6q-141 0 -242 -6q-14 8 -14 35.5t12 35.5l39 5q51 4 63.5 31t12.5 136zM311 969l187 372q29 61 63 62q33 0 80 -33q55 -43 55 -73.5t-45 -75.5l-289 -285q-45 -6 -51 33z" />
<glyph unicode="&#x156;" horiz-adv-x="1359" d="M233 295v725q0 156 -13 193.5t-77 46.5l-55 8q-16 8 -15 35.5t19 35.5q276 18 508 19q281 0 401 -74q180 -106 181 -303q0 -121 -61.5 -190.5t-155.5 -116.5q-25 -12 -11 -45q111 -225 179.5 -339t138.5 -173q66 -53 137 -58q12 -8 14 -26.5t-6 -26.5q-43 -18 -162 -18 q-139 0 -234 52t-163 163q-78 129 -160 317q-33 72 -108 72q-53 0 -64.5 -7t-11.5 -38v-252q0 -139 17.5 -173t86.5 -46l56 -10q10 -8 10 -35t-10 -37q-162 6 -301.5 6t-298.5 -6q-12 10 -12.5 36.5t12.5 35.5l55 10q70 12 87 46t17 173zM514 1159v-399q0 -55 18.5 -66.5 t108.5 -11.5q98 0 156 57q74 74 73 222q0 137 -73.5 220t-194.5 83q-63 0 -75.5 -15.5t-12.5 -89.5zM674 -113q72 0 126 -52t54 -157q0 -123 -77 -197.5t-202 -98.5q-20 2 -26 30.5t8 36.5q53 20 99 64.5t46 91.5q0 76 -94 98q-51 16 -51 80q0 43 35 73.5t82 30.5z" />
<glyph unicode="&#x157;" horiz-adv-x="759" d="M172 233v310q0 68 -6 91t-33 40l-29 18q-10 8 -10 30.5t10 31.5q193 55 299 123q25 0 37 -19q-8 -82 -8 -88q0 -20 21 -25q10 6 52 39t75.5 48.5t72.5 15.5q45 0 79 -33t34 -88q0 -66 -38 -99.5t-93 -33.5q-41 0 -80 37q-49 41 -78 41q-39 0 -39 -123v-316 q0 -106 12.5 -133.5t63.5 -31.5l66 -7q12 -8 12 -35.5t-14 -35.5q-147 6 -277 6q-141 0 -242 -6q-14 8 -14 35.5t12 35.5l39 5q51 4 63.5 31t12.5 136zM293 -92q61 0 116.5 -52.5t55.5 -150.5q0 -119 -75 -190.5t-193 -96.5q-20 2 -25.5 31t8.5 37q51 18 95 58t44 87 q0 78 -90 103q-49 14 -49 71q0 43 33 73t80 30z" />
<glyph unicode="&#x158;" horiz-adv-x="1359" d="M233 295v725q0 156 -13 193.5t-77 46.5l-55 8q-16 8 -15 35.5t19 35.5q276 18 508 19q281 0 401 -74q180 -106 181 -303q0 -121 -61.5 -190.5t-155.5 -116.5q-25 -12 -11 -45q111 -225 179.5 -339t138.5 -173q66 -53 137 -58q12 -8 14 -26.5t-6 -26.5q-43 -18 -162 -18 q-139 0 -234 52t-163 163q-78 129 -160 317q-33 72 -108 72q-53 0 -64.5 -7t-11.5 -38v-252q0 -139 17.5 -173t86.5 -46l56 -10q10 -8 10 -35t-10 -37q-162 6 -301.5 6t-298.5 -6q-12 10 -12.5 36.5t12.5 35.5l55 10q70 12 87 46t17 173zM514 1159v-399q0 -55 18.5 -66.5 t108.5 -11.5q98 0 156 57q74 74 73 222q0 137 -73.5 220t-194.5 83q-63 0 -75.5 -15.5t-12.5 -89.5zM336 1763l260 -110q39 -18 76 0l258 110q14 0 22.5 -17t3.5 -36l-276 -240q-49 -43 -94 0l-277 240q-2 18 6.5 34.5t20.5 18.5z" />
<glyph unicode="&#x159;" horiz-adv-x="759" d="M172 233v310q0 68 -6 91t-33 40l-29 18q-10 8 -10 30.5t10 31.5q193 55 299 123q25 0 37 -19q-8 -82 -8 -88q0 -20 21 -25q10 6 52 39t75.5 48.5t72.5 15.5q45 0 79 -33t34 -88q0 -66 -38 -99.5t-93 -33.5q-41 0 -80 37q-49 41 -78 41q-39 0 -39 -123v-316 q0 -106 12.5 -133.5t63.5 -31.5l66 -7q12 -8 12 -35.5t-14 -35.5q-147 6 -277 6q-141 0 -242 -6q-14 8 -14 35.5t12 35.5l39 5q51 4 63.5 31t12.5 136zM676 1352l-217 -391q-14 -27 -47 -27t-47 27l-218 391q14 33 60 37l164 -189q33 -39 41 -39q10 0 43 37l163 191 q44 -4 58 -37z" />
<glyph unicode="&#x15a;" horiz-adv-x="1036" d="M977 383q0 -188 -141.5 -302t-374.5 -114q-211 0 -348 78q-29 33 -47.5 129t-18.5 203q10 20 38 21t40 -15q37 -117 135 -219.5t217 -102.5q106 0 163.5 61.5t57.5 145.5q0 186 -278 326q-309 156 -309 399q-2 176 126 283.5t349 107.5q125 0 233 -32q35 -10 70 -17 q37 -102 37 -293q-8 -18 -37 -20t-43 14q-33 98 -101.5 176t-169.5 78q-98 0 -153 -55t-55 -135q0 -68 52 -129.5t134 -104.5l135 -71q289 -154 289 -412zM389 1497l332 248q47 35 67 35q37 0 70 -64q31 -53 21 -88q-8 -35 -66 -51l-401 -131q-33 12 -23 51z" />
<glyph unicode="&#x15b;" horiz-adv-x="733" d="M336 -29q-172 0 -254 64q-39 72 -33 231q8 14 35 16.5t35 -12.5q25 -76 81 -140t128 -64q47 0 76.5 27.5t29.5 78.5q0 86 -135 154q-211 104 -211 258q0 127 92 195.5t234 68.5q72 0 135 -14.5t84 -28.5q31 -68 31 -205q-6 -16 -35 -18t-37 10q-55 162 -160 162 q-45 0 -73.5 -24.5t-28.5 -65.5q0 -68 131 -132q225 -109 225 -286q-2 -131 -100 -203t-250 -72zM309 946l187 373q29 61 63 61q33 0 80 -32q55 -43 55 -74t-45 -76l-289 -285q-45 -6 -51 33z" />
<glyph unicode="&#x15e;" horiz-adv-x="1036" d="M379 -197l113 166q-8 -2 -31 -2q-211 0 -348 78q-29 33 -47.5 129t-18.5 203q10 20 38 21t40 -15q37 -117 135 -219.5t217 -102.5q106 0 163.5 61.5t57.5 145.5q0 186 -278 326q-309 156 -309 399q-2 176 126 283.5t349 107.5q125 0 233 -32q35 -10 70 -17 q37 -102 37 -293q-8 -18 -37 -20t-43 14q-33 98 -101.5 176t-169.5 78q-98 0 -153 -55t-55 -135q0 -68 52 -129.5t134 -104.5l135 -71q289 -154 289 -412q0 -158 -102.5 -265.5t-278.5 -137.5l-55 -76q-12 -14 -9 -21.5t25 -17.5q113 -61 113 -158q0 -74 -71 -123t-165 -49 q-141 0 -141 82q0 25 16.5 43t40.5 18q29 0 69 -33.5t58 -33.5q16 0 31.5 12t15.5 33q0 76 -139 133z" />
<glyph unicode="&#xf6c1;" horiz-adv-x="1036" d="M379 -197l113 166q-8 -2 -31 -2q-211 0 -348 78q-29 33 -47.5 129t-18.5 203q10 20 38 21t40 -15q37 -117 135 -219.5t217 -102.5q106 0 163.5 61.5t57.5 145.5q0 186 -278 326q-309 156 -309 399q-2 176 126 283.5t349 107.5q125 0 233 -32q35 -10 70 -17 q37 -102 37 -293q-8 -18 -37 -20t-43 14q-33 98 -101.5 176t-169.5 78q-98 0 -153 -55t-55 -135q0 -68 52 -129.5t134 -104.5l135 -71q289 -154 289 -412q0 -158 -102.5 -265.5t-278.5 -137.5l-55 -76q-12 -14 -9 -21.5t25 -17.5q113 -61 113 -158q0 -74 -71 -123t-165 -49 q-141 0 -141 82q0 25 16.5 43t40.5 18q29 0 69 -33.5t58 -33.5q16 0 31.5 12t15.5 33q0 76 -139 133z" />
<glyph unicode="&#x15f;" horiz-adv-x="733" d="M203 -217l129 188q-168 0 -250 64q-39 72 -33 231q8 14 35 16.5t35 -12.5q25 -76 81 -140t128 -64q47 0 76.5 27.5t29.5 78.5q0 86 -135 154q-211 104 -211 258q0 127 92 195.5t234 68.5q72 0 135 -14.5t84 -28.5q31 -68 31 -205q-6 -16 -35 -18t-37 10q-55 162 -160 162 q-45 0 -73.5 -24.5t-28.5 -65.5q0 -68 131 -132q225 -109 225 -286q-2 -106 -66.5 -173t-173.5 -89l-65 -90q-12 -16 -8 -23.5t26 -20.5q125 -68 125 -174q0 -82 -77.5 -136t-182.5 -54q-158 0 -158 90q0 29 18.5 48.5t47.5 19.5q31 0 75 -38t64 -38q18 0 36 14.5t18 36.5 q0 82 -156 148z" />
<glyph unicode="&#xf6c2;" horiz-adv-x="733" d="M203 -217l129 188q-168 0 -250 64q-39 72 -33 231q8 14 35 16.5t35 -12.5q25 -76 81 -140t128 -64q47 0 76.5 27.5t29.5 78.5q0 86 -135 154q-211 104 -211 258q0 127 92 195.5t234 68.5q72 0 135 -14.5t84 -28.5q31 -68 31 -205q-6 -16 -35 -18t-37 10q-55 162 -160 162 q-45 0 -73.5 -24.5t-28.5 -65.5q0 -68 131 -132q225 -109 225 -286q-2 -106 -66.5 -173t-173.5 -89l-65 -90q-12 -16 -8 -23.5t26 -20.5q125 -68 125 -174q0 -82 -77.5 -136t-182.5 -54q-158 0 -158 90q0 29 18.5 48.5t47.5 19.5q31 0 75 -38t64 -38q18 0 36 14.5t18 36.5 q0 82 -156 148z" />
<glyph unicode="&#x160;" horiz-adv-x="1036" d="M977 383q0 -188 -141.5 -302t-374.5 -114q-211 0 -348 78q-29 33 -47.5 129t-18.5 203q10 20 38 21t40 -15q37 -117 135 -219.5t217 -102.5q106 0 163.5 61.5t57.5 145.5q0 186 -278 326q-309 156 -309 399q-2 176 126 283.5t349 107.5q125 0 233 -32q35 -10 70 -17 q37 -102 37 -293q-8 -18 -37 -20t-43 14q-33 98 -101.5 176t-169.5 78q-98 0 -153 -55t-55 -135q0 -68 52 -129.5t134 -104.5l135 -71q289 -154 289 -412zM246 1763l248 -102q41 -16 71 -2l246 104q14 0 22.5 -17t4.5 -36l-265 -240q-47 -41 -90 0l-262 240q-2 18 6.5 34.5 t18.5 18.5z" />
<glyph unicode="&#x161;" horiz-adv-x="733" d="M336 -29q-172 0 -254 64q-39 72 -33 231q8 14 35 16.5t35 -12.5q25 -76 81 -140t128 -64q47 0 76.5 27.5t29.5 78.5q0 86 -135 154q-211 104 -211 258q0 127 92 195.5t234 68.5q72 0 135 -14.5t84 -28.5q31 -68 31 -205q-6 -16 -35 -18t-37 10q-55 162 -160 162 q-45 0 -73.5 -24.5t-28.5 -65.5q0 -68 131 -132q225 -109 225 -286q-2 -131 -100 -203t-250 -72zM670 1352l-217 -391q-14 -27 -47 -27t-48 27l-217 391q14 33 60 37l164 -189q33 -39 41 -39t43 37l163 191q44 -4 58 -37z" />
<glyph unicode="&#x162;" horiz-adv-x="1320" d="M522 295v903q0 39 -7 49t-42 10h-127q-104 0 -152.5 -51t-101.5 -180q-18 -10 -42.5 -5t-33.5 23q18 63 31.5 128t24 134.5t12.5 86.5q14 10 29 10q18 0 28 -8q8 -29 35 -36t137 -7h762q106 0 139 7t46 38q12 6 26 6q20 0 31 -14q-39 -131 -31 -353q-8 -14 -37.5 -16 t-38.5 10q-16 61 -27.5 93t-35 68t-61 51t-93.5 15h-123q-37 0 -46 -10t-9 -49v-903q0 -141 17.5 -175t87.5 -44l81 -10q10 -8 10.5 -35t-10.5 -37q-199 6 -327 6q-133 0 -348 -6q-12 10 -12.5 36.5t12.5 35.5l92 10q70 8 87 43t17 176zM639 -113q72 0 126 -52t54 -157 q0 -123 -76.5 -197.5t-201.5 -98.5q-20 2 -26.5 30.5t7.5 36.5q53 20 99.5 64.5t46.5 91.5q0 76 -95 98q-51 16 -51 80q0 43 35 73.5t82 30.5z" />
<glyph unicode="&#x21a;" horiz-adv-x="1320" d="M522 295v903q0 39 -7 49t-42 10h-127q-104 0 -152.5 -51t-101.5 -180q-18 -10 -42.5 -5t-33.5 23q18 63 31.5 128t24 134.5t12.5 86.5q14 10 29 10q18 0 28 -8q8 -29 35 -36t137 -7h762q106 0 139 7t46 38q12 6 26 6q20 0 31 -14q-39 -131 -31 -353q-8 -14 -37.5 -16 t-38.5 10q-16 61 -27.5 93t-35 68t-61 51t-93.5 15h-123q-37 0 -46 -10t-9 -49v-903q0 -141 17.5 -175t87.5 -44l81 -10q10 -8 10.5 -35t-10.5 -37q-199 6 -327 6q-133 0 -348 -6q-12 10 -12.5 36.5t12.5 35.5l92 10q70 8 87 43t17 176zM639 -113q72 0 126 -52t54 -157 q0 -123 -76.5 -197.5t-201.5 -98.5q-20 2 -26.5 30.5t7.5 36.5q53 20 99.5 64.5t46.5 91.5q0 76 -95 98q-51 16 -51 80q0 43 35 73.5t82 30.5z" />
<glyph unicode="&#x163;" horiz-adv-x="661" d="M637 709h-184q-20 0 -24.5 -7.5t-4.5 -39.5v-308q0 -47 1 -70.5t8 -62.5t21.5 -58.5t43 -34.5t69.5 -15q39 0 86 30q35 -10 29 -53q-47 -49 -126 -84t-169 -35q-229 0 -229 234v457q0 33 -6.5 40t-32.5 7h-64q-16 6 -20 29.5t8 33.5q68 25 170 92q80 57 152 160 q10 6 31.5 4t29.5 -14v-154q0 -29 5 -35t34 -6h182q16 -12 17 -39q0 -55 -27 -71zM371 -92q61 0 116.5 -52.5t55.5 -150.5q0 -119 -75 -190.5t-194 -96.5q-20 2 -25 31t9 37q51 18 95 58t44 87q0 78 -90 103q-49 14 -49 71q0 43 33 73t80 30z" />
<glyph unicode="&#x21b;" horiz-adv-x="661" d="M637 709h-184q-20 0 -24.5 -7.5t-4.5 -39.5v-308q0 -47 1 -70.5t8 -62.5t21.5 -58.5t43 -34.5t69.5 -15q39 0 86 30q35 -10 29 -53q-47 -49 -126 -84t-169 -35q-229 0 -229 234v457q0 33 -6.5 40t-32.5 7h-64q-16 6 -20 29.5t8 33.5q68 25 170 92q80 57 152 160 q10 6 31.5 4t29.5 -14v-154q0 -29 5 -35t34 -6h182q16 -12 17 -39q0 -55 -27 -71zM371 -92q61 0 116.5 -52.5t55.5 -150.5q0 -119 -75 -190.5t-194 -96.5q-20 2 -25 31t9 37q51 18 95 58t44 87q0 78 -90 103q-49 14 -49 71q0 43 33 73t80 30z" />
<glyph unicode="&#x164;" horiz-adv-x="1320" d="M522 295v903q0 39 -7 49t-42 10h-127q-104 0 -152.5 -51t-101.5 -180q-18 -10 -42.5 -5t-33.5 23q18 63 31.5 128t24 134.5t12.5 86.5q14 10 29 10q18 0 28 -8q8 -29 35 -36t137 -7h762q106 0 139 7t46 38q12 6 26 6q20 0 31 -14q-39 -131 -31 -353q-8 -14 -37.5 -16 t-38.5 10q-16 61 -27.5 93t-35 68t-61 51t-93.5 15h-123q-37 0 -46 -10t-9 -49v-903q0 -141 17.5 -175t87.5 -44l81 -10q10 -8 10.5 -35t-10.5 -37q-199 6 -327 6q-133 0 -348 -6q-12 10 -12.5 36.5t12.5 35.5l92 10q70 8 87 43t17 176zM383 1763l248 -102q41 -16 71 -2 l246 104q14 0 22.5 -17t4.5 -36l-264 -240q-47 -41 -90 0l-263 240q-2 18 6.5 34.5t18.5 18.5z" />
<glyph unicode="&#x165;" horiz-adv-x="661" d="M637 709h-184q-20 0 -24.5 -7.5t-4.5 -39.5v-308q0 -47 1 -70.5t8 -62.5t21.5 -58.5t43 -34.5t69.5 -15q39 0 86 30q35 -10 29 -53q-47 -49 -126 -84t-169 -35q-229 0 -229 234v457q0 33 -6.5 40t-32.5 7h-64q-16 6 -20 29.5t8 33.5q68 25 170 92q80 57 152 160 q10 6 31.5 4t29.5 -14v-154q0 -29 5 -35t34 -6h182q16 -12 17 -39q0 -55 -27 -71zM659 1464q57 0 103.5 -52t46.5 -150q0 -121 -70.5 -202t-173.5 -108q-20 2 -25 28t9 34q43 20 81 63t38 94q0 78 -70 109q-49 14 -49 76q0 45 32.5 76.5t77.5 31.5z" />
<glyph unicode="&#x16a;" horiz-adv-x="1515" d="M223 545v512q0 139 -16.5 173t-87.5 48l-51 10q-12 8 -12.5 35t16.5 35q147 -6 298.5 -6t299.5 6q12 -10 12 -35t-12 -35l-49 -8q-70 -12 -87.5 -47t-17.5 -176v-473q0 -84 5 -145.5t24.5 -134.5t54.5 -118t99.5 -75.5t154.5 -30.5q342 0 342 510v248q0 303 -31 374 q-20 47 -118 66l-56 10q-12 12 -11 36t11 34q166 -6 275 -6q113 0 229 6q10 -10 11 -34t-11 -36l-37 -8q-90 -20 -110 -68q-31 -72 -31 -374v-230q0 -168 -26.5 -287.5t-104.5 -205.5q-137 -147 -406 -148q-264 0 -405 115q-152 125 -152 463zM1053 1485h-518 q-18 25 -18.5 77t18.5 76h518q20 -16 20 -72t-20 -81z" />
<glyph unicode="&#x16b;" horiz-adv-x="1114" d="M965 643v-373q0 -98 10 -136t45 -38q33 0 82 17q14 -2 13 -41t-19 -47q-55 -2 -114.5 -10.5t-104.5 -19.5l-81 -21l-59 -15l-20 -8q-20 2 -25 24q6 37 6 74q0 20 -22 21q-53 -35 -82 -50.5t-83 -32t-114 -16.5q-125 0 -182 64.5t-57 197.5v349q0 78 -11.5 99t-50.5 34 l-26 8q-10 14 -8.5 37.5t16.5 34.5q111 4 198 18q27 4 58 13l50 16q19 6 22 6q20 0 24 -25q-6 -78 -6 -180v-338q0 -90 27.5 -137t117.5 -47q55 0 107 39q23 16 22 61v387q0 61 -16 82t-72 29l-28 4q-12 10 -10.5 37.5t20.5 34.5q88 4 213 20q31 4 64.5 12.5t55 14.5t25.5 6 q16 0 21 -25q-6 -110 -6 -180zM815 1028h-518q-18 25 -18 74t18 74h518q20 -16 20 -69.5t-20 -78.5z" />
<glyph unicode="&#x16e;" horiz-adv-x="1515" d="M223 545v512q0 139 -16.5 173t-87.5 48l-51 10q-12 8 -12.5 35t16.5 35q147 -6 298.5 -6t299.5 6q12 -10 12 -35t-12 -35l-49 -8q-70 -12 -87.5 -47t-17.5 -176v-473q0 -84 5 -145.5t24.5 -134.5t54.5 -118t99.5 -75.5t154.5 -30.5q342 0 342 510v248q0 303 -31 374 q-20 47 -118 66l-56 10q-12 12 -11 36t11 34q166 -6 275 -6q113 0 229 6q10 -10 11 -34t-11 -36l-37 -8q-90 -20 -110 -68q-31 -72 -31 -374v-230q0 -168 -26.5 -287.5t-104.5 -205.5q-137 -147 -406 -148q-264 0 -405 115q-152 125 -152 463zM815 1411q-94 0 -152.5 60.5 t-58.5 142.5q0 80 58.5 140.5t152.5 60.5t152.5 -60.5t58.5 -140.5q0 -82 -58.5 -142.5t-152.5 -60.5zM815 1489q43 0 67.5 36t24.5 89t-24.5 90t-67.5 39q-43 -2 -67.5 -39t-24.5 -90t24.5 -89t67.5 -36z" />
<glyph unicode="&#x16f;" horiz-adv-x="1114" d="M965 643v-373q0 -98 10 -136t45 -38q33 0 82 17q14 -2 13 -41t-19 -47q-55 -2 -114.5 -10.5t-104.5 -19.5l-81 -21l-59 -15l-20 -8q-20 2 -25 24q6 37 6 74q0 20 -22 21q-53 -35 -82 -50.5t-83 -32t-114 -16.5q-125 0 -182 64.5t-57 197.5v349q0 78 -11.5 99t-50.5 34 l-26 8q-10 14 -8.5 37.5t16.5 34.5q111 4 198 18q27 4 58 13l50 16q19 6 22 6q20 0 24 -25q-6 -78 -6 -180v-338q0 -90 27.5 -137t117.5 -47q55 0 107 39q23 16 22 61v387q0 61 -16 82t-72 29l-28 4q-12 10 -10.5 37.5t20.5 34.5q88 4 213 20q31 4 64.5 12.5t55 14.5t25.5 6 q16 0 21 -25q-6 -110 -6 -180zM557 936q-98 0 -159.5 60.5t-61.5 142.5q0 80 61.5 140t159.5 60q100 0 160.5 -59t60.5 -141t-60.5 -142.5t-160.5 -60.5zM557 1014q45 0 71.5 35.5t26.5 89t-26.5 90.5t-71.5 39q-45 -2 -71.5 -39t-26.5 -90.5t26.5 -89t71.5 -35.5z" />
<glyph unicode="&#x170;" horiz-adv-x="1515" d="M223 545v512q0 139 -16.5 173t-87.5 48l-51 10q-12 8 -12.5 35t16.5 35q147 -6 298.5 -6t299.5 6q12 -10 12 -35t-12 -35l-49 -8q-70 -12 -87.5 -47t-17.5 -176v-473q0 -84 5 -145.5t24.5 -134.5t54.5 -118t99.5 -75.5t154.5 -30.5q342 0 342 510v248q0 303 -31 374 q-20 47 -118 66l-56 10q-12 12 -11 36t11 34q166 -6 275 -6q113 0 229 6q10 -10 11 -34t-11 -36l-37 -8q-90 -20 -110 -68q-31 -72 -31 -374v-230q0 -168 -26.5 -287.5t-104.5 -205.5q-137 -147 -406 -148q-264 0 -405 115q-152 125 -152 463zM895 1487l149 274q29 41 56 41 q33 0 78 -39q49 -47 49 -86q0 -25 -66 -73l-217 -158q-12 0 -29.5 13.5t-19.5 27.5zM543 1487l149 274q29 41 56 41q35 0 83 -43q45 -39 46 -82q0 -25 -68 -73l-217 -158q-12 0 -29.5 13.5t-19.5 27.5z" />
<glyph unicode="&#x171;" horiz-adv-x="1114" d="M965 643v-373q0 -98 10 -136t45 -38q33 0 82 17q14 -2 13 -41t-19 -47q-55 -2 -114.5 -10.5t-104.5 -19.5l-81 -21l-59 -15l-20 -8q-20 2 -25 24q6 37 6 74q0 20 -22 21q-53 -35 -82 -50.5t-83 -32t-114 -16.5q-125 0 -182 64.5t-57 197.5v349q0 78 -11.5 99t-50.5 34 l-26 8q-10 14 -8.5 37.5t16.5 34.5q111 4 198 18q27 4 58 13l50 16q19 6 22 6q20 0 24 -25q-6 -78 -6 -180v-338q0 -90 27.5 -137t117.5 -47q55 0 107 39q23 16 22 61v387q0 61 -16 82t-72 29l-28 4q-12 10 -10.5 37.5t20.5 34.5q88 4 213 20q31 4 64.5 12.5t55 14.5t25.5 6 q16 0 21 -25q-6 -110 -6 -180zM313 958l131 371q20 63 58 64q33 0 80 -33q55 -43 55 -74q0 -27 -41 -78l-225 -282q-52 -9 -58 32zM672 958l131 371q20 63 57 64q33 0 80 -33q55 -43 55 -74q0 -27 -41 -78l-223 -282q-23 -4 -40 5t-19 27z" />
<glyph unicode="&#x172;" horiz-adv-x="1515" d="M223 545v512q0 139 -16.5 173t-87.5 48l-51 10q-12 8 -12.5 35t16.5 35q147 -6 298.5 -6t299.5 6q12 -10 12 -35t-12 -35l-49 -8q-70 -12 -87.5 -47t-17.5 -176v-473q0 -84 5 -145.5t24.5 -134.5t54.5 -118t99.5 -75.5t154.5 -30.5q342 0 342 510v248q0 303 -31 374 q-20 47 -118 66l-56 10q-12 12 -11 36t11 34q166 -6 275 -6q113 0 229 6q10 -10 11 -34t-11 -36l-37 -8q-90 -20 -110 -68q-31 -72 -31 -374v-230q0 -168 -26.5 -287.5t-104.5 -205.5q-92 -98 -242 -127q-141 -115 -141 -248q0 -47 28.5 -78t71.5 -31q45 0 92 19 q18 -6 19 -37q-35 -47 -93.5 -73.5t-121.5 -26.5q-92 0 -133 49t-41 116q0 137 194 293q-12 -4 -39 -4q-264 0 -405 115q-152 125 -152 463z" />
<glyph unicode="&#x173;" horiz-adv-x="1114" d="M965 643v-373q0 -98 10 -136t45 -38q33 0 82 17q14 -2 13 -41t-19 -47q-18 0 -29 -2q-176 -180 -176 -304q0 -53 33.5 -86.5t89.5 -33.5q61 0 102 30q20 -6 21 -39q-76 -113 -217 -112q-109 0 -157 54t-48 130q0 164 235 348q-57 -10 -114.5 -24.5t-87.5 -24.5l-31 -10 q-20 2 -25 24q6 37 6 74q0 20 -22 21q-53 -35 -82 -50.5t-83 -32t-114 -16.5q-125 0 -182 64.5t-57 197.5v349q0 78 -11.5 99t-50.5 34l-26 8q-10 14 -8.5 37.5t16.5 34.5q111 4 198 18q27 4 58 13l50 16q19 6 22 6q20 0 24 -25q-6 -78 -6 -180v-338q0 -90 27.5 -137 t117.5 -47q55 0 107 39q23 16 22 61v387q0 61 -16 82t-72 29l-28 4q-12 10 -10.5 37.5t20.5 34.5q88 4 213 20q31 4 64.5 12.5t55 14.5t25.5 6q16 0 21 -25q-6 -110 -6 -180z" />
<glyph unicode="&#x178;" horiz-adv-x="1177" d="M752 438v-143q0 -141 17 -175t87 -44l82 -10q10 -8 10 -35t-10 -37q-201 6 -332 6q-139 0 -321 -6q-12 10 -12.5 36.5t12.5 35.5l69 10q70 10 87.5 45t17.5 174v102q0 82 -9.5 124t-46.5 120l-243 504q-35 70 -57.5 95.5t-73.5 33.5l-70 12q-14 12 -12 40t20 32 q139 -6 289 -6q195 0 299 6q14 -6 16 -33t-12 -39l-70 -16q-49 -10 -49 -19q0 -25 54 -143l96 -219l94 -201q6 12 172 324q106 199 107 237q0 16 -70 29l-47 8q-12 8 -12 36t14 36q123 -6 229 -6q111 0 201 6q18 -6 19 -34t-11 -38l-53 -10q-70 -12 -98 -49 q-66 -84 -181 -291l-129 -234q-43 -78 -58 -129t-15 -135zM448.5 1458q-57.5 0 -93.5 33t-38 92q0 59 37 98t95 39q55 0 92 -37.5t37 -89.5q0 -61 -36 -98t-93.5 -37zM886.5 1458q-57.5 0 -93 33t-37.5 92q0 59 36.5 98t94.5 39q55 0 92 -37.5t37 -89.5q0 -61 -36 -98 t-93.5 -37z" />
<glyph unicode="&#x179;" horiz-adv-x="1257" d="M737 1257h-221q-117 0 -182.5 -25.5t-97 -69.5t-70.5 -140q-20 -12 -47 -7t-37 21q37 139 80 363q6 6 23.5 6t29.5 -4q10 -33 37 -41t137 -8h586q188 0 239 6q16 -10 13 -31q-76 -80 -307 -438l-224 -346q-246 -381 -256 -410q-2 -8 -2 -12q0 -27 189 -27h190 q158 0 229.5 45t153.5 213q18 12 44 7t36 -21q-10 -86 -38 -196.5t-52 -147.5q-258 6 -428 6h-516q-158 0 -207 -6q-25 10 -16 35q23 25 188 274l403 615q133 207 172 278q20 39 21 49q0 12 -70 12zM518 1499l350 260q53 37 70 37q39 0 74 -65q35 -57 20 -95q-8 -33 -67 -53 l-422 -137q-12 4 -20.5 20.5t-4.5 32.5z" />
<glyph unicode="&#x17a;" horiz-adv-x="849" d="M457 0h-199q-150 0 -199 -6q-23 8 -14 33q94 141 180 295l191 337q23 43 22 60q0 10 -57 10h-64q-113 0 -145 -39q-39 -39 -66 -119q-14 -12 -39.5 -6t-33.5 23q27 178 63 270q8 8 22.5 8t20.5 -8q4 -27 21.5 -33t93.5 -6h369q133 0 170 6q16 -8 12 -26 q-18 -25 -146 -240l-219 -373q-37 -63 -37 -84q0 -12 82 -12h50q150 0 192 70q23 31 61 110q12 12 39 8t35 -18q-4 -57 -30.5 -146t-47.5 -120q-251 6 -327 6zM377 948l186 373q29 61 64 61q33 0 80 -32q55 -43 55 -74t-45 -76l-289 -285q-45 -6 -51 33z" />
<glyph unicode="&#x17b;" horiz-adv-x="1257" d="M737 1257h-221q-117 0 -182.5 -25.5t-97 -69.5t-70.5 -140q-20 -12 -47 -7t-37 21q37 139 80 363q6 6 23.5 6t29.5 -4q10 -33 37 -41t137 -8h586q188 0 239 6q16 -10 13 -31q-76 -80 -307 -438l-224 -346q-246 -381 -256 -410q-2 -8 -2 -12q0 -27 189 -27h190 q158 0 229.5 45t153.5 213q18 12 44 7t36 -21q-10 -86 -38 -196.5t-52 -147.5q-258 6 -428 6h-516q-158 0 -207 -6q-25 10 -16 35q23 25 188 274l403 615q133 207 172 278q20 39 21 49q0 12 -70 12zM692 1458q-57 0 -95 33t-40 92q0 59 39 98t96 39q53 0 91 -36.5t38 -88.5 q0 -61 -37 -99t-92 -38z" />
<glyph unicode="&#x17c;" horiz-adv-x="849" d="M457 0h-199q-150 0 -199 -6q-23 8 -14 33q94 141 180 295l191 337q23 43 22 60q0 10 -57 10h-64q-113 0 -145 -39q-39 -39 -66 -119q-14 -12 -39.5 -6t-33.5 23q27 178 63 270q8 8 22.5 8t20.5 -8q4 -27 21.5 -33t93.5 -6h369q133 0 170 6q16 -8 12 -26 q-18 -25 -146 -240l-219 -373q-37 -63 -37 -84q0 -12 82 -12h50q150 0 192 70q23 31 61 110q12 12 39 8t35 -18q-4 -57 -30.5 -146t-47.5 -120q-251 6 -327 6zM442.5 997q-55.5 0 -91.5 32t-38 89q0 57 37 94t92 37q53 0 89 -35.5t36 -85.5q0 -59 -34.5 -95t-90 -36z" />
<glyph unicode="&#x17d;" horiz-adv-x="1257" d="M737 1257h-221q-117 0 -182.5 -25.5t-97 -69.5t-70.5 -140q-20 -12 -47 -7t-37 21q37 139 80 363q6 6 23.5 6t29.5 -4q10 -33 37 -41t137 -8h586q188 0 239 6q16 -10 13 -31q-76 -80 -307 -438l-224 -346q-246 -381 -256 -410q-2 -8 -2 -12q0 -27 189 -27h190 q158 0 229.5 45t153.5 213q18 12 44 7t36 -21q-10 -86 -38 -196.5t-52 -147.5q-258 6 -428 6h-516q-158 0 -207 -6q-25 10 -16 35q23 25 188 274l403 615q133 207 172 278q20 39 21 49q0 12 -70 12zM422 1763l248 -102q41 -16 71 -2l246 104q14 0 22.5 -17t4.5 -36 l-264 -240q-47 -41 -91 0l-262 240q-2 18 6.5 34.5t18.5 18.5z" />
<glyph unicode="&#x17e;" horiz-adv-x="849" d="M457 0h-199q-150 0 -199 -6q-23 8 -14 33q94 141 180 295l191 337q23 43 22 60q0 10 -57 10h-64q-113 0 -145 -39q-39 -39 -66 -119q-14 -12 -39.5 -6t-33.5 23q27 178 63 270q8 8 22.5 8t20.5 -8q4 -27 21.5 -33t93.5 -6h369q133 0 170 6q16 -8 12 -26 q-18 -25 -146 -240l-219 -373q-37 -63 -37 -84q0 -12 82 -12h50q150 0 192 70q23 31 61 110q12 12 39 8t35 -18q-4 -57 -30.5 -146t-47.5 -120q-251 6 -327 6zM702 1352l-217 -391q-14 -27 -46.5 -27t-47.5 27l-217 391q14 33 59 37l164 -189q33 -39 41 -39t43 37l164 191 q43 -4 57 -37z" />
<glyph unicode="&#x192;" horiz-adv-x="1044" d="M137 721h164q25 131 82 233q53 92 164.5 169t259.5 77q80 0 124 -29.5t44 -68.5q2 -49 -34 -92t-81 -43q-31 0 -53 32q-61 88 -105 88q-23 0 -55.5 -104t-58.5 -262h221q14 -6 8 -43t-29 -49h-219q-33 -158 -47 -244q-41 -238 -101.5 -354.5t-152.5 -188.5 q-117 -92 -254 -92q-131 0 -135 144q-2 43 12.5 73.5t34.5 30.5q31 0 62 -35q106 -90 128.5 -90t38 43t33.5 168q2 16 97 545h-168q-12 10 -5 47t25 45z" />
<glyph unicode="&#x218;" horiz-adv-x="1036" d="M977 383q0 -188 -141.5 -302t-374.5 -114q-211 0 -348 78q-29 33 -47.5 129t-18.5 203q10 20 38 21t40 -15q37 -117 135 -219.5t217 -102.5q106 0 163.5 61.5t57.5 145.5q0 186 -278 326q-309 156 -309 399q-2 176 126 283.5t349 107.5q125 0 233 -32q35 -10 70 -17 q37 -102 37 -293q-8 -18 -37 -20t-43 14q-33 98 -101.5 176t-169.5 78q-98 0 -153 -55t-55 -135q0 -68 52 -129.5t134 -104.5l135 -71q289 -154 289 -412zM475 -113q72 0 126 -52t54 -157q0 -123 -76.5 -197.5t-201.5 -98.5q-20 2 -26.5 30.5t7.5 36.5q53 20 99.5 64.5 t46.5 91.5q0 76 -94 98q-51 16 -52 80q0 43 35 73.5t82 30.5z" />
<glyph unicode="&#x219;" horiz-adv-x="733" d="M336 -29q-172 0 -254 64q-39 72 -33 231q8 14 35 16.5t35 -12.5q25 -76 81 -140t128 -64q47 0 76.5 27.5t29.5 78.5q0 86 -135 154q-211 104 -211 258q0 127 92 195.5t234 68.5q72 0 135 -14.5t84 -28.5q31 -68 31 -205q-6 -16 -35 -18t-37 10q-55 162 -160 162 q-45 0 -73.5 -24.5t-28.5 -65.5q0 -68 131 -132q225 -109 225 -286q-2 -131 -100 -203t-250 -72zM324 -92q61 0 116.5 -52.5t55.5 -150.5q0 -119 -75 -190.5t-194 -96.5q-20 2 -25 31t9 37q51 18 95 58t44 87q0 78 -90 103q-49 14 -49 71q0 43 33 73t80 30z" />
<glyph unicode="&#x2c6;" horiz-adv-x="778" d="M125 969l217 391q14 27 47 26.5t47 -26.5l217 -391q-14 -33 -59 -37l-164 178q-37 39 -41 39q-8 0 -43 -37l-164 -180q-43 4 -57 37z" />
<glyph unicode="&#x2c7;" horiz-adv-x="778" d="M653 1352l-217 -391q-14 -27 -47 -27t-47 27l-217 391q14 33 59 37l164 -179q37 -39 41 -39q8 0 43 37l164 181q43 -4 57 -37z" />
<glyph unicode="&#x2d8;" horiz-adv-x="778" d="M389 999q-125 0 -189.5 82t-58.5 234q10 8 31 8t31 -8q14 -68 66.5 -110t119.5 -42q70 0 121 39t65 113q10 8 31 8t31 -8q6 -152 -58.5 -234t-189.5 -82z" />
<glyph unicode="&#x2d9;" horiz-adv-x="778" d="M391 1008q-55 0 -91 31.5t-38 88.5q0 57 37 94.5t92 37.5q53 0 89 -36t36 -85q0 -59 -35 -95t-90 -36z" />
<glyph unicode="&#x2da;" horiz-adv-x="778" d="M389 940q-98 0 -159.5 60.5t-61.5 142.5q0 80 61.5 140t159.5 60q100 0 160.5 -59t60.5 -141t-60.5 -142.5t-160.5 -60.5zM389 1018q45 0 71.5 36t26.5 89t-26.5 90t-71.5 39q-45 -2 -71.5 -39t-26.5 -90t26.5 -89t71.5 -36z" />
<glyph unicode="&#x2db;" horiz-adv-x="778" d="M438 31h101q-184 -184 -185 -312q0 -53 34 -86.5t89 -33.5q61 0 103 30q20 -6 20 -39q-76 -113 -217 -112q-109 0 -157 54t-48 130q0 172 260 369z" />
<glyph unicode="&#x2dc;" horiz-adv-x="778" d="M471 1055h-115q-119 0 -176 -101q-8 -6 -32.5 -3t-30.5 16q39 121 84 178q47 57 125 57h114q68 0 103 18.5t57 77.5q12 4 33.5 1t28.5 -11q-18 -102 -68 -176q-39 -57 -123 -57z" />
<glyph unicode="&#x2dd;" horiz-adv-x="778" d="M145 969l131 370q20 63 58 64q33 0 80 -33q55 -43 55 -74q0 -27 -41 -77l-225 -283q-52 -8 -58 33zM504 969l131 370q20 63 57 64q33 0 80 -33q55 -43 55 -74q0 -27 -41 -77l-223 -283q-23 -4 -40 5.5t-19 27.5z" />
<glyph unicode="&#x394;" horiz-adv-x="1392" d="M1315 0h-1235q-14 0 -16.5 25.5t3 52t11.5 41.5l233 489l244 535q53 113 47 143q74 14 152 98q33 0 39 -18l114 -274l410 -957q14 -33 14 -84t-16 -51zM330 139h592q49 0 59 12.5t-2 34.5l-270 697q-39 102 -64 151h-6q-12 -25 -59 -135l-314 -717q-10 -23 4.5 -33 t59.5 -10z" />
<glyph unicode="&#x2206;" horiz-adv-x="1392" d="M1315 0h-1235q-14 0 -16.5 25.5t3 52t11.5 41.5l233 489l244 535q53 113 47 143q74 14 152 98q33 0 39 -18l114 -274l410 -957q14 -33 14 -84t-16 -51zM330 139h592q49 0 59 12.5t-2 34.5l-270 697q-39 102 -64 151h-6q-12 -25 -59 -135l-314 -717q-10 -23 4.5 -33 t59.5 -10z" />
<glyph unicode="&#x3a9;" horiz-adv-x="1685" d="M838 1384q307 0 508.5 -168.5t195.5 -463.5q-2 -104 -33.5 -190.5t-93 -154t-112 -107.5t-127.5 -91h124q102 0 149.5 28.5t94.5 94.5q8 16 42 16t38 -16q-12 -41 -23.5 -95.5t-23.5 -129t-23 -121.5q-166 14 -204 14h-420v61q135 164 217 331t82 370q0 233 -106.5 380.5 t-280.5 147.5q-182 0 -289 -148.5t-109 -387.5q0 -109 25 -209.5t75 -190.5t93 -151.5t108 -141.5v-61h-419q-37 0 -101.5 -6t-103.5 -8q-10 47 -22.5 116.5t-24 124t-23.5 105.5q4 16 38 16t42 -16q27 -39 39 -53.5t40 -35t66.5 -27.5t98.5 -7h125l-75 51 q-24 16 -89.5 74.5t-101 110t-68.5 133t-33 165.5q0 293 202 467t503 174z" />
<glyph unicode="&#x2126;" horiz-adv-x="1685" d="M838 1384q307 0 508.5 -168.5t195.5 -463.5q-2 -104 -33.5 -190.5t-93 -154t-112 -107.5t-127.5 -91h124q102 0 149.5 28.5t94.5 94.5q8 16 42 16t38 -16q-12 -41 -23.5 -95.5t-23.5 -129t-23 -121.5q-166 14 -204 14h-420v61q135 164 217 331t82 370q0 233 -106.5 380.5 t-280.5 147.5q-182 0 -289 -148.5t-109 -387.5q0 -109 25 -209.5t75 -190.5t93 -151.5t108 -141.5v-61h-419q-37 0 -101.5 -6t-103.5 -8q-10 47 -22.5 116.5t-24 124t-23.5 105.5q4 16 38 16t42 -16q27 -39 39 -53.5t40 -35t66.5 -27.5t98.5 -7h125l-75 51 q-24 16 -89.5 74.5t-101 110t-68.5 133t-33 165.5q0 293 202 467t503 174z" />
<glyph unicode="&#x3c0;" horiz-adv-x="1103" d="M707 633h-261q-51 -330 -84 -473q-43 -188 -149 -189q-113 0 -111 111q0 37 41 65q131 90 197 486q-205 0 -264 -86q-10 -16 -23.5 -13t-15.5 27q-6 45 18.5 112.5t94.5 108.5q61 37 192 37h444q201 0 236 19q4 2 8 3t7 -4.5t3 -15.5q0 -47 -20.5 -99t-48.5 -71 q-31 -18 -140 -18q-39 -145 -40 -285q-2 -96 22.5 -146t69.5 -50q57 0 114 67q20 25 41 15.5t9 -48.5q-76 -215 -283 -215q-182 0 -182 213q0 148 125 449z" />
<glyph unicode="&#x2000;" horiz-adv-x="919" />
<glyph unicode="&#x2001;" horiz-adv-x="1841" />
<glyph unicode="&#x2002;" horiz-adv-x="919" />
<glyph unicode="&#x2003;" horiz-adv-x="1841" />
<glyph unicode="&#x2004;" horiz-adv-x="612" />
<glyph unicode="&#x2005;" horiz-adv-x="458" />
<glyph unicode="&#x2006;" horiz-adv-x="305" />
<glyph unicode="&#x2007;" horiz-adv-x="305" />
<glyph unicode="&#x2008;" horiz-adv-x="229" />
<glyph unicode="&#x2009;" horiz-adv-x="366" />
<glyph unicode="&#x200a;" horiz-adv-x="100" />
<glyph unicode="&#x2010;" horiz-adv-x="671" d="M92 485l490 45q29 -33 28 -86q0 -47 -26 -79l-492 -46q-31 31 -31 82q0 45 31 84z" />
<glyph unicode="&#x2011;" horiz-adv-x="671" d="M92 485l490 45q29 -33 28 -86q0 -47 -26 -79l-492 -46q-31 31 -31 82q0 45 31 84z" />
<glyph unicode="&#x2012;" horiz-adv-x="1064" d="M86 715h893v-142h-893v142z" />
<glyph unicode="&#x2013;" horiz-adv-x="1024" d="M0 496h1024v-142h-1024v142z" />
<glyph unicode="&#x2014;" horiz-adv-x="2048" d="M0 496h2048v-142h-2048v142z" />
<glyph unicode="&#x2018;" horiz-adv-x="518" d="M285 848q-76 0 -139.5 63.5t-63.5 186.5q0 135 93 226t231 122q25 -2 31.5 -27.5t-11.5 -36.5q-68 -25 -121 -75t-53 -115q0 -98 113 -127q61 -18 61 -90q0 -53 -42 -90t-99 -37z" />
<glyph unicode="&#x2019;" horiz-adv-x="518" d="M233 1434q74 0 138.5 -63.5t64.5 -186.5q0 -135 -93 -226.5t-230 -121.5q-25 2 -32 27.5t11 35.5q68 25 121 75t53 116q0 98 -112 127q-61 18 -62 90q0 53 42 90t99 37z" />
<glyph unicode="&#x201a;" horiz-adv-x="518" d="M233 348q76 0 139.5 -64.5t63.5 -189.5q0 -137 -92 -224t-231 -120q-25 2 -32 27.5t11 36.5q68 25 121 75t53 115q0 98 -112 127q-61 18 -62 90q0 53 42 90t99 37z" />
<glyph unicode="&#x201c;" horiz-adv-x="966" d="M285 848q-76 0 -139.5 63.5t-63.5 186.5q0 135 93 226t231 122q25 -2 31.5 -27.5t-11.5 -36.5q-68 -25 -121 -75t-53 -115q0 -98 113 -127q61 -18 61 -90q0 -53 -42 -90t-99 -37zM733 848q-74 0 -138.5 63.5t-64.5 186.5q0 135 93.5 226t230.5 122q25 -2 32 -27.5 t-12 -36.5q-68 -25 -121 -75t-53 -115q0 -98 113 -127q61 -18 61 -90q0 -53 -42 -90t-99 -37z" />
<glyph unicode="&#x201d;" horiz-adv-x="966" d="M233 1434q74 0 138.5 -63.5t64.5 -186.5q0 -135 -93 -226.5t-230 -121.5q-25 2 -32 27.5t11 35.5q68 25 121 75t53 116q0 98 -112 127q-61 18 -62 90q0 53 42 90t99 37zM682 1434q76 0 139.5 -63.5t63.5 -186.5q0 -135 -93.5 -226.5t-230.5 -121.5q-25 2 -32 27.5 t12 35.5q68 25 121 75t53 116q0 98 -113 127q-61 18 -61 90q0 53 42 90t99 37z" />
<glyph unicode="&#x201e;" horiz-adv-x="966" d="M233 348q76 0 139.5 -64.5t63.5 -189.5q0 -137 -92 -224t-231 -120q-25 2 -32 27.5t11 36.5q68 25 121 75t53 115q0 98 -112 127q-61 18 -62 90q0 53 42 90t99 37zM682 348q76 0 139.5 -64.5t63.5 -189.5q0 -137 -92.5 -224t-231.5 -120q-25 2 -32 27.5t12 36.5 q68 25 121 75t53 115q0 98 -113 127q-61 18 -61 90q0 53 42 90t99 37z" />
<glyph unicode="&#x2020;" horiz-adv-x="1003" d="M561 -260h-119v260q0 256 -84 537q82 100 82 323q-57 0 -132 -32.5t-109 -32.5q-51 0 -84 29.5t-33 82.5q0 49 32.5 80t84.5 31q35 0 109.5 -33t131.5 -33q-4 90 -41 172t-37 117q0 63 37 103t102.5 40t102.5 -39.5t37 -103.5q0 -35 -37 -117t-41 -172q57 0 133 33 t111 33q49 0 82 -31t33 -80q0 -51 -33 -81.5t-82 -30.5q-35 0 -110.5 32.5t-133.5 32.5q0 -223 82 -323q-84 -281 -84 -537v-260z" />
<glyph unicode="&#x2021;" horiz-adv-x="1007" d="M504 1384q74 0 103.5 -40.5t29.5 -92.5q0 -35 -35 -115.5t-39 -166.5q66 0 147 31.5t105 31.5q47 0 79 -30.5t32 -77.5q0 -49 -32 -80t-79 -31q-25 0 -105.5 32t-146.5 32q0 -203 86 -289q-86 -78 -86 -305q66 0 147 31.5t105 31.5q49 0 80 -31.5t31 -83.5 q0 -45 -32 -74.5t-79 -29.5q-25 0 -105.5 31.5t-146.5 31.5q0 -84 37 -174t37 -139q0 -55 -34 -93t-99 -38q-63 0 -98 38t-35 93q0 49 36.5 139t36.5 174q-66 0 -145.5 -31.5t-103.5 -31.5q-47 0 -80 29.5t-33 74.5q0 51 31.5 83t81.5 32q25 0 104.5 -31.5t144.5 -31.5 q0 227 -86 305q86 86 86 289q-66 0 -145.5 -32t-103.5 -32q-49 0 -81 30.5t-32 80.5q0 47 32.5 77.5t80.5 30.5q25 0 104.5 -31.5t144.5 -31.5q-4 86 -38.5 167t-34.5 115q0 51 29.5 92t103.5 41z" />
<glyph unicode="&#x2022;" horiz-adv-x="808" d="M403.5 1008q133.5 0 226.5 -93.5t93 -226.5q0 -135 -93 -228t-227 -93q-131 0 -224 93t-93 228q0 133 92 226.5t225.5 93.5z" />
<glyph unicode="&#x2024;" horiz-adv-x="1024" d="M512 -29q-66 0 -116 47.5t-50 119t48 120.5t118 49q72 0 119 -51t47 -119q0 -72 -46 -119t-120 -47z" />
<glyph unicode="&#x2025;" horiz-adv-x="1024" d="M256 -29q-66 0 -116 47.5t-50 119t48 120.5t118 49q72 0 119 -51t47 -119q0 -72 -46 -119t-120 -47zM768 -29q-66 0 -116 47.5t-50 119t48 120.5t118 49q72 0 119 -51t47 -119q0 -72 -46 -119t-120 -47z" />
<glyph unicode="&#x2026;" horiz-adv-x="2048" d="M1024 -29q-66 0 -116 47.5t-50 119t48 120.5t118 49q72 0 119 -51t47 -119q0 -72 -46 -119t-120 -47zM1706 -29q-66 0 -116 47.5t-50 119t48 120.5t118 49q72 0 119 -51t47 -119q0 -72 -46 -119t-120 -47zM342 -29q-66 0 -116 47.5t-50 119t48 120.5t118 49q72 0 119 -51 t47 -119q0 -72 -46 -119t-120 -47z" />
<glyph unicode="&#x202f;" horiz-adv-x="366" />
<glyph unicode="&#x2030;" horiz-adv-x="2437" d="M2019.5 -25q-159.5 0 -239.5 105.5t-80 232.5t80 232.5t239.5 105.5t239.5 -105.5t80 -232.5t-80 -232.5t-239.5 -105.5zM1903 315q0 -270 120 -270q113 0 113 270q0 266 -113 267q-120 -1 -120 -267zM1306.5 -25q-159.5 0 -239.5 105.5t-80 232.5t80 232.5t239.5 105.5 t239.5 -105.5t80 -232.5t-80 -232.5t-239.5 -105.5zM1190 315q0 -270 121 -270q113 0 112 270q0 266 -112 267q-121 -1 -121 -267zM545 -74q-27 -4 -52.5 8.5t-33.5 32.5l708 1168q25 4 52.5 -8.5t35.5 -34.5zM418 434q-147 0 -233.5 95.5t-86.5 242.5q0 127 80 232.5 t240 105.5t239.5 -105.5t79.5 -232.5q0 -125 -79.5 -231.5t-239.5 -106.5zM299 774q0 -270 123 -270q113 0 113 270q0 266 -113 266q-117 0 -123 -266z" />
<glyph unicode="&#x2039;" horiz-adv-x="522" d="M449 786l-156 -327q-14 -29 0 -60l156 -333q-16 -33 -46 -31l-311 356q-31 37 0 74l311 352q36 -8 46 -31z" />
<glyph unicode="&#x203a;" horiz-adv-x="522" d="M229 459l-155 327q10 23 45 31l311 -352q31 -37 0 -74l-311 -356q-29 -2 -45 31l155 333q14 31 0 60z" />
<glyph unicode="&#x2044;" horiz-adv-x="204" d="M530 1290l-757 -1372q-29 -6 -57.5 8.5t-39.5 40.5l758 1372q27 4 58.5 -10t37.5 -39z" />
<glyph unicode="&#x2215;" horiz-adv-x="204" d="M530 1290l-757 -1372q-29 -6 -57.5 8.5t-39.5 40.5l758 1372q27 4 58.5 -10t37.5 -39z" />
<glyph unicode="&#x205f;" horiz-adv-x="458" />
<glyph unicode="&#x2070;" d="M410 1460q166 0 253 -123t87 -286q0 -166 -87.5 -288t-253 -122t-251.5 122t-86 288q0 164 87 286.5t251 122.5zM410 1391q-59 0 -83 -108.5t-24 -231.5q0 -121 23.5 -230.5t83.5 -109.5q33 0 55 36.5t33.5 94t15.5 108.5t4 101q0 51 -4 102t-15.5 108.5t-33.5 93.5 t-55 36z" />
<glyph unicode="&#x2074;" d="M410 811v29q0 27 -4.5 32t-26.5 5h-313q-23 12 -15 47l443 579q20 25 41 25h59q10 0 15 -6t3 -16.5t-12 -22.5l-401 -506q-2 -20 30 -23h150q20 0 25.5 6.5t5.5 28.5v154q0 35 36 45q123 37 168 37q23 0 23 -21v-215q0 -23 5 -29t26 -6h90q16 -6 16 -37.5t-16 -39.5h-90 q-23 0 -27 -5.5t-4 -31.5v-29q0 -61 11 -79.5t63 -22.5l26 -2q10 -8 10.5 -28t-12.5 -28q-160 4 -229 4q-98 0 -217 -4q-12 6 -13.5 26.5t9.5 29.5l41 2q61 2 72.5 18t11.5 84z" />
<glyph unicode="&#x2075;" d="M276 1427l375 39q12 -2 15 -20q-20 -102 -84 -148l-287 -32q-31 -4 -33 -21l-4 -12q-4 -14 6 -22.5t33 -12.5q57 -8 102 -17.5t104.5 -31t99.5 -50t67.5 -75.5t27.5 -106q0 -115 -93 -195t-217 -110.5t-263 -32.5q-20 8 -22.5 34.5t14.5 40.5q59 0 116.5 8.5t121 28 t101.5 62.5t36 104q-2 145 -316 174q-33 4 -42 16.5t-1 47.5l82 293q6 20 18 27t43 11z" />
<glyph unicode="&#x2076;" d="M322 981q0 -113 33.5 -191.5t93.5 -78.5q86 0 86 131q0 82 -29 146.5t-78 76.5q-20 6 -57 2q-14 16 -9 41q53 53 146 53q113 0 178.5 -70.5t65.5 -168.5q0 -127 -90.5 -204t-241.5 -77q-166 0 -253 91t-87 251q0 205 168 360q76 72 198.5 118t264.5 46q12 -8 12 -27.5 t-10 -27.5q-195 -45 -295 -160q-96 -114 -96 -311z" />
<glyph unicode="&#x2077;" d="M295 1446h254q160 0 194 4q10 -2 11 -23q-16 -29 -59.5 -93t-69.5 -109l-385 -635q-27 -8 -50.5 7t-33.5 44l327 524q39 63 39 95q0 18 -39 18h-221q-53 0 -85 -16.5t-50 -61.5q-8 -12 -32.5 -6t-28.5 18q43 106 65 238q78 -4 164 -4z" />
<glyph unicode="&#x2078;" d="M399 641q-139 0 -225 51t-86 158q0 66 47 118t119 70q-139 76 -139 191q0 102 77.5 166.5t225.5 64.5q133 0 207.5 -53t74.5 -154q0 -59 -42 -102t-93 -66q166 -88 166 -227q0 -94 -85 -155.5t-247 -61.5zM346 993q-68 -55 -67 -137q0 -59 37.5 -102t99.5 -43 q49 0 79.5 27.5t30.5 72.5q0 121 -180 182zM471 1137q57 51 57 120q0 59 -35.5 96.5t-80.5 37.5q-47 0 -78 -29t-31 -78q0 -84 168 -147z" />
<glyph unicode="&#x2079;" d="M309 942q-104 0 -170.5 61.5t-66.5 163.5q0 131 91 212t230 81q168 0 257 -93t89 -241q0 -162 -92 -285.5t-229 -186t-297 -74.5q-16 4 -20.5 28.5t10.5 34.5q188 49 287.5 176t99.5 305q0 111 -28 189t-83 78q-47 0 -72.5 -42t-25.5 -110q0 -70 32.5 -135.5t84.5 -73.5 h28q10 -4 13.5 -19.5t-3.5 -23.5q-59 -45 -135 -45z" />
<glyph unicode="&#x207d;" horiz-adv-x="491" d="M74 1040q0 174 92 315.5t256 217.5q14 -2 23.5 -14.5t5.5 -26.5q-178 -203 -178.5 -491.5t178.5 -491.5q4 -14 -5.5 -26.5t-23.5 -14.5q-164 76 -256 217t-92 315z" />
<glyph unicode="&#x207e;" horiz-adv-x="491" d="M418 1040q0 -174 -92.5 -315t-255.5 -217q-14 2 -23.5 14.5t-5.5 26.5q178 203 178 491.5t-178 491.5q-4 14 5 26.5t24 14.5q164 -76 256 -217.5t92 -315.5z" />
<glyph unicode="&#x207f;" horiz-adv-x="919" d="M362 1008v-228q0 -70 25 -75l23 -5q14 -6 13 -30.5t-15 -28.5q-55 4 -170 4q-106 0 -177 -4q-14 4 -14 27.5t10 31.5l35 5q33 4 42 25.5t9 90.5v207q0 47 -6 64.5t-35 33.5l-18 11q-10 8 -9 24.5t11 24.5q141 31 254 80q23 0 27 -17q-4 -53 -5 -63q0 -12 15 -15 q115 74 194 74q102 0 153.5 -53t51.5 -143v-228q0 -70 9.5 -92t39.5 -24l37 -5q10 -4 9 -29.5t-11 -29.5q-74 4 -186 4q-106 0 -162 -4q-14 4 -16 27.5t10 31.5l22 5q29 6 29 75v238q0 53 -25.5 86t-70.5 33q-47 0 -80 -33q-19 -18 -19 -96z" />
<glyph unicode="&#x2080;" d="M410 467q166 0 253 -123t87 -287q0 -166 -87.5 -287.5t-253 -121.5t-251.5 121.5t-86 287.5q0 164 87 287t251 123zM410 397q-59 0 -83 -108.5t-24 -231.5q0 -121 23.5 -230.5t83.5 -109.5q33 0 55 37t33.5 94.5t15.5 108.5t4 100q0 51 -4 102.5t-15.5 109t-33.5 93 t-55 35.5z" />
<glyph unicode="&#x2081;" d="M307 -139v327q0 59 -11 82t-54 29l-64 8q-12 8 -12 28.5t12 29.5q203 27 342 102q20 0 25 -16q-6 -104 -6 -181v-409q0 -63 2 -84t15 -36t44 -20l62 -8q10 -8 8 -28.5t-13 -26.5q-152 4 -235 4q-82 0 -234 -4q-10 6 -12 26.5t8 28.5l62 8q45 6 53 30t8 110z" />
<glyph unicode="&#x2082;" d="M430 -338h-197q-88 0 -133 -4q-23 12 -14 39q102 80 207 186q154 162 153 324q0 63 -32.5 102t-87.5 39q-98 0 -166 -121q-16 -12 -37 -0.5t-21 35.5q51 100 136.5 152.5t181.5 52.5q131 0 203.5 -63.5t72.5 -165.5q0 -147 -200 -297l-64 -47l-51 -44q-14 -14 -9 -24 t25 -10h127q78 0 113 12t59 57q29 10 47 -8q-25 -133 -79 -219q-111 4 -234 4z" />
<glyph unicode="&#x2083;" d="M238 -418q-59 0 -107.5 28t-48.5 81q0 31 21.5 57.5t66.5 26.5q12 0 23.5 -4t19.5 -10.5l18.5 -15.5t14.5 -15l11 -18q7 -11 9 -13q23 -35 60 -35q53 -2 103 54.5t50 160.5q0 78 -36.5 125t-96.5 47q-80 0 -137 -51q-29 6 -38 31.5t5 42.5q51 18 78 30.5t78 40t75.5 61.5 t24.5 73q0 37 -24.5 59t-67.5 22q-84 0 -152 -102q-18 -8 -35.5 4t-15.5 31q43 82 122 128t169 46q98 0 160.5 -43t62.5 -109q0 -49 -32.5 -85.5t-124.5 -73.5q-18 -8 6 -17q4 -2 10 -2q92 -10 153.5 -58t61.5 -142q0 -152 -170 -259q-151 -96 -317 -96z" />
<glyph unicode="&#x2084;" d="M410 -182v28q0 27 -4.5 32t-26.5 5h-313q-23 12 -15 47l443 580q20 25 41 25h59q10 0 15 -6.5t3 -16.5t-12 -23l-401 -505q-2 -20 30 -23h150q20 0 25.5 6t5.5 29v154q0 35 36 45q123 37 168 36q23 0 23 -20v-215q0 -23 5 -29t26 -6h90q16 -6 16 -36.5t-16 -41.5h-90 q-23 0 -27 -5t-4 -32v-28q0 -61 11 -80t63 -23l26 -2q10 -8 10.5 -27.5t-12.5 -27.5q-160 4 -229 4q-98 0 -217 -4q-12 6 -13.5 26.5t9.5 28.5l41 2q61 2 72.5 18.5t11.5 84.5z" />
<glyph unicode="&#x2085;" d="M276 434l375 39q12 -2 15 -20q-20 -102 -84 -148l-287 -33q-31 -4 -33 -20l-4 -12q-4 -14 6 -22.5t33 -12.5q57 -8 102 -17.5t104.5 -31t99.5 -50t67.5 -75.5t27.5 -107q0 -115 -93 -194.5t-217 -110.5t-263 -33q-20 8 -22.5 35t14.5 41q59 0 116.5 8t121 27.5 t101.5 62.5t36 105q-2 145 -316 174q-33 4 -42 16.5t-1 46.5l82 293q6 20 18 27.5t43 11.5z" />
<glyph unicode="&#x2086;" d="M322 -12q0 -113 33.5 -192t93.5 -79q86 0 86 131q0 82 -29 146.5t-78 77.5q-20 6 -57 2q-14 16 -9 41q53 53 146 53q113 0 178.5 -70.5t65.5 -169.5q0 -127 -90.5 -203.5t-241.5 -76.5q-166 0 -253 91t-87 251q0 205 168 360q76 72 198.5 118t264.5 46q12 -8 12 -27.5 t-10 -27.5q-195 -45 -295 -160q-96 -114 -96 -311z" />
<glyph unicode="&#x2087;" d="M295 453h254q160 0 194 4q10 -2 11 -23q-16 -29 -59.5 -93.5t-69.5 -109.5l-385 -634q-27 -8 -50.5 7t-33.5 44l327 524q39 63 39 94q0 18 -39 19h-221q-53 0 -85 -16.5t-50 -61.5q-8 -12 -32.5 -6t-28.5 18q43 106 65 238q78 -4 164 -4z" />
<glyph unicode="&#x2088;" d="M399 -352q-139 0 -225 51t-86 158q0 66 47 118t119 70q-139 76 -139 191q0 102 77.5 166.5t225.5 64.5q133 0 207.5 -53.5t74.5 -153.5q0 -59 -42 -102t-93 -66q166 -88 166 -227q0 -94 -85 -155.5t-247 -61.5zM346 0q-68 -55 -67 -137q0 -59 37.5 -102.5t99.5 -43.5 q49 0 79.5 28t30.5 73q0 121 -180 182zM471 143q57 49 57 121q0 59 -35.5 96t-80.5 37q-47 0 -78 -28.5t-31 -77.5q0 -85 168 -148z" />
<glyph unicode="&#x2089;" d="M309 -51q-104 0 -170.5 61.5t-66.5 163.5q0 131 91 212t230 81q168 0 257 -93t89 -241q0 -162 -92 -285.5t-229 -186t-297 -75.5q-16 4 -20.5 29t10.5 35q188 49 287.5 176t99.5 305q0 111 -28 188.5t-83 77.5q-47 0 -72.5 -42t-25.5 -109q0 -70 32.5 -135.5t84.5 -73.5 h28q10 -4 13.5 -19.5t-3.5 -23.5q-59 -45 -135 -45z" />
<glyph unicode="&#x208d;" horiz-adv-x="491" d="M74 57q0 174 92 315.5t256 217.5q14 -2 23.5 -14.5t5.5 -26.5q-178 -203 -178.5 -491.5t178.5 -491.5q4 -14 -5.5 -26.5t-23.5 -14.5q-164 76 -256 217t-92 315z" />
<glyph unicode="&#x208e;" horiz-adv-x="491" d="M418 57q0 -174 -92.5 -315t-255.5 -217q-14 2 -23.5 14t-5.5 27q178 203 178 491.5t-178 491.5q-4 14 5 26.5t24 14.5q164 -76 256 -217.5t92 -315.5z" />
<glyph unicode="&#x20a1;" horiz-adv-x="1044" d="M412 190l192 789q-106 -23 -192 -143.5t-86 -321.5q0 -211 86 -324zM680 983l-209 -850q41 -29 90 -41l219 879q-43 8 -100 12zM897 1155l-27 -115q43 -14 88 -18q4 -12 15.5 -95t19.5 -114q-16 -12 -35.5 -12t-27.5 12q-45 92 -84 121l-211 -854q119 0 192.5 43 t130.5 129q14 12 33 9t25 -17q-14 -96 -68 -197q-143 -57 -293 -57q-27 0 -39 2l-28 -111q-12 -8 -38 -8t-38 8l29 117q-57 8 -99 20l-30 -137q-14 -8 -39 -8t-39 8l39 156q-324 127 -324 487q0 231 162 378t414 159l22 94q10 8 37 8t37 -8l-23 -94q43 0 101 -8l26 102 q10 8 37 8t35 -8z" />
<glyph unicode="&#x20a3;" horiz-adv-x="1064" d="M53 430h144v574q0 133 -16.5 166.5t-82.5 43.5l-39 7q-14 8 -13 34.5t17 32.5q123 -6 273 -6h401q221 0 262 6q0 -172 5 -262q-6 -14 -31 -16t-39 8q-25 66 -62 110q-53 66 -190 66h-152q-47 0 -55 -11.5t-8 -68.5v-280q0 -41 7 -49.5t46 -8.5h152q76 0 100.5 15.5 t42.5 72.5l8 25q10 14 38 13t38 -13q-6 -66 -6 -168q0 -74 6 -162q-10 -12 -37.5 -13t-38.5 11l-14 45q-14 43 -39 56.5t-98 13.5h-152q-37 0 -45 -9.5t-8 -48.5v-184h352q12 -8 12 -39t-12 -53h-352v-57q0 -94 7 -134.5t25.5 -54.5t65.5 -20l72 -11q10 -8 10 -32.5 t-10 -34.5q-178 6 -301 6q-127 0 -303 -6q-10 10 -10 34.5t10 32.5l65 11q66 10 82.5 42.5t16.5 166.5v57h-144q-12 10 -12 47t12 45z" />
<glyph unicode="&#x20a4;" horiz-adv-x="1064" d="M27 772h163q29 0 29 33q-2 221 144.5 363.5t359.5 142.5q88 0 133 -31q25 -23 25 -68q0 -43 -27 -79.5t-47 -36.5q-27 0 -49 20q-98 80 -160 80q-20 0 -39.5 -22.5t-37 -84t-17.5 -151.5q0 -98 8 -135q4 -20 12 -25.5t35 -5.5h262q12 -16 8 -45t-18 -47h-250 q-29 0 -37 -5t-8 -24v-47q0 -20 8 -25.5t37 -5.5h254q12 -16 8 -44.5t-18 -47.5h-273q-18 0 -32 -30q-47 -119 -201 -195l2 -4q74 10 141 -2q68 -8 203 -78q115 -59 195 -59q43 0 46 24.5t-24 85.5q-20 53 0.5 81t57.5 28q39 0 70.5 -31t31.5 -96q0 -96 -100.5 -191.5 t-227.5 -95.5q-98 0 -237 88q-158 98 -232 98q-35 0 -53 -24.5t-22 -52.5q-4 -18 -57.5 -37t-78.5 -19q-39 0 -39 37q0 53 103 133q137 111 143 330q0 25 -31 25h-174q-12 12 -10 42.5t21 49.5h172q14 0 19 6t5 27v34q0 25 -30 25h-177q-12 12 -9.5 43t20.5 49z" />
<glyph unicode="&#x20a7;" horiz-adv-x="1064" d="M403 944h308q-14 106 -75 180t-153 74q-53 0 -66.5 -19.5t-13.5 -84.5v-150zM-39 944h172v10q0 158 -13.5 196t-76.5 46l-63 8q-14 8 -13.5 34t17.5 36q244 18 442 18q190 0 319 -49q207 -78 236 -299h80q16 -10 16 -47t-16 -45h-78q-6 -86 -42 -153.5t-82 -103.5 t-104.5 -59.5t-99.5 -29.5t-73 -6q-43 0 -66 2q-12 8 -14 26.5t8 28.5q111 35 155 107.5t48 187.5h-310v-557q0 -141 17.5 -176t87.5 -45l65 -11q16 -8 16.5 -33.5t-16.5 -35.5q-172 6 -290 6q-141 0 -308 -6q-16 10 -18 35.5t14 33.5l58 11q70 12 87 47t17 174v557h-172 q-14 8 -14 45t14 47z" />
<glyph unicode="&#x20ac;" horiz-adv-x="1189" d="M129 682h74q45 182 205.5 295t384.5 113q111 0 235 -29q37 -8 47 -10q2 -10 5 -52.5t7.5 -93.5t12.5 -96q-8 -16 -32 -19.5t-34 7.5q-25 82 -88 139t-168 57q-106 0 -190 -78.5t-107 -232.5h592q10 -25 4 -54.5t-22 -37.5h-584q-2 -14 -2 -53t2 -54h545q12 -8 5 -46 t-24 -46h-516q23 -154 105 -236.5t200 -82.5q156 0 279 184q12 12 33.5 6t27.5 -29q-37 -160 -82 -221q-12 -2 -35.5 -8t-33.5 -8q-94 -25 -213 -25q-246 0 -393.5 111t-175.5 309h-123q-14 10 -3 46t23 46h94q-4 18 -2 54t6 53h-79q-16 8 -7 46t27 46z" />
<glyph unicode="&#x2113;" horiz-adv-x="890" d="M193 524v342q0 238 96 379t270 141q113 0 176.5 -71.5t63.5 -198.5q0 -270 -336 -547v-233q0 -233 110 -234q47 0 86 33t91 121q8 14 38.5 -4.5t30.5 -34.5q-92 -246 -344 -246q-154 0 -218 101.5t-64 300.5v35q-82 -59 -123 -86q-16 0 -37 26.5t-17 38.5q66 47 177 137z M463 1036v-338q209 190 209 414q0 78 -31 133t-94 55q-35 0 -59.5 -68.5t-24.5 -195.5z" />
<glyph unicode="&#x2122;" horiz-adv-x="1257" d="M233 1073v199q0 18 -3 21t-19 3h-16q-66 0 -93 -71q-4 -10 -21.5 -8t-19.5 14q16 104 29 145q4 8 16.5 8t14.5 -8q14 -16 23.5 -20t39.5 -4h260q37 0 62 24q4 8 15 8t16 -8q-14 -63 -11 -151q-2 -14 -19.5 -14.5t-19.5 10.5q-8 39 -25.5 57t-53.5 18h-27q-12 0 -14 -3 t-2 -21v-205q0 -51 6 -68.5t30 -21.5l33 -6q6 -4 5 -21.5t-7 -19.5q-45 2 -147 2q-82 0 -119 -2q-6 2 -6 17.5t4 23.5l33 6q23 4 29.5 25.5t6.5 70.5zM1063 1028l-4 201q0 20 -4 22q-2 0 -39 -88l-39 -90q-47 -111 -57 -143q-33 -10 -52 2q-4 14 -47 123l-47 112 q-41 92 -47 97q-2 -6 -8 -107v-125q2 -35 9 -46t32 -13l18 -2q4 -4 4 -18.5t-4 -22.5q-20 2 -96 2q-74 0 -96 -2q-4 2 -5 18.5t3 22.5l12 2q49 8 51 49q18 170 19 229q0 51 -50 58l-16 4q-12 4 -11 21.5t13 19.5q18 0 45 -1t37 -1q61 0 135 2q0 -25 47 -115l39 -76 q16 -31 25 -30q10 0 24 24l35 76q31 66 47 121q63 -2 99 -2q78 0 102 2q8 -2 9 -20.5t-7 -20.5l-20 -4q-25 -4 -32 -14.5t-7 -34.5q0 -135 6 -222q2 -35 7 -45t21 -14l31 -8q8 -4 8 -20.5t-8 -20.5q-29 2 -125 2q-82 0 -112 -2q-4 4 -5.5 20.5t5.5 20.5l30 8q16 4 20.5 13 t4.5 36z" />
<glyph unicode="&#x212e;" horiz-adv-x="1658" d="M1577 627h-1210q-10 0 -11 -11v-364q0 -23 17 -43q186 -197 458 -197q141 0 266.5 58.5t215.5 162.5h108q-104 -121 -258.5 -191.5t-333.5 -70.5q-309 0 -528 197t-219 475.5t219 476t528.5 197.5t528.5 -197.5t219 -476.5v-16zM1303 674v368q0 25 -19 43 q-186 190 -453 191q-268 0 -456 -195q-18 -18 -19 -47v-360q0 -10 11 -10h927q9 0 9 10z" />
<glyph unicode="&#x2153;" horiz-adv-x="1720" d="M242 705v327q0 59 -11.5 82t-54.5 29l-63 8q-12 8 -12.5 28.5t12.5 28.5q203 27 342 103q20 0 24 -17q-6 -104 -6 -180v-409q0 -63 2 -84t15.5 -36.5t44.5 -19.5l61 -8q10 -8 8 -28.5t-12 -26.5q-152 4 -236 4q-82 0 -233 -4q-10 6 -12 26.5t8 28.5l61 8q45 6 53.5 30 t8.5 110zM1255 1290l-757 -1372q-29 -6 -57.5 8.5t-39.5 40.5l758 1372q27 4 58.5 -10t37.5 -39zM1133 -80q-59 0 -107.5 27.5t-48.5 81.5q0 31 21.5 57.5t66.5 26.5q12 0 23.5 -4.5t19.5 -10.5t18.5 -15t14.5 -15l11 -18q7 -11 9 -13q23 -35 60 -35q53 -2 103 54.5 t50 160.5q0 78 -37 125t-96 47q-80 0 -137 -51q-29 6 -38 31.5t5 42.5q51 18 78 30.5t78 40t75.5 61.5t24.5 72q0 37 -24.5 59.5t-67.5 22.5q-84 0 -152 -102q-18 -8 -35.5 4t-15.5 31q43 82 122 128t169 46q98 0 160.5 -43t62.5 -109q0 -49 -32.5 -86t-124.5 -73 q-18 -8 6 -17q4 -2 10 -2q92 -10 153.5 -58t61.5 -143q0 -152 -170 -258q-151 -96 -317 -96z" />
<glyph unicode="&#x2154;" horiz-adv-x="1720" d="M403 506h-196q-88 0 -133 -4q-23 12 -15 39q102 80 207 186q154 162 154 324q0 63 -33 102t-88 39q-98 0 -166 -121q-14 -12 -35.5 -1t-21.5 36q51 100 136 152.5t181 52.5q131 0 204 -63.5t73 -166.5q0 -147 -201 -297l-63 -47l-52 -43q-14 -14 -9 -24.5t26 -10.5h127 q78 0 112.5 12.5t59.5 57.5q29 10 47 -8q-25 -133 -80 -219q-111 4 -234 4zM1325 1290l-758 -1372q-29 -6 -57.5 8.5t-38.5 40.5l758 1372q27 4 58.5 -10t37.5 -39zM1178 -80q-59 0 -107.5 27.5t-48.5 81.5q0 31 21.5 57.5t66.5 26.5q12 0 23.5 -4.5t19.5 -10.5t18.5 -15 t14.5 -15l11 -18q7 -11 9 -13q23 -35 60 -35q53 -2 103 54.5t50 160.5q0 78 -36.5 125t-96.5 47q-80 0 -137 -51q-29 6 -38 31.5t5 42.5q51 18 78 30.5t78 40t75.5 61.5t24.5 72q0 37 -24.5 59.5t-67.5 22.5q-84 0 -152 -102q-18 -8 -35.5 4t-15.5 31q43 82 122 128t169 46 q98 0 160.5 -43t62.5 -109q0 -49 -32.5 -86t-124.5 -73q-18 -8 6 -17q4 -2 10 -2q92 -10 153.5 -58t61.5 -143q0 -152 -170 -258q-151 -96 -317 -96z" />
<glyph unicode="&#x215b;" horiz-adv-x="1720" d="M1294 -14q-139 0 -225 51t-86 158q0 66 47 118t119 70q-139 76 -139 190q0 102 77.5 167t225.5 65q133 0 207.5 -53.5t74.5 -153.5q0 -59 -42 -102t-93 -66q166 -88 166 -227q0 -94 -85 -155.5t-247 -61.5zM1241 338q-68 -55 -67 -137q0 -59 37.5 -102.5t99.5 -43.5 q49 0 79.5 28t30.5 73q0 121 -180 182zM1366 481q57 51 57 121q0 59 -35.5 96t-80.5 37q-47 0 -78 -28.5t-31 -77.5q0 -85 168 -148zM236 705v327q0 59 -11.5 82t-54.5 29l-64 8q-12 8 -12 28.5t12 28.5q203 27 343 103q20 0 24 -17q-6 -104 -6 -180v-409q0 -63 2 -84 t15.5 -36.5t43.5 -19.5l62 -8q10 -8 8 -28.5t-12 -26.5q-152 4 -236 4q-82 0 -233 -4q-10 6 -12.5 26.5t8.5 28.5l61 8q45 6 53.5 30t8.5 110zM1243 1290l-758 -1372q-29 -6 -57.5 8.5t-38.5 40.5l758 1372q27 4 58.5 -10t37.5 -39z" />
<glyph unicode="&#x215c;" horiz-adv-x="1720" d="M1337 -14q-139 0 -225 51t-86 158q0 66 47 118t119 70q-139 76 -139 190q0 102 77.5 167t225.5 65q133 0 207.5 -53.5t74.5 -153.5q0 -59 -42 -102t-93 -66q166 -88 166 -227q0 -94 -85 -155.5t-247 -61.5zM1284 338q-68 -55 -67 -137q0 -59 37.5 -102.5t99.5 -43.5 q49 0 79.5 28t30.5 73q0 121 -180 182zM1409 481q57 51 57 121q0 59 -35.5 96t-80.5 37q-47 0 -78 -28.5t-31 -77.5q0 -85 168 -148zM209 426q-59 0 -107.5 27.5t-48.5 81.5q0 31 21.5 57t66.5 26q12 0 23.5 -4t20 -10t18.5 -15t14 -16l11 -17q7 -11 10 -13q23 -35 59 -35 q53 -2 103.5 54t50.5 161q0 78 -37 125t-97 47q-80 0 -137 -51q-29 6 -38 31.5t5 42.5q51 18 78 30.5t78 40t75.5 61t24.5 72.5q0 37 -24.5 59.5t-67.5 22.5q-84 0 -151 -102q-18 -8 -36 4t-15 31q43 82 121.5 128t168.5 46q98 0 161 -43t63 -109q0 -49 -33 -86t-125 -74 q-18 -8 6 -16q4 -2 10 -2q92 -10 153.5 -58.5t61.5 -142.5q0 -152 -170 -258q-151 -96 -317 -96zM1286 1290l-758 -1372q-29 -6 -57.5 8.5t-38.5 40.5l758 1372q27 4 58.5 -10t37.5 -39z" />
<glyph unicode="&#x215d;" horiz-adv-x="1720" d="M1307 -14q-139 0 -225.5 51t-86.5 158q0 66 47.5 118t118.5 70q-139 76 -139 190q0 102 78 167t225 65q133 0 208 -53.5t75 -153.5q0 -59 -42 -102t-93 -66q166 -88 165 -227q0 -94 -84.5 -155.5t-246.5 -61.5zM1253 338q-68 -55 -67 -137q0 -59 38 -102.5t99 -43.5 q49 0 80 28t31 73q-1 121 -181 182zM1378 481q57 51 58 121q0 59 -36 96t-81 37q-47 0 -78 -28.5t-31 -77.5q0 -85 168 -148zM258 1278l375 39q12 -2 14 -21q-20 -102 -84 -147l-287 -33q-31 -4 -32 -20l-4 -13q-4 -14 6 -22t33 -12q57 -8 102 -17.5t104.5 -31t99.5 -50 t67.5 -76t27.5 -106.5q0 -115 -93 -194.5t-217 -110.5t-264 -33q-20 8 -22 35t14 41q59 0 116.5 8t121 27.5t101.5 62.5t36 105q-2 145 -315 174q-33 4 -42.5 16t-0.5 47l82 293q6 20 18 27.5t43 11.5zM1255 1290l-757 -1372q-29 -6 -57.5 8.5t-39.5 40.5l758 1372 q27 4 58.5 -10t37.5 -39z" />
<glyph unicode="&#x215e;" horiz-adv-x="1720" d="M1311 -14q-139 0 -225.5 51t-86.5 158q0 66 47.5 118t118.5 70q-139 76 -139 190q0 102 78 167t225 65q133 0 208 -53.5t75 -153.5q0 -59 -42 -102t-93 -66q166 -88 165 -227q0 -94 -84.5 -155.5t-246.5 -61.5zM1257 338q-68 -55 -67 -137q0 -59 38 -102.5t99 -43.5 q49 0 80 28t31 73q-1 121 -181 182zM1382 481q57 51 58 121q0 59 -36 96t-81 37q-47 0 -78 -28.5t-31 -77.5q0 -85 168 -148zM309 1296h254q160 0 195 4q10 -2 10 -22q-16 -29 -59 -93.5t-70 -109.5l-385 -635q-27 -8 -50.5 7.5t-33.5 44.5l328 524q39 63 39 94q0 18 -39 18 h-222q-53 0 -84.5 -16t-50.5 -61q-8 -12 -32.5 -6t-28.5 18q43 106 65 237q78 -4 164 -4zM1196 1290l-758 -1372q-29 -6 -57.5 8.5t-38.5 40.5l758 1372q27 4 58.5 -10t37.5 -39z" />
<glyph unicode="&#x2202;" horiz-adv-x="1122" d="M520 854q166 0 266 -131q18 72 21 195q4 180 -57.5 292.5t-200.5 112.5q-80 0 -279 -109q-37 -20 -58.5 7.5t-21.5 85.5q0 80 70 112q82 43 195 43q186 0 322 -111.5t199.5 -276.5t63.5 -353q0 -256 -108 -465q-63 -123 -174 -204t-256 -81q-190 0 -305 119t-115 297 q0 190 124 328.5t314 138.5zM573 733q-90 0 -148 -125t-58 -282q0 -119 33.5 -189.5t95.5 -70.5q57 0 105 55t80 145t51.5 174t31.5 168q-29 45 -80.5 85t-110.5 40z" />
<glyph unicode="&#x220f;" horiz-adv-x="1652" d="M1020 1339h-387q-74 0 -88.5 -9t-14.5 -56v-1194q0 -111 10.5 -157t30 -59.5t72.5 -19.5l47 -6q10 -10 9 -36.5t-13 -32.5q-135 6 -328 6q-141 0 -276 -6q-12 6 -13 32.5t9 36.5l45 6q55 6 74.5 19.5t30 59.5t10.5 157v1059q0 104 -10.5 148t-30 57.5t-74.5 19.5l-45 6 q-10 10 -9 37t13 33q135 -6 272 -6h944q137 0 273 6q12 -6 13 -33t-9 -37l-45 -6q-55 -6 -74.5 -19.5t-30 -57.5t-10.5 -148v-1069q0 -104 10.5 -148.5t30 -58t74.5 -19.5l45 -6q10 -18 9 -40.5t-13 -28.5q-135 6 -273 6q-197 0 -331 -6q-12 6 -13.5 32.5t9.5 36.5l45 6 q53 6 73.5 21.5t30.5 59.5t10 145v1204q0 47 -14 56t-88 9z" />
<glyph unicode="&#x2211;" horiz-adv-x="1433" d="M1229 1434l12 -314q-4 -14 -37 -14t-37 14q-23 59 -39 90t-54 66t-100.5 49t-158.5 14h-369l449 -659q31 -43 2 -74l-516 -594h629q123 0 177 29t107 133q8 18 42 13t38 -33l-80 -394q-10 0 -63 7.5t-80 7.5h-940q-57 0 -131 -4q-8 0 -13.5 13t-4.5 31.5t10 28.5l553 648 q23 29 2 59l-543 817q-10 16 -3 43t19 27q49 -4 201 -4h928z" />
<glyph unicode="&#x2212;" horiz-adv-x="1064" d="M944 362h-821v148h821v-148z" />
<glyph unicode="&#x221a;" horiz-adv-x="1124" d="M80 848l-39 82l352 180l346 -690l224 1409l110 -12l-313 -1942l-524 1045z" />
<glyph unicode="&#x221e;" horiz-adv-x="1609" d="M391 881q47 0 92 -11.5t75 -22.5t73 -42t59.5 -45.5t61.5 -57.5t57 -53q72 72 121 113t130 80t157 39q123 0 217 -97.5t94 -236.5q0 -152 -90 -246t-238 -94q-59 0 -115.5 17.5t-101.5 48t-75.5 55t-62.5 58.5t-38 38l-37 -39q-37 -39 -63.5 -60.5t-73.5 -53t-104.5 -48 t-118.5 -16.5q-152 0 -240 100.5t-88 245.5q0 141 92 234.5t217 93.5zM418 731q-84 0 -132 -58.5t-48 -119.5q0 -96 54 -152.5t130 -56.5q125 0 297 180q-4 4 -24 26l-25 29q-6 7 -25.5 26.5t-30 27.5t-29 24.5t-31.5 24.5l-32 19q-18 11 -33.5 16.5t-34 9.5t-36.5 4z M1192 729q-39 0 -85 -22.5t-70.5 -42t-76 -65.5t-57.5 -52q4 -6 26.5 -29.5t30 -32t29 -30t32.5 -29.5t31.5 -24.5t34.5 -23.5l34 -17q19 -9 39 -12t40 -3q68 0 120 53.5t52 137.5q0 76 -49 134t-131 58z" />
<glyph unicode="&#x222b;" d="M242 799v131q0 270 100 465q47 92 124 144t163 52q51 0 87 -27.5t36 -76.5t-30 -77t-69 -28q-57 0 -108 45q-57 51 -62 -18q-2 -23 9.5 -123t23.5 -278.5t10 -372.5l-2 -236q-2 -338 -114.5 -520t-288.5 -182q-59 0 -99 29.5t-40 78.5q0 76 55 105q74 39 149 -43 q66 -68 80 35q6 35 4 90q-28 557 -28 807z" />
<glyph unicode="&#x2248;" horiz-adv-x="1064" d="M891 774l90 -106q-170 -207 -375 -138l-172 60q-27 10 -51.5 14t-44 2t-36.5 -4t-32 -11l-24 -16q-10 -6 -22.5 -17t-16.5 -16l-14 -18l-9 -12l-100 94q156 227 377 150l182 -64q127 -45 248 82zM887 391l94 -112q-84 -98 -189.5 -130t-185.5 5l-172 61q-27 10 -51.5 14 t-44 3t-36.5 -3t-32 -11l-24 -15q-10 -6 -22.5 -17.5t-16.5 -16.5l-14 -17l-9 -13l-100 94q156 225 377 148l182 -66q55 -20 123 0.5t121 75.5z" />
<glyph unicode="&#x2260;" horiz-adv-x="1064" d="M123 659h471l125 189l139 -49l-92 -140h178v-147h-274l-99 -147h373v-148h-471l-143 -217l-140 49l111 168h-178v148h276l99 147h-375v147z" />
<glyph unicode="&#x2264;" horiz-adv-x="1064" d="M944 0h-821v147h821v-147zM135 709l797 364v-170l-586 -252v-4l586 -254v-168l-797 363v121z" />
<glyph unicode="&#x2265;" horiz-adv-x="1064" d="M944 0h-821v147h821v-147zM135 1073l797 -364v-121l-797 -363v168l586 254v4l-586 252v170z" />
<glyph unicode="&#x25ca;" horiz-adv-x="1196" d="M682 -92h-168l-422 788l422 768h168l422 -768zM915 696l-319 586l-315 -586l315 -604z" />
<glyph unicode="&#xe000;" horiz-adv-x="825" d="M0 825h825v-825h-825v825z" />
<glyph unicode="&#xe001;" horiz-adv-x="1189" d="M129 682h74q45 182 205.5 295t384.5 113q111 0 235 -29q37 -8 47 -10q2 -10 5 -52.5t7.5 -93.5t12.5 -96q-8 -16 -32 -19.5t-34 7.5q-25 82 -88 139t-168 57q-106 0 -190 -78.5t-107 -232.5h592q10 -25 4 -54.5t-22 -37.5h-584q-2 -14 -2 -53t2 -54h545q12 -8 5 -46 t-24 -46h-516q23 -154 105 -236.5t200 -82.5q156 0 279 184q12 12 33.5 6t27.5 -29q-37 -160 -82 -221q-12 -2 -35.5 -8t-33.5 -8q-94 -25 -213 -25q-246 0 -393.5 111t-175.5 309h-123q-14 10 -3 46t23 46h94q-4 18 -2 54t6 53h-79q-16 8 -7 46t27 46z" />
<glyph unicode="&#xe004;" horiz-adv-x="2260" d="M543 295v903q0 39 -7.5 49t-41.5 10h-148q-104 0 -152.5 -51t-101.5 -180q-18 -10 -42.5 -5t-33.5 23q18 63 31.5 128t24 134.5t12.5 86.5q14 10 29 10q18 0 28 -8q8 -29 35 -36t137 -7h803q180 0 195 28v21l237 63q23 0 35 -14q-6 -127 -6 -299v-377q0 -25 14 -24 q6 0 33 16q121 82 236 82q123 0 190.5 -73t67.5 -185v-352q0 -106 13 -134t69 -34l32 -4q12 -8 12.5 -36t-14.5 -36q-96 6 -248 6q-154 0 -221 -6q-14 8 -14 35.5t12 36.5l37 6q37 6 46 28.5t9 106.5v354q0 59 -35.5 98t-107.5 39q-80 0 -115 -49q-16 -18 -16 -76v-366 q0 -84 9 -106.5t46 -28.5l37 -6q12 -8 12 -36t-14 -36q-94 6 -227 6q-135 0 -240 -6q-14 8 -14 35.5t12 36.5l37 4q51 6 63.5 33.5t12.5 134.5v852q0 98 -49.5 132.5t-217.5 34.5h-153q-37 0 -46 -10t-9 -49v-903q0 -141 17 -175t87 -44l82 -10q10 -8 10 -35t-10 -37 q-199 6 -328 6q-133 0 -348 -6q-12 10 -12 36.5t12 35.5l92 10q70 8 87.5 43t17.5 176zM651 -92q61 0 116.5 -52.5t55.5 -150.5q0 -119 -74.5 -190.5t-193.5 -96.5q-20 2 -25.5 31t9.5 37q51 18 95 58t44 87q0 78 -90 103q-49 14 -49 71q0 43 32.5 73t79.5 30z" />
<glyph unicode="&#xe007;" horiz-adv-x="1740" d="M184 358q0 158 100.5 287t284.5 158q-2 127 -46 213t-115 86q-47 0 -60 -64q-2 -8 -10 -16q-20 -10 -39 -10q-39 0 -63.5 23.5t-24.5 62.5q0 41 34 72.5t89 31.5q135 0 225 -123t96 -268h4q145 0 252 -74l4 4q-127 106 -127 232q0 66 55.5 110.5t137.5 44.5q12 0 60.5 -3 t62.5 -3q53 0 101 33t48 98q0 51 -53 95q-12 10 -7 17t17 5q78 -12 134.5 -74.5t56.5 -152.5q0 -72 -40 -125t-82 -79t-144 -75l-37 -18q-76 -37 -76 -105q0 -16 8 -32q80 94 201 94q96 0 207 -98q78 -72 133 -72q78 0 121 76q6 10 14 11t10 -9q4 -12 4 -39 q0 -96 -78.5 -185.5t-193.5 -89.5q-70 0 -132.5 29t-148.5 115l-63 58q-16 15 -43 30.5t-49 15.5q-20 -14 -21 -47q0 -10 2 -21.5t8 -25.5l11 -24q4 -9 16 -27.5l17.5 -27.5t21.5 -31.5l23 -32.5q61 -90 81.5 -130t20.5 -90q0 -70 -56.5 -129t-123.5 -59q-14 0 -35 4 q-29 6 -4 25q57 37 57 84q0 39 -24.5 63.5t-116.5 79.5q-154 94 -154 221q0 61 48 119.5t120 93.5q-94 49 -223 49q-20 0 -27 -2q-12 -168 -110.5 -272.5t-245.5 -130.5q4 -66 29.5 -112t52.5 -60q18 -10 70 -10q4 -2 5 -10.5t-1 -12.5q-74 -70 -140 -70q-27 0 -51 31 q-78 98 -78 268zM295 381q127 37 199 135q59 86 73 209q-123 -25 -196 -115q-74 -92 -76 -229z" />
<glyph unicode="&#xe008;" horiz-adv-x="2336" d="M578 117q-217 -6 -356.5 151.5t-139.5 364.5q0 240 144.5 377t295.5 137q109 0 205 -61.5t96 -174.5q0 -70 -46 -112.5t-99 -42.5q-68 -2 -114 35.5t-46 91.5q0 27 14.5 46t55.5 48q37 35 37 61q0 51 -133 47q-106 -2 -191.5 -91t-85.5 -185q0 -39 7 -73t24.5 -59.5 t34 -46t44.5 -37.5l46 -29q18 -11 51 -21l46 -15q13 -4 45 -11t36 -9q98 -27 98 -113q0 -57 -16 -92q-18 -43 -18.5 -71.5t57.5 -28.5q170 0 407 338q-31 39 -35 92q-2 57 40 101t100 46q31 0 57 -10q141 201 257 287t280 90q201 4 340 -141.5t139 -376.5q0 -238 -128 -373 t-296 -139q-111 -2 -198 51t-87 149q0 63 43 112.5t103 49.5q76 0 109.5 -41t33.5 -88q0 -43 -29 -67q-27 -20 -26 -50q0 -18 23.5 -35.5t62.5 -15.5q88 2 178 78t90 209q0 127 -54.5 182.5t-205.5 98.5q-158 43 -158 124q0 25 21 97q12 45 12 61q0 33 -55 33 q-100 -2 -190.5 -88t-205.5 -250q31 -35 35 -88q2 -61 -40 -104t-103 -48q-29 0 -51 9q-133 -182 -262 -277.5t-299 -101.5z" />
<glyph unicode="&#xe009;" horiz-adv-x="1193" d="M610 1419q98 2 149.5 -55t51.5 -127q0 -92 -66 -172q-35 -35 -34 -61q0 -8 9 -17.5t21 -9.5q4 0 29 13.5t63.5 26.5t79.5 13q74 2 136.5 -48t62.5 -151q0 -74 -46 -141t-153 -69q-127 -4 -198 108q-25 35 -53 35q-8 0 -27 -25.5t-33 -68.5t-14 -80q4 -123 225 -254 q186 -109 188 -258q2 -98 -75.5 -182t-200.5 -84q-127 0 -319 155q-90 76 -136 72q-53 0 -100 -115q-33 0 -33 29q16 94 64.5 137t99.5 45q25 0 49.5 -5t42 -11t43.5 -24l40 -26q13 -9 47 -36t48 -37q129 -94 213 -94q49 0 83 36.5t34 94.5q0 16 -3 32.5t-13.5 33 t-16.5 27.5t-23.5 26.5t-23.5 22.5t-29.5 22.5t-28.5 19.5t-31.5 20.5t-29.5 18.5q-213 135 -213 262q0 82 54 172q25 39 24 58q0 14 -20 14q-25 0 -51 -33q-20 -27 -85 -66.5t-122 -41.5q-102 -2 -154.5 62.5t-52.5 143.5q0 100 61.5 149.5t143.5 51.5q33 0 66.5 -8 t57 -16.5t27.5 -8.5q12 0 20.5 11.5t8.5 19.5q0 14 -34 72.5t-34 118.5q0 90 57.5 145t153.5 57zM582 1010q-41 0 -68 -31t-27 -70t29 -66.5t66 -27.5q43 0 70.5 27.5t27.5 70.5q0 37 -28.5 67t-69.5 30z" />
<glyph unicode="&#xefed;" horiz-adv-x="778" d="M391 1458q-57 0 -95 33t-40 92q0 59 39 98t96 39q55 0 92 -36.5t37 -88.5q0 -61 -37 -99t-92 -38z" />
<glyph unicode="&#xefee;" horiz-adv-x="778" d="M389 1475q-139 0 -211 76.5t-63 215.5q31 16 59 0q16 -66 77.5 -106.5t137.5 -40.5t137.5 41t77.5 106q29 16 60 0q8 -139 -64 -215.5t-211 -76.5z" />
<glyph unicode="&#xeff1;" horiz-adv-x="778" d="M459 20h90q-186 -154 -187 -280q0 -47 31 -78t80 -31q55 0 92 29q18 -6 19 -37q-66 -100 -195 -100q-98 0 -141 48t-43 118q0 161 254 331z" />
<glyph unicode="&#xeff2;" horiz-adv-x="778" d="M444 0h109l-78 -106q-12 -16 -8 -23.5t27 -20.5q125 -68 124 -174q0 -82 -77.5 -136t-182.5 -54q-158 0 -157 90q0 29 18.5 48.5t46.5 19.5q31 0 75 -38t65 -38q18 0 35.5 14.5t17.5 36.5q0 82 -156 148l-6 16z" />
<glyph unicode="&#xeff3;" horiz-adv-x="778" d="M389 1411q-94 0 -152.5 60.5t-58.5 142.5q0 80 58.5 140.5t152.5 60.5t152.5 -60.5t58.5 -140.5q0 -82 -58.5 -142.5t-152.5 -60.5zM389 1489q43 0 67.5 36t24.5 89t-24.5 90t-67.5 39q-43 -2 -67.5 -39t-24.5 -90t24.5 -89t67.5 -36z" />
<glyph unicode="&#xeff5;" horiz-adv-x="778" d="M465 1528h-100q-72 0 -110 -23.5t-75 -87.5q-14 -6 -37.5 -3t-29.5 16q31 121 88 188q49 57 131 57h121q55 0 88.5 18.5t56.5 78.5q53 12 68 -11q-23 -106 -72 -176q-41 -57 -129 -57z" />
<glyph unicode="&#xeff7;" horiz-adv-x="778" d="M662 1446l-248 102q-35 20 -68 2l-246 -104q-14 0 -24 16.5t-4 32.5l260 244q47 47 96 0l260 -244q6 -16 -4 -31.5t-22 -17.5z" />
<glyph unicode="&#xf628;" horiz-adv-x="2437" d="M2019.5 -25q-159.5 0 -239.5 105.5t-80 232.5t80 232.5t239.5 105.5t239.5 -105.5t80 -232.5t-80 -232.5t-239.5 -105.5zM1903 315q0 -270 120 -270q113 0 113 270q0 266 -113 267q-120 -1 -120 -267zM1306.5 -25q-159.5 0 -239.5 105.5t-80 232.5t80 232.5t239.5 105.5 t239.5 -105.5t80 -232.5t-80 -232.5t-239.5 -105.5zM1190 315q0 -270 121 -270q113 0 112 270q0 266 -112 267q-121 -1 -121 -267zM545 -74q-27 -4 -52.5 8.5t-33.5 32.5l708 1168q25 4 52.5 -8.5t35.5 -34.5zM418 434q-147 0 -233.5 95.5t-86.5 242.5q0 127 80 232.5 t240 105.5t239.5 -105.5t79.5 -232.5q0 -125 -79.5 -231.5t-239.5 -106.5zM299 774q0 -270 123 -270q113 0 113 270q0 266 -113 266q-117 0 -123 -266z" />
<glyph unicode="&#xf629;" d="M426 186l82 490q-2 2 -14 2q-90 0 -135.5 -80t-45.5 -176q0 -173 113 -236zM584 649l-84 -489q25 -6 51 -6q57 0 110.5 31.5t77.5 76.5q16 2 30.5 -8t14.5 -25q-94 -182 -305 -188l-26 -158q-10 -16 -39 -16t-39 16l26 160q-147 16 -235 107.5t-88 224.5q0 178 129 277.5 t313 101.5l23 127q10 14 38.5 14t41.5 -14l-23 -131q72 -6 119 -23q41 -31 41 -94q0 -33 -15.5 -57.5t-33.5 -24.5q-10 0 -23 6l-31 31l-37 37q-17 16 -34 28q-2 0 -2 -4z" />
<glyph unicode="&#xf62a;" d="M440 311l-37 -233q68 0 108 30.5t40 79.5q0 82 -111 123zM395 528l31 201q-147 -2 -147 -102q-1 -64 116 -99zM504 717l-33 -213l14 -4q260 -76 260 -252q0 -115 -94 -179.5t-260 -68.5l-20 -127q-8 -10 -39 -10t-39 10l20 133q-63 6 -118.5 23.5t-73.5 33.5 q-47 63 -47 218q6 16 27.5 19t35.5 -11q16 -66 64.5 -124.5t124.5 -78.5l39 248q-260 70 -261 229q0 111 87.5 174.5t246.5 67.5l15 96q8 14 39.5 14t39.5 -14l-14 -100q31 -2 84 -13.5t80 -13.5q27 -63 25 -205q-6 -14 -28 -15t-32 13q-8 37 -45 83.5t-98 66.5z" />
<glyph unicode="&#xf62b;" horiz-adv-x="573" d="M502 344h-428q-23 16 -23 67.5t23 63.5h428q23 -12 23 -63.5t-23 -67.5z" />
<glyph unicode="&#xf62c;" horiz-adv-x="491" d="M74 395q0 174 92 315.5t256 217.5q14 -2 23.5 -14.5t5.5 -26.5q-178 -203 -178.5 -492t178.5 -491q4 -14 -5.5 -26.5t-23.5 -14.5q-164 76 -256 217t-92 315z" />
<glyph unicode="&#xf62d;" horiz-adv-x="491" d="M418 395q0 -174 -92.5 -315t-255.5 -217q-14 2 -23.5 14t-5.5 27q178 203 178 491.5t-178 491.5q-4 14 5 26.5t24 14.5q164 -76 256 -217.5t92 -315.5z" />
<glyph unicode="&#xf62e;" d="M426 692l82 490q-2 2 -14 2q-90 0 -135.5 -80t-45.5 -176q0 -173 113 -236zM584 1155l-84 -489q25 -6 51 -7q57 0 110.5 32t77.5 77q16 2 30.5 -8t14.5 -25q-94 -182 -305 -188l-26 -158q-10 -16 -39 -16t-39 16l26 160q-147 16 -235 107.5t-88 224.5q0 178 129 277 t313 102l23 126q10 14 38.5 14.5t41.5 -14.5l-23 -131q72 -6 119 -22q41 -31 41 -94q0 -33 -15.5 -57.5t-33.5 -24.5q-10 0 -23 6l-31 31l-37 36q-17 16 -34 29q-2 0 -2 -4z" />
<glyph unicode="&#xf62f;" d="M440 817l-37 -233q68 0 108 30.5t40 79.5q0 82 -111 123zM395 1034l31 201q-147 -2 -147 -102q-1 -64 116 -99zM504 1223l-33 -213l14 -4q260 -76 260 -252q0 -115 -94 -179.5t-260 -68.5l-20 -127q-8 -10 -39 -10t-39 10l20 133q-63 6 -118.5 23.5t-73.5 33.5 q-47 63 -47 217q6 16 27.5 19.5t35.5 -10.5q16 -66 64.5 -124.5t124.5 -78.5l39 248q-260 70 -261 229q0 111 87.5 174.5t246.5 67.5l15 96q8 14 39.5 14t39.5 -14l-14 -100q31 -2 84 -13.5t80 -13.5q27 -63 25 -205q-6 -14 -28 -15t-32 13q-8 37 -45 83.5t-98 66.5z" />
<glyph unicode="&#xf630;" horiz-adv-x="573" d="M502 850h-428q-23 16 -23 67.5t23 63.5h428q23 -12 23 -63.5t-23 -67.5z" />
<glyph unicode="&#xf631;" horiz-adv-x="491" d="M74 901q0 174 92 315.5t256 217.5q14 -2 23.5 -14.5t5.5 -26.5q-178 -203 -178.5 -492t178.5 -491q4 -14 -5.5 -26.5t-23.5 -14.5q-164 76 -256 217t-92 315z" />
<glyph unicode="&#xf632;" horiz-adv-x="491" d="M418 901q0 -174 -92.5 -315.5t-255.5 -216.5q-14 2 -23.5 14t-5.5 27q178 203 178 491.5t-178 491.5q-4 14 5 26.5t24 14.5q164 -76 256 -217.5t92 -315.5z" />
<glyph unicode="&#xf633;" horiz-adv-x="1574" d="M903 1384q279 0 439.5 -160.5t160.5 -392.5q0 -207 -145.5 -339t-396.5 -132q-53 0 -87 11.5t-42.5 24t-8.5 22.5q0 14 19 65l43 113l-4 2q-78 -94 -192 -166t-179 -72q-43 0 -66.5 27t-23.5 64q0 39 39 129t116 190q82 102 190.5 178t213.5 76q53 0 70 -33l49 92 q20 4 32 4q70 0 109 -28q-10 -29 -113.5 -269.5t-117.5 -277.5q-14 -39 -8 -54.5t36 -15.5q135 0 247 106.5t112 278.5q0 207 -141.5 336t-350.5 129q-274 0 -450.5 -203.5t-176.5 -482.5q0 -72 16.5 -142.5t57.5 -145t103.5 -130t164 -91.5t230.5 -36q150 0 315 68 q14 -6 21.5 -28.5t-2.5 -37.5q-172 -94 -400 -94q-139 0 -262 40t-222 116t-157.5 201t-58.5 282q0 346 241.5 561t579.5 215zM776 561q59 55 133 170t92 174q-20 51 -61 51q-29 0 -100 -63q-78 -70 -142.5 -195t-64.5 -186q0 -29 20 -29q39 0 123 78z" />
<glyph unicode="&#xf634;" horiz-adv-x="512" d="M233 -113q72 0 126.5 -52t54.5 -157q0 -123 -77 -197.5t-202 -98.5q-20 2 -26.5 30.5t8.5 36.5q53 20 99 64.5t46 91.5q0 76 -94 98q-51 16 -51 80q0 43 34.5 73.5t81.5 30.5z" />
<glyph unicode="&#xf637;" horiz-adv-x="901" d="M352 1384v-190q0 -25 6 -25q2 0 27 13q104 63 188 63q88 0 140.5 -52t52.5 -128v-250q0 -76 10 -96.5t55 -22.5l27 -2q10 -6 9 -25.5t-11 -25.5q-102 4 -203 4q-86 0 -159 -4q-12 6 -12.5 25.5t10.5 25.5l30 4q14 4 19.5 21.5t5.5 73.5v249q0 41 -26.5 70t-76.5 29 q-47 0 -79 -33q-12 -14 -13 -57v-258q0 -55 5 -73t20 -22l31 -4q8 -6 7 -25.5t-9 -25.5q-106 4 -168 4q-80 0 -195 -4q-10 6 -11 25.5t9 25.5l31 2q41 2 51 22.5t10 96.5v551q0 47 -5 64.5t-26 27.5l-28 15q-8 8 -8 25.5t8 25.5q80 16 256 80q16 0 26 -11q-4 -59 -4 -209z " />
<glyph unicode="&#xf638;" horiz-adv-x="1064" d="M782 1225l64 118l84 -49l-78 -143q154 -186 154 -510q0 -174 -47.5 -320.5t-158 -248t-268 -101.5t-268.5 99l-65 -123l-78 57l76 141q-137 188 -138 496q0 168 47.5 315.5t158 251t267.5 103.5q141 0 250 -86zM356 420l322 633q-51 164 -146 164q-51 0 -91 -62.5 t-60.5 -156t-30.5 -180.5t-10 -156q0 -33 3 -70l7 -87q4 -50 6 -85zM707 899l-328 -639q53 -195 153 -194q57 0 99.5 61t61 160.5t25.5 184.5t7 169q0 137 -18 258z" />
<glyph unicode="&#xf639;" horiz-adv-x="1105" d="M553 905q213 0 346 -133t133 -333.5t-133 -334t-346 -133.5t-346 133.5t-133 334t133 333.5t346 133zM301 438.5q0 -143.5 70.5 -229.5t181.5 -86t181.5 86t70.5 229.5t-70.5 229.5t-181.5 86t-181.5 -86t-70.5 -229.5z" />
<glyph unicode="&#xf63a;" horiz-adv-x="995" d="M502 186h168q113 0 170 18.5t100 92.5q39 20 70 -14q-27 -55 -70 -157.5t-57 -131.5q-160 6 -254 6h-320q-174 0 -225 -6q-27 14 -14 47q109 66 264 213q154 145 153 301q0 84 -42 132t-113 48q-119 0 -215 -166q-20 -6 -40 7.5t-22 35.5q61 137 169 215t241 78 q150 0 234.5 -77.5t84.5 -202.5q0 -51 -18 -97.5t-60 -93.5t-73 -75.5t-91 -78.5l-83 -69q2 -25 43 -25z" />
</font>
</defs>
</svg>
