<?xml version="1.0" standalone="no"?>
<!DOCTYPE svg PUBLIC "-//W3C//DTD SVG 1.1//EN" "http://www.w3.org/Graphics/SVG/1.1/DTD/svg11.dtd" >
<svg xmlns="http://www.w3.org/2000/svg">
<metadata>
This is a custom SVG webfont generated by Font Squirrel.
Copyright   : Copyright  2000 2001 Adobe Systems Incorporated All Rights Reserved US Patent Des 318290 and 327903
Designer    : Robert Slimbach
Foundry URL : httpwwwadobecomtype
</metadata>
<defs>
<font id="webfonthmC7cYYC" horiz-adv-x="737" >
<font-face units-per-em="2048" ascent="1485" descent="-563" />
<missing-glyph horiz-adv-x="512" />
<glyph unicode="Th" horiz-adv-x="2037" d="M627 1352h850q100 0 110 22l21 43q78 45 139 47l8 -12l-147 -418l-211 -612l4 -4q152 213 323 338q111 80 195 80q63 0 93 -39t30 -99q0 -98 -48 -232t-112 -247q-45 -80 -133 -168q-80 -80 -150 -80q-76 0 -75 60q0 25 17.5 45t37.5 20q14 0 29 -12q35 -27 53 -27 q39 0 82 103q49 119 98 284.5t49 243.5q0 61 -43 62q-41 0 -110 -56q-125 -94 -260 -272q-96 -127 -248 -426q-12 -25 -37 -25q-16 0 -30.5 3t-26 16.5t-2.5 34.5l364 1099q39 96 18.5 130t-153.5 34h-223q-47 0 -59.5 -12t-35.5 -78l-299 -903q-49 -143 -43.5 -190.5 t80.5 -53.5l76 -6q12 -10 10 -27.5t-18 -23.5q-154 6 -262 6q-104 0 -250 -6q-12 8 -12 25.5t10 25.5l72 6q70 6 101.5 48t82.5 196l301 903q20 68 13 79t-58 11h-164q-143 0 -202.5 -35.5t-141.5 -148.5q-14 -6 -28.5 0t-18.5 20q92 145 147 275q6 8 19.5 8t19.5 -8 q-4 -29 26 -38t122 -9z" />
<glyph unicode="&#x164;h" horiz-adv-x="2037" d="M627 1352h850q104 0 114 22l21 43q72 43 135 47l8 -12l-147 -418l-211 -612l4 -4q152 213 323 338q111 80 195 80q63 0 93 -39t30 -99q0 -98 -48 -232t-112 -247q-45 -80 -133 -168q-80 -80 -150 -80q-76 0 -75 60q0 25 17.5 45t37.5 20q14 0 29 -12q35 -27 53 -27 q39 0 82 103q49 119 98 284.5t49 243.5q0 61 -43 62q-41 0 -110 -56q-125 -94 -260 -272q-96 -127 -248 -426q-12 -25 -37 -25q-16 0 -30.5 3t-26 16.5t-2.5 34.5l364 1099q39 96 18.5 130t-153.5 34h-223q-47 0 -59.5 -12t-35.5 -78l-299 -903q-49 -143 -43.5 -190.5 t80.5 -53.5l76 -6q12 -10 10 -27.5t-18 -23.5q-154 6 -262 6q-104 0 -250 -6q-12 8 -12 25.5t10 25.5l72 6q70 6 101.5 48t82.5 196l301 903q20 68 13 79t-58 11h-164q-143 0 -202.5 -35.5t-141.5 -148.5q-14 -6 -28.5 0t-18.5 20q92 145 147 275q6 8 19.5 8t19.5 -8 q-4 -29 26 -38t122 -9zM1341 1686l-282 -222q-29 -18 -47 -18q-20 0 -35 18l-180 222q-2 12 9 22t23 14l175 -129q18 -14 34 -14q12 0 33 10l252 133q10 0 15 -12t3 -24z" />
<glyph unicode="ffj" horiz-adv-x="1527" d="M821 731h-350l-24 -80q-17 -59 -23 -82q-20 -68 -86 -309.5t-107 -370.5q-78 -260 -161 -335q-104 -104 -234 -105q-63 0 -98 36t-35 69q0 41 39 73q31 27 59 -18q47 -76 123 -76t129 170q55 180 139 526t132 502h-168q-16 14 -13.5 38t23.5 38h180q88 303 205 440 q139 168 326 168q82 0 134 -34.5t46 -98.5l4 -4q164 186 366 186q98 0 161 -45t63 -116q0 -43 -31 -66t-66 -23q-59 0 -59 52q0 137 -104 137q-102 0 -197 -117q-92 -117 -205 -479h195q78 0 172 14.5t100 14.5q59 0 17 -109q-8 -35 -87 -297q-127 -424 -186 -573 q-147 -358 -369 -359q-68 0 -102.5 35t-34.5 76q0 29 19.5 54.5t46.5 25.5q14 0 24 -21q51 -88 117 -88q57 0 103 103q80 193 221 661l40 130l38 125q14 48 18 69q4 39 -7 51t-65 12h-280l-98 -346q-79 -279 -126 -430q-84 -272 -163 -352q-104 -104 -234 -105q-63 0 -98 36 t-35 69q0 41 39 73q31 27 59 -18q47 -76 123 -76q80 0 131 187q47 166 130 496.5t124 465.5zM489 807h353q70 231 157 389q-6 70 -50 114t-99 44q-119 0 -205 -148q-80 -137 -156 -399z" />
<glyph unicode="fj" horiz-adv-x="1030" d="M324 731h-170q-14 16 -10.5 40t24.5 36h176q104 348 240 491q158 166 340 166q98 0 160.5 -45t62.5 -116q0 -43 -31 -66t-65 -23q-59 0 -60 52q0 137 -104.5 137t-192.5 -117q-43 -59 -84 -150.5t-61.5 -150.5t-56.5 -178h194q61 0 172 14q82 14 100 15q29 0 29 -32 t-12 -77q-8 -35 -86 -297q-131 -440 -187 -573q-147 -358 -368 -359q-68 0 -102.5 35t-34.5 76q0 29 19.5 54.5t45.5 25.5q14 0 25 -21q51 -88 116 -88q57 0 103 103q74 168 221 661l40 130l38 125q14 48 18 69q8 39 -5 51t-66 12h-281l-24 -80q-17 -59 -23 -82 q-20 -68 -86 -309.5t-107 -370.5q-78 -260 -161 -335q-104 -104 -234 -105q-63 0 -98 36t-35 69q0 45 39 73q31 27 59 -18q47 -76 123 -76t129 170q55 180 139.5 526t131.5 502z" />
<glyph unicode="&#xfb00;" horiz-adv-x="1032" d="M821 731h-350l-24 -80q-17 -59 -23 -82q-20 -68 -86 -309.5t-107 -370.5q-78 -260 -161 -335q-104 -104 -234 -105q-63 0 -98 36t-35 69q0 41 39 73q31 27 59 -18q47 -76 123 -76t129 170q55 180 139 526t132 502h-168q-16 14 -13.5 38t23.5 38h180q88 303 205 440 q139 168 326 168q82 0 134 -34.5t46 -98.5l4 -4q156 186 352 186q68 0 118 -37.5t50 -95.5q0 -82 -72 -123q-20 -10 -31.5 -2t-11.5 29q0 84 -38.5 122t-88.5 38q-80 0 -159 -109q-94 -129 -193 -479h254q12 -16 7 -41t-27 -35h-252l-98 -346q-79 -279 -126 -430 q-84 -272 -163 -352q-104 -104 -234 -105q-63 0 -98 36t-35 69q0 41 39 73q31 27 59 -18q47 -76 123 -76q80 0 131 187q47 166 130 496.5t124 465.5zM489 807h353q70 231 157 389q-6 70 -50 114t-99 44q-119 0 -205 -148q-80 -137 -156 -399z" />
<glyph unicode="&#xfb01;" horiz-adv-x="1030" d="M324 731h-170q-14 16 -10.5 40t24.5 36h176q104 348 240 491q158 166 340 166q98 0 160.5 -45t62.5 -116q0 -43 -31 -66t-65 -23q-59 0 -60 52q0 137 -104.5 137t-192.5 -117q-43 -59 -84 -150.5t-61.5 -150.5t-56.5 -178h194q61 0 172 14q82 14 100 15q59 0 17 -109 l-234 -584q-18 -45 7 -45q27 0 94 47.5t119 104.5q31 -4 30 -35q-31 -57 -160 -150.5t-223 -93.5q-18 0 -33 19q-18 23 -6 55l242 623q16 37 5 50t-64 13h-281l-24 -80q-17 -59 -23 -82q-20 -68 -86 -309.5t-107 -370.5q-78 -260 -161 -335q-104 -104 -234 -105 q-63 0 -98 36t-35 69q0 45 39 73q31 27 59 -18q47 -76 123 -76t129 170q55 180 139.5 526t131.5 502z" />
<glyph unicode="&#xfb02;" horiz-adv-x="1001" d="M170 807h174q98 338 236 496q145 162 321 161q96 0 166 -65q78 51 121 65l14 -12q-35 -92 -125 -352l-327 -967q-23 -68 10 -67q53 0 235 206q33 4 33 -28q-53 -102 -146.5 -187.5t-207.5 -85.5q-78 0 -78 62q0 39 45 174l178 524h-348l-24 -80q-17 -59 -23 -82 q-20 -68 -86 -309.5t-107 -370.5q-78 -260 -161 -335q-104 -104 -234 -105q-63 0 -98 36t-35 69q0 45 39 73q31 27 59 -18q47 -76 123 -76t129 170q55 180 139 526t132 502h-168q-14 14 -10 38t24 38zM492 807h352l145 424q25 72 -10 122t-102 50q-100 0 -181 -107 q-102 -139 -204 -489z" />
<glyph unicode="&#xfb03;" horiz-adv-x="1527" d="M821 731h-350l-24 -80q-17 -59 -23 -82q-20 -68 -86 -309.5t-107 -370.5q-78 -260 -161 -335q-104 -104 -234 -105q-63 0 -98 36t-35 69q0 41 39 73q31 27 59 -18q47 -76 123 -76t129 170q55 180 139 526t132 502h-168q-16 14 -13.5 38t23.5 38h180q88 303 205 440 q139 168 326 168q82 0 134 -34.5t46 -98.5l4 -4q164 186 366 186q98 0 161 -45t63 -116q0 -43 -31 -66t-66 -23q-59 0 -59 52q0 137 -104 137q-102 0 -197 -117q-92 -117 -205 -479h195q78 0 172 14.5t100 14.5q59 0 17 -109l-234 -584q-18 -45 6 -45q27 0 94.5 47.5 t118.5 104.5q31 -4 31 -35q-31 -57 -160 -150.5t-223 -93.5q-16 0 -33 19q-18 23 -6 55l242 623q16 37 5 50t-65 13h-280l-98 -346q-79 -279 -126 -430q-84 -272 -163 -352q-104 -104 -234 -105q-63 0 -98 36t-35 69q0 41 39 73q31 27 59 -18q47 -76 123 -76q80 0 131 187 q47 166 130 496.5t124 465.5zM489 807h353q70 231 157 389q-6 70 -50 114t-99 44q-119 0 -205 -148q-80 -137 -156 -399z" />
<glyph unicode="&#xfb04;" horiz-adv-x="1499" d="M324 731h-168q-16 14 -13.5 38t23.5 38h180q88 303 205 440q139 168 326 168q82 0 134 -34.5t46 -98.5l4 -4q156 186 338 186q96 0 166 -65q78 51 121 65l14 -12q-35 -92 -125 -352l-328 -967q-23 -68 10 -67q53 0 236 206q33 4 33 -28q-53 -102 -146.5 -187.5 t-208.5 -85.5q-78 0 -77 62q0 39 45 174l178 524h-348l-98 -346q-79 -279 -126 -430q-84 -272 -163 -352q-104 -104 -234 -105q-63 0 -98 36t-35 69q0 41 39 73q31 27 59 -18q47 -76 123 -76q80 0 131 187q47 166 130 496.5t124 465.5h-350l-24 -80q-17 -59 -23 -82 q-20 -68 -86 -309.5t-107 -370.5q-78 -260 -161 -335q-104 -104 -234 -105q-63 0 -98 36t-35 69q0 41 39 73q31 27 59 -18q47 -76 123 -76t129 170q55 180 139.5 526t131.5 502zM489 807h353q70 231 157 389q-6 70 -50 114t-99 44q-119 0 -205 -148q-80 -137 -156 -399z M989 807h352l146 424q25 72 -10 122t-103 50q-98 0 -182 -105q-99 -122 -203 -491z" />
<glyph unicode=" "  horiz-adv-x="512" />
<glyph unicode="&#x09;" horiz-adv-x="512" />
<glyph unicode="&#xa0;" horiz-adv-x="512" />
<glyph unicode="!" horiz-adv-x="421" d="M514 1323q57 0 75.5 -17.5t8.5 -48.5l-11 -28l-24 -61l-33 -83l-254 -665q-6 -12 -24.5 -12t-28.5 12l142 661q29 139 41 179q12 41 33.5 52t74.5 11zM174 195q43 0 66.5 -28t23.5 -65q0 -59 -34.5 -95t-82.5 -36q-43 0 -66.5 26t-23.5 71q0 53 36 90t81 37z" />
<glyph unicode="&#x22;" horiz-adv-x="778" d="M565 1405q43 0 56.5 -12.5t9.5 -37t-27 -79.5l-135 -330q-4 -12 -22.5 -12t-24.5 12l37 330q10 88 25 108.5t81 20.5zM889 1405q43 0 56 -12.5t9 -37t-26 -79.5l-135 -330q-4 -12 -22.5 -12t-25.5 12l37 330q10 88 25.5 108.5t81.5 20.5z" />
<glyph unicode="#" horiz-adv-x="921" d="M672 686h-232l-139 -332h234zM971 686h-205l-139 -332h200l-43 -98h-194l-162 -391h-88l158 391h-234l-162 -391h-86l158 391h-223l43 98h217l135 332h-223l47 98h217l143 353h97l-146 -353h232l141 353h98l-145 -353h205z" />
<glyph unicode="$" horiz-adv-x="839" d="M465 520l84 287q-86 0 -141.5 -40t-55.5 -112q0 -86 113 -135zM489 365l-96 -332q6 -2 15 -2q98 0 155.5 45t57.5 117q-1 113 -132 172zM666 971l-31 -111q123 -16 180 -69q16 -70 2 -170q-4 -14 -22.5 -14.5t-24.5 9.5q-33 152 -154 183l-90 -305l23 -9 q98 -37 150.5 -102.5t52.5 -142.5q0 -125 -102.5 -195t-262.5 -70h-10l-39 -129q-12 -8 -34.5 -8t-35.5 8l39 136q-84 12 -146.5 45.5t-84.5 62.5q-27 68 0 203q8 12 24.5 12t22.5 -10q8 -82 58 -155.5t145 -98.5l102 350q-197 76 -197 219q0 111 93.5 180.5t240.5 73.5 l31 107q8 10 33 10t37 -10z" />
<glyph unicode="%" horiz-adv-x="1484" d="M1231 606q68 0 114 -30.5t61 -78.5t18 -103.5t-13 -104.5q-29 -117 -123 -217.5t-223 -100.5t-170 100.5t-12 217.5q31 117 125 217t223 100zM1217 549q-49 0 -94.5 -49t-70 -103.5t-38.5 -107.5q-10 -37 -14.5 -78t-1.5 -84t24.5 -70.5t58.5 -27.5q70 0 124.5 86 t74.5 174q10 37 14 78t2 84t-22 70.5t-57 27.5zM563 1049q68 0 114 -31t61.5 -79t18.5 -103.5t-14 -104.5q-29 -117 -123 -217t-223 -100q-90 0 -140 53t-53 124t9 140q31 117 125 217.5t225 100.5zM547 991q-70 0 -122 -84t-79 -176q-10 -37 -14 -78t-1 -84t23.5 -70.5 t57.5 -27.5q55 0 99 50t64.5 102.5t34.5 107.5q68 260 -63 260zM1307 1034l-955 -1106q-47 0 -49 47l948 1098q20 2 38 -10.5t18 -28.5z" />
<glyph unicode="&#x26;" horiz-adv-x="1576" d="M614 -29q-227 0 -339.5 118t-112.5 292q0 240 196 440q154 160 306 160q23 0 40 -4t28 -10t22.5 -16.5t15.5 -16.5l12 -19q8 -12 11 -14q68 55 156.5 145.5t131.5 147.5q74 94 74 172q0 37 -25 61q-23 23 -22 46q0 39 24.5 61t57.5 22q39 0 66.5 -26.5t27.5 -81.5 q0 -168 -258 -420q-119 -117 -333 -283.5t-394 -289.5v-17q0 -178 110.5 -264t252.5 -86q135 0 273 88t224 246q57 106 82 196.5t29 217.5q-39 35 -107 34q-51 0 -100 -41t-49 -90q0 -8 16 -67q14 -53 14 -58q0 -10 -4 -21t-20 -23.5t-43 -12.5q-35 0 -61.5 21.5t-26.5 60.5 q0 115 139 229q102 84 203 84q27 0 53.5 -7t42.5 -13t46 -27.5t39 -29t46 -41t45 -41.5q6 -4 14.5 -12.5t12.5 -11.5t10 -9t8 -7t7.5 -5.5t8.5 -4.5t8 -2t10 -2h11q16 0 28.5 19.5t12.5 44.5q0 27 -8 51q-8 29 -8 31q0 18 19.5 34.5t45.5 16.5q39 0 57.5 -35t18.5 -80 q0 -57 -39 -96q-10 -12 -53 -20q-86 -10 -154 -52q-29 -18 -49 13q-10 16 -54 63t-87 82q0 -96 -8 -174q-8 -76 -57.5 -201t-151.5 -241q-100 -113 -235.5 -168.5t-256.5 -55.5zM303 532q231 160 334 250q2 18 2 49q0 29 -19.5 46.5t-48.5 17.5q-27 0 -71.5 -28.5 t-85.5 -82.5q-88 -117 -111 -252z" />
<glyph unicode="'" horiz-adv-x="425" d="M555 1405q43 0 56.5 -12.5t9 -37t-26.5 -79.5l-135 -330q-4 -12 -22.5 -12t-24.5 12l37 330q10 88 25 108.5t81 20.5z" />
<glyph unicode="(" horiz-adv-x="655" d="M295 287q0 -381 131 -598q0 -27 -33 -23q-209 217 -209 639q0 492 402 893q139 141 332 242q27 0 26 -29q-219 -152 -350 -334q-299 -417 -299 -790z" />
<glyph unicode=")" horiz-adv-x="655" d="M512 819q0 381 -131 598q0 27 33 23q209 -217 209 -639q0 -492 -402 -893q-139 -141 -332 -242q-27 0 -26 29q219 152 350 334q299 417 299 790z" />
<glyph unicode="*" horiz-adv-x="819" d="M741 1372l-41 -264l279 68q14 -4 18 -19.5t-4 -28.5l-266 -106l191 -211q2 -14 -8.5 -27.5t-24.5 -11.5l-217 189l-80 -256q-33 -14 -49 12l39 264l-279 -74q-12 4 -16 20.5t4 28.5l262 107l-193 213q-2 14 9.5 25.5t25.5 9.5l219 -183l82 254q26 13 49 -10z" />
<glyph unicode="+" horiz-adv-x="1146" d="M696 0h-121v371h-333v100h333v336h121v-336h334v-100h-334v-371z" />
<glyph unicode="," horiz-adv-x="512" d="M182 240q68 0 107 -49.5t39 -112.5q0 -102 -95.5 -181t-214.5 -114q-27 12 -14 41q188 86 189 213q0 63 -68 80q-31 8 -31 45q0 33 25.5 55.5t62.5 22.5z" />
<glyph unicode="-" horiz-adv-x="655" d="M137 471l498 45q16 -20 10 -59t-27 -58l-497 -45q-14 20 -9 59.5t25 57.5z" />
<glyph unicode="." horiz-adv-x="512" d="M211 195q43 0 66.5 -28t23.5 -65q0 -59 -35 -95t-82 -36q-43 0 -66.5 26t-23.5 71q0 53 36 90t81 37z" />
<glyph unicode="/" horiz-adv-x="512" d="M731 1384l-627 -1417h-118l626 1417h119z" />
<glyph unicode="0" horiz-adv-x="847" d="M813 637q0 -141 -55.5 -278.5t-136.5 -233.5q-133 -154 -283 -154q-113 0 -167 74t-54 184q0 129 49 266.5t141 243.5q135 154 291 154q106 0 160.5 -78t54.5 -178zM676 682q0 150 -90 149q-111 0 -219 -243q-113 -256 -113 -432q0 -57 24.5 -90t65.5 -33q80 0 164 123 q63 94 115.5 266t52.5 260z" />
<glyph unicode="1" horiz-adv-x="720" d="M494 51l75 -10q8 -12 6 -27.5t-12 -19.5q-141 6 -293 6q-176 0 -252 -6q-10 4 -10 20.5t12 26.5l66 10q100 14 129 41t55 119l131 448q27 94 18 115t-81 37q-8 0 -12 2l-45 10q-12 8 -8.5 25.5t20.5 21.5q55 -6 246 -6q158 0 241 6q14 -8 14.5 -25.5t-12.5 -21.5l-49 -10 q-106 -23 -133 -48.5t-61 -141.5l-123 -412q-31 -98 -19.5 -123t97.5 -37z" />
<glyph unicode="2" horiz-adv-x="866" d="M451 0h-220q-154 0 -219 -6q-25 12 -10 39q162 98 243 157.5t224 188.5q96 86 127 145.5t31 122.5q0 72 -42 109t-104 37q-109 0 -221 -152q-16 0 -27.5 11.5t-9.5 27.5q135 213 328 213q117 0 177 -62.5t60 -146.5q0 -109 -86 -201q-61 -70 -407 -329q-16 -10 -11 -22.5 t27 -12.5h234q66 0 106.5 24.5t85.5 83.5q35 12 47 -14l-36 -62l-46 -82l-40 -75q-70 4 -105 4q-36 2 -106 2z" />
<glyph unicode="3" horiz-adv-x="774" d="M504 893q98 0 152.5 -48t54.5 -116q0 -178 -291 -309q-47 -23 -33 -35q2 -4 6 -4q90 -10 156.5 -71.5t66.5 -172.5q0 -121 -77.5 -238.5t-221.5 -199.5q-147 -84 -288 -84q-45 0 -63.5 31.5t-18.5 64.5q0 23 37 23q2 0 58 -12.5t93 -12.5q121 0 218.5 102.5t97.5 280.5 q0 66 -16.5 112t-44.5 66.5t-51.5 27.5t-49.5 7q-61 0 -117 -55q-12 -12 -18 -12q-20 6 -27.5 28.5t4.5 38.5q129 72 250 158q172 121 172 242q0 98 -111 98q-84 0 -176 -92q-18 0 -24 13t-2 32q43 53 117.5 95t146.5 42z" />
<glyph unicode="4" horiz-adv-x="993" d="M854 66l-213 -11l-119 -413q-20 -23 -94 -23q-39 0 -51 14l127 420l-481 -16q-20 14 -17 39l531 520l137 132l170 165q31 6 35 -16l-207 -727l211 8q16 -14 7 -46t-36 -46zM176 135l352 12l158 496l-4 4z" />
<glyph unicode="5" horiz-adv-x="679" d="M532 150q0 -139 -90 -262.5t-215 -196t-258 -97.5q-14 8 -18 23.5t6 30.5q186 55 310 162.5t124 250.5q0 102 -38 176t-128 181q-53 66 -49 117q0 55 74 161q78 115 127 138q33 14 168 28q156 20 194 31l9 -14q-37 -121 -105 -129l-127 -17q-102 -12 -160 -31 q-25 -10 -44 -35.5t-19 -54.5q0 -45 100 -159q139 -166 139 -303z" />
<glyph unicode="6" horiz-adv-x="880" d="M123 238q0 188 109.5 402t291.5 364q104 86 216 148t176.5 87t183.5 64q41 -12 20 -50q-152 -55 -270 -135q-72 -47 -115 -79.5t-121.5 -111.5t-158.5 -188l2 -4q78 53 168 53q111 0 167 -69.5t56 -186.5q0 -88 -46 -198.5t-126 -194.5q-158 -164 -311 -168 q-119 -2 -180.5 75t-61.5 192zM272 186q0 -72 28 -111.5t77 -39.5q94 0 184 129q66 94 105 214t39 191q0 68 -36 110t-98 42q-102 0 -188 -117q-47 -66 -79 -180.5t-32 -237.5z" />
<glyph unicode="7" horiz-adv-x="847" d="M297 864h479q88 0 150 6q20 -4 14 -24q-41 -41 -197 -271l-661 -978q-6 -2 -21 -3q-16 0 -27 12.5t-14 28.5l744 1100h-350q-55 0 -94 -19.5t-52.5 -34.5t-40.5 -54q-14 -6 -29.5 2t-19.5 20q96 166 119 215z" />
<glyph unicode="8" horiz-adv-x="856" d="M621 668q139 -207 139 -336q0 -154 -109.5 -257.5t-267.5 -103.5q-70 0 -124 19.5t-84 47.5t-49.5 64.5t-24.5 63.5t-5 51q0 82 63.5 168t114 125t156.5 111q18 14 29 20q-123 172 -123 281q0 143 111.5 246.5t244.5 103.5q115 0 185.5 -60.5t70.5 -167.5 q0 -51 -20.5 -97t-62.5 -88t-75.5 -69.5t-91 -66.5t-77.5 -55zM590 717q119 84 171 159.5t52 172.5q0 57 -34 107t-111 50q-70 0 -132.5 -55t-62.5 -176q0 -106 117 -258zM494 594q-254 -178 -254 -377q0 -78 48 -128t130 -50q96 0 149.5 68.5t53.5 154.5q0 158 -127 332z " />
<glyph unicode="9" horiz-adv-x="843" d="M594 893q102 0 161.5 -70.5t59.5 -218.5q0 -297 -301 -610q-231 -242 -537 -400q-43 6 -22 48q162 104 281.5 217.5t240.5 273.5l-4 4q-61 -31 -121 -31q-94 0 -155.5 66t-61.5 188q0 106 54.5 217t132.5 187q133 129 272 129zM580 831q-78 0 -156 -102 q-63 -84 -101 -208t-38 -212q0 -57 30.5 -100t79.5 -43q92 0 160 100q41 61 81 188.5t40 243.5q0 63 -26.5 98t-69.5 35z" />
<glyph unicode=":" horiz-adv-x="512" d="M391 807q43 0 66.5 -27.5t23.5 -64.5q0 -59 -34.5 -95t-81.5 -36q-43 0 -67 25.5t-24 70.5q0 53 36 90t81 37zM211 195q43 0 66.5 -28t23.5 -65q0 -59 -35 -95t-82 -36q-43 0 -66.5 26t-23.5 71q0 53 36 90t81 37z" />
<glyph unicode=";" horiz-adv-x="512" d="M182 240q68 0 107 -49.5t39 -112.5q0 -102 -95.5 -181t-214.5 -114q-27 12 -14 41q188 86 189 213q0 63 -68 80q-31 8 -31 45q0 33 25.5 55.5t62.5 22.5zM391 807q43 0 66.5 -27.5t23.5 -64.5q0 -59 -34.5 -95t-81.5 -36q-43 0 -67 25.5t-24 70.5q0 53 36 90t81 37z" />
<glyph unicode="&#x3c;" horiz-adv-x="1146" d="M242 465l796 379v-119l-649 -303v-4l649 -305v-117l-796 377v92z" />
<glyph unicode="=" horiz-adv-x="1146" d="M1030 625v-101h-788v101h788zM1030 317v-100h-788v100h788z" />
<glyph unicode="&#x3e;" horiz-adv-x="1146" d="M242 844l796 -379v-92l-796 -377v117l649 305v4l-649 303v119z" />
<glyph unicode="?" horiz-adv-x="614" d="M383 799l127 71q84 47 125 89t41 98q0 66 -43 105.5t-101 39.5q-47 0 -92 -22l-45 -23q-14 0 -26.5 15.5t-12.5 41.5q0 43 42 76t106 33q90 0 164.5 -90t74.5 -201q0 -182 -211 -299l-137 -76q-94 -53 -94 -133q0 -47 18 -98q-12 -23 -32 -10q-90 117 -64 217 q25 92 160 166zM252 195q43 0 66.5 -28t23.5 -65q0 -59 -35 -95t-82 -36q-43 0 -66.5 26t-23.5 71q0 53 36 90t81 37z" />
<glyph unicode="@" horiz-adv-x="1576" d="M1059 666q-53 0 -129 -62q-84 -68 -149.5 -196.5t-65.5 -214.5q0 -27 24 -27q45 0 164 106q70 61 146.5 170t97.5 164q-20 60 -88 60zM1194 692l51 105q23 8 53.5 -0.5t44.5 -24.5q-203 -465 -239 -567q-14 -35 -3 -51.5t50 -14.5q170 6 284.5 119t114.5 299 q0 213 -151.5 342t-382.5 129q-293 0 -471 -209t-178 -504q0 -98 30.5 -191t97 -179t190.5 -139.5t292 -53.5q150 0 317 72q27 -12 17 -39q-166 -104 -396 -104q-131 0 -250.5 38.5t-220 114.5t-160 200t-59.5 279q0 348 240 566.5t569 218.5q281 0 442.5 -157t161.5 -376 q0 -205 -145 -349t-385 -144q-147 0 -147 45q0 20 16 63l51 129l-4 2q-92 -96 -208 -167.5t-179 -71.5q-41 0 -62.5 26.5t-21.5 65.5q0 41 38 130t118 185q211 258 409 258q23 0 45.5 -12.5t30.5 -32.5z" />
<glyph unicode="A" horiz-adv-x="1220" d="M1130 51l54 -6q6 -7 6 -19q0 -24 -14 -32q-94 6 -232 6q-143 0 -235 -6q-14 6 -15.5 25.5t13.5 25.5l63 6q61 6 80 33q16 27 22 127l19 274q4 35 -3 44.5t-40 9.5h-295q-47 0 -61.5 -9.5t-42.5 -54.5l-150 -233q-92 -145 -92 -154q0 -23 47 -31l76 -12q12 -10 10 -27.5 t-14 -23.5q-96 6 -209 6q-117 0 -228 -6q-9 12 -9 24q0 14 14 27l55 6q82 8 147 86q74 90 338 461l361 508q109 152 123 211q31 4 66.5 21.5t59.5 31.5l23 14q25 0 25 -16q0 -14 -3.5 -50t-8.5 -105.5t-9 -145.5l-41 -774q-4 -68 -5 -97.5t2 -62.5t6 -42t19.5 -20.5 t30.5 -13.5t47 -6zM600 621h258q27 0 33 7t8 34l33 448q1 18 1 30q0 24 -5 23q-10 0 -78 -100l-285 -412q-8 -12 -8 -18q0 -4 3 -6q7 -6 40 -6z" />
<glyph unicode="B" horiz-adv-x="1189" d="M274 295l248 805q26 88 26 127q0 14 -3 22q-12 31 -84 33l-68 2q-10 8 -9 24.5t9 24.5q176 25 344 25q213 0 332 -49q174 -74 174 -258q0 -139 -106.5 -221t-212.5 -91q-14 0 -18.5 -5t1.5 -9t17 -8q92 -31 152.5 -113t60.5 -188q0 -158 -111 -266q-156 -156 -491 -156 q-59 0 -145.5 3t-127.5 3q-123 0 -211 -6q-12 8 -12 25.5t10 25.5l41 6q76 10 106.5 50t77.5 194zM530 629l-120 -393q-13 -43 -14 -75q0 -41 23 -64q40 -40 154 -40q150 0 269 96.5t119 286.5q0 123 -89.5 190.5t-214.5 67.5q-76 0 -94.5 -10t-32.5 -59zM717 1229 l-127 -410q-6 -18 -6 -30t6 -18q12 -11 76 -11q61 0 126.5 16.5t132 51t108.5 102t42 160t-67.5 148.5t-190.5 56q-59 0 -72.5 -8t-27.5 -57z" />
<glyph unicode="C" horiz-adv-x="1323" d="M1190 1384q172 0 336 -65q-61 -152 -92 -275q-6 -12 -29 -11t-27 14q12 53 12 95q0 69 -31 111q-50 68 -204 68q-291 0 -524 -229q-92 -92 -167 -260t-75 -353q0 -219 101.5 -333.5t295.5 -114.5q266 0 441 286q39 16 49 -14q-41 -125 -133 -289q-27 0 -162 -22 q-143 -25 -199 -25q-109 0 -204 26.5t-181 86t-137 172.5t-51 266q0 172 81 335t212 281.5t310 184t378 65.5z" />
<glyph unicode="D" horiz-adv-x="1513" d="M272 295l256 829q21 76 21 108q0 9 -1 14q-7 26 -54 32l-82 10q-10 6 -10.5 23.5t10.5 25.5q154 20 381 21q170 0 302 -34t213 -88t132 -129t70.5 -149.5t19.5 -158.5q0 -195 -87 -356.5t-237 -264.5q-270 -184 -684 -184q-23 0 -105.5 3t-150.5 3q-119 0 -225 -6 q-12 8 -12 25.5t10 25.5l53 6q72 8 102.5 49t77.5 195zM711 1214l-305 -981q-12 -38 -12 -66q0 -41 24 -64q41 -38 174 -37q168 0 304 54t218 135t137.5 181.5t76 187.5t20.5 160.5t-6.5 130t-38 132t-86 126t-160 86t-250.5 35.5q-47 0 -63.5 -14.5t-32.5 -65.5z" />
<glyph unicode="E" horiz-adv-x="1159" d="M270 295l238 762q42 127 42 173q0 6 -1 11q-6 41 -86 57l-41 9q-10 12 -7 28.5t19 22.5q74 -4 109 -4q37 -2 119 -2h387q227 0 288 6q-25 -61 -84 -273q-6 -12 -26.5 -11t-24.5 13q8 42 8 75q0 28 -6 47q-12 44 -74 61q-70 18 -217 18h-120q-39 0 -52.5 -11t-27.5 -58 l-131 -420q-14 -43 -10.5 -51.5t46.5 -8.5h103q147 0 197.5 17.5t85.5 83.5l32 61q6 10 27.5 9t23.5 -13q-39 -92 -69 -199q-29 -92 -53 -198q-10 -12 -27.5 -11.5t-24.5 13.5v57q0 76 -39.5 92.5t-171.5 16.5h-102q-43 0 -54 -8.5t-26 -51.5l-84 -276q-31 -102 -38 -141 q-3 -16 -3 -32q0 -25 6 -53q20 -43 228 -43q182 0 263 35t173 178q33 20 47 -12q-16 -55 -60 -144t-81 -126q-35 2 -112 3t-116 1q-41 0 -121.5 1t-119.5 1h-242q-109 0 -244 -6q-12 8 -12 25.5t10 25.5l72 6q74 6 104.5 47t79.5 197z" />
<glyph unicode="F" horiz-adv-x="1091" d="M272 295l240 762q42 127 42 172q0 6 -1 11q-6 40 -88 58l-37 9q-10 12 -7 28.5t19 22.5q18 -2 52 -3t53 -1q16 0 55 -1t62 -1h380q229 0 289 6q-25 -61 -84 -273q-6 -12 -26.5 -11t-24.5 13q8 42 8 75q0 28 -6 47q-12 44 -74 61q-72 18 -217 18h-112q-41 0 -51.5 -10 t-26.5 -59l-142 -449q-10 -33 -5 -42t38 -9h142q145 0 195 17.5t85 82.5l35 64q8 10 29.5 8t23.5 -12q-39 -100 -69 -195q-41 -125 -54 -205q-10 -10 -26.5 -10t-26.5 10l2 78q2 51 -42 70.5t-169 19.5h-151q-33 0 -43.5 -9t-22.5 -48l-90 -295l-25 -85q-8 -30 -13 -60.5 t-3 -45t11.5 -28t25.5 -18.5t43 -7l80 -6q8 -10 5 -27.5t-13 -23.5q-178 6 -279 6q-111 0 -231 -6q-12 8 -12.5 25.5t10.5 25.5l63 6q74 8 104.5 48t79.5 196z" />
<glyph unicode="G" horiz-adv-x="1439" d="M1061 184l53 168q30 87 30 128q0 12 -2 20q-11 35 -102 47l-79 10q-10 8 -9.5 26.5t13.5 24.5q135 -6 245 -6q160 0 234 6q10 -6 10 -24.5t-12 -26.5l-35 -10q-59 -16 -78.5 -45t-58.5 -150l-64 -202q-5 -14 -4 -25q0 -24 21 -37q4 -16 -9 -29q-264 -92 -430 -92 q-272 0 -424.5 141.5t-152.5 391.5q0 162 72.5 329.5t222.5 298.5q293 256 712 256q199 0 351 -65q-57 -123 -97 -272q-6 -12 -26.5 -11.5t-24.5 13.5q10 49 10 88q0 75 -35 118q-54 66 -202 66q-303 0 -537 -219q-113 -104 -189.5 -288.5t-76.5 -356.5q0 -225 115.5 -325.5 t290.5 -100.5q117 0 177 29.5t91 123.5z" />
<glyph unicode="H" horiz-adv-x="1558" d="M641 743h541q70 0 84 6.5t24 38.5l84 269q27 84 35 119q6 25 6 48q0 9 -1 17q-3 31 -22.5 40t-62.5 17l-51 9q-8 10 -5 27.5t17 23.5q127 -6 240 -6q102 0 237 6q12 -6 12.5 -23.5t-12.5 -27.5l-49 -9q-86 -14 -113.5 -51t-76.5 -190l-238 -762q-42 -129 -42 -180 q0 -55 81 -64l55 -6q20 -35 -8 -51q-143 6 -250 6q-111 0 -237 -6q-12 8 -12 24.5t10 26.5l65 6q74 6 104.5 47t80.5 197l98 311q12 41 2 48.5t-76 7.5h-557q-47 0 -56 -7.5t-22 -42.5l-100 -317q-42 -129 -43 -180q0 -55 82 -64l63 -6q8 -12 5 -28.5t-13 -22.5 q-152 6 -258 6q-121 0 -219 -6q-12 8 -12 24.5t10 26.5l47 6q74 10 104.5 49t79.5 195l240 762q27 82 36 118q6 25 6 47q0 10 -1 19q-4 31 -23.5 40t-64.5 17l-49 9q-10 15 -10 26q0 17 22 25q123 -6 238 -6q109 0 237 6q12 -6 12 -22.5t-12 -28.5l-47 -9 q-86 -14 -112.5 -50t-77.5 -191l-84 -264q-12 -35 -4 -42.5t63 -7.5z" />
<glyph unicode="I" horiz-adv-x="698" d="M272 295l240 762q27 82 36 118q6 25 6 47q0 10 -1 19q-4 31 -23.5 40t-64.5 17l-49 9q-10 12 -7 28.5t19 22.5q123 -6 238 -6q98 0 245 6q12 -6 12.5 -24.5t-12.5 -26.5l-55 -9q-86 -14 -113.5 -50t-76.5 -191l-240 -762q-42 -129 -43 -180q0 -55 82 -64l63 -6 q8 -10 5 -27.5t-13 -23.5q-152 6 -258 6q-113 0 -235 -6q-12 8 -12.5 25.5t10.5 25.5l63 6q74 8 104.5 48t79.5 196z" />
<glyph unicode="J" horiz-adv-x="696" d="M285 256l247 801q33 106 39 148q2 11 2 21q0 27 -13 43q-17 22 -75 31l-51 9q-10 12 -7 27.5t19 21.5q127 -6 240 -6q106 0 229 6q12 -6 12.5 -23.5t-12.5 -25.5l-55 -9q-74 -10 -99.5 -48t-74.5 -195l-291 -936q-57 -182 -129 -305q-135 -227 -375 -228q-129 0 -129 60 q0 27 25 57.5t55 30.5q27 0 76 -29q53 -31 98 -31q66 0 134 179q47 116 135 401z" />
<glyph unicode="K" horiz-adv-x="1275" d="M272 295l240 762q27 82 36 118q8 29 7 55v11q-2 31 -20.5 40t-57.5 17l-47 9q-10 12 -7 28.5t19 22.5q98 -6 222 -6q106 0 243 6q12 -6 11.5 -24.5t-17.5 -26.5l-41 -9q-90 -18 -117.5 -53t-76.5 -188l-86 -271q-12 -33 -5 -45t41 -12q47 0 89 21q70 41 215 178l204 194 q133 129 133 152q0 12 -49 24l-39 9q-10 8 -8 27.5t17 23.5q100 -6 225 -6q43 0 221 6q13 -8 13 -24q0 -20 -15 -27l-43 -9q-82 -14 -137 -36q-119 -49 -363 -275l-262 -239q-27 -25 -30 -34t14 -44l225 -451q45 -90 81 -125t105 -43l54 -6q10 -10 8 -28.5t-14 -22.5 q-98 6 -218 6q-115 0 -231 -6q-18 39 6 51l53 6q35 4 45.5 15.5t4 30t-28.5 65.5l-215 422q-47 92 -82 92q-49 0 -68 -58l-100 -323q-42 -129 -43 -180q0 -55 82 -64l57 -6q8 -10 5 -27.5t-13 -23.5q-141 6 -254 6q-111 0 -233 -6q-12 8 -12.5 25.5t10.5 25.5l63 6 q74 8 104.5 48t79.5 196z" />
<glyph unicode="L" horiz-adv-x="1118" d="M664 1057l-226 -725q-44 -120 -44 -180q0 -24 7 -38q25 -50 203 -51q193 0 277 35t172 178q39 12 45 -12q-16 -51 -59.5 -139t-71.5 -131q-152 4 -240 4q-82 2 -233 2h-238q-119 0 -217 -6q-12 8 -12 25.5t10 25.5l49 6q74 10 104.5 49t79.5 195l240 762q27 82 36 118 q6 25 6 47q0 10 -1 19q-4 31 -23.5 40t-64.5 17l-49 9q-10 12 -7 28.5t19 22.5q27 0 73 -2t85 -3t75 -1q49 0 134.5 3t124.5 3q12 -6 12 -24.5t-12 -26.5l-64 -9q-86 -10 -113.5 -46.5t-76.5 -194.5z" />
<glyph unicode="M" horiz-adv-x="1789" d="M393 694l107 277q86 221 86 274q0 39 -58 47l-96 15q-10 8 -7 26.5t17 24.5q143 -6 226 -6q74 0 137 6q-14 -47 -14 -113.5t5 -120t19 -166.5l33 -264q23 -172 45 -375h4q31 37 236 302l325 419q172 221 199 318q51 -6 127 -6q113 0 207 6q9 -7 9 -22q0 -18 -9 -29 l-47 -9q-94 -16 -123 -47q-33 -37 -95 -254l-178 -635q-60 -212 -59 -260q0 -45 82 -51l69 -6q10 -10 7.5 -27.5t-15.5 -23.5q-113 6 -262 6q-133 0 -248 -6q-10 10 -10 27.5t10 23.5l54 6q82 10 112 39q37 37 105 260l163 537q59 190 78 258l-6 2l-190 -250l-312 -403 q-240 -313 -327 -461q-20 -14 -39 8q2 82 -33 418l-70 688h-4q-29 -63 -94 -244l-153 -414q-123 -330 -123 -383q0 -37 61 -47l88 -14q6 -10 4 -26.5t-10 -24.5q-86 6 -236 6q-121 0 -219 -6q-9 7 -9 24q0 22 11 27l56 6q82 8 116 55q41 51 248 588z" />
<glyph unicode="N" horiz-adv-x="1513" d="M317 477l162 524q68 217 68 244q0 35 -53 45l-82 17q-12 10 -9 28.5t19 22.5q16 -2 48 -3t48 -1q14 0 52 -1t61 -1h127v-29q0 -47 100 -297l207 -510q84 -201 100 -231q16 0 35 57l162 514q98 311 98 379q0 31 -9 42t-42 17l-80 13q-8 14 -4 29.5t16 21.5q109 -6 232 -6 q106 0 194 6q9 -7 10 -28q0 -15 -8 -23l-47 -9q-84 -14 -106 -36q-53 -53 -168 -412l-148 -459q-70 -215 -129 -422q-13 -13 -36 -13q-6 0 -13 1q-57 178 -190 500l-162 393l-50 127t-51.5 129l-35.5 82q-10 0 -66 -180l-159 -533q-27 -88 -86 -340q-8 -33 5 -50t32.5 -23.5 t62.5 -10.5l47 -6q8 -10 6 -26.5t-12 -24.5q-92 6 -234 6q-119 0 -215 -6q-13 8 -12 28q0 13 8 23l51 6q63 6 101 35q46 35 155 391z" />
<glyph unicode="O" horiz-adv-x="1495" d="M1036 1384q215 0 357 -145q130 -134 130 -373q0 -21 -1 -43q-8 -174 -83 -347t-194 -286q-236 -223 -536 -223q-246 0 -376 160q-124 153 -124 355v20q4 197 87 380t241 316q218 186 499 186zM1028 1321q-164 0 -307 -123q-127 -106 -229.5 -317t-110.5 -457 q0 -12 -1 -23q0 -151 76 -257q81 -114 267 -113q188 0 342 164q131 141 204.5 339.5t80.5 378.5q1 17 0 33q0 169 -79 267q-87 108 -243 108z" />
<glyph unicode="P" horiz-adv-x="1130" d="M485 1276l-98 8q-10 10 -8 24.5t14 24.5q152 25 344 25q285 0 406 -101q113 -96 112 -253q0 -190 -174 -314q-152 -104 -379 -104q-12 4 -14 18t8 25q63 8 126 33.5t124.5 71.5t99 125t37.5 177q0 129 -74.5 193.5t-201.5 64.5q-47 0 -60.5 -11t-29.5 -60l-289 -928 q-42 -129 -42 -180q0 -57 81 -64l74 -6q8 -10 5 -27.5t-14 -23.5q-147 6 -268 6q-113 0 -235 -6q-12 8 -12.5 25.5t10.5 25.5l63 6q74 8 104.5 48t79.5 196l265 848q17 51 16 79q0 13 -3 22q-12 28 -67 32z" />
<glyph unicode="Q" horiz-adv-x="1495" d="M1036 1384q215 0 357 -145q130 -134 130 -373q0 -21 -1 -43q-8 -174 -83 -347t-194 -286q-162 -154 -336 -194q-20 -12 -2 -31q254 -254 439 -319q74 -27 176 -27q72 0 116 21q13 -7 13 -20q0 -5 -2 -11q-80 -57 -230 -58q-190 0 -373.5 108t-308.5 265q-35 45 -94 47 q-49 2 -102.5 19.5t-114.5 57.5t-109.5 97.5t-78.5 150.5q-29 87 -29 192v14q4 197 87 380t241 316q218 186 499 186zM1028 1321q-164 0 -307 -123q-127 -106 -229.5 -317t-110.5 -457q0 -12 -1 -23q0 -151 76 -257q81 -114 267 -113q188 0 342 164q131 141 204.5 339.5 t80.5 378.5q1 17 0 33q0 169 -79 267q-87 108 -243 108z" />
<glyph unicode="R" horiz-adv-x="1175" d="M270 295l240 766q40 131 40 172q0 42 -58 49l-78 8q-8 12 -5 28.5t15 22.5q133 16 348 17q270 0 387 -107q94 -84 94 -233q0 -143 -109.5 -241.5t-242.5 -121.5q-20 -2 -25.5 -12t1.5 -37q43 -182 102 -354q29 -82 45 -117t54 -62.5t104 -33.5q18 -10 0 -39 q-49 -6 -129 -6t-123 24.5t-68 96.5q-78 229 -121 397q-18 70 -35.5 86t-66.5 16q-80 0 -100.5 -10t-34.5 -55l-80 -254q-42 -129 -43 -179q0 -54 84 -65l49 -6q8 -10 5 -27.5t-13 -23.5q-129 6 -246 6q-121 0 -217 -6q-12 8 -12 25.5t10 25.5l45 6q76 10 105.5 50t78.5 194 zM715 1229l-144 -469q-11 -39 -11 -59q0 -12 4 -16q11 -11 89 -11q168 0 298 104.5t134 265.5q0 7 1 14q0 111 -67 172q-71 65 -202 64q-57 0 -73.5 -11t-28.5 -54z" />
<glyph unicode="S" horiz-adv-x="964" d="M432 -33q-256 0 -358 144q-2 23 -2 44q0 102 39 193q25 20 43 -4q25 -313 303 -313q115 0 207 73.5t92 214.5q0 102 -51.5 172t-153.5 150q-213 172 -213 356q0 170 123 278.5t325 108.5q90 0 172 -26.5t125 -54.5q-16 -29 -75 -238q-10 -8 -27.5 -8t-28.5 10q8 39 8 74 q0 65 -28 110q-43 70 -172 70q-133 0 -205 -75t-72 -187q0 -141 199 -295q106 -82 163.5 -169t57.5 -204q0 -184 -130 -304t-341 -120z" />
<glyph unicode="T" horiz-adv-x="1298" d="M627 1352h757q80 0 112 8t63 39q27 10 34 -10q-29 -49 -67.5 -147.5t-48.5 -143.5q-6 -10 -22.5 -10.5t-24.5 10.5q2 27 1 50q0 83 -23 108q-30 32 -173 32h-125q-49 0 -61.5 -12t-32.5 -78l-283 -903q-42 -129 -42 -180q0 -57 79 -64l76 -6q12 -10 10 -27.5t-18 -23.5 q-166 6 -270.5 6t-250.5 -6q-12 8 -12 25.5t10 25.5l80 6q70 4 103.5 47t81.5 197l282 903q16 52 16 71q0 6 -1 8q-6 11 -58 11h-135q-143 0 -202.5 -35.5t-141.5 -148.5q-14 -6 -28.5 0t-18.5 20q92 145 147 275q6 8 19.5 8t19.5 -8q-4 -29 26 -38t122 -9z" />
<glyph unicode="U" horiz-adv-x="1503" d="M326 545l159 512q33 106 39 148q2 11 2 21q0 27 -13 43q-17 22 -75 31l-51 9q-10 8 -8 25.5t16 23.5q129 -6 240 -6q102 0 252 6q10 -6 10 -23.5t-12 -25.5l-58 -9q-84 -12 -111.5 -49t-76.5 -194l-147 -473q-47 -151 -47 -261q0 -282 313 -282q342 0 506 508l94 289 q61 190 82 317q9 39 9 66q0 21 -5 35q-12 34 -82 44l-57 9q-10 10 -7.5 26.5t15.5 22.5q150 -6 219 -6q102 0 221 6q12 -8 12 -24.5t-12 -24.5l-47 -9q-74 -12 -101.5 -39.5t-60.5 -111.5q-20 -55 -100 -311l-94 -301q-96 -303 -240 -428q-160 -141 -387 -142 q-281 0 -383 148q-55 79 -55 197q0 102 41 233z" />
<glyph unicode="V" horiz-adv-x="1273" d="M510 195l-84 878q-12 133 -29.5 176t-68.5 51l-52 9q-8 9 -7 20q0 21 18 29q94 -6 198 -6q125 0 224 6q14 -6 14 -23.5t-12 -25.5l-58 -9q-66 -10 -80 -33q-9 -15 -9 -58q0 -24 3 -58l72 -770q10 -115 20 -123q16 6 93 121l233 348q252 373 303 459q25 39 31 61.5 t-3 33.5t-34 15l-76 13q-10 8 -8 26.5t14 22.5q119 -6 230 -6q102 0 182 6q10 -6 10 -22.5t-6 -26.5l-59 -9q-68 -8 -121 -69q-106 -115 -348 -469l-174 -254l-197 -297q-135 -207 -154 -238q-10 -6 -24 -6t-27 6q-2 79 -14 222z" />
<glyph unicode="W" horiz-adv-x="1798" d="M520 350l-117 807q-14 94 -28 113q-18 20 -68 30l-43 9q-9 7 -9 22q0 20 15 27q98 -6 199 -6q106 0 211 6q10 -4 11 -23.5t-9 -25.5l-76 -9q-41 -4 -53 -29q-7 -15 -7 -44q0 -19 3 -43l110 -774q25 -166 33 -172q12 8 131 170l138 188q25 35 31.5 55.5t0.5 59.5l-69 467 q-10 66 -27.5 90t-67.5 32l-47 9q-10 8 -8 26.5t17 22.5q82 -6 200 -6q131 0 201 6q10 -4 10 -22.5t-10 -26.5l-68 -9q-41 -4 -53 -25q-7 -13 -7 -40q0 -18 3 -43l51 -387l37 55l70 103q147 215 188 290q10 16 -4 29.5t-39 17.5l-51 9q-10 8 -8 26.5t16 22.5q92 -6 182 -6 q109 0 172 6q10 -6 10.5 -23.5t-10.5 -25.5l-39 -9q-63 -14 -91.5 -36.5t-98.5 -108.5q-133 -168 -278 -387q-4 -4 -12.5 -15.5t-10.5 -14.5t-6 -11t-4 -14v-17q0 -10 2 -22l39 -264q25 -162 35 -172q14 6 102 141q403 612 485 756q70 117 72 135q2 12 -9.5 18t-43.5 12 l-41 9q-10 8 -8 25.5t14 23.5q100 -6 186 -6q106 0 172 6q10 -4 10.5 -23.5t-10.5 -25.5l-47 -9q-29 -6 -56.5 -21t-54.5 -48l-42 -50q-14 -17 -44 -62.5t-32 -49.5l-318 -467l-409 -629q-8 -6 -25 -6q-16 0 -24 6q-14 178 -68 506l-12 76l-275 -391q-82 -119 -123 -191 q-10 -6 -24 -6t-27 6q-10 146 -45 377z" />
<glyph unicode="X" horiz-adv-x="1179" d="M-86 45l47 6q82 10 142.5 53t172.5 166q16 18 131 139l205 222q21 24 21 47q0 11 -4 22l-178 480q-25 63 -46.5 86.5t-72.5 31.5l-45 9q-10 10 -6 28.5t16 22.5q137 -6 219 -6q129 0 209 6q10 -8 10 -25.5t-10 -25.5l-55 -9q-63 -8 -76 -27q-5 -8 -5 -21q0 -19 11 -50 l150 -416q145 147 378 424q41 45 41 64.5t-47 25.5l-59 9q-10 10 -8 26.5t16 24.5q92 -6 205 -6q92 0 186 6q11 -6 12 -22q0 -20 -14 -29l-49 -9q-57 -10 -119 -63l-90 -81l-98 -96l-86 -89l-103 -109l-100 -106q-27 -27 -31 -39.5t9 -44.5l111 -285l93 -231 q39 -96 103 -103l76 -6q10 -6 9 -25.5t-14 -25.5q-119 6 -221 6q-125 0 -229 -6q-12 6 -13 25.5t9 25.5l45 6q59 8 74 24q7 7 6 24q0 19 -8 51l-164 440q-199 -217 -416 -481q-14 -17 -14 -29q0 -16 28 -21l82 -14q10 -8 8 -28.5t-14 -22.5q-106 6 -227 6t-197 -6 q-15 7 -15 30q0 14 9 21z" />
<glyph unicode="Y" horiz-adv-x="1155" d="M612 1186l105 -481q8 -39 19.5 -39t41.5 36l252 304q197 242 197 258q0 25 -60 34l-51 9q-10 8 -9 25.5t13 25.5q121 -6 213 -6q84 0 185 6q10 -6 10 -24.5t-10 -26.5l-43 -9q-82 -16 -115 -47q-84 -76 -201 -211l-233 -274q-109 -127 -141.5 -179t-69.5 -169l-39 -123 q-35 -111 -42 -156q-2 -14 -2 -25q0 -26 11 -39q16 -19 72 -24l73 -6q10 -8 7.5 -27.5t-13.5 -23.5q-172 6 -274 6q-106 0 -244 -6q-12 8 -12 25.5t10 25.5l74 6q72 6 101.5 46t82.5 198l41 121q29 82 32 124v12q0 43 -18 126l-102 444q-23 100 -43 134t-74 42l-51 9 q-8 10 -6 27.5t12 23.5q115 -6 217 -6q121 0 220 6q10 -8 10 -24.5t-10 -26.5l-60 -9q-57 -8 -74 -30q-9 -12 -8 -35q-1 -19 6 -47z" />
<glyph unicode="Z" horiz-adv-x="1230" d="M246 297l899 936q10 14 9 24q0 28 -67 31h-313q-170 0 -240.5 -35.5t-162.5 -169.5q-14 -8 -29.5 -0.5t-17.5 25.5q72 121 122 295q6 6 13 6l12 -6q8 -35 40 -43t157 -8h546q164 0 220 6q20 -2 16 -25q-18 -12 -54 -44t-88 -85l-95 -97l-108 -112l-93 -96l-469 -487 q-276 -297 -277 -314q0 -35 185 -35h180q295 0 381 46q88 47 168 182q10 6 23.5 0t17.5 -17q-16 -63 -61.5 -152t-80.5 -128q-106 4 -190 4q-70 2 -213 2h-479q-145 0 -226 -6q-11 3 -11 20q0 7 3 13q70 51 283 270z" />
<glyph unicode="[" horiz-adv-x="655" d="M82 -307l510 1712h133q201 0 223 -6q6 -8 4 -21.5t-10 -19.5l-190 -23q-45 -6 -58 -20q-43 -49 -123 -320l-266 -893q-84 -285 -72 -319q4 -14 48 -21l176 -22q8 -23 -11 -41q-27 -6 -231 -6h-133z" />
<glyph unicode="\" horiz-adv-x="696" d="M240 1384l391 -1417h-117l-391 1417h117z" />
<glyph unicode="]" horiz-adv-x="655" d="M748 1405l-510 -1712h-134q-203 0 -223 6q-6 8 -4 21.5t10 19.5l191 22q45 6 57 21q43 49 123 319l266 893q84 285 72 320q-4 14 -47 20l-176 23q-8 23 10 41q27 6 231 6h134z" />
<glyph unicode="^" horiz-adv-x="1146" d="M1061 500h-127l-283 637l-282 -637h-129l362 782h98z" />
<glyph unicode="_" horiz-adv-x="1024" d="M1024 -154v-102h-1024v102h1024z" />
<glyph unicode="`" d="M479 1266l94 -291q0 -12 -13 -18.5t-23 -4.5l-166 228q-29 41 -29 57q0 25 35 47q37 27 63 27q25 0 39 -45z" />
<glyph unicode="a" horiz-adv-x="909" d="M766 752l57 131q14 6 29 6q14 0 30 -5q32 -11 42 -32q-174 -430 -275 -715q-16 -47 15 -47q55 0 210 137q29 0 29 -26q-70 -92 -167 -161t-177 -69q-31 0 -45 18.5t-14 37.5q0 20 20 79l68 185l-6 2q-106 -133 -241.5 -227.5t-209.5 -94.5q-41 0 -65.5 35t-24.5 80 q0 49 45 161.5t135 235.5q139 190 271 265q104 59 184 59q25 0 49 -12q27 -12 41 -43zM612 729q-57 0 -145 -80q-96 -86 -176 -253t-80 -277q0 -39 31 -39q53 0 198 133q207 193 275 442q-27 74 -103 74z" />
<glyph unicode="b" horiz-adv-x="954" d="M612 1180l-266 -701h4q115 174 220.5 265.5t213.5 91.5q86 0 131.5 -51.5t45.5 -133.5q0 -106 -70 -233t-195 -248q-113 -109 -217 -154t-174 -45q-164 0 -164 189q0 123 105 403l237 631q33 88 37 121t-16 49l-47 33q-8 14 6 28q107 39 233 39h13l8 -12zM754 766 q-94 0 -283 -215q-92 -104 -142 -218t-50 -192q0 -106 71 -106q27 0 82 34.5t115 102.5q100 113 189 274.5t89 245.5q1 74 -71 74z" />
<glyph unicode="c" horiz-adv-x="692" d="M618 836q74 0 113 -35t39 -86q0 -53 -36 -75t-64 -22q-35 0 -41 37q0 4 -2 21.5t-3 24t-4.5 20.5t-8.5 19t-12 13.5t-17.5 11.5t-24.5 3q-80 0 -172 -137q-53 -80 -93 -196t-44 -228q0 -8 -1 -16q0 -117 89 -117q86 0 221 125q14 2 22.5 -8.5t4.5 -26.5 q-63 -84 -154.5 -138.5t-183.5 -54.5q-66 0 -110 53.5t-44 163.5q0 113 67.5 264.5t192.5 264.5q131 119 266 119z" />
<glyph unicode="d" horiz-adv-x="970" d="M801 772l147 422q31 88 35 120t-16 50l-47 33q-8 14 6 28q109 39 229 39h12l9 -12q-16 -49 -129 -362q-190 -526 -318 -949q-14 -47 12 -47q25 0 102 62.5t124 122.5q29 0 30 -27q-43 -90 -157.5 -185.5t-190.5 -95.5q-31 0 -48 19.5t-17 46.5q0 39 26 117l72 202l-8 2 q-68 -92 -112 -144t-110.5 -116.5t-133 -95.5t-138.5 -31q-57 0 -90 42t-33 106q0 115 78 272.5t195 261.5q203 182 366 183q27 0 58 -16.5t47 -47.5zM692 774q-59 0 -155 -88q-63 -59 -155.5 -182t-137.5 -217q-63 -131 -64 -195q0 -18 12.5 -30.5t26.5 -12.5 q33 0 107.5 43t169.5 139q195 199 249 396q10 35 10 62q0 25 -7 44q-17 41 -56 41z" />
<glyph unicode="e" horiz-adv-x="708" d="M641 836q57 0 93 -39t36 -84q0 -111 -129 -193t-369 -147q-29 -70 -28 -183q0 -51 27.5 -83.5t70.5 -32.5q51 0 94 25.5t121 93.5q14 0 22.5 -10.5t4.5 -24.5q-152 -186 -328 -187q-84 0 -125 64.5t-41 150.5q0 117 77 276t228 275q127 99 246 99zM600 772 q-66 0 -156 -98q-94 -102 -151 -240q98 31 156.5 63.5t117.5 88.5q41 39 60.5 79t19.5 60q0 47 -47 47z" />
<glyph unicode="f" horiz-adv-x="534" d="M725 731h-254q-6 -16 -53 -190l-182 -652q-68 -236 -162 -329q-119 -111 -246 -111q-74 0 -112 35t-38 65q0 57 48 93q25 18 47 -9q80 -84 155 -84q25 0 42.5 9.5t42 49.5t46.5 113q45 158 129 498t136 512h-170q-14 14 -10.5 38t24.5 38h176q94 328 229 487 q143 170 328 170q59 0 108.5 -37.5t49.5 -97.5q0 -39 -31 -78t-57 -39q-25 0 -29 33q-4 78 -37 114t-78 36q-72 0 -147 -111q-45 -66 -81 -148.5t-55.5 -143t-54.5 -185.5h256q10 -15 10 -29q0 -25 -30 -47z" />
<glyph unicode="g" horiz-adv-x="782" d="M588 836q14 0 65 -19q8 -4 19.5 -8t18.5 -7t11 -3q51 0 99 12q61 16 92 16q43 0 43 -51q0 -63 -45 -63q-23 0 -68 10q-37 12 -75 12q-8 0 -14.5 -4t-4.5 -8q14 -57 14 -78q0 -119 -73.5 -229.5t-186.5 -179.5q-37 -25 -145 -54q-45 -25 -45 -71q0 -51 67 -97 q2 -2 201 -123q154 -90 154 -198q0 -94 -133 -169t-367 -75q-127 0 -225.5 50t-98.5 145q0 72 69 136t138.5 97t143.5 55q-66 43 -66 95q0 39 92 157q-150 39 -149 185q0 88 45 182t121 162q143 123 303 123zM309 -483q90 0 180.5 36.5t90.5 102.5q0 63 -88 125 q-145 96 -191 102q-7 1 -13 1q-71 0 -177 -77q-78 -57 -78 -133q0 -70 82.5 -113.5t193.5 -43.5zM563 776q-61 0 -137 -84q-68 -78 -126 -190.5t-58 -186.5q0 -31 18.5 -51t42.5 -20q68 0 135 80q80 94 133.5 210.5t53.5 172.5q0 31 -18.5 50t-43.5 19z" />
<glyph unicode="h" horiz-adv-x="972" d="M682 1464l8 -12l-147 -418l-211 -612l4 -4q152 213 323 338q111 80 195 80q63 0 93 -39t30 -99q0 -98 -48 -232t-112 -247q-45 -80 -133 -168q-80 -80 -149 -80q-76 0 -76 60q0 25 17.5 45t37.5 20q14 0 29 -12q35 -27 53 -27q39 0 82 103q49 119 98 284.5t49 243.5 q0 61 -43 62q-41 0 -110 -56q-125 -94 -260 -272q-96 -127 -248 -426q-12 -25 -37 -25q-16 0 -30.5 3t-25.5 17q-7 8 -7 18q0 7 4 16l389 1151q0 2 2 6q20 59 26.5 81.5t11.5 47t0 34t-18 17.5l-43 29q-6 16 6 26q27 12 108 28.5t132 18.5z" />
<glyph unicode="i" horiz-adv-x="569" d="M106 45l261 621q18 39 -5 39q-37 0 -169 -109q-14 2 -22.5 12t-4.5 23q78 90 179 147.5t159 57.5q12 0 33 -21q7 -7 6 -21q0 -24 -19 -69l-243 -582q-18 -45 6 -45q27 0 94.5 47.5t118.5 104.5q31 -4 30 -35q-31 -57 -159.5 -150.5t-223.5 -93.5q-16 0 -32 19 q-14 15 -14 32q-1 11 5 23zM541 1257q70 0 69 -77q0 -49 -30.5 -88t-75.5 -39q-37 0 -54.5 22.5t-17.5 52.5q0 43 28 86t81 43z" />
<glyph unicode="j" horiz-adv-x="530" d="M-150 -551q-68 0 -102.5 35t-34.5 76q0 29 19.5 54.5t46.5 25.5q14 0 24 -21q51 -88 117 -88q57 0 103 102q59 143 221 662q115 379 114 387q2 27 -16 27q-55 0 -203 -158q-29 4 -33 35q41 70 155 160t202 90q20 0 35.5 -18.5t15.5 -41.5q0 -43 -108 -395 q-156 -498 -187 -574q-148 -358 -369 -358zM522 1257q70 0 70 -77q0 -49 -31 -88t-76 -39q-37 0 -54 22.5t-17 52.5q0 43 27.5 86t80.5 43z" />
<glyph unicode="k" horiz-adv-x="917" d="M82 25l375 1130q35 106 38 140t-24 46l-37 19q-20 14 -4 31q96 45 250 73l12 -10q-25 -88 -100 -301l-211 -606h4q92 123 209 211q109 78 221 78q80 0 114 -35t34 -78q0 -72 -84 -150q-166 -152 -328 -180q-16 -8 -6 -39q29 -100 76 -192q37 -68 65 -68q43 0 123 96 q27 0 27 -24q-47 -100 -108.5 -147.5t-98.5 -47.5q-47 0 -94 82q-55 100 -95 219q-21 69 -62 70q-6 0 -13 -2q-31 -8 -44.5 -22.5t-31.5 -59.5l-107 -260q-12 -27 -35 -27q-16 0 -31.5 3t-28.5 17q-8 8 -8 19q0 7 3 15zM805 694q0 20 -16.5 37t-49.5 17q-76 0 -198 -105 q-57 -49 -112.5 -114.5t-76.5 -108.5q-5 -10 -5 -17q0 -4 2 -8q4 -7 17 -6h7q115 10 301 133q61 41 96 89t35 83z" />
<glyph unicode="l" horiz-adv-x="503" d="M575 1100l-323 -967q-10 -29 -10 -45q0 -22 18 -22q53 0 236 206q33 4 32 -28q-53 -102 -146 -187.5t-206 -85.5q-80 0 -80 62q0 39 45 174l326 969q30 101 30 132.5t-32 45.5l-37 16q-8 6 -8 17.5t8 15.5q129 51 258 61l10 -12q-45 -123 -121 -352z" />
<glyph unicode="m" horiz-adv-x="1492" d="M862 836q103 0 103 -98q0 -64 -43 -169l-78 -188l6 -4q289 459 487 459q115 0 115 -111q0 -59 -33 -143q-16 -45 -62 -154l-86 -202q-40 -93 -42 -97q-16 -39 4 -39q27 0 88 43t104 96q33 4 33 -28q-57 -96 -161.5 -163t-190.5 -67q-14 0 -31.5 16.5t-17.5 35t49 135.5 l166 403q43 111 43 150q0 49 -33 49q-76 0 -268 -246q-113 -141 -322 -518q-16 -25 -37 -25q-16 0 -30.5 3t-25.5 16.5t-3 34.5l203 536q0 2 7 17.5t13 32l13.5 38t10.5 40t3 35.5t-8.5 26.5t-22.5 9.5q-86 0 -285 -246q-49 -63 -105 -154.5t-87 -147.5l-115 -216 q-14 -25 -37 -25q-16 0 -30.5 3t-25.5 17q-7 8 -6 18q0 7 3 16q213 567 233 645q6 20 6 33q0 24 -20 24q-90 0 -180 -113q-33 0 -29 31q43 82 125 136.5t191 54.5q35 0 49 -25t0 -59l-142 -371l7 -4q121 199 252.5 329t242.5 130z" />
<glyph unicode="n" horiz-adv-x="1026" d="M502 752l-140 -359l7 -4q123 186 259 316.5t242 130.5q115 0 115 -111q0 -49 -33 -143q-16 -45 -62 -154l-86 -202q-40 -93 -42 -97q-16 -39 4 -39q27 0 88 43t104 96q33 4 33 -28q-57 -96 -161.5 -163t-190.5 -67q-14 0 -31.5 16.5t-17.5 35t49 135.5q16 35 77.5 190.5 t88.5 212.5q43 96 43 150q0 49 -33 49q-37 0 -118 -69.5t-165 -174.5q-51 -63 -107 -154.5l-90 -151.5l-116 -214q-14 -25 -37 -25q-16 0 -30.5 3t-25.5 17q-7 8 -7 18q0 7 4 16l237 645q18 47 -6 47q-70 0 -186 -103q-29 0 -25 31q59 82 144.5 136.5t161.5 54.5 q37 0 52 -24.5t1 -59.5z" />
<glyph unicode="o" horiz-adv-x="831" d="M602 836q106 0 161 -72q49 -64 49 -164q0 -11 -1 -22q-6 -100 -59.5 -229.5t-157.5 -235.5q-137 -141 -293 -142q-100 0 -157 72q-49 63 -49 169q0 15 1 32q6 104 65.5 234t157.5 224q140 134 283 134zM588 774q-76 0 -150 -98q-84 -113 -141 -267.5t-64 -244.5 q-1 -9 0 -17q0 -45 19 -76q23 -38 65 -38q82 0 162 106q66 88 126.5 252t64.5 248v12q0 123 -82 123z" />
<glyph unicode="p" horiz-adv-x="917" d="M578 928l-43 -125q6 0 30.5 2t46.5 2q59 0 115.5 -15.5t110 -71.5t53.5 -147q0 -258 -270 -485q-57 -49 -132 -77.5t-110 -34t-51 -5.5q-20 0 -64 13q-23 -6 -33 -37l-84 -242q-38 -110 -38 -144t55 -42l84 -13q23 -31 -8 -45q-35 0 -447 -12q-13 11 -13 22.5t13 22.5 l45 8q16 2 30.5 7.5t26 8.5t21.5 11t16.5 11t14.5 14.5t11 14.5t9 19.5t7 19.5t8.5 22.5t9.5 23.5l381 1069q-88 -25 -207 -84q-12 2 -18.5 13.5t-2.5 25.5q100 72 254 113l62 165q12 10 33 10q14 0 32 -4q46 -11 52 -34zM518 741l-213 -598q-6 -15 -6 -28q0 -15 8 -27 q29 -47 76 -47q37 0 104.5 39t124.5 127q121 186 121 385q0 74 -46 113.5t-116 39.5q-24 0 -53 -4z" />
<glyph unicode="q" horiz-adv-x="952" d="M866 461l-245 -787q-22 -69 -23 -102q0 -6 1 -11q5 -32 44 -34l68 -6q8 -8 6 -23.5t-15 -21.5q-147 -8 -442 -60q-12 6 -15 22.5t7 24.5l94 29q61 18 83 48t48 112l236 731h-4q-45 -63 -93.5 -122.5t-119 -131.5t-149.5 -115t-148 -43q-61 0 -93 45t-32 109 q0 156 102 326q129 219 313 319q123 66 234 66q41 0 70.5 -33t40.5 -80q66 106 110 166q5 1 11 1q9 0 19 -4q15 -7 17 -22l-22 -71l-44 -142zM680 774q-70 0 -160 -82q-102 -94 -200.5 -278.5t-98.5 -292.5q0 -57 45 -58q55 0 172 99q170 145 258 295q57 102 58 200 q0 37 -20.5 77t-53.5 40z" />
<glyph unicode="r" horiz-adv-x="698" d="M387 836q71 0 71 -78q0 -45 -24 -117l-88 -258h10q123 229 215 346q82 106 150 107q82 0 82 -101q0 -66 -43 -123q-18 -25 -39 -22.5t-27 33.5q-14 80 -43 79q-25 0 -71 -61q-57 -74 -125 -194.5t-109 -204.5l-115 -246q-12 -25 -34 -25q-16 0 -31.5 3t-29.5 17 q-9 9 -9 21q0 6 2 13q4 14 50 147l91 270q45 137 70 228q12 43 -16 43q-66 0 -146 -107q-16 -4 -25.5 5.5t-7.5 27.5q117 197 242 197z" />
<glyph unicode="s" horiz-adv-x="536" d="M461 836q53 0 88 -37t35 -80q0 -45 -37 -64q-23 -6 -39 17q-25 25 -35 34t-35.5 20t-54.5 11q-41 0 -62.5 -26.5t-21.5 -55.5q0 -70 70 -186q33 -53 46 -80t23 -65q9 -32 9 -68q0 -7 -1 -14q-4 -109 -106 -197q-84 -74 -207 -74q-55 0 -90 35t-35 74q0 35 31 67 q27 25 55 0q72 -82 142 -81q39 0 68.5 34.5t29.5 81.5q0 59 -76 180q-72 117 -72 191q0 109 123 215q78 68 152 68z" />
<glyph unicode="t" horiz-adv-x="581" d="M690 709h-223l-184 -539q-6 -18 -6 -29q0 -22 20 -22q23 0 102.5 63.5t130.5 120.5q35 0 29 -37q-82 -121 -202.5 -208t-190.5 -87q-20 0 -37.5 18.5t-17.5 37.5q0 31 28 116l193 566h-160q-2 9 -2 17q0 30 25 40l163 29l115 202q10 7 26 8q6 0 14 -1q26 -4 38 -19 l-59 -201h223q6 -8 6 -20q0 -9 -3 -20q-8 -25 -28 -35z" />
<glyph unicode="u" horiz-adv-x="1015" d="M535 774l-230 -598q-10 -27 -10 -44q0 -26 24 -26q45 0 220 170q53 53 100 113t89 127.5t66.5 110.5t60.5 112.5t44 83.5q31 6 62.5 -6t37.5 -31l-48 -124l-98 -259l-93 -251q-20 -51 8 -52q27 0 91.5 53.5t109.5 106.5q35 8 37 -29q-43 -80 -162 -170t-197 -90 q-25 0 -42 23.5t-9 48.5l139 375l-4 2q-131 -164 -283.5 -306.5t-228.5 -142.5q-59 0 -74 54q-5 18 -4 37q0 39 19 83l188 498q11 30 11 44.5t-11 14.5q-27 0 -88 -47t-106 -94q-14 -2 -25.5 7.5t-9.5 23.5q43 68 165 156t189 88q23 0 46.5 -18.5t15.5 -43.5z" />
<glyph unicode="v" horiz-adv-x="872" d="M219 291l141 366q9 23 9 37q0 23 -23 23q-27 0 -83 -43t-107 -101q-14 0 -23.5 11.5t-7.5 23.5q59 84 150.5 156t173.5 72q39 0 61 -41q12 -21 12 -47q0 -23 -10 -48l-176 -456q-20 -57 -21 -97q0 -74 60 -73q90 0 223 151q84 96 130 205t46 186q0 84 -18 146 q2 33 24.5 53.5t50.5 20.5q80 0 80 -127q0 -115 -100 -297.5t-229 -290.5q-180 -150 -320 -150q-39 0 -66.5 38t-27.5 85q0 64 51 197z" />
<glyph unicode="w" horiz-adv-x="1345" d="M199 231l153 410q13 34 13 53q0 23 -19 23q-31 0 -86 -43t-102 -101q-14 0 -23.5 11.5t-7.5 23.5q59 86 148.5 157t175.5 71q39 0 60 -41q11 -21 11 -46q0 -23 -10 -49l-162 -428q-39 -100 -39 -145q0 -49 45 -49q61 0 154.5 100.5t167.5 210.5q94 143 133 328 q10 49 39 79.5t57 30.5q33 0 47.5 -18t14.5 -39q0 -8 -1 -17.5t-5 -20.5l-8 -19l-10 -25.5t-12 -28l-16.5 -35t-19.5 -38.5q-111 -227 -111 -418q0 -90 76 -90q47 0 120 54t134 142q127 182 127 342q0 84 -18 146q2 33 24.5 53.5t50.5 20.5q80 0 80 -127q0 -94 -56 -223.5 t-167 -264.5q-102 -123 -210.5 -186.5t-180.5 -63.5q-35 0 -75 36t-40 81q0 61 35 174q8 25 -1 24t-28 -26q-82 -111 -192.5 -200t-196.5 -89q-41 0 -72.5 36t-31.5 75q0 51 35 149z" />
<glyph unicode="x" horiz-adv-x="860" d="M401 375l-86 221q-35 90 -51 94q-2 2 -6 2q-10 0 -20.5 -6t-20.5 -19.5l-17 -23.5t-18.5 -28.5t-15.5 -26.5q-16 -8 -27.5 0t-9.5 28q27 82 86 151t98 69q51 0 90 -107l89 -240q6 8 19 24l45 54l75 90q80 94 132 136.5t99 42.5q39 0 60.5 -29t21.5 -68q0 -49 -27.5 -83.5 t-54.5 -34.5q-18 0 -28 34q-14 51 -43 52q-27 0 -82.5 -55.5t-194.5 -225.5l76 -195q47 -117 74 -116q29 0 96 121q10 12 27.5 7t15.5 -20q-23 -104 -73 -178t-105 -74q-39 0 -64.5 35t-56.5 109l-78 194q-18 -18 -74 -85l-76 -91q-135 -162 -221 -162q-35 0 -54 21.5 t-19 52.5q0 74 59 123q25 23 45 22q16 0 20 -26q12 -57 37 -58q23 0 82 64q37 39 176 205z" />
<glyph unicode="y" horiz-adv-x="749" d="M322 836q115 0 124 -349q0 -26 1 -51q0 -216 -31 -399h8q96 143 172 352q29 80 51.5 204t24.5 175q4 63 49 63q29 0 57 -18q18 -12 19 -45q0 -61 -58 -237q-59 -181 -180 -384l-36 -60q-30 -50 -37 -63.5t-33 -56.5l-39 -61l-39 -57q-27 -38 -47 -63l-48 -60 q-28 -35 -59 -70q-180 -207 -319 -207q-47 0 -77 27.5t-30 66.5t23.5 63.5t58.5 24.5q33 0 55 -32q23 -37 58 -37q43 0 112 57q43 37 98.5 125t82.5 182q41 148 41 417v50q-6 307 -78 307q-14 0 -28.5 -10t-31 -36.5t-28 -47t-31.5 -61.5q-31 -8 -39 26q35 111 98.5 188 t135.5 77z" />
<glyph unicode="z" horiz-adv-x="831" d="M4 29q0 37 119 145l498 463q10 10 10 18q0 16 -35 27q-125 41 -234 41q-49 0 -68.5 -24.5t-19.5 -49.5q0 -45 33 -78q0 -20 -19.5 -38.5t-51.5 -18.5q-37 0 -56.5 22.5t-19.5 53.5q0 61 92 147q92 82 213 82q57 0 131 -20q115 -35 149 -35q14 0 27.5 2t25.5 8l19 10 q8 4 16.5 13.5t12.5 13.5t11 13.5t9 11.5h7q19 0 32 -11q16 -12 13 -30l-154 -138l-264 -240l-250 -243l2 -6q18 0 35.5 -1t33 -3t35 -8t30.5 -10.5l31.5 -12.5t29.5 -12l32 -15q23 -10 29 -14q86 -39 129 -39q35 0 64.5 26.5t29.5 67.5q0 31 -20 99q-10 35 5 48t36 13 q39 0 63.5 -32.5t24.5 -71.5q0 -92 -107 -178q-90 -72 -164 -72q-49 0 -168 51l-68 32q-50 24 -79 33t-51 9q-49 0 -76 -25.5t-43 -81.5q-7 -1 -14 0q-66 0 -66 58z" />
<glyph unicode="{" horiz-adv-x="655" d="M635 975q-27 -156 -43 -211q-49 -172 -215 -211l-2 -8q104 -27 104 -142q0 -23 -12 -64.5t-27 -75.5l-34 -81l-25 -59q0 -2 -23.5 -56.5l-34 -80t-22.5 -67.5t-12 -66q0 -115 125 -142q4 -27 -11 -35q-227 0 -227 162q0 20 4 45t9.5 43.5t17.5 54.5l17 50q5 14 23.5 58 t22.5 56q6 14 19.5 48l19.5 48.5t16.5 42t15.5 44t11 39t8 40t2 33.5q0 76 -139 86q-10 31 10 45q66 4 111 19.5t68.5 44.5t32 46t18.5 50q20 63 49 211q31 158 49 225q74 254 361 254q4 -25 -13 -37q-193 -33 -231 -200q-23 -92 -43 -209z" />
<glyph unicode="|" horiz-adv-x="532" d="M408 1536v-2048h-121v2048h121z" />
<glyph unicode="}" horiz-adv-x="655" d="M207 123q27 156 43 211q49 172 215 211l2 8q-104 27 -105 141q0 23 12.5 65t26.5 76l35 80q20 47 25 60q0 2 23.5 56t33.5 80t22.5 68t12.5 66q0 115 -125 141q-4 27 10 35q227 0 228 -161q0 -20 -4.5 -45t-9.5 -43.5t-17 -54.5l-18 -50q-5 -14 -23.5 -58t-22.5 -57 q-6 -14 -19 -48t-19.5 -48t-16.5 -42t-15 -44l-11.5 -38.5t-8.5 -40t-2 -34.5q0 -76 139 -86q10 -31 -10 -45q-66 -4 -110.5 -19t-68 -44t-32 -46.5t-18.5 -49.5q-20 -63 -49 -211q-31 -158 -49 -226q-25 -84 -69 -139t-99.5 -78.5t-100.5 -31t-92 -5.5q-4 25 12 37 q193 33 232 201q23 92 43 209z" />
<glyph unicode="~" horiz-adv-x="1146" d="M446 471h254q76 0 109 25.5t74 107.5q20 8 40.5 1t26.5 -30q-51 -129 -94 -167q-41 -37 -115 -37h-254q-76 0 -108.5 -27t-73.5 -108q-20 -8 -40.5 -1t-26.5 29q47 115 92 164q42 43 116 43z" />
<glyph unicode="&#xa1;" horiz-adv-x="421" d="M-31 -545q-57 0 -75.5 17.5t-8.5 48.5l12 28l23 61l33 83l254 665q6 12 24.5 12.5t28.5 -12.5l-141 -661q-29 -139 -41 -178q-12 -41 -34 -52.5t-75 -11.5zM336 807q43 0 66.5 -27.5t23.5 -64.5q0 -59 -35 -95t-82 -36q-43 0 -66.5 25.5t-23.5 70.5q0 53 36 90t81 37z " />
<glyph unicode="&#xa2;" horiz-adv-x="872" d="M426 137l195 623q-145 -2 -243.5 -117t-98.5 -262q0 -197 147 -244zM688 752l-194 -629q10 -4 38 -4q135 0 232 92q14 0 23.5 -11.5t7.5 -25.5q-47 -57 -132 -99t-190 -42h-8l-55 -174q-14 -8 -38 -8.5t-34 8.5l57 180q-133 20 -200.5 107t-67.5 206q0 197 151.5 327 t360.5 138l43 141q12 12 33.5 12.5t36.5 -12.5l-43 -141q113 -10 170 -49q12 -12 12 -33q0 -39 -17.5 -67.5t-35.5 -28.5q-6 0 -15 8q-51 80 -135 105z" />
<glyph unicode="&#xa3;" horiz-adv-x="921" d="M123 545h147q27 0 29 14q14 70 16 78q41 182 160 297t262 115q104 0 154 -54q14 -18 12 -43q-2 -29 -25.5 -54.5t-39.5 -25.5q-12 0 -23 13q-68 74 -141 73q-137 0 -187 -237q-25 -106 -26 -152q-2 -14 3 -19t28 -5h247q10 -8 5 -34t-19 -32h-246q-41 0 -45 -24 q-41 -180 -233 -295v-4q66 10 133 0q61 -8 155 -54q100 -51 166 -51q102 0 103 139q0 57 47 58q35 0 53.5 -24.5t9.5 -69.5q-16 -78 -109 -140.5t-190 -62.5q-100 0 -213 63q-111 61 -190 62q-63 0 -74 -56q-4 -16 -32.5 -29.5t-45.5 -13.5q-33 0 -26 29q6 25 39.5 64 t72.5 67q133 96 181 318q4 14 -0.5 19t-22.5 5h-149q-10 6 -5 32t19 34z" />
<glyph unicode="&#xa4;" horiz-adv-x="1024" d="M606 985q-123 0 -213 -101.5t-90 -242.5q0 -145 91 -244.5t212 -99.5t212 100.5t91 243.5q0 141 -91 242.5t-212 101.5zM606 1079q137 0 244 -82l80 105q35 -10 63.5 -39t30.5 -59l-86 -93q88 -115 88 -270.5t-88 -269.5l86 -92q-2 -31 -30.5 -60t-63.5 -39l-80 105 q-106 -82 -244 -82q-133 0 -244 82l-77 -105q-35 10 -63.5 39t-33.5 60l88 92q-90 113 -90 270.5t90 269.5l-88 93q4 31 33 59.5t64 38.5l77 -105q111 82 244 82z" />
<glyph unicode="&#xa5;" horiz-adv-x="921" d="M778 330h-250l-41 -129q-27 -82 -24.5 -112t43.5 -38l59 -12q6 -4 -1 -22.5t-17 -20.5q-119 4 -195 4q-68 0 -194 -4q-8 2 -4 17.5t16 25.5l57 8q41 6 65.5 37t53.5 117l43 129h-252q-8 8 0 32.5t21 32.5h248l40 133h-247q-8 6 0 31t20 33h227l-84 272q-18 61 -40.5 87 t-57.5 36l-33 8q-8 6 -5 20.5t14 18.5q74 -6 176 -6q117 0 178 6q10 -4 7 -20.5t-13 -18.5l-60 -12q-37 -8 -43 -25q-4 -23 21 -108l47 -160q14 -49 29 -49q12 0 47 37l116 125q121 127 132 160q2 6 -8.5 10t-28.5 8l-47 12q-4 6 2 21.5t18 19.5q74 -6 158 -6q53 0 121 6 q6 -4 6 -20.5t-6 -20.5l-45 -12q-70 -20 -191 -150l-227 -239h231q6 -8 -2 -32.5t-18 -31.5h-248l-41 -133h248q6 -8 -2.5 -32.5t-18.5 -32.5z" />
<glyph unicode="&#xa6;" horiz-adv-x="532" d="M408 1382v-716h-121v716h121zM408 358v-716h-121v716h121z" />
<glyph unicode="&#xa7;" horiz-adv-x="942" d="M895 1427q57 0 101 -38.5t44 -94.5q0 -80 -55 -80q-14 0 -29 31q-49 86 -131 86q-84 0 -135 -48t-51 -126q0 -131 94 -360q8 -23 28 -71l26 -66l22 -54q14 -37 19 -53l15 -44q9 -28 11 -46.5t5 -41t3 -44.5q0 -115 -61.5 -207t-186.5 -207q-256 -236 -421 -235 q-74 0 -126.5 45t-52.5 114q0 29 26 36t48 -13q100 -78 193 -78q78 0 131 44t53 128q0 127 -107 383q-109 254 -108 373q0 133 106.5 283.5t259.5 256.5q185 127 279 127zM569 10l4 -4q57 53 107.5 139t50.5 183q0 117 -80 313q-115 283 -121 340q-8 106 15 182l-2 4 q-59 -53 -114.5 -143t-55.5 -174q0 -150 94 -371q106 -252 108 -327q4 -70 -6 -142z" />
<glyph unicode="&#xa8;" d="M457 1051q-35 0 -55.5 21.5t-20.5 55.5q0 47 29.5 79t68.5 32q35 0 55.5 -23.5t20.5 -54.5q0 -51 -29.5 -80.5t-68.5 -29.5zM774 1051q-35 0 -55.5 21.5t-20.5 55.5q0 47 30 79t69 32q35 0 55 -23.5t20 -54.5q0 -51 -29.5 -80.5t-68.5 -29.5z" />
<glyph unicode="&#xa9;" horiz-adv-x="1689" d="M729 684q0 -162 84 -260t221 -98q166 0 252 194q25 20 41 -6q-4 -41 -20.5 -103.5t-34.5 -93.5q-150 -47 -250 -47q-213 0 -330 119t-117 283q0 182 131.5 296.5t327.5 114.5q49 0 103.5 -7t95.5 -16t49 -9q6 -35 13.5 -99.5t11.5 -91.5q-6 -10 -20.5 -12t-22.5 6 q-55 174 -242 174q-139 0 -216 -97t-77 -247zM964.5 -33q-305.5 0 -511 206t-205.5 503t205.5 502.5t511 205.5t511 -205.5t205.5 -502.5t-205.5 -503t-511 -206zM365 678q0 -266 173 -448.5t427 -182.5t427 182.5t173 448.5q0 264 -173 445.5t-427 181.5t-427 -181.5 t-173 -445.5z" />
<glyph unicode="&#xaa;" horiz-adv-x="745" d="M713 1047l45 94q20 8 49 0t39 -23q-127 -276 -213 -508q-12 -35 12 -35q47 0 160 99q25 0 24 -25q-49 -61 -126.5 -109t-149.5 -48q-23 0 -34 13t-11 25q0 14 16 58l45 117l-2 -3l-4 5q-80 -86 -180 -150.5t-160 -64.5q-39 0 -60.5 24.5t-21.5 57t35 113.5t105 169 q104 133 208 188q82 41 154 41q47 1 70 -38zM596 1030q-49 0 -113 -55q-76 -61 -136 -179t-60 -196q0 -27 22 -27q39 0 146 95q68 57 132 151t83 160q-21 51 -74 51z" />
<glyph unicode="&#xab;" horiz-adv-x="819" d="M299 397l82 -297q-4 -12 -16.5 -18t-22.5 -2q-106 193 -180 309q-20 31 12 64l311 307q25 4 29 -27l-205 -287q-18 -22 -10 -49zM586 397l82 -297q-4 -12 -16.5 -18t-22.5 -2q-106 193 -180 309q-20 31 12 64l311 307q25 4 29 -27l-205 -287q-18 -22 -10 -49z" />
<glyph unicode="&#xac;" horiz-adv-x="1146" d="M950 102v422h-768v101h889v-523h-121z" />
<glyph unicode="&#xad;" horiz-adv-x="655" d="M137 471l498 45q16 -20 10 -59t-27 -58l-497 -45q-14 20 -9 59.5t25 57.5z" />
<glyph unicode="&#xae;" horiz-adv-x="634" d="M487 1069v117q0 39 -22 41h-8q-4 6 -3 13t5 9q86 4 114 4q102 0 103 -69q0 -39 -37 -58q-6 -2 0 -14q33 -70 51 -82q14 -10 19 -12q4 0 4 -6t-4 -8q-10 -2 -29 -3q-49 0 -76 43q-2 4 -29 52q-6 12 -18 12t-12 -10v-29q0 -25 4 -33t24 -10l7 -2q2 -2 2 -10t-2 -10 q-10 0 -30 1t-32 1t-31.5 -1t-27.5 -1q-4 2 -5 10t3 10l8 2q16 4 19 11t3 32zM545 1208v-61q0 -10 4 -12t20 -2q41 0 41 41q0 51 -39 51q-26 -1 -26 -17zM573.5 1386q110.5 0 188.5 -75.5t78 -184t-78 -184.5t-188.5 -76t-188.5 76t-78 184.5t78 184t188.5 75.5zM573 1341 q-84 0 -143 -62t-59 -153q0 -88 59 -151.5t143 -63.5t143.5 63.5t59.5 151.5q0 90 -59.5 152.5t-143.5 62.5z" />
<glyph unicode="&#xaf;" d="M838 1053h-379q-16 18 -16.5 46.5t16.5 47.5h379q14 -18 14 -47t-14 -47z" />
<glyph unicode="&#x2c9;" d="M838 1053h-379q-16 18 -16.5 46.5t16.5 47.5h379q14 -18 14 -47t-14 -47z" />
<glyph unicode="&#xb0;" horiz-adv-x="819" d="M616.5 1311q114.5 0 194.5 -74t80 -190q0 -121 -79 -193t-195.5 -72t-195.5 72t-79 193q0 117 80 190.5t194.5 73.5zM616.5 1239q-69.5 0 -114.5 -53t-45 -139t45 -139.5t114.5 -53.5t114.5 53.5t45 139.5t-45 139t-114.5 53z" />
<glyph unicode="&#xb1;" horiz-adv-x="1146" d="M1030 100v-100h-788v100h788zM698 172h-120v338h-336v100h336v324h120v-324h332v-100h-332v-338z" />
<glyph unicode="&#xb2;" d="M430 743h127q78 0 117 13.5t69 58.5q8 6 24.5 4t20.5 -10q-35 -55 -88 -168q-66 4 -208 4h-177q-104 0 -153 -4q-18 12 -6 31q104 63 256 184q4 2 45 36l52 43l49 42q38 33 52 49l41 49q27 33 37 56.5t20.5 54.5t10.5 59q0 55 -37 91t-96 36q-96 0 -193 -119 q-10 -4 -20.5 2.5t-12.5 18.5q43 80 120 128t163 48q100 0 161.5 -52t61.5 -141q0 -82 -58 -149.5t-177 -155.5l-103 -75q-135 -102 -135 -123q0 -11 37 -11z" />
<glyph unicode="&#xb3;" d="M678 1450q80 0 130 -40t50 -101q0 -106 -199 -172q-16 -14 13 -21q66 -16 114 -62t48 -118q0 -113 -84 -201t-199 -129t-225 -41q-70 0 -110 21.5t-38 62.5q0 25 18.5 43.5t45.5 18.5q41 0 69 -56q18 -37 62 -37q125 0 217 90.5t92 211.5q0 63 -40 102t-103 39 q-70 0 -146 -60q-41 18 -16 64l47 16q41 14 72.5 26.5t76.5 35t76 44t53.5 51.5t22.5 60q0 41 -28.5 62.5t-69.5 21.5q-51 0 -105.5 -34.5t-93.5 -85.5q-31 -4 -31 26q43 70 119 116t162 46z" />
<glyph unicode="&#xb4;" d="M883 1165l-258 -227q-12 0 -22.5 8t-10.5 19l192 292q27 43 50 41q27 0 57.5 -30.5t26.5 -53.5q0 -20 -35 -49z" />
<glyph unicode="&#xb5;" horiz-adv-x="1015" d="M535 774l-230 -598q-27 -70 14 -70q47 0 218 170q53 53 100 111.5t90 129.5l66 109q23 38 63 115l43 82q31 6 62.5 -6t37.5 -31l-48 -124l-98 -259l-93 -251q-20 -51 8 -52q27 0 91.5 53.5t109.5 106.5q35 8 37 -29q-43 -80 -162 -170t-197 -90q-25 0 -42 23.5t-9 48.5 l129 350l-4 2q-121 -147 -269.5 -285.5t-205.5 -138.5q-20 0 -33 11q-12 2 -20.5 -9.5t-16.5 -35.5l-31 -87q-29 -78 -28 -186q0 -88 -15 -131q-12 -35 -54 -59.5t-93 -24.5q-53 0 -31 64l424 1130q23 59 0 59q-27 0 -88 -47t-106 -94q-14 -2 -25.5 7.5t-9.5 23.5 q43 68 165 156t189 88q23 0 46.5 -18.5t15.5 -43.5z" />
<glyph unicode="&#x3bc;" horiz-adv-x="1015" d="M535 774l-230 -598q-27 -70 14 -70q47 0 218 170q53 53 100 111.5t90 129.5l66 109q23 38 63 115l43 82q31 6 62.5 -6t37.5 -31l-48 -124l-98 -259l-93 -251q-20 -51 8 -52q27 0 91.5 53.5t109.5 106.5q35 8 37 -29q-43 -80 -162 -170t-197 -90q-25 0 -42 23.5t-9 48.5 l129 350l-4 2q-121 -147 -269.5 -285.5t-205.5 -138.5q-20 0 -33 11q-12 2 -20.5 -9.5t-16.5 -35.5l-31 -87q-29 -78 -28 -186q0 -88 -15 -131q-12 -35 -54 -59.5t-93 -24.5q-53 0 -31 64l424 1130q23 59 0 59q-27 0 -88 -47t-106 -94q-14 -2 -25.5 7.5t-9.5 23.5 q43 68 165 156t189 88q23 0 46.5 -18.5t15.5 -43.5z" />
<glyph unicode="&#xb6;" horiz-adv-x="1024" d="M942 911l-285 -958q-18 -66 -32.5 -107t-44 -101t-61.5 -96t-82 -62.5t-109 -26.5q-76 0 -123 36.5t-47 98.5q0 43 23.5 71.5t51.5 38.5q33 0 61 -19t25 -42q-33 -29 -32 -66q0 -27 17.5 -42t41.5 -15q117 0 205 293l90 297q10 43 4 58.5t-33 17.5q-51 4 -110.5 25.5 t-116.5 61.5t-95 106.5t-38 148.5q0 104 49 196.5t133 151.5q186 129 496 129q203 0 250 -10q10 -6 8 -23.5t-12 -21.5l-86 -15q-86 -14 -105.5 -30.5t-42.5 -94.5z" />
<glyph unicode="&#xb7;" horiz-adv-x="512" d="M311 535q43 0 66.5 -28t23.5 -65q0 -59 -34.5 -95t-81.5 -36q-43 0 -66.5 25.5t-23.5 71.5q0 53 35.5 90t80.5 37z" />
<glyph unicode="&#x2219;" horiz-adv-x="512" d="M311 535q43 0 66.5 -28t23.5 -65q0 -59 -34.5 -95t-81.5 -36q-43 0 -66.5 25.5t-23.5 71.5q0 53 35.5 90t80.5 37z" />
<glyph unicode="&#xb8;" d="M344 0h68l-74 -100q-23 -27 10 -54q76 -61 76 -133q0 -63 -65.5 -110t-143.5 -47q-102 0 -102 65q0 16 14 32.5t37 16.5q20 0 49 -28q31 -31 43 -31q20 0 38.5 15.5t18.5 47.5q0 78 -108 127v9z" />
<glyph unicode="&#xb9;" d="M438 819l119 400q18 66 16 77q2 12 -9 18.5t-34 10.5l-61 10q-16 20 4 35q162 25 258 72q18 4 23 -12q-39 -109 -49 -146l-138 -467q-25 -78 -18.5 -102.5t59.5 -30.5l39 -4q8 -6 6 -20.5t-12 -18.5q-106 4 -195 4q-96 0 -170 -4q-6 4 -6 19.5t6 19.5l37 4 q61 8 80.5 30.5t44.5 104.5z" />
<glyph unicode="&#xba;" horiz-adv-x="671" d="M582 1106q90 0 134 -50t40 -134q-4 -70 -46 -162t-122 -168q-104 -100 -234 -100q-80 0 -130 51t-44 141q4 78 49 169t115 153q115 100 238 100zM297 629q-2 -35 17.5 -59.5t52.5 -24.5q70 0 129 80q61 82 98 178t41 158q4 92 -70 92q-59 0 -125 -80q-55 -68 -98 -176.5 t-45 -167.5z" />
<glyph unicode="&#xbb;" horiz-adv-x="819" d="M104 106l205 287q18 23 10 49l-81 297q4 12 16 18.5t22 2.5q106 -193 181 -309q20 -31 -13 -64l-311 -307q-25 -5 -29 26zM391 106l205 287q18 23 10 49l-82 297q4 12 16.5 18.5t22.5 2.5q106 -193 180 -309q20 -31 -12 -64l-311 -307q-25 -5 -29 26z" />
<glyph unicode="&#xbc;" horiz-adv-x="1679" d="M1059 293h190q27 0 35 5t14 28l68 227q4 18 18 25q45 23 89 22q18 0 20 -10t-6 -29l-72 -239q-6 -18 -3 -23.5t24 -5.5h77q10 -8 5 -27.5t-19 -27.5h-69q-29 0 -36.5 -5.5t-11.5 -23.5l-20 -72q-16 -49 -12 -70.5t49 -27.5l49 -8q8 -6 5 -18.5t-11 -16.5q-139 4 -185 4 q-70 0 -172 -4q-8 4 -7 16.5t9 18.5l50 8q49 8 70.5 25.5t35.5 72.5l19 68q8 20 3 26.5t-32 6.5h-320q-18 0 -12 20q6 18 33 43l606 559q25 25 45 25q41 0 41 -11q0 -4 -8 -12l-586 -538q-18 -20 -12 -25.5t39 -5.5zM389 680l119 399q18 66 16 78q2 12 -9 18.5t-34 10.5 l-61 10q-16 20 4 35q162 25 258 72q18 4 23 -13q-39 -109 -50 -145l-137 -467q-25 -78 -18.5 -102.5t59.5 -30.5l39 -4q8 -6 6 -20.5t-12 -18.5q-106 4 -195 4q-96 0 -170 -4q-6 4 -6 19.5t6 19.5l37 4q61 8 80.5 30.5t44.5 104.5zM324 -29l1140 1368q20 0 40 -14t20 -37 l-1145 -1370q-55 0 -55 53z" />
<glyph unicode="&#xbd;" horiz-adv-x="1679" d="M356 680l119 399q18 66 17 78q2 12 -9.5 18.5t-33.5 10.5l-62 10q-16 20 4 35q162 25 258 72q18 4 23 -13q-39 -109 -49 -145l-138 -467q-25 -78 -18.5 -102.5t59.5 -30.5l39 -4q8 -6 6 -20.5t-12 -18.5q-106 4 -194 4q-96 0 -170 -4q-6 4 -6.5 19.5t6.5 19.5l36 4 q61 8 80.5 30.5t44.5 104.5zM283 -29l1140 1368q20 0 40 -14t20 -37l-1145 -1370q-55 0 -55 53zM1192 98h127q78 0 117 13.5t69 58.5q8 6 24.5 4t20.5 -10q-35 -55 -88 -168q-66 4 -209 4h-176q-104 0 -153 -4q-18 12 -6 31q104 63 256 184q4 2 45 36l52 43l49 42 q38 33 52 49l41 49q27 33 37 56.5t20.5 54t10.5 59.5q0 55 -37 91t-96 36q-96 0 -193 -119q-10 -4 -20.5 2t-12.5 19q43 80 120 128t163 48q100 0 161.5 -52.5t61.5 -140.5q0 -82 -58.5 -149.5t-176.5 -155.5l-103 -76q-135 -100 -135 -122q0 -11 37 -11z" />
<glyph unicode="&#xbe;" horiz-adv-x="1679" d="M393 -29l1141 1368q20 0 39.5 -14t19.5 -37l-1144 -1370q-56 0 -56 53zM659 1311q80 0 130.5 -40t50.5 -102q0 -106 -199 -172q-18 -8 4 -16l8 -4q66 -16 114 -62.5t48 -117.5q0 -113 -84 -201t-198.5 -129t-225.5 -41q-147 0 -147 84q0 25 18.5 43t44.5 18q41 0 70 -55 q18 -37 61 -37q125 0 217.5 90t92.5 211q0 63 -40 102.5t-104 39.5q-70 0 -145 -60q-41 18 -17 64l48 16q41 14 72.5 26.5t76.5 35t76 44t53.5 51t22.5 60.5q0 41 -29 62.5t-70 21.5q-51 0 -105 -34.5t-93 -86.5q-31 -4 -31 27q43 70 118.5 116t161.5 46zM1108 293h190 q27 0 35 5t15 28l67 227q4 18 19 25q45 23 88 22q18 0 20 -10t-6 -29l-72 -239q-6 -18 -3 -23.5t24 -5.5h78q10 -8 5 -27.5t-20 -27.5h-69q-29 0 -36 -5.5t-11 -23.5l-21 -72q-16 -49 -12 -70.5t49 -27.5l49 -8q8 -6 5 -18.5t-11 -16.5q-139 4 -184 4q-70 0 -172 -4 q-8 4 -7.5 16.5t9.5 18.5l49 8q49 8 70.5 25.5t35.5 72.5l19 68q8 20 3 26.5t-32 6.5h-319q-18 0 -13 20q6 18 33 43l606 559q25 25 45 25q41 0 41 -11q0 -4 -8 -12l-586 -538q-18 -20 -12 -25.5t39 -5.5z" />
<glyph unicode="&#xbf;" horiz-adv-x="614" d="M313 -20l-127 -72q-84 -47 -125 -89t-41 -98q0 -66 43 -105.5t101 -39.5q47 0 92 23l45 22q14 0 26.5 -15.5t12.5 -41.5q0 -43 -42 -76t-105 -33q-90 0 -165 90t-75 201q0 182 211 299l137 76q94 53 94 133q0 47 -18 98q12 23 33 10q90 -117 63 -217q-25 -91 -160 -165z M471 807q43 0 66.5 -27.5t23.5 -64.5q0 -59 -34.5 -95t-82.5 -36q-43 0 -66.5 25.5t-23.5 70.5q0 53 36 90t81 37z" />
<glyph unicode="&#xc0;" horiz-adv-x="1220" d="M1130 51l54 -6q8 -10 5 -27.5t-13 -23.5q-94 6 -232 6q-143 0 -235 -6q-14 6 -15.5 25.5t13.5 25.5l63 6q61 6 80 33q16 27 22 127l19 274q4 35 -3 44.5t-40 9.5h-295q-47 0 -61.5 -9.5t-42.5 -54.5l-150 -233q-92 -145 -92 -154q0 -23 47 -31l76 -12q12 -10 10 -27.5 t-14 -23.5q-96 6 -209 6q-117 0 -228 -6q-20 27 5 51l55 6q82 8 147 86q74 90 338 461l361 508q109 152 123 211q31 4 66.5 21.5t59.5 31.5l23 14q25 0 25 -16q0 -14 -3.5 -50t-8.5 -105.5t-9 -145.5l-41 -774q-4 -68 -5 -97.5t2 -62.5t6 -42t19.5 -20.5t30.5 -13.5t47 -6z M600 621h258q27 0 33 7t8 34l33 448q4 53 -4 53q-10 0 -78 -100l-285 -412q-12 -18 -5 -24t40 -6zM1106 1446l-295 125q-33 14 -43 31q-12 25 12 71q20 39 47 39q20 0 47 -24l250 -201q4 -12 -2 -24.5t-16 -16.5z" />
<glyph unicode="&#xc1;" horiz-adv-x="1220" d="M1130 51l54 -6q8 -10 5 -27.5t-13 -23.5q-94 6 -232 6q-143 0 -235 -6q-14 6 -15.5 25.5t13.5 25.5l63 6q61 6 80 33q16 27 22 127l19 274q4 35 -3 44.5t-40 9.5h-295q-47 0 -61.5 -9.5t-42.5 -54.5l-150 -233q-92 -145 -92 -154q0 -23 47 -31l76 -12q12 -10 10 -27.5 t-14 -23.5q-96 6 -209 6q-117 0 -228 -6q-20 27 5 51l55 6q82 8 147 86q74 90 338 461l361 508q109 152 123 211q31 4 66.5 21.5t59.5 31.5l23 14q25 0 25 -16q0 -14 -3.5 -50t-8.5 -105.5t-9 -145.5l-41 -774q-4 -68 -5 -97.5t2 -62.5t6 -42t19.5 -20.5t30.5 -13.5t47 -6z M600 621h258q27 0 33 7t8 34l33 448q4 53 -4 53q-10 0 -78 -100l-285 -412q-12 -18 -5 -24t40 -6zM1262 1571l-295 -125q-10 4 -16.5 16.5t-2.5 24.5l250 201q27 25 47 24q27 0 47 -39q25 -47 13 -71q-10 -17 -43 -31z" />
<glyph unicode="&#xc2;" horiz-adv-x="1220" d="M1130 51l54 -6q8 -10 5 -27.5t-13 -23.5q-94 6 -232 6q-143 0 -235 -6q-14 6 -15.5 25.5t13.5 25.5l63 6q61 6 80 33q16 27 22 127l19 274q4 35 -3 44.5t-40 9.5h-295q-47 0 -61.5 -9.5t-42.5 -54.5l-150 -233q-92 -145 -92 -154q0 -23 47 -31l76 -12q12 -10 10 -27.5 t-14 -23.5q-96 6 -209 6q-117 0 -228 -6q-20 27 5 51l55 6q82 8 147 86q74 90 338 461l361 508q109 152 123 211q31 4 66.5 21.5t59.5 31.5l23 14q25 0 25 -16q0 -14 -3.5 -50t-8.5 -105.5t-9 -145.5l-41 -774q-4 -68 -5 -97.5t2 -62.5t6 -42t19.5 -20.5t30.5 -13.5t47 -6z M600 621h258q27 0 33 7t8 34l33 448q4 53 -4 53q-10 0 -78 -100l-285 -412q-12 -18 -5 -24t40 -6zM1143 1694l180 -224q0 -12 -11.5 -23t-21.5 -11l-178 127q-16 16 -31 16q-12 0 -32 -12l-256 -131q-10 0 -16.5 11t-2.5 23l291 224q25 18 43 18q25 0 35 -18z" />
<glyph unicode="&#xc3;" horiz-adv-x="1220" d="M1130 51l54 -6q8 -10 5 -27.5t-13 -23.5q-94 6 -232 6q-143 0 -235 -6q-14 6 -15.5 25.5t13.5 25.5l63 6q61 6 80 33q16 27 22 127l19 274q4 35 -3 44.5t-40 9.5h-295q-47 0 -61.5 -9.5t-42.5 -54.5l-150 -233q-92 -145 -92 -154q0 -23 47 -31l76 -12q12 -10 10 -27.5 t-14 -23.5q-96 6 -209 6q-117 0 -228 -6q-20 27 5 51l55 6q82 8 147 86q74 90 338 461l361 508q109 152 123 211q31 4 66.5 21.5t59.5 31.5l23 14q25 0 25 -16q0 -14 -3.5 -50t-8.5 -105.5t-9 -145.5l-41 -774q-4 -68 -5 -97.5t2 -62.5t6 -42t19.5 -20.5t30.5 -13.5t47 -6z M600 621h258q27 0 33 7t8 34l33 448q4 53 -4 53q-10 0 -78 -100l-285 -412q-12 -18 -5 -24t40 -6zM1001 1618h103q57 0 82.5 13.5t60.5 62.5q23 12 33 -8q-23 -88 -72 -138q-33 -31 -92 -30h-100q-59 0 -93 -22.5t-63 -76.5q-20 -12 -31 8q6 31 28 82.5t42 69.5 q34 39 102 39z" />
<glyph unicode="&#xc4;" horiz-adv-x="1220" d="M1130 51l54 -6q8 -10 5 -27.5t-13 -23.5q-94 6 -232 6q-143 0 -235 -6q-14 6 -15.5 25.5t13.5 25.5l63 6q61 6 80 33q16 27 22 127l19 274q4 35 -3 44.5t-40 9.5h-295q-47 0 -61.5 -9.5t-42.5 -54.5l-150 -233q-92 -145 -92 -154q0 -23 47 -31l76 -12q12 -10 10 -27.5 t-14 -23.5q-96 6 -209 6q-117 0 -228 -6q-20 27 5 51l55 6q82 8 147 86q74 90 338 461l361 508q109 152 123 211q31 4 66.5 21.5t59.5 31.5l23 14q25 0 25 -16q0 -14 -3.5 -50t-8.5 -105.5t-9 -145.5l-41 -774q-4 -68 -5 -97.5t2 -62.5t6 -42t19.5 -20.5t30.5 -13.5t47 -6z M600 621h258q27 0 33 7t8 34l33 448q4 53 -4 53q-10 0 -78 -100l-285 -412q-12 -18 -5 -24t40 -6zM864 1444q-35 0 -54 20.5t-19 55.5q0 47 28.5 77.5t67.5 30.5q35 0 55.5 -23.5t20.5 -54.5q0 -49 -30 -77.5t-69 -28.5zM1221 1444q-35 0 -54.5 20.5t-19.5 55.5 q0 47 28.5 77.5t67.5 30.5q35 0 55.5 -23.5t20.5 -54.5q0 -49 -28.5 -77.5t-69.5 -28.5z" />
<glyph unicode="&#xc5;" horiz-adv-x="1220" d="M1130 51l54 -6q8 -10 5 -27.5t-13 -23.5q-94 6 -232 6q-143 0 -235 -6q-14 6 -15.5 25.5t13.5 25.5l63 6q61 6 80 33q16 27 22 127l19 274q4 35 -3 44.5t-40 9.5h-295q-47 0 -61.5 -9.5t-42.5 -54.5l-150 -233q-92 -145 -92 -154q0 -23 47 -31l76 -12q12 -10 10 -27.5 t-14 -23.5q-96 6 -209 6q-117 0 -228 -6q-20 27 5 51l55 6q82 8 147 86q74 90 338 461l361 508q109 152 123 211q31 4 66.5 21.5t59.5 31.5l23 14q25 0 25 -16q0 -14 -3.5 -50t-8.5 -105.5t-9 -145.5l-41 -774q-4 -68 -5 -97.5t2 -62.5t6 -42t19.5 -20.5t30.5 -13.5t47 -6z M600 621h258q27 0 33 7t8 34l33 448q4 53 -4 53q-10 0 -78 -100l-285 -412q-12 -18 -5 -24t40 -6zM1040.5 1778q73.5 0 123.5 -49.5t50 -117t-49 -116.5t-124.5 -49t-125 49t-49.5 116.5t50.5 117t124 49.5zM948 1612q0 -47 26.5 -78t65.5 -31q41 0 67 31t26 78t-27 76.5 t-66 29.5t-65.5 -30.5t-26.5 -75.5z" />
<glyph unicode="&#xc6;" horiz-adv-x="1724" d="M1100 1352h514q227 0 289 6q-25 -61 -84 -273q-6 -12 -26.5 -11t-25.5 13q14 78 2 122t-73 61q-70 18 -217 18h-121q-41 0 -53.5 -10t-26.5 -59l-129 -420q-14 -43 -10 -51.5t47 -8.5h102q147 0 197.5 17.5t85.5 83.5l33 61q6 10 27.5 9t23.5 -13q-39 -92 -70 -199 q-29 -92 -53 -198q-10 -12 -27.5 -11.5t-23.5 13.5v57q0 76 -40 92.5t-171 16.5h-103q-43 0 -54 -8.5t-26 -51.5l-86 -276q-31 -102 -38 -140t4 -86q20 -43 227 -43q182 0 263 35t173 178q33 20 47 -12q-16 -55 -60 -144t-81 -126q-35 2 -111.5 3t-115.5 1q-41 0 -122 1 t-120 1h-242q-109 0 -243 -6q-12 8 -12.5 25.5t10.5 25.5l71 12q76 12 106.5 49t78.5 189l100 323q10 33 0 41.5t-55 8.5h-211q-35 0 -53.5 -10.5t-53.5 -53.5l-373 -463q-55 -70 0 -78l89 -14q10 -10 8 -29.5t-13 -25.5q-102 6 -221 6q-90 0 -192 -6q-10 10 -10.5 28.5 t10.5 26.5l45 6q55 8 100 41t125 123q510 586 815 967q49 61 49 78.5t-45 23.5l-116 19q-10 6 -7.5 25.5t17.5 25.5q127 -6 256 -6zM733 739h160q53 0 71.5 10.5t30.5 51.5l125 409q18 61 15 78h-5q-8 -4 -17 -15l-22 -28q-13 -16 -20 -22l-364 -447q-23 -25 -19 -31t45 -6z " />
<glyph unicode="&#xc7;" horiz-adv-x="1323" d="M580 -170l106 143q-205 23 -341 153t-136 392q0 172 81 335t212 281.5t310 184t378 65.5q172 0 336 -65q-61 -152 -92 -275q-6 -12 -29 -11t-27 14q31 139 -19 206.5t-204 67.5q-291 0 -524 -229q-92 -92 -167 -260t-75 -353q0 -219 101.5 -333.5t295.5 -114.5 q266 0 441 286q39 16 49 -14q-41 -125 -133 -289q-27 0 -162 -22q-143 -25 -199 -25q-23 0 -30 2l-39 -49q-25 -33 2 -53q80 -66 80 -125q0 -70 -63.5 -118t-141.5 -48q-102 0 -103 66q0 16 14.5 32.5t37.5 16.5q20 0 49 -29q31 -31 43 -31q20 0 38.5 15.5t18.5 48.5 q0 78 -108 127v8z" />
<glyph unicode="&#xc8;" horiz-adv-x="1159" d="M270 295l238 762q47 143 41 184t-86 57l-41 9q-10 12 -7 28.5t19 22.5q74 -4 109 -4q37 -2 119 -2h387q227 0 288 6q-25 -61 -84 -273q-6 -12 -26.5 -11t-24.5 13q14 78 2 122t-74 61q-70 18 -217 18h-120q-39 0 -52.5 -11t-27.5 -58l-131 -420q-14 -43 -10.5 -51.5 t46.5 -8.5h103q147 0 197.5 17.5t85.5 83.5l32 61q6 10 27.5 9t23.5 -13q-39 -92 -69 -199q-29 -92 -53 -198q-10 -12 -27.5 -11.5t-24.5 13.5v57q0 76 -39.5 92.5t-171.5 16.5h-102q-43 0 -54 -8.5t-26 -51.5l-84 -276q-31 -102 -38 -140t3 -86q20 -43 228 -43 q182 0 263 35t173 178q33 20 47 -12q-16 -55 -60 -144t-81 -126q-35 2 -112 3t-116 1q-41 0 -121.5 1t-119.5 1h-242q-109 0 -244 -6q-12 8 -12 25.5t10 25.5l72 6q74 6 104.5 47t79.5 197zM993 1446l-295 125q-35 14 -43 31q-12 25 13 71q20 39 47 39q18 0 47 -24l250 -201 q4 -12 -2.5 -24.5t-16.5 -16.5z" />
<glyph unicode="&#xc9;" horiz-adv-x="1159" d="M270 295l238 762q47 143 41 184t-86 57l-41 9q-10 12 -7 28.5t19 22.5q74 -4 109 -4q37 -2 119 -2h387q227 0 288 6q-25 -61 -84 -273q-6 -12 -26.5 -11t-24.5 13q14 78 2 122t-74 61q-70 18 -217 18h-120q-39 0 -52.5 -11t-27.5 -58l-131 -420q-14 -43 -10.5 -51.5 t46.5 -8.5h103q147 0 197.5 17.5t85.5 83.5l32 61q6 10 27.5 9t23.5 -13q-39 -92 -69 -199q-29 -92 -53 -198q-10 -12 -27.5 -11.5t-24.5 13.5v57q0 76 -39.5 92.5t-171.5 16.5h-102q-43 0 -54 -8.5t-26 -51.5l-84 -276q-31 -102 -38 -140t3 -86q20 -43 228 -43 q182 0 263 35t173 178q33 20 47 -12q-16 -55 -60 -144t-81 -126q-35 2 -112 3t-116 1q-41 0 -121.5 1t-119.5 1h-242q-109 0 -244 -6q-12 8 -12 25.5t10 25.5l72 6q74 6 104.5 47t79.5 197zM1159 1571l-295 -125q-10 4 -16 16.5t-2 24.5l250 201q27 25 47 24q27 0 47 -39 q25 -47 12 -71q-10 -17 -43 -31z" />
<glyph unicode="&#xca;" horiz-adv-x="1159" d="M270 295l238 762q47 143 41 184t-86 57l-41 9q-10 12 -7 28.5t19 22.5q74 -4 109 -4q37 -2 119 -2h387q227 0 288 6q-25 -61 -84 -273q-6 -12 -26.5 -11t-24.5 13q14 78 2 122t-74 61q-70 18 -217 18h-120q-39 0 -52.5 -11t-27.5 -58l-131 -420q-14 -43 -10.5 -51.5 t46.5 -8.5h103q147 0 197.5 17.5t85.5 83.5l32 61q6 10 27.5 9t23.5 -13q-39 -92 -69 -199q-29 -92 -53 -198q-10 -12 -27.5 -11.5t-24.5 13.5v57q0 76 -39.5 92.5t-171.5 16.5h-102q-43 0 -54 -8.5t-26 -51.5l-84 -276q-31 -102 -38 -140t3 -86q20 -43 228 -43 q182 0 263 35t173 178q33 20 47 -12q-16 -55 -60 -144t-81 -126q-35 2 -112 3t-116 1q-41 0 -121.5 1t-119.5 1h-242q-109 0 -244 -6q-12 8 -12 25.5t10 25.5l72 6q74 6 104.5 47t79.5 197zM1051 1694l180 -224q0 -12 -11.5 -23t-21.5 -11l-178 127q-16 16 -31 16 q-10 0 -33 -12l-256 -131q-10 0 -16 11t-2 23l291 224q25 18 43 18q25 0 35 -18z" />
<glyph unicode="&#xcb;" horiz-adv-x="1159" d="M270 295l238 762q47 143 41 184t-86 57l-41 9q-10 12 -7 28.5t19 22.5q74 -4 109 -4q37 -2 119 -2h387q227 0 288 6q-25 -61 -84 -273q-6 -12 -26.5 -11t-24.5 13q14 78 2 122t-74 61q-70 18 -217 18h-120q-39 0 -52.5 -11t-27.5 -58l-131 -420q-14 -43 -10.5 -51.5 t46.5 -8.5h103q147 0 197.5 17.5t85.5 83.5l32 61q6 10 27.5 9t23.5 -13q-39 -92 -69 -199q-29 -92 -53 -198q-10 -12 -27.5 -11.5t-24.5 13.5v57q0 76 -39.5 92.5t-171.5 16.5h-102q-43 0 -54 -8.5t-26 -51.5l-84 -276q-31 -102 -38 -140t3 -86q20 -43 228 -43 q182 0 263 35t173 178q33 20 47 -12q-16 -55 -60 -144t-81 -126q-35 2 -112 3t-116 1q-41 0 -121.5 1t-119.5 1h-242q-109 0 -244 -6q-12 8 -12 25.5t10 25.5l72 6q74 6 104.5 47t79.5 197zM793 1444q-35 0 -54.5 20.5t-19.5 55.5q0 47 28.5 77.5t67.5 30.5q33 0 54.5 -23.5 t21.5 -54.5q0 -49 -29.5 -77.5t-68.5 -28.5zM1149 1444q-35 0 -54.5 20.5t-19.5 55.5q0 47 29 77.5t67 30.5q33 0 54.5 -23.5t21.5 -54.5q0 -49 -28.5 -77.5t-69.5 -28.5z" />
<glyph unicode="&#xcc;" horiz-adv-x="698" d="M272 295l240 762q27 82 36 117.5t5 66.5t-23.5 40t-64.5 17l-49 9q-10 12 -7 28.5t19 22.5q123 -6 238 -6q98 0 245 6q12 -6 12.5 -24.5t-12.5 -26.5l-55 -9q-86 -14 -113.5 -50t-76.5 -191l-240 -762q-47 -143 -42 -189.5t81 -54.5l63 -6q8 -10 5 -27.5t-13 -23.5 q-152 6 -258 6q-113 0 -235 -6q-12 8 -12.5 25.5t10.5 25.5l63 6q74 8 104.5 48t79.5 196zM764 1446l-295 125q-35 14 -43 31q-12 25 12 71q20 39 47 39q18 0 47 -24l250 -201q4 -12 -2 -24.5t-16 -16.5z" />
<glyph unicode="&#xcd;" horiz-adv-x="698" d="M272 295l240 762q27 82 36 117.5t5 66.5t-23.5 40t-64.5 17l-49 9q-10 12 -7 28.5t19 22.5q123 -6 238 -6q98 0 245 6q12 -6 12.5 -24.5t-12.5 -26.5l-55 -9q-86 -14 -113.5 -50t-76.5 -191l-240 -762q-47 -143 -42 -189.5t81 -54.5l63 -6q8 -10 5 -27.5t-13 -23.5 q-152 6 -258 6q-113 0 -235 -6q-12 8 -12.5 25.5t10.5 25.5l63 6q74 8 104.5 48t79.5 196zM930 1571l-295 -125q-10 4 -16.5 16.5t-2.5 24.5l250 201q27 25 47 24q27 0 48 -39q25 -47 12 -71q-10 -17 -43 -31z" />
<glyph unicode="&#xce;" horiz-adv-x="698" d="M272 295l240 762q27 82 36 117.5t5 66.5t-23.5 40t-64.5 17l-49 9q-10 12 -7 28.5t19 22.5q123 -6 238 -6q98 0 245 6q12 -6 12.5 -24.5t-12.5 -26.5l-55 -9q-86 -14 -113.5 -50t-76.5 -191l-240 -762q-47 -143 -42 -189.5t81 -54.5l63 -6q8 -10 5 -27.5t-13 -23.5 q-152 6 -258 6q-113 0 -235 -6q-12 8 -12.5 25.5t10.5 25.5l63 6q74 8 104.5 48t79.5 196zM803 1694l180 -224q0 -12 -11 -23t-22 -11l-178 127q-16 16 -31 16q-12 0 -32 -12l-256 -131q-10 0 -16.5 11t-2.5 23l291 224q25 18 43 18q25 0 35 -18z" />
<glyph unicode="&#xcf;" horiz-adv-x="698" d="M272 295l240 762q27 82 36 117.5t5 66.5t-23.5 40t-64.5 17l-49 9q-10 12 -7 28.5t19 22.5q123 -6 238 -6q98 0 245 6q12 -6 12.5 -24.5t-12.5 -26.5l-55 -9q-86 -14 -113.5 -50t-76.5 -191l-240 -762q-47 -143 -42 -189.5t81 -54.5l63 -6q8 -10 5 -27.5t-13 -23.5 q-152 6 -258 6q-113 0 -235 -6q-12 8 -12.5 25.5t10.5 25.5l63 6q74 8 104.5 48t79.5 196zM541 1444q-35 0 -54.5 20.5t-19.5 55.5q0 47 28.5 77.5t67.5 30.5q35 0 55.5 -23.5t20.5 -54.5q0 -49 -29.5 -77.5t-68.5 -28.5zM897 1444q-35 0 -54.5 20.5t-19.5 55.5 q0 47 29 77.5t68 30.5q35 0 55 -23.5t20 -54.5q0 -49 -28.5 -77.5t-69.5 -28.5z" />
<glyph unicode="&#xd0;" horiz-adv-x="1525" d="M184 739h226l118 385q27 96 20 122t-54 32l-82 10q-10 6 -10.5 23.5t10.5 25.5q154 20 381 21q170 0 302 -34t213 -88t132 -129t70.5 -149.5t19.5 -158.5q0 -195 -87 -356.5t-237 -264.5q-270 -184 -684 -184q-23 0 -105.5 3t-150.5 3q-119 0 -225 -6q-12 8 -12 25.5 t10 25.5l53 6q72 8 102.5 49t77.5 195l115 373h-219q-13 48 16 71zM844 668h-303l-135 -435q-29 -92 12 -129.5t174 -37.5q168 0 304 54t218 135t137.5 181.5t76 187.5t20.5 160.5t-6.5 130t-38 132t-86 126t-160 86t-250.5 35.5q-47 0 -63.5 -14t-32.5 -66l-148 -475h299 q21 -46 -18 -71z" />
<glyph unicode="&#xd1;" horiz-adv-x="1513" d="M317 477l162 524q68 217 68 244q0 35 -53 45l-82 17q-12 10 -9 28.5t19 22.5q16 -2 48 -3t48 -1q14 0 52 -1t61 -1h127v-29q0 -47 100 -297l207 -510q84 -201 100 -231q16 0 35 57l162 514q98 311 98 379q0 31 -9 42t-42 17l-80 13q-8 14 -4 29.5t16 21.5q109 -6 232 -6 q106 0 194 6q8 -6 9.5 -23.5t-7.5 -27.5l-47 -9q-84 -14 -106 -36q-53 -53 -168 -412l-148 -459q-70 -215 -129 -422q-16 -16 -49 -12q-57 178 -190 500l-162 393l-50 127t-51.5 129l-35.5 82q-10 0 -66 -180l-159 -533q-27 -88 -86 -340q-8 -33 5 -50t32.5 -23.5 t62.5 -10.5l47 -6q8 -10 6 -26.5t-12 -24.5q-92 6 -234 6q-119 0 -215 -6q-10 6 -12 22.5t8 28.5l51 6q63 6 101 35q46 35 155 391zM1085 1618h103q57 0 82.5 13.5t60.5 62.5q23 12 33 -8q-23 -88 -72 -138q-33 -31 -92 -30h-100q-59 0 -93 -22.5t-63 -76.5q-20 -12 -31 8 q6 31 28 82.5t42 69.5q34 39 102 39z" />
<glyph unicode="&#xd2;" horiz-adv-x="1495" d="M1036 1384q215 0 356.5 -145t129.5 -416q-8 -174 -83 -347t-194 -286q-236 -223 -536 -223q-246 0 -376 160t-124 375q4 197 87 380t241 316q218 186 499 186zM1028 1321q-164 0 -307 -123q-127 -106 -229.5 -317t-110.5 -457q-6 -166 75 -279.5t267 -113.5 q188 0 342 164q131 141 204.5 339.5t80.5 378.5q8 193 -79 300.5t-243 107.5zM1161 1446l-295 125q-35 14 -43 31q-12 25 13 71q20 39 47 39q18 0 47 -24l250 -201q4 -12 -2.5 -24.5t-16.5 -16.5z" />
<glyph unicode="&#xd3;" horiz-adv-x="1495" d="M1036 1384q215 0 356.5 -145t129.5 -416q-8 -174 -83 -347t-194 -286q-236 -223 -536 -223q-246 0 -376 160t-124 375q4 197 87 380t241 316q218 186 499 186zM1028 1321q-164 0 -307 -123q-127 -106 -229.5 -317t-110.5 -457q-6 -166 75 -279.5t267 -113.5 q188 0 342 164q131 141 204.5 339.5t80.5 378.5q8 193 -79 300.5t-243 107.5zM1296 1571l-295 -125q-10 4 -16 16.5t-2 24.5l250 201q29 25 47 24q27 0 47 -39q25 -47 12 -71q-8 -17 -43 -31z" />
<glyph unicode="&#xd4;" horiz-adv-x="1495" d="M1036 1384q215 0 356.5 -145t129.5 -416q-8 -174 -83 -347t-194 -286q-236 -223 -536 -223q-246 0 -376 160t-124 375q4 197 87 380t241 316q218 186 499 186zM1028 1321q-164 0 -307 -123q-127 -106 -229.5 -317t-110.5 -457q-6 -166 75 -279.5t267 -113.5 q188 0 342 164q131 141 204.5 339.5t80.5 378.5q8 193 -79 300.5t-243 107.5zM1122 1694l181 -224q0 -12 -11.5 -23t-21.5 -11l-178 127q-16 16 -31 16q-12 0 -33 -12l-256 -131q-10 0 -16 11t-2 23l290 224q25 18 43 18q25 0 35 -18z" />
<glyph unicode="&#xd5;" horiz-adv-x="1495" d="M1036 1384q215 0 356.5 -145t129.5 -416q-8 -174 -83 -347t-194 -286q-236 -223 -536 -223q-246 0 -376 160t-124 375q4 197 87 380t241 316q218 186 499 186zM1028 1321q-164 0 -307 -123q-127 -106 -229.5 -317t-110.5 -457q-6 -166 75 -279.5t267 -113.5 q188 0 342 164q131 141 204.5 339.5t80.5 378.5q8 193 -79 300.5t-243 107.5zM1018 1618h102q57 0 83 13.5t61 62.5q23 12 32 -8q-23 -88 -71 -138q-33 -31 -92 -30h-101q-59 0 -93 -22.5t-62 -76.5q-20 -12 -31 8q6 31 27.5 82.5t41.5 69.5q35 39 103 39z" />
<glyph unicode="&#xd6;" horiz-adv-x="1495" d="M1036 1384q215 0 356.5 -145t129.5 -416q-8 -174 -83 -347t-194 -286q-236 -223 -536 -223q-246 0 -376 160t-124 375q4 197 87 380t241 316q218 186 499 186zM1028 1321q-164 0 -307 -123q-127 -106 -229.5 -317t-110.5 -457q-6 -166 75 -279.5t267 -113.5 q188 0 342 164q131 141 204.5 339.5t80.5 378.5q8 193 -79 300.5t-243 107.5zM877 1444q-35 0 -54.5 20.5t-19.5 55.5q0 47 28.5 77.5t67.5 30.5q35 0 55.5 -23.5t20.5 -54.5q0 -49 -29.5 -77.5t-68.5 -28.5zM1233 1444q-35 0 -54.5 20.5t-19.5 55.5q0 47 29 77.5t67 30.5 q35 0 55.5 -23.5t20.5 -54.5q0 -49 -28.5 -77.5t-69.5 -28.5z" />
<glyph unicode="&#xd7;" horiz-adv-x="1146" d="M1016 715l-303 -307l303 -306l-76 -79l-305 307l-303 -307l-76 79l301 306l-301 301l76 79l303 -303l305 308z" />
<glyph unicode="&#xd8;" horiz-adv-x="1495" d="M1317 1135l-885 -959q80 -145 281 -145q203 0 354 162q264 289 283 749q4 115 -33 193zM401 254l879 948q-90 119 -252 119q-164 0 -307 -123q-127 -106 -229.5 -317t-110.5 -461q-5 -92 20 -166zM1542 1380l-139 -153q131 -147 119 -404q-8 -170 -82 -343t-195 -290 q-236 -223 -536 -223q-217 0 -349 131l-174 -188q-20 2 -35.5 19.5t-15.5 37.5l176 191q-109 147 -102 344q4 197 87 380t241 316q219 186 499 186q182 0 314 -106l139 156q18 0 34.5 -18t18.5 -36z" />
<glyph unicode="&#xd9;" horiz-adv-x="1503" d="M326 545l159 512q33 106 39 148t-11 63.5t-75 31.5l-51 9q-10 8 -8 25.5t16 23.5q129 -6 240 -6q102 0 252 6q10 -6 10 -23.5t-12 -25.5l-58 -9q-84 -12 -111.5 -49t-76.5 -194l-147 -473q-168 -543 266 -543q342 0 506 508l94 289q61 190 82 317q16 68 4 101.5t-82 43.5 l-57 9q-10 10 -7.5 26.5t15.5 22.5q150 -6 219 -6q102 0 221 6q12 -8 12 -24.5t-12 -24.5l-47 -9q-74 -12 -101.5 -39.5t-60.5 -111.5q-20 -55 -100 -311l-94 -301q-96 -303 -240 -428q-160 -141 -387 -142q-281 0 -383 147.5t-14 430.5zM1186 1446l-295 125q-35 14 -43 31 q-12 25 12 71q20 39 47 39q18 0 47 -24l250 -201q4 -12 -2 -24.5t-16 -16.5z" />
<glyph unicode="&#xda;" horiz-adv-x="1503" d="M326 545l159 512q33 106 39 148t-11 63.5t-75 31.5l-51 9q-10 8 -8 25.5t16 23.5q129 -6 240 -6q102 0 252 6q10 -6 10 -23.5t-12 -25.5l-58 -9q-84 -12 -111.5 -49t-76.5 -194l-147 -473q-168 -543 266 -543q342 0 506 508l94 289q61 190 82 317q16 68 4 101.5t-82 43.5 l-57 9q-10 10 -7.5 26.5t15.5 22.5q150 -6 219 -6q102 0 221 6q12 -8 12 -24.5t-12 -24.5l-47 -9q-74 -12 -101.5 -39.5t-60.5 -111.5q-20 -55 -100 -311l-94 -301q-96 -303 -240 -428q-160 -141 -387 -142q-281 0 -383 147.5t-14 430.5zM1290 1571l-295 -125 q-10 4 -16 16.5t-2 24.5l250 201q27 25 47 24q27 0 47 -39q25 -47 12 -71q-10 -17 -43 -31z" />
<glyph unicode="&#xdb;" horiz-adv-x="1503" d="M326 545l159 512q33 106 39 148t-11 63.5t-75 31.5l-51 9q-10 8 -8 25.5t16 23.5q129 -6 240 -6q102 0 252 6q10 -6 10 -23.5t-12 -25.5l-58 -9q-84 -12 -111.5 -49t-76.5 -194l-147 -473q-168 -543 266 -543q342 0 506 508l94 289q61 190 82 317q16 68 4 101.5t-82 43.5 l-57 9q-10 10 -7.5 26.5t15.5 22.5q150 -6 219 -6q102 0 221 6q12 -8 12 -24.5t-12 -24.5l-47 -9q-74 -12 -101.5 -39.5t-60.5 -111.5q-20 -55 -100 -311l-94 -301q-96 -303 -240 -428q-160 -141 -387 -142q-281 0 -383 147.5t-14 430.5zM1208 1694l181 -224 q0 -12 -11.5 -23t-21.5 -11l-178 127q-16 16 -31 16q-12 0 -33 -12l-256 -131q-10 0 -16 11t-2 23l290 224q25 18 44 18q24 0 34 -18z" />
<glyph unicode="&#xdc;" horiz-adv-x="1503" d="M326 545l159 512q33 106 39 148t-11 63.5t-75 31.5l-51 9q-10 8 -8 25.5t16 23.5q129 -6 240 -6q102 0 252 6q10 -6 10 -23.5t-12 -25.5l-58 -9q-84 -12 -111.5 -49t-76.5 -194l-147 -473q-168 -543 266 -543q342 0 506 508l94 289q61 190 82 317q16 68 4 101.5t-82 43.5 l-57 9q-10 10 -7.5 26.5t15.5 22.5q150 -6 219 -6q102 0 221 6q12 -8 12 -24.5t-12 -24.5l-47 -9q-74 -12 -101.5 -39.5t-60.5 -111.5q-20 -55 -100 -311l-94 -301q-96 -303 -240 -428q-160 -141 -387 -142q-281 0 -383 147.5t-14 430.5zM954 1444q-35 0 -54 20.5t-19 55.5 q0 47 28.5 77.5t67.5 30.5q35 0 55.5 -23.5t20.5 -54.5q0 -49 -30 -77.5t-69 -28.5zM1311 1444q-35 0 -54.5 20.5t-19.5 55.5q0 47 28.5 77.5t67.5 30.5q35 0 55.5 -23.5t20.5 -54.5q0 -49 -28.5 -77.5t-69.5 -28.5z" />
<glyph unicode="&#xdd;" horiz-adv-x="1155" d="M612 1186l105 -481q8 -39 19.5 -39t41.5 36l252 304q197 242 197 258q0 25 -60 34l-51 9q-10 8 -9 25.5t13 25.5q121 -6 213 -6q84 0 185 6q10 -6 10 -24.5t-10 -26.5l-43 -9q-82 -16 -115 -47q-84 -76 -201 -211l-233 -274q-109 -127 -141.5 -179t-69.5 -169l-39 -123 q-35 -111 -42 -156t9 -64.5t72 -23.5l73 -6q10 -8 7.5 -27.5t-13.5 -23.5q-172 6 -274 6q-106 0 -244 -6q-12 8 -12 25.5t10 25.5l74 6q72 6 101.5 46t82.5 198l41 121q29 82 32 124t-18 138l-102 444q-23 100 -43 134t-74 42l-51 9q-8 10 -6 27.5t12 23.5q115 -6 217 -6 q121 0 220 6q10 -8 10 -24.5t-10 -26.5l-60 -9q-57 -8 -73.5 -30.5t-2.5 -81.5zM1157 1571l-295 -125q-10 4 -16 16.5t-2 24.5l250 201q29 25 47 24q27 0 47 -39q25 -47 12 -71q-8 -17 -43 -31z" />
<glyph unicode="&#xde;" horiz-adv-x="1146" d="M270 295l240 762q27 82 36 117.5t5 66.5t-23.5 40t-64.5 17l-49 9q-25 35 12 51q123 -6 238 -6q127 0 245 6q10 -6 10.5 -24.5t-10.5 -26.5l-45 -9q-92 -16 -121.5 -52t-74.5 -185h73q242 0 351 -90q100 -82 100 -219q0 -109 -57.5 -192t-145.5 -126t-181 -62.5 t-177 -13.5q-12 4 -14.5 18.5t8.5 22.5q88 16 153 39q100 37 170 123t70 197q0 240 -268 239q-72 0 -94.5 -12t-34.5 -53l-197 -637q-47 -143 -42 -191.5t81 -52.5l92 -6q10 -10 7 -27.5t-13 -23.5q-197 6 -289 6q-115 0 -231 -6q-12 8 -12.5 25.5t12.5 25.5l59 6 q74 8 103.5 48t78.5 196z" />
<glyph unicode="&#xdf;" horiz-adv-x="952" d="M1053 1464q88 0 154.5 -55t66.5 -131q0 -53 -46 -107.5t-91 -84t-132 -77.5t-104 -59q-145 -88 -145 -213q0 -70 63.5 -229.5t63.5 -231.5q0 -125 -95 -213q-37 -37 -91 -64.5t-83 -27.5q-57 0 -93 38t-36 75t17 59q18 27 41 4q72 -72 129 -71q37 0 70.5 29.5t33.5 82.5 q0 35 -76 207q-78 176 -77 269q0 109 72.5 189.5t260.5 205.5q80 53 121 112.5t41 92.5q0 61 -44 93t-118 32q-104 0 -205.5 -89.5t-173 -214t-122.5 -272.5q-76 -213 -157 -609.5t-122 -498.5q-43 -106 -131 -181t-192 -75q-72 0 -107 37t-35 74q0 53 49 82q23 12 52 -29 q20 -31 56 -55.5t71 -24.5q45 0 77 55q47 80 113 457q88 504 190 791q125 348 390 524q156 104 344 104z" />
<glyph unicode="&#xe0;" horiz-adv-x="909" d="M766 752l57 131q27 12 58.5 0.5t42.5 -31.5q-174 -430 -275 -715q-16 -47 15 -47q55 0 210 137q29 0 29 -26q-70 -92 -167 -161t-177 -69q-31 0 -45 18.5t-14 37.5q0 20 20 79l68 185l-6 2q-106 -133 -241.5 -227.5t-209.5 -94.5q-41 0 -65.5 35t-24.5 80q0 49 45 161.5 t135 235.5q139 190 271 265q104 59 184 59q25 0 49 -12q27 -12 41 -43zM612 729q-57 0 -145 -80q-96 -86 -176 -253t-80 -277q0 -39 31 -39q53 0 198 133q207 193 275 442q-27 74 -103 74zM616 1266l107 -318q0 -10 -13.5 -17t-23.5 -5l-178 254q-29 41 -29 57q0 25 35 47 q37 27 64 27q24 0 38 -45z" />
<glyph unicode="&#xe1;" horiz-adv-x="909" d="M766 752l57 131q27 12 58.5 0.5t42.5 -31.5q-174 -430 -275 -715q-16 -47 15 -47q55 0 210 137q29 0 29 -26q-70 -92 -167 -161t-177 -69q-31 0 -45 18.5t-14 37.5q0 20 20 79l68 185l-6 2q-106 -133 -241.5 -227.5t-209.5 -94.5q-41 0 -65.5 35t-24.5 80q0 49 45 161.5 t135 235.5q139 190 271 265q104 59 184 59q25 0 49 -12q27 -12 41 -43zM612 729q-57 0 -145 -80q-96 -86 -176 -253t-80 -277q0 -39 31 -39q53 0 198 133q207 193 275 442q-27 74 -103 74zM969 1165l-258 -227q-12 0 -22.5 8t-10.5 19l192 292q27 43 50 41q27 0 57.5 -30.5 t26.5 -53.5q0 -20 -35 -49z" />
<glyph unicode="&#xe2;" horiz-adv-x="909" d="M766 752l57 131q27 12 58.5 0.5t42.5 -31.5q-174 -430 -275 -715q-16 -47 15 -47q55 0 210 137q29 0 29 -26q-70 -92 -167 -161t-177 -69q-31 0 -45 18.5t-14 37.5q0 20 20 79l68 185l-6 2q-106 -133 -241.5 -227.5t-209.5 -94.5q-41 0 -65.5 35t-24.5 80q0 49 45 161.5 t135 235.5q139 190 271 265q104 59 184 59q25 0 49 -12q27 -12 41 -43zM612 729q-57 0 -145 -80q-96 -86 -176 -253t-80 -277q0 -39 31 -39q53 0 198 133q207 193 275 442q-27 74 -103 74zM797 1292l77 -331q-12 -27 -43 -21l-86 188q-12 27 -18 27q-10 0 -33 -22l-190 -197 q-12 -2 -23.5 6t-11.5 23l250 335q25 31 43 31q25 0 35 -39z" />
<glyph unicode="&#xe3;" horiz-adv-x="909" d="M766 752l57 131q27 12 58.5 0.5t42.5 -31.5q-174 -430 -275 -715q-16 -47 15 -47q55 0 210 137q29 0 29 -26q-70 -92 -167 -161t-177 -69q-31 0 -45 18.5t-14 37.5q0 20 20 79l68 185l-6 2q-106 -133 -241.5 -227.5t-209.5 -94.5q-41 0 -65.5 35t-24.5 80q0 49 45 161.5 t135 235.5q139 190 271 265q104 59 184 59q25 0 49 -12q27 -12 41 -43zM612 729q-57 0 -145 -80q-96 -86 -176 -253t-80 -277q0 -39 31 -39q53 0 198 133q207 193 275 442q-27 74 -103 74zM670 1163h102q59 0 85 12.5t58 59.5q23 12 33 -8q-23 -88 -71 -137q-33 -31 -93 -31 h-100q-59 0 -93 -22.5t-63 -75.5q-20 -12 -30 8q6 31 27.5 82t41.5 69q37 43 103 43z" />
<glyph unicode="&#xe4;" horiz-adv-x="909" d="M766 752l57 131q27 12 58.5 0.5t42.5 -31.5q-174 -430 -275 -715q-16 -47 15 -47q55 0 210 137q29 0 29 -26q-70 -92 -167 -161t-177 -69q-31 0 -45 18.5t-14 37.5q0 20 20 79l68 185l-6 2q-106 -133 -241.5 -227.5t-209.5 -94.5q-41 0 -65.5 35t-24.5 80q0 49 45 161.5 t135 235.5q139 190 271 265q104 59 184 59q25 0 49 -12q27 -12 41 -43zM612 729q-57 0 -145 -80q-96 -86 -176 -253t-80 -277q0 -39 31 -39q53 0 198 133q207 193 275 442q-27 74 -103 74zM543 1042q-35 0 -55.5 21.5t-20.5 56.5q0 47 29.5 79t68.5 32q35 0 55.5 -23.5 t20.5 -54.5q0 -51 -29.5 -81t-68.5 -30zM860 1042q-35 0 -55.5 21.5t-20.5 56.5q0 47 30 79t69 32q35 0 55 -23.5t20 -54.5q0 -51 -29.5 -81t-68.5 -30z" />
<glyph unicode="&#xe5;" horiz-adv-x="909" d="M766 752l57 131q27 12 58.5 0.5t42.5 -31.5q-174 -430 -275 -715q-16 -47 15 -47q55 0 210 137q29 0 29 -26q-70 -92 -167 -161t-177 -69q-31 0 -45 18.5t-14 37.5q0 20 20 79l68 185l-6 2q-106 -133 -241.5 -227.5t-209.5 -94.5q-41 0 -65.5 35t-24.5 80q0 49 45 161.5 t135 235.5q139 190 271 265q104 59 184 59q25 0 49 -12q27 -12 41 -43zM612 729q-57 0 -145 -80q-96 -86 -176 -253t-80 -277q0 -39 31 -39q53 0 198 133q207 193 275 442q-27 74 -103 74zM717 1307q74 0 124 -49.5t50 -117t-49 -116.5t-125 -49t-125 49t-49 116.5t50 117 t124 49.5zM625 1141q0 -47 26.5 -78t65.5 -31q41 0 66.5 31t25.5 78t-26.5 76.5t-65.5 29.5t-65.5 -30.5t-26.5 -75.5z" />
<glyph unicode="&#xe6;" horiz-adv-x="978" d="M838 836q76 0 113.5 -40t37.5 -89q0 -90 -90 -183.5t-299 -255.5q0 -100 38 -145t89 -45q33 0 65.5 21.5t47 38t47.5 57.5q35 10 41 -25q-63 -111 -142 -155t-133 -44q-135 0 -178 176q-84 -78 -176 -127t-145 -49q-43 0 -78 27t-35 82q0 76 58.5 183.5t123.5 182.5 q129 145 348 279l43 28q37 24 54 31l48 24q32 15 61.5 21.5t60.5 6.5zM248 82q86 0 215 129q-10 223 90 430l-4 4q-139 -80 -242.5 -242.5t-103.5 -263.5q0 -57 45 -57zM791 774q-82 0 -138.5 -142.5t-56.5 -297.5q119 109 189.5 213t70.5 162q1 65 -65 65z" />
<glyph unicode="&#xe7;" horiz-adv-x="692" d="M141 -190l119 163q-6 -2 -14 -2q-66 0 -110 53.5t-44 163.5q0 113 67.5 264.5t192.5 264.5q131 119 266 119q74 0 113 -35t39 -86q0 -53 -36 -75t-64 -22q-35 0 -41 37q0 4 -2 21.5t-3 24t-4.5 20.5t-8.5 19t-12 13.5t-17.5 11.5t-24.5 3q-80 0 -172 -137 q-53 -80 -93 -196t-44 -228q-6 -133 88 -133q86 0 221 125q14 2 22.5 -8.5t4.5 -26.5q-102 -133 -244 -176l-66 -88q-23 -27 11 -54q76 -61 75 -133q0 -63 -65.5 -110t-142.5 -47q-102 0 -103 65q0 16 14.5 32.5t36.5 16.5q20 0 50 -28q31 -31 43 -31q20 0 38.5 15.5 t18.5 47.5q0 78 -109 127v9z" />
<glyph unicode="&#xe8;" horiz-adv-x="708" d="M641 836q57 0 93 -39t36 -84q0 -111 -129 -193t-369 -147q-29 -70 -28 -183q0 -51 27.5 -83.5t70.5 -32.5q51 0 94 25.5t121 93.5q14 0 22.5 -10.5t4.5 -24.5q-152 -186 -328 -187q-84 0 -125 64.5t-41 150.5q0 117 77 276t228 275q127 99 246 99zM600 772 q-66 0 -156 -98q-94 -102 -151 -240q98 31 156.5 63.5t117.5 88.5q41 39 60.5 79t19.5 60q0 47 -47 47zM555 1272l104 -322q0 -12 -13 -18t-23 -4l-177 258q-29 41 -28 57q0 25 35 47q37 27 63 27q25 0 39 -45z" />
<glyph unicode="&#xe9;" horiz-adv-x="708" d="M641 836q57 0 93 -39t36 -84q0 -111 -129 -193t-369 -147q-29 -70 -28 -183q0 -51 27.5 -83.5t70.5 -32.5q51 0 94 25.5t121 93.5q14 0 22.5 -10.5t4.5 -24.5q-152 -186 -328 -187q-84 0 -125 64.5t-41 150.5q0 117 77 276t228 275q127 99 246 99zM600 772 q-66 0 -156 -98q-94 -102 -151 -240q98 31 156.5 63.5t117.5 88.5q41 39 60.5 79t19.5 60q0 47 -47 47zM825 1161l-258 -227q-12 0 -22 8t-10 19l192 292q27 43 49 41q27 0 57.5 -30.5t26.5 -53.5q0 -20 -35 -49z" />
<glyph unicode="&#xea;" horiz-adv-x="708" d="M641 836q57 0 93 -39t36 -84q0 -111 -129 -193t-369 -147q-29 -70 -28 -183q0 -51 27.5 -83.5t70.5 -32.5q51 0 94 25.5t121 93.5q14 0 22.5 -10.5t4.5 -24.5q-152 -186 -328 -187q-84 0 -125 64.5t-41 150.5q0 117 77 276t228 275q127 99 246 99zM600 772 q-66 0 -156 -98q-94 -102 -151 -240q98 31 156.5 63.5t117.5 88.5q41 39 60.5 79t19.5 60q0 47 -47 47zM721 1292l78 -331q-12 -27 -43 -21l-86 188q-12 27 -19 27q-10 0 -33 -22l-190 -197q-12 -2 -23.5 6t-11.5 23l250 335q25 31 43 31q25 0 35 -39z" />
<glyph unicode="&#xeb;" horiz-adv-x="708" d="M641 836q57 0 93 -39t36 -84q0 -111 -129 -193t-369 -147q-29 -70 -28 -183q0 -51 27.5 -83.5t70.5 -32.5q51 0 94 25.5t121 93.5q14 0 22.5 -10.5t4.5 -24.5q-152 -186 -328 -187q-84 0 -125 64.5t-41 150.5q0 117 77 276t228 275q127 99 246 99zM600 772 q-66 0 -156 -98q-94 -102 -151 -240q98 31 156.5 63.5t117.5 88.5q41 39 60.5 79t19.5 60q0 47 -47 47zM444 1040q-35 0 -55 21.5t-20 56.5q0 47 29.5 79t68.5 32q35 0 55.5 -23.5t20.5 -54.5q0 -51 -30 -81t-69 -30zM762 1040q-35 0 -55.5 21.5t-20.5 56.5q0 47 29.5 79 t68.5 32q35 0 55.5 -23.5t20.5 -54.5q0 -51 -29.5 -81t-68.5 -30z" />
<glyph unicode="&#xec;" horiz-adv-x="569" d="M106 45l261 621q18 39 -5 39q-37 0 -169 -109q-14 2 -22.5 12t-4.5 23q78 90 179 147.5t159 57.5q12 0 33 -21q18 -16 -13 -90l-243 -582q-18 -45 6 -45q27 0 94.5 47.5t118.5 104.5q31 -4 30 -35q-31 -57 -159.5 -150.5t-223.5 -93.5q-16 0 -32 19q-23 24 -9 55z M457 1266l94 -322q0 -10 -13.5 -17t-23.5 -5l-166 258q-29 41 -29 57q0 25 35 47q37 27 64 27q25 0 39 -45z" />
<glyph unicode="&#xed;" horiz-adv-x="569" d="M106 45l261 621q18 39 -5 39q-37 0 -169 -109q-14 2 -22.5 12t-4.5 23q78 90 179 147.5t159 57.5q12 0 33 -21q18 -16 -13 -90l-243 -582q-18 -45 6 -45q27 0 94.5 47.5t118.5 104.5q31 -4 30 -35q-31 -57 -159.5 -150.5t-223.5 -93.5q-16 0 -32 19q-23 24 -9 55z M735 1159l-258 -227q-12 0 -22.5 8t-10.5 18l193 293q27 43 49 41q27 0 57.5 -30.5t26.5 -53.5q0 -20 -35 -49z" />
<glyph unicode="&#xee;" horiz-adv-x="569" d="M106 45l261 621q18 39 -5 39q-37 0 -169 -109q-14 2 -22.5 12t-4.5 23q78 90 179 147.5t159 57.5q12 0 33 -21q18 -16 -13 -90l-243 -582q-18 -45 6 -45q27 0 94.5 47.5t118.5 104.5q31 -4 30 -35q-31 -57 -159.5 -150.5t-223.5 -93.5q-16 0 -32 19q-23 24 -9 55z M608 1286l78 -332q-12 -27 -43 -20l-86 188q-12 27 -18 27q-10 0 -33 -23l-191 -196q-12 -2 -23 6t-11 22l249 336q25 31 43 31q25 0 35 -39z" />
<glyph unicode="&#xef;" horiz-adv-x="569" d="M106 45l261 621q18 39 -5 39q-37 0 -169 -109q-14 2 -22.5 12t-4.5 23q78 90 179 147.5t159 57.5q12 0 33 -21q18 -16 -13 -90l-243 -582q-18 -45 6 -45q27 0 94.5 47.5t118.5 104.5q31 -4 30 -35q-31 -57 -159.5 -150.5t-223.5 -93.5q-16 0 -32 19q-23 24 -9 55z M383 1040q-35 0 -55.5 21.5t-20.5 56.5q0 47 30 79t69 32q35 0 55 -23.5t20 -54.5q0 -51 -29.5 -81t-68.5 -30zM700 1040q-35 0 -55 21.5t-20 56.5q0 47 29.5 79t68.5 32q35 0 55.5 -23.5t20.5 -54.5q0 -51 -30 -81t-69 -30z" />
<glyph unicode="&#xf0;" horiz-adv-x="827" d="M1010 1262l-252 -127q80 -193 73 -394q-4 -176 -65 -344t-174 -284q-137 -141 -291 -142q-100 0 -156.5 72t-48.5 201q6 102 66.5 232t156.5 226q135 133 273 134q49 0 94 -23q10 129 -41 268l-256 -129q-16 10 -22.5 31t2.5 35l254 129q-31 94 -91.5 175t-142.5 108 q-6 25 19 34q217 -55 319 -268l260 131q20 -8 26.5 -27.5t-3.5 -37.5zM600 774q-88 0 -162 -98q-84 -113 -141 -267.5t-64 -244.5q-4 -55 18.5 -93t65.5 -38q82 0 162 106q66 88 128.5 252t66.5 248q8 135 -74 135z" />
<glyph unicode="&#xf1;" horiz-adv-x="1026" d="M502 752l-140 -359l7 -4q123 186 259 316.5t242 130.5q115 0 115 -111q0 -49 -33 -143q-16 -45 -62 -154l-86 -202q-40 -93 -42 -97q-16 -39 4 -39q27 0 88 43t104 96q33 4 33 -28q-57 -96 -161.5 -163t-190.5 -67q-14 0 -31.5 16.5t-17.5 35t49 135.5q16 35 77.5 190.5 t88.5 212.5q43 96 43 150q0 49 -33 49q-37 0 -118 -69.5t-165 -174.5q-51 -63 -107 -154.5l-90 -151.5l-116 -214q-14 -25 -37 -25q-16 0 -30.5 3t-25.5 16.5t-3 34.5l237 645q18 47 -6 47q-70 0 -186 -103q-29 0 -25 31q59 82 144.5 136.5t161.5 54.5q37 0 52 -24.5 t1 -59.5zM690 1174h103q59 0 84.5 12t58.5 59q23 12 33 -8q-23 -88 -72 -137q-33 -31 -92 -31h-100q-59 0 -93 -22.5t-63 -75.5q-20 -12 -31 8q6 31 27.5 82t42.5 69q36 44 102 44z" />
<glyph unicode="&#xf2;" horiz-adv-x="831" d="M602 836q106 0 160.5 -72t48.5 -186q-6 -100 -59.5 -229.5t-157.5 -235.5q-137 -141 -293 -142q-100 0 -156.5 72t-48.5 201q6 104 65.5 234t157.5 224q140 134 283 134zM588 774q-76 0 -150 -98q-84 -113 -141 -267.5t-64 -244.5q-4 -55 18.5 -93t65.5 -38q82 0 162 106 q66 88 126.5 252t64.5 248q4 135 -82 135zM578 1266l100 -318q0 -10 -13.5 -17t-23.5 -5l-172 254q-29 41 -29 57q0 25 35 47q37 27 64 27q25 0 39 -45z" />
<glyph unicode="&#xf3;" horiz-adv-x="831" d="M602 836q106 0 160.5 -72t48.5 -186q-6 -100 -59.5 -229.5t-157.5 -235.5q-137 -141 -293 -142q-100 0 -156.5 72t-48.5 201q6 104 65.5 234t157.5 224q140 134 283 134zM588 774q-76 0 -150 -98q-84 -113 -141 -267.5t-64 -244.5q-4 -55 18.5 -93t65.5 -38q82 0 162 106 q66 88 126.5 252t64.5 248q4 135 -82 135zM850 1153l-258 -227q-12 0 -22.5 8t-10.5 18l193 293q27 43 49 41q27 0 57.5 -30.5t26.5 -53.5q0 -20 -35 -49z" />
<glyph unicode="&#xf4;" horiz-adv-x="831" d="M602 836q106 0 160.5 -72t48.5 -186q-6 -100 -59.5 -229.5t-157.5 -235.5q-137 -141 -293 -142q-100 0 -156.5 72t-48.5 201q6 104 65.5 234t157.5 224q140 134 283 134zM588 774q-76 0 -150 -98q-84 -113 -141 -267.5t-64 -244.5q-4 -55 18.5 -93t65.5 -38q82 0 162 106 q66 88 126.5 252t64.5 248q4 135 -82 135zM729 1292l78 -331q-12 -27 -43 -21l-80 199q-10 27 -18 26q-10 0 -33 -22l-197 -207q-12 -2 -23.5 6t-11.5 23l250 335q25 31 43 31q25 0 35 -39z" />
<glyph unicode="&#xf5;" horiz-adv-x="831" d="M602 836q106 0 160.5 -72t48.5 -186q-6 -100 -59.5 -229.5t-157.5 -235.5q-137 -141 -293 -142q-100 0 -156.5 72t-48.5 201q6 104 65.5 234t157.5 224q140 134 283 134zM588 774q-76 0 -150 -98q-84 -113 -141 -267.5t-64 -244.5q-4 -55 18.5 -93t65.5 -38q82 0 162 106 q66 88 126.5 252t64.5 248q4 135 -82 135zM616 1174h103q59 0 84.5 12t58.5 59q23 12 33 -8q-23 -88 -72 -137q-33 -31 -92 -31h-100q-59 0 -93 -22.5t-63 -75.5q-20 -12 -31 8q6 31 28 82t42 69q36 44 102 44z" />
<glyph unicode="&#xf6;" horiz-adv-x="831" d="M602 836q106 0 160.5 -72t48.5 -186q-6 -100 -59.5 -229.5t-157.5 -235.5q-137 -141 -293 -142q-100 0 -156.5 72t-48.5 201q6 104 65.5 234t157.5 224q140 134 283 134zM588 774q-76 0 -150 -98q-84 -113 -141 -267.5t-64 -244.5q-4 -55 18.5 -93t65.5 -38q82 0 162 106 q66 88 126.5 252t64.5 248q4 135 -82 135zM502 1042q-35 0 -55.5 21.5t-20.5 56.5q0 47 29.5 79t68.5 32q35 0 55.5 -23.5t20.5 -54.5q0 -51 -29.5 -81t-68.5 -30zM819 1042q-35 0 -55.5 21.5t-20.5 56.5q0 47 30 79t69 32q35 0 55.5 -23.5t20.5 -54.5q0 -51 -30 -81 t-69 -30z" />
<glyph unicode="&#xf7;" horiz-adv-x="1146" d="M631 262q35 0 62.5 -26.5t27.5 -63.5t-26.5 -64.5t-63.5 -27.5q-39 0 -65.5 26.5t-26.5 65.5q0 37 26.5 63.5t65.5 26.5zM631 580q-39 0 -65.5 26.5t-26.5 65.5q0 37 26.5 63.5t65.5 26.5q35 0 62.5 -26.5t27.5 -63.5t-26.5 -64.5t-63.5 -27.5zM1030 471v-100h-788v100 h788z" />
<glyph unicode="&#xf8;" horiz-adv-x="831" d="M231 111l412 645q-16 18 -55 18q-80 0 -160 -100q-88 -111 -148.5 -266.5t-60.5 -243.5q0 -29 8 -49zM672 692l-412 -637q27 -23 59 -22q92 0 175 106q68 88 130 252t62 248q0 23 -6 53h-8zM803 891l-66 -103q80 -63 74 -210q-6 -100 -58.5 -229.5t-156.5 -235.5 q-137 -141 -293 -142q-45 0 -88 17l-61 -97q-14 -6 -31 4.5t-21 26.5l64 98q-82 72 -70 224q6 102 66.5 232t156.5 226q139 133 285 134q51 0 82 -15l64 97q43 8 53 -27z" />
<glyph unicode="&#xf9;" horiz-adv-x="1015" d="M535 774l-230 -598q-27 -70 14 -70q45 0 220 170q53 53 100 113t89 127.5t66.5 110.5t60.5 112.5t44 83.5q31 6 62.5 -6t37.5 -31l-48 -124l-98 -259l-93 -251q-20 -51 8 -52q27 0 91.5 53.5t109.5 106.5q35 8 37 -29q-43 -80 -162 -170t-197 -90q-25 0 -42 23.5t-9 48.5 l139 375l-4 2q-131 -164 -283.5 -306.5t-228.5 -142.5q-59 0 -73.5 53.5t14.5 120.5l188 498q23 59 0 59q-27 0 -88 -47t-106 -94q-14 -2 -25.5 7.5t-9.5 23.5q43 68 165 156t189 88q23 0 46.5 -18.5t15.5 -43.5zM662 1266l104 -320q0 -12 -13.5 -18t-23.5 -4l-176 256 q-29 41 -29 57q0 25 35 47q37 27 64 27q25 0 39 -45z" />
<glyph unicode="&#xfa;" horiz-adv-x="1015" d="M535 774l-230 -598q-27 -70 14 -70q45 0 220 170q53 53 100 113t89 127.5t66.5 110.5t60.5 112.5t44 83.5q31 6 62.5 -6t37.5 -31l-48 -124l-98 -259l-93 -251q-20 -51 8 -52q27 0 91.5 53.5t109.5 106.5q35 8 37 -29q-43 -80 -162 -170t-197 -90q-25 0 -42 23.5t-9 48.5 l139 375l-4 2q-131 -164 -283.5 -306.5t-228.5 -142.5q-59 0 -73.5 53.5t14.5 120.5l188 498q23 59 0 59q-27 0 -88 -47t-106 -94q-14 -2 -25.5 7.5t-9.5 23.5q43 68 165 156t189 88q23 0 46.5 -18.5t15.5 -43.5zM950 1153l-258 -227q-12 0 -22.5 8t-10.5 18l193 293 q27 43 49 41q27 0 57.5 -30.5t26.5 -53.5q0 -20 -35 -49z" />
<glyph unicode="&#xfb;" horiz-adv-x="1015" d="M535 774l-230 -598q-27 -70 14 -70q45 0 220 170q53 53 100 113t89 127.5t66.5 110.5t60.5 112.5t44 83.5q31 6 62.5 -6t37.5 -31l-48 -124l-98 -259l-93 -251q-20 -51 8 -52q27 0 91.5 53.5t109.5 106.5q35 8 37 -29q-43 -80 -162 -170t-197 -90q-25 0 -42 23.5t-9 48.5 l139 375l-4 2q-131 -164 -283.5 -306.5t-228.5 -142.5q-59 0 -73.5 53.5t14.5 120.5l188 498q23 59 0 59q-27 0 -88 -47t-106 -94q-14 -2 -25.5 7.5t-9.5 23.5q43 68 165 156t189 88q23 0 46.5 -18.5t15.5 -43.5zM844 1298l78 -331q-12 -27 -43 -21l-86 189q-12 27 -19 26 q-10 0 -33 -22l-190 -197q-12 -2 -23.5 6t-11.5 23l250 336q25 31 43 30q25 0 35 -39z" />
<glyph unicode="&#xfc;" horiz-adv-x="1015" d="M535 774l-230 -598q-27 -70 14 -70q45 0 220 170q53 53 100 113t89 127.5t66.5 110.5t60.5 112.5t44 83.5q31 6 62.5 -6t37.5 -31l-48 -124l-98 -259l-93 -251q-20 -51 8 -52q27 0 91.5 53.5t109.5 106.5q35 8 37 -29q-43 -80 -162 -170t-197 -90q-25 0 -42 23.5t-9 48.5 l139 375l-4 2q-131 -164 -283.5 -306.5t-228.5 -142.5q-59 0 -73.5 53.5t14.5 120.5l188 498q23 59 0 59q-27 0 -88 -47t-106 -94q-14 -2 -25.5 7.5t-9.5 23.5q43 68 165 156t189 88q23 0 46.5 -18.5t15.5 -43.5zM575 1040q-35 0 -55 21.5t-20 56.5q0 47 29.5 79t68.5 32 q35 0 55.5 -23.5t20.5 -54.5q0 -51 -30 -81t-69 -30zM893 1040q-35 0 -55.5 21.5t-20.5 56.5q0 47 30 79t68 32q35 0 55.5 -23.5t20.5 -54.5q0 -51 -29.5 -81t-68.5 -30z" />
<glyph unicode="&#xfd;" horiz-adv-x="749" d="M322 836q115 0 124 -349q4 -246 -30 -450h8q96 143 172 352q29 80 51.5 204t24.5 175q4 63 49 63q29 0 57 -18q18 -12 19 -41q2 -59 -57.5 -240.5t-180.5 -384.5l-36 -60q-30 -50 -37 -63.5t-33 -56.5l-39 -61l-39 -57q-27 -38 -47 -63l-48 -60q-28 -35 -59 -70 q-180 -207 -319 -207q-47 0 -77 27.5t-30 66.5t23.5 63.5t58.5 24.5q33 0 55 -32q23 -37 58 -37q43 0 112 57q43 37 98.5 125t82.5 182q45 162 41 467q-6 307 -78 307q-14 0 -28.5 -10t-31 -36.5t-28 -47t-31.5 -61.5q-31 -8 -39 26q35 111 98.5 188t135.5 77zM788 1153 l-258 -227q-12 0 -22 8t-10 18l192 293q27 43 49 41q27 0 57.5 -30.5t26.5 -53.5q0 -20 -35 -49z" />
<glyph unicode="&#xfe;" horiz-adv-x="917" d="M-8 -346l381 1069q-88 -25 -207 -84q-12 2 -18.5 13.5t-2.5 25.5q98 70 254 115l101 280q35 109 33.5 137.5t-27.5 40.5l-37 17q-8 6 -8 17t8 15q129 51 258 62l10 -12l-131 -353l-71 -194q6 0 30.5 2t46.5 2q59 0 115.5 -15.5t110 -71.5t53.5 -147q0 -258 -270 -485 q-57 -49 -132 -77.5t-110 -34t-51 -5.5q-20 0 -64 13q-23 -6 -33 -37l-84 -242q-41 -119 -37.5 -148.5t54.5 -37.5l84 -13q23 -31 -8 -45q-35 0 -447 -12q-27 23 0 45l45 8q16 2 30.5 7.5t26 8.5t21.5 11t16.5 11t14.5 14.5t11 14.5t9 19.5t7 19.5t8.5 22.5t9.5 23.5z M518 741l-213 -598q-12 -33 2 -55q29 -47 76 -47q37 0 104.5 39t124.5 127q121 186 121 385q0 74 -46 113.5t-116 39.5q-24 0 -53 -4z" />
<glyph unicode="&#xff;" horiz-adv-x="749" d="M322 836q115 0 124 -349q4 -246 -30 -450h8q96 143 172 352q29 80 51.5 204t24.5 175q4 63 49 63q29 0 57 -18q18 -12 19 -41q2 -59 -57.5 -240.5t-180.5 -384.5l-36 -60q-30 -50 -37 -63.5t-33 -56.5l-39 -61l-39 -57q-27 -38 -47 -63l-48 -60q-28 -35 -59 -70 q-180 -207 -319 -207q-47 0 -77 27.5t-30 66.5t23.5 63.5t58.5 24.5q33 0 55 -32q23 -37 58 -37q43 0 112 57q43 37 98.5 125t82.5 182q45 162 41 467q-6 307 -78 307q-14 0 -28.5 -10t-31 -36.5t-28 -47t-31.5 -61.5q-31 -8 -39 26q35 111 98.5 188t135.5 77zM399 1040 q-35 0 -55 21.5t-20 56.5q0 47 29.5 79t68.5 32q35 0 55.5 -23.5t20.5 -54.5q0 -51 -30 -81t-69 -30zM717 1040q-35 0 -55.5 21.5t-20.5 56.5q0 47 29.5 79t68.5 32q35 0 55.5 -23.5t20.5 -54.5q0 -51 -29.5 -81t-68.5 -30z" />
<glyph unicode="&#x100;" horiz-adv-x="1220" d="M1130 51l54 -6q8 -10 5 -27.5t-13 -23.5q-94 6 -232 6q-143 0 -235 -6q-14 6 -15.5 25.5t13.5 25.5l63 6q61 6 80 33q16 27 22 127l19 274q4 35 -3 44.5t-40 9.5h-295q-47 0 -61.5 -9.5t-42.5 -54.5l-150 -233q-92 -145 -92 -154q0 -23 47 -31l76 -12q12 -10 10 -27.5 t-14 -23.5q-96 6 -209 6q-117 0 -228 -6q-20 27 5 51l55 6q82 8 147 86q74 90 338 461l361 508q109 152 123 211q31 4 66.5 21.5t59.5 31.5l23 14q25 0 25 -16q0 -14 -3.5 -50t-8.5 -105.5t-9 -145.5l-41 -774q-4 -68 -5 -97.5t2 -62.5t6 -42t19.5 -20.5t30.5 -13.5t47 -6z M600 621h258q27 0 33 7t8 34l33 448q4 53 -4 53q-10 0 -78 -100l-285 -412q-12 -18 -5 -24t40 -6zM1245 1479h-391q-14 18 -14 50t14 50h391q16 -18 16 -50t-16 -50z" />
<glyph unicode="&#x101;" horiz-adv-x="909" d="M766 752l57 131q27 12 58.5 0.5t42.5 -31.5q-174 -430 -275 -715q-16 -47 15 -47q55 0 210 137q29 0 29 -26q-70 -92 -167 -161t-177 -69q-31 0 -45 18.5t-14 37.5q0 20 20 79l68 185l-6 2q-106 -133 -241.5 -227.5t-209.5 -94.5q-41 0 -65.5 35t-24.5 80q0 49 45 161.5 t135 235.5q139 190 271 265q104 59 184 59q25 0 49 -12q27 -12 41 -43zM612 729q-57 0 -145 -80q-96 -86 -176 -253t-80 -277q0 -39 31 -39q53 0 198 133q207 193 275 442q-27 74 -103 74zM924 1038h-379q-16 18 -16.5 52t16.5 53h379q14 -18 14 -52.5t-14 -52.5z" />
<glyph unicode="&#x102;" horiz-adv-x="1220" d="M1130 51l54 -6q8 -10 5 -27.5t-13 -23.5q-94 6 -232 6q-143 0 -235 -6q-14 6 -15.5 25.5t13.5 25.5l63 6q61 6 80 33q16 27 22 127l19 274q4 35 -3 44.5t-40 9.5h-295q-47 0 -61.5 -9.5t-42.5 -54.5l-150 -233q-92 -145 -92 -154q0 -23 47 -31l76 -12q12 -10 10 -27.5 t-14 -23.5q-96 6 -209 6q-117 0 -228 -6q-20 27 5 51l55 6q82 8 147 86q74 90 338 461l361 508q109 152 123 211q31 4 66.5 21.5t59.5 31.5l23 14q25 0 25 -16q0 -14 -3.5 -50t-8.5 -105.5t-9 -145.5l-41 -774q-4 -68 -5 -97.5t2 -62.5t6 -42t19.5 -20.5t30.5 -13.5t47 -6z M600 621h258q27 0 33 7t8 34l33 448q4 53 -4 53q-10 0 -78 -100l-285 -412q-12 -18 -5 -24t40 -6zM1030 1464q-215 0 -166 234q8 6 22.5 6t18.5 -6q6 -133 144 -133q133 0 188 133q8 6 22.5 6t18.5 -6q-37 -234 -248 -234z" />
<glyph unicode="&#x103;" horiz-adv-x="909" d="M766 752l57 131q27 12 58.5 0.5t42.5 -31.5q-174 -430 -275 -715q-16 -47 15 -47q55 0 210 137q29 0 29 -26q-70 -92 -167 -161t-177 -69q-31 0 -45 18.5t-14 37.5q0 20 20 79l68 185l-6 2q-106 -133 -241.5 -227.5t-209.5 -94.5q-41 0 -65.5 35t-24.5 80q0 49 45 161.5 t135 235.5q139 190 271 265q104 59 184 59q25 0 49 -12q27 -12 41 -43zM612 729q-57 0 -145 -80q-96 -86 -176 -253t-80 -277q0 -39 31 -39q53 0 198 133q207 193 275 442q-27 74 -103 74zM684 993q-215 0 -166 234q8 6 22.5 6t18.5 -6q6 -133 143 -133q133 0 189 133 q8 6 22.5 6t18.5 -6q-37 -234 -248 -234z" />
<glyph unicode="&#x104;" horiz-adv-x="1220" d="M600 621h258q27 0 33 7t8 34l33 448q4 53 -4 53q-10 0 -78 -100l-285 -412q-12 -18 -5 -24t40 -6zM848 539h-295q-47 0 -61.5 -9.5t-42.5 -54.5l-150 -233q-92 -145 -92 -154q0 -23 47 -31l76 -12q12 -10 10 -27.5t-14 -23.5q-96 6 -209 6q-117 0 -228 -6q-20 27 5 51 l55 6q82 8 147 86q74 90 338 461l361 508q109 152 123 211q31 4 66.5 21.5t59.5 31.5l23 14q25 0 25 -16q0 -14 -3.5 -50t-8.5 -105.5t-9 -145.5l-41 -774q-4 -68 -5 -97.5t2 -62.5t6 -42t19.5 -20.5t31 -13.5t46.5 -6l54 -6q8 -10 5 -27.5t-13 -23.5q-94 6 -232 6 q-53 -41 -97 -106.5t-44 -126.5q0 -43 26.5 -70t67.5 -27q61 0 119 29q18 -4 14 -31q-88 -94 -188 -94q-80 0 -122 39t-42 100q0 143 184 285q-104 0 -153 -4q-14 6 -15.5 25.5t13.5 25.5l63 6q61 6 80 33q16 27 22 127l19 274q4 35 -3 44.5t-40 9.5z" />
<glyph unicode="&#x105;" horiz-adv-x="909" d="M612 729q-57 0 -145 -80q-96 -86 -176 -253t-80 -277q0 -39 31 -39q53 0 198 133q207 193 275 442q-27 74 -103 74zM676 807q25 0 49 -12q27 -12 41 -43l57 131q27 12 58.5 0.5t42.5 -31.5q-174 -430 -275 -715q-16 -47 15 -47q55 0 210 137q29 0 29 -26 q-61 -82 -164 -166q-217 -172 -217 -291q0 -76 84 -76q63 0 105 29q18 -4 14 -31q-82 -94 -199 -94q-61 0 -95 31.5t-34 79.5q0 117 232 313q-29 -14 -47 -21q-10 -4 -23 -4q-31 0 -45 18.5t-14 37.5q0 20 20 79l68 185l-6 2q-106 -133 -241.5 -227.5t-209.5 -94.5 q-41 0 -65.5 35t-24.5 80q0 49 45 161.5t135 235.5q139 190 271 265q104 59 184 59z" />
<glyph unicode="&#x106;" horiz-adv-x="1323" d="M1190 1384q172 0 336 -65q-61 -152 -92 -275q-6 -12 -29 -11t-27 14q31 139 -19 206.5t-204 67.5q-291 0 -524 -229q-92 -92 -167 -260t-75 -353q0 -219 101.5 -333.5t295.5 -114.5q266 0 441 286q39 16 49 -14q-41 -125 -133 -289q-27 0 -162 -22q-143 -25 -199 -25 q-109 0 -204 26.5t-181 86t-137 172.5t-51 266q0 172 81 335t212 281.5t310 184t378 65.5zM1303 1571l-295 -125q-10 4 -16.5 16.5t-2.5 24.5l250 201q27 25 47 24q27 0 47 -39q25 -47 13 -71q-10 -17 -43 -31z" />
<glyph unicode="&#x107;" horiz-adv-x="692" d="M618 836q74 0 113 -35t39 -86q0 -53 -36 -75t-64 -22q-35 0 -41 37q0 4 -2 21.5t-3 24t-4.5 20.5t-8.5 19t-12 13.5t-17.5 11.5t-24.5 3q-80 0 -172 -137q-53 -80 -93 -196t-44 -228q-6 -133 88 -133q86 0 221 125q14 2 22.5 -8.5t4.5 -26.5q-63 -84 -154.5 -138.5 t-183.5 -54.5q-66 0 -110 53.5t-44 163.5q0 113 67.5 264.5t192.5 264.5q131 119 266 119zM854 1165l-258 -227q-12 0 -22.5 8t-10.5 19l193 292q27 43 49 41q27 0 57.5 -30.5t26.5 -53.5q0 -20 -35 -49z" />
<glyph unicode="&#x10c;" horiz-adv-x="1323" d="M1190 1384q172 0 336 -65q-61 -152 -92 -275q-6 -12 -29 -11t-27 14q31 139 -19 206.5t-204 67.5q-291 0 -524 -229q-92 -92 -167 -260t-75 -353q0 -219 101.5 -333.5t295.5 -114.5q266 0 441 286q39 16 49 -14q-41 -125 -133 -289q-27 0 -162 -22q-143 -25 -199 -25 q-109 0 -204 26.5t-181 86t-137 172.5t-51 266q0 172 81 335t212 281.5t310 184t378 65.5zM1452 1686l-283 -222q-29 -18 -47 -18q-20 0 -35 18l-180 222q-2 12 9.5 22t23.5 14l174 -129q18 -14 35 -14q12 0 33 10l252 133q10 0 15 -12t3 -24z" />
<glyph unicode="&#x10d;" horiz-adv-x="692" d="M618 836q74 0 113 -35t39 -86q0 -53 -36 -75t-64 -22q-35 0 -41 37q0 4 -2 21.5t-3 24t-4.5 20.5t-8.5 19t-12 13.5t-17.5 11.5t-24.5 3q-80 0 -172 -137q-53 -80 -93 -196t-44 -228q-6 -133 88 -133q86 0 221 125q14 2 22.5 -8.5t4.5 -26.5q-63 -84 -154.5 -138.5 t-183.5 -54.5q-66 0 -110 53.5t-44 163.5q0 113 67.5 264.5t192.5 264.5q131 119 266 119zM553 967l-72 331q8 29 41 21l88 -178q16 -31 21 -31q12 0 33 25l186 188q10 4 22.5 -5t12.5 -24l-256 -336q-25 -31 -47 -30q-19 0 -29 39z" />
<glyph unicode="&#x10e;" horiz-adv-x="1513" d="M272 295l256 829q27 96 20 122t-54 32l-82 10q-10 6 -10.5 23.5t10.5 25.5q154 20 381 21q170 0 302 -34t213 -88t132 -129t70.5 -149.5t19.5 -158.5q0 -195 -87 -356.5t-237 -264.5q-270 -184 -684 -184q-23 0 -105.5 3t-150.5 3q-119 0 -225 -6q-12 8 -12 25.5t10 25.5 l53 6q72 8 102.5 49t77.5 195zM711 1214l-305 -981q-29 -92 12 -129.5t174 -37.5q168 0 304 54t218 135t137.5 181.5t76 187.5t20.5 160.5t-6.5 130t-38 132t-86 126t-160 86t-250.5 35.5q-47 0 -63.5 -14.5t-32.5 -65.5zM1313 1686l-283 -222q-29 -18 -47 -18q-20 0 -35 18 l-180 222q-2 12 9 22t24 14l174 -129q18 -14 35 -14q12 0 32 10l252 133q10 0 15.5 -12t3.5 -24z" />
<glyph unicode="&#x10f;" horiz-adv-x="970" d="M801 772l147 422q31 88 35 120t-16 50l-47 33q-8 14 6 28q115 41 241 39l9 -12q-16 -49 -129 -362q-190 -526 -318 -949q-14 -47 12 -47q25 0 102 62.5t124 122.5q29 0 30 -27q-43 -90 -157.5 -185.5t-190.5 -95.5q-31 0 -48 19.5t-17 46.5q0 39 26 117l72 202l-8 2 q-68 -92 -112 -144t-110.5 -116.5t-133 -95.5t-138.5 -31q-57 0 -90 42t-33 106q0 115 78 272.5t195 261.5q203 182 366 183q27 0 58 -16.5t47 -47.5zM692 774q-59 0 -155 -88q-63 -59 -155.5 -182t-137.5 -217q-63 -131 -64 -195q0 -18 12.5 -30.5t26.5 -12.5 q33 0 107.5 43t169.5 139q195 199 249 396q18 66 2 106.5t-55 40.5zM1331 1464q55 0 86 -41t31 -94q0 -90 -79 -159.5t-171 -92.5q-16 27 -10 43q145 72 145 170q0 47 -49 68q-25 8 -24 43q0 27 21 45t50 18z" />
<glyph unicode="&#x110;" horiz-adv-x="1525" d="M184 739h226l118 385q27 96 20 122t-54 32l-82 10q-10 6 -10.5 23.5t10.5 25.5q154 20 381 21q170 0 302 -34t213 -88t132 -129t70.5 -149.5t19.5 -158.5q0 -195 -87 -356.5t-237 -264.5q-270 -184 -684 -184q-23 0 -105.5 3t-150.5 3q-119 0 -225 -6q-12 8 -12 25.5 t10 25.5l53 6q72 8 102.5 49t77.5 195l115 373h-219q-13 48 16 71zM844 668h-303l-135 -435q-29 -92 12 -129.5t174 -37.5q168 0 304 54t218 135t137.5 181.5t76 187.5t20.5 160.5t-6.5 130t-38 132t-86 126t-160 86t-250.5 35.5q-47 0 -63.5 -14t-32.5 -66l-148 -475h299 q21 -46 -18 -71z" />
<glyph unicode="&#x111;" horiz-adv-x="970" d="M692 774q-59 0 -155 -88q-63 -59 -155.5 -182t-137.5 -217q-63 -131 -64 -195q0 -18 12.5 -30.5t26.5 -12.5q33 0 107.5 43t169.5 139q195 199 249 396q18 66 2 106.5t-55 40.5zM1229 1161l-41 -76h-141q-190 -518 -318 -944q-14 -47 12 -47q25 0 102 62.5t124 122.5 q29 0 30 -27q-43 -90 -157.5 -185.5t-190.5 -95.5q-31 0 -48 19.5t-17 46.5q0 39 26 117l72 202l-8 2q-68 -92 -112 -144t-110.5 -116.5t-133 -95.5t-138.5 -31q-57 0 -90 42t-33 106q0 115 78 272.5t195 261.5q203 182 366 183q27 0 57.5 -16.5t47.5 -47.5l110 313h-256 l41 76h242l8 23q35 94 38 129t-17 51l-47 33q-8 14 6 28q115 41 241 39l9 -12q-23 -72 -105 -291h158z" />
<glyph unicode="&#x112;" horiz-adv-x="1159" d="M270 295l238 762q47 143 41 184t-86 57l-41 9q-10 12 -7 28.5t19 22.5q74 -4 109 -4q37 -2 119 -2h387q227 0 288 6q-25 -61 -84 -273q-6 -12 -26.5 -11t-24.5 13q14 78 2 122t-74 61q-70 18 -217 18h-120q-39 0 -52.5 -11t-27.5 -58l-131 -420q-14 -43 -10.5 -51.5 t46.5 -8.5h103q147 0 197.5 17.5t85.5 83.5l32 61q6 10 27.5 9t23.5 -13q-39 -92 -69 -199q-29 -92 -53 -198q-10 -12 -27.5 -11.5t-24.5 13.5v57q0 76 -39.5 92.5t-171.5 16.5h-102q-43 0 -54 -8.5t-26 -51.5l-84 -276q-31 -102 -38 -140t3 -86q20 -43 228 -43 q182 0 263 35t173 178q33 20 47 -12q-16 -55 -60 -144t-81 -126q-35 2 -112 3t-116 1q-41 0 -121.5 1t-119.5 1h-242q-109 0 -244 -6q-12 8 -12 25.5t10 25.5l72 6q74 6 104.5 47t79.5 197zM1143 1479h-391q-14 18 -14.5 50t14.5 50h391q16 -18 16 -50t-16 -50z" />
<glyph unicode="&#x113;" horiz-adv-x="708" d="M641 836q57 0 93 -39t36 -84q0 -111 -129 -193t-369 -147q-29 -70 -28 -183q0 -51 27.5 -83.5t70.5 -32.5q51 0 94 25.5t121 93.5q14 0 22.5 -10.5t4.5 -24.5q-152 -186 -328 -187q-84 0 -125 64.5t-41 150.5q0 117 77 276t228 275q127 99 246 99zM600 772 q-66 0 -156 -98q-94 -102 -151 -240q98 31 156.5 63.5t117.5 88.5q41 39 60.5 79t19.5 60q0 47 -47 47zM823 1028h-379q-14 18 -14 52t14 53h379q14 -18 14 -52.5t-14 -52.5z" />
<glyph unicode="&#x116;" horiz-adv-x="1159" d="M270 295l238 762q47 143 41 184t-86 57l-41 9q-10 12 -7 28.5t19 22.5q74 -4 109 -4q37 -2 119 -2h387q227 0 288 6q-25 -61 -84 -273q-6 -12 -26.5 -11t-24.5 13q14 78 2 122t-74 61q-70 18 -217 18h-120q-39 0 -52.5 -11t-27.5 -58l-131 -420q-14 -43 -10.5 -51.5 t46.5 -8.5h103q147 0 197.5 17.5t85.5 83.5l32 61q6 10 27.5 9t23.5 -13q-39 -92 -69 -199q-29 -92 -53 -198q-10 -12 -27.5 -11.5t-24.5 13.5v57q0 76 -39.5 92.5t-171.5 16.5h-102q-43 0 -54 -8.5t-26 -51.5l-84 -276q-31 -102 -38 -140t3 -86q20 -43 228 -43 q182 0 263 35t173 178q33 20 47 -12q-16 -55 -60 -144t-81 -126q-35 2 -112 3t-116 1q-41 0 -121.5 1t-119.5 1h-242q-109 0 -244 -6q-12 8 -12 25.5t10 25.5l72 6q74 6 104.5 47t79.5 197zM944 1446q-35 0 -55.5 21.5t-20.5 56.5q0 45 30 76.5t69 31.5q35 0 54 -23.5 t19 -54.5q0 -49 -28.5 -78.5t-67.5 -29.5z" />
<glyph unicode="&#x117;" horiz-adv-x="708" d="M641 836q57 0 93 -39t36 -84q0 -111 -129 -193t-369 -147q-29 -70 -28 -183q0 -51 27.5 -83.5t70.5 -32.5q51 0 94 25.5t121 93.5q14 0 22.5 -10.5t4.5 -24.5q-152 -186 -328 -187q-84 0 -125 64.5t-41 150.5q0 117 77 276t228 275q127 99 246 99zM600 772 q-66 0 -156 -98q-94 -102 -151 -240q98 31 156.5 63.5t117.5 88.5q41 39 60.5 79t19.5 60q0 47 -47 47zM608 1028q-37 0 -58.5 22.5t-21.5 59.5q0 49 32 82t73 33q37 0 57.5 -24.5t20.5 -57.5q0 -53 -31 -84t-72 -31z" />
<glyph unicode="&#x118;" horiz-adv-x="1159" d="M502 0h-242q-109 0 -244 -6q-12 8 -12 25.5t10 25.5l72 6q74 6 104.5 47t79.5 197l238 762q47 143 41 184t-86 57l-41 9q-10 12 -7 28.5t19 22.5q74 -4 109 -4q37 -2 119 -2h387q227 0 288 6q-25 -61 -84 -273q-6 -12 -26.5 -11t-24.5 13q14 78 2 122t-74 61 q-70 18 -217 18h-120q-39 0 -52.5 -11t-27.5 -58l-131 -420q-14 -43 -10.5 -51.5t46.5 -8.5h103q147 0 197.5 17.5t85.5 83.5l32 61q6 10 27.5 9t23.5 -13q-39 -92 -69 -199q-29 -92 -53 -198q-10 -12 -27.5 -11.5t-24.5 13.5v57q0 76 -39.5 92.5t-171.5 16.5h-102 q-43 0 -54 -8.5t-26 -51.5l-84 -276q-31 -102 -38 -140t3 -86q20 -43 228 -43q182 0 263 35t173 178q33 20 47 -12q-16 -55 -60 -144t-81 -126h-35q-68 -47 -127 -118t-59 -132q0 -76 84 -76q63 0 104 29q18 -4 14 -31q-82 -94 -198 -94q-63 0 -96 37t-33 92q0 80 74.5 162 t160.5 133q-33 2 -117 2q-79 2 -241 2z" />
<glyph unicode="&#x119;" horiz-adv-x="708" d="M600 772q-66 0 -156 -98q-94 -102 -151 -240q98 31 156.5 63.5t117.5 88.5q41 39 60.5 79t19.5 60q0 47 -47 47zM90 186q0 117 77 276t228 275q127 98 246 99q57 0 93 -39t36 -84q0 -111 -129 -193t-369 -147q-29 -70 -28 -183q0 -51 27.5 -83.5t70.5 -32.5q51 0 94 25.5 t121 93.5q14 0 22.5 -10.5t4.5 -24.5q-49 -63 -121 -123q-225 -184 -225 -291q0 -76 84 -76q63 0 104 29q18 -4 14 -31q-82 -94 -198 -94q-63 0 -96 37t-33 92q0 111 219 281q-37 -8 -47 -9q-12 -2 -29 -2q-84 0 -125 64.5t-41 150.5z" />
<glyph unicode="&#x11a;" horiz-adv-x="1159" d="M270 295l238 762q47 143 41 184t-86 57l-41 9q-10 12 -7 28.5t19 22.5q74 -4 109 -4q37 -2 119 -2h387q227 0 288 6q-25 -61 -84 -273q-6 -12 -26.5 -11t-24.5 13q14 78 2 122t-74 61q-70 18 -217 18h-120q-39 0 -52.5 -11t-27.5 -58l-131 -420q-14 -43 -10.5 -51.5 t46.5 -8.5h103q147 0 197.5 17.5t85.5 83.5l32 61q6 10 27.5 9t23.5 -13q-39 -92 -69 -199q-29 -92 -53 -198q-10 -12 -27.5 -11.5t-24.5 13.5v57q0 76 -39.5 92.5t-171.5 16.5h-102q-43 0 -54 -8.5t-26 -51.5l-84 -276q-31 -102 -38 -140t3 -86q20 -43 228 -43 q182 0 263 35t173 178q33 20 47 -12q-16 -55 -60 -144t-81 -126q-35 2 -112 3t-116 1q-41 0 -121.5 1t-119.5 1h-242q-109 0 -244 -6q-12 8 -12 25.5t10 25.5l72 6q74 6 104.5 47t79.5 197zM1257 1686l-282 -222q-29 -18 -47.5 -18t-34.5 18l-180 222q-2 12 9 22t23 14 l175 -129q18 -14 34 -14q12 0 33 10l252 133q10 0 15 -12t3 -24z" />
<glyph unicode="&#x11b;" horiz-adv-x="708" d="M641 836q57 0 93 -39t36 -84q0 -111 -129 -193t-369 -147q-29 -70 -28 -183q0 -51 27.5 -83.5t70.5 -32.5q51 0 94 25.5t121 93.5q14 0 22.5 -10.5t4.5 -24.5q-152 -186 -328 -187q-84 0 -125 64.5t-41 150.5q0 117 77 276t228 275q127 99 246 99zM600 772 q-66 0 -156 -98q-94 -102 -151 -240q98 31 156.5 63.5t117.5 88.5q41 39 60.5 79t19.5 60q0 47 -47 47zM553 975l-72 332q8 29 41 20l88 -178q16 -31 21 -31q12 0 33 25l186 188q10 4 22.5 -5t12.5 -23l-256 -336q-25 -31 -47 -31q-19 0 -29 39z" />
<glyph unicode="&#x11e;" horiz-adv-x="1439" d="M1061 184l53 168q39 113 27.5 148t-101.5 47l-79 10q-10 8 -9.5 26.5t13.5 24.5q135 -6 245 -6q160 0 234 6q10 -6 10 -24.5t-12 -26.5l-35 -10q-59 -16 -78.5 -45t-58.5 -150l-64 -202q-14 -43 17 -62q4 -16 -9 -29q-264 -92 -430 -92q-272 0 -424.5 141.5t-152.5 391.5 q0 162 72.5 329.5t222.5 298.5q293 256 712 256q199 0 351 -65q-57 -123 -97 -272q-6 -12 -26.5 -11.5t-24.5 13.5q29 141 -25.5 206.5t-201.5 65.5q-303 0 -537 -219q-113 -104 -189.5 -288.5t-76.5 -356.5q0 -225 115.5 -325.5t290.5 -100.5q117 0 177 29.5t91 123.5z M1141 1464q-215 0 -166 234q8 6 22.5 6t18.5 -6q6 -133 143 -133q133 0 189 133q8 6 22 6t19 -6q-37 -234 -248 -234z" />
<glyph unicode="&#x11f;" horiz-adv-x="782" d="M588 836q14 0 65 -19q8 -4 19.5 -8t18.5 -7t11 -3q51 0 99 12q61 16 92 16q43 0 43 -51q0 -63 -45 -63q-23 0 -68 10q-37 12 -75 12q-8 0 -14.5 -4t-4.5 -8q14 -57 14 -78q0 -119 -73.5 -229.5t-186.5 -179.5q-37 -25 -145 -54q-45 -25 -45 -71q0 -51 67 -97 q2 -2 201 -123q154 -90 154 -198q0 -94 -133 -169t-367 -75q-127 0 -225.5 50t-98.5 145q0 72 69 136t138.5 97t143.5 55q-66 43 -66 95q0 39 92 157q-150 39 -149 185q0 88 45 182t121 162q143 123 303 123zM309 -483q90 0 180.5 36.5t90.5 102.5q0 63 -88 125 q-145 96 -191 102q-74 8 -190 -76q-78 -57 -78 -133q0 -70 82.5 -113.5t193.5 -43.5zM563 776q-61 0 -137 -84q-68 -78 -126 -190.5t-58 -186.5q0 -31 18.5 -51t42.5 -20q68 0 135 80q80 94 133.5 210.5t53.5 172.5q0 31 -18.5 50t-43.5 19zM584 1004q-225 0 -174 245 q8 6 23.5 6t19.5 -6q6 -135 149 -135q141 0 199 135q8 6 23.5 6t19.5 -6q-39 -245 -260 -245z" />
<glyph unicode="&#x122;" horiz-adv-x="1439" d="M1061 184l53 168q39 113 27.5 148t-101.5 47l-79 10q-10 8 -9.5 26.5t13.5 24.5q135 -6 245 -6q160 0 234 6q10 -6 10 -24.5t-12 -26.5l-35 -10q-59 -16 -78.5 -45t-58.5 -150l-64 -202q-14 -43 17 -62q4 -16 -9 -29q-264 -92 -430 -92q-272 0 -424.5 141.5t-152.5 391.5 q0 162 72.5 329.5t222.5 298.5q293 256 712 256q199 0 351 -65q-57 -123 -97 -272q-6 -12 -26.5 -11.5t-24.5 13.5q29 141 -25.5 206.5t-201.5 65.5q-303 0 -537 -219q-113 -104 -189.5 -288.5t-76.5 -356.5q0 -225 115.5 -325.5t290.5 -100.5q117 0 177 29.5t91 123.5z M647 -119q57 0 91 -42t34 -95q0 -98 -81 -164.5t-183 -87.5q-20 16 -10 43q158 76 157 170q0 55 -57 66q-25 6 -25 45q0 29 21.5 47t52.5 18z" />
<glyph unicode="&#x123;" horiz-adv-x="782" d="M588 836q14 0 65 -19q8 -4 19.5 -8t18.5 -7t11 -3q51 0 99 12q61 16 92 16q43 0 43 -51q0 -63 -45 -63q-23 0 -68 10q-37 12 -75 12q-8 0 -14.5 -4t-4.5 -8q14 -57 14 -78q0 -119 -73.5 -229.5t-186.5 -179.5q-37 -25 -145 -54q-45 -25 -45 -71q0 -51 67 -97 q2 -2 201 -123q154 -90 154 -198q0 -94 -133 -169t-367 -75q-127 0 -225.5 50t-98.5 145q0 72 69 136t138.5 97t143.5 55q-66 43 -66 95q0 39 92 157q-150 39 -149 185q0 88 45 182t121 162q143 123 303 123zM309 -483q90 0 180.5 36.5t90.5 102.5q0 63 -88 125 q-145 96 -191 102q-74 8 -190 -76q-78 -57 -78 -133q0 -70 82.5 -113.5t193.5 -43.5zM563 776q-61 0 -137 -84q-68 -78 -126 -190.5t-58 -186.5q0 -31 18.5 -51t42.5 -20q68 0 135 80q80 94 133.5 210.5t53.5 172.5q0 31 -18.5 50t-43.5 19zM635 1034q-57 0 -89 38t-32 89 q0 88 79 154.5t177 93.5q8 -2 12 -15.5t0 -21.5q-158 -84 -157 -170q0 -47 57 -69q25 -4 25 -35q0 -27 -21.5 -45.5t-50.5 -18.5z" />
<glyph unicode="&#x12a;" horiz-adv-x="698" d="M272 295l240 762q27 82 36 117.5t5 66.5t-23.5 40t-64.5 17l-49 9q-10 12 -7 28.5t19 22.5q123 -6 238 -6q98 0 245 6q12 -6 12.5 -24.5t-12.5 -26.5l-55 -9q-86 -14 -113.5 -50t-76.5 -191l-240 -762q-47 -143 -42 -189.5t81 -54.5l63 -6q8 -10 5 -27.5t-13 -23.5 q-152 6 -258 6q-113 0 -235 -6q-12 8 -12.5 25.5t10.5 25.5l63 6q74 8 104.5 48t79.5 196zM915 1479h-391q-14 18 -14 50t14 50h391q14 -18 14 -50t-14 -50z" />
<glyph unicode="&#x12b;" horiz-adv-x="569" d="M106 45l261 621q18 39 -5 39q-37 0 -169 -109q-14 2 -22.5 12t-4.5 23q78 90 179 147.5t159 57.5q12 0 33 -21q18 -16 -13 -90l-243 -582q-18 -45 6 -45q27 0 94.5 47.5t118.5 104.5q31 -4 30 -35q-31 -57 -159.5 -150.5t-223.5 -93.5q-16 0 -32 19q-23 24 -9 55z M662 1026h-379q-16 18 -16.5 53t16.5 54h379q14 -18 14 -53.5t-14 -53.5z" />
<glyph unicode="&#x12e;" horiz-adv-x="698" d="M272 295l240 762q27 82 36 117.5t5 66.5t-23.5 40t-64.5 17l-49 9q-10 12 -7 28.5t19 22.5q123 -6 238 -6q98 0 245 6q12 -6 12.5 -24.5t-12.5 -26.5l-55 -9q-86 -14 -113.5 -50t-76.5 -191l-240 -762q-47 -143 -42 -189.5t81 -54.5l63 -6q8 -10 5 -27.5t-13 -23.5 q-131 6 -209 4q-127 -115 -127 -217q0 -51 31 -78t82 -27q68 0 117 27q16 -10 16 -35q-98 -96 -217 -96q-72 0 -117 41t-45 106q0 129 193 281q-104 0 -217 -6q-12 8 -12.5 25.5t10.5 25.5l63 6q74 8 104.5 48t79.5 196z" />
<glyph unicode="&#x12f;" horiz-adv-x="569" d="M539 1255q68 0 67 -73q0 -47 -29.5 -85t-72.5 -38q-35 0 -52.5 21.5t-17.5 52.5q0 41 27 81.5t78 40.5zM504 836q12 0 33 -21q18 -18 -13 -90l-243 -582q-18 -45 6 -45q27 0 94.5 47.5t118.5 104.5q31 -4 30 -35q-23 -45 -172 -168q-98 -80 -154.5 -162t-56.5 -141 q0 -76 84 -76q63 0 105 29q18 -4 14 -31q-82 -94 -198 -94q-63 0 -96 37t-33 88q0 68 56 141.5t179 186.5q-115 -53 -125 -54q-14 0 -28.5 18.5t1.5 55.5l261 621q18 39 -5 39q-37 0 -169 -109q-14 2 -22.5 12t-4.5 23q78 90 179.5 147.5t158.5 57.5z" />
<glyph unicode="&#x130;" horiz-adv-x="698" d="M272 295l240 762q27 82 36 117.5t5 66.5t-23.5 40t-64.5 17l-49 9q-10 12 -7 28.5t19 22.5q123 -6 238 -6q98 0 245 6q12 -6 12.5 -24.5t-12.5 -26.5l-55 -9q-86 -14 -113.5 -50t-76.5 -191l-240 -762q-47 -143 -42 -189.5t81 -54.5l63 -6q8 -10 5 -27.5t-13 -23.5 q-152 6 -258 6q-113 0 -235 -6q-12 8 -12.5 25.5t10.5 25.5l63 6q74 8 104.5 48t79.5 196zM715 1446q-35 0 -55.5 21.5t-20.5 56.5q0 45 29.5 76.5t68.5 31.5q35 0 54.5 -23.5t19.5 -54.5q0 -49 -28.5 -78.5t-67.5 -29.5z" />
<glyph unicode="&#x131;" horiz-adv-x="569" d="M106 45l261 621q18 39 -5 39q-37 0 -169 -109q-14 2 -22.5 12t-4.5 23q78 90 179 147.5t159 57.5q12 0 33 -21q18 -16 -13 -90l-243 -582q-18 -45 6 -45q27 0 94.5 47.5t118.5 104.5q31 -4 30 -35q-31 -57 -159.5 -150.5t-223.5 -93.5q-16 0 -32 19q-23 24 -9 55z" />
<glyph unicode="&#x136;" horiz-adv-x="1275" d="M272 295l240 762q27 82 36 117.5t7 66.5t-20.5 40t-57.5 17l-47 9q-10 12 -7 28.5t19 22.5q98 -6 222 -6q106 0 243 6q12 -6 11.5 -24.5t-17.5 -26.5l-41 -9q-90 -18 -117.5 -53t-76.5 -188l-86 -271q-12 -33 -5 -45t41 -12q47 0 89 21q70 41 215 178l204 194 q133 129 133 152q0 12 -49 24l-39 9q-10 8 -8 27.5t17 23.5q100 -6 225 -6q43 0 221 6q14 -8 13 -26.5t-15 -24.5l-43 -9q-82 -14 -137 -36q-119 -49 -363 -275l-262 -239q-27 -25 -30 -34t14 -44l225 -451q45 -90 81 -125t105 -43l54 -6q10 -10 8 -28.5t-14 -22.5 q-98 6 -218 6q-115 0 -231 -6q-18 39 6 51l53 6q35 4 45.5 15.5t4 30t-28.5 65.5l-215 422q-47 92 -82 92q-49 0 -68 -58l-100 -323q-47 -143 -42 -189.5t81 -54.5l57 -6q8 -10 5 -27.5t-13 -23.5q-141 6 -254 6q-111 0 -233 -6q-12 8 -12.5 25.5t10.5 25.5l63 6 q74 8 104.5 48t79.5 196zM565 -119q57 0 91 -42t34 -95q0 -98 -81 -164.5t-183 -87.5q-20 16 -10 43q158 76 157 170q0 55 -57 66q-25 6 -24 45q0 29 21 47t52 18z" />
<glyph unicode="&#x137;" horiz-adv-x="917" d="M82 25l375 1130q35 106 38 140t-24 46l-37 19q-20 14 -4 31q96 45 250 73l12 -10q-25 -88 -100 -301l-211 -606h4q92 123 209 211q109 78 221 78q80 0 114 -35t34 -78q0 -72 -84 -150q-166 -152 -328 -180q-16 -8 -6 -39q29 -100 76 -192q37 -68 65 -68q43 0 123 96 q27 0 27 -24q-47 -100 -108.5 -147.5t-98.5 -47.5q-47 0 -94 82q-55 100 -95 219q-25 80 -75 68q-31 -8 -44.5 -22.5t-31.5 -59.5l-107 -260q-12 -27 -35 -27q-16 0 -31.5 3t-28.5 17t-5 34zM805 694q0 20 -16.5 37t-49.5 17q-76 0 -198 -105q-57 -49 -112.5 -114.5 t-76.5 -108.5q-8 -16 -3 -24.5t24 -6.5q115 10 301 133q61 41 96 89t35 83zM356 -119q57 0 91 -42t34 -95q0 -98 -81 -164.5t-183 -87.5q-20 16 -10 43q158 76 158 170q0 55 -58 66q-25 6 -24 45q0 29 21 47t52 18z" />
<glyph unicode="&#x139;" horiz-adv-x="1118" d="M664 1057l-226 -725q-61 -168 -36.5 -218.5t202.5 -50.5q193 0 277 35t172 178q39 12 45 -12q-16 -51 -59.5 -139t-71.5 -131q-152 4 -240 4q-82 2 -233 2h-238q-119 0 -217 -6q-12 8 -12 25.5t10 25.5l49 6q74 10 104.5 49t79.5 195l240 762q27 82 36 117.5t5 66.5 t-23.5 40t-64.5 17l-49 9q-10 12 -7 28.5t19 22.5q27 0 73 -2t85 -3t75 -1q49 0 134.5 3t124.5 3q12 -6 12 -24.5t-12 -26.5l-64 -9q-86 -10 -113.5 -46.5t-76.5 -194.5zM997 1571l-295 -125q-10 4 -16 16.5t-2 24.5l250 201q29 25 47 24q27 0 47 -39q25 -47 12 -71 q-8 -17 -43 -31z" />
<glyph unicode="&#x13a;" horiz-adv-x="503" d="M575 1100l-323 -967q-23 -68 8 -67q53 0 236 206q33 4 32 -28q-53 -102 -146 -187.5t-206 -85.5q-80 0 -80 62q0 39 45 174l326 969q33 111 30 138t-32 40l-37 16q-8 6 -8 17.5t8 15.5q129 51 258 61l10 -12q-45 -123 -121 -352zM842 1622l-295 -125q-10 4 -16.5 16.5 t-2.5 24.5l250 201q29 25 47 24q27 0 47 -39q25 -47 13 -71q-8 -15 -43 -31z" />
<glyph unicode="&#x13b;" horiz-adv-x="1118" d="M664 1057l-226 -725q-61 -168 -36.5 -218.5t202.5 -50.5q193 0 277 35t172 178q39 12 45 -12q-16 -51 -59.5 -139t-71.5 -131q-152 4 -240 4q-82 2 -233 2h-238q-119 0 -217 -6q-12 8 -12 25.5t10 25.5l49 6q74 10 104.5 49t79.5 195l240 762q27 82 36 117.5t5 66.5 t-23.5 40t-64.5 17l-49 9q-10 12 -7 28.5t19 22.5q27 0 73 -2t85 -3t75 -1q49 0 134.5 3t124.5 3q12 -6 12 -24.5t-12 -26.5l-64 -9q-86 -10 -113.5 -46.5t-76.5 -194.5zM516 -119q57 0 91 -42t34 -95q0 -98 -81 -164.5t-183 -87.5q-20 16 -10 43q158 76 157 170 q0 55 -57 66q-25 6 -25 45q0 29 21.5 47t52.5 18z" />
<glyph unicode="&#x13c;" horiz-adv-x="503" d="M575 1100l-323 -967q-23 -68 8 -67q53 0 236 206q33 4 32 -28q-53 -102 -146 -187.5t-206 -85.5q-80 0 -80 62q0 39 45 174l326 969q33 111 30 138t-32 40l-37 16q-8 6 -8 17.5t8 15.5q129 51 258 61l10 -12q-45 -123 -121 -352zM135 -119q57 0 91 -42t34 -95 q0 -98 -81 -164.5t-183 -87.5q-20 16 -10 43q158 76 157 170q0 55 -57 66q-25 6 -25 45q0 29 21.5 47t52.5 18z" />
<glyph unicode="&#x13d;" horiz-adv-x="1118" d="M664 1057l-226 -725q-61 -168 -36.5 -218.5t202.5 -50.5q193 0 277 35t172 178q39 12 45 -12q-16 -51 -59.5 -139t-71.5 -131q-152 4 -240 4q-82 2 -233 2h-238q-119 0 -217 -6q-12 8 -12 25.5t10 25.5l49 6q74 10 104.5 49t79.5 195l240 762q27 82 36 117.5t5 66.5 t-23.5 40t-64.5 17l-49 9q-10 12 -7 28.5t19 22.5q27 0 73 -2t85 -3t75 -1q49 0 134.5 3t124.5 3q12 -6 12 -24.5t-12 -26.5l-64 -9q-86 -10 -113.5 -46.5t-76.5 -194.5zM1098 1401q55 0 85.5 -41t30.5 -94q0 -90 -78.5 -160t-170.5 -92q-16 27 -11 43q145 74 146 170 q0 47 -49 67q-25 8 -25 43q0 27 21.5 45.5t50.5 18.5z" />
<glyph unicode="&#x13e;" horiz-adv-x="503" d="M575 1100l-323 -967q-23 -68 8 -67q53 0 236 206q33 4 32 -28q-53 -102 -146 -187.5t-206 -85.5q-80 0 -80 62q0 39 45 174l326 969q33 111 30 138t-32 40l-37 16q-8 6 -8 17.5t8 15.5q129 51 258 61l10 -12q-45 -123 -121 -352zM836 1464q55 0 85.5 -41t30.5 -94 q0 -90 -78.5 -159.5t-171.5 -92.5q-16 27 -10 43q145 72 146 170q0 47 -50 68q-25 8 -24 43q0 27 21.5 45t50.5 18z" />
<glyph unicode="&#x141;" horiz-adv-x="1134" d="M918 903l-349 -209l-114 -362l-24 -77q-7 -24 -15 -59.5t-6 -49t8 -33t21.5 -25.5t41 -13t58 -9.5t82.5 -2.5q193 0 276.5 35t171.5 178q39 12 45 -12q-16 -51 -59 -139t-72 -131q-152 4 -240 4q-82 2 -233 2h-238q-119 0 -217 -6q-12 8 -12 25.5t10 25.5l49 6 q74 10 105 49t80 195l90 285l-234 -140q-20 2 -30.5 18.5t-6.5 41.5l302 180l118 377q27 82 36 117.5t5 66.5t-23.5 40t-64.5 17l-49 9q-10 12 -7 28.5t19 22.5q27 0 73 -2t85 -3t76 -1q49 0 134 3t124 3q12 -6 12 -24.5t-12 -26.5l-64 -9q-86 -10 -114.5 -48t-75.5 -193 l-80 -262l283 170q43 -9 35 -62z" />
<glyph unicode="&#x142;" horiz-adv-x="530" d="M735 829l-307 -208l-164 -488q-23 -68 8 -67q53 0 236 206q33 4 33 -28q-53 -102 -146.5 -187.5t-206.5 -85.5q-80 0 -79 62q0 39 45 174l98 289l-4 4l-166 -117q-16 0 -28.5 21.5t-8.5 41.5l246 168l190 562q33 111 30 138t-32 40l-37 16q-8 6 -8 17.5t8 15.5 q129 51 258 61l11 -12q-2 -8 -121 -352l-123 -361l6 -4l225 158q16 -2 29.5 -25t7.5 -39z" />
<glyph unicode="&#x143;" horiz-adv-x="1513" d="M317 477l162 524q68 217 68 244q0 35 -53 45l-82 17q-12 10 -9 28.5t19 22.5q16 -2 48 -3t48 -1q14 0 52 -1t61 -1h127v-29q0 -47 100 -297l207 -510q84 -201 100 -231q16 0 35 57l162 514q98 311 98 379q0 31 -9 42t-42 17l-80 13q-8 14 -4 29.5t16 21.5q109 -6 232 -6 q106 0 194 6q8 -6 9.5 -23.5t-7.5 -27.5l-47 -9q-84 -14 -106 -36q-53 -53 -168 -412l-148 -459q-70 -215 -129 -422q-16 -16 -49 -12q-57 178 -190 500l-162 393l-50 127t-51.5 129l-35.5 82q-10 0 -66 -180l-159 -533q-27 -88 -86 -340q-8 -33 5 -50t32.5 -23.5 t62.5 -10.5l47 -6q8 -10 6 -26.5t-12 -24.5q-92 6 -234 6q-119 0 -215 -6q-10 6 -12 22.5t8 28.5l51 6q63 6 101 35q46 35 155 391zM1286 1571l-295 -125q-10 4 -16 16.5t-2 24.5l250 201q27 25 47 24q27 0 47 -39q25 -47 12 -71q-10 -17 -43 -31z" />
<glyph unicode="&#x144;" horiz-adv-x="1026" d="M502 752l-140 -359l7 -4q123 186 259 316.5t242 130.5q115 0 115 -111q0 -49 -33 -143q-16 -45 -62 -154l-86 -202q-40 -93 -42 -97q-16 -39 4 -39q27 0 88 43t104 96q33 4 33 -28q-57 -96 -161.5 -163t-190.5 -67q-14 0 -31.5 16.5t-17.5 35t49 135.5q16 35 77.5 190.5 t88.5 212.5q43 96 43 150q0 49 -33 49q-37 0 -118 -69.5t-165 -174.5q-51 -63 -107 -154.5l-90 -151.5l-116 -214q-14 -25 -37 -25q-16 0 -30.5 3t-25.5 16.5t-3 34.5l237 645q18 47 -6 47q-70 0 -186 -103q-29 0 -25 31q59 82 144.5 136.5t161.5 54.5q37 0 52 -24.5 t1 -59.5zM944 1165l-258 -227q-12 0 -22.5 8t-10.5 19l193 292q27 43 49 41q27 0 57.5 -30.5t26.5 -53.5q0 -20 -35 -49z" />
<glyph unicode="&#x145;" horiz-adv-x="1513" d="M317 477l162 524q68 217 68 244q0 35 -53 45l-82 17q-12 10 -9 28.5t19 22.5q16 -2 48 -3t48 -1q14 0 52 -1t61 -1h127v-29q0 -47 100 -297l207 -510q84 -201 100 -231q16 0 35 57l162 514q98 311 98 379q0 31 -9 42t-42 17l-80 13q-8 14 -4 29.5t16 21.5q109 -6 232 -6 q106 0 194 6q8 -6 9.5 -23.5t-7.5 -27.5l-47 -9q-84 -14 -106 -36q-53 -53 -168 -412l-148 -459q-70 -215 -129 -422q-16 -16 -49 -12q-57 178 -190 500l-162 393l-50 127t-51.5 129l-35.5 82q-10 0 -66 -180l-159 -533q-27 -88 -86 -340q-8 -33 5 -50t32.5 -23.5 t62.5 -10.5l47 -6q8 -10 6 -26.5t-12 -24.5q-92 6 -234 6q-119 0 -215 -6q-10 6 -12 22.5t8 28.5l51 6q63 6 101 35q46 35 155 391zM664 -119q57 0 90.5 -42t33.5 -95q0 -98 -80.5 -164.5t-183.5 -87.5q-20 16 -10 43q158 76 158 170q0 55 -58 66q-25 6 -24 45q0 29 21.5 47 t52.5 18z" />
<glyph unicode="&#x146;" horiz-adv-x="1026" d="M502 752l-140 -359l7 -4q123 186 259 316.5t242 130.5q115 0 115 -111q0 -49 -33 -143q-16 -45 -62 -154l-86 -202q-40 -93 -42 -97q-16 -39 4 -39q27 0 88 43t104 96q33 4 33 -28q-57 -96 -161.5 -163t-190.5 -67q-14 0 -31.5 16.5t-17.5 35t49 135.5q16 35 77.5 190.5 t88.5 212.5q43 96 43 150q0 49 -33 49q-37 0 -118 -69.5t-165 -174.5q-51 -63 -107 -154.5l-90 -151.5l-116 -214q-14 -25 -37 -25q-16 0 -30.5 3t-25.5 16.5t-3 34.5l237 645q18 47 -6 47q-70 0 -186 -103q-29 0 -25 31q59 82 144.5 136.5t161.5 54.5q37 0 52 -24.5 t1 -59.5zM410 -119q57 0 91 -42t34 -95q0 -98 -81 -164.5t-184 -87.5q-20 16 -10 43q158 76 158 170q0 55 -58 66q-25 6 -24 45q0 29 21.5 47t52.5 18z" />
<glyph unicode="&#x147;" horiz-adv-x="1513" d="M317 477l162 524q68 217 68 244q0 35 -53 45l-82 17q-12 10 -9 28.5t19 22.5q16 -2 48 -3t48 -1q14 0 52 -1t61 -1h127v-29q0 -47 100 -297l207 -510q84 -201 100 -231q16 0 35 57l162 514q98 311 98 379q0 31 -9 42t-42 17l-80 13q-8 14 -4 29.5t16 21.5q109 -6 232 -6 q106 0 194 6q8 -6 9.5 -23.5t-7.5 -27.5l-47 -9q-84 -14 -106 -36q-53 -53 -168 -412l-148 -459q-70 -215 -129 -422q-16 -16 -49 -12q-57 178 -190 500l-162 393l-50 127t-51.5 129l-35.5 82q-10 0 -66 -180l-159 -533q-27 -88 -86 -340q-8 -33 5 -50t32.5 -23.5 t62.5 -10.5l47 -6q8 -10 6 -26.5t-12 -24.5q-92 6 -234 6q-119 0 -215 -6q-10 6 -12 22.5t8 28.5l51 6q63 6 101 35q46 35 155 391zM1389 1686l-283 -222q-29 -18 -47.5 -18t-34.5 18l-180 222q-2 12 9 22t24 14l174 -129q18 -14 34 -14q12 0 33 10l252 133q10 0 15.5 -12 t3.5 -24z" />
<glyph unicode="&#x148;" horiz-adv-x="1026" d="M502 752l-140 -359l7 -4q123 186 259 316.5t242 130.5q115 0 115 -111q0 -49 -33 -143q-16 -45 -62 -154l-86 -202q-40 -93 -42 -97q-16 -39 4 -39q27 0 88 43t104 96q33 4 33 -28q-57 -96 -161.5 -163t-190.5 -67q-14 0 -31.5 16.5t-17.5 35t49 135.5q16 35 77.5 190.5 t88.5 212.5q43 96 43 150q0 49 -33 49q-37 0 -118 -69.5t-165 -174.5q-51 -63 -107 -154.5l-90 -151.5l-116 -214q-14 -25 -37 -25q-16 0 -30.5 3t-25.5 16.5t-3 34.5l237 645q18 47 -6 47q-70 0 -186 -103q-29 0 -25 31q59 82 144.5 136.5t161.5 54.5q37 0 52 -24.5 t1 -59.5zM655 971l-71 332q8 29 41 20l88 -178q16 -31 20 -31q12 0 33 25l186 188q10 4 22.5 -5t12.5 -24l-256 -335q-25 -31 -47 -31q-19 0 -29 39z" />
<glyph unicode="&#x14c;" horiz-adv-x="1495" d="M1036 1384q215 0 356.5 -145t129.5 -416q-8 -174 -83 -347t-194 -286q-236 -223 -536 -223q-246 0 -376 160t-124 375q4 197 87 380t241 316q218 186 499 186zM1028 1321q-164 0 -307 -123q-127 -106 -229.5 -317t-110.5 -457q-6 -166 75 -279.5t267 -113.5 q188 0 342 164q131 141 204.5 339.5t80.5 378.5q8 193 -79 300.5t-243 107.5zM1300 1479h-391q-14 18 -14 50t14 50h391q14 -18 14 -50t-14 -50z" />
<glyph unicode="&#x14d;" horiz-adv-x="831" d="M602 836q106 0 160.5 -72t48.5 -186q-6 -100 -59.5 -229.5t-157.5 -235.5q-137 -141 -293 -142q-100 0 -156.5 72t-48.5 201q6 104 65.5 234t157.5 224q140 134 283 134zM588 774q-76 0 -150 -98q-84 -113 -141 -267.5t-64 -244.5q-4 -55 18.5 -93t65.5 -38q82 0 162 106 q66 88 126.5 252t64.5 248q4 135 -82 135zM879 1032h-379q-14 18 -13.5 52t17.5 53h379q14 -18 12 -52.5t-16 -52.5z" />
<glyph unicode="&#x150;" horiz-adv-x="1495" d="M1036 1384q215 0 356.5 -145t129.5 -416q-8 -174 -83 -347t-194 -286q-236 -223 -536 -223q-246 0 -376 160t-124 375q4 197 87 380t241 316q218 186 499 186zM1028 1321q-164 0 -307 -123q-127 -106 -229.5 -317t-110.5 -457q-6 -166 75 -279.5t267 -113.5 q188 0 342 164q131 141 204.5 339.5t80.5 378.5q8 193 -79 300.5t-243 107.5zM1298 1712q16 0 52 -24q47 -35 24 -62l-9 -9l-14 -14l-16 -16l-149 -141q-39 8 -33 33l96 196q18 37 49 37zM1032 1712q23 0 53 -26q35 -31 21 -56q-12 -18 -37 -43l-149 -141q-39 8 -33 33 l96 196q18 37 49 37z" />
<glyph unicode="&#x151;" horiz-adv-x="831" d="M602 836q106 0 160.5 -72t48.5 -186q-6 -100 -59.5 -229.5t-157.5 -235.5q-137 -141 -293 -142q-100 0 -156.5 72t-48.5 201q6 104 65.5 234t157.5 224q140 134 283 134zM588 774q-76 0 -150 -98q-84 -113 -141 -267.5t-64 -244.5q-4 -55 18.5 -93t65.5 -38q82 0 162 106 q66 88 126.5 252t64.5 248q4 135 -82 135zM668 1190l-187 -250q-25 0 -28 23l106 288q23 63 49.5 63.5t50.5 -18.5q35 -25 35.5 -47t-26.5 -59zM934 1190l-186 -250q-25 0 -29 23l106 288q23 63 49.5 63.5t51.5 -18.5q35 -25 35 -47t-27 -59z" />
<glyph unicode="&#x152;" horiz-adv-x="2004" d="M1591 1352h303q227 0 289 6q-25 -61 -84 -273q-6 -12 -26.5 -11t-24.5 13q14 78 2 122t-74 61q-72 18 -217 18h-123q-39 0 -51 -11t-26 -58l-132 -420q-14 -43 -10 -51.5t47 -8.5h103q147 0 197.5 17.5t84.5 83.5l33 61q6 10 27.5 9t23.5 -13q-39 -92 -69 -199 q-29 -92 -54 -198q-10 -12 -27.5 -11.5t-23.5 13.5v57q0 76 -40 92.5t-171 16.5h-102q-43 0 -54.5 -8.5t-25.5 -51.5l-84 -276q-31 -102 -38 -140t3 -86q12 -23 58.5 -33t169.5 -10q182 0 263 35t173 178q33 20 47 -12q-16 -55 -60.5 -144t-80.5 -126q-35 2 -112 3t-116 1 q-41 0 -122 1t-119 1h-125q-41 0 -111 -5t-92 -5q-66 -4 -193 -4q-301 0 -463.5 157.5t-148.5 427.5q10 174 105.5 341t257.5 276q258 172 622 172q80 0 207 -4t184 -4zM1157 1298q-182 0 -329.5 -69.5t-236.5 -182t-138.5 -238.5t-57.5 -255q-14 -242 114 -373t343 -131 q59 0 95 7t78 46t65 113l296 940q20 63 14.5 86t-40.5 33q-90 24 -203 24z" />
<glyph unicode="&#x153;" horiz-adv-x="1183" d="M578 774q-76 0 -146 -98q-80 -113 -136 -267.5t-60 -244.5q-2 -57 19 -94t64 -37q82 0 158 106q63 88 120.5 250t61.5 250q5 135 -81 135zM1245 713q0 -111 -131 -193t-375 -147q-37 -74 -37 -176q0 -55 32 -89t83 -34t94 25.5t121 93.5q14 0 22.5 -10.5t4.5 -24.5 q-152 -186 -328 -187q-125 0 -153 154q-143 -154 -279 -154q-92 0 -147.5 69t-55.5 183.5t57.5 248.5t157.5 230q135 133 279 134q78 0 125 -49.5t59 -135.5q72 78 166 131.5t180 53.5q55 0 90 -39t35 -84zM1077 772q-57 0 -153 -98q-98 -102 -164 -242q104 31 163.5 64.5 t118.5 89.5q41 39 60.5 79t19.5 60q0 47 -45 47z" />
<glyph unicode="&#x154;" horiz-adv-x="1175" d="M270 295l240 766q45 145 40 180t-58 41l-78 8q-8 12 -5 28.5t15 22.5q133 16 348 17q270 0 387 -107q94 -84 94 -233q0 -143 -109.5 -241.5t-242.5 -121.5q-20 -2 -25.5 -12t1.5 -37q43 -182 102 -354q29 -82 45 -117t54 -62.5t104 -33.5q18 -10 0 -39q-49 -6 -129 -6 t-123 24.5t-68 96.5q-78 229 -121 397q-18 70 -35.5 86t-66.5 16q-80 0 -100.5 -10t-34.5 -55l-80 -254q-47 -143 -42 -188.5t83 -55.5l49 -6q8 -10 5 -27.5t-13 -23.5q-129 6 -246 6q-121 0 -217 -6q-12 8 -12 25.5t10 25.5l45 6q76 10 105.5 50t78.5 194zM715 1229 l-144 -469q-18 -63 -7 -74.5t89 -11.5q168 0 298 104.5t134 265.5q4 121 -66.5 185.5t-201.5 64.5q-57 0 -73.5 -11t-28.5 -54zM1147 1571l-295 -125q-10 4 -16.5 16.5t-1.5 24.5l249 201q27 25 47 24q27 0 48 -39q25 -47 12 -71q-10 -17 -43 -31z" />
<glyph unicode="&#x155;" horiz-adv-x="698" d="M387 836q113 0 47 -195l-88 -258h10q123 229 215 346q82 106 150 107q82 0 82 -101q0 -66 -43 -123q-18 -25 -39 -22.5t-27 33.5q-14 80 -43 79q-25 0 -71 -61q-57 -74 -125 -194.5t-109 -204.5l-115 -246q-12 -25 -34 -25q-16 0 -31.5 3t-29 16.5t-7.5 34.5q4 14 50 147 l91 270q45 137 70 228q12 43 -16 43q-66 0 -146 -107q-16 -4 -25.5 5.5t-7.5 27.5q117 197 242 197zM836 1155l-258 -227q-12 0 -22.5 8t-10.5 18l192 293q27 43 49 41q27 0 57.5 -30.5t26.5 -53.5q1 -20 -34 -49z" />
<glyph unicode="&#x156;" horiz-adv-x="1175" d="M270 295l240 766q45 145 40 180t-58 41l-78 8q-8 12 -5 28.5t15 22.5q133 16 348 17q270 0 387 -107q94 -84 94 -233q0 -143 -109.5 -241.5t-242.5 -121.5q-20 -2 -25.5 -12t1.5 -37q43 -182 102 -354q29 -82 45 -117t54 -62.5t104 -33.5q18 -10 0 -39q-49 -6 -129 -6 t-123 24.5t-68 96.5q-78 229 -121 397q-18 70 -35.5 86t-66.5 16q-80 0 -100.5 -10t-34.5 -55l-80 -254q-47 -143 -42 -188.5t83 -55.5l49 -6q8 -10 5 -27.5t-13 -23.5q-129 6 -246 6q-121 0 -217 -6q-12 8 -12 25.5t10 25.5l45 6q76 10 105.5 50t78.5 194zM715 1229 l-144 -469q-18 -63 -7 -74.5t89 -11.5q168 0 298 104.5t134 265.5q4 121 -66.5 185.5t-201.5 64.5q-57 0 -73.5 -11t-28.5 -54zM565 -119q57 0 91 -42t34 -95q0 -98 -81 -164.5t-183 -87.5q-20 16 -10 43q158 76 157 170q0 55 -57 66q-25 6 -24 45q0 29 21 47t52 18z" />
<glyph unicode="&#x157;" horiz-adv-x="698" d="M387 836q113 0 47 -195l-88 -258h10q123 229 215 346q82 106 150 107q82 0 82 -101q0 -66 -43 -123q-18 -25 -39 -22.5t-27 33.5q-14 80 -43 79q-25 0 -71 -61q-57 -74 -125 -194.5t-109 -204.5l-115 -246q-12 -25 -34 -25q-16 0 -31.5 3t-29 16.5t-7.5 34.5q4 14 50 147 l91 270q45 137 70 228q12 43 -16 43q-66 0 -146 -107q-16 -4 -25.5 5.5t-7.5 27.5q117 197 242 197zM115 -119q57 0 91 -42t34 -95q0 -98 -81 -164.5t-184 -87.5q-20 16 -10 43q158 76 158 170q0 55 -57 66q-25 6 -25 45q0 29 21.5 47t52.5 18z" />
<glyph unicode="&#x158;" horiz-adv-x="1175" d="M270 295l240 766q45 145 40 180t-58 41l-78 8q-8 12 -5 28.5t15 22.5q133 16 348 17q270 0 387 -107q94 -84 94 -233q0 -143 -109.5 -241.5t-242.5 -121.5q-20 -2 -25.5 -12t1.5 -37q43 -182 102 -354q29 -82 45 -117t54 -62.5t104 -33.5q18 -10 0 -39q-49 -6 -129 -6 t-123 24.5t-68 96.5q-78 229 -121 397q-18 70 -35.5 86t-66.5 16q-80 0 -100.5 -10t-34.5 -55l-80 -254q-47 -143 -42 -188.5t83 -55.5l49 -6q8 -10 5 -27.5t-13 -23.5q-129 6 -246 6q-121 0 -217 -6q-12 8 -12 25.5t10 25.5l45 6q76 10 105.5 50t78.5 194zM715 1229 l-144 -469q-18 -63 -7 -74.5t89 -11.5q168 0 298 104.5t134 265.5q4 121 -66.5 185.5t-201.5 64.5q-57 0 -73.5 -11t-28.5 -54zM1204 1686l-282 -222q-29 -18 -47.5 -18t-34.5 18l-181 222q-2 12 9.5 22t23.5 14l174 -129q18 -14 35 -14q12 0 33 10l252 133q10 0 15 -12 t3 -24z" />
<glyph unicode="&#x159;" horiz-adv-x="698" d="M387 836q113 0 47 -195l-88 -258h10q123 229 215 346q82 106 150 107q82 0 82 -101q0 -66 -43 -123q-18 -25 -39 -22.5t-27 33.5q-14 80 -43 79q-25 0 -71 -61q-57 -74 -125 -194.5t-109 -204.5l-115 -246q-12 -25 -34 -25q-16 0 -31.5 3t-29 16.5t-7.5 34.5q4 14 50 147 l91 270q45 137 70 228q12 43 -16 43q-66 0 -146 -107q-16 -4 -25.5 5.5t-7.5 27.5q117 197 242 197zM537 975l-72 332q8 29 41 20l88 -178q16 -31 20 -31q12 0 33 25l187 188q10 4 22 -5t12 -23l-256 -336q-25 -31 -47 -31q-18 0 -28 39z" />
<glyph unicode="&#x15a;" horiz-adv-x="964" d="M432 -33q-256 0 -358 144q-10 127 37 237q25 20 43 -4q25 -313 303 -313q115 0 207 73.5t92 214.5q0 102 -51.5 172t-153.5 150q-213 172 -213 356q0 170 123 278.5t325 108.5q90 0 172 -26.5t125 -54.5q-16 -29 -75 -238q-10 -8 -27.5 -8t-28.5 10q23 115 -20 184.5 t-172 69.5q-133 0 -205 -75t-72 -187q0 -141 199 -295q106 -82 163.5 -169t57.5 -204q0 -184 -130 -304t-341 -120zM1042 1571l-294 -125q-10 4 -16.5 16.5t-2.5 24.5l250 201q29 25 47 24q27 0 47 -39q25 -47 12 -71q-8 -17 -43 -31z" />
<glyph unicode="&#x15b;" horiz-adv-x="536" d="M461 836q53 0 88 -37t35 -80q0 -45 -37 -64q-23 -6 -39 17q-25 25 -35 34t-35.5 20t-54.5 11q-41 0 -62.5 -26.5t-21.5 -55.5q0 -70 70 -186q33 -53 46 -80t23.5 -65.5t7.5 -81.5q-4 -109 -106 -197q-84 -74 -207 -74q-55 0 -90 35t-35 74q0 35 31 67q27 25 55 0 q72 -82 142 -81q39 0 68.5 34.5t29.5 81.5q0 59 -76 180q-72 117 -72 191q0 109 123 215q78 68 152 68zM705 1153l-259 -227q-12 0 -22 8t-10 18l192 293q27 43 49 41q27 0 57.5 -30.5t26.5 -53.5q1 -20 -34 -49z" />
<glyph unicode="&#x15e;" horiz-adv-x="964" d="M319 -170l103 137q-250 4 -348 144q-10 127 37 237q25 20 43 -4q25 -313 303 -313q115 0 207 73.5t92 214.5q0 102 -51.5 172t-153.5 150q-213 172 -213 356q0 170 123 278.5t325 108.5q90 0 172 -26.5t125 -54.5q-16 -29 -75 -238q-10 -8 -27.5 -8t-28.5 10 q23 115 -20 184.5t-172 69.5q-133 0 -205 -75t-72 -187q0 -141 199 -295q106 -82 163.5 -169t57.5 -204q0 -170 -111.5 -286.5t-297.5 -131.5l-41 -53q-25 -33 2 -53q80 -66 80 -125q0 -70 -63.5 -118t-141.5 -48q-102 0 -103 66q0 16 14.5 32.5t37.5 16.5q20 0 49 -29 q31 -31 43 -31q20 0 38.5 15.5t18.5 48.5q0 78 -109 127v8z" />
<glyph unicode="&#xf6c1;" horiz-adv-x="964" d="M319 -170l103 137q-250 4 -348 144q-10 127 37 237q25 20 43 -4q25 -313 303 -313q115 0 207 73.5t92 214.5q0 102 -51.5 172t-153.5 150q-213 172 -213 356q0 170 123 278.5t325 108.5q90 0 172 -26.5t125 -54.5q-16 -29 -75 -238q-10 -8 -27.5 -8t-28.5 10 q23 115 -20 184.5t-172 69.5q-133 0 -205 -75t-72 -187q0 -141 199 -295q106 -82 163.5 -169t57.5 -204q0 -170 -111.5 -286.5t-297.5 -131.5l-41 -53q-25 -33 2 -53q80 -66 80 -125q0 -70 -63.5 -118t-141.5 -48q-102 0 -103 66q0 16 14.5 32.5t37.5 16.5q20 0 49 -29 q31 -31 43 -31q20 0 38.5 15.5t18.5 48.5q0 78 -109 127v8z" />
<glyph unicode="&#x15f;" horiz-adv-x="536" d="M43 -190l121 163q-8 -2 -31 -2q-55 0 -90 35t-35 74q0 35 31 67q27 25 55 0q72 -82 142 -81q39 0 68.5 34.5t29.5 81.5q0 59 -76 180q-72 117 -72 191q0 109 123 215q78 68 152 68q53 0 88 -37t35 -80q0 -45 -37 -64q-23 -6 -39 17q-25 25 -35 34t-35.5 20t-54.5 11 q-41 0 -62.5 -26.5t-21.5 -55.5q0 -70 70 -186q33 -53 46 -80t23.5 -65.5t7.5 -81.5q-4 -109 -106 -197q-41 -39 -96 -53l-68 -92q-23 -27 10 -54q76 -61 76 -133q0 -63 -65.5 -110t-143.5 -47q-102 0 -102 65q0 16 14.5 32.5t36.5 16.5q20 0 49 -28q31 -31 43 -31 q20 0 39 15.5t19 47.5q0 78 -109 127v9z" />
<glyph unicode="&#xf6c2;" horiz-adv-x="536" d="M43 -190l121 163q-8 -2 -31 -2q-55 0 -90 35t-35 74q0 35 31 67q27 25 55 0q72 -82 142 -81q39 0 68.5 34.5t29.5 81.5q0 59 -76 180q-72 117 -72 191q0 109 123 215q78 68 152 68q53 0 88 -37t35 -80q0 -45 -37 -64q-23 -6 -39 17q-25 25 -35 34t-35.5 20t-54.5 11 q-41 0 -62.5 -26.5t-21.5 -55.5q0 -70 70 -186q33 -53 46 -80t23.5 -65.5t7.5 -81.5q-4 -109 -106 -197q-41 -39 -96 -53l-68 -92q-23 -27 10 -54q76 -61 76 -133q0 -63 -65.5 -110t-143.5 -47q-102 0 -102 65q0 16 14.5 32.5t36.5 16.5q20 0 49 -28q31 -31 43 -31 q20 0 39 15.5t19 47.5q0 78 -109 127v9z" />
<glyph unicode="&#x160;" horiz-adv-x="964" d="M432 -33q-256 0 -358 144q-10 127 37 237q25 20 43 -4q25 -313 303 -313q115 0 207 73.5t92 214.5q0 102 -51.5 172t-153.5 150q-213 172 -213 356q0 170 123 278.5t325 108.5q90 0 172 -26.5t125 -54.5q-16 -29 -75 -238q-10 -8 -27.5 -8t-28.5 10q23 115 -20 184.5 t-172 69.5q-133 0 -205 -75t-72 -187q0 -141 199 -295q106 -82 163.5 -169t57.5 -204q0 -184 -130 -304t-341 -120zM1104 1686l-283 -222q-29 -18 -47 -18q-20 0 -35 18l-180 222q-2 12 9.5 22t23.5 14l174 -129q18 -14 35 -14q12 0 33 10l251 133q10 0 15.5 -12t3.5 -24z " />
<glyph unicode="&#x161;" horiz-adv-x="536" d="M461 836q53 0 88 -37t35 -80q0 -45 -37 -64q-23 -6 -39 17q-25 25 -35 34t-35.5 20t-54.5 11q-41 0 -62.5 -26.5t-21.5 -55.5q0 -70 70 -186q33 -53 46 -80t23.5 -65.5t7.5 -81.5q-4 -109 -106 -197q-84 -74 -207 -74q-55 0 -90 35t-35 74q0 35 31 67q27 25 55 0 q72 -82 142 -81q39 0 68.5 34.5t29.5 81.5q0 59 -76 180q-72 117 -72 191q0 109 123 215q78 68 152 68zM401 967l-71 331q8 29 41 21l88 -178q16 -31 20 -31q12 0 33 25l186 188q10 4 22.5 -5t12.5 -24l-256 -336q-25 -31 -47 -30q-19 0 -29 39z" />
<glyph unicode="&#x162;" horiz-adv-x="1298" d="M627 1352h757q80 0 112 8t63 39q27 10 34 -10q-29 -49 -67.5 -147.5t-48.5 -143.5q-6 -10 -22.5 -10.5t-24.5 10.5q8 127 -22 158.5t-173 31.5h-125q-49 0 -61.5 -12t-32.5 -78l-283 -903q-47 -143 -42 -190.5t79 -53.5l76 -6q12 -10 10 -27.5t-18 -23.5q-166 6 -270.5 6 t-250.5 -6q-12 8 -12 25.5t10 25.5l80 6q70 4 103.5 47t81.5 197l282 903q20 68 14 79t-57 11h-135q-143 0 -202.5 -35.5t-141.5 -148.5q-14 -6 -28.5 0t-18.5 20q92 145 147 275q6 8 19.5 8t19.5 -8q-4 -29 26 -38t122 -9zM514 -119q57 0 91 -42t34 -95q0 -98 -81 -164.5 t-183 -87.5q-20 16 -10 43q158 76 157 170q0 55 -57 66q-25 6 -25 45q0 29 21.5 47t52.5 18z" />
<glyph unicode="&#x21a;" horiz-adv-x="1298" d="M627 1352h757q80 0 112 8t63 39q27 10 34 -10q-29 -49 -67.5 -147.5t-48.5 -143.5q-6 -10 -22.5 -10.5t-24.5 10.5q8 127 -22 158.5t-173 31.5h-125q-49 0 -61.5 -12t-32.5 -78l-283 -903q-47 -143 -42 -190.5t79 -53.5l76 -6q12 -10 10 -27.5t-18 -23.5q-166 6 -270.5 6 t-250.5 -6q-12 8 -12 25.5t10 25.5l80 6q70 4 103.5 47t81.5 197l282 903q20 68 14 79t-57 11h-135q-143 0 -202.5 -35.5t-141.5 -148.5q-14 -6 -28.5 0t-18.5 20q92 145 147 275q6 8 19.5 8t19.5 -8q-4 -29 26 -38t122 -9zM514 -119q57 0 91 -42t34 -95q0 -98 -81 -164.5 t-183 -87.5q-20 16 -10 43q158 76 157 170q0 55 -57 66q-25 6 -25 45q0 29 21.5 47t52.5 18z" />
<glyph unicode="&#x163;" horiz-adv-x="581" d="M690 709h-223l-184 -539q-16 -51 14 -51q23 0 102.5 63.5t130.5 120.5q35 0 29 -37q-82 -121 -202.5 -208t-190.5 -87q-20 0 -37.5 18.5t-17.5 37.5q0 31 28 116l193 566h-160q-8 45 23 57l163 29l115 202q14 10 40 6t38 -18l-59 -201h223q10 -14 2.5 -39.5t-27.5 -35.5z M141 -119q57 0 91 -42t34 -95q0 -98 -81 -164.5t-183 -87.5q-20 16 -10 43q158 76 158 170q0 55 -58 66q-25 6 -24 45q0 29 21 47t52 18z" />
<glyph unicode="&#x21b;" horiz-adv-x="581" d="M690 709h-223l-184 -539q-16 -51 14 -51q23 0 102.5 63.5t130.5 120.5q35 0 29 -37q-82 -121 -202.5 -208t-190.5 -87q-20 0 -37.5 18.5t-17.5 37.5q0 31 28 116l193 566h-160q-8 45 23 57l163 29l115 202q14 10 40 6t38 -18l-59 -201h223q10 -14 2.5 -39.5t-27.5 -35.5z M141 -119q57 0 91 -42t34 -95q0 -98 -81 -164.5t-183 -87.5q-20 16 -10 43q158 76 158 170q0 55 -58 66q-25 6 -24 45q0 29 21 47t52 18z" />
<glyph unicode="&#x164;" horiz-adv-x="1298" d="M627 1352h757q80 0 112 8t63 39q27 10 34 -10q-29 -49 -67.5 -147.5t-48.5 -143.5q-6 -10 -22.5 -10.5t-24.5 10.5q8 127 -22 158.5t-173 31.5h-125q-49 0 -61.5 -12t-32.5 -78l-283 -903q-47 -143 -42 -190.5t79 -53.5l76 -6q12 -10 10 -27.5t-18 -23.5q-166 6 -270.5 6 t-250.5 -6q-12 8 -12 25.5t10 25.5l80 6q70 4 103.5 47t81.5 197l282 903q20 68 14 79t-57 11h-135q-143 0 -202.5 -35.5t-141.5 -148.5q-14 -6 -28.5 0t-18.5 20q92 145 147 275q6 8 19.5 8t19.5 -8q-4 -29 26 -38t122 -9zM1327 1686l-283 -222q-29 -18 -47 -18t-34 18 l-181 222q-2 12 9.5 22t23.5 14l174 -129q18 -14 35 -14q12 0 33 10l252 133q10 0 15 -12t3 -24z" />
<glyph unicode="&#x165;" horiz-adv-x="581" d="M690 709h-223l-184 -539q-16 -51 14 -51q23 0 102.5 63.5t130.5 120.5q35 0 29 -37q-82 -121 -202.5 -208t-190.5 -87q-20 0 -37.5 18.5t-17.5 37.5q0 31 28 116l193 566h-160q-8 45 23 57l163 29l115 202q14 10 40 6t38 -18l-59 -201h223q10 -14 2.5 -39.5t-27.5 -35.5z M748 1464q55 0 85.5 -41t30.5 -94q0 -90 -78.5 -159.5t-171.5 -92.5q-16 27 -10 43q145 72 146 170q0 47 -50 68q-25 8 -24 43q0 27 21.5 45t50.5 18z" />
<glyph unicode="&#x16a;" horiz-adv-x="1503" d="M326 545l159 512q33 106 39 148t-11 63.5t-75 31.5l-51 9q-10 8 -8 25.5t16 23.5q129 -6 240 -6q102 0 252 6q10 -6 10 -23.5t-12 -25.5l-58 -9q-84 -12 -111.5 -49t-76.5 -194l-147 -473q-168 -543 266 -543q342 0 506 508l94 289q61 190 82 317q16 68 4 101.5t-82 43.5 l-57 9q-10 10 -7.5 26.5t15.5 22.5q150 -6 219 -6q102 0 221 6q12 -8 12 -24.5t-12 -24.5l-47 -9q-74 -12 -101.5 -39.5t-60.5 -111.5q-20 -55 -100 -311l-94 -301q-96 -303 -240 -428q-160 -141 -387 -142q-281 0 -383 147.5t-14 430.5zM1294 1479h-391q-14 18 -14 50 t14 50h391q16 -18 16 -50t-16 -50z" />
<glyph unicode="&#x16b;" horiz-adv-x="1015" d="M535 774l-230 -598q-27 -70 14 -70q45 0 220 170q53 53 100 113t89 127.5t66.5 110.5t60.5 112.5t44 83.5q31 6 62.5 -6t37.5 -31l-48 -124l-98 -259l-93 -251q-20 -51 8 -52q27 0 91.5 53.5t109.5 106.5q35 8 37 -29q-43 -80 -162 -170t-197 -90q-25 0 -42 23.5t-9 48.5 l139 375l-4 2q-131 -164 -283.5 -306.5t-228.5 -142.5q-59 0 -73.5 53.5t14.5 120.5l188 498q23 59 0 59q-27 0 -88 -47t-106 -94q-14 -2 -25.5 7.5t-9.5 23.5q43 68 165 156t189 88q23 0 46.5 -18.5t15.5 -43.5zM913 1026h-378q-14 18 -14.5 55t16.5 56h378 q14 -18 13 -55.5t-15 -55.5z" />
<glyph unicode="&#x16e;" horiz-adv-x="1503" d="M326 545l159 512q33 106 39 148t-11 63.5t-75 31.5l-51 9q-10 8 -8 25.5t16 23.5q129 -6 240 -6q102 0 252 6q10 -6 10 -23.5t-12 -25.5l-58 -9q-84 -12 -111.5 -49t-76.5 -194l-147 -473q-168 -543 266 -543q342 0 506 508l94 289q61 190 82 317q16 68 4 101.5t-82 43.5 l-57 9q-10 10 -7.5 26.5t15.5 22.5q150 -6 219 -6q102 0 221 6q12 -8 12 -24.5t-12 -24.5l-47 -9q-74 -12 -101.5 -39.5t-60.5 -111.5q-20 -55 -100 -311l-94 -301q-96 -303 -240 -428q-160 -141 -387 -142q-281 0 -383 147.5t-14 430.5zM1124.5 1778q75.5 0 124.5 -49.5 t49 -117t-49 -116.5t-124.5 -49t-125 49t-49.5 116.5t49.5 117t125 49.5zM1032 1612q0 -47 26.5 -78t65.5 -31q41 0 67 31t26 78t-27 76.5t-66 29.5t-65.5 -30.5t-26.5 -75.5z" />
<glyph unicode="&#x16f;" horiz-adv-x="1015" d="M535 774l-230 -598q-27 -70 14 -70q45 0 220 170q53 53 100 113t89 127.5t66.5 110.5t60.5 112.5t44 83.5q31 6 62.5 -6t37.5 -31l-48 -124l-98 -259l-93 -251q-20 -51 8 -52q27 0 91.5 53.5t109.5 106.5q35 8 37 -29q-43 -80 -162 -170t-197 -90q-25 0 -42 23.5t-9 48.5 l139 375l-4 2q-131 -164 -283.5 -306.5t-228.5 -142.5q-59 0 -73.5 53.5t14.5 120.5l188 498q23 59 0 59q-27 0 -88 -47t-106 -94q-14 -2 -25.5 7.5t-9.5 23.5q43 68 165 156t189 88q23 0 46.5 -18.5t15.5 -43.5zM729 1280q74 0 124 -50t50 -116q0 -68 -49 -117t-125 -49 t-125 49.5t-49 116.5q0 66 50 116t124 50zM637 1114q0 -47 26.5 -77.5t65.5 -30.5q41 0 66.5 30.5t25.5 77.5t-26.5 77t-65.5 30t-65.5 -31t-26.5 -76z" />
<glyph unicode="&#x170;" horiz-adv-x="1503" d="M326 545l159 512q33 106 39 148t-11 63.5t-75 31.5l-51 9q-10 8 -8 25.5t16 23.5q129 -6 240 -6q102 0 252 6q10 -6 10 -23.5t-12 -25.5l-58 -9q-84 -12 -111.5 -49t-76.5 -194l-147 -473q-168 -543 266 -543q342 0 506 508l94 289q61 190 82 317q16 68 4 101.5t-82 43.5 l-57 9q-10 10 -7.5 26.5t15.5 22.5q150 -6 219 -6q102 0 221 6q12 -8 12 -24.5t-12 -24.5l-47 -9q-74 -12 -101.5 -39.5t-60.5 -111.5q-20 -55 -100 -311l-94 -301q-96 -303 -240 -428q-160 -141 -387 -142q-281 0 -383 147.5t-14 430.5zM1327 1712q16 0 51 -24 q47 -35 25 -62l-9 -9l-15 -14l-15 -16l-150 -141q-39 8 -32 33l96 196q18 37 49 37zM1061 1712q23 0 53 -26q35 -31 21 -56q-12 -18 -37 -43l-150 -141q-39 8 -33 33l97 196q18 37 49 37z" />
<glyph unicode="&#x171;" horiz-adv-x="1015" d="M535 774l-230 -598q-27 -70 14 -70q45 0 220 170q53 53 100 113t89 127.5t66.5 110.5t60.5 112.5t44 83.5q31 6 62.5 -6t37.5 -31l-48 -124l-98 -259l-93 -251q-20 -51 8 -52q27 0 91.5 53.5t109.5 106.5q35 8 37 -29q-43 -80 -162 -170t-197 -90q-25 0 -42 23.5t-9 48.5 l139 375l-4 2q-131 -164 -283.5 -306.5t-228.5 -142.5q-59 0 -73.5 53.5t14.5 120.5l188 498q23 59 0 59q-27 0 -88 -47t-106 -94q-14 -2 -25.5 7.5t-9.5 23.5q43 68 165 156t189 88q23 0 46.5 -18.5t15.5 -43.5zM774 1178l-186 -250q-25 0 -29 22l107 289q23 63 49 63.5 t51 -18.5q35 -25 35 -47t-27 -59zM1040 1178l-186 -250q-25 0 -29 22l107 289q23 63 49.5 63.5t50.5 -18.5q35 -25 35 -47t-27 -59z" />
<glyph unicode="&#x172;" horiz-adv-x="1503" d="M1444 838l-94 -301q-96 -303 -240 -428q-133 -119 -317 -136q-158 -127 -158 -229q0 -76 84 -76q63 0 104 29q18 -4 15 -31q-82 -94 -199 -94q-63 0 -96 37t-33 92q0 129 192 268q-268 4 -365 151.5t-11 424.5l159 512q33 106 39 148t-11 63.5t-75 31.5l-51 9 q-10 8 -8 25.5t16 23.5q129 -6 240 -6q102 0 252 6q10 -6 10 -23.5t-12 -25.5l-58 -9q-84 -12 -111.5 -49t-76.5 -194l-147 -473q-168 -543 266 -543q342 0 506 508l94 289q61 190 82 317q16 68 4 101.5t-82 43.5l-57 9q-10 10 -7.5 26.5t15.5 22.5q150 -6 219 -6 q102 0 221 6q12 -8 12 -24.5t-12 -24.5l-47 -9q-74 -12 -101.5 -39.5t-60.5 -111.5q-20 -55 -100 -311z" />
<glyph unicode="&#x173;" horiz-adv-x="1015" d="M535 774l-230 -598q-27 -70 14 -70q45 0 220 170q53 53 100 113t89 127.5t66.5 110.5t60.5 112.5t44 83.5q31 6 62.5 -6t37.5 -31l-48 -124l-98 -259l-93 -251q-20 -51 8 -52q27 0 91.5 52.5t113.5 107.5q29 8 33 -29q-14 -29 -93 -102q-96 -92 -145 -144.5t-100.5 -124 t-51.5 -116.5q0 -76 84 -76q63 0 105 29q18 -4 14 -31q-82 -94 -198 -94q-63 0 -96 36t-33 83q0 72 67.5 149.5t196.5 188.5q-98 -57 -119 -58q-25 0 -38 23.5t-3 48.5l139 375l-4 2q-131 -164 -283.5 -306.5t-228.5 -142.5q-59 0 -73.5 53.5t14.5 120.5l188 498q23 59 0 59 q-27 0 -88 -47t-106 -94q-14 -2 -25.5 7.5t-9.5 23.5q43 68 165 156t189 88q23 0 46.5 -18.5t15.5 -43.5z" />
<glyph unicode="&#x178;" horiz-adv-x="1155" d="M612 1186l105 -481q8 -39 19.5 -39t41.5 36l252 304q197 242 197 258q0 25 -60 34l-51 9q-10 8 -9 25.5t13 25.5q121 -6 213 -6q84 0 185 6q10 -6 10 -24.5t-10 -26.5l-43 -9q-82 -16 -115 -47q-84 -76 -201 -211l-233 -274q-109 -127 -141.5 -179t-69.5 -169l-39 -123 q-35 -111 -42 -156t9 -64.5t72 -23.5l73 -6q10 -8 7.5 -27.5t-13.5 -23.5q-172 6 -274 6q-106 0 -244 -6q-12 8 -12 25.5t10 25.5l74 6q72 6 101.5 46t82.5 198l41 121q29 82 32 124t-18 138l-102 444q-23 100 -43 134t-74 42l-51 9q-8 10 -6 27.5t12 23.5q115 -6 217 -6 q121 0 220 6q10 -8 10 -24.5t-10 -26.5l-60 -9q-57 -8 -73.5 -30.5t-2.5 -81.5zM778 1444q-35 0 -54 20.5t-19 55.5q0 47 28.5 77.5t67.5 30.5q35 0 55.5 -23.5t20.5 -54.5q0 -49 -30 -77.5t-69 -28.5zM1135 1444q-35 0 -54.5 20.5t-19.5 55.5q0 47 28.5 77.5t67.5 30.5 q35 0 55.5 -23.5t20.5 -54.5q0 -49 -28.5 -77.5t-69.5 -28.5z" />
<glyph unicode="&#x179;" horiz-adv-x="1230" d="M246 297l899 936q35 51 -58 55h-313q-170 0 -240.5 -35.5t-162.5 -169.5q-14 -8 -29.5 -0.5t-17.5 25.5q72 121 122 295q12 12 25 0q8 -35 40 -43t157 -8h546q164 0 220 6q20 -2 16 -25q-18 -12 -54 -44t-88 -85l-95 -97l-108 -112l-93 -96l-469 -487 q-276 -297 -277 -314q0 -35 185 -35h180q295 0 381 46q88 47 168 182q10 6 23.5 0t17.5 -17q-16 -63 -61.5 -152t-80.5 -128q-106 4 -190 4q-70 2 -213 2h-479q-145 0 -226 -6q-8 2 -10 13t2 20q70 51 283 270zM1145 1571l-295 -125q-10 4 -16.5 16.5t-2.5 24.5l250 201 q29 25 47 24q27 0 48 -39q25 -47 12 -71q-8 -17 -43 -31z" />
<glyph unicode="&#x17a;" horiz-adv-x="831" d="M4 29q0 37 119 145l498 463q29 29 -25 45q-125 41 -234 41q-49 0 -68.5 -24.5t-19.5 -49.5q0 -45 33 -78q0 -20 -19.5 -38.5t-51.5 -18.5q-37 0 -56.5 22.5t-19.5 53.5q0 61 92 147q92 82 213 82q57 0 131 -20q115 -35 149 -35q14 0 27.5 2t25.5 8l19 10q8 4 16.5 13.5 t12.5 13.5t11 13.5t9 11.5q23 2 39.5 -10.5t12.5 -30.5l-154 -138l-264 -240l-250 -243l2 -6q18 0 35.5 -1t33 -3t35 -8t30.5 -10.5l31.5 -12.5t29.5 -12l32 -15q23 -10 29 -14q86 -39 129 -39q35 0 64.5 26.5t29.5 67.5q0 31 -20 99q-10 35 5 48t36 13q39 0 63.5 -32.5 t24.5 -71.5q0 -92 -107 -178q-90 -72 -164 -72q-49 0 -168 51l-68 32q-50 24 -79 33t-51 9q-49 0 -76 -25.5t-43 -81.5q-80 -5 -80 58zM809 1155l-258 -227q-12 0 -22.5 8t-10.5 18l193 293q27 43 49 41q27 0 57.5 -30.5t26.5 -53.5q0 -20 -35 -49z" />
<glyph unicode="&#x17b;" horiz-adv-x="1230" d="M246 297l899 936q35 51 -58 55h-313q-170 0 -240.5 -35.5t-162.5 -169.5q-14 -8 -29.5 -0.5t-17.5 25.5q72 121 122 295q12 12 25 0q8 -35 40 -43t157 -8h546q164 0 220 6q20 -2 16 -25q-18 -12 -54 -44t-88 -85l-95 -97l-108 -112l-93 -96l-469 -487 q-276 -297 -277 -314q0 -35 185 -35h180q295 0 381 46q88 47 168 182q10 6 23.5 0t17.5 -17q-16 -63 -61.5 -152t-80.5 -128q-106 4 -190 4q-70 2 -213 2h-479q-145 0 -226 -6q-8 2 -10 13t2 20q70 51 283 270zM920 1446q-35 0 -55.5 21.5t-20.5 56.5q0 45 29.5 76.5 t68.5 31.5q35 0 54.5 -23.5t19.5 -54.5q0 -49 -28.5 -78.5t-67.5 -29.5z" />
<glyph unicode="&#x17c;" horiz-adv-x="831" d="M4 29q0 37 119 145l498 463q29 29 -25 45q-125 41 -234 41q-49 0 -68.5 -24.5t-19.5 -49.5q0 -45 33 -78q0 -20 -19.5 -38.5t-51.5 -18.5q-37 0 -56.5 22.5t-19.5 53.5q0 61 92 147q92 82 213 82q57 0 131 -20q115 -35 149 -35q14 0 27.5 2t25.5 8l19 10q8 4 16.5 13.5 t12.5 13.5t11 13.5t9 11.5q23 2 39.5 -10.5t12.5 -30.5l-154 -138l-264 -240l-250 -243l2 -6q18 0 35.5 -1t33 -3t35 -8t30.5 -10.5l31.5 -12.5t29.5 -12l32 -15q23 -10 29 -14q86 -39 129 -39q35 0 64.5 26.5t29.5 67.5q0 31 -20 99q-10 35 5 48t36 13q39 0 63.5 -32.5 t24.5 -71.5q0 -92 -107 -178q-90 -72 -164 -72q-49 0 -168 51l-68 32q-50 24 -79 33t-51 9q-49 0 -76 -25.5t-43 -81.5q-80 -5 -80 58zM625 1028q-37 0 -58.5 22.5t-21.5 59.5q0 49 31.5 82t72.5 33q37 0 57.5 -24.5t20.5 -57.5q0 -53 -30.5 -84t-71.5 -31z" />
<glyph unicode="&#x17d;" horiz-adv-x="1230" d="M246 297l899 936q35 51 -58 55h-313q-170 0 -240.5 -35.5t-162.5 -169.5q-14 -8 -29.5 -0.5t-17.5 25.5q72 121 122 295q12 12 25 0q8 -35 40 -43t157 -8h546q164 0 220 6q20 -2 16 -25q-18 -12 -54 -44t-88 -85l-95 -97l-108 -112l-93 -96l-469 -487 q-276 -297 -277 -314q0 -35 185 -35h180q295 0 381 46q88 47 168 182q10 6 23.5 0t17.5 -17q-16 -63 -61.5 -152t-80.5 -128q-106 4 -190 4q-70 2 -213 2h-479q-145 0 -226 -6q-8 2 -10 13t2 20q70 51 283 270zM1210 1686l-282 -222q-29 -18 -47 -18q-20 0 -35 18l-180 222 q-2 12 9 22t23 14l174 -129q18 -14 35 -14q12 0 33 10l252 133q10 0 15 -12t3 -24z" />
<glyph unicode="&#x17e;" horiz-adv-x="831" d="M4 29q0 37 119 145l498 463q29 29 -25 45q-125 41 -234 41q-49 0 -68.5 -24.5t-19.5 -49.5q0 -45 33 -78q0 -20 -19.5 -38.5t-51.5 -18.5q-37 0 -56.5 22.5t-19.5 53.5q0 61 92 147q92 82 213 82q57 0 131 -20q115 -35 149 -35q14 0 27.5 2t25.5 8l19 10q8 4 16.5 13.5 t12.5 13.5t11 13.5t9 11.5q23 2 39.5 -10.5t12.5 -30.5l-154 -138l-264 -240l-250 -243l2 -6q18 0 35.5 -1t33 -3t35 -8t30.5 -10.5l31.5 -12.5t29.5 -12l32 -15q23 -10 29 -14q86 -39 129 -39q35 0 64.5 26.5t29.5 67.5q0 31 -20 99q-10 35 5 48t36 13q39 0 63.5 -32.5 t24.5 -71.5q0 -92 -107 -178q-90 -72 -164 -72q-49 0 -168 51l-68 32q-50 24 -79 33t-51 9q-49 0 -76 -25.5t-43 -81.5q-80 -5 -80 58zM543 969l-72 331q8 29 41 21l88 -178q14 -31 21 -31q10 0 32 25l187 188q10 4 22 -5t12 -24l-256 -335q-25 -31 -47 -31q-18 0 -28 39z " />
<glyph unicode="&#x192;" horiz-adv-x="921" d="M326 666h168q39 131 96 229q49 86 133 153.5t184 67.5q68 0 99.5 -26.5t27.5 -59.5q-2 -31 -28.5 -53.5t-42.5 -22.5q-20 0 -39 31q-37 61 -82 62q-94 0 -197 -381h197q12 -8 10 -33t-16 -33h-211q-27 -78 -76 -250q-119 -424 -252 -532q-84 -68 -184 -68q-61 0 -89 31 t-24 76q2 25 14.5 39t22.5 14q23 0 39 -25q66 -57 108 -57q76 0 138 238q16 63 153 534h-156q-8 6 -5.5 32t12.5 34z" />
<glyph unicode="&#x218;" horiz-adv-x="964" d="M432 -33q-256 0 -358 144q-10 127 37 237q25 20 43 -4q25 -313 303 -313q115 0 207 73.5t92 214.5q0 102 -51.5 172t-153.5 150q-213 172 -213 356q0 170 123 278.5t325 108.5q90 0 172 -26.5t125 -54.5q-16 -29 -75 -238q-10 -8 -27.5 -8t-28.5 10q23 115 -20 184.5 t-172 69.5q-133 0 -205 -75t-72 -187q0 -141 199 -295q106 -82 163.5 -169t57.5 -204q0 -184 -130 -304t-341 -120zM358 -119q57 0 91 -42t34 -95q0 -98 -80.5 -164.5t-183.5 -87.5q-20 16 -10 43q158 76 158 170q0 55 -58 66q-25 6 -24 45q0 29 21 47t52 18z" />
<glyph unicode="&#x219;" horiz-adv-x="536" d="M461 836q53 0 88 -37t35 -80q0 -45 -37 -64q-23 -6 -39 17q-25 25 -35 34t-35.5 20t-54.5 11q-41 0 -62.5 -26.5t-21.5 -55.5q0 -70 70 -186q33 -53 46 -80t23.5 -65.5t7.5 -81.5q-4 -109 -106 -197q-84 -74 -207 -74q-55 0 -90 35t-35 74q0 35 31 67q27 25 55 0 q72 -82 142 -81q39 0 68.5 34.5t29.5 81.5q0 59 -76 180q-72 117 -72 191q0 109 123 215q78 68 152 68zM102 -119q57 0 91 -42t34 -95q0 -98 -80.5 -164.5t-183.5 -87.5q-20 16 -10 43q158 76 158 170q0 55 -58 66q-25 6 -24 45q0 29 21 47t52 18z" />
<glyph unicode="&#x2c6;" d="M799 1292l78 -331q-12 -27 -43 -21l-86 188q-12 27 -19 27q-10 0 -33 -22l-190 -197q-12 -2 -23.5 6t-11.5 23l250 335q25 31 43 31q25 0 35 -39z" />
<glyph unicode="&#x2c7;" d="M623 975l-72 332q8 29 41 20l88 -178q16 -31 20 -31q12 0 33 25l187 188q10 4 22 -5t12 -23l-256 -336q-25 -31 -47 -31q-18 0 -28 39z" />
<glyph unicode="&#x2d8;" d="M655 1014q-215 0 -166 233q8 6 22.5 6t18.5 -6q6 -133 144 -133q133 0 188 133q8 6 22.5 6t18.5 -6q-37 -233 -248 -233z" />
<glyph unicode="&#x2d9;" d="M623 1038q-37 0 -58.5 22.5t-21.5 59.5q0 49 31.5 82t72.5 33q37 0 57.5 -24.5t20.5 -57.5q0 -53 -30.5 -84t-71.5 -31z" />
<glyph unicode="&#x2da;" d="M631 1307q74 0 124 -49.5t50 -117t-49 -116.5t-125 -49t-125 49t-49 116.5t50 117t124 49.5zM539 1141q0 -47 26.5 -78t65.5 -31q41 0 66.5 31t25.5 78t-26.5 76.5t-65.5 29.5t-65.5 -30.5t-26.5 -75.5z" />
<glyph unicode="&#x2db;" d="M420 41h74q-86 -59 -164 -142t-78 -155q0 -76 84 -76q63 0 104 29q18 -4 15 -31q-82 -94 -199 -94q-63 0 -96 37t-33 92q0 90 92 182t201 158z" />
<glyph unicode="&#x2dc;" d="M563 1194h103q59 0 84.5 12.5t58.5 59.5q23 12 33 -9q-23 -88 -72 -137q-33 -31 -92 -30h-100q-59 0 -93 -23t-63 -76q-20 -12 -31 8q6 31 27.5 82.5t42.5 69.5q36 43 102 43z" />
<glyph unicode="&#x2dd;" d="M727 1190l-186 -250q-25 0 -29 23l106 288q23 63 49.5 63.5t51.5 -18.5q35 -25 35 -47t-27 -59zM993 1190l-186 -250q-25 0 -29 23l107 288q23 63 49.5 63.5t50.5 -18.5q35 -25 35 -47t-27 -59z" />
<glyph unicode="&#x394;" horiz-adv-x="1253" d="M1075 0h-1079q-16 10 -3 41t32 57l364 508l402 555q74 102 79 146q20 6 37 17t40 34l28 26q18 0 18 -18q6 -98 23 -276l90 -996q4 -33 -6.5 -63.5t-24.5 -30.5zM213 88h659q47 0 61.5 10.5t12.5 40.5l-65 846q-2 18 -4.5 48t-3.5 50.5t-3 30.5h-14q-12 -14 -86 -121 l-596 -852q-25 -35 -17.5 -44t56.5 -9z" />
<glyph unicode="&#x2206;" horiz-adv-x="1253" d="M1075 0h-1079q-16 10 -3 41t32 57l364 508l402 555q74 102 79 146q20 6 37 17t40 34l28 26q18 0 18 -18q6 -98 23 -276l90 -996q4 -33 -6.5 -63.5t-24.5 -30.5zM213 88h659q47 0 61.5 10.5t12.5 40.5l-65 846q-2 18 -4.5 48t-3.5 50.5t-3 30.5h-14q-12 -14 -86 -121 l-596 -852q-25 -35 -17.5 -44t56.5 -9z" />
<glyph unicode="&#x3a9;" horiz-adv-x="1597" d="M348 131h141q0 2 -46 73.5t-61 102.5l-47 99q-32 68 -45.5 130t-13.5 128q0 299 209 509.5t543 210.5q266 0 418.5 -140t152.5 -374q0 -74 -14 -138t-48 -124.5t-65.5 -104.5t-92.5 -100l-98 -88q-38 -33 -115 -93l-113 -91h127q117 0 189.5 41t150.5 135q8 8 19 8 t18.5 -9t3.5 -19q-88 -125 -177 -301q-152 14 -172 14h-368l12 41q260 188 412.5 404.5t152.5 441.5q0 203 -97 318.5t-302 115.5q-264 0 -416.5 -211t-152.5 -516q0 -270 149 -553l-14 -41h-283q-10 0 -176 -14q-27 252 -45 321q10 16 26.5 16.5t18.5 -16.5q33 -96 82 -136 t137 -40z" />
<glyph unicode="&#x2126;" horiz-adv-x="1597" d="M348 131h141q0 2 -46 73.5t-61 102.5l-47 99q-32 68 -45.5 130t-13.5 128q0 299 209 509.5t543 210.5q266 0 418.5 -140t152.5 -374q0 -74 -14 -138t-48 -124.5t-65.5 -104.5t-92.5 -100l-98 -88q-38 -33 -115 -93l-113 -91h127q117 0 189.5 41t150.5 135q8 8 19 8 t18.5 -9t3.5 -19q-88 -125 -177 -301q-152 14 -172 14h-368l12 41q260 188 412.5 404.5t152.5 441.5q0 203 -97 318.5t-302 115.5q-264 0 -416.5 -211t-152.5 -516q0 -270 149 -553l-14 -41h-283q-10 0 -176 -14q-27 252 -45 321q10 16 26.5 16.5t18.5 -16.5q33 -96 82 -136 t137 -40z" />
<glyph unicode="&#x3c0;" horiz-adv-x="1044" d="M793 694h-263q-100 -283 -217 -536q-90 -186 -180 -187q-55 0 -61 58q0 6 1 10t4 10t6 10t10 11.5t13.5 11.5t16.5 13t16 16q145 131 314 583q-121 0 -186.5 -29.5t-137.5 -115.5q-10 -12 -23.5 -5t-3.5 25q61 121 101 158q29 27 63 45q66 35 189 35h434q176 0 219 20 q12 6 14 -1t-6 -17l-69 -113q-43 -10 -183 -6q-117 -215 -155 -428q-31 -164 71 -164q82 0 187 107q8 8 14 -12q4 -10 -2 -19q-63 -98 -144 -150.5t-159 -52.5q-51 0 -80 26t-34 67.5t-1 79.5t14 77q46 172 218 473z" />
<glyph unicode="&#x2000;" horiz-adv-x="937" />
<glyph unicode="&#x2001;" horiz-adv-x="1878" />
<glyph unicode="&#x2002;" horiz-adv-x="937" />
<glyph unicode="&#x2003;" horiz-adv-x="1878" />
<glyph unicode="&#x2004;" horiz-adv-x="624" />
<glyph unicode="&#x2005;" horiz-adv-x="468" />
<glyph unicode="&#x2006;" horiz-adv-x="311" />
<glyph unicode="&#x2007;" horiz-adv-x="311" />
<glyph unicode="&#x2008;" horiz-adv-x="233" />
<glyph unicode="&#x2009;" horiz-adv-x="374" />
<glyph unicode="&#x200a;" horiz-adv-x="102" />
<glyph unicode="&#x2010;" horiz-adv-x="655" d="M137 471l498 45q16 -20 10 -59t-27 -58l-497 -45q-14 20 -9 59.5t25 57.5z" />
<glyph unicode="&#x2011;" horiz-adv-x="655" d="M137 471l498 45q16 -20 10 -59t-27 -58l-497 -45q-14 20 -9 59.5t25 57.5z" />
<glyph unicode="&#x2012;" horiz-adv-x="1024" d="M178 696h922l-29 -100h-921z" />
<glyph unicode="&#x2013;" horiz-adv-x="1024" d="M33 471h1057l-33 -100h-1057z" />
<glyph unicode="&#x2014;" horiz-adv-x="2048" d="M33 471h2081l-33 -100h-2081z" />
<glyph unicode="&#x2018;" horiz-adv-x="425" d="M473 981q-66 0 -103.5 48t-37.5 110q0 98 93 175t208 109q25 -12 12 -39q-182 -86 -182 -206q0 -55 65 -78q31 -12 31 -43t-25.5 -53.5t-60.5 -22.5z" />
<glyph unicode="&#x2019;" horiz-adv-x="425" d="M518 1405q66 0 103.5 -48t37.5 -110q0 -98 -93 -175t-208 -109q-25 12 -12 38q182 86 182 207q0 55 -65 78q-31 12 -31 43t25.5 53.5t60.5 22.5z" />
<glyph unicode="&#x201a;" horiz-adv-x="425" d="M141 233q66 0 104 -48t38 -109q0 -98 -93.5 -175t-207.5 -110q-25 12 -13 39q182 86 183 207q0 55 -66 78q-31 12 -31 42.5t25.5 53t60.5 22.5z" />
<glyph unicode="&#x201c;" horiz-adv-x="778" d="M485 981q-66 0 -103.5 48t-37.5 110q0 98 93 175t208 109q25 -12 12 -39q-182 -86 -182 -206q0 -55 66 -78q31 -12 30.5 -43t-26 -53.5t-60.5 -22.5zM817 981q-66 0 -103.5 48t-37.5 110q0 98 93 175t208 109q25 -12 12 -39q-182 -86 -182 -206q0 -55 65 -78 q31 -12 31 -43t-25.5 -53.5t-60.5 -22.5z" />
<glyph unicode="&#x201d;" horiz-adv-x="778" d="M526 1405q66 0 104 -48t38 -110q0 -98 -93.5 -175t-207.5 -109q-25 12 -13 38q182 86 183 207q0 55 -66 78q-31 12 -31 43t25.5 53.5t60.5 22.5zM858 1405q66 0 103.5 -48t37.5 -110q0 -98 -93 -175t-208 -109q-25 12 -12 38q182 86 182 207q0 55 -65 78q-31 12 -31 43 t25.5 53.5t60.5 22.5z" />
<glyph unicode="&#x201e;" horiz-adv-x="778" d="M147 233q66 0 104 -48t38 -109q0 -98 -93.5 -175t-207.5 -110q-25 12 -13 39q182 86 183 207q0 55 -66 78q-31 12 -31 42.5t25.5 53t60.5 22.5zM479 233q66 0 104 -48t38 -109q0 -98 -93.5 -175t-208.5 -110q-25 12 -12 39q182 86 182 207q0 55 -65 78q-31 12 -31 42.5 t25.5 53t60.5 22.5z" />
<glyph unicode="&#x2020;" horiz-adv-x="956" d="M385 -260h-70l82 280q82 279 82 517q61 55 97 130.5t81 225.5q-70 0 -156.5 -29.5t-109.5 -29.5q-43 0 -66.5 25.5t-15.5 66.5q20 82 111 82q29 0 105.5 -30t146.5 -30q41 135 39 231.5t0 110.5q8 39 39.5 66.5t74.5 27.5q47 0 64.5 -31.5t7.5 -70.5q-8 -27 -34.5 -64.5 t-61.5 -104t-64 -165.5q70 0 157 30t116 30q41 0 61.5 -26t12 -64.5t-38 -61t-70.5 -22.5q-31 0 -106.5 29.5t-145.5 29.5q-31 -102 -43 -159.5t-12 -108t20 -88.5q-137 -229 -221 -517z" />
<glyph unicode="&#x2021;" horiz-adv-x="962" d="M356 -254q-51 0 -67.5 32t-5.5 70q4 16 63.5 118t97.5 235q-74 0 -157 -33q-82 -29 -117 -29q-37 0 -58.5 23.5t-13.5 64.5q6 37 36 60.5t73 23.5q29 0 105.5 -30.5t146.5 -30.5q31 106 43 161.5t10 101.5t-27 75q57 45 91 112.5t75 206.5q-74 0 -157 -33 q-82 -29 -117 -28q-37 0 -58.5 23.5t-13.5 64.5q6 37 36 60.5t73 23.5q29 0 105.5 -31t146.5 -31q39 131 37.5 229.5t3.5 112.5q8 33 37.5 59.5t72.5 26.5q47 0 63.5 -31.5t6.5 -72.5q-4 -16 -30 -51t-61.5 -104.5t-64.5 -168.5q70 0 160 31t117 31q41 0 60 -26.5t11 -67.5 q-18 -78 -100 -78q-29 0 -115 31q-78 31 -147 30q-39 -133 -45 -197.5t22 -121.5q-55 -41 -90 -114t-80 -224q70 0 160 30.5t117 30.5q41 0 60.5 -26.5t10.5 -67.5q-16 -78 -100 -78q-27 0 -115 31q-76 31 -147 31q-39 -135 -40 -248t-3 -121q-6 -33 -36 -59.5t-75 -26.5z " />
<glyph unicode="&#x2022;" horiz-adv-x="798" d="M510 973q119 0 202 -83t83 -202t-83 -200.5t-202 -81.5t-202 81.5t-83 200.5t83 202t202 83z" />
<glyph unicode="&#x2024;" horiz-adv-x="1024" d="M467 195q43 0 66.5 -28t23.5 -65q0 -59 -35 -95t-82 -36q-43 0 -66.5 26t-23.5 71q0 53 36 90t81 37z" />
<glyph unicode="&#x2025;" horiz-adv-x="1024" d="M215 195q43 0 66.5 -28t23.5 -65q0 -59 -34.5 -95t-82.5 -36q-43 0 -66.5 26t-23.5 71q0 53 36 90t81 37zM725 195q43 0 66.5 -28t23.5 -65q0 -59 -35 -95t-82 -36q-43 0 -66.5 26t-23.5 71q0 53 36 90t81 37z" />
<glyph unicode="&#x2026;" horiz-adv-x="2048" d="M969 195q43 0 66.5 -28t23.5 -65q0 -59 -35 -95t-82 -36q-43 0 -66.5 26t-23.5 71q0 53 36 90t81 37zM1651 195q43 0 66.5 -28t23.5 -65q0 -59 -35 -95t-82 -36q-43 0 -66.5 26t-23.5 71q0 53 36 90t81 37zM287 195q43 0 66.5 -28t23.5 -65q0 -59 -35 -95t-82 -36 q-43 0 -66.5 26t-23.5 71q0 53 36 90t81 37z" />
<glyph unicode="&#x202f;" horiz-adv-x="374" />
<glyph unicode="&#x2030;" horiz-adv-x="2099" d="M1845 606q68 0 114 -30.5t61.5 -78.5t18.5 -103.5t-14 -104.5q-29 -117 -123 -217.5t-223 -100.5t-170 100.5t-12 217.5q31 117 125 217t223 100zM1831 549q-49 0 -94 -49t-70 -103.5t-39 -107.5q-10 -37 -14 -78t-1 -84t24.5 -70.5t58.5 -27.5q70 0 124 86t74 174 q10 37 14.5 78t2.5 84t-22.5 70.5t-57.5 27.5zM1231 606q68 0 114 -30.5t61 -78.5t18 -103.5t-13 -104.5q-29 -117 -123 -217.5t-223 -100.5t-170 100.5t-12 217.5q31 117 125 217t223 100zM1217 549q-49 0 -94.5 -49t-70 -103.5t-38.5 -107.5q-10 -37 -14.5 -78t-1.5 -84 t24.5 -70.5t58.5 -27.5q70 0 124.5 86t74.5 174q10 37 14 78t2 84t-22 70.5t-57 27.5zM1307 1034l-955 -1106q-47 0 -49 47l948 1098q20 2 38 -10.5t18 -28.5zM563 1049q68 0 114 -31t61.5 -79t18.5 -103.5t-14 -104.5q-29 -117 -123 -217t-223 -100q-90 0 -140 53t-53 124 t9 140q31 117 125 217.5t225 100.5zM547 991q-70 0 -122 -84t-79 -176q-10 -37 -14 -78t-1 -84t23.5 -70.5t57.5 -27.5q55 0 99 50t64.5 102.5t34.5 107.5q68 260 -63 260z" />
<glyph unicode="&#x2039;" horiz-adv-x="532" d="M299 397l82 -297q-4 -12 -16.5 -18t-22.5 -2q-106 193 -180 309q-20 31 12 64l311 307q25 4 29 -27l-205 -287q-18 -22 -10 -49z" />
<glyph unicode="&#x203a;" horiz-adv-x="532" d="M104 106l205 287q18 23 10 49l-81 297q4 12 16 18.5t22 2.5q106 -193 181 -309q20 -31 -13 -64l-311 -307q-25 -5 -29 26z" />
<glyph unicode="&#x2044;" horiz-adv-x="204" d="M-373 -29l1141 1368q20 0 39.5 -14t19.5 -37l-1144 -1370q-56 0 -56 53z" />
<glyph unicode="&#x2215;" horiz-adv-x="204" d="M-373 -29l1141 1368q20 0 39.5 -14t19.5 -37l-1144 -1370q-56 0 -56 53z" />
<glyph unicode="&#x205f;" horiz-adv-x="468" />
<glyph unicode="&#x2070;" d="M696 1450q117 0 173.5 -75t56.5 -181q0 -117 -45 -235.5t-121 -200.5q-113 -127 -250 -127q-119 0 -175 73.5t-56 190.5q0 113 46 228.5t117 197.5q115 129 254 129zM719 930q72 176 72 346q0 49 -24 85t-71 36q-82 0 -155 -125q-53 -92 -90 -225.5t-37 -221.5 q0 -141 94 -141q49 0 93 43t66.5 87t51.5 116z" />
<glyph unicode="&#x2074;" d="M578 879h-322q-20 0 -12 24q8 20 35 43l585 559q25 25 64 25q37 0 37 -17q0 -8 -15 -26l-565 -526q-10 -20 35 -23h176q27 0 35 5t16 28l76 227q10 18 20 25q45 23 93 22q29 0 14 -39l-80 -239q-4 -10 -5 -15.5t1 -8.5t7 -4t15 -1h86q10 -8 4 -29.5t-20 -29.5h-78 q-29 0 -36 -4.5t-11 -20.5l-24 -72q-20 -51 -15.5 -70.5t49.5 -25.5l50 -6q6 -10 3 -22.5t-12 -16.5q-78 4 -192 4q-49 0 -172 -4q-8 4 -7 17.5t11 21.5l49 6q47 6 69.5 23.5t41.5 72.5l22 68q8 16 3.5 22.5t-31.5 6.5z" />
<glyph unicode="&#x2075;" d="M829 1337l-280 -34q-49 -6 -60 -29l-24 -51q-12 -23 31 -31l30 -6q68 -14 125.5 -39t107.5 -83t50 -138q0 -96 -58.5 -172t-151.5 -118t-194.5 -63.5t-203.5 -23.5q-14 6 -16.5 26.5t10.5 28.5q227 4 355 84t128 209q0 96 -86 144.5t-197 58.5q-45 4 -28 39l108 231 q16 33 45 37l369 43l8 -8q-4 -25 -26 -59t-42 -46z" />
<glyph unicode="&#x2076;" d="M1006 1497q23 -16 4 -39q-215 -53 -338 -131q-123 -82 -188.5 -214t-65.5 -261q0 -74 34.5 -121t100.5 -47q78 0 127 77t49 159q0 74 -35 110.5t-90 36.5q-27 0 -57 -8q-10 4 -11 14t7 19q51 43 133 43t138 -55.5t56 -147.5q0 -119 -97 -210t-230 -91q-127 0 -199 67.5 t-72 194.5q0 123 77 248t208 211q189 122 449 145z" />
<glyph unicode="&#x2077;" d="M596 1436h223q141 0 185 4q12 -4 8 -19q-76 -96 -148 -200l-442 -637q-16 -8 -32.5 1t-22.5 27l444 639q35 49 35 64q0 16 -31 16h-240q-70 0 -99.5 -13t-57.5 -54q-8 -8 -22.5 -4t-16.5 16q39 76 70 164q86 -4 147 -4z" />
<glyph unicode="&#x2078;" d="M674 1450q96 0 158.5 -48t62.5 -132q0 -43 -17.5 -76t-52 -56.5t-59.5 -34.5l-66 -28q139 -92 140 -207q0 -106 -91.5 -171.5t-222.5 -65.5q-119 0 -192.5 52t-73.5 144q0 156 242 234q-104 61 -105 164q0 92 78 158.5t199 66.5zM551 1032q-72 -25 -118 -81t-46 -115 q0 -74 45 -113t114.5 -39t119 44t49.5 114q0 63 -41 104t-123 86zM651 1104q53 18 91 63t40 105q0 55 -33.5 90t-93.5 35q-57 0 -99 -41t-42 -101q0 -47 31.5 -77.5t105.5 -73.5z" />
<glyph unicode="&#x2079;" d="M348 1161q0 113 91 201t225 88q127 0 192.5 -70.5t65.5 -189.5q0 -147 -107 -295q-84 -121 -229.5 -201t-329.5 -104q-12 4 -15 20.5t7 24.5q248 47 389 217q145 176 145 389q0 66 -30.5 111t-98.5 45q-76 0 -123 -61.5t-47 -141.5q0 -63 33 -108.5t84 -45.5q31 0 55 4 q8 -2 10.5 -14t-3.5 -18q-55 -41 -123 -41q-80 0 -135.5 53t-55.5 137z" />
<glyph unicode="&#x207d;" horiz-adv-x="491" d="M453 881q0 -221 79 -359q-8 -25 -36 -14q-174 178 -174 418q0 141 59 273t170 226q127 106 268 148q27 -4 19 -33q-145 -74 -232 -186q-153 -205 -153 -473z" />
<glyph unicode="&#x207e;" horiz-adv-x="491" d="M502 1194q0 221 -80 358q8 25 37 15q174 -178 174 -418q0 -141 -59.5 -273.5t-170.5 -226.5q-127 -106 -268 -147q-27 4 -18 33q145 74 231 186q154 205 154 473z" />
<glyph unicode="&#x207f;" horiz-adv-x="849" d="M553 1186l-100 -238l6 -4q90 127 190.5 214t184.5 87q141 0 67 -180q-12 -33 -48 -111l-68 -143q-32 -66 -31 -68q-8 -23 6 -22q18 0 65 28.5t80 63.5q12 2 20.5 -6t4.5 -21q-41 -63 -124 -109t-155 -46q-16 0 -31.5 11t-15.5 25.5t39 94.5l129 287l10 20q8 18 13.5 35.5 t10.5 37t1 32t-19 12.5q-66 0 -213 -168q-25 -27 -46 -54.5t-49 -72.5l-41 -67l-52 -89l-51 -88q-10 -16 -37 -16q-14 0 -26.5 2t-23.5 11t-5 24q8 18 184 458q14 35 -8 35q-49 0 -141 -74q-10 0 -16.5 9.5t-2.5 19.5q45 55 113.5 92t138.5 37q29 0 40 -17t1 -42z" />
<glyph unicode="&#x2080;" d="M379 469q117 0 173 -75t56 -181q0 -117 -45 -235.5t-121 -200.5q-113 -127 -249 -127q-119 0 -175.5 73.5t-56.5 190.5q0 113 46 228.5t118 197.5q115 129 254 129zM96 -156q0 -141 94 -141q49 0 93.5 43t67 87t50.5 116q72 176 72 346q0 49 -23.5 85t-72.5 36 q-80 0 -154 -125q-53 -92 -90 -225.5t-37 -221.5z" />
<glyph unicode="&#x2081;" d="M256 344l-61 10q-16 20 4 35q162 25 258 72q18 4 22 -12q-39 -109 -49 -146l-137 -467q-25 -78 -18.5 -102.5t59.5 -30.5l39 -4q8 -6 6 -20.5t-12 -18.5q-106 4 -195 4q-96 0 -170 -4q-6 4 -6 19.5t6 19.5l37 4q61 8 80.5 30.5t44.5 104.5l119 400q18 66 16 77 q2 12 -9 18.5t-34 10.5z" />
<glyph unicode="&#x2082;" d="M154 -238h127q78 0 116.5 13.5t69.5 58.5q8 6 24.5 4t20.5 -10q-35 -55 -88 -168q-66 4 -209 4h-176q-104 0 -154 -4q-18 12 -6 31q104 63 256 184q4 2 45 36l52 43l50 42q38 33 52 49l41 49q27 33 37 56.5t20 54.5t10 59q0 55 -36.5 91t-96.5 36q-96 0 -192 -119 q-10 -4 -20.5 2.5t-12.5 18.5q43 80 120 128t163 48q100 0 161.5 -52t61.5 -141q0 -82 -58.5 -149.5t-177.5 -155.5l-102 -75q-135 -100 -135 -123q0 -11 37 -11z" />
<glyph unicode="&#x2083;" d="M360 469q80 0 130.5 -40t50.5 -101q0 -106 -199 -172q-16 -14 12 -21q66 -16 114 -62t48 -118q0 -113 -84 -201t-198.5 -129t-225.5 -41q-70 0 -109.5 21.5t-37.5 62.5q0 25 18.5 43.5t44.5 18.5q41 0 70 -56q18 -37 61 -36q125 0 217.5 90t92.5 211q0 63 -40 102 t-104 39q-70 0 -145 -60q-41 18 -17 64l47 16q41 14 73 26.5t77 35t75.5 44t53.5 51.5t23 60q0 41 -29 62.5t-70 21.5q-51 0 -105 -34.5t-93 -85.5q-31 -4 -31 26q43 70 118.5 116t161.5 46z" />
<glyph unicode="&#x2084;" d="M260 -102h-321q-20 0 -13 24q8 20 35 43l586 559q25 25 63 25q37 0 37 -17q0 -8 -14 -26l-565 -526q-10 -20 34 -23h177q27 0 35 5t16 28l76 227q10 18 20 25q45 23 92 22q29 0 14 -39l-79 -239q-4 -10 -5.5 -15.5t1 -8.5t7.5 -4t15 -1h86q10 -8 4 -29.5t-20 -29.5h-78 q-29 0 -36 -4.5t-11 -20.5l-25 -72q-20 -51 -15 -70.5t50 -25.5l49 -6q6 -10 3 -22.5t-11 -16.5q-78 4 -193 4q-49 0 -172 -4q-8 4 -7 17.5t11 21.5l50 6q47 6 69.5 23.5t40.5 72.5l23 68q8 16 3 22.5t-32 6.5z" />
<glyph unicode="&#x2085;" d="M512 356l-281 -34q-49 -6 -59 -29l-25 -51q-12 -23 31 -31l31 -6q68 -14 125 -39t107.5 -83t50.5 -138q0 -96 -58.5 -172t-152 -118t-194.5 -63.5t-204 -23.5q-14 6 -16 26.5t10 28.5q227 4 355 84t128 209q0 96 -86 144.5t-196 58.5q-45 4 -29 39l109 231q16 33 45 37 l368 43l9 -8q-4 -25 -26 -59t-42 -46z" />
<glyph unicode="&#x2086;" d="M688 516q23 -16 4 -39q-215 -53 -338 -131q-123 -82 -188.5 -214t-65.5 -261q0 -74 35 -121t101 -47q78 0 127 77t49 159q0 74 -35 110.5t-90 36.5q-27 0 -58 -8q-10 4 -11 14t7 19q49 43 133 43q82 0 138.5 -55.5t56.5 -147.5q0 -119 -97.5 -210t-230.5 -91 q-127 0 -198.5 67.5t-71.5 194.5q0 123 77 248t208 211q188 122 448 145z" />
<glyph unicode="&#x2087;" d="M279 455h223q141 0 184 4q12 -4 8 -19q-76 -96 -147 -200l-443 -637q-16 -8 -32.5 1t-22.5 27l445 639q35 49 34 64q0 16 -30 16h-240q-70 0 -99.5 -13t-58.5 -54q-8 -8 -22.5 -4t-16.5 16q39 76 70 164q87 -4 148 -4z" />
<glyph unicode="&#x2088;" d="M356 469q96 0 159 -48t63 -132q0 -43 -17.5 -76t-52.5 -56.5t-59.5 -34.5t-65.5 -28q139 -92 139 -207q0 -106 -91 -171.5t-222 -65.5q-119 0 -192.5 52t-73.5 144q0 156 241 234q-104 61 -104 164q0 92 77.5 158.5t198.5 66.5zM233 51q-72 -25 -117.5 -81t-45.5 -115 q0 -74 45 -113t114.5 -39t118.5 44t49 114q0 61 -41 103t-123 87zM334 123q53 18 91 63t40 105q0 55 -34 90t-93 35t-100 -42t-41 -100q0 -47 31.5 -77.5t105.5 -73.5z" />
<glyph unicode="&#x2089;" d="M31 180q0 113 91 201t224 88q127 0 192.5 -70.5t65.5 -189.5q0 -147 -106 -295q-84 -121 -229.5 -201t-329.5 -104q-12 4 -15.5 20.5t6.5 24.5q248 47 389 217q145 176 146 389q0 66 -31 111t-98 45q-76 0 -123 -61.5t-47 -141.5q0 -63 32.5 -108.5t84.5 -45.5q31 0 55 4 q8 -2 10 -14t-4 -18q-55 -41 -123 -41q-80 0 -135 53t-55 137z" />
<glyph unicode="&#x208d;" horiz-adv-x="491" d="M176 -100q0 -221 80 -359q-8 -25 -37 -14q-174 178 -174 418q0 141 59.5 273t169.5 226q127 106 269 148q27 -4 18 -33q-145 -74 -231 -186q-154 -205 -154 -473z" />
<glyph unicode="&#x208e;" horiz-adv-x="491" d="M225 213q0 221 -80 358q8 25 37 15q174 -178 174 -418q0 -141 -59 -273.5t-170 -226.5q-127 -106 -268 -147q-27 4 -19 33q145 74 232 186q153 205 153 473z" />
<glyph unicode="&#x20a1;" horiz-adv-x="921" d="M539 66l333 878q-55 6 -131 2l-329 -866q55 -22 127 -14zM350 109l314 825q-199 -47 -313.5 -192.5t-114.5 -356.5q-1 -200 114 -276zM692 1006l45 112q35 25 70 0l-41 -104q76 4 131 -4l41 108q8 10 30.5 10t39.5 -10l-43 -114q88 -14 147 -46q-47 -82 -78 -188 q-6 -8 -24.5 -7t-22.5 9q33 129 -51 156l-322 -856q147 33 248 178q33 8 39 -10q-27 -78 -108 -209q-16 0 -136 -15q-63 -12 -73 -12l-43 -113q-33 -23 -70 0l41 107q-76 0 -125 8l-45 -115q-35 -23 -72 0l49 134q-111 35 -183.5 130t-72.5 251q0 250 185.5 409.5 t443.5 190.5z" />
<glyph unicode="&#x20a3;" horiz-adv-x="1024" d="M123 430h172l176 561q18 59 26.5 89t14.5 63t3 46t-13 25.5t-28.5 16.5t-49.5 6l-29 2q-8 6 0 25.5t19 23.5q147 -6 219 -6h340q223 0 252 6q-33 -98 -76 -256q-6 -10 -23.5 -12t-21.5 6q4 45 4 80t-18.5 61.5t-59.5 38.5q-45 12 -176 13h-113q-41 0 -51 -10.5t-26 -63.5 l-109 -348q-10 -39 -5 -46.5t48 -7.5h127q123 0 160 13q39 14 71 65l25 39q10 8 27.5 8t19.5 -8q-2 -8 -22.5 -60t-32.5 -95q-12 -39 -23.5 -84.5t-17.5 -63.5q-8 -8 -24.5 -8t-22.5 8l-2 37q-4 53 -43 68q-29 10 -138 10h-127q-41 0 -54 -9.5t-23 -44.5l-60 -188h391 q10 -8 2 -32.5t-22 -32.5h-391l-23 -74q-49 -152 -45 -194t82 -48l72 -6q8 -6 0 -25.5t-19 -23.5q-182 6 -256 6q-86 0 -213 -6q-6 4 -2 22.5t15 26.5l47 6q74 8 101.5 47t74.5 195l22 74h-172q-8 8 -0.5 32.5t21.5 32.5z" />
<glyph unicode="&#x20a4;" horiz-adv-x="1024" d="M193 745h176q20 0 25 3.5t7 15.5l15 57q55 223 176 356.5t299 133.5q96 0 151 -47q23 -23 23 -47q0 -31 -30.5 -61t-49.5 -30q-12 0 -29 19q-59 80 -139 80q-164 0 -231 -318q-2 -16 -13.5 -66t-15.5 -77q-4 -20 0 -25.5t23 -5.5h301q12 -6 5 -34.5t-22 -30.5h-284 q-27 0 -35 -4.5t-13 -24.5l-14 -72q-4 -18 0 -23t29 -5h287q12 -10 4.5 -37t-21.5 -29h-285q-43 0 -53 -27q-18 -51 -84.5 -136t-158.5 -146l2 -4q72 10 153 -2q41 -6 164 -64q115 -53 176 -53q102 0 115 147q6 72 53 72q25 0 47.5 -25.5t22.5 -56.5q0 -74 -109.5 -156.5 t-230.5 -82.5q-96 0 -234 81q-127 74 -205 74q-72 0 -86 -67q-4 -20 -37.5 -38t-54.5 -18q-37 0 -26 37q14 57 123 133q82 57 141 146.5t76 156.5q6 16 1 22.5t-28 6.5h-182q-10 4 -4 29.5t20 36.5h186q35 0 37 18l23 94q6 16 2 22.5t-27 6.5h-178q-10 4 -3.5 31.5 t20.5 33.5z" />
<glyph unicode="&#x20a7;" horiz-adv-x="1024" d="M537 963h411q12 125 -56.5 196.5t-201.5 71.5q-49 0 -63.5 -11.5t-28.5 -58.5zM221 963h176l15 49q39 123 35.5 161.5t-70.5 45.5l-84 8q-6 10 0 26.5t20 22.5q92 16 355 16q244 0 338 -84q102 -92 92 -245h100q10 -8 2 -33t-22 -33h-95q-41 -193 -264 -287 q-135 -57 -272 -57q-16 4 -14 19.5t14 19.5q158 29 260 107.5t129 197.5h-420l-190 -604q-49 -154 -41 -193t104 -51l49 -6q4 -8 -3 -26.5t-17 -22.5q-180 6 -256 6q-109 0 -211 -6q-8 4 -4 22.5t16 26.5l49 6q72 8 98.5 47t75.5 197l191 604h-176q-8 8 -1 33t21 33z" />
<glyph unicode="&#x20ac;" horiz-adv-x="1136" d="M229 641h76q78 190 248 299t379 109q129 0 282 -50q-41 -102 -67 -208q-10 -8 -27.5 -8.5t-21.5 10.5q23 86 -27.5 137t-155.5 51q-156 0 -270.5 -94t-173.5 -246h565q8 -6 1 -32.5t-25 -33.5h-563q-16 -57 -23 -104h518q8 -6 1 -33.5t-23 -34.5h-502q-4 -14 -4 -49 q0 -156 72.5 -236.5t193.5 -80.5q186 0 309 201q10 12 26.5 8t16.5 -19q-33 -98 -98 -219q-18 0 -125 -18q-88 -18 -141 -19q-178 0 -298 95.5t-120 318.5q0 14 2 18h-100q-10 14 -2 37t26 31h82q8 59 25 104h-80q-10 12 -2 35t26 31z" />
<glyph unicode="&#x2113;" horiz-adv-x="880" d="M295 592l100 319q82 256 198 401.5t265 145.5q84 0 131 -60.5t47 -135.5q0 -84 -44 -172.5t-102.5 -155t-149.5 -139t-150.5 -113.5t-140.5 -90l-74 -234q-41 -150 -17.5 -219t84.5 -69q133 0 275 190q12 8 28.5 -3t12.5 -28q-68 -125 -168.5 -191.5t-202.5 -66.5 q-127 0 -169 106.5t9 272.5l45 154q-86 -59 -204 -121q-39 14 -23 57q39 29 123 77t127 75zM600 1112l-125 -424q74 49 142.5 103.5t146.5 131t124 167t46 176.5q0 123 -107 123q-61 0 -124.5 -72t-102.5 -205z" />
<glyph unicode="&#x2122;" horiz-adv-x="1126" d="M471 1087v201v12q0 4 -2 7.5t-6 3.5h-12h-35q-72 0 -88 -66q-16 -6 -21 6q10 66 25 123h18q12 -16 21.5 -19t36.5 -3h235q35 0 57 22h17q-14 -57 -10 -129q-2 -4 -10.5 -5t-10.5 3q-4 27 -9 38t-21.5 20.5t-45.5 9.5h-43q-10 0 -12 -3t-2 -20v-207q0 -45 5 -60t28 -22 l30 -4q4 -4 3 -14t-5 -12q-41 2 -98 2q-74 0 -106 -2q-14 6 -2 26l28 4q35 4 35 88zM1196 1059l-4 182q0 18 -2 21q-2 0 -35 -62l-51 -100l-17 -33l-27 -57q-13 -29 -18 -41q-18 -6 -22 -2q-16 41 -53 116l-52 103q-39 84 -43 86q-4 -6 -6 -96q-2 -35 -2 -125 q0 -31 7.5 -40.5t31.5 -13.5l17 -2q8 -12 0 -26q-18 2 -89 2q-45 0 -75 -2q-4 2 -5 11t3 15l10 2q43 4 47 43q16 160 16 244q0 35 -45 41l-14 2q-2 4 -2 14.5t4 12.5q20 -2 64 -2q55 0 86 2q0 -20 45 -105l51 -96q33 -57 35 -57q4 4 34 57l50 88q31 55 47 113q31 -2 61 -2 q51 0 74 2q8 -2 9 -13.5t-7 -13.5l-19 -2q-35 -4 -34 -45q0 -129 6 -223q2 -31 6 -41t18 -15l29 -6q4 -4 4 -14t-4 -12q-27 2 -94 2q-57 0 -84 -2q-4 4 -5 13t5 13l18 6q23 8 27 16.5t4 41.5z" />
<glyph unicode="&#x212e;" horiz-adv-x="1679" d="M1710 627h-1210q-10 0 -11 -11v-364q0 -23 17 -43q186 -197 459 -197q141 0 266 58.5t215 162.5h108q-104 -121 -258.5 -191.5t-332.5 -70.5q-309 0 -528.5 197t-219.5 475.5t219 476t528.5 197.5t528.5 -197.5t219 -476.5v-16zM1436 674v368q0 25 -19 43 q-186 190 -452 191q-268 0 -457 -195q-18 -18 -19 -47v-360q0 -10 11 -10h927q9 0 9 10z" />
<glyph unicode="&#x2153;" horiz-adv-x="1679" d="M301 -29l1141 1368q20 0 39.5 -14t19.5 -37l-1145 -1370q-55 0 -55 53zM344 680l119 399q18 66 16 78q2 12 -9 18.5t-34 10.5l-61 10q-16 20 4 35q162 25 258 72q18 4 22 -13q-39 -109 -49 -145l-137 -467q-25 -78 -18.5 -102.5t59.5 -30.5l39 -4q8 -6 6 -20.5t-12 -18.5 q-106 4 -195 4q-96 0 -170 -4q-6 4 -6 19.5t6 19.5l37 4q61 8 80.5 30.5t44.5 104.5zM1403 805q80 0 130 -40t50 -101q0 -106 -199 -172q-16 -14 13 -21q66 -16 114 -62.5t48 -117.5q0 -113 -84 -201t-199 -129t-225 -41q-70 0 -110 21.5t-38 62.5q0 25 18.5 43.5t45.5 18.5 q41 0 69 -56q18 -37 62 -37q125 0 217 90.5t92 210.5q0 63 -40 102.5t-103 39.5q-70 0 -146 -60q-41 18 -16 64l47 16q41 14 72.5 26.5t76.5 35t76 44t53.5 51.5t22.5 60q0 41 -28.5 62.5t-69.5 21.5q-51 0 -105.5 -34.5t-93.5 -86.5q-31 -4 -31 27q43 70 119 116t162 46z " />
<glyph unicode="&#x2154;" horiz-adv-x="1679" d="M369 -29l1140 1368q20 0 40 -14t20 -37l-1145 -1370q-55 0 -55 53zM403 604h127q78 0 117 13.5t70 58.5q8 6 24.5 4t20.5 -10q-35 -55 -88 -168q-66 4 -209 4h-176q-104 0 -154 -4q-18 12 -6 30q104 63 256 185q4 2 45 36l52 43l49 42q38 33 53 49l41 49q27 33 37 56.5 t20 54t10 59.5q0 55 -37 91t-96 36q-96 0 -192 -119q-10 -4 -20.5 2t-12.5 19q43 80 119.5 128t162.5 48q100 0 162 -52.5t62 -140.5q0 -82 -58.5 -149.5t-177.5 -155.5l-102 -76q-135 -102 -135 -123q-1 -10 36 -10zM1427 805q80 0 130.5 -40t50.5 -101q0 -106 -199 -172 q-16 -14 12 -21q66 -16 114 -62.5t48 -117.5q0 -113 -84 -201t-198.5 -129t-225.5 -41q-70 0 -109.5 21.5t-37.5 62.5q0 25 18.5 43.5t44.5 18.5q41 0 70 -56q18 -37 61 -37q125 0 217.5 90.5t92.5 210.5q0 63 -40 102.5t-104 39.5q-70 0 -145 -60q-41 18 -17 64l48 16 q41 14 72.5 26.5t76.5 35t76 44t53.5 51.5t22.5 60q0 41 -29 62.5t-70 21.5q-51 0 -105 -34.5t-93 -86.5q-31 -4 -31 27q43 70 118.5 116t161.5 46z" />
<glyph unicode="&#x215b;" horiz-adv-x="1679" d="M1399 805q96 0 158.5 -48t62.5 -132q0 -43 -17.5 -76t-52 -56.5t-59.5 -35t-66 -27.5q139 -92 140 -207q0 -106 -91.5 -171.5t-222.5 -65.5q-119 0 -192.5 52t-73.5 144q0 156 242 234q-104 61 -105 164q0 92 78 158.5t199 66.5zM1276 387q-72 -25 -118 -81t-46 -116 q0 -74 45 -112.5t114.5 -38.5t119 44t49.5 114q0 61 -41 103t-123 87zM1376 459q53 18 91 63t40 105q0 55 -33.5 90t-93.5 35q-57 0 -99 -42t-42 -100q0 -47 31.5 -77.5t105.5 -73.5zM293 -29l1141 1368q20 0 39.5 -14t19.5 -37l-1145 -1370q-55 0 -55 53zM360 680l119 399 q18 66 17 78q2 12 -9.5 18.5t-33.5 10.5l-62 10q-16 20 4 35q162 25 258 72q18 4 23 -13q-39 -109 -49 -145l-138 -467q-25 -78 -18.5 -102.5t59.5 -30.5l39 -4q8 -6 6 -20.5t-12 -18.5q-106 4 -194 4q-96 0 -170 -4q-6 4 -6 19.5t6 19.5l37 4q61 8 80 30.5t44 104.5z" />
<glyph unicode="&#x215c;" horiz-adv-x="1679" d="M1407 805q96 0 158.5 -48t62.5 -132q0 -43 -17.5 -76t-52 -56.5t-59 -35t-65.5 -27.5q139 -92 139 -207q0 -106 -91 -171.5t-222 -65.5q-119 0 -193 52t-74 144q0 156 242 234q-104 61 -105 164q0 92 78 158.5t199 66.5zM1284 387q-72 -25 -118 -81t-46 -116 q0 -74 45 -112.5t115 -38.5t119 44t49 114q0 61 -41 103t-123 87zM1384 459q53 18 91 63t41 105q0 55 -34 90t-93 35q-57 0 -99.5 -42t-42.5 -100q0 -47 31.5 -77.5t105.5 -73.5zM352 -29l1141 1368q20 0 39.5 -14t19.5 -37l-1144 -1370q-56 0 -56 53zM631 1311 q80 0 130 -40t50 -102q0 -106 -199 -172q-16 -14 13 -20q66 -16 113.5 -62.5t47.5 -117.5q0 -113 -84 -201t-198.5 -129t-224.5 -41q-70 0 -110 21.5t-38 62.5q0 25 18.5 43t45.5 18q41 0 69 -55q18 -37 62 -37q125 0 217 90t92 211q0 63 -40 102.5t-103 39.5 q-70 0 -146 -60q-41 18 -16 64l47 16q41 14 72.5 26.5t76.5 35t76 44t53.5 51t22.5 60.5q0 41 -28.5 62.5t-69.5 21.5q-51 0 -105.5 -34.5t-93.5 -86.5q-31 -4 -31 27q43 70 119 116t162 46z" />
<glyph unicode="&#x215d;" horiz-adv-x="1679" d="M1413 805q96 0 158.5 -48t62.5 -132q0 -43 -17.5 -76t-52 -56.5t-59 -35t-65.5 -27.5q139 -92 139 -207q0 -106 -91 -171.5t-222 -65.5q-119 0 -193 52t-74 144q0 156 242 234q-104 61 -104 164q0 92 77.5 158.5t198.5 66.5zM1290 387q-72 -25 -118 -81t-46 -116 q0 -74 45.5 -112.5t115 -38.5t118.5 44t49 114q0 61 -41 103t-123 87zM1391 459q53 18 91 63t40 105q0 55 -34 90t-93.5 35t-100.5 -42t-41 -100q0 -47 32 -77.5t106 -73.5zM360 -29l1141 1368q20 0 40 -14t20 -37l-1145 -1370q-56 0 -56 53zM793 1198l-281 -35 q-49 -6 -59 -28l-25 -52q-6 -12 3 -17t28 -9l30 -6q49 -10 93.5 -26.5t89.5 -46.5t72.5 -79t27.5 -111q0 -129 -102.5 -218t-233.5 -123.5t-272 -36.5q-14 6 -16.5 26.5t10.5 28.5q227 4 354 84t127 209q0 94 -85 141t-196 57q-47 4 -28 43l108 232q16 33 45 37l369 43l8 -8 q-4 -25 -25.5 -59t-41.5 -46z" />
<glyph unicode="&#x215e;" horiz-adv-x="1679" d="M1411 805q96 0 158.5 -48t62.5 -132q0 -43 -17.5 -76t-52 -56.5t-59 -35t-65.5 -27.5q139 -92 139 -207q0 -106 -91 -171.5t-222 -65.5q-119 0 -193 52t-74 144q0 156 242 234q-104 61 -104 164q0 92 77.5 158.5t198.5 66.5zM1288 387q-72 -25 -118 -81t-46 -116 q0 -74 45 -112.5t115 -38.5t119 44t49 114q0 61 -41 103t-123 87zM1389 459q53 18 91 63t40 105q0 55 -34 90t-93 35q-57 0 -99.5 -42t-42.5 -100q0 -47 32 -77.5t106 -73.5zM319 -29l1141 1368q20 0 40 -14t20 -37l-1145 -1370q-56 0 -56 53zM528 1296h224q141 0 184 4 q12 -4 8 -18q-76 -96 -147 -201l-443 -637q-16 -8 -32.5 1.5t-22.5 27.5l444 639q35 49 35 64q0 16 -30 16h-240q-70 0 -99.5 -13.5t-58.5 -54.5q-8 -8 -22.5 -4t-16.5 17q39 76 70 163q86 -4 147 -4z" />
<glyph unicode="&#x2202;" horiz-adv-x="983" d="M569 793q78 0 122 -25t126 -106q109 266 101 460q-4 106 -62.5 178t-187.5 72q-70 0 -164 -47q-43 -23 -69.5 3t-22.5 50q8 23 37 41q92 43 202 43q104 0 182 -42t121 -110.5t63.5 -158.5t17.5 -184.5t-25 -190.5q-66 -285 -213 -510q-195 -295 -432 -295 q-150 0 -223.5 117t-37.5 279q37 160 176 293t289 133zM604 719q-119 0 -220 -141.5t-132 -276.5q-23 -98 2 -184t102 -86q233 0 432 563q-80 125 -184 125z" />
<glyph unicode="&#x220f;" horiz-adv-x="1562" d="M1382 1358h-526q-70 0 -87 -9.5t-32 -56.5l-381 -1210q-51 -162 -45 -205t84 -51l56 -6q6 -6 4 -26.5t-13 -24.5q-176 6 -258 6q-37 0 -209 -6q-12 4 -12 23.5t12 27.5l29 6q88 18 119 57t80 199l329 1044q51 162 44 207t-84 51l-50 5q-14 6 -6 26.5t27 24.5 q29 0 111.5 -3t132.5 -3h880q102 0 225 6q8 -4 5.5 -24.5t-17.5 -26.5l-43 -5q-84 -8 -113.5 -49t-82.5 -209l-328 -1044q-53 -162 -47 -204t88 -52l45 -6q16 -6 12 -26.5t-18 -24.5q-158 6 -246 6q-115 0 -225 -6q-12 4 -12.5 23.5t12.5 27.5l39 6q90 14 118.5 52t79.5 204 l379 1210q14 47 4 56.5t-80 9.5z" />
<glyph unicode="&#x2211;" horiz-adv-x="1392" d="M1475 1434l-66 -293q-4 -10 -17.5 -14.5t-23.5 -0.5t-10 15q-2 123 -25 159q-41 66 -188 66h-539l320 -717q16 -35 -23 -74l-696 -671h700q109 0 166 43t141 162q6 10 20.5 13t26 -3t11.5 -23q-39 -63 -174 -336q-10 0 -58.5 7.5t-72.5 7.5h-893q-8 0 -78 -4 q-10 -2 -12 12q-4 23 16 41l752 715q37 37 18 77l-344 783q-6 14 4 26.5t23 12.5q45 -4 139 -4h883z" />
<glyph unicode="&#x2212;" horiz-adv-x="1146" d="M1030 371h-788v100h788v-100z" />
<glyph unicode="&#x221a;" horiz-adv-x="1146" d="M264 854l-16 68l332 147l217 -825l630 1634l70 -10l-749 -1946l-265 1028z" />
<glyph unicode="&#x221e;" horiz-adv-x="1597" d="M197 571q14 139 141 216t272 14q68 -31 116 -66t148 -127q100 92 148.5 127t116.5 66q145 63 272 -13.5t141 -216.5q12 -121 -77 -224t-224 -91q-59 6 -113.5 25.5t-97.5 48t-71.5 53.5l-58.5 54l-36 36l-35 -36q-30 -30 -58.5 -54.5t-71.5 -53t-97.5 -48t-113.5 -25.5 q-135 -12 -224 91t-77 224zM299 530q2 -88 77 -140t161 -32q55 12 98 37t68.5 47.5t103.5 98.5q-164 137 -244 166q-119 41 -192.5 -26t-71.5 -151zM1450 530q2 84 -71.5 151t-192.5 26q-80 -29 -244 -166l80 -77q16 -15 54 -45t65.5 -40t70.5 -21q86 -20 161 32t77 140z " />
<glyph unicode="&#x222b;" horiz-adv-x="696" d="M539 795l-107 -398q-96 -356 -201.5 -528t-240.5 -172q-76 0 -86 82q-10 66 65 100q59 27 107 -35q43 -53 94 56q25 53 39 120q61 279 141 590l58 228q106 424 215 589q98 156 202 156q45 0 67.5 -30.5t12.5 -71.5q-6 -33 -40 -53.5t-64 -20.5q-33 0 -53 25 q-29 29 -49.5 15.5t-30.5 -44.5q-8 -25 -49 -246t-80 -362z" />
<glyph unicode="&#x2248;" horiz-adv-x="1146" d="M971 721l63 -45q-76 -170 -221 -170q-82 0 -192 53l-28 13q-19 9 -26.5 13.5t-23 10.5t-24.5 9l-22 7q-13 4 -26.5 5t-26.5 1q-86 0 -174 -114l-61 51q82 166 248 166q72 0 211 -72q86 -43 149 -43q84 0 154 115zM971 408l63 -46q-76 -170 -225 -169q-78 0 -188 53 q-6 2 -27 12t-28 13t-23.5 11.5t-25.5 10.5t-23.5 6t-27.5 5t-28 1q-80 0 -168 -115l-61 52q82 166 242 166q74 0 208 -68q88 -47 158 -47q84 0 154 115z" />
<glyph unicode="&#x2260;" horiz-adv-x="1146" d="M211 625h475l129 196l78 -53l-94 -143h200v-101h-268l-137 -207h405v-100h-471l-131 -199l-78 54l97 145h-205v100h272l138 207h-410v101z" />
<glyph unicode="&#x2264;" horiz-adv-x="1146" d="M979 100v-100h-789v100h789zM186 672l797 379v-119l-649 -303v-4l649 -306v-116l-797 377v92z" />
<glyph unicode="&#x2265;" horiz-adv-x="1146" d="M205 1051l796 -379v-92l-796 -377v116l649 306v4l-649 303v119zM999 100v-100h-788v100h788z" />
<glyph unicode="&#x25ca;" horiz-adv-x="1126" d="M500 -82h-123l-152 782l637 764h123l158 -764zM1020 711l-125 643l-547 -666l119 -659z" />
<glyph unicode="&#xe000;" horiz-adv-x="835" d="M0 835h835v-835h-835v835z" />
<glyph unicode="&#xe001;" horiz-adv-x="2744" d="M866 -131q-262 0 -448 154q-119 98 -177.5 233t-58.5 279q0 164 82 294q66 109 142 109q37 0 56 -21.5t19 -50.5q0 -37 -26 -51q-55 -37 -104.5 -140.5t-49.5 -240.5q0 -190 129 -325q141 -150 428 -150q88 0 178 21.5t186.5 73.5t166 94t173.5 126l149 123l151 131 q25 20 166 155l302 276q161 142 306 249q236 176 389 176q37 0 64.5 -16t27.5 -45q0 -20 -13.5 -31.5t-29.5 -11.5q-6 0 -41 10t-63 10q-78 0 -117 -51q-51 -72 -125 -264q-121 -307 -246 -776q-25 -92 -16.5 -117.5t69.5 -34.5l88 -12q20 -35 -4 -51q-104 6 -278 6 q-133 0 -250 -6q-14 10 -14 26.5t10 24.5l94 14q70 10 94.5 39t59.5 144q47 158 123 379q-201 -25 -410 -37q-78 -84 -235.5 -232.5t-270.5 -236.5q-133 -102 -287.5 -163t-236.5 -72t-152 -11zM2144 676l336 16q76 240 197 467h-6q-90 -70 -178 -147l-150 -140zM3088 1571 l-295 -125q-10 4 -16 16.5t-2 24.5l250 201q27 25 47 24q27 0 47 -39q25 -47 12 -71q-10 -17 -43 -31z" />
<glyph unicode="&#xe002;" horiz-adv-x="2744" d="M866 -131q-262 0 -448 154q-119 98 -177.5 233t-58.5 279q0 164 82 294q66 109 142 109q37 0 56 -21.5t19 -50.5q0 -37 -26 -51q-55 -37 -104.5 -140.5t-49.5 -240.5q0 -190 129 -325q141 -150 428 -150q88 0 178 21.5t186.5 73.5t166 94t173.5 126l149 123l151 131 q25 20 166 155l302 276q161 142 306 249q236 176 389 176q37 0 64.5 -16t27.5 -45q0 -20 -13.5 -31.5t-29.5 -11.5q-6 0 -41 10t-63 10q-78 0 -117 -51q-51 -72 -125 -264q-121 -307 -246 -776q-25 -92 -16.5 -117.5t69.5 -34.5l88 -12q20 -35 -4 -51q-104 6 -278 6 q-133 0 -250 -6q-14 10 -14 26.5t10 24.5l94 14q70 10 94.5 39t59.5 144q47 158 123 379q-201 -25 -410 -37q-78 -84 -235.5 -232.5t-270.5 -236.5q-133 -102 -287.5 -163t-236.5 -72t-152 -11zM2144 676l336 16q76 240 197 467h-6q-90 -70 -178 -147l-150 -140zM2857 1464 q-215 0 -154 234q8 6 22.5 6t18.5 -6q0 -133 135.5 -133t196.5 133q8 6 22.5 6t18.5 -6q-49 -234 -260 -234z" />
<glyph unicode="&#xe003;" horiz-adv-x="2744" d="M866 -131q-262 0 -448 154q-119 98 -177.5 233t-58.5 279q0 164 82 294q66 109 142 109q37 0 56 -21.5t19 -50.5q0 -37 -26 -51q-55 -37 -104.5 -140.5t-49.5 -240.5q0 -190 129 -325q141 -150 428 -150q88 0 178 21.5t186.5 73.5t166 94t173.5 126l149 123l151 131 q25 20 166 155l302 276q161 142 306 249q236 176 389 176q37 0 64.5 -16t27.5 -45q0 -20 -13.5 -31.5t-29.5 -11.5q-6 0 -41 10t-63 10q-78 0 -117 -51q-51 -72 -125 -264q-121 -307 -246 -776q-25 -92 -16.5 -117.5t69.5 -34.5l88 -12q20 -35 -4 -51q-104 6 -278 6 q-133 0 -250 -6q-14 10 -14 26.5t10 24.5l94 14q70 10 94.5 39t59.5 144q47 158 123 379q-201 -25 -410 -37q-78 -84 -235.5 -232.5t-270.5 -236.5q-133 -102 -287.5 -163t-236.5 -72t-152 -11zM2144 676l336 16q76 240 197 467h-6q-90 -70 -178 -147l-150 -140zM2920 1694 l170 -224q-2 -12 -13 -23t-21 -11l-172 127q-16 16 -28.5 16t-35.5 -12l-262 -131q-10 0 -15.5 11t-0.5 23l301 224q25 18 45 18q24 0 32 -18z" />
<glyph unicode="&#xe004;" horiz-adv-x="2744" d="M866 -131q-262 0 -448 154q-119 98 -177.5 233t-58.5 279q0 164 82 294q66 109 142 109q37 0 56 -21.5t19 -50.5q0 -37 -26 -51q-55 -37 -104.5 -140.5t-49.5 -240.5q0 -190 129 -325q141 -150 428 -150q88 0 178 21.5t186.5 73.5t166 94t173.5 126l149 123l151 131 q25 20 166 155l302 276q161 142 306 249q236 176 389 176q37 0 64.5 -16t27.5 -45q0 -20 -13.5 -31.5t-29.5 -11.5q-6 0 -41 10t-63 10q-78 0 -117 -51q-51 -72 -125 -264q-121 -307 -246 -776q-25 -92 -16.5 -117.5t69.5 -34.5l88 -12q20 -35 -4 -51q-104 6 -278 6 q-133 0 -250 -6q-14 10 -14 26.5t10 24.5l94 14q70 10 94.5 39t59.5 144q47 158 123 379q-201 -25 -410 -37q-78 -84 -235.5 -232.5t-270.5 -236.5q-133 -102 -287.5 -163t-236.5 -72t-152 -11zM2144 676l336 16q76 240 197 467h-6q-90 -70 -178 -147l-150 -140zM2671 1444 q-35 0 -54.5 20.5t-19.5 55.5q0 47 28.5 77.5t67.5 30.5q35 0 55.5 -23.5t20.5 -54.5q0 -49 -29.5 -77.5t-68.5 -28.5zM3027 1444q-35 0 -54.5 20.5t-19.5 55.5q0 47 29 77.5t67 30.5q35 0 55.5 -23.5t20.5 -54.5q0 -49 -28.5 -77.5t-69.5 -28.5z" />
<glyph unicode="&#xe005;" horiz-adv-x="2744" d="M866 -131q-262 0 -448 154q-119 98 -177.5 233t-58.5 279q0 164 82 294q66 109 142 109q37 0 56 -21.5t19 -50.5q0 -37 -26 -51q-55 -37 -104.5 -140.5t-49.5 -240.5q0 -190 129 -325q141 -150 428 -150q88 0 178 21.5t186.5 73.5t166 94t173.5 126l149 123l151 131 q25 20 166 155l302 276q161 142 306 249q236 176 389 176q37 0 64.5 -16t27.5 -45q0 -20 -13.5 -31.5t-29.5 -11.5q-6 0 -41 10t-63 10q-78 0 -117 -51q-51 -72 -125 -264q-121 -307 -246 -776q-25 -92 -16.5 -117.5t69.5 -34.5l88 -12q20 -35 -4 -51q-104 6 -278 6 q-133 0 -250 -6q-14 10 -14 26.5t10 24.5l94 14q70 10 94.5 39t59.5 144q47 158 123 379q-201 -25 -410 -37q-78 -84 -235.5 -232.5t-270.5 -236.5q-133 -102 -287.5 -163t-236.5 -72t-152 -11zM2144 676l336 16q76 240 197 467h-6q-90 -70 -178 -147l-150 -140zM2933 1446 l-295 125q-33 14 -43 31q-12 25 12 71q20 39 47 39q20 0 47 -24l250 -201q4 -12 -2 -24.5t-16 -16.5z" />
<glyph unicode="&#xe006;" horiz-adv-x="2744" d="M866 -131q-262 0 -448 154q-119 98 -177.5 233t-58.5 279q0 164 82 294q66 109 142 109q37 0 56 -21.5t19 -50.5q0 -37 -26 -51q-55 -37 -104.5 -140.5t-49.5 -240.5q0 -190 129 -325q141 -150 428 -150q88 0 178 21.5t186.5 73.5t166 94t173.5 126l149 123l151 131 q25 20 166 155l302 276q161 142 306 249q236 176 389 176q37 0 64.5 -16t27.5 -45q0 -20 -13.5 -31.5t-29.5 -11.5q-6 0 -41 10t-63 10q-78 0 -117 -51q-51 -72 -125 -264q-121 -307 -246 -776q-25 -92 -16.5 -117.5t69.5 -34.5l88 -12q20 -35 -4 -51q-104 6 -278 6 q-133 0 -250 -6q-14 10 -14 26.5t10 24.5l94 14q70 10 94.5 39t59.5 144q47 158 123 379q-201 -25 -410 -37q-78 -84 -235.5 -232.5t-270.5 -236.5q-133 -102 -287.5 -163t-236.5 -72t-152 -11zM2144 676l336 16q76 240 197 467h-6q-90 -70 -178 -147l-150 -140zM3092 1479 h-391q-14 18 -14 50t14 50h391q16 -18 16 -50t-16 -50z" />
<glyph unicode="&#xe007;" horiz-adv-x="2744" d="M866 -131q-262 0 -448 154q-119 98 -177.5 233t-58.5 279q0 164 82 294q66 109 142 109q37 0 56 -21.5t19 -50.5q0 -37 -26 -51q-55 -37 -104.5 -140.5t-49.5 -240.5q0 -190 129 -325q141 -150 428 -150q88 0 178 21.5t186.5 73.5t166 94t173.5 126l149 123l151 131 q25 20 166 155l302 276q161 142 306 249q236 176 389 176q37 0 64.5 -16t27.5 -45q0 -20 -13.5 -31.5t-29.5 -11.5q-6 0 -41 10t-63 10q-78 0 -117 -51q-51 -72 -125 -264q-121 -307 -246 -776q-25 -92 -16.5 -117.5t69.5 -34.5l88 -12q20 -35 -4 -51q-10 0 -245 8 q-53 -41 -97.5 -106.5t-44.5 -126.5q0 -43 27 -70t68 -27q61 0 118 29q18 -4 15 -31q-88 -94 -189 -94q-80 0 -122 39t-42 100q0 143 185 285q-170 -4 -201 -6q-14 10 -14 26.5t10 24.5l94 14q70 10 94.5 39t59.5 144q47 158 123 379q-201 -25 -410 -37 q-78 -84 -235.5 -232.5t-270.5 -236.5q-133 -102 -287.5 -163t-236.5 -72t-152 -11zM2144 676l336 16q76 240 197 467h-6q-90 -70 -178 -147l-150 -140z" />
<glyph unicode="&#xe008;" horiz-adv-x="2744" d="M866 -131q-262 0 -448 154q-119 98 -177.5 233t-58.5 279q0 164 82 294q66 109 142 109q37 0 56 -21.5t19 -50.5q0 -37 -26 -51q-55 -37 -104.5 -140.5t-49.5 -240.5q0 -190 129 -325q141 -150 428 -150q88 0 178 21.5t186.5 73.5t166 94t173.5 126l149 123l151 131 q25 20 166 155l302 276q161 142 306 249q236 176 389 176q37 0 64.5 -16t27.5 -45q0 -20 -13.5 -31.5t-29.5 -11.5q-6 0 -41 10t-63 10q-78 0 -117 -51q-51 -72 -125 -264q-121 -307 -246 -776q-25 -92 -16.5 -117.5t69.5 -34.5l88 -12q20 -35 -4 -51q-104 6 -278 6 q-133 0 -250 -6q-14 10 -14 26.5t10 24.5l94 14q70 10 94.5 39t59.5 144q47 158 123 379q-201 -25 -410 -37q-78 -84 -235.5 -232.5t-270.5 -236.5q-133 -102 -287.5 -163t-236.5 -72t-152 -11zM2144 676l336 16q76 240 197 467h-6q-90 -70 -178 -147l-150 -140z M2846.5 1778q73.5 0 124 -49.5t50.5 -117t-49.5 -116.5t-125 -49t-124.5 49t-49 116.5t50 117t123.5 49.5zM2755 1612q0 -47 26.5 -78t65.5 -31q41 0 66.5 31t25.5 78t-26.5 76.5t-65.5 29.5t-65.5 -30.5t-26.5 -75.5z" />
<glyph unicode="&#xe009;" horiz-adv-x="2744" d="M866 -131q-262 0 -448 154q-119 98 -177.5 233t-58.5 279q0 164 82 294q66 109 142 109q37 0 56 -21.5t19 -50.5q0 -37 -26 -51q-55 -37 -104.5 -140.5t-49.5 -240.5q0 -190 129 -325q141 -150 428 -150q88 0 178 21.5t186.5 73.5t166 94t173.5 126l149 123l151 131 q25 20 166 155l302 276q161 142 306 249q236 176 389 176q37 0 64.5 -16t27.5 -45q0 -20 -13.5 -31.5t-29.5 -11.5q-6 0 -41 10t-63 10q-78 0 -117 -51q-51 -72 -125 -264q-121 -307 -246 -776q-25 -92 -16.5 -117.5t69.5 -34.5l88 -12q20 -35 -4 -51q-104 6 -278 6 q-133 0 -250 -6q-14 10 -14 26.5t10 24.5l94 14q70 10 94.5 39t59.5 144q47 158 123 379q-201 -25 -410 -37q-78 -84 -235.5 -232.5t-270.5 -236.5q-133 -102 -287.5 -163t-236.5 -72t-152 -11zM2144 676l336 16q76 240 197 467h-6q-90 -70 -178 -147l-150 -140zM2767 1618 h102q57 0 83 13.5t61 62.5q23 12 32 -8q-23 -88 -71 -138q-33 -31 -92 -30h-101q-59 0 -93 -22.5t-62 -76.5q-20 -12 -31 8q6 31 27.5 82.5t41.5 69.5q35 39 103 39z" />
<glyph unicode="&#xe00a;" horiz-adv-x="1679" d="M541 45l53 6q76 8 104.5 38t63.5 132l373 1090q-164 0 -340.5 -53.5t-290.5 -122.5q-135 -82 -148 -154q-2 -31 27 -46t63 -15q68 0 64 -89q0 -29 -26.5 -55t-69.5 -26q-55 0 -95 49t-38 114q2 166 161 289q240 182 746 182q336 0 477 -98q109 -78 109 -213 q0 -121 -104.5 -210t-260.5 -111q-14 -2 -18.5 -6.5t1 -9.5t17.5 -9q106 -39 166.5 -118t60.5 -193q0 -47 -14 -96.5t-56 -109.5t-107.5 -106.5t-178.5 -78t-258 -31.5q-37 0 -120 3t-136 3q-115 0 -223 -6q-12 8 -12 25.5t10 25.5zM1157 717q-51 0 -63.5 -8.5t-26.5 -46.5 l-149 -441q-31 -92 -0.5 -128t139.5 -36q70 0 136.5 19.5t126.5 60.5t98 116t38 175q0 147 -90 218t-209 71zM1606 1092q0 102 -69 160.5t-247 60.5l-166 -479q-12 -35 -1.5 -45.5t59.5 -10.5q63 0 129.5 14.5t136.5 47t114 98.5t44 154z" />
<glyph unicode="&#xe00b;" horiz-adv-x="1126" d="M1073 1413q129 0 227.5 -60.5t98.5 -162.5q0 -57 -37 -83t-70 -26q-23 0 -41 13.5t-20 31.5q-2 51 -9.5 84t-24.5 69t-56 53.5t-99 17.5q-119 0 -238.5 -84t-189.5 -176q-143 -188 -210.5 -400.5t-67.5 -404.5q0 -217 78 -331t217 -114q209 0 381 221q31 0 35 -28 q-66 -129 -190 -212t-261 -83q-195 0 -315.5 151.5t-120.5 374.5q0 287 120.5 540t276.5 390q242 219 516 219z" />
<glyph unicode="&#xe00c;" horiz-adv-x="1126" d="M1073 1413q129 0 227.5 -60.5t98.5 -162.5q0 -57 -37 -83t-70 -26q-23 0 -41 13.5t-20 31.5q-2 51 -9.5 84t-24.5 69t-56 53.5t-99 17.5q-119 0 -238.5 -84t-189.5 -176q-143 -188 -210.5 -400.5t-67.5 -404.5q0 -217 78 -331t217 -114q209 0 381 221q31 0 35 -28 q-66 -129 -190 -212t-261 -83q-195 0 -315.5 151.5t-120.5 374.5q0 287 120.5 540t276.5 390q242 219 516 219zM1327 1591l-295 -125q-10 4 -16 16.5t-2 24.5l250 201q27 25 47 25q27 0 47 -39q25 -47 12 -72q-10 -17 -43 -31z" />
</font>
</defs>
</svg>
